G75*
%MOIN*%
%OFA0B0*%
%FSLAX25Y25*%
%IPPOS*%
%LPD*%
%AMOC8*
5,1,8,0,0,1.08239X$1,22.5*
%
%ADD10C,0.00600*%
%ADD11C,0.00000*%
%ADD12C,0.00800*%
%ADD13C,0.00500*%
D10*
X0016046Y0028822D02*
X0016046Y0030956D01*
X0019602Y0030956D01*
X0019602Y0029889D01*
X0021024Y0027400D02*
X0021098Y0027402D01*
X0021173Y0027408D01*
X0021246Y0027418D01*
X0021320Y0027431D01*
X0021392Y0027448D01*
X0021463Y0027470D01*
X0021534Y0027494D01*
X0021602Y0027523D01*
X0021670Y0027555D01*
X0021735Y0027591D01*
X0021798Y0027629D01*
X0021860Y0027672D01*
X0021919Y0027717D01*
X0021975Y0027765D01*
X0022030Y0027816D01*
X0022081Y0027870D01*
X0022129Y0027927D01*
X0022174Y0027986D01*
X0022217Y0028048D01*
X0022255Y0028111D01*
X0022291Y0028176D01*
X0022323Y0028244D01*
X0022352Y0028312D01*
X0022376Y0028383D01*
X0022398Y0028454D01*
X0022415Y0028526D01*
X0022428Y0028600D01*
X0022438Y0028673D01*
X0022444Y0028748D01*
X0022446Y0028822D01*
X0022446Y0030956D01*
X0022446Y0033964D02*
X0016046Y0037520D01*
X0022446Y0037520D01*
X0022446Y0040529D02*
X0022446Y0042306D01*
X0022446Y0040529D02*
X0016046Y0040529D01*
X0016046Y0042306D01*
X0016046Y0033964D02*
X0022446Y0033964D01*
X0021024Y0027400D02*
X0017468Y0027400D01*
X0017394Y0027402D01*
X0017319Y0027408D01*
X0017246Y0027418D01*
X0017172Y0027431D01*
X0017100Y0027448D01*
X0017029Y0027470D01*
X0016958Y0027494D01*
X0016890Y0027523D01*
X0016822Y0027555D01*
X0016757Y0027591D01*
X0016694Y0027629D01*
X0016632Y0027672D01*
X0016573Y0027717D01*
X0016516Y0027765D01*
X0016462Y0027816D01*
X0016411Y0027870D01*
X0016363Y0027927D01*
X0016318Y0027986D01*
X0016275Y0028048D01*
X0016237Y0028111D01*
X0016201Y0028176D01*
X0016169Y0028244D01*
X0016140Y0028312D01*
X0016116Y0028383D01*
X0016094Y0028454D01*
X0016077Y0028526D01*
X0016064Y0028600D01*
X0016054Y0028673D01*
X0016048Y0028748D01*
X0016046Y0028822D01*
X0016046Y0042306D02*
X0016048Y0042388D01*
X0016054Y0042470D01*
X0016063Y0042552D01*
X0016076Y0042633D01*
X0016093Y0042713D01*
X0016114Y0042793D01*
X0016138Y0042871D01*
X0016166Y0042948D01*
X0016197Y0043024D01*
X0016232Y0043099D01*
X0016271Y0043171D01*
X0016312Y0043242D01*
X0016357Y0043311D01*
X0016405Y0043377D01*
X0016456Y0043442D01*
X0016510Y0043504D01*
X0016567Y0043563D01*
X0016626Y0043620D01*
X0016688Y0043674D01*
X0016753Y0043725D01*
X0016819Y0043773D01*
X0016888Y0043818D01*
X0016959Y0043859D01*
X0017031Y0043898D01*
X0017106Y0043933D01*
X0017182Y0043964D01*
X0017259Y0043992D01*
X0017337Y0044016D01*
X0017417Y0044037D01*
X0017497Y0044054D01*
X0017578Y0044067D01*
X0017660Y0044076D01*
X0017742Y0044082D01*
X0017824Y0044084D01*
X0020668Y0044084D01*
X0020750Y0044082D01*
X0020832Y0044076D01*
X0020914Y0044067D01*
X0020995Y0044054D01*
X0021075Y0044037D01*
X0021155Y0044016D01*
X0021233Y0043992D01*
X0021310Y0043964D01*
X0021386Y0043933D01*
X0021461Y0043898D01*
X0021533Y0043859D01*
X0021604Y0043818D01*
X0021673Y0043773D01*
X0021739Y0043725D01*
X0021804Y0043674D01*
X0021866Y0043620D01*
X0021925Y0043563D01*
X0021982Y0043504D01*
X0022036Y0043442D01*
X0022087Y0043377D01*
X0022135Y0043311D01*
X0022180Y0043242D01*
X0022221Y0043171D01*
X0022260Y0043099D01*
X0022295Y0043024D01*
X0022326Y0042948D01*
X0022354Y0042871D01*
X0022378Y0042793D01*
X0022399Y0042713D01*
X0022416Y0042633D01*
X0022429Y0042552D01*
X0022438Y0042470D01*
X0022444Y0042388D01*
X0022446Y0042306D01*
X0026046Y0041539D02*
X0026046Y0038694D01*
X0032446Y0038694D01*
X0032446Y0036178D02*
X0032446Y0034756D01*
X0032444Y0034682D01*
X0032438Y0034607D01*
X0032428Y0034534D01*
X0032415Y0034460D01*
X0032398Y0034388D01*
X0032376Y0034317D01*
X0032352Y0034246D01*
X0032323Y0034178D01*
X0032291Y0034110D01*
X0032255Y0034045D01*
X0032217Y0033982D01*
X0032174Y0033920D01*
X0032129Y0033861D01*
X0032081Y0033804D01*
X0032030Y0033750D01*
X0031975Y0033699D01*
X0031919Y0033651D01*
X0031860Y0033606D01*
X0031798Y0033563D01*
X0031735Y0033525D01*
X0031670Y0033489D01*
X0031602Y0033457D01*
X0031534Y0033428D01*
X0031463Y0033404D01*
X0031392Y0033382D01*
X0031320Y0033365D01*
X0031246Y0033352D01*
X0031173Y0033342D01*
X0031098Y0033336D01*
X0031024Y0033334D01*
X0031024Y0033333D02*
X0027468Y0033333D01*
X0027468Y0033334D02*
X0027394Y0033336D01*
X0027319Y0033342D01*
X0027246Y0033352D01*
X0027172Y0033365D01*
X0027100Y0033382D01*
X0027029Y0033404D01*
X0026958Y0033428D01*
X0026890Y0033457D01*
X0026822Y0033489D01*
X0026757Y0033525D01*
X0026694Y0033563D01*
X0026632Y0033606D01*
X0026573Y0033651D01*
X0026516Y0033699D01*
X0026462Y0033750D01*
X0026411Y0033804D01*
X0026363Y0033861D01*
X0026318Y0033920D01*
X0026275Y0033982D01*
X0026237Y0034045D01*
X0026201Y0034110D01*
X0026169Y0034178D01*
X0026140Y0034246D01*
X0026116Y0034317D01*
X0026094Y0034388D01*
X0026077Y0034460D01*
X0026064Y0034534D01*
X0026054Y0034607D01*
X0026048Y0034682D01*
X0026046Y0034756D01*
X0026046Y0036178D01*
X0027468Y0030955D02*
X0027394Y0030953D01*
X0027319Y0030947D01*
X0027246Y0030937D01*
X0027172Y0030924D01*
X0027100Y0030907D01*
X0027029Y0030885D01*
X0026958Y0030861D01*
X0026890Y0030832D01*
X0026822Y0030800D01*
X0026757Y0030764D01*
X0026694Y0030726D01*
X0026632Y0030683D01*
X0026573Y0030638D01*
X0026516Y0030590D01*
X0026462Y0030539D01*
X0026411Y0030485D01*
X0026363Y0030428D01*
X0026318Y0030369D01*
X0026275Y0030307D01*
X0026237Y0030244D01*
X0026201Y0030179D01*
X0026169Y0030111D01*
X0026140Y0030043D01*
X0026116Y0029972D01*
X0026094Y0029901D01*
X0026077Y0029829D01*
X0026064Y0029755D01*
X0026054Y0029682D01*
X0026048Y0029607D01*
X0026046Y0029533D01*
X0027468Y0030955D02*
X0027543Y0030953D01*
X0027618Y0030947D01*
X0027692Y0030938D01*
X0027766Y0030924D01*
X0027839Y0030907D01*
X0027911Y0030886D01*
X0027981Y0030861D01*
X0028051Y0030832D01*
X0028118Y0030800D01*
X0028184Y0030765D01*
X0028249Y0030726D01*
X0028311Y0030684D01*
X0028370Y0030638D01*
X0028428Y0030590D01*
X0028482Y0030539D01*
X0028534Y0030485D01*
X0028583Y0030428D01*
X0028629Y0030369D01*
X0028672Y0030308D01*
X0028712Y0030244D01*
X0028713Y0030244D02*
X0029779Y0028289D01*
X0032446Y0029000D02*
X0032444Y0029101D01*
X0032438Y0029202D01*
X0032429Y0029302D01*
X0032415Y0029402D01*
X0032398Y0029502D01*
X0032378Y0029601D01*
X0032353Y0029698D01*
X0032325Y0029795D01*
X0032293Y0029891D01*
X0032257Y0029986D01*
X0032218Y0030079D01*
X0032176Y0030170D01*
X0032130Y0030260D01*
X0032080Y0030348D01*
X0032028Y0030434D01*
X0031972Y0030518D01*
X0031913Y0030600D01*
X0029780Y0028289D02*
X0029820Y0028225D01*
X0029863Y0028164D01*
X0029909Y0028105D01*
X0029958Y0028048D01*
X0030010Y0027994D01*
X0030064Y0027943D01*
X0030122Y0027895D01*
X0030181Y0027849D01*
X0030243Y0027807D01*
X0030308Y0027768D01*
X0030374Y0027733D01*
X0030441Y0027701D01*
X0030511Y0027672D01*
X0030581Y0027647D01*
X0030653Y0027626D01*
X0030726Y0027609D01*
X0030800Y0027595D01*
X0030874Y0027586D01*
X0030949Y0027580D01*
X0031024Y0027578D01*
X0031098Y0027580D01*
X0031173Y0027586D01*
X0031246Y0027596D01*
X0031320Y0027609D01*
X0031392Y0027626D01*
X0031463Y0027648D01*
X0031534Y0027672D01*
X0031602Y0027701D01*
X0031670Y0027733D01*
X0031735Y0027769D01*
X0031798Y0027807D01*
X0031860Y0027850D01*
X0031919Y0027895D01*
X0031976Y0027943D01*
X0032030Y0027994D01*
X0032081Y0028049D01*
X0032129Y0028105D01*
X0032174Y0028164D01*
X0032217Y0028226D01*
X0032255Y0028289D01*
X0032291Y0028354D01*
X0032323Y0028422D01*
X0032352Y0028490D01*
X0032376Y0028561D01*
X0032398Y0028632D01*
X0032415Y0028704D01*
X0032428Y0028778D01*
X0032438Y0028851D01*
X0032444Y0028926D01*
X0032446Y0029000D01*
X0026936Y0027400D02*
X0026861Y0027477D01*
X0026788Y0027557D01*
X0026719Y0027640D01*
X0026652Y0027725D01*
X0026589Y0027812D01*
X0026529Y0027901D01*
X0026472Y0027993D01*
X0026418Y0028086D01*
X0026368Y0028182D01*
X0026321Y0028279D01*
X0026278Y0028378D01*
X0026238Y0028478D01*
X0026202Y0028579D01*
X0026170Y0028682D01*
X0026141Y0028786D01*
X0026116Y0028891D01*
X0026095Y0028997D01*
X0026078Y0029103D01*
X0026064Y0029210D01*
X0026055Y0029318D01*
X0026049Y0029425D01*
X0026047Y0029533D01*
X0036046Y0033554D02*
X0036046Y0035332D01*
X0036046Y0033554D02*
X0042446Y0033554D01*
X0042446Y0035332D01*
X0042446Y0041691D02*
X0036046Y0043824D01*
X0036046Y0039558D02*
X0042446Y0041691D01*
X0040668Y0037110D02*
X0037824Y0037110D01*
X0037742Y0037108D01*
X0037660Y0037102D01*
X0037578Y0037093D01*
X0037497Y0037080D01*
X0037417Y0037063D01*
X0037337Y0037042D01*
X0037259Y0037018D01*
X0037182Y0036990D01*
X0037106Y0036959D01*
X0037031Y0036924D01*
X0036959Y0036885D01*
X0036888Y0036844D01*
X0036819Y0036799D01*
X0036753Y0036751D01*
X0036688Y0036700D01*
X0036626Y0036646D01*
X0036567Y0036589D01*
X0036510Y0036530D01*
X0036456Y0036468D01*
X0036405Y0036403D01*
X0036357Y0036337D01*
X0036312Y0036268D01*
X0036271Y0036197D01*
X0036232Y0036125D01*
X0036197Y0036050D01*
X0036166Y0035974D01*
X0036138Y0035897D01*
X0036114Y0035819D01*
X0036093Y0035739D01*
X0036076Y0035659D01*
X0036063Y0035578D01*
X0036054Y0035496D01*
X0036048Y0035414D01*
X0036046Y0035332D01*
X0037646Y0040091D02*
X0037646Y0043291D01*
X0037468Y0030955D02*
X0037394Y0030953D01*
X0037319Y0030947D01*
X0037246Y0030937D01*
X0037172Y0030924D01*
X0037100Y0030907D01*
X0037029Y0030885D01*
X0036958Y0030861D01*
X0036890Y0030832D01*
X0036822Y0030800D01*
X0036757Y0030764D01*
X0036694Y0030726D01*
X0036632Y0030683D01*
X0036573Y0030638D01*
X0036516Y0030590D01*
X0036462Y0030539D01*
X0036411Y0030485D01*
X0036363Y0030428D01*
X0036318Y0030369D01*
X0036275Y0030307D01*
X0036237Y0030244D01*
X0036201Y0030179D01*
X0036169Y0030111D01*
X0036140Y0030043D01*
X0036116Y0029972D01*
X0036094Y0029901D01*
X0036077Y0029829D01*
X0036064Y0029755D01*
X0036054Y0029682D01*
X0036048Y0029607D01*
X0036046Y0029533D01*
X0037468Y0030955D02*
X0037543Y0030953D01*
X0037618Y0030947D01*
X0037692Y0030938D01*
X0037766Y0030924D01*
X0037839Y0030907D01*
X0037911Y0030886D01*
X0037981Y0030861D01*
X0038051Y0030832D01*
X0038118Y0030800D01*
X0038184Y0030765D01*
X0038249Y0030726D01*
X0038311Y0030684D01*
X0038370Y0030638D01*
X0038428Y0030590D01*
X0038482Y0030539D01*
X0038534Y0030485D01*
X0038583Y0030428D01*
X0038629Y0030369D01*
X0038672Y0030308D01*
X0038712Y0030244D01*
X0038713Y0030244D02*
X0039779Y0028289D01*
X0042446Y0029000D02*
X0042444Y0029101D01*
X0042438Y0029202D01*
X0042429Y0029302D01*
X0042415Y0029402D01*
X0042398Y0029502D01*
X0042378Y0029601D01*
X0042353Y0029698D01*
X0042325Y0029795D01*
X0042293Y0029891D01*
X0042257Y0029986D01*
X0042218Y0030079D01*
X0042176Y0030170D01*
X0042130Y0030260D01*
X0042080Y0030348D01*
X0042028Y0030434D01*
X0041972Y0030518D01*
X0041913Y0030600D01*
X0039780Y0028289D02*
X0039820Y0028225D01*
X0039863Y0028164D01*
X0039909Y0028105D01*
X0039958Y0028048D01*
X0040010Y0027994D01*
X0040064Y0027943D01*
X0040122Y0027895D01*
X0040181Y0027849D01*
X0040243Y0027807D01*
X0040308Y0027768D01*
X0040374Y0027733D01*
X0040441Y0027701D01*
X0040511Y0027672D01*
X0040581Y0027647D01*
X0040653Y0027626D01*
X0040726Y0027609D01*
X0040800Y0027595D01*
X0040874Y0027586D01*
X0040949Y0027580D01*
X0041024Y0027578D01*
X0041098Y0027580D01*
X0041173Y0027586D01*
X0041246Y0027596D01*
X0041320Y0027609D01*
X0041392Y0027626D01*
X0041463Y0027648D01*
X0041534Y0027672D01*
X0041602Y0027701D01*
X0041670Y0027733D01*
X0041735Y0027769D01*
X0041798Y0027807D01*
X0041860Y0027850D01*
X0041919Y0027895D01*
X0041976Y0027943D01*
X0042030Y0027994D01*
X0042081Y0028049D01*
X0042129Y0028105D01*
X0042174Y0028164D01*
X0042217Y0028226D01*
X0042255Y0028289D01*
X0042291Y0028354D01*
X0042323Y0028422D01*
X0042352Y0028490D01*
X0042376Y0028561D01*
X0042398Y0028632D01*
X0042415Y0028704D01*
X0042428Y0028778D01*
X0042438Y0028851D01*
X0042444Y0028926D01*
X0042446Y0029000D01*
X0042446Y0035332D02*
X0042444Y0035414D01*
X0042438Y0035496D01*
X0042429Y0035578D01*
X0042416Y0035659D01*
X0042399Y0035739D01*
X0042378Y0035819D01*
X0042354Y0035897D01*
X0042326Y0035974D01*
X0042295Y0036050D01*
X0042260Y0036125D01*
X0042221Y0036197D01*
X0042180Y0036268D01*
X0042135Y0036337D01*
X0042087Y0036403D01*
X0042036Y0036468D01*
X0041982Y0036530D01*
X0041925Y0036589D01*
X0041866Y0036646D01*
X0041804Y0036700D01*
X0041739Y0036751D01*
X0041673Y0036799D01*
X0041604Y0036844D01*
X0041533Y0036885D01*
X0041461Y0036924D01*
X0041386Y0036959D01*
X0041310Y0036990D01*
X0041233Y0037018D01*
X0041155Y0037042D01*
X0041075Y0037063D01*
X0040995Y0037080D01*
X0040914Y0037093D01*
X0040832Y0037102D01*
X0040750Y0037108D01*
X0040668Y0037110D01*
X0036047Y0029533D02*
X0036049Y0029425D01*
X0036055Y0029318D01*
X0036064Y0029210D01*
X0036078Y0029103D01*
X0036095Y0028997D01*
X0036116Y0028891D01*
X0036141Y0028786D01*
X0036170Y0028682D01*
X0036202Y0028579D01*
X0036238Y0028478D01*
X0036278Y0028378D01*
X0036321Y0028279D01*
X0036368Y0028182D01*
X0036418Y0028086D01*
X0036472Y0027993D01*
X0036529Y0027901D01*
X0036589Y0027812D01*
X0036652Y0027725D01*
X0036719Y0027640D01*
X0036788Y0027557D01*
X0036861Y0027477D01*
X0036936Y0027400D01*
X0046176Y0029789D02*
X0052576Y0031923D01*
X0052576Y0035572D02*
X0052576Y0036994D01*
X0052576Y0040701D02*
X0052576Y0042123D01*
X0046176Y0029789D02*
X0052576Y0027656D01*
X0051154Y0034150D02*
X0047598Y0034150D01*
X0047524Y0034152D01*
X0047449Y0034158D01*
X0047376Y0034168D01*
X0047302Y0034181D01*
X0047230Y0034198D01*
X0047159Y0034220D01*
X0047088Y0034244D01*
X0047020Y0034273D01*
X0046952Y0034305D01*
X0046887Y0034341D01*
X0046824Y0034379D01*
X0046762Y0034422D01*
X0046703Y0034467D01*
X0046646Y0034515D01*
X0046592Y0034566D01*
X0046541Y0034620D01*
X0046493Y0034677D01*
X0046448Y0034736D01*
X0046405Y0034798D01*
X0046367Y0034861D01*
X0046331Y0034926D01*
X0046299Y0034994D01*
X0046270Y0035062D01*
X0046246Y0035133D01*
X0046224Y0035204D01*
X0046207Y0035276D01*
X0046194Y0035350D01*
X0046184Y0035423D01*
X0046178Y0035498D01*
X0046176Y0035572D01*
X0046176Y0036994D01*
X0046176Y0040701D02*
X0046176Y0042123D01*
X0046176Y0040701D02*
X0046178Y0040627D01*
X0046184Y0040552D01*
X0046194Y0040479D01*
X0046207Y0040405D01*
X0046224Y0040333D01*
X0046246Y0040262D01*
X0046270Y0040191D01*
X0046299Y0040123D01*
X0046331Y0040055D01*
X0046367Y0039990D01*
X0046405Y0039927D01*
X0046448Y0039865D01*
X0046493Y0039806D01*
X0046541Y0039749D01*
X0046592Y0039695D01*
X0046646Y0039644D01*
X0046703Y0039596D01*
X0046762Y0039551D01*
X0046824Y0039508D01*
X0046887Y0039470D01*
X0046952Y0039434D01*
X0047020Y0039402D01*
X0047088Y0039373D01*
X0047159Y0039349D01*
X0047230Y0039327D01*
X0047302Y0039310D01*
X0047376Y0039297D01*
X0047449Y0039287D01*
X0047524Y0039281D01*
X0047598Y0039279D01*
X0047598Y0039278D02*
X0051154Y0039278D01*
X0051154Y0039279D02*
X0051228Y0039281D01*
X0051303Y0039287D01*
X0051376Y0039297D01*
X0051450Y0039310D01*
X0051522Y0039327D01*
X0051593Y0039349D01*
X0051664Y0039373D01*
X0051732Y0039402D01*
X0051800Y0039434D01*
X0051865Y0039470D01*
X0051928Y0039508D01*
X0051990Y0039551D01*
X0052049Y0039596D01*
X0052105Y0039644D01*
X0052160Y0039695D01*
X0052211Y0039749D01*
X0052259Y0039806D01*
X0052304Y0039865D01*
X0052347Y0039927D01*
X0052385Y0039990D01*
X0052421Y0040055D01*
X0052453Y0040123D01*
X0052482Y0040191D01*
X0052506Y0040262D01*
X0052528Y0040333D01*
X0052545Y0040405D01*
X0052558Y0040479D01*
X0052568Y0040552D01*
X0052574Y0040627D01*
X0052576Y0040701D01*
X0052576Y0035572D02*
X0052574Y0035498D01*
X0052568Y0035423D01*
X0052558Y0035350D01*
X0052545Y0035276D01*
X0052528Y0035204D01*
X0052506Y0035133D01*
X0052482Y0035062D01*
X0052453Y0034994D01*
X0052421Y0034926D01*
X0052385Y0034861D01*
X0052347Y0034798D01*
X0052304Y0034736D01*
X0052259Y0034677D01*
X0052211Y0034620D01*
X0052160Y0034566D01*
X0052105Y0034515D01*
X0052049Y0034467D01*
X0051990Y0034422D01*
X0051928Y0034379D01*
X0051865Y0034341D01*
X0051800Y0034305D01*
X0051732Y0034273D01*
X0051664Y0034244D01*
X0051593Y0034220D01*
X0051522Y0034198D01*
X0051450Y0034181D01*
X0051376Y0034168D01*
X0051303Y0034158D01*
X0051228Y0034152D01*
X0051154Y0034150D01*
X0046446Y0605717D02*
X0040046Y0605717D01*
X0040046Y0607495D01*
X0040046Y0613483D02*
X0040046Y0614905D01*
X0040046Y0617204D02*
X0040046Y0620760D01*
X0040046Y0617204D02*
X0043602Y0620227D01*
X0046447Y0619160D02*
X0046445Y0619071D01*
X0046439Y0618982D01*
X0046430Y0618893D01*
X0046416Y0618805D01*
X0046399Y0618718D01*
X0046378Y0618631D01*
X0046353Y0618545D01*
X0046325Y0618461D01*
X0046292Y0618378D01*
X0046257Y0618296D01*
X0046217Y0618216D01*
X0046175Y0618138D01*
X0046129Y0618061D01*
X0046080Y0617987D01*
X0046027Y0617915D01*
X0045972Y0617845D01*
X0045913Y0617778D01*
X0045852Y0617713D01*
X0045788Y0617651D01*
X0045721Y0617592D01*
X0045652Y0617536D01*
X0045580Y0617483D01*
X0045506Y0617433D01*
X0045430Y0617386D01*
X0045353Y0617343D01*
X0045273Y0617303D01*
X0045192Y0617266D01*
X0045109Y0617233D01*
X0045024Y0617204D01*
X0043601Y0620227D02*
X0043659Y0620284D01*
X0043720Y0620340D01*
X0043783Y0620392D01*
X0043848Y0620441D01*
X0043916Y0620487D01*
X0043986Y0620529D01*
X0044058Y0620569D01*
X0044131Y0620604D01*
X0044207Y0620637D01*
X0044283Y0620665D01*
X0044361Y0620690D01*
X0044440Y0620711D01*
X0044520Y0620729D01*
X0044601Y0620742D01*
X0044682Y0620752D01*
X0044764Y0620758D01*
X0044846Y0620760D01*
X0044925Y0620758D01*
X0045003Y0620752D01*
X0045081Y0620743D01*
X0045158Y0620729D01*
X0045235Y0620712D01*
X0045310Y0620691D01*
X0045385Y0620666D01*
X0045458Y0620638D01*
X0045530Y0620606D01*
X0045600Y0620571D01*
X0045669Y0620532D01*
X0045735Y0620490D01*
X0045799Y0620445D01*
X0045861Y0620397D01*
X0045920Y0620346D01*
X0045977Y0620291D01*
X0046032Y0620234D01*
X0046083Y0620175D01*
X0046131Y0620113D01*
X0046176Y0620049D01*
X0046218Y0619983D01*
X0046257Y0619914D01*
X0046292Y0619844D01*
X0046324Y0619772D01*
X0046352Y0619699D01*
X0046377Y0619624D01*
X0046398Y0619549D01*
X0046415Y0619472D01*
X0046429Y0619395D01*
X0046438Y0619317D01*
X0046444Y0619239D01*
X0046446Y0619160D01*
X0046446Y0614905D02*
X0046446Y0613483D01*
X0046446Y0607495D02*
X0046446Y0605717D01*
X0045024Y0612061D02*
X0041468Y0612061D01*
X0041394Y0612063D01*
X0041319Y0612069D01*
X0041246Y0612079D01*
X0041172Y0612092D01*
X0041100Y0612109D01*
X0041029Y0612131D01*
X0040958Y0612155D01*
X0040890Y0612184D01*
X0040822Y0612216D01*
X0040757Y0612252D01*
X0040694Y0612290D01*
X0040632Y0612333D01*
X0040573Y0612378D01*
X0040516Y0612426D01*
X0040462Y0612477D01*
X0040411Y0612531D01*
X0040363Y0612588D01*
X0040318Y0612647D01*
X0040275Y0612709D01*
X0040237Y0612772D01*
X0040201Y0612837D01*
X0040169Y0612905D01*
X0040140Y0612973D01*
X0040116Y0613044D01*
X0040094Y0613115D01*
X0040077Y0613187D01*
X0040064Y0613261D01*
X0040054Y0613334D01*
X0040048Y0613409D01*
X0040046Y0613483D01*
X0040046Y0633711D02*
X0046446Y0633711D01*
X0046446Y0635844D02*
X0040046Y0635844D01*
X0040046Y0639647D02*
X0046446Y0639647D01*
X0046446Y0641425D01*
X0046446Y0653812D02*
X0040046Y0653812D01*
X0040046Y0652035D01*
X0040048Y0651971D01*
X0040054Y0651906D01*
X0040063Y0651843D01*
X0040077Y0651780D01*
X0040094Y0651718D01*
X0040115Y0651657D01*
X0040140Y0651597D01*
X0040168Y0651539D01*
X0040200Y0651483D01*
X0040235Y0651429D01*
X0040273Y0651377D01*
X0040314Y0651327D01*
X0040359Y0651281D01*
X0040405Y0651236D01*
X0040455Y0651195D01*
X0040507Y0651157D01*
X0040561Y0651122D01*
X0040617Y0651090D01*
X0040675Y0651062D01*
X0040735Y0651037D01*
X0040796Y0651016D01*
X0040858Y0650999D01*
X0040921Y0650985D01*
X0040984Y0650976D01*
X0041049Y0650970D01*
X0041113Y0650968D01*
X0043246Y0650968D01*
X0043310Y0650970D01*
X0043375Y0650976D01*
X0043438Y0650985D01*
X0043501Y0650999D01*
X0043563Y0651016D01*
X0043624Y0651037D01*
X0043684Y0651062D01*
X0043742Y0651090D01*
X0043798Y0651122D01*
X0043852Y0651157D01*
X0043904Y0651195D01*
X0043954Y0651236D01*
X0044000Y0651281D01*
X0044045Y0651327D01*
X0044086Y0651377D01*
X0044124Y0651429D01*
X0044159Y0651483D01*
X0044191Y0651539D01*
X0044219Y0651597D01*
X0044244Y0651657D01*
X0044265Y0651718D01*
X0044282Y0651780D01*
X0044296Y0651843D01*
X0044305Y0651906D01*
X0044311Y0651971D01*
X0044313Y0652035D01*
X0044313Y0653812D01*
X0044313Y0657573D02*
X0044313Y0659351D01*
X0038979Y0659351D01*
X0038915Y0659349D01*
X0038850Y0659343D01*
X0038787Y0659334D01*
X0038724Y0659320D01*
X0038662Y0659303D01*
X0038601Y0659282D01*
X0038541Y0659257D01*
X0038483Y0659229D01*
X0038427Y0659197D01*
X0038373Y0659162D01*
X0038321Y0659124D01*
X0038271Y0659083D01*
X0038225Y0659038D01*
X0038180Y0658992D01*
X0038139Y0658942D01*
X0038101Y0658890D01*
X0038066Y0658836D01*
X0038034Y0658780D01*
X0038006Y0658722D01*
X0037981Y0658662D01*
X0037960Y0658601D01*
X0037943Y0658539D01*
X0037929Y0658476D01*
X0037920Y0658413D01*
X0037914Y0658348D01*
X0037912Y0658284D01*
X0037913Y0658284D02*
X0037913Y0656862D01*
X0040046Y0657573D02*
X0040046Y0659351D01*
X0040046Y0657573D02*
X0040048Y0657509D01*
X0040054Y0657444D01*
X0040063Y0657381D01*
X0040077Y0657318D01*
X0040094Y0657256D01*
X0040115Y0657195D01*
X0040140Y0657135D01*
X0040168Y0657077D01*
X0040200Y0657021D01*
X0040235Y0656967D01*
X0040273Y0656915D01*
X0040314Y0656865D01*
X0040359Y0656819D01*
X0040405Y0656774D01*
X0040455Y0656733D01*
X0040507Y0656695D01*
X0040561Y0656660D01*
X0040617Y0656628D01*
X0040675Y0656600D01*
X0040735Y0656575D01*
X0040796Y0656554D01*
X0040858Y0656537D01*
X0040921Y0656523D01*
X0040984Y0656514D01*
X0041049Y0656508D01*
X0041113Y0656506D01*
X0041113Y0656507D02*
X0043246Y0656507D01*
X0043246Y0656506D02*
X0043310Y0656508D01*
X0043375Y0656514D01*
X0043438Y0656523D01*
X0043501Y0656537D01*
X0043563Y0656554D01*
X0043624Y0656575D01*
X0043684Y0656600D01*
X0043742Y0656628D01*
X0043798Y0656660D01*
X0043852Y0656695D01*
X0043904Y0656733D01*
X0043954Y0656774D01*
X0044000Y0656819D01*
X0044045Y0656865D01*
X0044086Y0656915D01*
X0044124Y0656967D01*
X0044159Y0657021D01*
X0044191Y0657077D01*
X0044219Y0657135D01*
X0044244Y0657195D01*
X0044265Y0657256D01*
X0044282Y0657318D01*
X0044296Y0657381D01*
X0044305Y0657444D01*
X0044311Y0657509D01*
X0044313Y0657573D01*
X0044313Y0647207D02*
X0044313Y0645785D01*
X0043602Y0641425D02*
X0043604Y0641499D01*
X0043610Y0641574D01*
X0043620Y0641647D01*
X0043633Y0641721D01*
X0043650Y0641793D01*
X0043672Y0641864D01*
X0043696Y0641935D01*
X0043725Y0642003D01*
X0043757Y0642071D01*
X0043793Y0642136D01*
X0043831Y0642199D01*
X0043874Y0642261D01*
X0043919Y0642320D01*
X0043967Y0642377D01*
X0044018Y0642431D01*
X0044072Y0642482D01*
X0044129Y0642530D01*
X0044188Y0642575D01*
X0044250Y0642618D01*
X0044313Y0642656D01*
X0044378Y0642692D01*
X0044446Y0642724D01*
X0044514Y0642753D01*
X0044585Y0642777D01*
X0044656Y0642799D01*
X0044728Y0642816D01*
X0044802Y0642829D01*
X0044875Y0642839D01*
X0044950Y0642845D01*
X0045024Y0642847D01*
X0045098Y0642845D01*
X0045173Y0642839D01*
X0045246Y0642829D01*
X0045320Y0642816D01*
X0045392Y0642799D01*
X0045463Y0642777D01*
X0045534Y0642753D01*
X0045602Y0642724D01*
X0045670Y0642692D01*
X0045735Y0642656D01*
X0045798Y0642618D01*
X0045860Y0642575D01*
X0045919Y0642530D01*
X0045976Y0642482D01*
X0046030Y0642431D01*
X0046081Y0642377D01*
X0046129Y0642320D01*
X0046174Y0642261D01*
X0046217Y0642199D01*
X0046255Y0642136D01*
X0046291Y0642071D01*
X0046323Y0642003D01*
X0046352Y0641935D01*
X0046376Y0641864D01*
X0046398Y0641793D01*
X0046415Y0641721D01*
X0046428Y0641647D01*
X0046438Y0641574D01*
X0046444Y0641499D01*
X0046446Y0641425D01*
X0046446Y0667501D02*
X0041113Y0667501D01*
X0041049Y0667503D01*
X0040984Y0667509D01*
X0040921Y0667518D01*
X0040858Y0667532D01*
X0040796Y0667549D01*
X0040735Y0667570D01*
X0040675Y0667595D01*
X0040617Y0667623D01*
X0040561Y0667655D01*
X0040507Y0667690D01*
X0040455Y0667728D01*
X0040405Y0667769D01*
X0040359Y0667814D01*
X0040314Y0667860D01*
X0040273Y0667910D01*
X0040235Y0667962D01*
X0040200Y0668016D01*
X0040168Y0668072D01*
X0040140Y0668130D01*
X0040115Y0668190D01*
X0040094Y0668251D01*
X0040077Y0668313D01*
X0040063Y0668376D01*
X0040054Y0668439D01*
X0040048Y0668504D01*
X0040046Y0668568D01*
X0040046Y0670676D02*
X0044313Y0670676D01*
X0044313Y0672790D02*
X0044313Y0674923D01*
X0045379Y0673501D02*
X0045443Y0673503D01*
X0045508Y0673509D01*
X0045571Y0673518D01*
X0045634Y0673532D01*
X0045696Y0673549D01*
X0045757Y0673570D01*
X0045817Y0673595D01*
X0045875Y0673623D01*
X0045931Y0673655D01*
X0045985Y0673690D01*
X0046037Y0673728D01*
X0046087Y0673769D01*
X0046133Y0673814D01*
X0046178Y0673860D01*
X0046219Y0673910D01*
X0046257Y0673962D01*
X0046292Y0674016D01*
X0046324Y0674072D01*
X0046352Y0674130D01*
X0046377Y0674190D01*
X0046398Y0674251D01*
X0046415Y0674313D01*
X0046429Y0674376D01*
X0046438Y0674439D01*
X0046444Y0674504D01*
X0046446Y0674568D01*
X0046446Y0674923D01*
X0046446Y0670854D02*
X0046091Y0670854D01*
X0046091Y0670498D01*
X0046446Y0670498D01*
X0046446Y0670854D01*
X0045379Y0673501D02*
X0040046Y0673501D01*
X0041113Y0676639D02*
X0042891Y0676639D01*
X0042179Y0676639D02*
X0042179Y0679483D01*
X0042891Y0679483D01*
X0042965Y0679481D01*
X0043040Y0679475D01*
X0043113Y0679465D01*
X0043187Y0679452D01*
X0043259Y0679435D01*
X0043330Y0679413D01*
X0043401Y0679389D01*
X0043469Y0679360D01*
X0043537Y0679328D01*
X0043602Y0679292D01*
X0043665Y0679254D01*
X0043727Y0679211D01*
X0043786Y0679166D01*
X0043843Y0679118D01*
X0043897Y0679067D01*
X0043948Y0679013D01*
X0043996Y0678956D01*
X0044041Y0678897D01*
X0044084Y0678835D01*
X0044122Y0678772D01*
X0044158Y0678707D01*
X0044190Y0678639D01*
X0044219Y0678571D01*
X0044243Y0678500D01*
X0044265Y0678429D01*
X0044282Y0678357D01*
X0044295Y0678283D01*
X0044305Y0678210D01*
X0044311Y0678135D01*
X0044313Y0678061D01*
X0044311Y0677987D01*
X0044305Y0677912D01*
X0044295Y0677839D01*
X0044282Y0677765D01*
X0044265Y0677693D01*
X0044243Y0677622D01*
X0044219Y0677551D01*
X0044190Y0677483D01*
X0044158Y0677415D01*
X0044122Y0677350D01*
X0044084Y0677287D01*
X0044041Y0677225D01*
X0043996Y0677166D01*
X0043948Y0677109D01*
X0043897Y0677055D01*
X0043843Y0677004D01*
X0043786Y0676956D01*
X0043727Y0676911D01*
X0043665Y0676868D01*
X0043602Y0676830D01*
X0043537Y0676794D01*
X0043469Y0676762D01*
X0043401Y0676733D01*
X0043330Y0676709D01*
X0043259Y0676687D01*
X0043187Y0676670D01*
X0043113Y0676657D01*
X0043040Y0676647D01*
X0042965Y0676641D01*
X0042891Y0676639D01*
X0042891Y0664919D02*
X0042179Y0664919D01*
X0042179Y0662074D01*
X0042891Y0662074D02*
X0041113Y0662074D01*
X0041049Y0662076D01*
X0040984Y0662082D01*
X0040921Y0662091D01*
X0040858Y0662105D01*
X0040796Y0662122D01*
X0040735Y0662143D01*
X0040675Y0662168D01*
X0040617Y0662196D01*
X0040561Y0662228D01*
X0040507Y0662263D01*
X0040455Y0662301D01*
X0040405Y0662342D01*
X0040359Y0662387D01*
X0040314Y0662433D01*
X0040273Y0662483D01*
X0040235Y0662535D01*
X0040200Y0662589D01*
X0040168Y0662645D01*
X0040140Y0662703D01*
X0040115Y0662763D01*
X0040094Y0662824D01*
X0040077Y0662886D01*
X0040063Y0662949D01*
X0040054Y0663012D01*
X0040048Y0663077D01*
X0040046Y0663141D01*
X0040046Y0664919D01*
X0040046Y0677705D02*
X0040046Y0679483D01*
X0040046Y0677705D02*
X0040048Y0677641D01*
X0040054Y0677576D01*
X0040063Y0677513D01*
X0040077Y0677450D01*
X0040094Y0677388D01*
X0040115Y0677327D01*
X0040140Y0677267D01*
X0040168Y0677209D01*
X0040200Y0677153D01*
X0040235Y0677099D01*
X0040273Y0677047D01*
X0040314Y0676997D01*
X0040359Y0676951D01*
X0040405Y0676906D01*
X0040455Y0676865D01*
X0040507Y0676827D01*
X0040561Y0676792D01*
X0040617Y0676760D01*
X0040675Y0676732D01*
X0040735Y0676707D01*
X0040796Y0676686D01*
X0040858Y0676669D01*
X0040921Y0676655D01*
X0040984Y0676646D01*
X0041049Y0676640D01*
X0041113Y0676638D01*
X0040046Y0648274D02*
X0043246Y0648274D01*
X0042535Y0648274D02*
X0042535Y0646674D01*
X0043246Y0648274D02*
X0043310Y0648272D01*
X0043375Y0648266D01*
X0043438Y0648257D01*
X0043501Y0648243D01*
X0043563Y0648226D01*
X0043624Y0648205D01*
X0043684Y0648180D01*
X0043742Y0648152D01*
X0043798Y0648120D01*
X0043852Y0648085D01*
X0043904Y0648047D01*
X0043954Y0648006D01*
X0044000Y0647961D01*
X0044045Y0647915D01*
X0044086Y0647865D01*
X0044124Y0647813D01*
X0044159Y0647759D01*
X0044191Y0647703D01*
X0044219Y0647645D01*
X0044244Y0647585D01*
X0044265Y0647524D01*
X0044282Y0647462D01*
X0044296Y0647399D01*
X0044305Y0647336D01*
X0044311Y0647271D01*
X0044313Y0647207D01*
X0043602Y0641425D02*
X0043602Y0639647D01*
X0044313Y0636911D02*
X0044313Y0632644D01*
X0046446Y0626203D02*
X0046444Y0626099D01*
X0046438Y0625995D01*
X0046429Y0625892D01*
X0046416Y0625789D01*
X0046399Y0625686D01*
X0046378Y0625585D01*
X0046354Y0625484D01*
X0046325Y0625384D01*
X0046294Y0625285D01*
X0046258Y0625187D01*
X0046219Y0625091D01*
X0046177Y0624996D01*
X0046131Y0624903D01*
X0046082Y0624811D01*
X0046030Y0624721D01*
X0045974Y0624634D01*
X0045915Y0624548D01*
X0045853Y0624465D01*
X0045788Y0624384D01*
X0045720Y0624305D01*
X0045649Y0624229D01*
X0045576Y0624156D01*
X0045500Y0624085D01*
X0045421Y0624017D01*
X0045340Y0623952D01*
X0045257Y0623890D01*
X0045171Y0623831D01*
X0045084Y0623775D01*
X0044994Y0623723D01*
X0044902Y0623674D01*
X0044809Y0623628D01*
X0044714Y0623586D01*
X0044618Y0623547D01*
X0044520Y0623511D01*
X0044421Y0623480D01*
X0044321Y0623451D01*
X0044220Y0623427D01*
X0044119Y0623406D01*
X0044016Y0623389D01*
X0043913Y0623376D01*
X0043810Y0623367D01*
X0043706Y0623361D01*
X0043602Y0623359D01*
X0043602Y0623358D02*
X0041824Y0623358D01*
X0041741Y0623360D01*
X0041658Y0623366D01*
X0041575Y0623376D01*
X0041492Y0623389D01*
X0041411Y0623407D01*
X0041330Y0623428D01*
X0041251Y0623453D01*
X0041173Y0623482D01*
X0041096Y0623514D01*
X0041021Y0623550D01*
X0040947Y0623589D01*
X0040876Y0623632D01*
X0040806Y0623678D01*
X0040739Y0623728D01*
X0040674Y0623780D01*
X0040612Y0623835D01*
X0040552Y0623894D01*
X0040495Y0623955D01*
X0040441Y0624018D01*
X0040390Y0624084D01*
X0040343Y0624153D01*
X0040298Y0624223D01*
X0040257Y0624296D01*
X0040220Y0624370D01*
X0040185Y0624446D01*
X0040155Y0624524D01*
X0040128Y0624602D01*
X0040105Y0624683D01*
X0040085Y0624764D01*
X0040070Y0624846D01*
X0040058Y0624928D01*
X0040050Y0625011D01*
X0040046Y0625094D01*
X0040046Y0625178D01*
X0040050Y0625261D01*
X0040058Y0625344D01*
X0040070Y0625426D01*
X0040085Y0625508D01*
X0040105Y0625589D01*
X0040128Y0625670D01*
X0040155Y0625748D01*
X0040185Y0625826D01*
X0040220Y0625902D01*
X0040257Y0625976D01*
X0040298Y0626049D01*
X0040343Y0626119D01*
X0040390Y0626188D01*
X0040441Y0626254D01*
X0040495Y0626317D01*
X0040552Y0626378D01*
X0040612Y0626437D01*
X0040674Y0626492D01*
X0040739Y0626544D01*
X0040806Y0626594D01*
X0040876Y0626640D01*
X0040947Y0626683D01*
X0041021Y0626722D01*
X0041096Y0626758D01*
X0041173Y0626790D01*
X0041251Y0626819D01*
X0041330Y0626844D01*
X0041411Y0626865D01*
X0041492Y0626883D01*
X0041575Y0626896D01*
X0041658Y0626906D01*
X0041741Y0626912D01*
X0041824Y0626914D01*
X0042179Y0626914D01*
X0042253Y0626912D01*
X0042328Y0626906D01*
X0042401Y0626896D01*
X0042475Y0626883D01*
X0042547Y0626866D01*
X0042618Y0626844D01*
X0042689Y0626820D01*
X0042757Y0626791D01*
X0042825Y0626759D01*
X0042890Y0626723D01*
X0042953Y0626685D01*
X0043015Y0626642D01*
X0043074Y0626597D01*
X0043131Y0626549D01*
X0043185Y0626498D01*
X0043236Y0626444D01*
X0043284Y0626387D01*
X0043329Y0626328D01*
X0043372Y0626266D01*
X0043410Y0626203D01*
X0043446Y0626138D01*
X0043478Y0626070D01*
X0043507Y0626002D01*
X0043531Y0625931D01*
X0043553Y0625860D01*
X0043570Y0625788D01*
X0043583Y0625714D01*
X0043593Y0625641D01*
X0043599Y0625566D01*
X0043601Y0625492D01*
X0043602Y0625492D02*
X0043602Y0623358D01*
X0044668Y0609272D02*
X0041824Y0609272D01*
X0041824Y0609273D02*
X0041742Y0609271D01*
X0041660Y0609265D01*
X0041578Y0609256D01*
X0041497Y0609243D01*
X0041417Y0609226D01*
X0041337Y0609205D01*
X0041259Y0609181D01*
X0041182Y0609153D01*
X0041106Y0609122D01*
X0041031Y0609087D01*
X0040959Y0609048D01*
X0040888Y0609007D01*
X0040819Y0608962D01*
X0040753Y0608914D01*
X0040688Y0608863D01*
X0040626Y0608809D01*
X0040567Y0608752D01*
X0040510Y0608693D01*
X0040456Y0608631D01*
X0040405Y0608566D01*
X0040357Y0608500D01*
X0040312Y0608431D01*
X0040271Y0608360D01*
X0040232Y0608288D01*
X0040197Y0608213D01*
X0040166Y0608137D01*
X0040138Y0608060D01*
X0040114Y0607982D01*
X0040093Y0607902D01*
X0040076Y0607822D01*
X0040063Y0607741D01*
X0040054Y0607659D01*
X0040048Y0607577D01*
X0040046Y0607495D01*
X0040046Y0639647D02*
X0040046Y0641425D01*
X0040046Y0646674D02*
X0040046Y0648274D01*
X0040047Y0646674D02*
X0040049Y0646604D01*
X0040055Y0646535D01*
X0040065Y0646466D01*
X0040078Y0646397D01*
X0040096Y0646330D01*
X0040117Y0646263D01*
X0040142Y0646198D01*
X0040170Y0646134D01*
X0040202Y0646072D01*
X0040238Y0646012D01*
X0040276Y0645954D01*
X0040318Y0645898D01*
X0040363Y0645845D01*
X0040411Y0645794D01*
X0040462Y0645746D01*
X0040515Y0645701D01*
X0040571Y0645659D01*
X0040629Y0645621D01*
X0040689Y0645585D01*
X0040751Y0645553D01*
X0040815Y0645525D01*
X0040880Y0645500D01*
X0040947Y0645479D01*
X0041014Y0645461D01*
X0041083Y0645448D01*
X0041152Y0645438D01*
X0041221Y0645432D01*
X0041291Y0645430D01*
X0041361Y0645432D01*
X0041430Y0645438D01*
X0041499Y0645448D01*
X0041568Y0645461D01*
X0041635Y0645479D01*
X0041702Y0645500D01*
X0041767Y0645525D01*
X0041831Y0645553D01*
X0041893Y0645585D01*
X0041953Y0645621D01*
X0042011Y0645659D01*
X0042067Y0645701D01*
X0042120Y0645746D01*
X0042171Y0645794D01*
X0042219Y0645845D01*
X0042264Y0645898D01*
X0042306Y0645954D01*
X0042344Y0646012D01*
X0042380Y0646072D01*
X0042412Y0646134D01*
X0042440Y0646198D01*
X0042465Y0646263D01*
X0042486Y0646330D01*
X0042504Y0646397D01*
X0042517Y0646466D01*
X0042527Y0646535D01*
X0042533Y0646604D01*
X0042535Y0646674D01*
X0043602Y0641425D02*
X0043600Y0641508D01*
X0043594Y0641591D01*
X0043584Y0641674D01*
X0043571Y0641757D01*
X0043553Y0641838D01*
X0043532Y0641919D01*
X0043507Y0641998D01*
X0043478Y0642076D01*
X0043446Y0642153D01*
X0043410Y0642228D01*
X0043371Y0642302D01*
X0043328Y0642373D01*
X0043282Y0642443D01*
X0043232Y0642510D01*
X0043180Y0642575D01*
X0043125Y0642637D01*
X0043066Y0642697D01*
X0043005Y0642754D01*
X0042942Y0642808D01*
X0042876Y0642859D01*
X0042807Y0642906D01*
X0042737Y0642951D01*
X0042664Y0642992D01*
X0042590Y0643029D01*
X0042514Y0643064D01*
X0042436Y0643094D01*
X0042358Y0643121D01*
X0042277Y0643144D01*
X0042196Y0643164D01*
X0042114Y0643179D01*
X0042032Y0643191D01*
X0041949Y0643199D01*
X0041866Y0643203D01*
X0041782Y0643203D01*
X0041699Y0643199D01*
X0041616Y0643191D01*
X0041534Y0643179D01*
X0041452Y0643164D01*
X0041371Y0643144D01*
X0041290Y0643121D01*
X0041212Y0643094D01*
X0041134Y0643064D01*
X0041058Y0643029D01*
X0040984Y0642992D01*
X0040911Y0642951D01*
X0040841Y0642906D01*
X0040772Y0642859D01*
X0040706Y0642808D01*
X0040643Y0642754D01*
X0040582Y0642697D01*
X0040523Y0642637D01*
X0040468Y0642575D01*
X0040416Y0642510D01*
X0040366Y0642443D01*
X0040320Y0642373D01*
X0040277Y0642302D01*
X0040238Y0642228D01*
X0040202Y0642153D01*
X0040170Y0642076D01*
X0040141Y0641998D01*
X0040116Y0641919D01*
X0040095Y0641838D01*
X0040077Y0641757D01*
X0040064Y0641674D01*
X0040054Y0641591D01*
X0040048Y0641508D01*
X0040046Y0641425D01*
X0042179Y0636911D02*
X0042179Y0632644D01*
X0042891Y0662074D02*
X0042965Y0662076D01*
X0043040Y0662082D01*
X0043113Y0662092D01*
X0043187Y0662105D01*
X0043259Y0662122D01*
X0043330Y0662144D01*
X0043401Y0662168D01*
X0043469Y0662197D01*
X0043537Y0662229D01*
X0043602Y0662265D01*
X0043665Y0662303D01*
X0043727Y0662346D01*
X0043786Y0662391D01*
X0043843Y0662439D01*
X0043897Y0662490D01*
X0043948Y0662544D01*
X0043996Y0662601D01*
X0044041Y0662660D01*
X0044084Y0662722D01*
X0044122Y0662785D01*
X0044158Y0662850D01*
X0044190Y0662918D01*
X0044219Y0662986D01*
X0044243Y0663057D01*
X0044265Y0663128D01*
X0044282Y0663200D01*
X0044295Y0663274D01*
X0044305Y0663347D01*
X0044311Y0663422D01*
X0044313Y0663496D01*
X0044311Y0663570D01*
X0044305Y0663645D01*
X0044295Y0663718D01*
X0044282Y0663792D01*
X0044265Y0663864D01*
X0044243Y0663935D01*
X0044219Y0664006D01*
X0044190Y0664074D01*
X0044158Y0664142D01*
X0044122Y0664207D01*
X0044084Y0664270D01*
X0044041Y0664332D01*
X0043996Y0664391D01*
X0043948Y0664448D01*
X0043897Y0664502D01*
X0043843Y0664553D01*
X0043786Y0664601D01*
X0043727Y0664646D01*
X0043665Y0664689D01*
X0043602Y0664727D01*
X0043537Y0664763D01*
X0043469Y0664795D01*
X0043401Y0664824D01*
X0043330Y0664848D01*
X0043259Y0664870D01*
X0043187Y0664887D01*
X0043113Y0664900D01*
X0043040Y0664910D01*
X0042965Y0664916D01*
X0042891Y0664918D01*
X0046446Y0613483D02*
X0046444Y0613409D01*
X0046438Y0613334D01*
X0046428Y0613261D01*
X0046415Y0613187D01*
X0046398Y0613115D01*
X0046376Y0613044D01*
X0046352Y0612973D01*
X0046323Y0612905D01*
X0046291Y0612837D01*
X0046255Y0612772D01*
X0046217Y0612709D01*
X0046174Y0612647D01*
X0046129Y0612588D01*
X0046081Y0612531D01*
X0046030Y0612477D01*
X0045975Y0612426D01*
X0045919Y0612378D01*
X0045860Y0612333D01*
X0045798Y0612290D01*
X0045735Y0612252D01*
X0045670Y0612216D01*
X0045602Y0612184D01*
X0045534Y0612155D01*
X0045463Y0612131D01*
X0045392Y0612109D01*
X0045320Y0612092D01*
X0045246Y0612079D01*
X0045173Y0612069D01*
X0045098Y0612063D01*
X0045024Y0612061D01*
X0044668Y0609273D02*
X0044750Y0609271D01*
X0044832Y0609265D01*
X0044914Y0609256D01*
X0044995Y0609243D01*
X0045075Y0609226D01*
X0045155Y0609205D01*
X0045233Y0609181D01*
X0045310Y0609153D01*
X0045386Y0609122D01*
X0045461Y0609087D01*
X0045533Y0609048D01*
X0045604Y0609007D01*
X0045673Y0608962D01*
X0045739Y0608914D01*
X0045804Y0608863D01*
X0045866Y0608809D01*
X0045925Y0608752D01*
X0045982Y0608693D01*
X0046036Y0608631D01*
X0046087Y0608566D01*
X0046135Y0608500D01*
X0046180Y0608431D01*
X0046221Y0608360D01*
X0046260Y0608288D01*
X0046295Y0608213D01*
X0046326Y0608137D01*
X0046354Y0608060D01*
X0046378Y0607982D01*
X0046399Y0607902D01*
X0046416Y0607822D01*
X0046429Y0607741D01*
X0046438Y0607659D01*
X0046444Y0607577D01*
X0046446Y0607495D01*
X0035946Y0616945D02*
X0029546Y0616945D01*
X0029546Y0619789D02*
X0032746Y0619789D01*
X0032810Y0619787D01*
X0032875Y0619781D01*
X0032938Y0619772D01*
X0033001Y0619758D01*
X0033063Y0619741D01*
X0033124Y0619720D01*
X0033184Y0619695D01*
X0033242Y0619667D01*
X0033298Y0619635D01*
X0033352Y0619600D01*
X0033404Y0619562D01*
X0033454Y0619521D01*
X0033500Y0619476D01*
X0033545Y0619430D01*
X0033586Y0619380D01*
X0033624Y0619328D01*
X0033659Y0619274D01*
X0033691Y0619218D01*
X0033719Y0619160D01*
X0033744Y0619100D01*
X0033765Y0619039D01*
X0033782Y0618977D01*
X0033796Y0618914D01*
X0033805Y0618851D01*
X0033811Y0618786D01*
X0033813Y0618722D01*
X0033813Y0616945D01*
X0032213Y0613690D02*
X0033279Y0611734D01*
X0035946Y0612445D02*
X0035944Y0612546D01*
X0035938Y0612647D01*
X0035929Y0612747D01*
X0035915Y0612847D01*
X0035898Y0612947D01*
X0035878Y0613046D01*
X0035853Y0613143D01*
X0035825Y0613240D01*
X0035793Y0613336D01*
X0035757Y0613431D01*
X0035718Y0613524D01*
X0035676Y0613615D01*
X0035630Y0613705D01*
X0035580Y0613793D01*
X0035528Y0613879D01*
X0035472Y0613963D01*
X0035413Y0614045D01*
X0033280Y0611734D02*
X0033320Y0611670D01*
X0033363Y0611609D01*
X0033409Y0611550D01*
X0033458Y0611493D01*
X0033510Y0611439D01*
X0033564Y0611388D01*
X0033622Y0611340D01*
X0033681Y0611294D01*
X0033743Y0611252D01*
X0033808Y0611213D01*
X0033874Y0611178D01*
X0033941Y0611146D01*
X0034011Y0611117D01*
X0034081Y0611092D01*
X0034153Y0611071D01*
X0034226Y0611054D01*
X0034300Y0611040D01*
X0034374Y0611031D01*
X0034449Y0611025D01*
X0034524Y0611023D01*
X0034598Y0611025D01*
X0034673Y0611031D01*
X0034746Y0611041D01*
X0034820Y0611054D01*
X0034892Y0611071D01*
X0034963Y0611093D01*
X0035034Y0611117D01*
X0035102Y0611146D01*
X0035170Y0611178D01*
X0035235Y0611214D01*
X0035298Y0611252D01*
X0035360Y0611295D01*
X0035419Y0611340D01*
X0035476Y0611388D01*
X0035530Y0611439D01*
X0035581Y0611494D01*
X0035629Y0611550D01*
X0035674Y0611609D01*
X0035717Y0611671D01*
X0035755Y0611734D01*
X0035791Y0611799D01*
X0035823Y0611867D01*
X0035852Y0611935D01*
X0035876Y0612006D01*
X0035898Y0612077D01*
X0035915Y0612149D01*
X0035928Y0612223D01*
X0035938Y0612296D01*
X0035944Y0612371D01*
X0035946Y0612445D01*
X0035946Y0622292D02*
X0035946Y0622647D01*
X0035591Y0622647D01*
X0035591Y0622292D01*
X0035946Y0622292D01*
X0035946Y0625145D02*
X0030613Y0625145D01*
X0030549Y0625147D01*
X0030484Y0625153D01*
X0030421Y0625162D01*
X0030358Y0625176D01*
X0030296Y0625193D01*
X0030235Y0625214D01*
X0030175Y0625239D01*
X0030117Y0625267D01*
X0030061Y0625299D01*
X0030007Y0625334D01*
X0029955Y0625372D01*
X0029905Y0625413D01*
X0029859Y0625458D01*
X0029814Y0625504D01*
X0029773Y0625554D01*
X0029735Y0625606D01*
X0029700Y0625660D01*
X0029668Y0625716D01*
X0029640Y0625774D01*
X0029615Y0625834D01*
X0029594Y0625895D01*
X0029577Y0625957D01*
X0029563Y0626020D01*
X0029554Y0626083D01*
X0029548Y0626148D01*
X0029546Y0626212D01*
X0029546Y0626567D01*
X0029546Y0630109D02*
X0029546Y0630465D01*
X0029546Y0633957D02*
X0033813Y0632535D01*
X0033813Y0630465D02*
X0033813Y0628332D01*
X0033813Y0626567D02*
X0033813Y0624434D01*
X0033813Y0622470D02*
X0029546Y0622470D01*
X0029546Y0640644D02*
X0035946Y0642778D01*
X0029546Y0644911D01*
X0029546Y0648137D02*
X0029546Y0649915D01*
X0035946Y0649915D01*
X0035946Y0655453D02*
X0029546Y0655453D01*
X0029546Y0653676D01*
X0029546Y0671510D02*
X0033813Y0671510D01*
X0033813Y0673288D01*
X0034168Y0668761D02*
X0031324Y0668761D01*
X0031324Y0668762D02*
X0031241Y0668760D01*
X0031158Y0668754D01*
X0031075Y0668744D01*
X0030992Y0668731D01*
X0030911Y0668713D01*
X0030830Y0668692D01*
X0030751Y0668667D01*
X0030673Y0668638D01*
X0030596Y0668606D01*
X0030521Y0668570D01*
X0030447Y0668531D01*
X0030376Y0668488D01*
X0030306Y0668442D01*
X0030239Y0668392D01*
X0030174Y0668340D01*
X0030112Y0668285D01*
X0030052Y0668226D01*
X0029995Y0668165D01*
X0029941Y0668102D01*
X0029890Y0668036D01*
X0029843Y0667967D01*
X0029798Y0667897D01*
X0029757Y0667824D01*
X0029720Y0667750D01*
X0029685Y0667674D01*
X0029655Y0667596D01*
X0029628Y0667518D01*
X0029605Y0667437D01*
X0029585Y0667356D01*
X0029570Y0667274D01*
X0029558Y0667192D01*
X0029550Y0667109D01*
X0029546Y0667026D01*
X0029546Y0666942D01*
X0029550Y0666859D01*
X0029558Y0666776D01*
X0029570Y0666694D01*
X0029585Y0666612D01*
X0029605Y0666531D01*
X0029628Y0666450D01*
X0029655Y0666372D01*
X0029685Y0666294D01*
X0029720Y0666218D01*
X0029757Y0666144D01*
X0029798Y0666071D01*
X0029843Y0666001D01*
X0029890Y0665932D01*
X0029941Y0665866D01*
X0029995Y0665803D01*
X0030052Y0665742D01*
X0030112Y0665683D01*
X0030174Y0665628D01*
X0030239Y0665576D01*
X0030306Y0665526D01*
X0030376Y0665480D01*
X0030447Y0665437D01*
X0030521Y0665398D01*
X0030596Y0665362D01*
X0030673Y0665330D01*
X0030751Y0665301D01*
X0030830Y0665276D01*
X0030911Y0665255D01*
X0030992Y0665237D01*
X0031075Y0665224D01*
X0031158Y0665214D01*
X0031241Y0665208D01*
X0031324Y0665206D01*
X0034168Y0665206D01*
X0034251Y0665208D01*
X0034334Y0665214D01*
X0034417Y0665224D01*
X0034500Y0665237D01*
X0034581Y0665255D01*
X0034662Y0665276D01*
X0034741Y0665301D01*
X0034819Y0665330D01*
X0034896Y0665362D01*
X0034971Y0665398D01*
X0035045Y0665437D01*
X0035116Y0665480D01*
X0035186Y0665526D01*
X0035253Y0665576D01*
X0035318Y0665628D01*
X0035380Y0665683D01*
X0035440Y0665742D01*
X0035497Y0665803D01*
X0035551Y0665866D01*
X0035602Y0665932D01*
X0035649Y0666001D01*
X0035694Y0666071D01*
X0035735Y0666144D01*
X0035772Y0666218D01*
X0035807Y0666294D01*
X0035837Y0666372D01*
X0035864Y0666450D01*
X0035887Y0666531D01*
X0035907Y0666612D01*
X0035922Y0666694D01*
X0035934Y0666776D01*
X0035942Y0666859D01*
X0035946Y0666942D01*
X0035946Y0667026D01*
X0035942Y0667109D01*
X0035934Y0667192D01*
X0035922Y0667274D01*
X0035907Y0667356D01*
X0035887Y0667437D01*
X0035864Y0667518D01*
X0035837Y0667596D01*
X0035807Y0667674D01*
X0035772Y0667750D01*
X0035735Y0667824D01*
X0035694Y0667897D01*
X0035649Y0667967D01*
X0035602Y0668036D01*
X0035551Y0668102D01*
X0035497Y0668165D01*
X0035440Y0668226D01*
X0035380Y0668285D01*
X0035318Y0668340D01*
X0035253Y0668392D01*
X0035186Y0668442D01*
X0035116Y0668488D01*
X0035045Y0668531D01*
X0034971Y0668570D01*
X0034896Y0668606D01*
X0034819Y0668638D01*
X0034741Y0668667D01*
X0034662Y0668692D01*
X0034581Y0668713D01*
X0034500Y0668731D01*
X0034417Y0668744D01*
X0034334Y0668754D01*
X0034251Y0668760D01*
X0034168Y0668762D01*
X0033813Y0655453D02*
X0033813Y0653676D01*
X0033813Y0649915D02*
X0033813Y0648137D01*
X0033813Y0635379D02*
X0027413Y0633246D01*
X0027413Y0632535D01*
X0025446Y0631960D02*
X0019046Y0631960D01*
X0019046Y0642472D02*
X0019046Y0642828D01*
X0019046Y0646169D02*
X0019046Y0647947D01*
X0019046Y0650751D02*
X0023313Y0650751D01*
X0023313Y0653951D01*
X0023313Y0652884D02*
X0019046Y0652884D01*
X0019046Y0655017D02*
X0022246Y0655017D01*
X0022246Y0655018D02*
X0022310Y0655016D01*
X0022375Y0655010D01*
X0022438Y0655001D01*
X0022501Y0654987D01*
X0022563Y0654970D01*
X0022624Y0654949D01*
X0022684Y0654924D01*
X0022742Y0654896D01*
X0022798Y0654864D01*
X0022852Y0654829D01*
X0022904Y0654791D01*
X0022954Y0654750D01*
X0023000Y0654705D01*
X0023045Y0654659D01*
X0023086Y0654609D01*
X0023124Y0654557D01*
X0023159Y0654503D01*
X0023191Y0654447D01*
X0023219Y0654389D01*
X0023244Y0654329D01*
X0023265Y0654268D01*
X0023282Y0654206D01*
X0023296Y0654143D01*
X0023305Y0654080D01*
X0023311Y0654015D01*
X0023313Y0653951D01*
X0023313Y0642828D02*
X0023313Y0640694D01*
X0021891Y0638716D02*
X0020468Y0638716D01*
X0020394Y0638714D01*
X0020319Y0638708D01*
X0020246Y0638698D01*
X0020172Y0638685D01*
X0020100Y0638668D01*
X0020029Y0638646D01*
X0019958Y0638622D01*
X0019890Y0638593D01*
X0019822Y0638561D01*
X0019757Y0638525D01*
X0019694Y0638487D01*
X0019632Y0638444D01*
X0019573Y0638399D01*
X0019516Y0638351D01*
X0019462Y0638300D01*
X0019411Y0638246D01*
X0019363Y0638189D01*
X0019318Y0638130D01*
X0019275Y0638068D01*
X0019237Y0638005D01*
X0019201Y0637940D01*
X0019169Y0637872D01*
X0019140Y0637804D01*
X0019116Y0637733D01*
X0019094Y0637662D01*
X0019077Y0637590D01*
X0019064Y0637516D01*
X0019054Y0637443D01*
X0019048Y0637368D01*
X0019046Y0637294D01*
X0019048Y0637220D01*
X0019054Y0637145D01*
X0019064Y0637072D01*
X0019077Y0636998D01*
X0019094Y0636926D01*
X0019116Y0636855D01*
X0019140Y0636784D01*
X0019169Y0636716D01*
X0019201Y0636648D01*
X0019237Y0636583D01*
X0019275Y0636520D01*
X0019318Y0636458D01*
X0019363Y0636399D01*
X0019411Y0636342D01*
X0019462Y0636288D01*
X0019516Y0636237D01*
X0019573Y0636189D01*
X0019632Y0636144D01*
X0019694Y0636101D01*
X0019757Y0636063D01*
X0019822Y0636027D01*
X0019890Y0635995D01*
X0019958Y0635966D01*
X0020029Y0635942D01*
X0020100Y0635920D01*
X0020172Y0635903D01*
X0020246Y0635890D01*
X0020319Y0635880D01*
X0020394Y0635874D01*
X0020468Y0635872D01*
X0021891Y0635872D01*
X0021965Y0635874D01*
X0022040Y0635880D01*
X0022113Y0635890D01*
X0022187Y0635903D01*
X0022259Y0635920D01*
X0022330Y0635942D01*
X0022401Y0635966D01*
X0022469Y0635995D01*
X0022537Y0636027D01*
X0022602Y0636063D01*
X0022665Y0636101D01*
X0022727Y0636144D01*
X0022786Y0636189D01*
X0022843Y0636237D01*
X0022897Y0636288D01*
X0022948Y0636342D01*
X0022996Y0636399D01*
X0023041Y0636458D01*
X0023084Y0636520D01*
X0023122Y0636583D01*
X0023158Y0636648D01*
X0023190Y0636716D01*
X0023219Y0636784D01*
X0023243Y0636855D01*
X0023265Y0636926D01*
X0023282Y0636998D01*
X0023295Y0637072D01*
X0023305Y0637145D01*
X0023311Y0637220D01*
X0023313Y0637294D01*
X0023311Y0637368D01*
X0023305Y0637443D01*
X0023295Y0637516D01*
X0023282Y0637590D01*
X0023265Y0637662D01*
X0023243Y0637733D01*
X0023219Y0637804D01*
X0023190Y0637872D01*
X0023158Y0637940D01*
X0023122Y0638005D01*
X0023084Y0638068D01*
X0023041Y0638130D01*
X0022996Y0638189D01*
X0022948Y0638246D01*
X0022897Y0638300D01*
X0022843Y0638351D01*
X0022786Y0638399D01*
X0022727Y0638444D01*
X0022665Y0638487D01*
X0022602Y0638525D01*
X0022537Y0638561D01*
X0022469Y0638593D01*
X0022401Y0638622D01*
X0022330Y0638646D01*
X0022259Y0638668D01*
X0022187Y0638685D01*
X0022113Y0638698D01*
X0022040Y0638708D01*
X0021965Y0638714D01*
X0021891Y0638716D01*
X0021891Y0645103D02*
X0020113Y0645103D01*
X0020113Y0645102D02*
X0020049Y0645104D01*
X0019984Y0645110D01*
X0019921Y0645119D01*
X0019858Y0645133D01*
X0019796Y0645150D01*
X0019735Y0645171D01*
X0019675Y0645196D01*
X0019617Y0645224D01*
X0019561Y0645256D01*
X0019507Y0645291D01*
X0019455Y0645329D01*
X0019405Y0645370D01*
X0019359Y0645415D01*
X0019314Y0645461D01*
X0019273Y0645511D01*
X0019235Y0645563D01*
X0019200Y0645617D01*
X0019168Y0645673D01*
X0019140Y0645731D01*
X0019115Y0645791D01*
X0019094Y0645852D01*
X0019077Y0645914D01*
X0019063Y0645977D01*
X0019054Y0646040D01*
X0019048Y0646105D01*
X0019046Y0646169D01*
X0019046Y0642472D02*
X0019048Y0642408D01*
X0019054Y0642343D01*
X0019063Y0642280D01*
X0019077Y0642217D01*
X0019094Y0642155D01*
X0019115Y0642094D01*
X0019140Y0642034D01*
X0019168Y0641976D01*
X0019200Y0641920D01*
X0019235Y0641866D01*
X0019273Y0641814D01*
X0019314Y0641764D01*
X0019359Y0641718D01*
X0019405Y0641673D01*
X0019455Y0641632D01*
X0019507Y0641594D01*
X0019561Y0641559D01*
X0019617Y0641527D01*
X0019675Y0641499D01*
X0019735Y0641474D01*
X0019796Y0641453D01*
X0019858Y0641436D01*
X0019921Y0641422D01*
X0019984Y0641413D01*
X0020049Y0641407D01*
X0020113Y0641405D01*
X0025446Y0641405D01*
X0025446Y0633738D02*
X0025446Y0630183D01*
X0021891Y0645103D02*
X0021965Y0645105D01*
X0022040Y0645111D01*
X0022113Y0645121D01*
X0022187Y0645134D01*
X0022259Y0645151D01*
X0022330Y0645173D01*
X0022401Y0645197D01*
X0022469Y0645226D01*
X0022537Y0645258D01*
X0022602Y0645294D01*
X0022665Y0645332D01*
X0022727Y0645375D01*
X0022786Y0645420D01*
X0022843Y0645468D01*
X0022897Y0645519D01*
X0022948Y0645573D01*
X0022996Y0645630D01*
X0023041Y0645689D01*
X0023084Y0645751D01*
X0023122Y0645814D01*
X0023158Y0645879D01*
X0023190Y0645947D01*
X0023219Y0646015D01*
X0023243Y0646086D01*
X0023265Y0646157D01*
X0023282Y0646229D01*
X0023295Y0646303D01*
X0023305Y0646376D01*
X0023311Y0646451D01*
X0023313Y0646525D01*
X0023311Y0646599D01*
X0023305Y0646674D01*
X0023295Y0646747D01*
X0023282Y0646821D01*
X0023265Y0646893D01*
X0023243Y0646964D01*
X0023219Y0647035D01*
X0023190Y0647103D01*
X0023158Y0647171D01*
X0023122Y0647236D01*
X0023084Y0647299D01*
X0023041Y0647361D01*
X0022996Y0647420D01*
X0022948Y0647477D01*
X0022897Y0647531D01*
X0022843Y0647582D01*
X0022786Y0647630D01*
X0022727Y0647675D01*
X0022665Y0647718D01*
X0022602Y0647756D01*
X0022537Y0647792D01*
X0022469Y0647824D01*
X0022401Y0647853D01*
X0022330Y0647877D01*
X0022259Y0647899D01*
X0022187Y0647916D01*
X0022113Y0647929D01*
X0022040Y0647939D01*
X0021965Y0647945D01*
X0021891Y0647947D01*
X0021179Y0647947D01*
X0021179Y0645103D01*
X0029546Y0674355D02*
X0032746Y0674355D01*
X0032810Y0674353D01*
X0032875Y0674347D01*
X0032938Y0674338D01*
X0033001Y0674324D01*
X0033063Y0674307D01*
X0033124Y0674286D01*
X0033184Y0674261D01*
X0033242Y0674233D01*
X0033298Y0674201D01*
X0033352Y0674166D01*
X0033404Y0674128D01*
X0033454Y0674087D01*
X0033500Y0674042D01*
X0033545Y0673996D01*
X0033586Y0673946D01*
X0033624Y0673894D01*
X0033659Y0673840D01*
X0033691Y0673784D01*
X0033719Y0673726D01*
X0033744Y0673666D01*
X0033765Y0673605D01*
X0033782Y0673543D01*
X0033796Y0673480D01*
X0033805Y0673417D01*
X0033811Y0673352D01*
X0033813Y0673288D01*
X0033813Y0653676D02*
X0033811Y0653612D01*
X0033805Y0653547D01*
X0033796Y0653484D01*
X0033782Y0653421D01*
X0033765Y0653359D01*
X0033744Y0653298D01*
X0033719Y0653238D01*
X0033691Y0653180D01*
X0033659Y0653124D01*
X0033624Y0653070D01*
X0033586Y0653018D01*
X0033545Y0652968D01*
X0033500Y0652922D01*
X0033454Y0652877D01*
X0033404Y0652836D01*
X0033352Y0652798D01*
X0033298Y0652763D01*
X0033242Y0652731D01*
X0033184Y0652703D01*
X0033124Y0652678D01*
X0033063Y0652657D01*
X0033001Y0652640D01*
X0032938Y0652626D01*
X0032875Y0652617D01*
X0032810Y0652611D01*
X0032746Y0652609D01*
X0030613Y0652609D01*
X0030549Y0652611D01*
X0030484Y0652617D01*
X0030421Y0652626D01*
X0030358Y0652640D01*
X0030296Y0652657D01*
X0030235Y0652678D01*
X0030175Y0652703D01*
X0030117Y0652731D01*
X0030061Y0652763D01*
X0030007Y0652798D01*
X0029955Y0652836D01*
X0029905Y0652877D01*
X0029859Y0652922D01*
X0029814Y0652968D01*
X0029773Y0653018D01*
X0029735Y0653070D01*
X0029700Y0653124D01*
X0029668Y0653180D01*
X0029640Y0653238D01*
X0029615Y0653298D01*
X0029594Y0653359D01*
X0029577Y0653421D01*
X0029563Y0653484D01*
X0029554Y0653547D01*
X0029548Y0653612D01*
X0029546Y0653676D01*
X0029546Y0648137D02*
X0029548Y0648073D01*
X0029554Y0648008D01*
X0029563Y0647945D01*
X0029577Y0647882D01*
X0029594Y0647820D01*
X0029615Y0647759D01*
X0029640Y0647699D01*
X0029668Y0647641D01*
X0029700Y0647585D01*
X0029735Y0647531D01*
X0029773Y0647479D01*
X0029814Y0647429D01*
X0029859Y0647383D01*
X0029905Y0647338D01*
X0029955Y0647297D01*
X0030007Y0647259D01*
X0030061Y0647224D01*
X0030117Y0647192D01*
X0030175Y0647164D01*
X0030235Y0647139D01*
X0030296Y0647118D01*
X0030358Y0647101D01*
X0030421Y0647087D01*
X0030484Y0647078D01*
X0030549Y0647072D01*
X0030613Y0647070D01*
X0032746Y0647070D01*
X0032810Y0647072D01*
X0032875Y0647078D01*
X0032938Y0647087D01*
X0033001Y0647101D01*
X0033063Y0647118D01*
X0033124Y0647139D01*
X0033184Y0647164D01*
X0033242Y0647192D01*
X0033298Y0647224D01*
X0033352Y0647259D01*
X0033404Y0647297D01*
X0033454Y0647338D01*
X0033500Y0647383D01*
X0033545Y0647429D01*
X0033586Y0647479D01*
X0033624Y0647531D01*
X0033659Y0647585D01*
X0033691Y0647641D01*
X0033719Y0647699D01*
X0033744Y0647759D01*
X0033765Y0647820D01*
X0033782Y0647882D01*
X0033796Y0647945D01*
X0033805Y0648008D01*
X0033811Y0648073D01*
X0033813Y0648137D01*
X0029547Y0612979D02*
X0029549Y0612871D01*
X0029555Y0612764D01*
X0029564Y0612656D01*
X0029578Y0612549D01*
X0029595Y0612443D01*
X0029616Y0612337D01*
X0029641Y0612232D01*
X0029670Y0612128D01*
X0029702Y0612025D01*
X0029738Y0611924D01*
X0029778Y0611824D01*
X0029821Y0611725D01*
X0029868Y0611628D01*
X0029918Y0611532D01*
X0029972Y0611439D01*
X0030029Y0611347D01*
X0030089Y0611258D01*
X0030152Y0611171D01*
X0030219Y0611086D01*
X0030288Y0611003D01*
X0030361Y0610923D01*
X0030436Y0610846D01*
X0032212Y0613689D02*
X0032172Y0613753D01*
X0032129Y0613814D01*
X0032083Y0613873D01*
X0032034Y0613930D01*
X0031982Y0613984D01*
X0031928Y0614035D01*
X0031870Y0614083D01*
X0031811Y0614129D01*
X0031749Y0614171D01*
X0031684Y0614210D01*
X0031618Y0614245D01*
X0031551Y0614277D01*
X0031481Y0614306D01*
X0031411Y0614331D01*
X0031339Y0614352D01*
X0031266Y0614369D01*
X0031192Y0614383D01*
X0031118Y0614392D01*
X0031043Y0614398D01*
X0030968Y0614400D01*
X0030968Y0614401D02*
X0030894Y0614399D01*
X0030819Y0614393D01*
X0030746Y0614383D01*
X0030672Y0614370D01*
X0030600Y0614353D01*
X0030529Y0614331D01*
X0030458Y0614307D01*
X0030390Y0614278D01*
X0030322Y0614246D01*
X0030257Y0614210D01*
X0030194Y0614172D01*
X0030132Y0614129D01*
X0030073Y0614084D01*
X0030016Y0614036D01*
X0029962Y0613985D01*
X0029911Y0613931D01*
X0029863Y0613874D01*
X0029818Y0613815D01*
X0029775Y0613753D01*
X0029737Y0613690D01*
X0029701Y0613625D01*
X0029669Y0613557D01*
X0029640Y0613489D01*
X0029616Y0613418D01*
X0029594Y0613347D01*
X0029577Y0613275D01*
X0029564Y0613201D01*
X0029554Y0613128D01*
X0029548Y0613053D01*
X0029546Y0612979D01*
X0030613Y0629043D02*
X0035946Y0629043D01*
X0032035Y0658286D02*
X0032035Y0662553D01*
X0031146Y0644378D02*
X0031146Y0641178D01*
X0029546Y0630109D02*
X0029548Y0630045D01*
X0029554Y0629980D01*
X0029563Y0629917D01*
X0029577Y0629854D01*
X0029594Y0629792D01*
X0029615Y0629731D01*
X0029640Y0629671D01*
X0029668Y0629613D01*
X0029700Y0629557D01*
X0029735Y0629503D01*
X0029773Y0629451D01*
X0029814Y0629401D01*
X0029859Y0629355D01*
X0029905Y0629310D01*
X0029955Y0629269D01*
X0030007Y0629231D01*
X0030061Y0629196D01*
X0030117Y0629164D01*
X0030175Y0629136D01*
X0030235Y0629111D01*
X0030296Y0629090D01*
X0030358Y0629073D01*
X0030421Y0629059D01*
X0030484Y0629050D01*
X0030549Y0629044D01*
X0030613Y0629042D01*
D11*
X0013996Y0790600D02*
X0014002Y0791060D01*
X0014019Y0791520D01*
X0014047Y0791979D01*
X0014086Y0792438D01*
X0014137Y0792895D01*
X0014199Y0793351D01*
X0014272Y0793806D01*
X0014356Y0794258D01*
X0014452Y0794708D01*
X0014558Y0795156D01*
X0014675Y0795601D01*
X0014803Y0796043D01*
X0014942Y0796482D01*
X0015092Y0796917D01*
X0015252Y0797348D01*
X0015423Y0797775D01*
X0015605Y0798198D01*
X0015796Y0798617D01*
X0015998Y0799030D01*
X0016210Y0799439D01*
X0016432Y0799842D01*
X0016664Y0800239D01*
X0016905Y0800631D01*
X0017156Y0801017D01*
X0017416Y0801396D01*
X0017686Y0801769D01*
X0017965Y0802136D01*
X0018252Y0802495D01*
X0018548Y0802847D01*
X0018853Y0803192D01*
X0019166Y0803529D01*
X0019488Y0803858D01*
X0019817Y0804180D01*
X0020154Y0804493D01*
X0020499Y0804798D01*
X0020851Y0805094D01*
X0021210Y0805381D01*
X0021577Y0805660D01*
X0021950Y0805930D01*
X0022329Y0806190D01*
X0022715Y0806441D01*
X0023107Y0806682D01*
X0023504Y0806914D01*
X0023907Y0807136D01*
X0024316Y0807348D01*
X0024729Y0807550D01*
X0025148Y0807741D01*
X0025571Y0807923D01*
X0025998Y0808094D01*
X0026429Y0808254D01*
X0026864Y0808404D01*
X0027303Y0808543D01*
X0027745Y0808671D01*
X0028190Y0808788D01*
X0028638Y0808894D01*
X0029088Y0808990D01*
X0029540Y0809074D01*
X0029995Y0809147D01*
X0030451Y0809209D01*
X0030908Y0809260D01*
X0031367Y0809299D01*
X0031826Y0809327D01*
X0032286Y0809344D01*
X0032746Y0809350D01*
X0033206Y0809344D01*
X0033666Y0809327D01*
X0034125Y0809299D01*
X0034584Y0809260D01*
X0035041Y0809209D01*
X0035497Y0809147D01*
X0035952Y0809074D01*
X0036404Y0808990D01*
X0036854Y0808894D01*
X0037302Y0808788D01*
X0037747Y0808671D01*
X0038189Y0808543D01*
X0038628Y0808404D01*
X0039063Y0808254D01*
X0039494Y0808094D01*
X0039921Y0807923D01*
X0040344Y0807741D01*
X0040763Y0807550D01*
X0041176Y0807348D01*
X0041585Y0807136D01*
X0041988Y0806914D01*
X0042385Y0806682D01*
X0042777Y0806441D01*
X0043163Y0806190D01*
X0043542Y0805930D01*
X0043915Y0805660D01*
X0044282Y0805381D01*
X0044641Y0805094D01*
X0044993Y0804798D01*
X0045338Y0804493D01*
X0045675Y0804180D01*
X0046004Y0803858D01*
X0046326Y0803529D01*
X0046639Y0803192D01*
X0046944Y0802847D01*
X0047240Y0802495D01*
X0047527Y0802136D01*
X0047806Y0801769D01*
X0048076Y0801396D01*
X0048336Y0801017D01*
X0048587Y0800631D01*
X0048828Y0800239D01*
X0049060Y0799842D01*
X0049282Y0799439D01*
X0049494Y0799030D01*
X0049696Y0798617D01*
X0049887Y0798198D01*
X0050069Y0797775D01*
X0050240Y0797348D01*
X0050400Y0796917D01*
X0050550Y0796482D01*
X0050689Y0796043D01*
X0050817Y0795601D01*
X0050934Y0795156D01*
X0051040Y0794708D01*
X0051136Y0794258D01*
X0051220Y0793806D01*
X0051293Y0793351D01*
X0051355Y0792895D01*
X0051406Y0792438D01*
X0051445Y0791979D01*
X0051473Y0791520D01*
X0051490Y0791060D01*
X0051496Y0790600D01*
X0051490Y0790140D01*
X0051473Y0789680D01*
X0051445Y0789221D01*
X0051406Y0788762D01*
X0051355Y0788305D01*
X0051293Y0787849D01*
X0051220Y0787394D01*
X0051136Y0786942D01*
X0051040Y0786492D01*
X0050934Y0786044D01*
X0050817Y0785599D01*
X0050689Y0785157D01*
X0050550Y0784718D01*
X0050400Y0784283D01*
X0050240Y0783852D01*
X0050069Y0783425D01*
X0049887Y0783002D01*
X0049696Y0782583D01*
X0049494Y0782170D01*
X0049282Y0781761D01*
X0049060Y0781358D01*
X0048828Y0780961D01*
X0048587Y0780569D01*
X0048336Y0780183D01*
X0048076Y0779804D01*
X0047806Y0779431D01*
X0047527Y0779064D01*
X0047240Y0778705D01*
X0046944Y0778353D01*
X0046639Y0778008D01*
X0046326Y0777671D01*
X0046004Y0777342D01*
X0045675Y0777020D01*
X0045338Y0776707D01*
X0044993Y0776402D01*
X0044641Y0776106D01*
X0044282Y0775819D01*
X0043915Y0775540D01*
X0043542Y0775270D01*
X0043163Y0775010D01*
X0042777Y0774759D01*
X0042385Y0774518D01*
X0041988Y0774286D01*
X0041585Y0774064D01*
X0041176Y0773852D01*
X0040763Y0773650D01*
X0040344Y0773459D01*
X0039921Y0773277D01*
X0039494Y0773106D01*
X0039063Y0772946D01*
X0038628Y0772796D01*
X0038189Y0772657D01*
X0037747Y0772529D01*
X0037302Y0772412D01*
X0036854Y0772306D01*
X0036404Y0772210D01*
X0035952Y0772126D01*
X0035497Y0772053D01*
X0035041Y0771991D01*
X0034584Y0771940D01*
X0034125Y0771901D01*
X0033666Y0771873D01*
X0033206Y0771856D01*
X0032746Y0771850D01*
X0032286Y0771856D01*
X0031826Y0771873D01*
X0031367Y0771901D01*
X0030908Y0771940D01*
X0030451Y0771991D01*
X0029995Y0772053D01*
X0029540Y0772126D01*
X0029088Y0772210D01*
X0028638Y0772306D01*
X0028190Y0772412D01*
X0027745Y0772529D01*
X0027303Y0772657D01*
X0026864Y0772796D01*
X0026429Y0772946D01*
X0025998Y0773106D01*
X0025571Y0773277D01*
X0025148Y0773459D01*
X0024729Y0773650D01*
X0024316Y0773852D01*
X0023907Y0774064D01*
X0023504Y0774286D01*
X0023107Y0774518D01*
X0022715Y0774759D01*
X0022329Y0775010D01*
X0021950Y0775270D01*
X0021577Y0775540D01*
X0021210Y0775819D01*
X0020851Y0776106D01*
X0020499Y0776402D01*
X0020154Y0776707D01*
X0019817Y0777020D01*
X0019488Y0777342D01*
X0019166Y0777671D01*
X0018853Y0778008D01*
X0018548Y0778353D01*
X0018252Y0778705D01*
X0017965Y0779064D01*
X0017686Y0779431D01*
X0017416Y0779804D01*
X0017156Y0780183D01*
X0016905Y0780569D01*
X0016664Y0780961D01*
X0016432Y0781358D01*
X0016210Y0781761D01*
X0015998Y0782170D01*
X0015796Y0782583D01*
X0015605Y0783002D01*
X0015423Y0783425D01*
X0015252Y0783852D01*
X0015092Y0784283D01*
X0014942Y0784718D01*
X0014803Y0785157D01*
X0014675Y0785599D01*
X0014558Y0786044D01*
X0014452Y0786492D01*
X0014356Y0786942D01*
X0014272Y0787394D01*
X0014199Y0787849D01*
X0014137Y0788305D01*
X0014086Y0788762D01*
X0014047Y0789221D01*
X0014019Y0789680D01*
X0014002Y0790140D01*
X0013996Y0790600D01*
D12*
X0016876Y0024482D02*
X0014376Y0021982D01*
X0014376Y0016982D01*
X0016876Y0014482D01*
X0021876Y0014482D01*
X0024376Y0016982D01*
X0026876Y0014482D01*
X0031876Y0014482D01*
X0034376Y0016982D01*
X0036876Y0014482D01*
X0041876Y0014482D01*
X0044376Y0016982D01*
X0046876Y0014482D01*
X0051876Y0014482D01*
X0054376Y0016982D01*
X0054376Y0021982D01*
X0051876Y0024482D01*
X0046876Y0024482D01*
X0044376Y0021982D01*
X0041876Y0024482D01*
X0036876Y0024482D01*
X0034376Y0021982D01*
X0031876Y0024482D01*
X0026876Y0024482D01*
X0024376Y0021982D01*
X0021876Y0024482D01*
X0016876Y0024482D01*
D13*
X0001250Y0050395D02*
X0064242Y0050395D01*
X0064242Y0274805D01*
X0001250Y0274805D01*
X0001250Y0050395D01*
X0001250Y0350395D02*
X0064242Y0350395D01*
X0064242Y0574805D01*
X0001250Y0574805D01*
X0001250Y0350395D01*
X0015030Y0368112D02*
X0050463Y0368112D01*
X0050463Y0368111D02*
X0050549Y0368113D01*
X0050635Y0368118D01*
X0050720Y0368128D01*
X0050805Y0368141D01*
X0050889Y0368158D01*
X0050973Y0368178D01*
X0051055Y0368202D01*
X0051136Y0368230D01*
X0051217Y0368261D01*
X0051295Y0368295D01*
X0051372Y0368333D01*
X0051448Y0368375D01*
X0051521Y0368419D01*
X0051592Y0368467D01*
X0051662Y0368518D01*
X0051729Y0368572D01*
X0051793Y0368628D01*
X0051855Y0368688D01*
X0051915Y0368750D01*
X0051971Y0368814D01*
X0052025Y0368881D01*
X0052076Y0368951D01*
X0052124Y0369022D01*
X0052168Y0369096D01*
X0052210Y0369171D01*
X0052248Y0369248D01*
X0052282Y0369326D01*
X0052313Y0369407D01*
X0052341Y0369488D01*
X0052365Y0369570D01*
X0052385Y0369654D01*
X0052402Y0369738D01*
X0052415Y0369823D01*
X0052425Y0369908D01*
X0052430Y0369994D01*
X0052432Y0370080D01*
X0052431Y0370080D02*
X0052431Y0374248D01*
X0050707Y0376201D02*
X0020935Y0379923D01*
X0046804Y0383618D01*
X0046891Y0383632D01*
X0046977Y0383650D01*
X0047062Y0383672D01*
X0047146Y0383698D01*
X0047229Y0383728D01*
X0047311Y0383761D01*
X0047390Y0383798D01*
X0047468Y0383838D01*
X0047545Y0383882D01*
X0047619Y0383929D01*
X0047691Y0383980D01*
X0047761Y0384033D01*
X0047828Y0384090D01*
X0047892Y0384149D01*
X0047954Y0384212D01*
X0048013Y0384277D01*
X0048070Y0384345D01*
X0048123Y0384415D01*
X0048172Y0384487D01*
X0048219Y0384562D01*
X0048262Y0384638D01*
X0048302Y0384717D01*
X0048338Y0384797D01*
X0048371Y0384878D01*
X0048400Y0384962D01*
X0048425Y0385046D01*
X0048446Y0385131D01*
X0048464Y0385217D01*
X0048477Y0385304D01*
X0048487Y0385391D01*
X0048493Y0385479D01*
X0048495Y0385567D01*
X0048494Y0385567D02*
X0048494Y0390066D01*
X0050707Y0376202D02*
X0050793Y0376189D01*
X0050877Y0376173D01*
X0050961Y0376153D01*
X0051044Y0376129D01*
X0051126Y0376102D01*
X0051207Y0376071D01*
X0051286Y0376037D01*
X0051364Y0375999D01*
X0051439Y0375958D01*
X0051513Y0375913D01*
X0051585Y0375866D01*
X0051655Y0375815D01*
X0051723Y0375761D01*
X0051788Y0375705D01*
X0051850Y0375645D01*
X0051910Y0375583D01*
X0051967Y0375518D01*
X0052022Y0375451D01*
X0052073Y0375382D01*
X0052121Y0375310D01*
X0052166Y0375237D01*
X0052208Y0375161D01*
X0052246Y0375084D01*
X0052281Y0375005D01*
X0052312Y0374924D01*
X0052340Y0374843D01*
X0052364Y0374760D01*
X0052385Y0374676D01*
X0052402Y0374591D01*
X0052415Y0374506D01*
X0052424Y0374420D01*
X0052430Y0374334D01*
X0052432Y0374248D01*
X0048494Y0257088D02*
X0048494Y0253151D01*
X0040620Y0253151D01*
X0044557Y0372049D02*
X0018688Y0375744D01*
X0018689Y0375744D02*
X0018602Y0375758D01*
X0018516Y0375776D01*
X0018431Y0375798D01*
X0018347Y0375824D01*
X0018264Y0375854D01*
X0018182Y0375887D01*
X0018103Y0375924D01*
X0018025Y0375964D01*
X0017948Y0376008D01*
X0017874Y0376055D01*
X0017802Y0376106D01*
X0017732Y0376159D01*
X0017665Y0376216D01*
X0017601Y0376275D01*
X0017539Y0376338D01*
X0017480Y0376403D01*
X0017423Y0376471D01*
X0017370Y0376541D01*
X0017321Y0376613D01*
X0017274Y0376688D01*
X0017231Y0376764D01*
X0017191Y0376843D01*
X0017155Y0376923D01*
X0017122Y0377004D01*
X0017093Y0377088D01*
X0017068Y0377172D01*
X0017047Y0377257D01*
X0017029Y0377343D01*
X0017016Y0377430D01*
X0017006Y0377517D01*
X0017000Y0377605D01*
X0016998Y0377693D01*
X0016998Y0382153D01*
X0015030Y0372049D02*
X0044557Y0372049D01*
X0044557Y0387797D02*
X0022580Y0391460D01*
X0022580Y0391459D02*
X0022495Y0391475D01*
X0022411Y0391495D01*
X0022328Y0391518D01*
X0022246Y0391545D01*
X0022165Y0391576D01*
X0022086Y0391610D01*
X0022008Y0391648D01*
X0021932Y0391689D01*
X0021857Y0391733D01*
X0021785Y0391781D01*
X0021715Y0391832D01*
X0021647Y0391885D01*
X0021582Y0391942D01*
X0021519Y0392001D01*
X0021459Y0392064D01*
X0021402Y0392128D01*
X0021347Y0392195D01*
X0021296Y0392265D01*
X0021247Y0392337D01*
X0021202Y0392410D01*
X0021160Y0392486D01*
X0021122Y0392564D01*
X0021087Y0392643D01*
X0021055Y0392723D01*
X0021027Y0392805D01*
X0021003Y0392888D01*
X0020982Y0392972D01*
X0020965Y0393057D01*
X0020952Y0393142D01*
X0020943Y0393228D01*
X0020937Y0393315D01*
X0020935Y0393401D01*
X0020935Y0398071D01*
X0022426Y0399981D02*
X0036683Y0403545D01*
X0026841Y0403545D01*
X0024872Y0405513D02*
X0024874Y0405599D01*
X0024879Y0405685D01*
X0024889Y0405770D01*
X0024902Y0405855D01*
X0024919Y0405939D01*
X0024939Y0406023D01*
X0024963Y0406105D01*
X0024991Y0406186D01*
X0025022Y0406267D01*
X0025056Y0406345D01*
X0025094Y0406422D01*
X0025136Y0406498D01*
X0025180Y0406571D01*
X0025228Y0406642D01*
X0025279Y0406712D01*
X0025333Y0406779D01*
X0025389Y0406843D01*
X0025449Y0406905D01*
X0025511Y0406965D01*
X0025575Y0407021D01*
X0025642Y0407075D01*
X0025712Y0407126D01*
X0025783Y0407174D01*
X0025857Y0407218D01*
X0025932Y0407260D01*
X0026009Y0407298D01*
X0026087Y0407332D01*
X0026168Y0407363D01*
X0026249Y0407391D01*
X0026331Y0407415D01*
X0026415Y0407435D01*
X0026499Y0407452D01*
X0026584Y0407465D01*
X0026669Y0407475D01*
X0026755Y0407480D01*
X0026841Y0407482D01*
X0038652Y0407482D01*
X0038738Y0407480D01*
X0038824Y0407475D01*
X0038909Y0407465D01*
X0038994Y0407452D01*
X0039078Y0407435D01*
X0039162Y0407415D01*
X0039244Y0407391D01*
X0039325Y0407363D01*
X0039406Y0407332D01*
X0039484Y0407298D01*
X0039561Y0407260D01*
X0039637Y0407218D01*
X0039710Y0407174D01*
X0039781Y0407126D01*
X0039851Y0407075D01*
X0039918Y0407021D01*
X0039982Y0406965D01*
X0040044Y0406905D01*
X0040104Y0406843D01*
X0040160Y0406779D01*
X0040214Y0406712D01*
X0040265Y0406642D01*
X0040313Y0406571D01*
X0040357Y0406498D01*
X0040399Y0406422D01*
X0040437Y0406345D01*
X0040471Y0406267D01*
X0040502Y0406186D01*
X0040530Y0406105D01*
X0040554Y0406023D01*
X0040574Y0405939D01*
X0040591Y0405855D01*
X0040604Y0405770D01*
X0040614Y0405685D01*
X0040619Y0405599D01*
X0040621Y0405513D01*
X0040620Y0405513D02*
X0040620Y0401145D01*
X0040621Y0401145D02*
X0040619Y0401058D01*
X0040613Y0400971D01*
X0040604Y0400885D01*
X0040590Y0400799D01*
X0040573Y0400713D01*
X0040552Y0400629D01*
X0040528Y0400546D01*
X0040499Y0400463D01*
X0040467Y0400382D01*
X0040432Y0400303D01*
X0040393Y0400225D01*
X0040351Y0400149D01*
X0040305Y0400075D01*
X0040256Y0400003D01*
X0040204Y0399933D01*
X0040149Y0399866D01*
X0040091Y0399801D01*
X0040030Y0399739D01*
X0039967Y0399679D01*
X0039901Y0399623D01*
X0039832Y0399569D01*
X0039761Y0399518D01*
X0039688Y0399471D01*
X0039613Y0399427D01*
X0039537Y0399386D01*
X0039458Y0399349D01*
X0039378Y0399315D01*
X0039296Y0399284D01*
X0039213Y0399258D01*
X0039130Y0399235D01*
X0039129Y0399235D02*
X0024872Y0395671D01*
X0046849Y0392008D01*
X0046850Y0392008D02*
X0046935Y0391992D01*
X0047019Y0391972D01*
X0047102Y0391949D01*
X0047184Y0391922D01*
X0047265Y0391891D01*
X0047344Y0391857D01*
X0047422Y0391819D01*
X0047498Y0391778D01*
X0047573Y0391734D01*
X0047645Y0391686D01*
X0047715Y0391635D01*
X0047783Y0391582D01*
X0047848Y0391525D01*
X0047911Y0391466D01*
X0047971Y0391403D01*
X0048028Y0391339D01*
X0048083Y0391272D01*
X0048134Y0391202D01*
X0048183Y0391130D01*
X0048228Y0391057D01*
X0048270Y0390981D01*
X0048308Y0390903D01*
X0048343Y0390824D01*
X0048375Y0390744D01*
X0048403Y0390662D01*
X0048427Y0390579D01*
X0048448Y0390495D01*
X0048465Y0390410D01*
X0048478Y0390325D01*
X0048487Y0390239D01*
X0048493Y0390152D01*
X0048495Y0390066D01*
X0044557Y0387797D02*
X0018688Y0384101D01*
X0018689Y0384102D02*
X0018602Y0384088D01*
X0018516Y0384070D01*
X0018431Y0384048D01*
X0018347Y0384022D01*
X0018264Y0383992D01*
X0018182Y0383959D01*
X0018103Y0383922D01*
X0018025Y0383882D01*
X0017948Y0383838D01*
X0017874Y0383791D01*
X0017802Y0383740D01*
X0017732Y0383687D01*
X0017665Y0383630D01*
X0017601Y0383571D01*
X0017539Y0383508D01*
X0017480Y0383443D01*
X0017423Y0383375D01*
X0017370Y0383305D01*
X0017321Y0383233D01*
X0017274Y0383158D01*
X0017231Y0383082D01*
X0017191Y0383003D01*
X0017155Y0382923D01*
X0017122Y0382842D01*
X0017093Y0382758D01*
X0017068Y0382674D01*
X0017047Y0382589D01*
X0017029Y0382503D01*
X0017016Y0382416D01*
X0017006Y0382329D01*
X0017000Y0382241D01*
X0016998Y0382153D01*
X0015030Y0372049D02*
X0014944Y0372047D01*
X0014858Y0372042D01*
X0014773Y0372032D01*
X0014688Y0372019D01*
X0014604Y0372002D01*
X0014520Y0371982D01*
X0014438Y0371958D01*
X0014357Y0371930D01*
X0014276Y0371899D01*
X0014198Y0371865D01*
X0014121Y0371827D01*
X0014046Y0371785D01*
X0013972Y0371741D01*
X0013901Y0371693D01*
X0013831Y0371642D01*
X0013764Y0371588D01*
X0013700Y0371532D01*
X0013638Y0371472D01*
X0013578Y0371410D01*
X0013522Y0371346D01*
X0013468Y0371279D01*
X0013417Y0371209D01*
X0013369Y0371138D01*
X0013325Y0371065D01*
X0013283Y0370989D01*
X0013245Y0370912D01*
X0013211Y0370834D01*
X0013180Y0370753D01*
X0013152Y0370672D01*
X0013128Y0370590D01*
X0013108Y0370506D01*
X0013091Y0370422D01*
X0013078Y0370337D01*
X0013068Y0370252D01*
X0013063Y0370166D01*
X0013061Y0370080D01*
X0013063Y0369994D01*
X0013068Y0369908D01*
X0013078Y0369823D01*
X0013091Y0369738D01*
X0013108Y0369654D01*
X0013128Y0369570D01*
X0013152Y0369488D01*
X0013180Y0369407D01*
X0013211Y0369326D01*
X0013245Y0369248D01*
X0013283Y0369171D01*
X0013325Y0369096D01*
X0013369Y0369022D01*
X0013417Y0368951D01*
X0013468Y0368881D01*
X0013522Y0368814D01*
X0013578Y0368750D01*
X0013638Y0368688D01*
X0013700Y0368628D01*
X0013764Y0368572D01*
X0013831Y0368518D01*
X0013901Y0368467D01*
X0013972Y0368419D01*
X0014045Y0368375D01*
X0014121Y0368333D01*
X0014198Y0368295D01*
X0014276Y0368261D01*
X0014357Y0368230D01*
X0014438Y0368202D01*
X0014520Y0368178D01*
X0014604Y0368158D01*
X0014688Y0368141D01*
X0014773Y0368128D01*
X0014858Y0368118D01*
X0014944Y0368113D01*
X0015030Y0368111D01*
X0016998Y0257088D02*
X0016998Y0253151D01*
X0024872Y0253151D01*
X0020935Y0398071D02*
X0020937Y0398158D01*
X0020943Y0398245D01*
X0020952Y0398331D01*
X0020966Y0398417D01*
X0020983Y0398503D01*
X0021004Y0398587D01*
X0021028Y0398670D01*
X0021057Y0398753D01*
X0021089Y0398834D01*
X0021124Y0398913D01*
X0021163Y0398991D01*
X0021205Y0399067D01*
X0021251Y0399141D01*
X0021300Y0399213D01*
X0021352Y0399283D01*
X0021407Y0399350D01*
X0021465Y0399415D01*
X0021526Y0399477D01*
X0021589Y0399537D01*
X0021655Y0399593D01*
X0021724Y0399647D01*
X0021795Y0399698D01*
X0021868Y0399745D01*
X0021943Y0399789D01*
X0022019Y0399830D01*
X0022098Y0399867D01*
X0022178Y0399901D01*
X0022260Y0399932D01*
X0022343Y0399958D01*
X0022426Y0399981D01*
X0026841Y0403544D02*
X0026755Y0403546D01*
X0026669Y0403551D01*
X0026584Y0403561D01*
X0026499Y0403574D01*
X0026415Y0403591D01*
X0026331Y0403611D01*
X0026249Y0403635D01*
X0026168Y0403663D01*
X0026087Y0403694D01*
X0026009Y0403728D01*
X0025932Y0403766D01*
X0025856Y0403808D01*
X0025783Y0403852D01*
X0025712Y0403900D01*
X0025642Y0403951D01*
X0025575Y0404005D01*
X0025511Y0404061D01*
X0025449Y0404121D01*
X0025389Y0404183D01*
X0025333Y0404247D01*
X0025279Y0404314D01*
X0025228Y0404384D01*
X0025180Y0404455D01*
X0025136Y0404529D01*
X0025094Y0404604D01*
X0025056Y0404681D01*
X0025022Y0404759D01*
X0024991Y0404840D01*
X0024963Y0404921D01*
X0024939Y0405003D01*
X0024919Y0405087D01*
X0024902Y0405171D01*
X0024889Y0405256D01*
X0024879Y0405341D01*
X0024874Y0405427D01*
X0024872Y0405513D01*
X0024872Y0553151D02*
X0016998Y0553151D01*
X0016998Y0557088D01*
X0048494Y0557088D01*
X0048494Y0553151D01*
X0040620Y0553151D01*
X0032746Y0545277D02*
X0032556Y0545279D01*
X0032366Y0545286D01*
X0032176Y0545298D01*
X0031986Y0545314D01*
X0031797Y0545334D01*
X0031608Y0545360D01*
X0031420Y0545389D01*
X0031233Y0545424D01*
X0031047Y0545463D01*
X0030862Y0545506D01*
X0030677Y0545554D01*
X0030494Y0545606D01*
X0030313Y0545662D01*
X0030133Y0545723D01*
X0029954Y0545789D01*
X0029777Y0545858D01*
X0029601Y0545932D01*
X0029428Y0546010D01*
X0029256Y0546093D01*
X0029087Y0546179D01*
X0028919Y0546269D01*
X0028754Y0546364D01*
X0028591Y0546462D01*
X0028431Y0546565D01*
X0028273Y0546671D01*
X0028118Y0546781D01*
X0027965Y0546894D01*
X0027815Y0547012D01*
X0027669Y0547133D01*
X0027525Y0547257D01*
X0027384Y0547385D01*
X0027246Y0547516D01*
X0027111Y0547651D01*
X0026980Y0547789D01*
X0026852Y0547930D01*
X0026728Y0548074D01*
X0026607Y0548220D01*
X0026489Y0548370D01*
X0026376Y0548523D01*
X0026266Y0548678D01*
X0026160Y0548836D01*
X0026057Y0548996D01*
X0025959Y0549159D01*
X0025864Y0549324D01*
X0025774Y0549492D01*
X0025688Y0549661D01*
X0025605Y0549833D01*
X0025527Y0550006D01*
X0025453Y0550182D01*
X0025384Y0550359D01*
X0025318Y0550538D01*
X0025257Y0550718D01*
X0025201Y0550899D01*
X0025149Y0551082D01*
X0025101Y0551267D01*
X0025058Y0551452D01*
X0025019Y0551638D01*
X0024984Y0551825D01*
X0024955Y0552013D01*
X0024929Y0552202D01*
X0024909Y0552391D01*
X0024893Y0552581D01*
X0024881Y0552771D01*
X0024874Y0552961D01*
X0024872Y0553151D01*
X0032746Y0545277D02*
X0032936Y0545279D01*
X0033126Y0545286D01*
X0033316Y0545298D01*
X0033506Y0545314D01*
X0033695Y0545334D01*
X0033884Y0545360D01*
X0034072Y0545389D01*
X0034259Y0545424D01*
X0034445Y0545463D01*
X0034630Y0545506D01*
X0034815Y0545554D01*
X0034998Y0545606D01*
X0035179Y0545662D01*
X0035359Y0545723D01*
X0035538Y0545789D01*
X0035715Y0545858D01*
X0035891Y0545932D01*
X0036064Y0546010D01*
X0036236Y0546093D01*
X0036405Y0546179D01*
X0036573Y0546269D01*
X0036738Y0546364D01*
X0036901Y0546462D01*
X0037061Y0546565D01*
X0037219Y0546671D01*
X0037374Y0546781D01*
X0037527Y0546894D01*
X0037677Y0547012D01*
X0037823Y0547133D01*
X0037967Y0547257D01*
X0038108Y0547385D01*
X0038246Y0547516D01*
X0038381Y0547651D01*
X0038512Y0547789D01*
X0038640Y0547930D01*
X0038764Y0548074D01*
X0038885Y0548220D01*
X0039003Y0548370D01*
X0039116Y0548523D01*
X0039226Y0548678D01*
X0039332Y0548836D01*
X0039435Y0548996D01*
X0039533Y0549159D01*
X0039628Y0549324D01*
X0039718Y0549492D01*
X0039804Y0549661D01*
X0039887Y0549833D01*
X0039965Y0550006D01*
X0040039Y0550182D01*
X0040108Y0550359D01*
X0040174Y0550538D01*
X0040235Y0550718D01*
X0040291Y0550899D01*
X0040343Y0551082D01*
X0040391Y0551267D01*
X0040434Y0551452D01*
X0040473Y0551638D01*
X0040508Y0551825D01*
X0040537Y0552013D01*
X0040563Y0552202D01*
X0040583Y0552391D01*
X0040599Y0552581D01*
X0040611Y0552771D01*
X0040618Y0552961D01*
X0040620Y0553151D01*
X0048494Y0257088D02*
X0016998Y0257088D01*
X0036683Y0103545D02*
X0022426Y0099981D01*
X0022343Y0099958D01*
X0022260Y0099932D01*
X0022178Y0099901D01*
X0022098Y0099867D01*
X0022019Y0099830D01*
X0021943Y0099789D01*
X0021868Y0099745D01*
X0021795Y0099698D01*
X0021724Y0099647D01*
X0021655Y0099593D01*
X0021589Y0099537D01*
X0021526Y0099477D01*
X0021465Y0099415D01*
X0021407Y0099350D01*
X0021352Y0099283D01*
X0021300Y0099213D01*
X0021251Y0099141D01*
X0021205Y0099067D01*
X0021163Y0098991D01*
X0021124Y0098913D01*
X0021089Y0098834D01*
X0021057Y0098753D01*
X0021028Y0098670D01*
X0021004Y0098587D01*
X0020983Y0098503D01*
X0020966Y0098417D01*
X0020952Y0098331D01*
X0020943Y0098245D01*
X0020937Y0098158D01*
X0020935Y0098071D01*
X0020935Y0093401D01*
X0020935Y0079923D02*
X0046804Y0083618D01*
X0046891Y0083632D01*
X0046977Y0083650D01*
X0047062Y0083672D01*
X0047146Y0083698D01*
X0047229Y0083728D01*
X0047311Y0083761D01*
X0047390Y0083798D01*
X0047468Y0083838D01*
X0047545Y0083882D01*
X0047619Y0083929D01*
X0047691Y0083980D01*
X0047761Y0084033D01*
X0047828Y0084090D01*
X0047892Y0084149D01*
X0047954Y0084212D01*
X0048013Y0084277D01*
X0048070Y0084345D01*
X0048123Y0084415D01*
X0048172Y0084487D01*
X0048219Y0084562D01*
X0048262Y0084638D01*
X0048302Y0084717D01*
X0048338Y0084797D01*
X0048371Y0084878D01*
X0048400Y0084962D01*
X0048425Y0085046D01*
X0048446Y0085131D01*
X0048464Y0085217D01*
X0048477Y0085304D01*
X0048487Y0085391D01*
X0048493Y0085479D01*
X0048495Y0085567D01*
X0048494Y0085567D02*
X0048494Y0090066D01*
X0050707Y0076202D02*
X0050793Y0076189D01*
X0050877Y0076173D01*
X0050961Y0076153D01*
X0051044Y0076129D01*
X0051126Y0076102D01*
X0051207Y0076071D01*
X0051286Y0076037D01*
X0051364Y0075999D01*
X0051439Y0075958D01*
X0051513Y0075913D01*
X0051585Y0075866D01*
X0051655Y0075815D01*
X0051723Y0075761D01*
X0051788Y0075705D01*
X0051850Y0075645D01*
X0051910Y0075583D01*
X0051967Y0075518D01*
X0052022Y0075451D01*
X0052073Y0075382D01*
X0052121Y0075310D01*
X0052166Y0075237D01*
X0052208Y0075161D01*
X0052246Y0075084D01*
X0052281Y0075005D01*
X0052312Y0074924D01*
X0052340Y0074843D01*
X0052364Y0074760D01*
X0052385Y0074676D01*
X0052402Y0074591D01*
X0052415Y0074506D01*
X0052424Y0074420D01*
X0052430Y0074334D01*
X0052432Y0074248D01*
X0052431Y0074248D02*
X0052431Y0070080D01*
X0050707Y0076201D02*
X0020935Y0079923D01*
X0022580Y0091460D02*
X0044557Y0087797D01*
X0018688Y0084101D01*
X0018689Y0084102D02*
X0018602Y0084088D01*
X0018516Y0084070D01*
X0018431Y0084048D01*
X0018347Y0084022D01*
X0018264Y0083992D01*
X0018182Y0083959D01*
X0018103Y0083922D01*
X0018025Y0083882D01*
X0017948Y0083838D01*
X0017874Y0083791D01*
X0017802Y0083740D01*
X0017732Y0083687D01*
X0017665Y0083630D01*
X0017601Y0083571D01*
X0017539Y0083508D01*
X0017480Y0083443D01*
X0017423Y0083375D01*
X0017370Y0083305D01*
X0017321Y0083233D01*
X0017274Y0083158D01*
X0017231Y0083082D01*
X0017191Y0083003D01*
X0017155Y0082923D01*
X0017122Y0082842D01*
X0017093Y0082758D01*
X0017068Y0082674D01*
X0017047Y0082589D01*
X0017029Y0082503D01*
X0017016Y0082416D01*
X0017006Y0082329D01*
X0017000Y0082241D01*
X0016998Y0082153D01*
X0016998Y0077693D01*
X0015030Y0072049D02*
X0044557Y0072049D01*
X0018688Y0075744D01*
X0018689Y0075744D02*
X0018602Y0075758D01*
X0018516Y0075776D01*
X0018431Y0075798D01*
X0018347Y0075824D01*
X0018264Y0075854D01*
X0018182Y0075887D01*
X0018103Y0075924D01*
X0018025Y0075964D01*
X0017948Y0076008D01*
X0017874Y0076055D01*
X0017802Y0076106D01*
X0017732Y0076159D01*
X0017665Y0076216D01*
X0017601Y0076275D01*
X0017539Y0076338D01*
X0017480Y0076403D01*
X0017423Y0076471D01*
X0017370Y0076541D01*
X0017321Y0076613D01*
X0017274Y0076688D01*
X0017231Y0076764D01*
X0017191Y0076843D01*
X0017155Y0076923D01*
X0017122Y0077004D01*
X0017093Y0077088D01*
X0017068Y0077172D01*
X0017047Y0077257D01*
X0017029Y0077343D01*
X0017016Y0077430D01*
X0017006Y0077517D01*
X0017000Y0077605D01*
X0016998Y0077693D01*
X0015030Y0072049D02*
X0014944Y0072047D01*
X0014858Y0072042D01*
X0014773Y0072032D01*
X0014688Y0072019D01*
X0014604Y0072002D01*
X0014520Y0071982D01*
X0014438Y0071958D01*
X0014357Y0071930D01*
X0014276Y0071899D01*
X0014198Y0071865D01*
X0014121Y0071827D01*
X0014046Y0071785D01*
X0013972Y0071741D01*
X0013901Y0071693D01*
X0013831Y0071642D01*
X0013764Y0071588D01*
X0013700Y0071532D01*
X0013638Y0071472D01*
X0013578Y0071410D01*
X0013522Y0071346D01*
X0013468Y0071279D01*
X0013417Y0071209D01*
X0013369Y0071138D01*
X0013325Y0071065D01*
X0013283Y0070989D01*
X0013245Y0070912D01*
X0013211Y0070834D01*
X0013180Y0070753D01*
X0013152Y0070672D01*
X0013128Y0070590D01*
X0013108Y0070506D01*
X0013091Y0070422D01*
X0013078Y0070337D01*
X0013068Y0070252D01*
X0013063Y0070166D01*
X0013061Y0070080D01*
X0013063Y0069994D01*
X0013068Y0069908D01*
X0013078Y0069823D01*
X0013091Y0069738D01*
X0013108Y0069654D01*
X0013128Y0069570D01*
X0013152Y0069488D01*
X0013180Y0069407D01*
X0013211Y0069326D01*
X0013245Y0069248D01*
X0013283Y0069171D01*
X0013325Y0069096D01*
X0013369Y0069022D01*
X0013417Y0068951D01*
X0013468Y0068881D01*
X0013522Y0068814D01*
X0013578Y0068750D01*
X0013638Y0068688D01*
X0013700Y0068628D01*
X0013764Y0068572D01*
X0013831Y0068518D01*
X0013901Y0068467D01*
X0013972Y0068419D01*
X0014045Y0068375D01*
X0014121Y0068333D01*
X0014198Y0068295D01*
X0014276Y0068261D01*
X0014357Y0068230D01*
X0014438Y0068202D01*
X0014520Y0068178D01*
X0014604Y0068158D01*
X0014688Y0068141D01*
X0014773Y0068128D01*
X0014858Y0068118D01*
X0014944Y0068113D01*
X0015030Y0068111D01*
X0015030Y0068112D02*
X0050463Y0068112D01*
X0050463Y0068111D02*
X0050549Y0068113D01*
X0050635Y0068118D01*
X0050720Y0068128D01*
X0050805Y0068141D01*
X0050889Y0068158D01*
X0050973Y0068178D01*
X0051055Y0068202D01*
X0051136Y0068230D01*
X0051217Y0068261D01*
X0051295Y0068295D01*
X0051372Y0068333D01*
X0051448Y0068375D01*
X0051521Y0068419D01*
X0051592Y0068467D01*
X0051662Y0068518D01*
X0051729Y0068572D01*
X0051793Y0068628D01*
X0051855Y0068688D01*
X0051915Y0068750D01*
X0051971Y0068814D01*
X0052025Y0068881D01*
X0052076Y0068951D01*
X0052124Y0069022D01*
X0052168Y0069096D01*
X0052210Y0069171D01*
X0052248Y0069248D01*
X0052282Y0069326D01*
X0052313Y0069407D01*
X0052341Y0069488D01*
X0052365Y0069570D01*
X0052385Y0069654D01*
X0052402Y0069738D01*
X0052415Y0069823D01*
X0052425Y0069908D01*
X0052430Y0069994D01*
X0052432Y0070080D01*
X0048495Y0090066D02*
X0048493Y0090152D01*
X0048487Y0090239D01*
X0048478Y0090325D01*
X0048465Y0090410D01*
X0048448Y0090495D01*
X0048427Y0090579D01*
X0048403Y0090662D01*
X0048375Y0090744D01*
X0048343Y0090824D01*
X0048308Y0090903D01*
X0048270Y0090981D01*
X0048228Y0091057D01*
X0048183Y0091130D01*
X0048134Y0091202D01*
X0048083Y0091272D01*
X0048028Y0091339D01*
X0047971Y0091403D01*
X0047911Y0091466D01*
X0047848Y0091525D01*
X0047783Y0091582D01*
X0047715Y0091635D01*
X0047645Y0091686D01*
X0047573Y0091734D01*
X0047498Y0091778D01*
X0047422Y0091819D01*
X0047344Y0091857D01*
X0047265Y0091891D01*
X0047184Y0091922D01*
X0047102Y0091949D01*
X0047019Y0091972D01*
X0046935Y0091992D01*
X0046850Y0092008D01*
X0046849Y0092008D02*
X0024872Y0095671D01*
X0039129Y0099235D01*
X0039130Y0099235D02*
X0039213Y0099258D01*
X0039296Y0099284D01*
X0039378Y0099315D01*
X0039458Y0099349D01*
X0039537Y0099386D01*
X0039613Y0099427D01*
X0039688Y0099471D01*
X0039761Y0099518D01*
X0039832Y0099569D01*
X0039901Y0099623D01*
X0039967Y0099679D01*
X0040030Y0099739D01*
X0040091Y0099801D01*
X0040149Y0099866D01*
X0040204Y0099933D01*
X0040256Y0100003D01*
X0040305Y0100075D01*
X0040351Y0100149D01*
X0040393Y0100225D01*
X0040432Y0100303D01*
X0040467Y0100382D01*
X0040499Y0100463D01*
X0040528Y0100546D01*
X0040552Y0100629D01*
X0040573Y0100713D01*
X0040590Y0100799D01*
X0040604Y0100885D01*
X0040613Y0100971D01*
X0040619Y0101058D01*
X0040621Y0101145D01*
X0040620Y0101145D02*
X0040620Y0105513D01*
X0040621Y0105513D02*
X0040619Y0105599D01*
X0040614Y0105685D01*
X0040604Y0105770D01*
X0040591Y0105855D01*
X0040574Y0105939D01*
X0040554Y0106023D01*
X0040530Y0106105D01*
X0040502Y0106186D01*
X0040471Y0106267D01*
X0040437Y0106345D01*
X0040399Y0106422D01*
X0040357Y0106498D01*
X0040313Y0106571D01*
X0040265Y0106642D01*
X0040214Y0106712D01*
X0040160Y0106779D01*
X0040104Y0106843D01*
X0040044Y0106905D01*
X0039982Y0106965D01*
X0039918Y0107021D01*
X0039851Y0107075D01*
X0039781Y0107126D01*
X0039710Y0107174D01*
X0039637Y0107218D01*
X0039561Y0107260D01*
X0039484Y0107298D01*
X0039406Y0107332D01*
X0039325Y0107363D01*
X0039244Y0107391D01*
X0039162Y0107415D01*
X0039078Y0107435D01*
X0038994Y0107452D01*
X0038909Y0107465D01*
X0038824Y0107475D01*
X0038738Y0107480D01*
X0038652Y0107482D01*
X0026841Y0107482D01*
X0026755Y0107480D01*
X0026669Y0107475D01*
X0026584Y0107465D01*
X0026499Y0107452D01*
X0026415Y0107435D01*
X0026331Y0107415D01*
X0026249Y0107391D01*
X0026168Y0107363D01*
X0026087Y0107332D01*
X0026009Y0107298D01*
X0025932Y0107260D01*
X0025857Y0107218D01*
X0025783Y0107174D01*
X0025712Y0107126D01*
X0025642Y0107075D01*
X0025575Y0107021D01*
X0025511Y0106965D01*
X0025449Y0106905D01*
X0025389Y0106843D01*
X0025333Y0106779D01*
X0025279Y0106712D01*
X0025228Y0106642D01*
X0025180Y0106571D01*
X0025136Y0106498D01*
X0025094Y0106422D01*
X0025056Y0106345D01*
X0025022Y0106267D01*
X0024991Y0106186D01*
X0024963Y0106105D01*
X0024939Y0106023D01*
X0024919Y0105939D01*
X0024902Y0105855D01*
X0024889Y0105770D01*
X0024879Y0105685D01*
X0024874Y0105599D01*
X0024872Y0105513D01*
X0020935Y0093401D02*
X0020937Y0093315D01*
X0020943Y0093228D01*
X0020952Y0093142D01*
X0020965Y0093057D01*
X0020982Y0092972D01*
X0021003Y0092888D01*
X0021027Y0092805D01*
X0021055Y0092723D01*
X0021087Y0092643D01*
X0021122Y0092564D01*
X0021160Y0092486D01*
X0021202Y0092410D01*
X0021247Y0092337D01*
X0021296Y0092265D01*
X0021347Y0092195D01*
X0021402Y0092128D01*
X0021459Y0092064D01*
X0021519Y0092001D01*
X0021582Y0091942D01*
X0021647Y0091885D01*
X0021715Y0091832D01*
X0021785Y0091781D01*
X0021857Y0091733D01*
X0021932Y0091689D01*
X0022008Y0091648D01*
X0022086Y0091610D01*
X0022165Y0091576D01*
X0022246Y0091545D01*
X0022328Y0091518D01*
X0022411Y0091495D01*
X0022495Y0091475D01*
X0022580Y0091459D01*
X0026841Y0103545D02*
X0036683Y0103545D01*
X0032746Y0245277D02*
X0032556Y0245279D01*
X0032366Y0245286D01*
X0032176Y0245298D01*
X0031986Y0245314D01*
X0031797Y0245334D01*
X0031608Y0245360D01*
X0031420Y0245389D01*
X0031233Y0245424D01*
X0031047Y0245463D01*
X0030862Y0245506D01*
X0030677Y0245554D01*
X0030494Y0245606D01*
X0030313Y0245662D01*
X0030133Y0245723D01*
X0029954Y0245789D01*
X0029777Y0245858D01*
X0029601Y0245932D01*
X0029428Y0246010D01*
X0029256Y0246093D01*
X0029087Y0246179D01*
X0028919Y0246269D01*
X0028754Y0246364D01*
X0028591Y0246462D01*
X0028431Y0246565D01*
X0028273Y0246671D01*
X0028118Y0246781D01*
X0027965Y0246894D01*
X0027815Y0247012D01*
X0027669Y0247133D01*
X0027525Y0247257D01*
X0027384Y0247385D01*
X0027246Y0247516D01*
X0027111Y0247651D01*
X0026980Y0247789D01*
X0026852Y0247930D01*
X0026728Y0248074D01*
X0026607Y0248220D01*
X0026489Y0248370D01*
X0026376Y0248523D01*
X0026266Y0248678D01*
X0026160Y0248836D01*
X0026057Y0248996D01*
X0025959Y0249159D01*
X0025864Y0249324D01*
X0025774Y0249492D01*
X0025688Y0249661D01*
X0025605Y0249833D01*
X0025527Y0250006D01*
X0025453Y0250182D01*
X0025384Y0250359D01*
X0025318Y0250538D01*
X0025257Y0250718D01*
X0025201Y0250899D01*
X0025149Y0251082D01*
X0025101Y0251267D01*
X0025058Y0251452D01*
X0025019Y0251638D01*
X0024984Y0251825D01*
X0024955Y0252013D01*
X0024929Y0252202D01*
X0024909Y0252391D01*
X0024893Y0252581D01*
X0024881Y0252771D01*
X0024874Y0252961D01*
X0024872Y0253151D01*
X0024872Y0105513D02*
X0024874Y0105427D01*
X0024879Y0105341D01*
X0024889Y0105256D01*
X0024902Y0105171D01*
X0024919Y0105087D01*
X0024939Y0105003D01*
X0024963Y0104921D01*
X0024991Y0104840D01*
X0025022Y0104759D01*
X0025056Y0104681D01*
X0025094Y0104604D01*
X0025136Y0104529D01*
X0025180Y0104455D01*
X0025228Y0104384D01*
X0025279Y0104314D01*
X0025333Y0104247D01*
X0025389Y0104183D01*
X0025449Y0104121D01*
X0025511Y0104061D01*
X0025575Y0104005D01*
X0025642Y0103951D01*
X0025712Y0103900D01*
X0025783Y0103852D01*
X0025856Y0103808D01*
X0025932Y0103766D01*
X0026009Y0103728D01*
X0026087Y0103694D01*
X0026168Y0103663D01*
X0026249Y0103635D01*
X0026331Y0103611D01*
X0026415Y0103591D01*
X0026499Y0103574D01*
X0026584Y0103561D01*
X0026669Y0103551D01*
X0026755Y0103546D01*
X0026841Y0103544D01*
X0032746Y0245277D02*
X0032936Y0245279D01*
X0033126Y0245286D01*
X0033316Y0245298D01*
X0033506Y0245314D01*
X0033695Y0245334D01*
X0033884Y0245360D01*
X0034072Y0245389D01*
X0034259Y0245424D01*
X0034445Y0245463D01*
X0034630Y0245506D01*
X0034815Y0245554D01*
X0034998Y0245606D01*
X0035179Y0245662D01*
X0035359Y0245723D01*
X0035538Y0245789D01*
X0035715Y0245858D01*
X0035891Y0245932D01*
X0036064Y0246010D01*
X0036236Y0246093D01*
X0036405Y0246179D01*
X0036573Y0246269D01*
X0036738Y0246364D01*
X0036901Y0246462D01*
X0037061Y0246565D01*
X0037219Y0246671D01*
X0037374Y0246781D01*
X0037527Y0246894D01*
X0037677Y0247012D01*
X0037823Y0247133D01*
X0037967Y0247257D01*
X0038108Y0247385D01*
X0038246Y0247516D01*
X0038381Y0247651D01*
X0038512Y0247789D01*
X0038640Y0247930D01*
X0038764Y0248074D01*
X0038885Y0248220D01*
X0039003Y0248370D01*
X0039116Y0248523D01*
X0039226Y0248678D01*
X0039332Y0248836D01*
X0039435Y0248996D01*
X0039533Y0249159D01*
X0039628Y0249324D01*
X0039718Y0249492D01*
X0039804Y0249661D01*
X0039887Y0249833D01*
X0039965Y0250006D01*
X0040039Y0250182D01*
X0040108Y0250359D01*
X0040174Y0250538D01*
X0040235Y0250718D01*
X0040291Y0250899D01*
X0040343Y0251082D01*
X0040391Y0251267D01*
X0040434Y0251452D01*
X0040473Y0251638D01*
X0040508Y0251825D01*
X0040537Y0252013D01*
X0040563Y0252202D01*
X0040583Y0252391D01*
X0040599Y0252581D01*
X0040611Y0252771D01*
X0040618Y0252961D01*
X0040620Y0253151D01*
M02*
