%
M48
M72
T01C0.01378
T02C0.03543
T03C0.04000
T04C0.37500
%
T01
X41253Y86619
X29376Y19482
T02
X32746Y60238
X32746Y264962
X32746Y360238
X32746Y564962
T03
X19376Y19482
X27111Y86619
X29376Y19482
X34182Y79548
X34182Y93691
X39376Y19482
X41253Y86619
X34281Y295459
X34281Y309601
X41352Y302530
X39817Y521100
X32746Y528171
X32746Y514029
X25675Y521100
X33246Y731029
X33246Y745171
X26175Y738100
X40317Y738100
X27210Y302530
X49376Y19482
T04
X32746Y790600
M30
