G75*
%MOIN*%
%OFA0B0*%
%FSLAX25Y25*%
%IPPOS*%
%LPD*%
%AMOC8*
5,1,8,0,0,1.08239X$1,22.5*
%
%ADD10C,0.00600*%
%ADD11C,0.00000*%
%ADD12C,0.05000*%
D10*
X0030978Y0508726D02*
X0020372Y0519332D01*
X0020372Y0522868D01*
X0023907Y0526403D01*
X0027443Y0526403D01*
X0038049Y0515797D01*
X0041585Y0515797D01*
X0045120Y0519332D01*
X0045120Y0522868D01*
X0034514Y0533474D01*
X0030978Y0533474D01*
X0027443Y0529939D01*
X0027443Y0526403D01*
X0030978Y0508726D02*
X0034514Y0508726D01*
X0038049Y0512261D01*
X0038049Y0515797D01*
X0036048Y0314904D02*
X0032513Y0314904D01*
X0021906Y0304298D01*
X0021906Y0300762D01*
X0025442Y0297227D01*
X0028977Y0297227D01*
X0039584Y0307833D01*
X0043119Y0307833D01*
X0046655Y0304298D01*
X0046655Y0300762D01*
X0036048Y0290156D01*
X0032513Y0290156D01*
X0028977Y0293691D01*
X0028977Y0297227D01*
X0039584Y0311369D02*
X0036048Y0314904D01*
X0039584Y0311369D02*
X0039584Y0307833D01*
X0035950Y0098994D02*
X0032415Y0098994D01*
X0028879Y0095458D01*
X0028879Y0091923D01*
X0039486Y0081316D01*
X0043021Y0081316D01*
X0046557Y0084852D01*
X0046557Y0088387D01*
X0035950Y0098994D01*
X0039486Y0077781D02*
X0035950Y0074245D01*
X0032415Y0074245D01*
X0021808Y0084852D01*
X0021808Y0088387D01*
X0025344Y0091923D01*
X0028879Y0091923D01*
X0039486Y0081316D02*
X0039486Y0077781D01*
X0035014Y0725726D02*
X0031478Y0725726D01*
X0027943Y0729261D01*
X0027943Y0732797D01*
X0038549Y0743403D01*
X0042085Y0743403D01*
X0045620Y0739868D01*
X0045620Y0736332D01*
X0035014Y0725726D01*
X0038549Y0746939D02*
X0035014Y0750474D01*
X0031478Y0750474D01*
X0020872Y0739868D01*
X0020872Y0736332D01*
X0024407Y0732797D01*
X0027943Y0732797D01*
X0038549Y0743403D02*
X0038549Y0746939D01*
X0069184Y0051618D02*
X0069891Y0051618D01*
X0069538Y0051264D01*
X0032746Y1887600D02*
X0027746Y1892600D01*
D11*
X0013996Y0790600D02*
X0014002Y0791060D01*
X0014019Y0791520D01*
X0014047Y0791979D01*
X0014086Y0792438D01*
X0014137Y0792895D01*
X0014199Y0793351D01*
X0014272Y0793806D01*
X0014356Y0794258D01*
X0014452Y0794708D01*
X0014558Y0795156D01*
X0014675Y0795601D01*
X0014803Y0796043D01*
X0014942Y0796482D01*
X0015092Y0796917D01*
X0015252Y0797348D01*
X0015423Y0797775D01*
X0015605Y0798198D01*
X0015796Y0798617D01*
X0015998Y0799030D01*
X0016210Y0799439D01*
X0016432Y0799842D01*
X0016664Y0800239D01*
X0016905Y0800631D01*
X0017156Y0801017D01*
X0017416Y0801396D01*
X0017686Y0801769D01*
X0017965Y0802136D01*
X0018252Y0802495D01*
X0018548Y0802847D01*
X0018853Y0803192D01*
X0019166Y0803529D01*
X0019488Y0803858D01*
X0019817Y0804180D01*
X0020154Y0804493D01*
X0020499Y0804798D01*
X0020851Y0805094D01*
X0021210Y0805381D01*
X0021577Y0805660D01*
X0021950Y0805930D01*
X0022329Y0806190D01*
X0022715Y0806441D01*
X0023107Y0806682D01*
X0023504Y0806914D01*
X0023907Y0807136D01*
X0024316Y0807348D01*
X0024729Y0807550D01*
X0025148Y0807741D01*
X0025571Y0807923D01*
X0025998Y0808094D01*
X0026429Y0808254D01*
X0026864Y0808404D01*
X0027303Y0808543D01*
X0027745Y0808671D01*
X0028190Y0808788D01*
X0028638Y0808894D01*
X0029088Y0808990D01*
X0029540Y0809074D01*
X0029995Y0809147D01*
X0030451Y0809209D01*
X0030908Y0809260D01*
X0031367Y0809299D01*
X0031826Y0809327D01*
X0032286Y0809344D01*
X0032746Y0809350D01*
X0033206Y0809344D01*
X0033666Y0809327D01*
X0034125Y0809299D01*
X0034584Y0809260D01*
X0035041Y0809209D01*
X0035497Y0809147D01*
X0035952Y0809074D01*
X0036404Y0808990D01*
X0036854Y0808894D01*
X0037302Y0808788D01*
X0037747Y0808671D01*
X0038189Y0808543D01*
X0038628Y0808404D01*
X0039063Y0808254D01*
X0039494Y0808094D01*
X0039921Y0807923D01*
X0040344Y0807741D01*
X0040763Y0807550D01*
X0041176Y0807348D01*
X0041585Y0807136D01*
X0041988Y0806914D01*
X0042385Y0806682D01*
X0042777Y0806441D01*
X0043163Y0806190D01*
X0043542Y0805930D01*
X0043915Y0805660D01*
X0044282Y0805381D01*
X0044641Y0805094D01*
X0044993Y0804798D01*
X0045338Y0804493D01*
X0045675Y0804180D01*
X0046004Y0803858D01*
X0046326Y0803529D01*
X0046639Y0803192D01*
X0046944Y0802847D01*
X0047240Y0802495D01*
X0047527Y0802136D01*
X0047806Y0801769D01*
X0048076Y0801396D01*
X0048336Y0801017D01*
X0048587Y0800631D01*
X0048828Y0800239D01*
X0049060Y0799842D01*
X0049282Y0799439D01*
X0049494Y0799030D01*
X0049696Y0798617D01*
X0049887Y0798198D01*
X0050069Y0797775D01*
X0050240Y0797348D01*
X0050400Y0796917D01*
X0050550Y0796482D01*
X0050689Y0796043D01*
X0050817Y0795601D01*
X0050934Y0795156D01*
X0051040Y0794708D01*
X0051136Y0794258D01*
X0051220Y0793806D01*
X0051293Y0793351D01*
X0051355Y0792895D01*
X0051406Y0792438D01*
X0051445Y0791979D01*
X0051473Y0791520D01*
X0051490Y0791060D01*
X0051496Y0790600D01*
X0051490Y0790140D01*
X0051473Y0789680D01*
X0051445Y0789221D01*
X0051406Y0788762D01*
X0051355Y0788305D01*
X0051293Y0787849D01*
X0051220Y0787394D01*
X0051136Y0786942D01*
X0051040Y0786492D01*
X0050934Y0786044D01*
X0050817Y0785599D01*
X0050689Y0785157D01*
X0050550Y0784718D01*
X0050400Y0784283D01*
X0050240Y0783852D01*
X0050069Y0783425D01*
X0049887Y0783002D01*
X0049696Y0782583D01*
X0049494Y0782170D01*
X0049282Y0781761D01*
X0049060Y0781358D01*
X0048828Y0780961D01*
X0048587Y0780569D01*
X0048336Y0780183D01*
X0048076Y0779804D01*
X0047806Y0779431D01*
X0047527Y0779064D01*
X0047240Y0778705D01*
X0046944Y0778353D01*
X0046639Y0778008D01*
X0046326Y0777671D01*
X0046004Y0777342D01*
X0045675Y0777020D01*
X0045338Y0776707D01*
X0044993Y0776402D01*
X0044641Y0776106D01*
X0044282Y0775819D01*
X0043915Y0775540D01*
X0043542Y0775270D01*
X0043163Y0775010D01*
X0042777Y0774759D01*
X0042385Y0774518D01*
X0041988Y0774286D01*
X0041585Y0774064D01*
X0041176Y0773852D01*
X0040763Y0773650D01*
X0040344Y0773459D01*
X0039921Y0773277D01*
X0039494Y0773106D01*
X0039063Y0772946D01*
X0038628Y0772796D01*
X0038189Y0772657D01*
X0037747Y0772529D01*
X0037302Y0772412D01*
X0036854Y0772306D01*
X0036404Y0772210D01*
X0035952Y0772126D01*
X0035497Y0772053D01*
X0035041Y0771991D01*
X0034584Y0771940D01*
X0034125Y0771901D01*
X0033666Y0771873D01*
X0033206Y0771856D01*
X0032746Y0771850D01*
X0032286Y0771856D01*
X0031826Y0771873D01*
X0031367Y0771901D01*
X0030908Y0771940D01*
X0030451Y0771991D01*
X0029995Y0772053D01*
X0029540Y0772126D01*
X0029088Y0772210D01*
X0028638Y0772306D01*
X0028190Y0772412D01*
X0027745Y0772529D01*
X0027303Y0772657D01*
X0026864Y0772796D01*
X0026429Y0772946D01*
X0025998Y0773106D01*
X0025571Y0773277D01*
X0025148Y0773459D01*
X0024729Y0773650D01*
X0024316Y0773852D01*
X0023907Y0774064D01*
X0023504Y0774286D01*
X0023107Y0774518D01*
X0022715Y0774759D01*
X0022329Y0775010D01*
X0021950Y0775270D01*
X0021577Y0775540D01*
X0021210Y0775819D01*
X0020851Y0776106D01*
X0020499Y0776402D01*
X0020154Y0776707D01*
X0019817Y0777020D01*
X0019488Y0777342D01*
X0019166Y0777671D01*
X0018853Y0778008D01*
X0018548Y0778353D01*
X0018252Y0778705D01*
X0017965Y0779064D01*
X0017686Y0779431D01*
X0017416Y0779804D01*
X0017156Y0780183D01*
X0016905Y0780569D01*
X0016664Y0780961D01*
X0016432Y0781358D01*
X0016210Y0781761D01*
X0015998Y0782170D01*
X0015796Y0782583D01*
X0015605Y0783002D01*
X0015423Y0783425D01*
X0015252Y0783852D01*
X0015092Y0784283D01*
X0014942Y0784718D01*
X0014803Y0785157D01*
X0014675Y0785599D01*
X0014558Y0786044D01*
X0014452Y0786492D01*
X0014356Y0786942D01*
X0014272Y0787394D01*
X0014199Y0787849D01*
X0014137Y0788305D01*
X0014086Y0788762D01*
X0014047Y0789221D01*
X0014019Y0789680D01*
X0014002Y0790140D01*
X0013996Y0790600D01*
D12*
X0012553Y0086600D02*
X0012555Y0086703D01*
X0012561Y0086806D01*
X0012571Y0086909D01*
X0012585Y0087011D01*
X0012602Y0087113D01*
X0012624Y0087214D01*
X0012649Y0087314D01*
X0012679Y0087413D01*
X0012712Y0087510D01*
X0012748Y0087607D01*
X0012789Y0087702D01*
X0012833Y0087795D01*
X0012880Y0087886D01*
X0012931Y0087976D01*
X0012986Y0088064D01*
X0013043Y0088149D01*
X0013104Y0088233D01*
X0013168Y0088313D01*
X0013236Y0088392D01*
X0013306Y0088467D01*
X0013379Y0088540D01*
X0013454Y0088610D01*
X0013533Y0088678D01*
X0013613Y0088742D01*
X0013697Y0088803D01*
X0013782Y0088860D01*
X0013870Y0088915D01*
X0013960Y0088966D01*
X0014051Y0089013D01*
X0014144Y0089057D01*
X0014239Y0089098D01*
X0014336Y0089134D01*
X0014433Y0089167D01*
X0014532Y0089197D01*
X0014632Y0089222D01*
X0014733Y0089244D01*
X0014835Y0089261D01*
X0014937Y0089275D01*
X0015040Y0089285D01*
X0015143Y0089291D01*
X0015246Y0089293D01*
X0015349Y0089291D01*
X0015452Y0089285D01*
X0015555Y0089275D01*
X0015657Y0089261D01*
X0015759Y0089244D01*
X0015860Y0089222D01*
X0015960Y0089197D01*
X0016059Y0089167D01*
X0016156Y0089134D01*
X0016253Y0089098D01*
X0016348Y0089057D01*
X0016441Y0089013D01*
X0016532Y0088966D01*
X0016622Y0088915D01*
X0016710Y0088860D01*
X0016795Y0088803D01*
X0016879Y0088742D01*
X0016959Y0088678D01*
X0017038Y0088610D01*
X0017113Y0088540D01*
X0017186Y0088467D01*
X0017256Y0088392D01*
X0017324Y0088313D01*
X0017388Y0088233D01*
X0017449Y0088149D01*
X0017506Y0088064D01*
X0017561Y0087976D01*
X0017612Y0087886D01*
X0017659Y0087795D01*
X0017703Y0087702D01*
X0017744Y0087607D01*
X0017780Y0087510D01*
X0017813Y0087413D01*
X0017843Y0087314D01*
X0017868Y0087214D01*
X0017890Y0087113D01*
X0017907Y0087011D01*
X0017921Y0086909D01*
X0017931Y0086806D01*
X0017937Y0086703D01*
X0017939Y0086600D01*
X0017937Y0086497D01*
X0017931Y0086394D01*
X0017921Y0086291D01*
X0017907Y0086189D01*
X0017890Y0086087D01*
X0017868Y0085986D01*
X0017843Y0085886D01*
X0017813Y0085787D01*
X0017780Y0085690D01*
X0017744Y0085593D01*
X0017703Y0085498D01*
X0017659Y0085405D01*
X0017612Y0085314D01*
X0017561Y0085224D01*
X0017506Y0085136D01*
X0017449Y0085051D01*
X0017388Y0084967D01*
X0017324Y0084887D01*
X0017256Y0084808D01*
X0017186Y0084733D01*
X0017113Y0084660D01*
X0017038Y0084590D01*
X0016959Y0084522D01*
X0016879Y0084458D01*
X0016795Y0084397D01*
X0016710Y0084340D01*
X0016622Y0084285D01*
X0016532Y0084234D01*
X0016441Y0084187D01*
X0016348Y0084143D01*
X0016253Y0084102D01*
X0016156Y0084066D01*
X0016059Y0084033D01*
X0015960Y0084003D01*
X0015860Y0083978D01*
X0015759Y0083956D01*
X0015657Y0083939D01*
X0015555Y0083925D01*
X0015452Y0083915D01*
X0015349Y0083909D01*
X0015246Y0083907D01*
X0015143Y0083909D01*
X0015040Y0083915D01*
X0014937Y0083925D01*
X0014835Y0083939D01*
X0014733Y0083956D01*
X0014632Y0083978D01*
X0014532Y0084003D01*
X0014433Y0084033D01*
X0014336Y0084066D01*
X0014239Y0084102D01*
X0014144Y0084143D01*
X0014051Y0084187D01*
X0013960Y0084234D01*
X0013870Y0084285D01*
X0013782Y0084340D01*
X0013697Y0084397D01*
X0013613Y0084458D01*
X0013533Y0084522D01*
X0013454Y0084590D01*
X0013379Y0084660D01*
X0013306Y0084733D01*
X0013236Y0084808D01*
X0013168Y0084887D01*
X0013104Y0084967D01*
X0013043Y0085051D01*
X0012986Y0085136D01*
X0012931Y0085224D01*
X0012880Y0085314D01*
X0012833Y0085405D01*
X0012789Y0085498D01*
X0012748Y0085593D01*
X0012712Y0085690D01*
X0012679Y0085787D01*
X0012649Y0085886D01*
X0012624Y0085986D01*
X0012602Y0086087D01*
X0012585Y0086189D01*
X0012571Y0086291D01*
X0012561Y0086394D01*
X0012555Y0086497D01*
X0012553Y0086600D01*
X0011553Y0521100D02*
X0011555Y0521203D01*
X0011561Y0521306D01*
X0011571Y0521409D01*
X0011585Y0521511D01*
X0011602Y0521613D01*
X0011624Y0521714D01*
X0011649Y0521814D01*
X0011679Y0521913D01*
X0011712Y0522010D01*
X0011748Y0522107D01*
X0011789Y0522202D01*
X0011833Y0522295D01*
X0011880Y0522386D01*
X0011931Y0522476D01*
X0011986Y0522564D01*
X0012043Y0522649D01*
X0012104Y0522733D01*
X0012168Y0522813D01*
X0012236Y0522892D01*
X0012306Y0522967D01*
X0012379Y0523040D01*
X0012454Y0523110D01*
X0012533Y0523178D01*
X0012613Y0523242D01*
X0012697Y0523303D01*
X0012782Y0523360D01*
X0012870Y0523415D01*
X0012960Y0523466D01*
X0013051Y0523513D01*
X0013144Y0523557D01*
X0013239Y0523598D01*
X0013336Y0523634D01*
X0013433Y0523667D01*
X0013532Y0523697D01*
X0013632Y0523722D01*
X0013733Y0523744D01*
X0013835Y0523761D01*
X0013937Y0523775D01*
X0014040Y0523785D01*
X0014143Y0523791D01*
X0014246Y0523793D01*
X0014349Y0523791D01*
X0014452Y0523785D01*
X0014555Y0523775D01*
X0014657Y0523761D01*
X0014759Y0523744D01*
X0014860Y0523722D01*
X0014960Y0523697D01*
X0015059Y0523667D01*
X0015156Y0523634D01*
X0015253Y0523598D01*
X0015348Y0523557D01*
X0015441Y0523513D01*
X0015532Y0523466D01*
X0015622Y0523415D01*
X0015710Y0523360D01*
X0015795Y0523303D01*
X0015879Y0523242D01*
X0015959Y0523178D01*
X0016038Y0523110D01*
X0016113Y0523040D01*
X0016186Y0522967D01*
X0016256Y0522892D01*
X0016324Y0522813D01*
X0016388Y0522733D01*
X0016449Y0522649D01*
X0016506Y0522564D01*
X0016561Y0522476D01*
X0016612Y0522386D01*
X0016659Y0522295D01*
X0016703Y0522202D01*
X0016744Y0522107D01*
X0016780Y0522010D01*
X0016813Y0521913D01*
X0016843Y0521814D01*
X0016868Y0521714D01*
X0016890Y0521613D01*
X0016907Y0521511D01*
X0016921Y0521409D01*
X0016931Y0521306D01*
X0016937Y0521203D01*
X0016939Y0521100D01*
X0016937Y0520997D01*
X0016931Y0520894D01*
X0016921Y0520791D01*
X0016907Y0520689D01*
X0016890Y0520587D01*
X0016868Y0520486D01*
X0016843Y0520386D01*
X0016813Y0520287D01*
X0016780Y0520190D01*
X0016744Y0520093D01*
X0016703Y0519998D01*
X0016659Y0519905D01*
X0016612Y0519814D01*
X0016561Y0519724D01*
X0016506Y0519636D01*
X0016449Y0519551D01*
X0016388Y0519467D01*
X0016324Y0519387D01*
X0016256Y0519308D01*
X0016186Y0519233D01*
X0016113Y0519160D01*
X0016038Y0519090D01*
X0015959Y0519022D01*
X0015879Y0518958D01*
X0015795Y0518897D01*
X0015710Y0518840D01*
X0015622Y0518785D01*
X0015532Y0518734D01*
X0015441Y0518687D01*
X0015348Y0518643D01*
X0015253Y0518602D01*
X0015156Y0518566D01*
X0015059Y0518533D01*
X0014960Y0518503D01*
X0014860Y0518478D01*
X0014759Y0518456D01*
X0014657Y0518439D01*
X0014555Y0518425D01*
X0014452Y0518415D01*
X0014349Y0518409D01*
X0014246Y0518407D01*
X0014143Y0518409D01*
X0014040Y0518415D01*
X0013937Y0518425D01*
X0013835Y0518439D01*
X0013733Y0518456D01*
X0013632Y0518478D01*
X0013532Y0518503D01*
X0013433Y0518533D01*
X0013336Y0518566D01*
X0013239Y0518602D01*
X0013144Y0518643D01*
X0013051Y0518687D01*
X0012960Y0518734D01*
X0012870Y0518785D01*
X0012782Y0518840D01*
X0012697Y0518897D01*
X0012613Y0518958D01*
X0012533Y0519022D01*
X0012454Y0519090D01*
X0012379Y0519160D01*
X0012306Y0519233D01*
X0012236Y0519308D01*
X0012168Y0519387D01*
X0012104Y0519467D01*
X0012043Y0519551D01*
X0011986Y0519636D01*
X0011931Y0519724D01*
X0011880Y0519814D01*
X0011833Y0519905D01*
X0011789Y0519998D01*
X0011748Y0520093D01*
X0011712Y0520190D01*
X0011679Y0520287D01*
X0011649Y0520386D01*
X0011624Y0520486D01*
X0011602Y0520587D01*
X0011585Y0520689D01*
X0011571Y0520791D01*
X0011561Y0520894D01*
X0011555Y0520997D01*
X0011553Y0521100D01*
X0030553Y0756600D02*
X0030555Y0756703D01*
X0030561Y0756806D01*
X0030571Y0756909D01*
X0030585Y0757011D01*
X0030602Y0757113D01*
X0030624Y0757214D01*
X0030649Y0757314D01*
X0030679Y0757413D01*
X0030712Y0757510D01*
X0030748Y0757607D01*
X0030789Y0757702D01*
X0030833Y0757795D01*
X0030880Y0757886D01*
X0030931Y0757976D01*
X0030986Y0758064D01*
X0031043Y0758149D01*
X0031104Y0758233D01*
X0031168Y0758313D01*
X0031236Y0758392D01*
X0031306Y0758467D01*
X0031379Y0758540D01*
X0031454Y0758610D01*
X0031533Y0758678D01*
X0031613Y0758742D01*
X0031697Y0758803D01*
X0031782Y0758860D01*
X0031870Y0758915D01*
X0031960Y0758966D01*
X0032051Y0759013D01*
X0032144Y0759057D01*
X0032239Y0759098D01*
X0032336Y0759134D01*
X0032433Y0759167D01*
X0032532Y0759197D01*
X0032632Y0759222D01*
X0032733Y0759244D01*
X0032835Y0759261D01*
X0032937Y0759275D01*
X0033040Y0759285D01*
X0033143Y0759291D01*
X0033246Y0759293D01*
X0033349Y0759291D01*
X0033452Y0759285D01*
X0033555Y0759275D01*
X0033657Y0759261D01*
X0033759Y0759244D01*
X0033860Y0759222D01*
X0033960Y0759197D01*
X0034059Y0759167D01*
X0034156Y0759134D01*
X0034253Y0759098D01*
X0034348Y0759057D01*
X0034441Y0759013D01*
X0034532Y0758966D01*
X0034622Y0758915D01*
X0034710Y0758860D01*
X0034795Y0758803D01*
X0034879Y0758742D01*
X0034959Y0758678D01*
X0035038Y0758610D01*
X0035113Y0758540D01*
X0035186Y0758467D01*
X0035256Y0758392D01*
X0035324Y0758313D01*
X0035388Y0758233D01*
X0035449Y0758149D01*
X0035506Y0758064D01*
X0035561Y0757976D01*
X0035612Y0757886D01*
X0035659Y0757795D01*
X0035703Y0757702D01*
X0035744Y0757607D01*
X0035780Y0757510D01*
X0035813Y0757413D01*
X0035843Y0757314D01*
X0035868Y0757214D01*
X0035890Y0757113D01*
X0035907Y0757011D01*
X0035921Y0756909D01*
X0035931Y0756806D01*
X0035937Y0756703D01*
X0035939Y0756600D01*
X0035937Y0756497D01*
X0035931Y0756394D01*
X0035921Y0756291D01*
X0035907Y0756189D01*
X0035890Y0756087D01*
X0035868Y0755986D01*
X0035843Y0755886D01*
X0035813Y0755787D01*
X0035780Y0755690D01*
X0035744Y0755593D01*
X0035703Y0755498D01*
X0035659Y0755405D01*
X0035612Y0755314D01*
X0035561Y0755224D01*
X0035506Y0755136D01*
X0035449Y0755051D01*
X0035388Y0754967D01*
X0035324Y0754887D01*
X0035256Y0754808D01*
X0035186Y0754733D01*
X0035113Y0754660D01*
X0035038Y0754590D01*
X0034959Y0754522D01*
X0034879Y0754458D01*
X0034795Y0754397D01*
X0034710Y0754340D01*
X0034622Y0754285D01*
X0034532Y0754234D01*
X0034441Y0754187D01*
X0034348Y0754143D01*
X0034253Y0754102D01*
X0034156Y0754066D01*
X0034059Y0754033D01*
X0033960Y0754003D01*
X0033860Y0753978D01*
X0033759Y0753956D01*
X0033657Y0753939D01*
X0033555Y0753925D01*
X0033452Y0753915D01*
X0033349Y0753909D01*
X0033246Y0753907D01*
X0033143Y0753909D01*
X0033040Y0753915D01*
X0032937Y0753925D01*
X0032835Y0753939D01*
X0032733Y0753956D01*
X0032632Y0753978D01*
X0032532Y0754003D01*
X0032433Y0754033D01*
X0032336Y0754066D01*
X0032239Y0754102D01*
X0032144Y0754143D01*
X0032051Y0754187D01*
X0031960Y0754234D01*
X0031870Y0754285D01*
X0031782Y0754340D01*
X0031697Y0754397D01*
X0031613Y0754458D01*
X0031533Y0754522D01*
X0031454Y0754590D01*
X0031379Y0754660D01*
X0031306Y0754733D01*
X0031236Y0754808D01*
X0031168Y0754887D01*
X0031104Y0754967D01*
X0031043Y0755051D01*
X0030986Y0755136D01*
X0030931Y0755224D01*
X0030880Y0755314D01*
X0030833Y0755405D01*
X0030789Y0755498D01*
X0030748Y0755593D01*
X0030712Y0755690D01*
X0030679Y0755787D01*
X0030649Y0755886D01*
X0030624Y0755986D01*
X0030602Y0756087D01*
X0030585Y0756189D01*
X0030571Y0756291D01*
X0030561Y0756394D01*
X0030555Y0756497D01*
X0030553Y0756600D01*
X0031553Y0321100D02*
X0031555Y0321203D01*
X0031561Y0321306D01*
X0031571Y0321409D01*
X0031585Y0321511D01*
X0031602Y0321613D01*
X0031624Y0321714D01*
X0031649Y0321814D01*
X0031679Y0321913D01*
X0031712Y0322010D01*
X0031748Y0322107D01*
X0031789Y0322202D01*
X0031833Y0322295D01*
X0031880Y0322386D01*
X0031931Y0322476D01*
X0031986Y0322564D01*
X0032043Y0322649D01*
X0032104Y0322733D01*
X0032168Y0322813D01*
X0032236Y0322892D01*
X0032306Y0322967D01*
X0032379Y0323040D01*
X0032454Y0323110D01*
X0032533Y0323178D01*
X0032613Y0323242D01*
X0032697Y0323303D01*
X0032782Y0323360D01*
X0032870Y0323415D01*
X0032960Y0323466D01*
X0033051Y0323513D01*
X0033144Y0323557D01*
X0033239Y0323598D01*
X0033336Y0323634D01*
X0033433Y0323667D01*
X0033532Y0323697D01*
X0033632Y0323722D01*
X0033733Y0323744D01*
X0033835Y0323761D01*
X0033937Y0323775D01*
X0034040Y0323785D01*
X0034143Y0323791D01*
X0034246Y0323793D01*
X0034349Y0323791D01*
X0034452Y0323785D01*
X0034555Y0323775D01*
X0034657Y0323761D01*
X0034759Y0323744D01*
X0034860Y0323722D01*
X0034960Y0323697D01*
X0035059Y0323667D01*
X0035156Y0323634D01*
X0035253Y0323598D01*
X0035348Y0323557D01*
X0035441Y0323513D01*
X0035532Y0323466D01*
X0035622Y0323415D01*
X0035710Y0323360D01*
X0035795Y0323303D01*
X0035879Y0323242D01*
X0035959Y0323178D01*
X0036038Y0323110D01*
X0036113Y0323040D01*
X0036186Y0322967D01*
X0036256Y0322892D01*
X0036324Y0322813D01*
X0036388Y0322733D01*
X0036449Y0322649D01*
X0036506Y0322564D01*
X0036561Y0322476D01*
X0036612Y0322386D01*
X0036659Y0322295D01*
X0036703Y0322202D01*
X0036744Y0322107D01*
X0036780Y0322010D01*
X0036813Y0321913D01*
X0036843Y0321814D01*
X0036868Y0321714D01*
X0036890Y0321613D01*
X0036907Y0321511D01*
X0036921Y0321409D01*
X0036931Y0321306D01*
X0036937Y0321203D01*
X0036939Y0321100D01*
X0036937Y0320997D01*
X0036931Y0320894D01*
X0036921Y0320791D01*
X0036907Y0320689D01*
X0036890Y0320587D01*
X0036868Y0320486D01*
X0036843Y0320386D01*
X0036813Y0320287D01*
X0036780Y0320190D01*
X0036744Y0320093D01*
X0036703Y0319998D01*
X0036659Y0319905D01*
X0036612Y0319814D01*
X0036561Y0319724D01*
X0036506Y0319636D01*
X0036449Y0319551D01*
X0036388Y0319467D01*
X0036324Y0319387D01*
X0036256Y0319308D01*
X0036186Y0319233D01*
X0036113Y0319160D01*
X0036038Y0319090D01*
X0035959Y0319022D01*
X0035879Y0318958D01*
X0035795Y0318897D01*
X0035710Y0318840D01*
X0035622Y0318785D01*
X0035532Y0318734D01*
X0035441Y0318687D01*
X0035348Y0318643D01*
X0035253Y0318602D01*
X0035156Y0318566D01*
X0035059Y0318533D01*
X0034960Y0318503D01*
X0034860Y0318478D01*
X0034759Y0318456D01*
X0034657Y0318439D01*
X0034555Y0318425D01*
X0034452Y0318415D01*
X0034349Y0318409D01*
X0034246Y0318407D01*
X0034143Y0318409D01*
X0034040Y0318415D01*
X0033937Y0318425D01*
X0033835Y0318439D01*
X0033733Y0318456D01*
X0033632Y0318478D01*
X0033532Y0318503D01*
X0033433Y0318533D01*
X0033336Y0318566D01*
X0033239Y0318602D01*
X0033144Y0318643D01*
X0033051Y0318687D01*
X0032960Y0318734D01*
X0032870Y0318785D01*
X0032782Y0318840D01*
X0032697Y0318897D01*
X0032613Y0318958D01*
X0032533Y0319022D01*
X0032454Y0319090D01*
X0032379Y0319160D01*
X0032306Y0319233D01*
X0032236Y0319308D01*
X0032168Y0319387D01*
X0032104Y0319467D01*
X0032043Y0319551D01*
X0031986Y0319636D01*
X0031931Y0319724D01*
X0031880Y0319814D01*
X0031833Y0319905D01*
X0031789Y0319998D01*
X0031748Y0320093D01*
X0031712Y0320190D01*
X0031679Y0320287D01*
X0031649Y0320386D01*
X0031624Y0320486D01*
X0031602Y0320587D01*
X0031585Y0320689D01*
X0031571Y0320791D01*
X0031561Y0320894D01*
X0031555Y0320997D01*
X0031553Y0321100D01*
M02*
