G75*
%MOIN*%
%OFA0B0*%
%FSLAX25Y25*%
%IPPOS*%
%LPD*%
%AMOC8*
5,1,8,0,0,1.08239X$1,22.5*
%
%ADD10C,0.00600*%
D10*
X0002746Y0002600D02*
X0062746Y0002600D01*
X0062746Y0782600D01*
X0032746Y0817600D02*
X0031961Y0817530D01*
X0031179Y0817441D01*
X0030398Y0817334D01*
X0029621Y0817207D01*
X0028847Y0817062D01*
X0028076Y0816898D01*
X0027310Y0816715D01*
X0026548Y0816514D01*
X0025792Y0816295D01*
X0025041Y0816057D01*
X0024296Y0815802D01*
X0023557Y0815528D01*
X0022825Y0815237D01*
X0022101Y0814928D01*
X0021384Y0814602D01*
X0020675Y0814258D01*
X0019975Y0813897D01*
X0019283Y0813520D01*
X0018601Y0813126D01*
X0017929Y0812716D01*
X0017267Y0812289D01*
X0016615Y0811847D01*
X0015974Y0811389D01*
X0015344Y0810915D01*
X0014726Y0810427D01*
X0014120Y0809924D01*
X0013527Y0809406D01*
X0012946Y0808874D01*
X0012378Y0808328D01*
X0011823Y0807769D01*
X0011282Y0807196D01*
X0010755Y0806611D01*
X0010243Y0806013D01*
X0009745Y0805402D01*
X0009262Y0804780D01*
X0008794Y0804147D01*
X0008341Y0803502D01*
X0007904Y0802846D01*
X0007483Y0802180D01*
X0007079Y0801505D01*
X0006691Y0800819D01*
X0006319Y0800125D01*
X0005965Y0799421D01*
X0005627Y0798710D01*
X0005307Y0797990D01*
X0005004Y0797263D01*
X0004719Y0796528D01*
X0004452Y0795787D01*
X0004203Y0795040D01*
X0003971Y0794287D01*
X0003759Y0793529D01*
X0003564Y0792765D01*
X0003388Y0791998D01*
X0003231Y0791226D01*
X0003092Y0790450D01*
X0002972Y0789672D01*
X0002871Y0788891D01*
X0002789Y0788107D01*
X0002726Y0787322D01*
X0002682Y0786536D01*
X0002656Y0785748D01*
X0002650Y0784961D01*
X0002663Y0784173D01*
X0002695Y0783386D01*
X0002746Y0782600D01*
X0002746Y0002600D01*
X0062746Y0782600D02*
X0062797Y0783386D01*
X0062829Y0784173D01*
X0062842Y0784961D01*
X0062836Y0785748D01*
X0062810Y0786536D01*
X0062766Y0787322D01*
X0062703Y0788107D01*
X0062621Y0788891D01*
X0062520Y0789672D01*
X0062400Y0790450D01*
X0062261Y0791226D01*
X0062104Y0791998D01*
X0061928Y0792765D01*
X0061733Y0793529D01*
X0061521Y0794287D01*
X0061289Y0795040D01*
X0061040Y0795787D01*
X0060773Y0796528D01*
X0060488Y0797263D01*
X0060185Y0797990D01*
X0059865Y0798710D01*
X0059527Y0799421D01*
X0059173Y0800125D01*
X0058801Y0800819D01*
X0058413Y0801505D01*
X0058009Y0802180D01*
X0057588Y0802846D01*
X0057151Y0803502D01*
X0056698Y0804147D01*
X0056230Y0804780D01*
X0055747Y0805402D01*
X0055249Y0806013D01*
X0054737Y0806611D01*
X0054210Y0807196D01*
X0053669Y0807769D01*
X0053114Y0808328D01*
X0052546Y0808874D01*
X0051965Y0809406D01*
X0051372Y0809924D01*
X0050766Y0810427D01*
X0050148Y0810915D01*
X0049518Y0811389D01*
X0048877Y0811847D01*
X0048225Y0812289D01*
X0047563Y0812716D01*
X0046891Y0813126D01*
X0046209Y0813520D01*
X0045517Y0813897D01*
X0044817Y0814258D01*
X0044108Y0814602D01*
X0043391Y0814928D01*
X0042667Y0815237D01*
X0041935Y0815528D01*
X0041196Y0815802D01*
X0040451Y0816057D01*
X0039700Y0816295D01*
X0038944Y0816514D01*
X0038182Y0816715D01*
X0037416Y0816898D01*
X0036645Y0817062D01*
X0035871Y0817207D01*
X0035094Y0817334D01*
X0034313Y0817441D01*
X0033531Y0817530D01*
X0032746Y0817600D01*
M02*
