G75*
%MOIN*%
%OFA0B0*%
%FSLAX25Y25*%
%IPPOS*%
%LPD*%
%AMOC8*
5,1,8,0,0,1.08239X$1,22.5*
%
%ADD10C,0.00000*%
%ADD11C,0.01200*%
%ADD12C,0.07400*%
%ADD13OC8,0.05543*%
%ADD14C,0.03200*%
%ADD15C,0.01600*%
%ADD16C,0.02978*%
D10*
X0013996Y0790600D02*
X0014002Y0791060D01*
X0014019Y0791520D01*
X0014047Y0791979D01*
X0014086Y0792438D01*
X0014137Y0792895D01*
X0014199Y0793351D01*
X0014272Y0793806D01*
X0014356Y0794258D01*
X0014452Y0794708D01*
X0014558Y0795156D01*
X0014675Y0795601D01*
X0014803Y0796043D01*
X0014942Y0796482D01*
X0015092Y0796917D01*
X0015252Y0797348D01*
X0015423Y0797775D01*
X0015605Y0798198D01*
X0015796Y0798617D01*
X0015998Y0799030D01*
X0016210Y0799439D01*
X0016432Y0799842D01*
X0016664Y0800239D01*
X0016905Y0800631D01*
X0017156Y0801017D01*
X0017416Y0801396D01*
X0017686Y0801769D01*
X0017965Y0802136D01*
X0018252Y0802495D01*
X0018548Y0802847D01*
X0018853Y0803192D01*
X0019166Y0803529D01*
X0019488Y0803858D01*
X0019817Y0804180D01*
X0020154Y0804493D01*
X0020499Y0804798D01*
X0020851Y0805094D01*
X0021210Y0805381D01*
X0021577Y0805660D01*
X0021950Y0805930D01*
X0022329Y0806190D01*
X0022715Y0806441D01*
X0023107Y0806682D01*
X0023504Y0806914D01*
X0023907Y0807136D01*
X0024316Y0807348D01*
X0024729Y0807550D01*
X0025148Y0807741D01*
X0025571Y0807923D01*
X0025998Y0808094D01*
X0026429Y0808254D01*
X0026864Y0808404D01*
X0027303Y0808543D01*
X0027745Y0808671D01*
X0028190Y0808788D01*
X0028638Y0808894D01*
X0029088Y0808990D01*
X0029540Y0809074D01*
X0029995Y0809147D01*
X0030451Y0809209D01*
X0030908Y0809260D01*
X0031367Y0809299D01*
X0031826Y0809327D01*
X0032286Y0809344D01*
X0032746Y0809350D01*
X0033206Y0809344D01*
X0033666Y0809327D01*
X0034125Y0809299D01*
X0034584Y0809260D01*
X0035041Y0809209D01*
X0035497Y0809147D01*
X0035952Y0809074D01*
X0036404Y0808990D01*
X0036854Y0808894D01*
X0037302Y0808788D01*
X0037747Y0808671D01*
X0038189Y0808543D01*
X0038628Y0808404D01*
X0039063Y0808254D01*
X0039494Y0808094D01*
X0039921Y0807923D01*
X0040344Y0807741D01*
X0040763Y0807550D01*
X0041176Y0807348D01*
X0041585Y0807136D01*
X0041988Y0806914D01*
X0042385Y0806682D01*
X0042777Y0806441D01*
X0043163Y0806190D01*
X0043542Y0805930D01*
X0043915Y0805660D01*
X0044282Y0805381D01*
X0044641Y0805094D01*
X0044993Y0804798D01*
X0045338Y0804493D01*
X0045675Y0804180D01*
X0046004Y0803858D01*
X0046326Y0803529D01*
X0046639Y0803192D01*
X0046944Y0802847D01*
X0047240Y0802495D01*
X0047527Y0802136D01*
X0047806Y0801769D01*
X0048076Y0801396D01*
X0048336Y0801017D01*
X0048587Y0800631D01*
X0048828Y0800239D01*
X0049060Y0799842D01*
X0049282Y0799439D01*
X0049494Y0799030D01*
X0049696Y0798617D01*
X0049887Y0798198D01*
X0050069Y0797775D01*
X0050240Y0797348D01*
X0050400Y0796917D01*
X0050550Y0796482D01*
X0050689Y0796043D01*
X0050817Y0795601D01*
X0050934Y0795156D01*
X0051040Y0794708D01*
X0051136Y0794258D01*
X0051220Y0793806D01*
X0051293Y0793351D01*
X0051355Y0792895D01*
X0051406Y0792438D01*
X0051445Y0791979D01*
X0051473Y0791520D01*
X0051490Y0791060D01*
X0051496Y0790600D01*
X0051490Y0790140D01*
X0051473Y0789680D01*
X0051445Y0789221D01*
X0051406Y0788762D01*
X0051355Y0788305D01*
X0051293Y0787849D01*
X0051220Y0787394D01*
X0051136Y0786942D01*
X0051040Y0786492D01*
X0050934Y0786044D01*
X0050817Y0785599D01*
X0050689Y0785157D01*
X0050550Y0784718D01*
X0050400Y0784283D01*
X0050240Y0783852D01*
X0050069Y0783425D01*
X0049887Y0783002D01*
X0049696Y0782583D01*
X0049494Y0782170D01*
X0049282Y0781761D01*
X0049060Y0781358D01*
X0048828Y0780961D01*
X0048587Y0780569D01*
X0048336Y0780183D01*
X0048076Y0779804D01*
X0047806Y0779431D01*
X0047527Y0779064D01*
X0047240Y0778705D01*
X0046944Y0778353D01*
X0046639Y0778008D01*
X0046326Y0777671D01*
X0046004Y0777342D01*
X0045675Y0777020D01*
X0045338Y0776707D01*
X0044993Y0776402D01*
X0044641Y0776106D01*
X0044282Y0775819D01*
X0043915Y0775540D01*
X0043542Y0775270D01*
X0043163Y0775010D01*
X0042777Y0774759D01*
X0042385Y0774518D01*
X0041988Y0774286D01*
X0041585Y0774064D01*
X0041176Y0773852D01*
X0040763Y0773650D01*
X0040344Y0773459D01*
X0039921Y0773277D01*
X0039494Y0773106D01*
X0039063Y0772946D01*
X0038628Y0772796D01*
X0038189Y0772657D01*
X0037747Y0772529D01*
X0037302Y0772412D01*
X0036854Y0772306D01*
X0036404Y0772210D01*
X0035952Y0772126D01*
X0035497Y0772053D01*
X0035041Y0771991D01*
X0034584Y0771940D01*
X0034125Y0771901D01*
X0033666Y0771873D01*
X0033206Y0771856D01*
X0032746Y0771850D01*
X0032286Y0771856D01*
X0031826Y0771873D01*
X0031367Y0771901D01*
X0030908Y0771940D01*
X0030451Y0771991D01*
X0029995Y0772053D01*
X0029540Y0772126D01*
X0029088Y0772210D01*
X0028638Y0772306D01*
X0028190Y0772412D01*
X0027745Y0772529D01*
X0027303Y0772657D01*
X0026864Y0772796D01*
X0026429Y0772946D01*
X0025998Y0773106D01*
X0025571Y0773277D01*
X0025148Y0773459D01*
X0024729Y0773650D01*
X0024316Y0773852D01*
X0023907Y0774064D01*
X0023504Y0774286D01*
X0023107Y0774518D01*
X0022715Y0774759D01*
X0022329Y0775010D01*
X0021950Y0775270D01*
X0021577Y0775540D01*
X0021210Y0775819D01*
X0020851Y0776106D01*
X0020499Y0776402D01*
X0020154Y0776707D01*
X0019817Y0777020D01*
X0019488Y0777342D01*
X0019166Y0777671D01*
X0018853Y0778008D01*
X0018548Y0778353D01*
X0018252Y0778705D01*
X0017965Y0779064D01*
X0017686Y0779431D01*
X0017416Y0779804D01*
X0017156Y0780183D01*
X0016905Y0780569D01*
X0016664Y0780961D01*
X0016432Y0781358D01*
X0016210Y0781761D01*
X0015998Y0782170D01*
X0015796Y0782583D01*
X0015605Y0783002D01*
X0015423Y0783425D01*
X0015252Y0783852D01*
X0015092Y0784283D01*
X0014942Y0784718D01*
X0014803Y0785157D01*
X0014675Y0785599D01*
X0014558Y0786044D01*
X0014452Y0786492D01*
X0014356Y0786942D01*
X0014272Y0787394D01*
X0014199Y0787849D01*
X0014137Y0788305D01*
X0014086Y0788762D01*
X0014047Y0789221D01*
X0014019Y0789680D01*
X0014002Y0790140D01*
X0013996Y0790600D01*
D11*
X0026569Y0736301D02*
X0027169Y0735701D01*
X0025181Y0735701D01*
X0023776Y0737106D01*
X0023776Y0739094D01*
X0025181Y0740499D01*
X0027169Y0740499D01*
X0028574Y0739094D01*
X0028574Y0737106D01*
X0027169Y0735701D01*
X0026796Y0736601D01*
X0025554Y0736601D01*
X0024676Y0737479D01*
X0024676Y0738721D01*
X0025554Y0739599D01*
X0026796Y0739599D01*
X0027674Y0738721D01*
X0027674Y0737479D01*
X0026796Y0736601D01*
X0026423Y0737501D01*
X0025927Y0737501D01*
X0025576Y0737852D01*
X0025576Y0738348D01*
X0025927Y0738699D01*
X0026423Y0738699D01*
X0026774Y0738348D01*
X0026774Y0737852D01*
X0026423Y0737501D01*
X0033640Y0729230D02*
X0034240Y0728630D01*
X0032252Y0728630D01*
X0030847Y0730035D01*
X0030847Y0732023D01*
X0032252Y0733428D01*
X0034240Y0733428D01*
X0035645Y0732023D01*
X0035645Y0730035D01*
X0034240Y0728630D01*
X0033867Y0729530D01*
X0032625Y0729530D01*
X0031747Y0730408D01*
X0031747Y0731650D01*
X0032625Y0732528D01*
X0033867Y0732528D01*
X0034745Y0731650D01*
X0034745Y0730408D01*
X0033867Y0729530D01*
X0033494Y0730430D01*
X0032998Y0730430D01*
X0032647Y0730781D01*
X0032647Y0731277D01*
X0032998Y0731628D01*
X0033494Y0731628D01*
X0033845Y0731277D01*
X0033845Y0730781D01*
X0033494Y0730430D01*
X0033640Y0743372D02*
X0034240Y0742772D01*
X0032252Y0742772D01*
X0030847Y0744177D01*
X0030847Y0746165D01*
X0032252Y0747570D01*
X0034240Y0747570D01*
X0035645Y0746165D01*
X0035645Y0744177D01*
X0034240Y0742772D01*
X0033867Y0743672D01*
X0032625Y0743672D01*
X0031747Y0744550D01*
X0031747Y0745792D01*
X0032625Y0746670D01*
X0033867Y0746670D01*
X0034745Y0745792D01*
X0034745Y0744550D01*
X0033867Y0743672D01*
X0033494Y0744572D01*
X0032998Y0744572D01*
X0032647Y0744923D01*
X0032647Y0745419D01*
X0032998Y0745770D01*
X0033494Y0745770D01*
X0033845Y0745419D01*
X0033845Y0744923D01*
X0033494Y0744572D01*
X0040711Y0736301D02*
X0041311Y0735701D01*
X0039323Y0735701D01*
X0037918Y0737106D01*
X0037918Y0739094D01*
X0039323Y0740499D01*
X0041311Y0740499D01*
X0042716Y0739094D01*
X0042716Y0737106D01*
X0041311Y0735701D01*
X0040938Y0736601D01*
X0039696Y0736601D01*
X0038818Y0737479D01*
X0038818Y0738721D01*
X0039696Y0739599D01*
X0040938Y0739599D01*
X0041816Y0738721D01*
X0041816Y0737479D01*
X0040938Y0736601D01*
X0040565Y0737501D01*
X0040069Y0737501D01*
X0039718Y0737852D01*
X0039718Y0738348D01*
X0040069Y0738699D01*
X0040565Y0738699D01*
X0040916Y0738348D01*
X0040916Y0737852D01*
X0040565Y0737501D01*
X0034545Y0528565D02*
X0035145Y0529165D01*
X0035145Y0527177D01*
X0033740Y0525772D01*
X0031752Y0525772D01*
X0030347Y0527177D01*
X0030347Y0529165D01*
X0031752Y0530570D01*
X0033740Y0530570D01*
X0035145Y0529165D01*
X0034245Y0528792D01*
X0034245Y0527550D01*
X0033367Y0526672D01*
X0032125Y0526672D01*
X0031247Y0527550D01*
X0031247Y0528792D01*
X0032125Y0529670D01*
X0033367Y0529670D01*
X0034245Y0528792D01*
X0033345Y0528419D01*
X0033345Y0527923D01*
X0032994Y0527572D01*
X0032498Y0527572D01*
X0032147Y0527923D01*
X0032147Y0528419D01*
X0032498Y0528770D01*
X0032994Y0528770D01*
X0033345Y0528419D01*
X0034545Y0514423D02*
X0035145Y0515023D01*
X0035145Y0513035D01*
X0033740Y0511630D01*
X0031752Y0511630D01*
X0030347Y0513035D01*
X0030347Y0515023D01*
X0031752Y0516428D01*
X0033740Y0516428D01*
X0035145Y0515023D01*
X0034245Y0514650D01*
X0034245Y0513408D01*
X0033367Y0512530D01*
X0032125Y0512530D01*
X0031247Y0513408D01*
X0031247Y0514650D01*
X0032125Y0515528D01*
X0033367Y0515528D01*
X0034245Y0514650D01*
X0033345Y0514277D01*
X0033345Y0513781D01*
X0032994Y0513430D01*
X0032498Y0513430D01*
X0032147Y0513781D01*
X0032147Y0514277D01*
X0032498Y0514628D01*
X0032994Y0514628D01*
X0033345Y0514277D01*
X0041616Y0521494D02*
X0042216Y0522094D01*
X0042216Y0520106D01*
X0040811Y0518701D01*
X0038823Y0518701D01*
X0037418Y0520106D01*
X0037418Y0522094D01*
X0038823Y0523499D01*
X0040811Y0523499D01*
X0042216Y0522094D01*
X0041316Y0521721D01*
X0041316Y0520479D01*
X0040438Y0519601D01*
X0039196Y0519601D01*
X0038318Y0520479D01*
X0038318Y0521721D01*
X0039196Y0522599D01*
X0040438Y0522599D01*
X0041316Y0521721D01*
X0040416Y0521348D01*
X0040416Y0520852D01*
X0040065Y0520501D01*
X0039569Y0520501D01*
X0039218Y0520852D01*
X0039218Y0521348D01*
X0039569Y0521699D01*
X0040065Y0521699D01*
X0040416Y0521348D01*
X0034675Y0307802D02*
X0035275Y0307202D01*
X0033287Y0307202D01*
X0031882Y0308607D01*
X0031882Y0310595D01*
X0033287Y0312000D01*
X0035275Y0312000D01*
X0036680Y0310595D01*
X0036680Y0308607D01*
X0035275Y0307202D01*
X0034902Y0308102D01*
X0033660Y0308102D01*
X0032782Y0308980D01*
X0032782Y0310222D01*
X0033660Y0311100D01*
X0034902Y0311100D01*
X0035780Y0310222D01*
X0035780Y0308980D01*
X0034902Y0308102D01*
X0034529Y0309002D01*
X0034033Y0309002D01*
X0033682Y0309353D01*
X0033682Y0309849D01*
X0034033Y0310200D01*
X0034529Y0310200D01*
X0034880Y0309849D01*
X0034880Y0309353D01*
X0034529Y0309002D01*
X0034675Y0293660D02*
X0035275Y0293060D01*
X0033287Y0293060D01*
X0031882Y0294465D01*
X0031882Y0296453D01*
X0033287Y0297858D01*
X0035275Y0297858D01*
X0036680Y0296453D01*
X0036680Y0294465D01*
X0035275Y0293060D01*
X0034902Y0293960D01*
X0033660Y0293960D01*
X0032782Y0294838D01*
X0032782Y0296080D01*
X0033660Y0296958D01*
X0034902Y0296958D01*
X0035780Y0296080D01*
X0035780Y0294838D01*
X0034902Y0293960D01*
X0034529Y0294860D01*
X0034033Y0294860D01*
X0033682Y0295211D01*
X0033682Y0295707D01*
X0034033Y0296058D01*
X0034529Y0296058D01*
X0034880Y0295707D01*
X0034880Y0295211D01*
X0034529Y0294860D01*
X0041746Y0300731D02*
X0042346Y0300131D01*
X0040358Y0300131D01*
X0038953Y0301536D01*
X0038953Y0303524D01*
X0040358Y0304929D01*
X0042346Y0304929D01*
X0043751Y0303524D01*
X0043751Y0301536D01*
X0042346Y0300131D01*
X0041973Y0301031D01*
X0040731Y0301031D01*
X0039853Y0301909D01*
X0039853Y0303151D01*
X0040731Y0304029D01*
X0041973Y0304029D01*
X0042851Y0303151D01*
X0042851Y0301909D01*
X0041973Y0301031D01*
X0041600Y0301931D01*
X0041104Y0301931D01*
X0040753Y0302282D01*
X0040753Y0302778D01*
X0041104Y0303129D01*
X0041600Y0303129D01*
X0041951Y0302778D01*
X0041951Y0302282D01*
X0041600Y0301931D01*
X0035981Y0094085D02*
X0036581Y0094685D01*
X0036581Y0092697D01*
X0035176Y0091292D01*
X0033188Y0091292D01*
X0031783Y0092697D01*
X0031783Y0094685D01*
X0033188Y0096090D01*
X0035176Y0096090D01*
X0036581Y0094685D01*
X0035681Y0094312D01*
X0035681Y0093070D01*
X0034803Y0092192D01*
X0033561Y0092192D01*
X0032683Y0093070D01*
X0032683Y0094312D01*
X0033561Y0095190D01*
X0034803Y0095190D01*
X0035681Y0094312D01*
X0034781Y0093939D01*
X0034781Y0093443D01*
X0034430Y0093092D01*
X0033934Y0093092D01*
X0033583Y0093443D01*
X0033583Y0093939D01*
X0033934Y0094290D01*
X0034430Y0094290D01*
X0034781Y0093939D01*
X0035981Y0079942D02*
X0036581Y0080542D01*
X0036581Y0078554D01*
X0035176Y0077149D01*
X0033188Y0077149D01*
X0031783Y0078554D01*
X0031783Y0080542D01*
X0033188Y0081947D01*
X0035176Y0081947D01*
X0036581Y0080542D01*
X0035681Y0080169D01*
X0035681Y0078927D01*
X0034803Y0078049D01*
X0033561Y0078049D01*
X0032683Y0078927D01*
X0032683Y0080169D01*
X0033561Y0081047D01*
X0034803Y0081047D01*
X0035681Y0080169D01*
X0034781Y0079796D01*
X0034781Y0079300D01*
X0034430Y0078949D01*
X0033934Y0078949D01*
X0033583Y0079300D01*
X0033583Y0079796D01*
X0033934Y0080147D01*
X0034430Y0080147D01*
X0034781Y0079796D01*
X0043052Y0087013D02*
X0043652Y0087613D01*
X0043652Y0085625D01*
X0042247Y0084220D01*
X0040259Y0084220D01*
X0038854Y0085625D01*
X0038854Y0087613D01*
X0040259Y0089018D01*
X0042247Y0089018D01*
X0043652Y0087613D01*
X0042752Y0087240D01*
X0042752Y0085998D01*
X0041874Y0085120D01*
X0040632Y0085120D01*
X0039754Y0085998D01*
X0039754Y0087240D01*
X0040632Y0088118D01*
X0041874Y0088118D01*
X0042752Y0087240D01*
X0041852Y0086867D01*
X0041852Y0086371D01*
X0041501Y0086020D01*
X0041005Y0086020D01*
X0040654Y0086371D01*
X0040654Y0086867D01*
X0041005Y0087218D01*
X0041501Y0087218D01*
X0041852Y0086867D01*
X0028910Y0087013D02*
X0029510Y0087613D01*
X0029510Y0085625D01*
X0028105Y0084220D01*
X0026117Y0084220D01*
X0024712Y0085625D01*
X0024712Y0087613D01*
X0026117Y0089018D01*
X0028105Y0089018D01*
X0029510Y0087613D01*
X0028610Y0087240D01*
X0028610Y0085998D01*
X0027732Y0085120D01*
X0026490Y0085120D01*
X0025612Y0085998D01*
X0025612Y0087240D01*
X0026490Y0088118D01*
X0027732Y0088118D01*
X0028610Y0087240D01*
X0027710Y0086867D01*
X0027710Y0086371D01*
X0027359Y0086020D01*
X0026863Y0086020D01*
X0026512Y0086371D01*
X0026512Y0086867D01*
X0026863Y0087218D01*
X0027359Y0087218D01*
X0027710Y0086867D01*
X0027604Y0300731D02*
X0028204Y0300131D01*
X0026216Y0300131D01*
X0024811Y0301536D01*
X0024811Y0303524D01*
X0026216Y0304929D01*
X0028204Y0304929D01*
X0029609Y0303524D01*
X0029609Y0301536D01*
X0028204Y0300131D01*
X0027831Y0301031D01*
X0026589Y0301031D01*
X0025711Y0301909D01*
X0025711Y0303151D01*
X0026589Y0304029D01*
X0027831Y0304029D01*
X0028709Y0303151D01*
X0028709Y0301909D01*
X0027831Y0301031D01*
X0027458Y0301931D01*
X0026962Y0301931D01*
X0026611Y0302282D01*
X0026611Y0302778D01*
X0026962Y0303129D01*
X0027458Y0303129D01*
X0027809Y0302778D01*
X0027809Y0302282D01*
X0027458Y0301931D01*
X0027474Y0521494D02*
X0028074Y0522094D01*
X0028074Y0520106D01*
X0026669Y0518701D01*
X0024681Y0518701D01*
X0023276Y0520106D01*
X0023276Y0522094D01*
X0024681Y0523499D01*
X0026669Y0523499D01*
X0028074Y0522094D01*
X0027174Y0521721D01*
X0027174Y0520479D01*
X0026296Y0519601D01*
X0025054Y0519601D01*
X0024176Y0520479D01*
X0024176Y0521721D01*
X0025054Y0522599D01*
X0026296Y0522599D01*
X0027174Y0521721D01*
X0026274Y0521348D01*
X0026274Y0520852D01*
X0025923Y0520501D01*
X0025427Y0520501D01*
X0025076Y0520852D01*
X0025076Y0521348D01*
X0025427Y0521699D01*
X0025923Y0521699D01*
X0026274Y0521348D01*
D12*
X0029376Y0019482D03*
X0039376Y0019482D03*
X0049376Y0019482D03*
X0019376Y0019482D03*
D13*
X0032746Y0060238D03*
X0032746Y0264962D03*
X0032746Y0360238D03*
X0032746Y0564962D03*
D14*
X0002746Y0787600D02*
X0002746Y0002600D01*
X0062746Y0002600D01*
X0062746Y0787100D01*
X0062557Y0790459D01*
X0061994Y0793776D01*
X0061063Y0797008D01*
X0059775Y0800117D01*
X0058148Y0803061D01*
X0056201Y0805805D01*
X0053959Y0808313D01*
X0051451Y0810555D01*
X0048707Y0812502D01*
X0045763Y0814129D01*
X0042654Y0815416D01*
X0039422Y0816348D01*
X0036105Y0816911D01*
X0032746Y0817100D01*
X0032246Y0817100D01*
X0028943Y0816915D01*
X0025682Y0816360D01*
X0022503Y0815445D01*
X0019446Y0814179D01*
X0016551Y0812578D01*
X0013853Y0810664D01*
X0011386Y0808460D01*
X0009182Y0805993D01*
X0007268Y0803295D01*
X0005667Y0800400D01*
X0004402Y0797343D01*
X0003486Y0794164D01*
X0002932Y0790903D01*
X0002746Y0787600D01*
X0002746Y0787044D02*
X0008626Y0787044D01*
X0008396Y0788202D02*
X0009332Y0783497D01*
X0011167Y0779066D01*
X0013832Y0775078D01*
X0017224Y0771686D01*
X0021212Y0769021D01*
X0025643Y0767186D01*
X0030348Y0766250D01*
X0035144Y0766250D01*
X0039849Y0767186D01*
X0044280Y0769021D01*
X0048268Y0771686D01*
X0051660Y0775078D01*
X0054325Y0779066D01*
X0056160Y0783497D01*
X0057096Y0788202D01*
X0057096Y0792998D01*
X0056160Y0797703D01*
X0054325Y0802134D01*
X0051660Y0806122D01*
X0048268Y0809514D01*
X0044280Y0812179D01*
X0039849Y0814014D01*
X0035144Y0814950D01*
X0030348Y0814950D01*
X0025643Y0814014D01*
X0021212Y0812179D01*
X0017224Y0809514D01*
X0013832Y0806122D01*
X0011167Y0802134D01*
X0009332Y0797703D01*
X0008396Y0792998D01*
X0008396Y0788202D01*
X0008396Y0790243D02*
X0002894Y0790243D01*
X0003363Y0793441D02*
X0008484Y0793441D01*
X0009120Y0796640D02*
X0004199Y0796640D01*
X0005435Y0799838D02*
X0010216Y0799838D01*
X0009399Y0806235D02*
X0013945Y0806235D01*
X0012476Y0809434D02*
X0017144Y0809434D01*
X0016649Y0812632D02*
X0022307Y0812632D01*
X0023844Y0815831D02*
X0041216Y0815831D01*
X0043185Y0812632D02*
X0048471Y0812632D01*
X0048348Y0809434D02*
X0052705Y0809434D01*
X0053722Y0803037D02*
X0058161Y0803037D01*
X0057008Y0793441D02*
X0062051Y0793441D01*
X0062570Y0790243D02*
X0057096Y0790243D01*
X0056866Y0787044D02*
X0062746Y0787044D01*
X0062746Y0783846D02*
X0056230Y0783846D01*
X0054980Y0780647D02*
X0062746Y0780647D01*
X0062746Y0777449D02*
X0053244Y0777449D01*
X0051547Y0806235D02*
X0055816Y0806235D01*
X0055276Y0799838D02*
X0059890Y0799838D01*
X0061169Y0796640D02*
X0056372Y0796640D01*
X0050832Y0774250D02*
X0062746Y0774250D01*
X0062746Y0771052D02*
X0047319Y0771052D01*
X0048642Y0719875D02*
X0062746Y0719875D01*
X0062746Y0716677D02*
X0051225Y0716677D01*
X0051246Y0716626D02*
X0050789Y0717728D01*
X0049945Y0718572D01*
X0038446Y0730072D01*
X0038446Y0732900D01*
X0042471Y0732900D01*
X0045517Y0735946D01*
X0045517Y0740254D01*
X0042471Y0743300D01*
X0038446Y0743300D01*
X0038446Y0747325D01*
X0035400Y0750371D01*
X0031092Y0750371D01*
X0028046Y0747325D01*
X0028046Y0743700D01*
X0023855Y0743700D01*
X0022215Y0742060D01*
X0026175Y0738100D01*
X0026175Y0738100D01*
X0022215Y0734140D01*
X0023855Y0732500D01*
X0028046Y0732500D01*
X0028046Y0728875D01*
X0031092Y0725829D01*
X0034203Y0725829D01*
X0045246Y0714786D01*
X0045246Y0524100D01*
X0044171Y0524100D01*
X0041971Y0526300D01*
X0037946Y0526300D01*
X0037946Y0530325D01*
X0034900Y0533371D01*
X0030592Y0533371D01*
X0027546Y0530325D01*
X0027546Y0526300D01*
X0023521Y0526300D01*
X0020475Y0523254D01*
X0020475Y0518946D01*
X0023521Y0515900D01*
X0027146Y0515900D01*
X0027146Y0511709D01*
X0028786Y0510069D01*
X0032746Y0514029D01*
X0032746Y0514029D01*
X0036706Y0510069D01*
X0038346Y0511709D01*
X0038346Y0515900D01*
X0041971Y0515900D01*
X0044171Y0518100D01*
X0045246Y0518100D01*
X0045246Y0305989D01*
X0043506Y0307730D01*
X0039481Y0307730D01*
X0039481Y0311755D01*
X0036435Y0314801D01*
X0032127Y0314801D01*
X0029081Y0311755D01*
X0029081Y0308130D01*
X0024890Y0308130D01*
X0023250Y0306490D01*
X0027210Y0302530D01*
X0027209Y0302530D01*
X0023250Y0306490D01*
X0021610Y0304850D01*
X0021610Y0300210D01*
X0023250Y0298570D01*
X0024890Y0296930D01*
X0029081Y0296930D01*
X0029081Y0293305D01*
X0032127Y0290259D01*
X0036435Y0290259D01*
X0038635Y0292459D01*
X0044145Y0292459D01*
X0045246Y0291357D01*
X0045246Y0094855D01*
X0042211Y0091819D01*
X0039382Y0091819D01*
X0039382Y0095844D01*
X0036336Y0098891D01*
X0032029Y0098891D01*
X0028982Y0095844D01*
X0028982Y0091819D01*
X0024957Y0091819D01*
X0021911Y0088773D01*
X0021911Y0084466D01*
X0024957Y0081419D01*
X0028582Y0081419D01*
X0028582Y0077229D01*
X0030223Y0075589D01*
X0031863Y0073948D01*
X0036502Y0073948D01*
X0038142Y0075589D01*
X0038253Y0075700D01*
X0038253Y0032602D01*
X0030892Y0025240D01*
X0030550Y0025382D01*
X0028202Y0025382D01*
X0026034Y0024484D01*
X0024583Y0023033D01*
X0024181Y0023586D01*
X0023480Y0024287D01*
X0022678Y0024870D01*
X0021794Y0025320D01*
X0020851Y0025627D01*
X0019872Y0025782D01*
X0019376Y0025782D01*
X0019376Y0019482D01*
X0019376Y0019482D01*
X0019376Y0025782D01*
X0018880Y0025782D01*
X0017901Y0025627D01*
X0016958Y0025320D01*
X0016074Y0024870D01*
X0015272Y0024287D01*
X0014571Y0023586D01*
X0013988Y0022784D01*
X0013538Y0021900D01*
X0013231Y0020957D01*
X0013076Y0019978D01*
X0013076Y0019482D01*
X0019376Y0019482D01*
X0019376Y0019482D01*
X0013076Y0019482D01*
X0013076Y0018986D01*
X0013231Y0018007D01*
X0013538Y0017064D01*
X0013988Y0016180D01*
X0014571Y0015378D01*
X0015272Y0014677D01*
X0016074Y0014094D01*
X0016958Y0013643D01*
X0017901Y0013337D01*
X0018880Y0013182D01*
X0019376Y0013182D01*
X0019872Y0013182D01*
X0020851Y0013337D01*
X0021794Y0013643D01*
X0022678Y0014094D01*
X0023480Y0014677D01*
X0024181Y0015378D01*
X0024583Y0015931D01*
X0026034Y0014480D01*
X0028202Y0013582D01*
X0030550Y0013582D01*
X0032718Y0014480D01*
X0034376Y0016138D01*
X0036034Y0014480D01*
X0038202Y0013582D01*
X0040550Y0013582D01*
X0042718Y0014480D01*
X0044376Y0016138D01*
X0046034Y0014480D01*
X0048202Y0013582D01*
X0050550Y0013582D01*
X0052718Y0014480D01*
X0054378Y0016140D01*
X0055276Y0018308D01*
X0055276Y0020655D01*
X0054378Y0022824D01*
X0052718Y0024484D01*
X0050550Y0025382D01*
X0048202Y0025382D01*
X0046034Y0024484D01*
X0044376Y0022826D01*
X0042718Y0024484D01*
X0040550Y0025382D01*
X0039519Y0025382D01*
X0043797Y0029660D01*
X0044253Y0030763D01*
X0044253Y0082266D01*
X0046453Y0084466D01*
X0046453Y0087577D01*
X0050789Y0091913D01*
X0051246Y0093015D01*
X0051246Y0716626D01*
X0051246Y0713478D02*
X0062746Y0713478D01*
X0062746Y0710280D02*
X0051246Y0710280D01*
X0051246Y0707081D02*
X0062746Y0707081D01*
X0062746Y0703883D02*
X0051246Y0703883D01*
X0051246Y0700684D02*
X0062746Y0700684D01*
X0062746Y0697486D02*
X0051246Y0697486D01*
X0051246Y0694287D02*
X0062746Y0694287D01*
X0062746Y0691089D02*
X0051246Y0691089D01*
X0051246Y0687890D02*
X0062746Y0687890D01*
X0062746Y0684692D02*
X0051246Y0684692D01*
X0051246Y0681493D02*
X0062746Y0681493D01*
X0062746Y0678295D02*
X0051246Y0678295D01*
X0051246Y0675096D02*
X0062746Y0675096D01*
X0062746Y0671898D02*
X0051246Y0671898D01*
X0051246Y0668699D02*
X0062746Y0668699D01*
X0062746Y0665501D02*
X0051246Y0665501D01*
X0051246Y0662302D02*
X0062746Y0662302D01*
X0062746Y0659104D02*
X0051246Y0659104D01*
X0051246Y0655905D02*
X0062746Y0655905D01*
X0062746Y0652707D02*
X0051246Y0652707D01*
X0051246Y0649508D02*
X0062746Y0649508D01*
X0062746Y0646310D02*
X0051246Y0646310D01*
X0051246Y0643111D02*
X0062746Y0643111D01*
X0062746Y0639913D02*
X0051246Y0639913D01*
X0051246Y0636714D02*
X0062746Y0636714D01*
X0062746Y0633516D02*
X0051246Y0633516D01*
X0051246Y0630317D02*
X0062746Y0630317D01*
X0062746Y0627119D02*
X0051246Y0627119D01*
X0051246Y0623920D02*
X0062746Y0623920D01*
X0062746Y0620722D02*
X0051246Y0620722D01*
X0051246Y0617523D02*
X0062746Y0617523D01*
X0062746Y0614325D02*
X0051246Y0614325D01*
X0051246Y0611126D02*
X0062746Y0611126D01*
X0062746Y0607928D02*
X0051246Y0607928D01*
X0051246Y0604729D02*
X0062746Y0604729D01*
X0062746Y0601531D02*
X0051246Y0601531D01*
X0051246Y0598332D02*
X0062746Y0598332D01*
X0062746Y0595134D02*
X0051246Y0595134D01*
X0051246Y0591935D02*
X0062746Y0591935D01*
X0062746Y0588737D02*
X0051246Y0588737D01*
X0051246Y0585538D02*
X0062746Y0585538D01*
X0062746Y0582339D02*
X0051246Y0582339D01*
X0051246Y0579141D02*
X0062746Y0579141D01*
X0062746Y0575942D02*
X0051246Y0575942D01*
X0051246Y0572744D02*
X0062746Y0572744D01*
X0062746Y0569545D02*
X0051246Y0569545D01*
X0051246Y0566347D02*
X0062746Y0566347D01*
X0062746Y0563148D02*
X0051246Y0563148D01*
X0051246Y0559950D02*
X0062746Y0559950D01*
X0062746Y0556751D02*
X0051246Y0556751D01*
X0051246Y0553553D02*
X0062746Y0553553D01*
X0062746Y0550354D02*
X0051246Y0550354D01*
X0051246Y0547156D02*
X0062746Y0547156D01*
X0062746Y0543957D02*
X0051246Y0543957D01*
X0051246Y0540759D02*
X0062746Y0540759D01*
X0062746Y0537560D02*
X0051246Y0537560D01*
X0051246Y0534362D02*
X0062746Y0534362D01*
X0062746Y0531163D02*
X0051246Y0531163D01*
X0051246Y0527965D02*
X0062746Y0527965D01*
X0062746Y0524766D02*
X0051246Y0524766D01*
X0051246Y0521568D02*
X0062746Y0521568D01*
X0062746Y0518369D02*
X0051246Y0518369D01*
X0051246Y0515171D02*
X0062746Y0515171D01*
X0062746Y0511972D02*
X0051246Y0511972D01*
X0051246Y0508774D02*
X0062746Y0508774D01*
X0062746Y0505575D02*
X0051246Y0505575D01*
X0051246Y0502377D02*
X0062746Y0502377D01*
X0062746Y0499178D02*
X0051246Y0499178D01*
X0051246Y0495980D02*
X0062746Y0495980D01*
X0062746Y0492781D02*
X0051246Y0492781D01*
X0051246Y0489583D02*
X0062746Y0489583D01*
X0062746Y0486384D02*
X0051246Y0486384D01*
X0051246Y0483186D02*
X0062746Y0483186D01*
X0062746Y0479987D02*
X0051246Y0479987D01*
X0051246Y0476789D02*
X0062746Y0476789D01*
X0062746Y0473590D02*
X0051246Y0473590D01*
X0051246Y0470392D02*
X0062746Y0470392D01*
X0062746Y0467193D02*
X0051246Y0467193D01*
X0051246Y0463995D02*
X0062746Y0463995D01*
X0062746Y0460796D02*
X0051246Y0460796D01*
X0051246Y0457598D02*
X0062746Y0457598D01*
X0062746Y0454399D02*
X0051246Y0454399D01*
X0051246Y0451201D02*
X0062746Y0451201D01*
X0062746Y0448002D02*
X0051246Y0448002D01*
X0051246Y0444803D02*
X0062746Y0444803D01*
X0062746Y0441605D02*
X0051246Y0441605D01*
X0051246Y0438406D02*
X0062746Y0438406D01*
X0062746Y0435208D02*
X0051246Y0435208D01*
X0051246Y0432009D02*
X0062746Y0432009D01*
X0062746Y0428811D02*
X0051246Y0428811D01*
X0051246Y0425612D02*
X0062746Y0425612D01*
X0062746Y0422414D02*
X0051246Y0422414D01*
X0051246Y0419215D02*
X0062746Y0419215D01*
X0062746Y0416017D02*
X0051246Y0416017D01*
X0051246Y0412818D02*
X0062746Y0412818D01*
X0062746Y0409620D02*
X0051246Y0409620D01*
X0051246Y0406421D02*
X0062746Y0406421D01*
X0062746Y0403223D02*
X0051246Y0403223D01*
X0051246Y0400024D02*
X0062746Y0400024D01*
X0062746Y0396826D02*
X0051246Y0396826D01*
X0051246Y0393627D02*
X0062746Y0393627D01*
X0062746Y0390429D02*
X0051246Y0390429D01*
X0051246Y0387230D02*
X0062746Y0387230D01*
X0062746Y0384032D02*
X0051246Y0384032D01*
X0051246Y0380833D02*
X0062746Y0380833D01*
X0062746Y0377635D02*
X0051246Y0377635D01*
X0051246Y0374436D02*
X0062746Y0374436D01*
X0062746Y0371238D02*
X0051246Y0371238D01*
X0051246Y0368039D02*
X0062746Y0368039D01*
X0062746Y0364841D02*
X0051246Y0364841D01*
X0051246Y0361642D02*
X0062746Y0361642D01*
X0062746Y0358444D02*
X0051246Y0358444D01*
X0051246Y0355245D02*
X0062746Y0355245D01*
X0062746Y0352047D02*
X0051246Y0352047D01*
X0051246Y0348848D02*
X0062746Y0348848D01*
X0062746Y0345650D02*
X0051246Y0345650D01*
X0051246Y0342451D02*
X0062746Y0342451D01*
X0062746Y0339253D02*
X0051246Y0339253D01*
X0051246Y0336054D02*
X0062746Y0336054D01*
X0062746Y0332856D02*
X0051246Y0332856D01*
X0051246Y0329657D02*
X0062746Y0329657D01*
X0062746Y0326459D02*
X0051246Y0326459D01*
X0051246Y0323260D02*
X0062746Y0323260D01*
X0062746Y0320062D02*
X0051246Y0320062D01*
X0051246Y0316863D02*
X0062746Y0316863D01*
X0062746Y0313665D02*
X0051246Y0313665D01*
X0051246Y0310466D02*
X0062746Y0310466D01*
X0062746Y0307268D02*
X0051246Y0307268D01*
X0051246Y0304069D02*
X0062746Y0304069D01*
X0062746Y0300870D02*
X0051246Y0300870D01*
X0051246Y0297672D02*
X0062746Y0297672D01*
X0062746Y0294473D02*
X0051246Y0294473D01*
X0051246Y0291275D02*
X0062746Y0291275D01*
X0062746Y0288076D02*
X0051246Y0288076D01*
X0051246Y0284878D02*
X0062746Y0284878D01*
X0062746Y0281679D02*
X0051246Y0281679D01*
X0051246Y0278481D02*
X0062746Y0278481D01*
X0062746Y0275282D02*
X0051246Y0275282D01*
X0051246Y0272084D02*
X0062746Y0272084D01*
X0062746Y0268885D02*
X0051246Y0268885D01*
X0051246Y0265687D02*
X0062746Y0265687D01*
X0062746Y0262488D02*
X0051246Y0262488D01*
X0051246Y0259290D02*
X0062746Y0259290D01*
X0062746Y0256091D02*
X0051246Y0256091D01*
X0051246Y0252893D02*
X0062746Y0252893D01*
X0062746Y0249694D02*
X0051246Y0249694D01*
X0051246Y0246496D02*
X0062746Y0246496D01*
X0062746Y0243297D02*
X0051246Y0243297D01*
X0051246Y0240099D02*
X0062746Y0240099D01*
X0062746Y0236900D02*
X0051246Y0236900D01*
X0051246Y0233702D02*
X0062746Y0233702D01*
X0062746Y0230503D02*
X0051246Y0230503D01*
X0051246Y0227305D02*
X0062746Y0227305D01*
X0062746Y0224106D02*
X0051246Y0224106D01*
X0051246Y0220908D02*
X0062746Y0220908D01*
X0062746Y0217709D02*
X0051246Y0217709D01*
X0051246Y0214511D02*
X0062746Y0214511D01*
X0062746Y0211312D02*
X0051246Y0211312D01*
X0051246Y0208114D02*
X0062746Y0208114D01*
X0062746Y0204915D02*
X0051246Y0204915D01*
X0051246Y0201717D02*
X0062746Y0201717D01*
X0062746Y0198518D02*
X0051246Y0198518D01*
X0051246Y0195320D02*
X0062746Y0195320D01*
X0062746Y0192121D02*
X0051246Y0192121D01*
X0051246Y0188923D02*
X0062746Y0188923D01*
X0062746Y0185724D02*
X0051246Y0185724D01*
X0051246Y0182526D02*
X0062746Y0182526D01*
X0062746Y0179327D02*
X0051246Y0179327D01*
X0051246Y0176129D02*
X0062746Y0176129D01*
X0062746Y0172930D02*
X0051246Y0172930D01*
X0051246Y0169732D02*
X0062746Y0169732D01*
X0062746Y0166533D02*
X0051246Y0166533D01*
X0051246Y0163334D02*
X0062746Y0163334D01*
X0062746Y0160136D02*
X0051246Y0160136D01*
X0051246Y0156937D02*
X0062746Y0156937D01*
X0062746Y0153739D02*
X0051246Y0153739D01*
X0051246Y0150540D02*
X0062746Y0150540D01*
X0062746Y0147342D02*
X0051246Y0147342D01*
X0051246Y0144143D02*
X0062746Y0144143D01*
X0062746Y0140945D02*
X0051246Y0140945D01*
X0051246Y0137746D02*
X0062746Y0137746D01*
X0062746Y0134548D02*
X0051246Y0134548D01*
X0051246Y0131349D02*
X0062746Y0131349D01*
X0062746Y0128151D02*
X0051246Y0128151D01*
X0051246Y0124952D02*
X0062746Y0124952D01*
X0062746Y0121754D02*
X0051246Y0121754D01*
X0051246Y0118555D02*
X0062746Y0118555D01*
X0062746Y0115357D02*
X0051246Y0115357D01*
X0051246Y0112158D02*
X0062746Y0112158D01*
X0062746Y0108960D02*
X0051246Y0108960D01*
X0051246Y0105761D02*
X0062746Y0105761D01*
X0062746Y0102563D02*
X0051246Y0102563D01*
X0051246Y0099364D02*
X0062746Y0099364D01*
X0062746Y0096166D02*
X0051246Y0096166D01*
X0051226Y0092967D02*
X0062746Y0092967D01*
X0062746Y0089769D02*
X0048645Y0089769D01*
X0046453Y0086570D02*
X0062746Y0086570D01*
X0062746Y0083372D02*
X0045360Y0083372D01*
X0044253Y0080173D02*
X0062746Y0080173D01*
X0062746Y0076975D02*
X0044253Y0076975D01*
X0044253Y0073776D02*
X0062746Y0073776D01*
X0062746Y0070578D02*
X0044253Y0070578D01*
X0044253Y0067379D02*
X0062746Y0067379D01*
X0062746Y0064181D02*
X0044253Y0064181D01*
X0044253Y0060982D02*
X0062746Y0060982D01*
X0062746Y0057784D02*
X0044253Y0057784D01*
X0044253Y0054585D02*
X0062746Y0054585D01*
X0062746Y0051387D02*
X0044253Y0051387D01*
X0044253Y0048188D02*
X0062746Y0048188D01*
X0062746Y0044990D02*
X0044253Y0044990D01*
X0044253Y0041791D02*
X0062746Y0041791D01*
X0062746Y0038593D02*
X0044253Y0038593D01*
X0044253Y0035394D02*
X0062746Y0035394D01*
X0062746Y0032196D02*
X0044253Y0032196D01*
X0043134Y0028997D02*
X0062746Y0028997D01*
X0062746Y0025799D02*
X0039935Y0025799D01*
X0037847Y0032196D02*
X0002746Y0032196D01*
X0002746Y0035394D02*
X0038253Y0035394D01*
X0038253Y0038593D02*
X0002746Y0038593D01*
X0002746Y0041791D02*
X0038253Y0041791D01*
X0038253Y0044990D02*
X0002746Y0044990D01*
X0002746Y0048188D02*
X0038253Y0048188D01*
X0038253Y0051387D02*
X0002746Y0051387D01*
X0002746Y0054585D02*
X0038253Y0054585D01*
X0038253Y0057784D02*
X0037889Y0057784D01*
X0038118Y0058013D02*
X0038118Y0060238D01*
X0038118Y0062463D01*
X0034971Y0065609D01*
X0032746Y0065609D01*
X0030521Y0065609D01*
X0027374Y0062463D01*
X0027374Y0060238D01*
X0032746Y0060238D01*
X0032746Y0065609D01*
X0032746Y0060238D01*
X0032746Y0060238D01*
X0032746Y0060238D01*
X0038118Y0060238D01*
X0032746Y0060238D01*
X0032746Y0060238D01*
X0027374Y0060238D01*
X0027374Y0058013D01*
X0030521Y0054866D01*
X0032746Y0054866D01*
X0032746Y0060238D01*
X0032746Y0060238D01*
X0032746Y0054866D01*
X0034971Y0054866D01*
X0038118Y0058013D01*
X0038118Y0060982D02*
X0038253Y0060982D01*
X0038253Y0064181D02*
X0036400Y0064181D01*
X0036756Y0076975D02*
X0036756Y0076975D01*
X0038142Y0075589D02*
X0034182Y0079548D01*
X0034182Y0079548D01*
X0030223Y0075589D01*
X0034182Y0079548D01*
X0034183Y0079548D01*
X0038142Y0075589D01*
X0038253Y0073776D02*
X0002746Y0073776D01*
X0002746Y0070578D02*
X0038253Y0070578D01*
X0038253Y0067379D02*
X0002746Y0067379D01*
X0002746Y0064181D02*
X0029092Y0064181D01*
X0028837Y0076975D02*
X0002746Y0076975D01*
X0002746Y0080173D02*
X0028582Y0080173D01*
X0028982Y0092967D02*
X0002746Y0092967D01*
X0002746Y0089769D02*
X0022907Y0089769D01*
X0023005Y0083372D02*
X0002746Y0083372D01*
X0002746Y0086570D02*
X0021911Y0086570D01*
X0019376Y0022600D02*
X0019376Y0022600D01*
X0019376Y0019482D02*
X0019376Y0013182D01*
X0019376Y0019482D01*
X0019376Y0019482D01*
X0019376Y0019401D02*
X0019376Y0019401D01*
X0019376Y0016203D02*
X0019376Y0016203D01*
X0013976Y0016203D02*
X0002746Y0016203D01*
X0002746Y0019401D02*
X0013076Y0019401D01*
X0013894Y0022600D02*
X0002746Y0022600D01*
X0002746Y0025799D02*
X0031450Y0025799D01*
X0032746Y0057784D02*
X0032746Y0057784D01*
X0032746Y0060982D02*
X0032746Y0060982D01*
X0032746Y0064181D02*
X0032746Y0064181D01*
X0031609Y0076975D02*
X0031609Y0076975D01*
X0029304Y0096166D02*
X0002746Y0096166D01*
X0002746Y0099364D02*
X0045246Y0099364D01*
X0045246Y0096166D02*
X0039061Y0096166D01*
X0039382Y0092967D02*
X0043359Y0092967D01*
X0045246Y0102563D02*
X0002746Y0102563D01*
X0002746Y0105761D02*
X0045246Y0105761D01*
X0045246Y0108960D02*
X0002746Y0108960D01*
X0002746Y0112158D02*
X0045246Y0112158D01*
X0045246Y0115357D02*
X0002746Y0115357D01*
X0002746Y0118555D02*
X0045246Y0118555D01*
X0045246Y0121754D02*
X0002746Y0121754D01*
X0002746Y0124952D02*
X0045246Y0124952D01*
X0045246Y0128151D02*
X0002746Y0128151D01*
X0002746Y0131349D02*
X0045246Y0131349D01*
X0045246Y0134548D02*
X0002746Y0134548D01*
X0002746Y0137746D02*
X0045246Y0137746D01*
X0045246Y0140945D02*
X0002746Y0140945D01*
X0002746Y0144143D02*
X0045246Y0144143D01*
X0045246Y0147342D02*
X0002746Y0147342D01*
X0002746Y0150540D02*
X0045246Y0150540D01*
X0045246Y0153739D02*
X0002746Y0153739D01*
X0002746Y0156937D02*
X0045246Y0156937D01*
X0045246Y0160136D02*
X0002746Y0160136D01*
X0002746Y0163334D02*
X0045246Y0163334D01*
X0045246Y0166533D02*
X0002746Y0166533D01*
X0002746Y0169732D02*
X0045246Y0169732D01*
X0045246Y0172930D02*
X0002746Y0172930D01*
X0002746Y0176129D02*
X0045246Y0176129D01*
X0045246Y0179327D02*
X0002746Y0179327D01*
X0002746Y0182526D02*
X0045246Y0182526D01*
X0045246Y0185724D02*
X0002746Y0185724D01*
X0002746Y0188923D02*
X0045246Y0188923D01*
X0045246Y0192121D02*
X0002746Y0192121D01*
X0002746Y0195320D02*
X0045246Y0195320D01*
X0045246Y0198518D02*
X0002746Y0198518D01*
X0002746Y0201717D02*
X0045246Y0201717D01*
X0045246Y0204915D02*
X0002746Y0204915D01*
X0002746Y0208114D02*
X0045246Y0208114D01*
X0045246Y0211312D02*
X0002746Y0211312D01*
X0002746Y0214511D02*
X0045246Y0214511D01*
X0045246Y0217709D02*
X0002746Y0217709D01*
X0002746Y0220908D02*
X0045246Y0220908D01*
X0045246Y0224106D02*
X0002746Y0224106D01*
X0002746Y0227305D02*
X0045246Y0227305D01*
X0045246Y0230503D02*
X0002746Y0230503D01*
X0002746Y0233702D02*
X0045246Y0233702D01*
X0045246Y0236900D02*
X0002746Y0236900D01*
X0002746Y0240099D02*
X0045246Y0240099D01*
X0045246Y0243297D02*
X0002746Y0243297D01*
X0002746Y0246496D02*
X0045246Y0246496D01*
X0045246Y0249694D02*
X0002746Y0249694D01*
X0002746Y0252893D02*
X0045246Y0252893D01*
X0045246Y0256091D02*
X0002746Y0256091D01*
X0002746Y0259290D02*
X0045246Y0259290D01*
X0045246Y0262488D02*
X0037303Y0262488D01*
X0037718Y0262903D02*
X0037718Y0267022D01*
X0034805Y0269934D01*
X0033148Y0269934D01*
X0016546Y0286536D01*
X0016546Y0341026D01*
X0030786Y0355266D01*
X0034805Y0355266D01*
X0037718Y0358178D01*
X0037718Y0362297D01*
X0034805Y0365209D01*
X0030687Y0365209D01*
X0029435Y0363958D01*
X0028231Y0363459D01*
X0027162Y0362390D01*
X0010594Y0345821D01*
X0009525Y0344753D01*
X0008946Y0343356D01*
X0008946Y0284206D01*
X0009525Y0282810D01*
X0010594Y0281741D01*
X0027774Y0264560D01*
X0027774Y0262903D01*
X0030687Y0259991D01*
X0034805Y0259991D01*
X0037718Y0262903D01*
X0037718Y0265687D02*
X0045246Y0265687D01*
X0045246Y0268885D02*
X0035854Y0268885D01*
X0037451Y0291275D02*
X0045246Y0291275D01*
X0045246Y0288076D02*
X0016546Y0288076D01*
X0016546Y0291275D02*
X0031111Y0291275D01*
X0030998Y0272084D02*
X0045246Y0272084D01*
X0045246Y0275282D02*
X0027800Y0275282D01*
X0028189Y0262488D02*
X0002746Y0262488D01*
X0002746Y0265687D02*
X0026647Y0265687D01*
X0023250Y0298570D02*
X0027210Y0302530D01*
X0027209Y0302530D01*
X0023250Y0298570D01*
X0024148Y0297672D02*
X0016546Y0297672D01*
X0016546Y0300870D02*
X0021610Y0300870D01*
X0021610Y0304069D02*
X0016546Y0304069D01*
X0016546Y0307268D02*
X0024028Y0307268D01*
X0025550Y0300870D02*
X0025550Y0300870D01*
X0025670Y0304069D02*
X0025671Y0304069D01*
X0024601Y0278481D02*
X0045246Y0278481D01*
X0045246Y0281679D02*
X0021403Y0281679D01*
X0020250Y0272084D02*
X0002746Y0272084D01*
X0002746Y0275282D02*
X0017052Y0275282D01*
X0016546Y0294473D02*
X0029081Y0294473D01*
X0029081Y0310466D02*
X0016546Y0310466D01*
X0016546Y0313665D02*
X0030990Y0313665D01*
X0030765Y0355245D02*
X0045246Y0355245D01*
X0045246Y0352047D02*
X0027567Y0352047D01*
X0026414Y0361642D02*
X0002746Y0361642D01*
X0002746Y0358444D02*
X0023216Y0358444D01*
X0024368Y0348848D02*
X0045246Y0348848D01*
X0045246Y0345650D02*
X0021170Y0345650D01*
X0020017Y0355245D02*
X0002746Y0355245D01*
X0002746Y0352047D02*
X0016819Y0352047D01*
X0016546Y0339253D02*
X0045246Y0339253D01*
X0045246Y0342451D02*
X0017971Y0342451D01*
X0016546Y0336054D02*
X0045246Y0336054D01*
X0045246Y0332856D02*
X0016546Y0332856D01*
X0016546Y0329657D02*
X0045246Y0329657D01*
X0045246Y0326459D02*
X0016546Y0326459D01*
X0016546Y0323260D02*
X0045246Y0323260D01*
X0045246Y0320062D02*
X0016546Y0320062D01*
X0016546Y0316863D02*
X0045246Y0316863D01*
X0045246Y0313665D02*
X0037571Y0313665D01*
X0037718Y0358444D02*
X0045246Y0358444D01*
X0045246Y0361642D02*
X0037718Y0361642D01*
X0035174Y0364841D02*
X0045246Y0364841D01*
X0045246Y0368039D02*
X0002746Y0368039D01*
X0002746Y0364841D02*
X0030318Y0364841D01*
X0030384Y0360238D02*
X0032746Y0360238D01*
X0030384Y0360238D02*
X0012746Y0342600D01*
X0012746Y0284962D01*
X0032746Y0264962D01*
X0039481Y0310466D02*
X0045246Y0310466D01*
X0045246Y0307268D02*
X0043968Y0307268D01*
X0045246Y0284878D02*
X0018204Y0284878D01*
X0013853Y0278481D02*
X0002746Y0278481D01*
X0002746Y0281679D02*
X0010655Y0281679D01*
X0008946Y0284878D02*
X0002746Y0284878D01*
X0002746Y0288076D02*
X0008946Y0288076D01*
X0008946Y0291275D02*
X0002746Y0291275D01*
X0002746Y0294473D02*
X0008946Y0294473D01*
X0008946Y0297672D02*
X0002746Y0297672D01*
X0002746Y0300870D02*
X0008946Y0300870D01*
X0008946Y0304069D02*
X0002746Y0304069D01*
X0002746Y0307268D02*
X0008946Y0307268D01*
X0008946Y0310466D02*
X0002746Y0310466D01*
X0002746Y0313665D02*
X0008946Y0313665D01*
X0008946Y0316863D02*
X0002746Y0316863D01*
X0002746Y0320062D02*
X0008946Y0320062D01*
X0008946Y0323260D02*
X0002746Y0323260D01*
X0002746Y0326459D02*
X0008946Y0326459D01*
X0008946Y0329657D02*
X0002746Y0329657D01*
X0002746Y0332856D02*
X0008946Y0332856D01*
X0008946Y0336054D02*
X0002746Y0336054D01*
X0002746Y0339253D02*
X0008946Y0339253D01*
X0008946Y0342451D02*
X0002746Y0342451D01*
X0002746Y0345650D02*
X0010422Y0345650D01*
X0013620Y0348848D02*
X0002746Y0348848D01*
X0002746Y0371238D02*
X0045246Y0371238D01*
X0045246Y0374436D02*
X0002746Y0374436D01*
X0002746Y0377635D02*
X0045246Y0377635D01*
X0045246Y0380833D02*
X0002746Y0380833D01*
X0002746Y0384032D02*
X0045246Y0384032D01*
X0045246Y0387230D02*
X0002746Y0387230D01*
X0002746Y0390429D02*
X0045246Y0390429D01*
X0045246Y0393627D02*
X0002746Y0393627D01*
X0002746Y0396826D02*
X0045246Y0396826D01*
X0045246Y0400024D02*
X0002746Y0400024D01*
X0002746Y0403223D02*
X0045246Y0403223D01*
X0045246Y0406421D02*
X0002746Y0406421D01*
X0002746Y0409620D02*
X0045246Y0409620D01*
X0045246Y0412818D02*
X0002746Y0412818D01*
X0002746Y0416017D02*
X0045246Y0416017D01*
X0045246Y0419215D02*
X0002746Y0419215D01*
X0002746Y0422414D02*
X0045246Y0422414D01*
X0045246Y0425612D02*
X0002746Y0425612D01*
X0002746Y0428811D02*
X0045246Y0428811D01*
X0045246Y0432009D02*
X0002746Y0432009D01*
X0002746Y0435208D02*
X0045246Y0435208D01*
X0045246Y0438406D02*
X0002746Y0438406D01*
X0002746Y0441605D02*
X0045246Y0441605D01*
X0045246Y0444803D02*
X0002746Y0444803D01*
X0002746Y0448002D02*
X0045246Y0448002D01*
X0045246Y0451201D02*
X0002746Y0451201D01*
X0002746Y0454399D02*
X0045246Y0454399D01*
X0045246Y0457598D02*
X0002746Y0457598D01*
X0002746Y0460796D02*
X0045246Y0460796D01*
X0045246Y0463995D02*
X0002746Y0463995D01*
X0002746Y0467193D02*
X0045246Y0467193D01*
X0045246Y0470392D02*
X0002746Y0470392D01*
X0002746Y0473590D02*
X0045246Y0473590D01*
X0045246Y0476789D02*
X0002746Y0476789D01*
X0002746Y0479987D02*
X0045246Y0479987D01*
X0045246Y0483186D02*
X0002746Y0483186D01*
X0002746Y0486384D02*
X0045246Y0486384D01*
X0045246Y0489583D02*
X0002746Y0489583D01*
X0002746Y0492781D02*
X0045246Y0492781D01*
X0045246Y0495980D02*
X0002746Y0495980D01*
X0002746Y0499178D02*
X0045246Y0499178D01*
X0045246Y0502377D02*
X0002746Y0502377D01*
X0002746Y0505575D02*
X0045246Y0505575D01*
X0045246Y0508774D02*
X0035410Y0508774D01*
X0035066Y0508429D02*
X0036706Y0510069D01*
X0032746Y0514029D01*
X0032746Y0514029D01*
X0028786Y0510069D01*
X0030426Y0508429D01*
X0035066Y0508429D01*
X0034803Y0511972D02*
X0034803Y0511972D01*
X0034805Y0559991D02*
X0037718Y0562903D01*
X0037718Y0567022D01*
X0034805Y0569934D01*
X0030687Y0569934D01*
X0027774Y0567022D01*
X0027774Y0562903D01*
X0030687Y0559991D01*
X0034805Y0559991D01*
X0035194Y0569545D02*
X0045246Y0569545D01*
X0045246Y0566347D02*
X0037718Y0566347D01*
X0037718Y0563148D02*
X0045246Y0563148D01*
X0045246Y0559950D02*
X0002746Y0559950D01*
X0002746Y0563148D02*
X0027774Y0563148D01*
X0027774Y0566347D02*
X0002746Y0566347D01*
X0002746Y0569545D02*
X0030298Y0569545D01*
X0028384Y0531163D02*
X0002746Y0531163D01*
X0002746Y0527965D02*
X0027546Y0527965D01*
X0027146Y0515171D02*
X0002746Y0515171D01*
X0002746Y0518369D02*
X0021052Y0518369D01*
X0020475Y0521568D02*
X0002746Y0521568D01*
X0002746Y0524766D02*
X0021987Y0524766D01*
X0027146Y0511972D02*
X0002746Y0511972D01*
X0002746Y0508774D02*
X0030082Y0508774D01*
X0030689Y0511972D02*
X0030689Y0511972D01*
X0037108Y0531163D02*
X0045246Y0531163D01*
X0045246Y0527965D02*
X0037946Y0527965D01*
X0038346Y0515171D02*
X0045246Y0515171D01*
X0045246Y0511972D02*
X0038346Y0511972D01*
X0043505Y0524766D02*
X0045246Y0524766D01*
X0045246Y0534362D02*
X0002746Y0534362D01*
X0002746Y0537560D02*
X0045246Y0537560D01*
X0045246Y0540759D02*
X0002746Y0540759D01*
X0002746Y0543957D02*
X0045246Y0543957D01*
X0045246Y0547156D02*
X0002746Y0547156D01*
X0002746Y0550354D02*
X0045246Y0550354D01*
X0045246Y0553553D02*
X0002746Y0553553D01*
X0002746Y0556751D02*
X0045246Y0556751D01*
X0045246Y0572744D02*
X0002746Y0572744D01*
X0002746Y0575942D02*
X0045246Y0575942D01*
X0045246Y0579141D02*
X0002746Y0579141D01*
X0002746Y0582339D02*
X0045246Y0582339D01*
X0045246Y0585538D02*
X0002746Y0585538D01*
X0002746Y0588737D02*
X0045246Y0588737D01*
X0045246Y0591935D02*
X0002746Y0591935D01*
X0002746Y0595134D02*
X0045246Y0595134D01*
X0045246Y0598332D02*
X0002746Y0598332D01*
X0002746Y0601531D02*
X0045246Y0601531D01*
X0045246Y0604729D02*
X0002746Y0604729D01*
X0002746Y0607928D02*
X0045246Y0607928D01*
X0045246Y0611126D02*
X0002746Y0611126D01*
X0002746Y0614325D02*
X0045246Y0614325D01*
X0045246Y0617523D02*
X0002746Y0617523D01*
X0002746Y0620722D02*
X0045246Y0620722D01*
X0045246Y0623920D02*
X0002746Y0623920D01*
X0002746Y0627119D02*
X0045246Y0627119D01*
X0045246Y0630317D02*
X0002746Y0630317D01*
X0002746Y0633516D02*
X0045246Y0633516D01*
X0045246Y0636714D02*
X0002746Y0636714D01*
X0002746Y0639913D02*
X0045246Y0639913D01*
X0045246Y0643111D02*
X0002746Y0643111D01*
X0002746Y0646310D02*
X0045246Y0646310D01*
X0045246Y0649508D02*
X0002746Y0649508D01*
X0002746Y0652707D02*
X0045246Y0652707D01*
X0045246Y0655905D02*
X0002746Y0655905D01*
X0002746Y0659104D02*
X0045246Y0659104D01*
X0045246Y0662302D02*
X0002746Y0662302D01*
X0002746Y0665501D02*
X0045246Y0665501D01*
X0045246Y0668699D02*
X0002746Y0668699D01*
X0002746Y0671898D02*
X0045246Y0671898D01*
X0045246Y0675096D02*
X0002746Y0675096D01*
X0002746Y0678295D02*
X0045246Y0678295D01*
X0045246Y0681493D02*
X0002746Y0681493D01*
X0002746Y0684692D02*
X0045246Y0684692D01*
X0045246Y0687890D02*
X0002746Y0687890D01*
X0002746Y0691089D02*
X0045246Y0691089D01*
X0045246Y0694287D02*
X0002746Y0694287D01*
X0002746Y0697486D02*
X0045246Y0697486D01*
X0045246Y0700684D02*
X0002746Y0700684D01*
X0002746Y0703883D02*
X0045246Y0703883D01*
X0045246Y0707081D02*
X0002746Y0707081D01*
X0002746Y0710280D02*
X0045246Y0710280D01*
X0045246Y0713478D02*
X0002746Y0713478D01*
X0002746Y0716677D02*
X0043355Y0716677D01*
X0042245Y0726272D02*
X0062746Y0726272D01*
X0062746Y0723074D02*
X0045444Y0723074D01*
X0045439Y0735868D02*
X0062746Y0735868D01*
X0062746Y0732670D02*
X0038446Y0732670D01*
X0039047Y0729471D02*
X0062746Y0729471D01*
X0062746Y0739067D02*
X0045517Y0739067D01*
X0043506Y0742265D02*
X0062746Y0742265D01*
X0062746Y0745464D02*
X0038446Y0745464D01*
X0037109Y0748662D02*
X0062746Y0748662D01*
X0062746Y0751861D02*
X0002746Y0751861D01*
X0002746Y0755059D02*
X0062746Y0755059D01*
X0062746Y0758258D02*
X0002746Y0758258D01*
X0002746Y0761456D02*
X0062746Y0761456D01*
X0062746Y0764655D02*
X0002746Y0764655D01*
X0002746Y0767853D02*
X0024032Y0767853D01*
X0022420Y0742265D02*
X0002746Y0742265D01*
X0002746Y0739067D02*
X0020575Y0739067D01*
X0020575Y0740420D02*
X0020575Y0735780D01*
X0022215Y0734140D01*
X0026175Y0738100D01*
X0026175Y0738100D01*
X0022215Y0742060D01*
X0020575Y0740420D01*
X0020575Y0735868D02*
X0002746Y0735868D01*
X0002746Y0732670D02*
X0023686Y0732670D01*
X0023943Y0735868D02*
X0023943Y0735868D01*
X0025208Y0739067D02*
X0025209Y0739067D01*
X0028046Y0745464D02*
X0002746Y0745464D01*
X0002746Y0748662D02*
X0029383Y0748662D01*
X0028046Y0729471D02*
X0002746Y0729471D01*
X0002746Y0726272D02*
X0030649Y0726272D01*
X0036958Y0723074D02*
X0002746Y0723074D01*
X0002746Y0719875D02*
X0040157Y0719875D01*
X0041460Y0767853D02*
X0062746Y0767853D01*
X0062746Y0022600D02*
X0054471Y0022600D01*
X0055276Y0019401D02*
X0062746Y0019401D01*
X0062746Y0016203D02*
X0054404Y0016203D01*
X0062746Y0013004D02*
X0002746Y0013004D01*
X0002746Y0009806D02*
X0062746Y0009806D01*
X0062746Y0006607D02*
X0002746Y0006607D01*
X0002746Y0003409D02*
X0062746Y0003409D01*
X0034648Y0028997D02*
X0002746Y0028997D01*
X0002746Y0057784D02*
X0027604Y0057784D01*
X0027374Y0060982D02*
X0002746Y0060982D01*
X0002746Y0268885D02*
X0023449Y0268885D01*
X0018173Y0771052D02*
X0002746Y0771052D01*
X0002746Y0774250D02*
X0014660Y0774250D01*
X0012248Y0777449D02*
X0002746Y0777449D01*
X0002746Y0780647D02*
X0010512Y0780647D01*
X0009263Y0783846D02*
X0002746Y0783846D01*
X0007125Y0803037D02*
X0011771Y0803037D01*
D15*
X0033246Y0731029D02*
X0048246Y0716029D01*
X0048246Y0522600D01*
X0046746Y0521100D01*
X0039817Y0521100D01*
X0048246Y0522600D02*
X0048246Y0292600D01*
X0045387Y0295459D01*
X0034281Y0295459D01*
X0048246Y0093612D02*
X0041253Y0086619D01*
X0041253Y0031359D01*
X0029376Y0019482D01*
X0048246Y0093612D02*
X0048246Y0101770D01*
X0048246Y0102600D01*
X0048246Y0292600D01*
D16*
X0041253Y0086619D03*
X0029376Y0019482D03*
M02*
