G75*
%MOIN*%
%OFA0B0*%
%FSLAX25Y25*%
%IPPOS*%
%LPD*%
%AMOC8*
5,1,8,0,0,1.08239X$1,22.5*
%
%ADD10C,0.00000*%
%ADD11C,0.01200*%
%ADD12C,0.07400*%
%ADD13OC8,0.05543*%
%ADD14C,0.03200*%
%ADD15C,0.01600*%
%ADD16C,0.02978*%
D10*
X0013996Y0790600D02*
X0014002Y0791060D01*
X0014019Y0791520D01*
X0014047Y0791979D01*
X0014086Y0792438D01*
X0014137Y0792895D01*
X0014199Y0793351D01*
X0014272Y0793806D01*
X0014356Y0794258D01*
X0014452Y0794708D01*
X0014558Y0795156D01*
X0014675Y0795601D01*
X0014803Y0796043D01*
X0014942Y0796482D01*
X0015092Y0796917D01*
X0015252Y0797348D01*
X0015423Y0797775D01*
X0015605Y0798198D01*
X0015796Y0798617D01*
X0015998Y0799030D01*
X0016210Y0799439D01*
X0016432Y0799842D01*
X0016664Y0800239D01*
X0016905Y0800631D01*
X0017156Y0801017D01*
X0017416Y0801396D01*
X0017686Y0801769D01*
X0017965Y0802136D01*
X0018252Y0802495D01*
X0018548Y0802847D01*
X0018853Y0803192D01*
X0019166Y0803529D01*
X0019488Y0803858D01*
X0019817Y0804180D01*
X0020154Y0804493D01*
X0020499Y0804798D01*
X0020851Y0805094D01*
X0021210Y0805381D01*
X0021577Y0805660D01*
X0021950Y0805930D01*
X0022329Y0806190D01*
X0022715Y0806441D01*
X0023107Y0806682D01*
X0023504Y0806914D01*
X0023907Y0807136D01*
X0024316Y0807348D01*
X0024729Y0807550D01*
X0025148Y0807741D01*
X0025571Y0807923D01*
X0025998Y0808094D01*
X0026429Y0808254D01*
X0026864Y0808404D01*
X0027303Y0808543D01*
X0027745Y0808671D01*
X0028190Y0808788D01*
X0028638Y0808894D01*
X0029088Y0808990D01*
X0029540Y0809074D01*
X0029995Y0809147D01*
X0030451Y0809209D01*
X0030908Y0809260D01*
X0031367Y0809299D01*
X0031826Y0809327D01*
X0032286Y0809344D01*
X0032746Y0809350D01*
X0033206Y0809344D01*
X0033666Y0809327D01*
X0034125Y0809299D01*
X0034584Y0809260D01*
X0035041Y0809209D01*
X0035497Y0809147D01*
X0035952Y0809074D01*
X0036404Y0808990D01*
X0036854Y0808894D01*
X0037302Y0808788D01*
X0037747Y0808671D01*
X0038189Y0808543D01*
X0038628Y0808404D01*
X0039063Y0808254D01*
X0039494Y0808094D01*
X0039921Y0807923D01*
X0040344Y0807741D01*
X0040763Y0807550D01*
X0041176Y0807348D01*
X0041585Y0807136D01*
X0041988Y0806914D01*
X0042385Y0806682D01*
X0042777Y0806441D01*
X0043163Y0806190D01*
X0043542Y0805930D01*
X0043915Y0805660D01*
X0044282Y0805381D01*
X0044641Y0805094D01*
X0044993Y0804798D01*
X0045338Y0804493D01*
X0045675Y0804180D01*
X0046004Y0803858D01*
X0046326Y0803529D01*
X0046639Y0803192D01*
X0046944Y0802847D01*
X0047240Y0802495D01*
X0047527Y0802136D01*
X0047806Y0801769D01*
X0048076Y0801396D01*
X0048336Y0801017D01*
X0048587Y0800631D01*
X0048828Y0800239D01*
X0049060Y0799842D01*
X0049282Y0799439D01*
X0049494Y0799030D01*
X0049696Y0798617D01*
X0049887Y0798198D01*
X0050069Y0797775D01*
X0050240Y0797348D01*
X0050400Y0796917D01*
X0050550Y0796482D01*
X0050689Y0796043D01*
X0050817Y0795601D01*
X0050934Y0795156D01*
X0051040Y0794708D01*
X0051136Y0794258D01*
X0051220Y0793806D01*
X0051293Y0793351D01*
X0051355Y0792895D01*
X0051406Y0792438D01*
X0051445Y0791979D01*
X0051473Y0791520D01*
X0051490Y0791060D01*
X0051496Y0790600D01*
X0051490Y0790140D01*
X0051473Y0789680D01*
X0051445Y0789221D01*
X0051406Y0788762D01*
X0051355Y0788305D01*
X0051293Y0787849D01*
X0051220Y0787394D01*
X0051136Y0786942D01*
X0051040Y0786492D01*
X0050934Y0786044D01*
X0050817Y0785599D01*
X0050689Y0785157D01*
X0050550Y0784718D01*
X0050400Y0784283D01*
X0050240Y0783852D01*
X0050069Y0783425D01*
X0049887Y0783002D01*
X0049696Y0782583D01*
X0049494Y0782170D01*
X0049282Y0781761D01*
X0049060Y0781358D01*
X0048828Y0780961D01*
X0048587Y0780569D01*
X0048336Y0780183D01*
X0048076Y0779804D01*
X0047806Y0779431D01*
X0047527Y0779064D01*
X0047240Y0778705D01*
X0046944Y0778353D01*
X0046639Y0778008D01*
X0046326Y0777671D01*
X0046004Y0777342D01*
X0045675Y0777020D01*
X0045338Y0776707D01*
X0044993Y0776402D01*
X0044641Y0776106D01*
X0044282Y0775819D01*
X0043915Y0775540D01*
X0043542Y0775270D01*
X0043163Y0775010D01*
X0042777Y0774759D01*
X0042385Y0774518D01*
X0041988Y0774286D01*
X0041585Y0774064D01*
X0041176Y0773852D01*
X0040763Y0773650D01*
X0040344Y0773459D01*
X0039921Y0773277D01*
X0039494Y0773106D01*
X0039063Y0772946D01*
X0038628Y0772796D01*
X0038189Y0772657D01*
X0037747Y0772529D01*
X0037302Y0772412D01*
X0036854Y0772306D01*
X0036404Y0772210D01*
X0035952Y0772126D01*
X0035497Y0772053D01*
X0035041Y0771991D01*
X0034584Y0771940D01*
X0034125Y0771901D01*
X0033666Y0771873D01*
X0033206Y0771856D01*
X0032746Y0771850D01*
X0032286Y0771856D01*
X0031826Y0771873D01*
X0031367Y0771901D01*
X0030908Y0771940D01*
X0030451Y0771991D01*
X0029995Y0772053D01*
X0029540Y0772126D01*
X0029088Y0772210D01*
X0028638Y0772306D01*
X0028190Y0772412D01*
X0027745Y0772529D01*
X0027303Y0772657D01*
X0026864Y0772796D01*
X0026429Y0772946D01*
X0025998Y0773106D01*
X0025571Y0773277D01*
X0025148Y0773459D01*
X0024729Y0773650D01*
X0024316Y0773852D01*
X0023907Y0774064D01*
X0023504Y0774286D01*
X0023107Y0774518D01*
X0022715Y0774759D01*
X0022329Y0775010D01*
X0021950Y0775270D01*
X0021577Y0775540D01*
X0021210Y0775819D01*
X0020851Y0776106D01*
X0020499Y0776402D01*
X0020154Y0776707D01*
X0019817Y0777020D01*
X0019488Y0777342D01*
X0019166Y0777671D01*
X0018853Y0778008D01*
X0018548Y0778353D01*
X0018252Y0778705D01*
X0017965Y0779064D01*
X0017686Y0779431D01*
X0017416Y0779804D01*
X0017156Y0780183D01*
X0016905Y0780569D01*
X0016664Y0780961D01*
X0016432Y0781358D01*
X0016210Y0781761D01*
X0015998Y0782170D01*
X0015796Y0782583D01*
X0015605Y0783002D01*
X0015423Y0783425D01*
X0015252Y0783852D01*
X0015092Y0784283D01*
X0014942Y0784718D01*
X0014803Y0785157D01*
X0014675Y0785599D01*
X0014558Y0786044D01*
X0014452Y0786492D01*
X0014356Y0786942D01*
X0014272Y0787394D01*
X0014199Y0787849D01*
X0014137Y0788305D01*
X0014086Y0788762D01*
X0014047Y0789221D01*
X0014019Y0789680D01*
X0014002Y0790140D01*
X0013996Y0790600D01*
D11*
X0026569Y0736301D02*
X0027169Y0735701D01*
X0025181Y0735701D01*
X0023776Y0737106D01*
X0023776Y0739094D01*
X0025181Y0740499D01*
X0027169Y0740499D01*
X0028574Y0739094D01*
X0028574Y0737106D01*
X0027169Y0735701D01*
X0026796Y0736601D01*
X0025554Y0736601D01*
X0024676Y0737479D01*
X0024676Y0738721D01*
X0025554Y0739599D01*
X0026796Y0739599D01*
X0027674Y0738721D01*
X0027674Y0737479D01*
X0026796Y0736601D01*
X0026423Y0737501D01*
X0025927Y0737501D01*
X0025576Y0737852D01*
X0025576Y0738348D01*
X0025927Y0738699D01*
X0026423Y0738699D01*
X0026774Y0738348D01*
X0026774Y0737852D01*
X0026423Y0737501D01*
X0033640Y0729230D02*
X0034240Y0728630D01*
X0032252Y0728630D01*
X0030847Y0730035D01*
X0030847Y0732023D01*
X0032252Y0733428D01*
X0034240Y0733428D01*
X0035645Y0732023D01*
X0035645Y0730035D01*
X0034240Y0728630D01*
X0033867Y0729530D01*
X0032625Y0729530D01*
X0031747Y0730408D01*
X0031747Y0731650D01*
X0032625Y0732528D01*
X0033867Y0732528D01*
X0034745Y0731650D01*
X0034745Y0730408D01*
X0033867Y0729530D01*
X0033494Y0730430D01*
X0032998Y0730430D01*
X0032647Y0730781D01*
X0032647Y0731277D01*
X0032998Y0731628D01*
X0033494Y0731628D01*
X0033845Y0731277D01*
X0033845Y0730781D01*
X0033494Y0730430D01*
X0033640Y0743372D02*
X0034240Y0742772D01*
X0032252Y0742772D01*
X0030847Y0744177D01*
X0030847Y0746165D01*
X0032252Y0747570D01*
X0034240Y0747570D01*
X0035645Y0746165D01*
X0035645Y0744177D01*
X0034240Y0742772D01*
X0033867Y0743672D01*
X0032625Y0743672D01*
X0031747Y0744550D01*
X0031747Y0745792D01*
X0032625Y0746670D01*
X0033867Y0746670D01*
X0034745Y0745792D01*
X0034745Y0744550D01*
X0033867Y0743672D01*
X0033494Y0744572D01*
X0032998Y0744572D01*
X0032647Y0744923D01*
X0032647Y0745419D01*
X0032998Y0745770D01*
X0033494Y0745770D01*
X0033845Y0745419D01*
X0033845Y0744923D01*
X0033494Y0744572D01*
X0040711Y0736301D02*
X0041311Y0735701D01*
X0039323Y0735701D01*
X0037918Y0737106D01*
X0037918Y0739094D01*
X0039323Y0740499D01*
X0041311Y0740499D01*
X0042716Y0739094D01*
X0042716Y0737106D01*
X0041311Y0735701D01*
X0040938Y0736601D01*
X0039696Y0736601D01*
X0038818Y0737479D01*
X0038818Y0738721D01*
X0039696Y0739599D01*
X0040938Y0739599D01*
X0041816Y0738721D01*
X0041816Y0737479D01*
X0040938Y0736601D01*
X0040565Y0737501D01*
X0040069Y0737501D01*
X0039718Y0737852D01*
X0039718Y0738348D01*
X0040069Y0738699D01*
X0040565Y0738699D01*
X0040916Y0738348D01*
X0040916Y0737852D01*
X0040565Y0737501D01*
X0034545Y0528565D02*
X0035145Y0529165D01*
X0035145Y0527177D01*
X0033740Y0525772D01*
X0031752Y0525772D01*
X0030347Y0527177D01*
X0030347Y0529165D01*
X0031752Y0530570D01*
X0033740Y0530570D01*
X0035145Y0529165D01*
X0034245Y0528792D01*
X0034245Y0527550D01*
X0033367Y0526672D01*
X0032125Y0526672D01*
X0031247Y0527550D01*
X0031247Y0528792D01*
X0032125Y0529670D01*
X0033367Y0529670D01*
X0034245Y0528792D01*
X0033345Y0528419D01*
X0033345Y0527923D01*
X0032994Y0527572D01*
X0032498Y0527572D01*
X0032147Y0527923D01*
X0032147Y0528419D01*
X0032498Y0528770D01*
X0032994Y0528770D01*
X0033345Y0528419D01*
X0034545Y0514423D02*
X0035145Y0515023D01*
X0035145Y0513035D01*
X0033740Y0511630D01*
X0031752Y0511630D01*
X0030347Y0513035D01*
X0030347Y0515023D01*
X0031752Y0516428D01*
X0033740Y0516428D01*
X0035145Y0515023D01*
X0034245Y0514650D01*
X0034245Y0513408D01*
X0033367Y0512530D01*
X0032125Y0512530D01*
X0031247Y0513408D01*
X0031247Y0514650D01*
X0032125Y0515528D01*
X0033367Y0515528D01*
X0034245Y0514650D01*
X0033345Y0514277D01*
X0033345Y0513781D01*
X0032994Y0513430D01*
X0032498Y0513430D01*
X0032147Y0513781D01*
X0032147Y0514277D01*
X0032498Y0514628D01*
X0032994Y0514628D01*
X0033345Y0514277D01*
X0041616Y0521494D02*
X0042216Y0522094D01*
X0042216Y0520106D01*
X0040811Y0518701D01*
X0038823Y0518701D01*
X0037418Y0520106D01*
X0037418Y0522094D01*
X0038823Y0523499D01*
X0040811Y0523499D01*
X0042216Y0522094D01*
X0041316Y0521721D01*
X0041316Y0520479D01*
X0040438Y0519601D01*
X0039196Y0519601D01*
X0038318Y0520479D01*
X0038318Y0521721D01*
X0039196Y0522599D01*
X0040438Y0522599D01*
X0041316Y0521721D01*
X0040416Y0521348D01*
X0040416Y0520852D01*
X0040065Y0520501D01*
X0039569Y0520501D01*
X0039218Y0520852D01*
X0039218Y0521348D01*
X0039569Y0521699D01*
X0040065Y0521699D01*
X0040416Y0521348D01*
X0034675Y0307802D02*
X0035275Y0307202D01*
X0033287Y0307202D01*
X0031882Y0308607D01*
X0031882Y0310595D01*
X0033287Y0312000D01*
X0035275Y0312000D01*
X0036680Y0310595D01*
X0036680Y0308607D01*
X0035275Y0307202D01*
X0034902Y0308102D01*
X0033660Y0308102D01*
X0032782Y0308980D01*
X0032782Y0310222D01*
X0033660Y0311100D01*
X0034902Y0311100D01*
X0035780Y0310222D01*
X0035780Y0308980D01*
X0034902Y0308102D01*
X0034529Y0309002D01*
X0034033Y0309002D01*
X0033682Y0309353D01*
X0033682Y0309849D01*
X0034033Y0310200D01*
X0034529Y0310200D01*
X0034880Y0309849D01*
X0034880Y0309353D01*
X0034529Y0309002D01*
X0034675Y0293660D02*
X0035275Y0293060D01*
X0033287Y0293060D01*
X0031882Y0294465D01*
X0031882Y0296453D01*
X0033287Y0297858D01*
X0035275Y0297858D01*
X0036680Y0296453D01*
X0036680Y0294465D01*
X0035275Y0293060D01*
X0034902Y0293960D01*
X0033660Y0293960D01*
X0032782Y0294838D01*
X0032782Y0296080D01*
X0033660Y0296958D01*
X0034902Y0296958D01*
X0035780Y0296080D01*
X0035780Y0294838D01*
X0034902Y0293960D01*
X0034529Y0294860D01*
X0034033Y0294860D01*
X0033682Y0295211D01*
X0033682Y0295707D01*
X0034033Y0296058D01*
X0034529Y0296058D01*
X0034880Y0295707D01*
X0034880Y0295211D01*
X0034529Y0294860D01*
X0041746Y0300731D02*
X0042346Y0300131D01*
X0040358Y0300131D01*
X0038953Y0301536D01*
X0038953Y0303524D01*
X0040358Y0304929D01*
X0042346Y0304929D01*
X0043751Y0303524D01*
X0043751Y0301536D01*
X0042346Y0300131D01*
X0041973Y0301031D01*
X0040731Y0301031D01*
X0039853Y0301909D01*
X0039853Y0303151D01*
X0040731Y0304029D01*
X0041973Y0304029D01*
X0042851Y0303151D01*
X0042851Y0301909D01*
X0041973Y0301031D01*
X0041600Y0301931D01*
X0041104Y0301931D01*
X0040753Y0302282D01*
X0040753Y0302778D01*
X0041104Y0303129D01*
X0041600Y0303129D01*
X0041951Y0302778D01*
X0041951Y0302282D01*
X0041600Y0301931D01*
X0035981Y0094085D02*
X0036581Y0094685D01*
X0036581Y0092697D01*
X0035176Y0091292D01*
X0033188Y0091292D01*
X0031783Y0092697D01*
X0031783Y0094685D01*
X0033188Y0096090D01*
X0035176Y0096090D01*
X0036581Y0094685D01*
X0035681Y0094312D01*
X0035681Y0093070D01*
X0034803Y0092192D01*
X0033561Y0092192D01*
X0032683Y0093070D01*
X0032683Y0094312D01*
X0033561Y0095190D01*
X0034803Y0095190D01*
X0035681Y0094312D01*
X0034781Y0093939D01*
X0034781Y0093443D01*
X0034430Y0093092D01*
X0033934Y0093092D01*
X0033583Y0093443D01*
X0033583Y0093939D01*
X0033934Y0094290D01*
X0034430Y0094290D01*
X0034781Y0093939D01*
X0035981Y0079942D02*
X0036581Y0080542D01*
X0036581Y0078554D01*
X0035176Y0077149D01*
X0033188Y0077149D01*
X0031783Y0078554D01*
X0031783Y0080542D01*
X0033188Y0081947D01*
X0035176Y0081947D01*
X0036581Y0080542D01*
X0035681Y0080169D01*
X0035681Y0078927D01*
X0034803Y0078049D01*
X0033561Y0078049D01*
X0032683Y0078927D01*
X0032683Y0080169D01*
X0033561Y0081047D01*
X0034803Y0081047D01*
X0035681Y0080169D01*
X0034781Y0079796D01*
X0034781Y0079300D01*
X0034430Y0078949D01*
X0033934Y0078949D01*
X0033583Y0079300D01*
X0033583Y0079796D01*
X0033934Y0080147D01*
X0034430Y0080147D01*
X0034781Y0079796D01*
X0043052Y0087013D02*
X0043652Y0087613D01*
X0043652Y0085625D01*
X0042247Y0084220D01*
X0040259Y0084220D01*
X0038854Y0085625D01*
X0038854Y0087613D01*
X0040259Y0089018D01*
X0042247Y0089018D01*
X0043652Y0087613D01*
X0042752Y0087240D01*
X0042752Y0085998D01*
X0041874Y0085120D01*
X0040632Y0085120D01*
X0039754Y0085998D01*
X0039754Y0087240D01*
X0040632Y0088118D01*
X0041874Y0088118D01*
X0042752Y0087240D01*
X0041852Y0086867D01*
X0041852Y0086371D01*
X0041501Y0086020D01*
X0041005Y0086020D01*
X0040654Y0086371D01*
X0040654Y0086867D01*
X0041005Y0087218D01*
X0041501Y0087218D01*
X0041852Y0086867D01*
X0028910Y0087013D02*
X0029510Y0087613D01*
X0029510Y0085625D01*
X0028105Y0084220D01*
X0026117Y0084220D01*
X0024712Y0085625D01*
X0024712Y0087613D01*
X0026117Y0089018D01*
X0028105Y0089018D01*
X0029510Y0087613D01*
X0028610Y0087240D01*
X0028610Y0085998D01*
X0027732Y0085120D01*
X0026490Y0085120D01*
X0025612Y0085998D01*
X0025612Y0087240D01*
X0026490Y0088118D01*
X0027732Y0088118D01*
X0028610Y0087240D01*
X0027710Y0086867D01*
X0027710Y0086371D01*
X0027359Y0086020D01*
X0026863Y0086020D01*
X0026512Y0086371D01*
X0026512Y0086867D01*
X0026863Y0087218D01*
X0027359Y0087218D01*
X0027710Y0086867D01*
X0027604Y0300731D02*
X0028204Y0300131D01*
X0026216Y0300131D01*
X0024811Y0301536D01*
X0024811Y0303524D01*
X0026216Y0304929D01*
X0028204Y0304929D01*
X0029609Y0303524D01*
X0029609Y0301536D01*
X0028204Y0300131D01*
X0027831Y0301031D01*
X0026589Y0301031D01*
X0025711Y0301909D01*
X0025711Y0303151D01*
X0026589Y0304029D01*
X0027831Y0304029D01*
X0028709Y0303151D01*
X0028709Y0301909D01*
X0027831Y0301031D01*
X0027458Y0301931D01*
X0026962Y0301931D01*
X0026611Y0302282D01*
X0026611Y0302778D01*
X0026962Y0303129D01*
X0027458Y0303129D01*
X0027809Y0302778D01*
X0027809Y0302282D01*
X0027458Y0301931D01*
X0027474Y0521494D02*
X0028074Y0522094D01*
X0028074Y0520106D01*
X0026669Y0518701D01*
X0024681Y0518701D01*
X0023276Y0520106D01*
X0023276Y0522094D01*
X0024681Y0523499D01*
X0026669Y0523499D01*
X0028074Y0522094D01*
X0027174Y0521721D01*
X0027174Y0520479D01*
X0026296Y0519601D01*
X0025054Y0519601D01*
X0024176Y0520479D01*
X0024176Y0521721D01*
X0025054Y0522599D01*
X0026296Y0522599D01*
X0027174Y0521721D01*
X0026274Y0521348D01*
X0026274Y0520852D01*
X0025923Y0520501D01*
X0025427Y0520501D01*
X0025076Y0520852D01*
X0025076Y0521348D01*
X0025427Y0521699D01*
X0025923Y0521699D01*
X0026274Y0521348D01*
D12*
X0029376Y0019482D03*
X0039376Y0019482D03*
X0049376Y0019482D03*
X0019376Y0019482D03*
D13*
X0032746Y0060238D03*
X0032746Y0264962D03*
X0032746Y0360238D03*
X0032746Y0564962D03*
D14*
X0002746Y0786100D02*
X0002746Y0002600D01*
X0062746Y0002600D01*
X0062746Y0787100D01*
X0062561Y0790403D01*
X0062006Y0793664D01*
X0061091Y0796843D01*
X0059825Y0799900D01*
X0058224Y0802795D01*
X0056310Y0805493D01*
X0054106Y0807960D01*
X0051639Y0810164D01*
X0048941Y0812078D01*
X0046046Y0813679D01*
X0042989Y0814945D01*
X0039810Y0815860D01*
X0036549Y0816415D01*
X0033246Y0816600D01*
X0029831Y0816408D01*
X0026459Y0815835D01*
X0023173Y0814888D01*
X0020013Y0813580D01*
X0017019Y0811925D01*
X0014230Y0809946D01*
X0011679Y0807667D01*
X0009400Y0805116D01*
X0007421Y0802327D01*
X0005767Y0799333D01*
X0004458Y0796174D01*
X0003511Y0792887D01*
X0002938Y0789515D01*
X0002746Y0786100D01*
X0002799Y0787044D02*
X0008626Y0787044D01*
X0008396Y0788202D02*
X0009332Y0783497D01*
X0011167Y0779066D01*
X0013832Y0775078D01*
X0017224Y0771686D01*
X0021212Y0769021D01*
X0025643Y0767186D01*
X0030348Y0766250D01*
X0035144Y0766250D01*
X0039849Y0767186D01*
X0044280Y0769021D01*
X0048268Y0771686D01*
X0051660Y0775078D01*
X0054325Y0779066D01*
X0056160Y0783497D01*
X0057096Y0788202D01*
X0057096Y0792998D01*
X0056160Y0797703D01*
X0054325Y0802134D01*
X0051660Y0806122D01*
X0048268Y0809514D01*
X0044280Y0812179D01*
X0039849Y0814014D01*
X0035144Y0814950D01*
X0030348Y0814950D01*
X0025643Y0814014D01*
X0021212Y0812179D01*
X0017224Y0809514D01*
X0013832Y0806122D01*
X0011167Y0802134D01*
X0009332Y0797703D01*
X0008396Y0792998D01*
X0008396Y0788202D01*
X0008396Y0790243D02*
X0003061Y0790243D01*
X0003670Y0793441D02*
X0008484Y0793441D01*
X0009120Y0796640D02*
X0004651Y0796640D01*
X0006045Y0799838D02*
X0010216Y0799838D01*
X0010400Y0806235D02*
X0013945Y0806235D01*
X0013657Y0809434D02*
X0017144Y0809434D01*
X0018299Y0812632D02*
X0022307Y0812632D01*
X0024032Y0767853D02*
X0002746Y0767853D01*
X0002746Y0764655D02*
X0062746Y0764655D01*
X0062746Y0767853D02*
X0041460Y0767853D01*
X0042471Y0743300D02*
X0038846Y0743300D01*
X0038846Y0747491D01*
X0037206Y0749131D01*
X0035566Y0750771D01*
X0030926Y0750771D01*
X0029286Y0749131D01*
X0027646Y0747491D01*
X0027646Y0743300D01*
X0024021Y0743300D01*
X0020975Y0740254D01*
X0020975Y0735946D01*
X0024021Y0732900D01*
X0028046Y0732900D01*
X0028046Y0728875D01*
X0031092Y0725829D01*
X0035400Y0725829D01*
X0038446Y0728875D01*
X0038446Y0732900D01*
X0041274Y0732900D01*
X0049746Y0724428D01*
X0049746Y0533843D01*
X0047074Y0531171D01*
X0037100Y0531171D01*
X0034900Y0533371D01*
X0030592Y0533371D01*
X0027546Y0530325D01*
X0027546Y0526700D01*
X0023355Y0526700D01*
X0021715Y0525060D01*
X0025675Y0521100D01*
X0025675Y0521100D01*
X0021715Y0517140D01*
X0023355Y0515500D01*
X0027546Y0515500D01*
X0027546Y0511875D01*
X0030592Y0508829D01*
X0034900Y0508829D01*
X0037946Y0511875D01*
X0037946Y0515900D01*
X0041971Y0515900D01*
X0045017Y0518946D01*
X0045017Y0523254D01*
X0043100Y0525171D01*
X0048914Y0525171D01*
X0049746Y0525516D01*
X0049746Y0305530D01*
X0045706Y0305530D01*
X0043506Y0307730D01*
X0039881Y0307730D01*
X0039881Y0311921D01*
X0038240Y0313561D01*
X0036600Y0315201D01*
X0031961Y0315201D01*
X0030321Y0313561D01*
X0034281Y0309601D01*
X0034281Y0309601D01*
X0038240Y0313561D01*
X0034281Y0309601D01*
X0034281Y0309601D01*
X0030321Y0313561D01*
X0028681Y0311921D01*
X0028681Y0307730D01*
X0025056Y0307730D01*
X0022010Y0304684D01*
X0022010Y0300376D01*
X0025056Y0297330D01*
X0029081Y0297330D01*
X0029081Y0293305D01*
X0032127Y0290259D01*
X0036435Y0290259D01*
X0039481Y0293305D01*
X0039481Y0297330D01*
X0043506Y0297330D01*
X0045706Y0299530D01*
X0049746Y0299530D01*
X0049746Y0096691D01*
X0038536Y0096691D01*
X0036336Y0098891D01*
X0032029Y0098891D01*
X0028982Y0095844D01*
X0028982Y0092219D01*
X0024792Y0092219D01*
X0023152Y0090579D01*
X0027111Y0086620D01*
X0027111Y0086620D01*
X0023152Y0090579D01*
X0021511Y0088939D01*
X0021511Y0084300D01*
X0023152Y0082660D01*
X0024792Y0081019D01*
X0028982Y0081019D01*
X0028982Y0077394D01*
X0032029Y0074348D01*
X0036336Y0074348D01*
X0039382Y0077394D01*
X0039382Y0081419D01*
X0043407Y0081419D01*
X0046453Y0084466D01*
X0046453Y0088773D01*
X0044536Y0090691D01*
X0049746Y0090691D01*
X0049746Y0034095D01*
X0040892Y0025240D01*
X0040550Y0025382D01*
X0038202Y0025382D01*
X0036034Y0024484D01*
X0034376Y0022826D01*
X0032718Y0024484D01*
X0030550Y0025382D01*
X0028202Y0025382D01*
X0026034Y0024484D01*
X0024376Y0022826D01*
X0022718Y0024484D01*
X0020550Y0025382D01*
X0018202Y0025382D01*
X0016034Y0024484D01*
X0014374Y0022824D01*
X0013476Y0020655D01*
X0013476Y0018308D01*
X0014374Y0016140D01*
X0016034Y0014480D01*
X0018202Y0013582D01*
X0020550Y0013582D01*
X0022718Y0014480D01*
X0024376Y0016138D01*
X0026034Y0014480D01*
X0028202Y0013582D01*
X0030550Y0013582D01*
X0032718Y0014480D01*
X0034376Y0016138D01*
X0036034Y0014480D01*
X0038202Y0013582D01*
X0040550Y0013582D01*
X0042718Y0014480D01*
X0044169Y0015931D01*
X0044571Y0015378D01*
X0045272Y0014677D01*
X0046074Y0014094D01*
X0046958Y0013643D01*
X0047901Y0013337D01*
X0048880Y0013182D01*
X0049376Y0013182D01*
X0049872Y0013182D01*
X0050851Y0013337D01*
X0051794Y0013643D01*
X0052678Y0014094D01*
X0053480Y0014677D01*
X0054181Y0015378D01*
X0054764Y0016180D01*
X0055214Y0017064D01*
X0055521Y0018007D01*
X0055676Y0018986D01*
X0055676Y0019482D01*
X0055676Y0019978D01*
X0055521Y0020957D01*
X0055214Y0021900D01*
X0054764Y0022784D01*
X0054181Y0023586D01*
X0053480Y0024287D01*
X0052678Y0024870D01*
X0051794Y0025320D01*
X0050851Y0025627D01*
X0049912Y0025775D01*
X0054445Y0030309D01*
X0055289Y0031153D01*
X0055746Y0032255D01*
X0055746Y0726268D01*
X0055289Y0727370D01*
X0054445Y0728214D01*
X0045517Y0737143D01*
X0045517Y0740254D01*
X0042471Y0743300D01*
X0041505Y0732670D02*
X0038446Y0732670D01*
X0038446Y0729471D02*
X0044703Y0729471D01*
X0045517Y0739067D02*
X0062746Y0739067D01*
X0062746Y0742265D02*
X0043506Y0742265D01*
X0043185Y0812632D02*
X0047939Y0812632D01*
X0048348Y0809434D02*
X0052456Y0809434D01*
X0051547Y0806235D02*
X0055647Y0806235D01*
X0055276Y0799838D02*
X0059850Y0799838D01*
X0061149Y0796640D02*
X0056372Y0796640D01*
X0057008Y0793441D02*
X0062044Y0793441D01*
X0062570Y0790243D02*
X0057096Y0790243D01*
X0056866Y0787044D02*
X0062746Y0787044D01*
X0062746Y0783846D02*
X0056230Y0783846D01*
X0054980Y0780647D02*
X0062746Y0780647D01*
X0062746Y0777449D02*
X0053244Y0777449D01*
X0053722Y0803037D02*
X0058053Y0803037D01*
X0055744Y0726272D02*
X0062746Y0726272D01*
X0062746Y0723074D02*
X0055746Y0723074D01*
X0055746Y0719875D02*
X0062746Y0719875D01*
X0062746Y0716677D02*
X0055746Y0716677D01*
X0055746Y0713478D02*
X0062746Y0713478D01*
X0062746Y0710280D02*
X0055746Y0710280D01*
X0055746Y0707081D02*
X0062746Y0707081D01*
X0062746Y0703883D02*
X0055746Y0703883D01*
X0055746Y0700684D02*
X0062746Y0700684D01*
X0062746Y0697486D02*
X0055746Y0697486D01*
X0055746Y0694287D02*
X0062746Y0694287D01*
X0062746Y0691089D02*
X0055746Y0691089D01*
X0055746Y0687890D02*
X0062746Y0687890D01*
X0062746Y0684692D02*
X0055746Y0684692D01*
X0055746Y0681493D02*
X0062746Y0681493D01*
X0062746Y0678295D02*
X0055746Y0678295D01*
X0055746Y0675096D02*
X0062746Y0675096D01*
X0062746Y0671898D02*
X0055746Y0671898D01*
X0055746Y0668699D02*
X0062746Y0668699D01*
X0062746Y0665501D02*
X0055746Y0665501D01*
X0055746Y0662302D02*
X0062746Y0662302D01*
X0062746Y0659104D02*
X0055746Y0659104D01*
X0055746Y0655905D02*
X0062746Y0655905D01*
X0062746Y0652707D02*
X0055746Y0652707D01*
X0055746Y0649508D02*
X0062746Y0649508D01*
X0062746Y0646310D02*
X0055746Y0646310D01*
X0055746Y0643111D02*
X0062746Y0643111D01*
X0062746Y0639913D02*
X0055746Y0639913D01*
X0055746Y0636714D02*
X0062746Y0636714D01*
X0062746Y0633516D02*
X0055746Y0633516D01*
X0055746Y0630317D02*
X0062746Y0630317D01*
X0062746Y0627119D02*
X0055746Y0627119D01*
X0055746Y0623920D02*
X0062746Y0623920D01*
X0062746Y0620722D02*
X0055746Y0620722D01*
X0055746Y0617523D02*
X0062746Y0617523D01*
X0062746Y0614325D02*
X0055746Y0614325D01*
X0055746Y0611126D02*
X0062746Y0611126D01*
X0062746Y0607928D02*
X0055746Y0607928D01*
X0055746Y0604729D02*
X0062746Y0604729D01*
X0062746Y0601531D02*
X0055746Y0601531D01*
X0055746Y0598332D02*
X0062746Y0598332D01*
X0062746Y0595134D02*
X0055746Y0595134D01*
X0055746Y0591935D02*
X0062746Y0591935D01*
X0062746Y0588737D02*
X0055746Y0588737D01*
X0055746Y0585538D02*
X0062746Y0585538D01*
X0062746Y0582339D02*
X0055746Y0582339D01*
X0055746Y0579141D02*
X0062746Y0579141D01*
X0062746Y0575942D02*
X0055746Y0575942D01*
X0055746Y0572744D02*
X0062746Y0572744D01*
X0062746Y0569545D02*
X0055746Y0569545D01*
X0055746Y0566347D02*
X0062746Y0566347D01*
X0062746Y0563148D02*
X0055746Y0563148D01*
X0055746Y0559950D02*
X0062746Y0559950D01*
X0062746Y0556751D02*
X0055746Y0556751D01*
X0055746Y0553553D02*
X0062746Y0553553D01*
X0062746Y0550354D02*
X0055746Y0550354D01*
X0055746Y0547156D02*
X0062746Y0547156D01*
X0062746Y0543957D02*
X0055746Y0543957D01*
X0055746Y0540759D02*
X0062746Y0540759D01*
X0062746Y0537560D02*
X0055746Y0537560D01*
X0055746Y0534362D02*
X0062746Y0534362D01*
X0062746Y0531163D02*
X0055746Y0531163D01*
X0055746Y0527965D02*
X0062746Y0527965D01*
X0062746Y0524766D02*
X0055746Y0524766D01*
X0055746Y0521568D02*
X0062746Y0521568D01*
X0062746Y0518369D02*
X0055746Y0518369D01*
X0055746Y0515171D02*
X0062746Y0515171D01*
X0062746Y0511972D02*
X0055746Y0511972D01*
X0055746Y0508774D02*
X0062746Y0508774D01*
X0062746Y0505575D02*
X0055746Y0505575D01*
X0055746Y0502377D02*
X0062746Y0502377D01*
X0062746Y0499178D02*
X0055746Y0499178D01*
X0055746Y0495980D02*
X0062746Y0495980D01*
X0062746Y0492781D02*
X0055746Y0492781D01*
X0055746Y0489583D02*
X0062746Y0489583D01*
X0062746Y0486384D02*
X0055746Y0486384D01*
X0055746Y0483186D02*
X0062746Y0483186D01*
X0062746Y0479987D02*
X0055746Y0479987D01*
X0055746Y0476789D02*
X0062746Y0476789D01*
X0062746Y0473590D02*
X0055746Y0473590D01*
X0055746Y0470392D02*
X0062746Y0470392D01*
X0062746Y0467193D02*
X0055746Y0467193D01*
X0055746Y0463995D02*
X0062746Y0463995D01*
X0062746Y0460796D02*
X0055746Y0460796D01*
X0055746Y0457598D02*
X0062746Y0457598D01*
X0062746Y0454399D02*
X0055746Y0454399D01*
X0055746Y0451201D02*
X0062746Y0451201D01*
X0062746Y0448002D02*
X0055746Y0448002D01*
X0055746Y0444803D02*
X0062746Y0444803D01*
X0062746Y0441605D02*
X0055746Y0441605D01*
X0055746Y0438406D02*
X0062746Y0438406D01*
X0062746Y0435208D02*
X0055746Y0435208D01*
X0055746Y0432009D02*
X0062746Y0432009D01*
X0062746Y0428811D02*
X0055746Y0428811D01*
X0055746Y0425612D02*
X0062746Y0425612D01*
X0062746Y0422414D02*
X0055746Y0422414D01*
X0055746Y0419215D02*
X0062746Y0419215D01*
X0062746Y0416017D02*
X0055746Y0416017D01*
X0055746Y0412818D02*
X0062746Y0412818D01*
X0062746Y0409620D02*
X0055746Y0409620D01*
X0055746Y0406421D02*
X0062746Y0406421D01*
X0062746Y0403223D02*
X0055746Y0403223D01*
X0055746Y0400024D02*
X0062746Y0400024D01*
X0062746Y0396826D02*
X0055746Y0396826D01*
X0055746Y0393627D02*
X0062746Y0393627D01*
X0062746Y0390429D02*
X0055746Y0390429D01*
X0055746Y0387230D02*
X0062746Y0387230D01*
X0062746Y0384032D02*
X0055746Y0384032D01*
X0055746Y0380833D02*
X0062746Y0380833D01*
X0062746Y0377635D02*
X0055746Y0377635D01*
X0055746Y0374436D02*
X0062746Y0374436D01*
X0062746Y0371238D02*
X0055746Y0371238D01*
X0055746Y0368039D02*
X0062746Y0368039D01*
X0062746Y0364841D02*
X0055746Y0364841D01*
X0055746Y0361642D02*
X0062746Y0361642D01*
X0062746Y0358444D02*
X0055746Y0358444D01*
X0055746Y0355245D02*
X0062746Y0355245D01*
X0062746Y0352047D02*
X0055746Y0352047D01*
X0055746Y0348848D02*
X0062746Y0348848D01*
X0062746Y0345650D02*
X0055746Y0345650D01*
X0055746Y0342451D02*
X0062746Y0342451D01*
X0062746Y0339253D02*
X0055746Y0339253D01*
X0055746Y0336054D02*
X0062746Y0336054D01*
X0062746Y0332856D02*
X0055746Y0332856D01*
X0055746Y0329657D02*
X0062746Y0329657D01*
X0062746Y0326459D02*
X0055746Y0326459D01*
X0055746Y0323260D02*
X0062746Y0323260D01*
X0062746Y0320062D02*
X0055746Y0320062D01*
X0055746Y0316863D02*
X0062746Y0316863D01*
X0062746Y0313665D02*
X0055746Y0313665D01*
X0055746Y0310466D02*
X0062746Y0310466D01*
X0062746Y0307268D02*
X0055746Y0307268D01*
X0055746Y0304069D02*
X0062746Y0304069D01*
X0062746Y0300870D02*
X0055746Y0300870D01*
X0055746Y0297672D02*
X0062746Y0297672D01*
X0062746Y0294473D02*
X0055746Y0294473D01*
X0055746Y0291275D02*
X0062746Y0291275D01*
X0062746Y0288076D02*
X0055746Y0288076D01*
X0055746Y0284878D02*
X0062746Y0284878D01*
X0062746Y0281679D02*
X0055746Y0281679D01*
X0055746Y0278481D02*
X0062746Y0278481D01*
X0062746Y0275282D02*
X0055746Y0275282D01*
X0055746Y0272084D02*
X0062746Y0272084D01*
X0062746Y0268885D02*
X0055746Y0268885D01*
X0055746Y0265687D02*
X0062746Y0265687D01*
X0062746Y0262488D02*
X0055746Y0262488D01*
X0055746Y0259290D02*
X0062746Y0259290D01*
X0062746Y0256091D02*
X0055746Y0256091D01*
X0055746Y0252893D02*
X0062746Y0252893D01*
X0062746Y0249694D02*
X0055746Y0249694D01*
X0055746Y0246496D02*
X0062746Y0246496D01*
X0062746Y0243297D02*
X0055746Y0243297D01*
X0055746Y0240099D02*
X0062746Y0240099D01*
X0062746Y0236900D02*
X0055746Y0236900D01*
X0055746Y0233702D02*
X0062746Y0233702D01*
X0062746Y0230503D02*
X0055746Y0230503D01*
X0055746Y0227305D02*
X0062746Y0227305D01*
X0062746Y0224106D02*
X0055746Y0224106D01*
X0055746Y0220908D02*
X0062746Y0220908D01*
X0062746Y0217709D02*
X0055746Y0217709D01*
X0055746Y0214511D02*
X0062746Y0214511D01*
X0062746Y0211312D02*
X0055746Y0211312D01*
X0055746Y0208114D02*
X0062746Y0208114D01*
X0062746Y0204915D02*
X0055746Y0204915D01*
X0055746Y0201717D02*
X0062746Y0201717D01*
X0062746Y0198518D02*
X0055746Y0198518D01*
X0055746Y0195320D02*
X0062746Y0195320D01*
X0062746Y0192121D02*
X0055746Y0192121D01*
X0055746Y0188923D02*
X0062746Y0188923D01*
X0062746Y0185724D02*
X0055746Y0185724D01*
X0055746Y0182526D02*
X0062746Y0182526D01*
X0062746Y0179327D02*
X0055746Y0179327D01*
X0055746Y0176129D02*
X0062746Y0176129D01*
X0062746Y0172930D02*
X0055746Y0172930D01*
X0055746Y0169732D02*
X0062746Y0169732D01*
X0062746Y0166533D02*
X0055746Y0166533D01*
X0055746Y0163334D02*
X0062746Y0163334D01*
X0062746Y0160136D02*
X0055746Y0160136D01*
X0055746Y0156937D02*
X0062746Y0156937D01*
X0062746Y0153739D02*
X0055746Y0153739D01*
X0055746Y0150540D02*
X0062746Y0150540D01*
X0062746Y0147342D02*
X0055746Y0147342D01*
X0055746Y0144143D02*
X0062746Y0144143D01*
X0062746Y0140945D02*
X0055746Y0140945D01*
X0055746Y0137746D02*
X0062746Y0137746D01*
X0062746Y0134548D02*
X0055746Y0134548D01*
X0055746Y0131349D02*
X0062746Y0131349D01*
X0062746Y0128151D02*
X0055746Y0128151D01*
X0055746Y0124952D02*
X0062746Y0124952D01*
X0062746Y0121754D02*
X0055746Y0121754D01*
X0055746Y0118555D02*
X0062746Y0118555D01*
X0062746Y0115357D02*
X0055746Y0115357D01*
X0055746Y0112158D02*
X0062746Y0112158D01*
X0062746Y0108960D02*
X0055746Y0108960D01*
X0055746Y0105761D02*
X0062746Y0105761D01*
X0062746Y0102563D02*
X0055746Y0102563D01*
X0055746Y0099364D02*
X0062746Y0099364D01*
X0062746Y0096166D02*
X0055746Y0096166D01*
X0055746Y0092967D02*
X0062746Y0092967D01*
X0062746Y0089769D02*
X0055746Y0089769D01*
X0055746Y0086570D02*
X0062746Y0086570D01*
X0062746Y0083372D02*
X0055746Y0083372D01*
X0055746Y0080173D02*
X0062746Y0080173D01*
X0062746Y0076975D02*
X0055746Y0076975D01*
X0055746Y0073776D02*
X0062746Y0073776D01*
X0062746Y0070578D02*
X0055746Y0070578D01*
X0055746Y0067379D02*
X0062746Y0067379D01*
X0062746Y0064181D02*
X0055746Y0064181D01*
X0055746Y0060982D02*
X0062746Y0060982D01*
X0062746Y0057784D02*
X0055746Y0057784D01*
X0055746Y0054585D02*
X0062746Y0054585D01*
X0062746Y0051387D02*
X0055746Y0051387D01*
X0055746Y0048188D02*
X0062746Y0048188D01*
X0062746Y0044990D02*
X0055746Y0044990D01*
X0055746Y0041791D02*
X0062746Y0041791D01*
X0062746Y0038593D02*
X0055746Y0038593D01*
X0055746Y0035394D02*
X0062746Y0035394D01*
X0062746Y0032196D02*
X0055721Y0032196D01*
X0054858Y0022600D02*
X0062746Y0022600D01*
X0062746Y0025799D02*
X0049935Y0025799D01*
X0049376Y0019482D02*
X0055676Y0019482D01*
X0049376Y0019482D01*
X0049376Y0019482D01*
X0049376Y0013182D01*
X0049376Y0019482D01*
X0049376Y0019482D01*
X0049376Y0019401D02*
X0049376Y0019401D01*
X0049376Y0016203D02*
X0049376Y0016203D01*
X0049746Y0035394D02*
X0002746Y0035394D01*
X0002746Y0032196D02*
X0047847Y0032196D01*
X0049746Y0038593D02*
X0002746Y0038593D01*
X0002746Y0041791D02*
X0049746Y0041791D01*
X0049746Y0044990D02*
X0002746Y0044990D01*
X0002746Y0048188D02*
X0049746Y0048188D01*
X0049746Y0051387D02*
X0002746Y0051387D01*
X0002746Y0054585D02*
X0049746Y0054585D01*
X0049746Y0057784D02*
X0037323Y0057784D01*
X0037718Y0058178D02*
X0034805Y0055266D01*
X0030687Y0055266D01*
X0027774Y0058178D01*
X0027774Y0062297D01*
X0030687Y0065209D01*
X0034805Y0065209D01*
X0037718Y0062297D01*
X0037718Y0058178D01*
X0037718Y0060982D02*
X0049746Y0060982D01*
X0049746Y0064181D02*
X0035834Y0064181D01*
X0038963Y0076975D02*
X0049746Y0076975D01*
X0049746Y0080173D02*
X0039382Y0080173D01*
X0041450Y0025799D02*
X0002746Y0025799D01*
X0002746Y0028997D02*
X0044648Y0028997D01*
X0045360Y0083372D02*
X0049746Y0083372D01*
X0049746Y0086570D02*
X0046453Y0086570D01*
X0045458Y0089769D02*
X0049746Y0089769D01*
X0049746Y0099364D02*
X0002746Y0099364D01*
X0002746Y0096166D02*
X0029304Y0096166D01*
X0028982Y0092967D02*
X0002746Y0092967D01*
X0002746Y0089769D02*
X0022341Y0089769D01*
X0021511Y0086570D02*
X0002746Y0086570D01*
X0002746Y0083372D02*
X0022439Y0083372D01*
X0023152Y0082660D02*
X0027111Y0086619D01*
X0023152Y0082660D01*
X0023863Y0083372D02*
X0023864Y0083372D01*
X0023962Y0089769D02*
X0023962Y0089769D01*
X0027111Y0086619D02*
X0027111Y0086619D01*
X0027062Y0086570D02*
X0027062Y0086570D01*
X0027774Y0060982D02*
X0002746Y0060982D01*
X0002746Y0057784D02*
X0028169Y0057784D01*
X0028982Y0080173D02*
X0002746Y0080173D01*
X0002746Y0076975D02*
X0029402Y0076975D01*
X0029658Y0064181D02*
X0002746Y0064181D01*
X0002746Y0067379D02*
X0049746Y0067379D01*
X0049746Y0070578D02*
X0002746Y0070578D01*
X0002746Y0073776D02*
X0049746Y0073776D01*
X0049746Y0102563D02*
X0002746Y0102563D01*
X0002746Y0105761D02*
X0049746Y0105761D01*
X0049746Y0108960D02*
X0002746Y0108960D01*
X0002746Y0112158D02*
X0049746Y0112158D01*
X0049746Y0115357D02*
X0002746Y0115357D01*
X0002746Y0118555D02*
X0049746Y0118555D01*
X0049746Y0121754D02*
X0002746Y0121754D01*
X0002746Y0124952D02*
X0049746Y0124952D01*
X0049746Y0128151D02*
X0002746Y0128151D01*
X0002746Y0131349D02*
X0049746Y0131349D01*
X0049746Y0134548D02*
X0002746Y0134548D01*
X0002746Y0137746D02*
X0049746Y0137746D01*
X0049746Y0140945D02*
X0002746Y0140945D01*
X0002746Y0144143D02*
X0049746Y0144143D01*
X0049746Y0147342D02*
X0002746Y0147342D01*
X0002746Y0150540D02*
X0049746Y0150540D01*
X0049746Y0153739D02*
X0002746Y0153739D01*
X0002746Y0156937D02*
X0049746Y0156937D01*
X0049746Y0160136D02*
X0002746Y0160136D01*
X0002746Y0163334D02*
X0049746Y0163334D01*
X0049746Y0166533D02*
X0002746Y0166533D01*
X0002746Y0169732D02*
X0049746Y0169732D01*
X0049746Y0172930D02*
X0002746Y0172930D01*
X0002746Y0176129D02*
X0049746Y0176129D01*
X0049746Y0179327D02*
X0002746Y0179327D01*
X0002746Y0182526D02*
X0049746Y0182526D01*
X0049746Y0185724D02*
X0002746Y0185724D01*
X0002746Y0188923D02*
X0049746Y0188923D01*
X0049746Y0192121D02*
X0002746Y0192121D01*
X0002746Y0195320D02*
X0049746Y0195320D01*
X0049746Y0198518D02*
X0002746Y0198518D01*
X0002746Y0201717D02*
X0049746Y0201717D01*
X0049746Y0204915D02*
X0002746Y0204915D01*
X0002746Y0208114D02*
X0049746Y0208114D01*
X0049746Y0211312D02*
X0002746Y0211312D01*
X0002746Y0214511D02*
X0049746Y0214511D01*
X0049746Y0217709D02*
X0002746Y0217709D01*
X0002746Y0220908D02*
X0049746Y0220908D01*
X0049746Y0224106D02*
X0002746Y0224106D01*
X0002746Y0227305D02*
X0049746Y0227305D01*
X0049746Y0230503D02*
X0002746Y0230503D01*
X0002746Y0233702D02*
X0049746Y0233702D01*
X0049746Y0236900D02*
X0002746Y0236900D01*
X0002746Y0240099D02*
X0049746Y0240099D01*
X0049746Y0243297D02*
X0002746Y0243297D01*
X0002746Y0246496D02*
X0049746Y0246496D01*
X0049746Y0249694D02*
X0002746Y0249694D01*
X0002746Y0252893D02*
X0049746Y0252893D01*
X0049746Y0256091D02*
X0002746Y0256091D01*
X0002746Y0259290D02*
X0049746Y0259290D01*
X0049746Y0262488D02*
X0037303Y0262488D01*
X0037718Y0262903D02*
X0034805Y0259991D01*
X0030687Y0259991D01*
X0027774Y0262903D01*
X0027774Y0267022D01*
X0030687Y0269934D01*
X0034805Y0269934D01*
X0037718Y0267022D01*
X0037718Y0262903D01*
X0037718Y0265687D02*
X0049746Y0265687D01*
X0049746Y0268885D02*
X0035854Y0268885D01*
X0037451Y0291275D02*
X0049746Y0291275D01*
X0049746Y0294473D02*
X0039481Y0294473D01*
X0039881Y0310466D02*
X0049746Y0310466D01*
X0049746Y0307268D02*
X0043968Y0307268D01*
X0043848Y0297672D02*
X0049746Y0297672D01*
X0049746Y0288076D02*
X0002746Y0288076D01*
X0002746Y0284878D02*
X0049746Y0284878D01*
X0049746Y0281679D02*
X0002746Y0281679D01*
X0002746Y0278481D02*
X0049746Y0278481D01*
X0049746Y0275282D02*
X0002746Y0275282D01*
X0002746Y0272084D02*
X0049746Y0272084D01*
X0049746Y0313665D02*
X0038137Y0313665D01*
X0034805Y0355266D02*
X0037718Y0358178D01*
X0037718Y0362297D01*
X0034805Y0365209D01*
X0030687Y0365209D01*
X0027774Y0362297D01*
X0027774Y0358178D01*
X0030687Y0355266D01*
X0034805Y0355266D01*
X0035174Y0364841D02*
X0049746Y0364841D01*
X0049746Y0368039D02*
X0002746Y0368039D01*
X0002746Y0364841D02*
X0030318Y0364841D01*
X0027774Y0361642D02*
X0002746Y0361642D01*
X0002746Y0358444D02*
X0027774Y0358444D01*
X0028681Y0310466D02*
X0002746Y0310466D01*
X0002746Y0307268D02*
X0024593Y0307268D01*
X0024714Y0297672D02*
X0002746Y0297672D01*
X0002746Y0300870D02*
X0022010Y0300870D01*
X0022010Y0304069D02*
X0002746Y0304069D01*
X0002746Y0313665D02*
X0030425Y0313665D01*
X0031111Y0291275D02*
X0002746Y0291275D01*
X0002746Y0294473D02*
X0029081Y0294473D01*
X0029638Y0268885D02*
X0002746Y0268885D01*
X0002746Y0265687D02*
X0027774Y0265687D01*
X0028189Y0262488D02*
X0002746Y0262488D01*
X0002746Y0316863D02*
X0049746Y0316863D01*
X0049746Y0320062D02*
X0002746Y0320062D01*
X0002746Y0323260D02*
X0049746Y0323260D01*
X0049746Y0326459D02*
X0002746Y0326459D01*
X0002746Y0329657D02*
X0049746Y0329657D01*
X0049746Y0332856D02*
X0002746Y0332856D01*
X0002746Y0336054D02*
X0049746Y0336054D01*
X0049746Y0339253D02*
X0002746Y0339253D01*
X0002746Y0342451D02*
X0049746Y0342451D01*
X0049746Y0345650D02*
X0002746Y0345650D01*
X0002746Y0348848D02*
X0049746Y0348848D01*
X0049746Y0352047D02*
X0002746Y0352047D01*
X0002746Y0355245D02*
X0049746Y0355245D01*
X0049746Y0358444D02*
X0037718Y0358444D01*
X0037718Y0361642D02*
X0049746Y0361642D01*
X0049746Y0371238D02*
X0002746Y0371238D01*
X0002746Y0374436D02*
X0049746Y0374436D01*
X0049746Y0377635D02*
X0002746Y0377635D01*
X0002746Y0380833D02*
X0049746Y0380833D01*
X0049746Y0384032D02*
X0002746Y0384032D01*
X0002746Y0387230D02*
X0049746Y0387230D01*
X0049746Y0390429D02*
X0002746Y0390429D01*
X0002746Y0393627D02*
X0049746Y0393627D01*
X0049746Y0396826D02*
X0002746Y0396826D01*
X0002746Y0400024D02*
X0049746Y0400024D01*
X0049746Y0403223D02*
X0002746Y0403223D01*
X0002746Y0406421D02*
X0049746Y0406421D01*
X0049746Y0409620D02*
X0002746Y0409620D01*
X0002746Y0412818D02*
X0049746Y0412818D01*
X0049746Y0416017D02*
X0002746Y0416017D01*
X0002746Y0419215D02*
X0049746Y0419215D01*
X0049746Y0422414D02*
X0002746Y0422414D01*
X0002746Y0425612D02*
X0049746Y0425612D01*
X0049746Y0428811D02*
X0002746Y0428811D01*
X0002746Y0432009D02*
X0049746Y0432009D01*
X0049746Y0435208D02*
X0002746Y0435208D01*
X0002746Y0438406D02*
X0049746Y0438406D01*
X0049746Y0441605D02*
X0002746Y0441605D01*
X0002746Y0444803D02*
X0049746Y0444803D01*
X0049746Y0448002D02*
X0002746Y0448002D01*
X0002746Y0451201D02*
X0049746Y0451201D01*
X0049746Y0454399D02*
X0002746Y0454399D01*
X0002746Y0457598D02*
X0049746Y0457598D01*
X0049746Y0460796D02*
X0002746Y0460796D01*
X0002746Y0463995D02*
X0049746Y0463995D01*
X0049746Y0467193D02*
X0002746Y0467193D01*
X0002746Y0470392D02*
X0049746Y0470392D01*
X0049746Y0473590D02*
X0002746Y0473590D01*
X0002746Y0476789D02*
X0049746Y0476789D01*
X0049746Y0479987D02*
X0002746Y0479987D01*
X0002746Y0483186D02*
X0049746Y0483186D01*
X0049746Y0486384D02*
X0002746Y0486384D01*
X0002746Y0489583D02*
X0049746Y0489583D01*
X0049746Y0492781D02*
X0002746Y0492781D01*
X0002746Y0495980D02*
X0049746Y0495980D01*
X0049746Y0499178D02*
X0002746Y0499178D01*
X0002746Y0502377D02*
X0049746Y0502377D01*
X0049746Y0505575D02*
X0002746Y0505575D01*
X0002746Y0508774D02*
X0049746Y0508774D01*
X0049746Y0511972D02*
X0037946Y0511972D01*
X0037946Y0515171D02*
X0049746Y0515171D01*
X0049746Y0518369D02*
X0044440Y0518369D01*
X0045017Y0521568D02*
X0049746Y0521568D01*
X0049746Y0524766D02*
X0043505Y0524766D01*
X0049746Y0534362D02*
X0002746Y0534362D01*
X0002746Y0537560D02*
X0049746Y0537560D01*
X0049746Y0540759D02*
X0002746Y0540759D01*
X0002746Y0543957D02*
X0049746Y0543957D01*
X0049746Y0547156D02*
X0002746Y0547156D01*
X0002746Y0550354D02*
X0049746Y0550354D01*
X0049746Y0553553D02*
X0002746Y0553553D01*
X0002746Y0556751D02*
X0049746Y0556751D01*
X0049746Y0559950D02*
X0035330Y0559950D01*
X0034971Y0559591D02*
X0038118Y0562737D01*
X0038118Y0564962D01*
X0032746Y0564962D01*
X0032746Y0564962D01*
X0032746Y0559591D01*
X0030521Y0559591D01*
X0027374Y0562737D01*
X0027374Y0564962D01*
X0032746Y0564962D01*
X0032746Y0559591D01*
X0034971Y0559591D01*
X0038118Y0567187D02*
X0034971Y0570334D01*
X0032746Y0570334D01*
X0030521Y0570334D01*
X0027374Y0567187D01*
X0027374Y0564962D01*
X0032746Y0564962D01*
X0032746Y0564962D01*
X0032746Y0564962D01*
X0038118Y0564962D01*
X0038118Y0567187D01*
X0038118Y0566347D02*
X0049746Y0566347D01*
X0049746Y0569545D02*
X0035759Y0569545D01*
X0038118Y0563148D02*
X0049746Y0563148D01*
X0049746Y0572744D02*
X0002746Y0572744D01*
X0002746Y0575942D02*
X0049746Y0575942D01*
X0049746Y0579141D02*
X0002746Y0579141D01*
X0002746Y0582339D02*
X0049746Y0582339D01*
X0049746Y0585538D02*
X0002746Y0585538D01*
X0002746Y0588737D02*
X0049746Y0588737D01*
X0049746Y0591935D02*
X0002746Y0591935D01*
X0002746Y0595134D02*
X0049746Y0595134D01*
X0049746Y0598332D02*
X0002746Y0598332D01*
X0002746Y0601531D02*
X0049746Y0601531D01*
X0049746Y0604729D02*
X0002746Y0604729D01*
X0002746Y0607928D02*
X0049746Y0607928D01*
X0049746Y0611126D02*
X0002746Y0611126D01*
X0002746Y0614325D02*
X0049746Y0614325D01*
X0049746Y0617523D02*
X0002746Y0617523D01*
X0002746Y0620722D02*
X0049746Y0620722D01*
X0049746Y0623920D02*
X0002746Y0623920D01*
X0002746Y0627119D02*
X0049746Y0627119D01*
X0049746Y0630317D02*
X0002746Y0630317D01*
X0002746Y0633516D02*
X0049746Y0633516D01*
X0049746Y0636714D02*
X0002746Y0636714D01*
X0002746Y0639913D02*
X0049746Y0639913D01*
X0049746Y0643111D02*
X0002746Y0643111D01*
X0002746Y0646310D02*
X0049746Y0646310D01*
X0049746Y0649508D02*
X0002746Y0649508D01*
X0002746Y0652707D02*
X0049746Y0652707D01*
X0049746Y0655905D02*
X0002746Y0655905D01*
X0002746Y0659104D02*
X0049746Y0659104D01*
X0049746Y0662302D02*
X0002746Y0662302D01*
X0002746Y0665501D02*
X0049746Y0665501D01*
X0049746Y0668699D02*
X0002746Y0668699D01*
X0002746Y0671898D02*
X0049746Y0671898D01*
X0049746Y0675096D02*
X0002746Y0675096D01*
X0002746Y0678295D02*
X0049746Y0678295D01*
X0049746Y0681493D02*
X0002746Y0681493D01*
X0002746Y0684692D02*
X0049746Y0684692D01*
X0049746Y0687890D02*
X0002746Y0687890D01*
X0002746Y0691089D02*
X0049746Y0691089D01*
X0049746Y0694287D02*
X0002746Y0694287D01*
X0002746Y0697486D02*
X0049746Y0697486D01*
X0049746Y0700684D02*
X0002746Y0700684D01*
X0002746Y0703883D02*
X0049746Y0703883D01*
X0049746Y0707081D02*
X0002746Y0707081D01*
X0002746Y0710280D02*
X0049746Y0710280D01*
X0049746Y0713478D02*
X0002746Y0713478D01*
X0002746Y0716677D02*
X0049746Y0716677D01*
X0049746Y0719875D02*
X0002746Y0719875D01*
X0002746Y0723074D02*
X0049746Y0723074D01*
X0049990Y0732670D02*
X0062746Y0732670D01*
X0062746Y0735868D02*
X0046792Y0735868D01*
X0047902Y0726272D02*
X0035844Y0726272D01*
X0036737Y0748662D02*
X0036737Y0748662D01*
X0037206Y0749131D02*
X0033246Y0745171D01*
X0029286Y0749131D01*
X0033246Y0745171D01*
X0033246Y0745171D01*
X0033246Y0745171D01*
X0037206Y0749131D01*
X0037675Y0748662D02*
X0062746Y0748662D01*
X0062746Y0745464D02*
X0038846Y0745464D01*
X0039913Y0815831D02*
X0026444Y0815831D01*
X0028818Y0748662D02*
X0002746Y0748662D01*
X0002746Y0745464D02*
X0027646Y0745464D01*
X0028046Y0732670D02*
X0002746Y0732670D01*
X0002746Y0735868D02*
X0021053Y0735868D01*
X0020975Y0739067D02*
X0002746Y0739067D01*
X0002746Y0742265D02*
X0022986Y0742265D01*
X0028046Y0729471D02*
X0002746Y0729471D01*
X0002746Y0726272D02*
X0030649Y0726272D01*
X0029755Y0748662D02*
X0029755Y0748662D01*
X0032953Y0745464D02*
X0032954Y0745464D01*
X0033538Y0745464D02*
X0033539Y0745464D01*
X0032746Y0570334D02*
X0032746Y0564962D01*
X0032746Y0564962D01*
X0032746Y0570334D01*
X0032746Y0569545D02*
X0032746Y0569545D01*
X0032746Y0566347D02*
X0032746Y0566347D01*
X0032746Y0563148D02*
X0032746Y0563148D01*
X0032746Y0559950D02*
X0032746Y0559950D01*
X0030162Y0559950D02*
X0002746Y0559950D01*
X0002746Y0563148D02*
X0027374Y0563148D01*
X0027374Y0566347D02*
X0002746Y0566347D01*
X0002746Y0569545D02*
X0029733Y0569545D01*
X0028384Y0531163D02*
X0002746Y0531163D01*
X0002746Y0527965D02*
X0027546Y0527965D01*
X0027546Y0515171D02*
X0002746Y0515171D01*
X0002746Y0518369D02*
X0020486Y0518369D01*
X0020075Y0518780D02*
X0021715Y0517140D01*
X0025675Y0521100D01*
X0025675Y0521100D01*
X0021715Y0525060D01*
X0020075Y0523420D01*
X0020075Y0518780D01*
X0020075Y0521568D02*
X0002746Y0521568D01*
X0002746Y0524766D02*
X0021422Y0524766D01*
X0022009Y0524766D02*
X0022009Y0524766D01*
X0022944Y0518369D02*
X0022944Y0518369D01*
X0025207Y0521568D02*
X0025207Y0521568D01*
X0027546Y0511972D02*
X0002746Y0511972D01*
X0002746Y0751861D02*
X0062746Y0751861D01*
X0062746Y0755059D02*
X0002746Y0755059D01*
X0002746Y0758258D02*
X0062746Y0758258D01*
X0062746Y0761456D02*
X0002746Y0761456D01*
X0002746Y0771052D02*
X0018173Y0771052D01*
X0014660Y0774250D02*
X0002746Y0774250D01*
X0002746Y0777449D02*
X0012248Y0777449D01*
X0011771Y0803037D02*
X0007925Y0803037D01*
X0009263Y0783846D02*
X0002746Y0783846D01*
X0002746Y0780647D02*
X0010512Y0780647D01*
X0033416Y0310466D02*
X0033416Y0310466D01*
X0035146Y0310466D02*
X0035146Y0310466D01*
X0047319Y0771052D02*
X0062746Y0771052D01*
X0062746Y0774250D02*
X0050832Y0774250D01*
X0053189Y0729471D02*
X0062746Y0729471D01*
X0062746Y0028997D02*
X0053134Y0028997D01*
X0054776Y0016203D02*
X0062746Y0016203D01*
X0062746Y0019401D02*
X0055676Y0019401D01*
X0062746Y0013004D02*
X0002746Y0013004D01*
X0002746Y0009806D02*
X0062746Y0009806D01*
X0062746Y0006607D02*
X0002746Y0006607D01*
X0002746Y0003409D02*
X0062746Y0003409D01*
X0014348Y0016203D02*
X0002746Y0016203D01*
X0002746Y0019401D02*
X0013476Y0019401D01*
X0014281Y0022600D02*
X0002746Y0022600D01*
D15*
X0032746Y0528171D02*
X0048317Y0528171D01*
X0052746Y0532600D01*
X0052746Y0302600D01*
X0052746Y0092600D01*
X0051656Y0093691D01*
X0034182Y0093691D01*
X0052746Y0032852D02*
X0039376Y0019482D01*
X0041352Y0302530D02*
X0052676Y0302530D01*
X0052692Y0302532D01*
X0052706Y0302537D01*
X0052720Y0302545D01*
X0052731Y0302556D01*
X0052739Y0302570D01*
X0052744Y0302584D01*
X0052746Y0302600D01*
X0052746Y0092600D02*
X0052746Y0032852D01*
X0052746Y0532600D02*
X0052746Y0725671D01*
X0040317Y0738100D01*
D16*
X0041253Y0086619D03*
X0029376Y0019482D03*
M02*
