G75*
%MOIN*%
%OFA0B0*%
%FSLAX25Y25*%
%IPPOS*%
%LPD*%
%AMOC8*
5,1,8,0,0,1.08239X$1,22.5*
%
%ADD10C,0.00000*%
D10*
X0013996Y0790600D02*
X0014002Y0791060D01*
X0014019Y0791520D01*
X0014047Y0791979D01*
X0014086Y0792438D01*
X0014137Y0792895D01*
X0014199Y0793351D01*
X0014272Y0793806D01*
X0014356Y0794258D01*
X0014452Y0794708D01*
X0014558Y0795156D01*
X0014675Y0795601D01*
X0014803Y0796043D01*
X0014942Y0796482D01*
X0015092Y0796917D01*
X0015252Y0797348D01*
X0015423Y0797775D01*
X0015605Y0798198D01*
X0015796Y0798617D01*
X0015998Y0799030D01*
X0016210Y0799439D01*
X0016432Y0799842D01*
X0016664Y0800239D01*
X0016905Y0800631D01*
X0017156Y0801017D01*
X0017416Y0801396D01*
X0017686Y0801769D01*
X0017965Y0802136D01*
X0018252Y0802495D01*
X0018548Y0802847D01*
X0018853Y0803192D01*
X0019166Y0803529D01*
X0019488Y0803858D01*
X0019817Y0804180D01*
X0020154Y0804493D01*
X0020499Y0804798D01*
X0020851Y0805094D01*
X0021210Y0805381D01*
X0021577Y0805660D01*
X0021950Y0805930D01*
X0022329Y0806190D01*
X0022715Y0806441D01*
X0023107Y0806682D01*
X0023504Y0806914D01*
X0023907Y0807136D01*
X0024316Y0807348D01*
X0024729Y0807550D01*
X0025148Y0807741D01*
X0025571Y0807923D01*
X0025998Y0808094D01*
X0026429Y0808254D01*
X0026864Y0808404D01*
X0027303Y0808543D01*
X0027745Y0808671D01*
X0028190Y0808788D01*
X0028638Y0808894D01*
X0029088Y0808990D01*
X0029540Y0809074D01*
X0029995Y0809147D01*
X0030451Y0809209D01*
X0030908Y0809260D01*
X0031367Y0809299D01*
X0031826Y0809327D01*
X0032286Y0809344D01*
X0032746Y0809350D01*
X0033206Y0809344D01*
X0033666Y0809327D01*
X0034125Y0809299D01*
X0034584Y0809260D01*
X0035041Y0809209D01*
X0035497Y0809147D01*
X0035952Y0809074D01*
X0036404Y0808990D01*
X0036854Y0808894D01*
X0037302Y0808788D01*
X0037747Y0808671D01*
X0038189Y0808543D01*
X0038628Y0808404D01*
X0039063Y0808254D01*
X0039494Y0808094D01*
X0039921Y0807923D01*
X0040344Y0807741D01*
X0040763Y0807550D01*
X0041176Y0807348D01*
X0041585Y0807136D01*
X0041988Y0806914D01*
X0042385Y0806682D01*
X0042777Y0806441D01*
X0043163Y0806190D01*
X0043542Y0805930D01*
X0043915Y0805660D01*
X0044282Y0805381D01*
X0044641Y0805094D01*
X0044993Y0804798D01*
X0045338Y0804493D01*
X0045675Y0804180D01*
X0046004Y0803858D01*
X0046326Y0803529D01*
X0046639Y0803192D01*
X0046944Y0802847D01*
X0047240Y0802495D01*
X0047527Y0802136D01*
X0047806Y0801769D01*
X0048076Y0801396D01*
X0048336Y0801017D01*
X0048587Y0800631D01*
X0048828Y0800239D01*
X0049060Y0799842D01*
X0049282Y0799439D01*
X0049494Y0799030D01*
X0049696Y0798617D01*
X0049887Y0798198D01*
X0050069Y0797775D01*
X0050240Y0797348D01*
X0050400Y0796917D01*
X0050550Y0796482D01*
X0050689Y0796043D01*
X0050817Y0795601D01*
X0050934Y0795156D01*
X0051040Y0794708D01*
X0051136Y0794258D01*
X0051220Y0793806D01*
X0051293Y0793351D01*
X0051355Y0792895D01*
X0051406Y0792438D01*
X0051445Y0791979D01*
X0051473Y0791520D01*
X0051490Y0791060D01*
X0051496Y0790600D01*
X0051490Y0790140D01*
X0051473Y0789680D01*
X0051445Y0789221D01*
X0051406Y0788762D01*
X0051355Y0788305D01*
X0051293Y0787849D01*
X0051220Y0787394D01*
X0051136Y0786942D01*
X0051040Y0786492D01*
X0050934Y0786044D01*
X0050817Y0785599D01*
X0050689Y0785157D01*
X0050550Y0784718D01*
X0050400Y0784283D01*
X0050240Y0783852D01*
X0050069Y0783425D01*
X0049887Y0783002D01*
X0049696Y0782583D01*
X0049494Y0782170D01*
X0049282Y0781761D01*
X0049060Y0781358D01*
X0048828Y0780961D01*
X0048587Y0780569D01*
X0048336Y0780183D01*
X0048076Y0779804D01*
X0047806Y0779431D01*
X0047527Y0779064D01*
X0047240Y0778705D01*
X0046944Y0778353D01*
X0046639Y0778008D01*
X0046326Y0777671D01*
X0046004Y0777342D01*
X0045675Y0777020D01*
X0045338Y0776707D01*
X0044993Y0776402D01*
X0044641Y0776106D01*
X0044282Y0775819D01*
X0043915Y0775540D01*
X0043542Y0775270D01*
X0043163Y0775010D01*
X0042777Y0774759D01*
X0042385Y0774518D01*
X0041988Y0774286D01*
X0041585Y0774064D01*
X0041176Y0773852D01*
X0040763Y0773650D01*
X0040344Y0773459D01*
X0039921Y0773277D01*
X0039494Y0773106D01*
X0039063Y0772946D01*
X0038628Y0772796D01*
X0038189Y0772657D01*
X0037747Y0772529D01*
X0037302Y0772412D01*
X0036854Y0772306D01*
X0036404Y0772210D01*
X0035952Y0772126D01*
X0035497Y0772053D01*
X0035041Y0771991D01*
X0034584Y0771940D01*
X0034125Y0771901D01*
X0033666Y0771873D01*
X0033206Y0771856D01*
X0032746Y0771850D01*
X0032286Y0771856D01*
X0031826Y0771873D01*
X0031367Y0771901D01*
X0030908Y0771940D01*
X0030451Y0771991D01*
X0029995Y0772053D01*
X0029540Y0772126D01*
X0029088Y0772210D01*
X0028638Y0772306D01*
X0028190Y0772412D01*
X0027745Y0772529D01*
X0027303Y0772657D01*
X0026864Y0772796D01*
X0026429Y0772946D01*
X0025998Y0773106D01*
X0025571Y0773277D01*
X0025148Y0773459D01*
X0024729Y0773650D01*
X0024316Y0773852D01*
X0023907Y0774064D01*
X0023504Y0774286D01*
X0023107Y0774518D01*
X0022715Y0774759D01*
X0022329Y0775010D01*
X0021950Y0775270D01*
X0021577Y0775540D01*
X0021210Y0775819D01*
X0020851Y0776106D01*
X0020499Y0776402D01*
X0020154Y0776707D01*
X0019817Y0777020D01*
X0019488Y0777342D01*
X0019166Y0777671D01*
X0018853Y0778008D01*
X0018548Y0778353D01*
X0018252Y0778705D01*
X0017965Y0779064D01*
X0017686Y0779431D01*
X0017416Y0779804D01*
X0017156Y0780183D01*
X0016905Y0780569D01*
X0016664Y0780961D01*
X0016432Y0781358D01*
X0016210Y0781761D01*
X0015998Y0782170D01*
X0015796Y0782583D01*
X0015605Y0783002D01*
X0015423Y0783425D01*
X0015252Y0783852D01*
X0015092Y0784283D01*
X0014942Y0784718D01*
X0014803Y0785157D01*
X0014675Y0785599D01*
X0014558Y0786044D01*
X0014452Y0786492D01*
X0014356Y0786942D01*
X0014272Y0787394D01*
X0014199Y0787849D01*
X0014137Y0788305D01*
X0014086Y0788762D01*
X0014047Y0789221D01*
X0014019Y0789680D01*
X0014002Y0790140D01*
X0013996Y0790600D01*
M02*
