G04 #@! TF.FileFunction,Copper,L1,Top,Signal*
%FSLAX46Y46*%
G04 Gerber Fmt 4.6, Leading zero omitted, Abs format (unit mm)*
G04 Created by KiCad (PCBNEW 4.0.7) date 06/13/18 17:32:10*
%MOMM*%
%LPD*%
G01*
G04 APERTURE LIST*
%ADD10C,0.100000*%
%ADD11C,1.700000*%
%ADD12O,1.700000X1.700000*%
%ADD13C,0.600000*%
%ADD14C,0.200000*%
%ADD15C,0.254000*%
G04 APERTURE END LIST*
D10*
D11*
X100965000Y-120904000D03*
D12*
X100965000Y-123444000D03*
X98425000Y-120904000D03*
X98425000Y-123444000D03*
D10*
G36*
X75548968Y-99142699D02*
X77242499Y-98994534D01*
X77416810Y-100986923D01*
X75723279Y-101135088D01*
X75548968Y-99142699D01*
X75548968Y-99142699D01*
G37*
G36*
X75897590Y-103127477D02*
X77591121Y-102979312D01*
X77765432Y-104971701D01*
X76071901Y-105119866D01*
X75897590Y-103127477D01*
X75897590Y-103127477D01*
G37*
G36*
X78052921Y-89955805D02*
X79650399Y-90537240D01*
X78966359Y-92416625D01*
X77368881Y-91835190D01*
X78052921Y-89955805D01*
X78052921Y-89955805D01*
G37*
G36*
X76684841Y-93714575D02*
X78282319Y-94296010D01*
X77598279Y-96175395D01*
X76000801Y-95593960D01*
X76684841Y-93714575D01*
X76684841Y-93714575D01*
G37*
G36*
X83925719Y-82444204D02*
X85189065Y-83581726D01*
X83850803Y-85068016D01*
X82587457Y-83930494D01*
X83925719Y-82444204D01*
X83925719Y-82444204D01*
G37*
G36*
X81249197Y-85416784D02*
X82512543Y-86554306D01*
X81174281Y-88040596D01*
X79910935Y-86903074D01*
X81249197Y-85416784D01*
X81249197Y-85416784D01*
G37*
G36*
X92123298Y-77819383D02*
X92841749Y-79360106D01*
X91029134Y-80205343D01*
X90310683Y-78664620D01*
X92123298Y-77819383D01*
X92123298Y-77819383D01*
G37*
G36*
X88498066Y-79509857D02*
X89216517Y-81050580D01*
X87403902Y-81895817D01*
X86685451Y-80355094D01*
X88498066Y-79509857D01*
X88498066Y-79509857D01*
G37*
G36*
X111290363Y-80148896D02*
X110598910Y-81701923D01*
X108771819Y-80888450D01*
X109463272Y-79335423D01*
X111290363Y-80148896D01*
X111290363Y-80148896D01*
G37*
G36*
X107636181Y-78521950D02*
X106944728Y-80074977D01*
X105117637Y-79261504D01*
X105809090Y-77708477D01*
X107636181Y-78521950D01*
X107636181Y-78521950D01*
G37*
G36*
X118352700Y-87146564D02*
X117050425Y-88239303D01*
X115764850Y-86707214D01*
X117067125Y-85614475D01*
X118352700Y-87146564D01*
X118352700Y-87146564D01*
G37*
G36*
X115781550Y-84082386D02*
X114479275Y-85175125D01*
X113193700Y-83643036D01*
X114495975Y-82550297D01*
X115781550Y-84082386D01*
X115781550Y-84082386D01*
G37*
G36*
X122271599Y-95543160D02*
X120674121Y-96124595D01*
X119990081Y-94245210D01*
X121587559Y-93663775D01*
X122271599Y-95543160D01*
X122271599Y-95543160D01*
G37*
G36*
X120903519Y-91784390D02*
X119306041Y-92365825D01*
X118622001Y-90486440D01*
X120219479Y-89905005D01*
X120903519Y-91784390D01*
X120903519Y-91784390D01*
G37*
G36*
X122149699Y-105069066D02*
X120456168Y-104920901D01*
X120630479Y-102928512D01*
X122324010Y-103076677D01*
X122149699Y-105069066D01*
X122149699Y-105069066D01*
G37*
G36*
X122498321Y-101084288D02*
X120804790Y-100936123D01*
X120979101Y-98943734D01*
X122672632Y-99091899D01*
X122498321Y-101084288D01*
X122498321Y-101084288D01*
G37*
D13*
X76611480Y-102011480D03*
X77871320Y-93040200D03*
X82336640Y-85308440D03*
X89611200Y-79822040D03*
X108356400Y-79898240D03*
X115783360Y-85440520D03*
X120548400Y-93080840D03*
X121732040Y-102031800D03*
D14*
X76831511Y-102231511D02*
X76831511Y-104049589D01*
X76611480Y-102011480D02*
X76831511Y-102231511D01*
X76733400Y-101955600D02*
X76831511Y-102053711D01*
X77141560Y-94944985D02*
X77141560Y-93769960D01*
X77141560Y-93769960D02*
X77871320Y-93040200D01*
X82336640Y-85308440D02*
X81211739Y-86433341D01*
X81211739Y-86433341D02*
X81211739Y-86728690D01*
X89611200Y-79822040D02*
X88730403Y-80702837D01*
X88730403Y-80702837D02*
X87950984Y-80702837D01*
X108356400Y-79898240D02*
X107349887Y-78891727D01*
X107349887Y-78891727D02*
X106376909Y-78891727D01*
X115783360Y-85440520D02*
X114487625Y-84144785D01*
X114487625Y-84144785D02*
X114487625Y-83862711D01*
X119762760Y-92295200D02*
X119762760Y-91135415D01*
X120548400Y-93080840D02*
X119762760Y-92295200D01*
X121732040Y-102031800D02*
X121738711Y-102025129D01*
X121738711Y-102025129D02*
X121738711Y-100014011D01*
D15*
G36*
X101783874Y-66092975D02*
X102005283Y-66277482D01*
X102274680Y-66508394D01*
X102467701Y-66817227D01*
X102587512Y-67016912D01*
X102754502Y-67434388D01*
X102896218Y-67954013D01*
X102898161Y-67957910D01*
X102898518Y-67962252D01*
X102990508Y-68284217D01*
X103074400Y-68745622D01*
X103074400Y-68986400D01*
X103079402Y-69011545D01*
X103076204Y-69036985D01*
X103125200Y-69722929D01*
X103125200Y-70533928D01*
X103076491Y-71167145D01*
X103079783Y-71194540D01*
X103074400Y-71221600D01*
X103074400Y-71421303D01*
X102988561Y-71979256D01*
X102851045Y-72437643D01*
X102661111Y-73054929D01*
X102475194Y-73473242D01*
X102294113Y-73880675D01*
X101898395Y-74496235D01*
X101430243Y-75011202D01*
X101387309Y-75082590D01*
X101333663Y-75146319D01*
X101316587Y-75200181D01*
X101287465Y-75248603D01*
X101275117Y-75330988D01*
X101249943Y-75410394D01*
X101254779Y-75466688D01*
X101246403Y-75522571D01*
X101266524Y-75603412D01*
X101273653Y-75686405D01*
X101299665Y-75736566D01*
X101313312Y-75791398D01*
X101362833Y-75858380D01*
X101401183Y-75932334D01*
X101444412Y-75968723D01*
X101478002Y-76014157D01*
X101549390Y-76057091D01*
X101613119Y-76110737D01*
X101666981Y-76127813D01*
X101715403Y-76156935D01*
X101797788Y-76169283D01*
X101877194Y-76194457D01*
X102309956Y-76242542D01*
X102844591Y-76339748D01*
X102846467Y-76339717D01*
X102848212Y-76340396D01*
X103707079Y-76491961D01*
X104743893Y-76689449D01*
X105466558Y-76882160D01*
X106265025Y-77131681D01*
X107058879Y-77379760D01*
X107845903Y-77674894D01*
X108573288Y-77965848D01*
X109156479Y-78257444D01*
X109170665Y-78261329D01*
X109182641Y-78269864D01*
X110167438Y-78713023D01*
X110489492Y-78897053D01*
X112187421Y-79895835D01*
X113867317Y-81081644D01*
X115641930Y-82560488D01*
X117370779Y-84388129D01*
X118355428Y-85618940D01*
X119196838Y-86806813D01*
X119888245Y-87893310D01*
X120327499Y-88674205D01*
X120726157Y-89471522D01*
X121021624Y-90062456D01*
X121465338Y-91097788D01*
X121957190Y-92376604D01*
X122253318Y-93413052D01*
X122255491Y-93417282D01*
X122255943Y-93422017D01*
X122401746Y-93908026D01*
X122487563Y-94279903D01*
X122482846Y-94266942D01*
X122333673Y-94321237D01*
X122428551Y-94117768D01*
X122141063Y-93327901D01*
X121970397Y-93141651D01*
X121741446Y-93034889D01*
X121489068Y-93023870D01*
X121483449Y-93025915D01*
X121483562Y-92895673D01*
X121341517Y-92551897D01*
X121161224Y-92371289D01*
X121330938Y-92270694D01*
X121486463Y-92066090D01*
X121550132Y-91817098D01*
X121511914Y-91562953D01*
X120827874Y-89683568D01*
X120705783Y-89477586D01*
X120501179Y-89322061D01*
X120252187Y-89258392D01*
X119998041Y-89296610D01*
X118400563Y-89878045D01*
X118194582Y-90000136D01*
X118039057Y-90204740D01*
X117975388Y-90453732D01*
X118013606Y-90707877D01*
X118697646Y-92587262D01*
X118819737Y-92793244D01*
X119024341Y-92948769D01*
X119273333Y-93012438D01*
X119418693Y-92990579D01*
X119613308Y-93185195D01*
X119613238Y-93266007D01*
X119755283Y-93609783D01*
X119788330Y-93642888D01*
X119654206Y-93691705D01*
X119467956Y-93862372D01*
X119361195Y-94091323D01*
X119350176Y-94343701D01*
X119637664Y-95133568D01*
X119841136Y-95228448D01*
X120968062Y-94818281D01*
X120961221Y-94799486D01*
X121199904Y-94712614D01*
X121206744Y-94731407D01*
X121225539Y-94724566D01*
X121312411Y-94963249D01*
X121293618Y-94970089D01*
X121755088Y-96237970D01*
X121958560Y-96332850D01*
X122370090Y-96183066D01*
X122607474Y-96096665D01*
X122793724Y-95925998D01*
X122824645Y-95859687D01*
X122846404Y-95982988D01*
X122847083Y-95984733D01*
X122847052Y-95986609D01*
X122946243Y-96532160D01*
X123045936Y-97230009D01*
X123142917Y-97908876D01*
X123182371Y-98697954D01*
X123174302Y-98682624D01*
X122975546Y-98519691D01*
X122729060Y-98446923D01*
X121035529Y-98298758D01*
X120797249Y-98322358D01*
X120569826Y-98442064D01*
X120406893Y-98640820D01*
X120334125Y-98887306D01*
X120159814Y-100879695D01*
X120183414Y-101117975D01*
X120303120Y-101345398D01*
X120501876Y-101508331D01*
X120748362Y-101581099D01*
X120901231Y-101594473D01*
X120797202Y-101845001D01*
X120796878Y-102216967D01*
X120834893Y-102308970D01*
X120811652Y-102306937D01*
X120559994Y-102284920D01*
X120319067Y-102360884D01*
X120125550Y-102523264D01*
X120008904Y-102747340D01*
X119935645Y-103584700D01*
X120079955Y-103756682D01*
X121274641Y-103861203D01*
X121276384Y-103841279D01*
X121529418Y-103863417D01*
X121527675Y-103883341D01*
X122722361Y-103987863D01*
X122894343Y-103843553D01*
X122967602Y-103006192D01*
X122891638Y-102765266D01*
X122729259Y-102571748D01*
X122557388Y-102482278D01*
X122666878Y-102218599D01*
X122667202Y-101846633D01*
X122611755Y-101712440D01*
X122680173Y-101705664D01*
X122907596Y-101585958D01*
X123070529Y-101387202D01*
X123143297Y-101140716D01*
X123191200Y-100593181D01*
X123191200Y-101480664D01*
X123142605Y-102452557D01*
X123045365Y-103230479D01*
X122897341Y-104217305D01*
X122836260Y-104507440D01*
X122844533Y-104412878D01*
X122700223Y-104240896D01*
X121505537Y-104136375D01*
X121387942Y-105480490D01*
X121532252Y-105652472D01*
X121968526Y-105690641D01*
X122220184Y-105712658D01*
X122461111Y-105636694D01*
X122623139Y-105500737D01*
X122499884Y-106055382D01*
X122253495Y-106991663D01*
X122008172Y-107776696D01*
X121708163Y-108626721D01*
X121464549Y-109308840D01*
X121222840Y-109840600D01*
X121221048Y-109848242D01*
X121216607Y-109854717D01*
X120920024Y-110546744D01*
X120527763Y-111331266D01*
X120193111Y-111952762D01*
X120110044Y-112077363D01*
X120083490Y-112141659D01*
X120044846Y-112199495D01*
X120031132Y-112268438D01*
X120004298Y-112333414D01*
X120004371Y-112402977D01*
X119990800Y-112471200D01*
X119990800Y-113965674D01*
X119945154Y-114513431D01*
X119802743Y-115320423D01*
X119612213Y-116082544D01*
X119468435Y-116513878D01*
X119279023Y-117082113D01*
X118808461Y-118070293D01*
X118476200Y-118592418D01*
X118139162Y-119122049D01*
X117264531Y-120239633D01*
X116647674Y-120903942D01*
X115763476Y-121689895D01*
X115083548Y-122272691D01*
X114606477Y-122606641D01*
X113814270Y-123151283D01*
X113071108Y-123597180D01*
X112586488Y-123887952D01*
X112102878Y-124129757D01*
X112090506Y-124139359D01*
X112075594Y-124144148D01*
X111640267Y-124385996D01*
X110908743Y-124727374D01*
X110118523Y-125073095D01*
X108832324Y-125567787D01*
X107751894Y-125911560D01*
X106813110Y-126158609D01*
X105967468Y-126357583D01*
X104773445Y-126606338D01*
X103534391Y-126804587D01*
X102687653Y-126904203D01*
X101799324Y-127002906D01*
X100670170Y-127052000D01*
X97860510Y-127052000D01*
X96976858Y-127002908D01*
X95839014Y-126903965D01*
X94452923Y-126705952D01*
X93158873Y-126457096D01*
X92720720Y-126359729D01*
X91917002Y-126158800D01*
X91917001Y-126158799D01*
X91510602Y-126057200D01*
X91510601Y-126057199D01*
X91125931Y-125961032D01*
X90039352Y-125615302D01*
X89050255Y-125269118D01*
X87966566Y-124825791D01*
X87127149Y-124430771D01*
X86239739Y-123987066D01*
X85918164Y-123800890D01*
X96983524Y-123800890D01*
X97153355Y-124210924D01*
X97543642Y-124639183D01*
X98068108Y-124885486D01*
X98298000Y-124764819D01*
X98298000Y-123571000D01*
X97104845Y-123571000D01*
X96983524Y-123800890D01*
X85918164Y-123800890D01*
X85309182Y-123448321D01*
X84331308Y-122812703D01*
X83499450Y-122176576D01*
X82672215Y-121495323D01*
X82340846Y-121163954D01*
X82340843Y-121163952D01*
X82080892Y-120904000D01*
X96910907Y-120904000D01*
X97023946Y-121472285D01*
X97345853Y-121954054D01*
X97686553Y-122181702D01*
X97543642Y-122248817D01*
X97153355Y-122677076D01*
X96983524Y-123087110D01*
X97104845Y-123317000D01*
X98298000Y-123317000D01*
X98298000Y-123297000D01*
X98552000Y-123297000D01*
X98552000Y-123317000D01*
X98572000Y-123317000D01*
X98572000Y-123571000D01*
X98552000Y-123571000D01*
X98552000Y-124764819D01*
X98781892Y-124885486D01*
X99306358Y-124639183D01*
X99696645Y-124210924D01*
X99696655Y-124210899D01*
X99885853Y-124494054D01*
X100367622Y-124815961D01*
X100935907Y-124929000D01*
X100994093Y-124929000D01*
X101562378Y-124815961D01*
X102044147Y-124494054D01*
X102366054Y-124012285D01*
X102479093Y-123444000D01*
X102366054Y-122875715D01*
X102044147Y-122393946D01*
X101739840Y-122190615D01*
X101805086Y-122163656D01*
X102223188Y-121746283D01*
X102449742Y-121200681D01*
X102450257Y-120609911D01*
X102224656Y-120063914D01*
X101807283Y-119645812D01*
X101261681Y-119419258D01*
X100670911Y-119418743D01*
X100124914Y-119644344D01*
X99706812Y-120061717D01*
X99682345Y-120120639D01*
X99504147Y-119853946D01*
X99022378Y-119532039D01*
X98454093Y-119419000D01*
X98395907Y-119419000D01*
X97827622Y-119532039D01*
X97345853Y-119853946D01*
X97023946Y-120335715D01*
X96910907Y-120904000D01*
X82080892Y-120904000D01*
X81842140Y-120665248D01*
X81213782Y-119988556D01*
X80594335Y-119178510D01*
X80109826Y-118403297D01*
X79776810Y-117832412D01*
X79489234Y-117209332D01*
X79155583Y-116446701D01*
X78972388Y-115805520D01*
X78779855Y-114890989D01*
X78688000Y-114202074D01*
X78688000Y-113334800D01*
X78680004Y-113294602D01*
X78683359Y-113253753D01*
X78653197Y-113159835D01*
X78633954Y-113063095D01*
X78611185Y-113029018D01*
X78598652Y-112989994D01*
X78344652Y-112532794D01*
X78341834Y-112529471D01*
X78340452Y-112525341D01*
X77934053Y-111814141D01*
X77931934Y-111811703D01*
X77930883Y-111808651D01*
X77591076Y-111226125D01*
X77198493Y-110391887D01*
X76856585Y-109659226D01*
X76664053Y-109129762D01*
X76656234Y-109116867D01*
X76653322Y-109102068D01*
X76309588Y-108267289D01*
X76064881Y-107484225D01*
X76064362Y-107483274D01*
X76064244Y-107482197D01*
X75768772Y-106546536D01*
X75572293Y-105662379D01*
X75572293Y-105662378D01*
X75525152Y-105450246D01*
X75648923Y-105610037D01*
X75872952Y-105735981D01*
X76128329Y-105764842D01*
X77821860Y-105616677D01*
X78052422Y-105552059D01*
X78255603Y-105394679D01*
X78381547Y-105170651D01*
X78401806Y-104991386D01*
X119812576Y-104991386D01*
X119888540Y-105232312D01*
X120050919Y-105425830D01*
X120274995Y-105542476D01*
X120526652Y-105564494D01*
X120962927Y-105602663D01*
X121134909Y-105458353D01*
X121252503Y-104114237D01*
X120057817Y-104009715D01*
X119885835Y-104154025D01*
X119812576Y-104991386D01*
X78401806Y-104991386D01*
X78410408Y-104915273D01*
X78236097Y-102922884D01*
X78171479Y-102692322D01*
X78014099Y-102489141D01*
X77790070Y-102363197D01*
X77566511Y-102337932D01*
X77566511Y-102231511D01*
X77548827Y-102142609D01*
X77566510Y-102053711D01*
X77546531Y-101953271D01*
X77546642Y-101826313D01*
X77461574Y-101620433D01*
X77597983Y-101608498D01*
X77822059Y-101491852D01*
X77984438Y-101298334D01*
X78060402Y-101057408D01*
X77987143Y-100220047D01*
X77815161Y-100075737D01*
X76620475Y-100180259D01*
X76622218Y-100200183D01*
X76369184Y-100222321D01*
X76367441Y-100202397D01*
X75172755Y-100306918D01*
X75028445Y-100478900D01*
X75101704Y-101316260D01*
X75218350Y-101540336D01*
X75411867Y-101702716D01*
X75652794Y-101778680D01*
X75697362Y-101774781D01*
X75676642Y-101824681D01*
X75676318Y-102196647D01*
X75799280Y-102494239D01*
X75610600Y-102547119D01*
X75407419Y-102704499D01*
X75281475Y-102928527D01*
X75252614Y-103183905D01*
X75402673Y-104899088D01*
X75373216Y-104766534D01*
X75325540Y-104480477D01*
X75323660Y-104475506D01*
X75323748Y-104470191D01*
X75223623Y-103919505D01*
X75076163Y-102985593D01*
X75028510Y-102461411D01*
X74979600Y-101629932D01*
X74979600Y-99910385D01*
X75150617Y-100053885D01*
X76345303Y-99949363D01*
X76227709Y-98605247D01*
X76201328Y-98583110D01*
X76480742Y-98583110D01*
X76598337Y-99927225D01*
X77793023Y-99822704D01*
X77937333Y-99650722D01*
X77864074Y-98813362D01*
X77747428Y-98589286D01*
X77553911Y-98426906D01*
X77312984Y-98350942D01*
X77061326Y-98372959D01*
X76625052Y-98411128D01*
X76480742Y-98583110D01*
X76201328Y-98583110D01*
X76055727Y-98460937D01*
X75619452Y-98499106D01*
X75367795Y-98521124D01*
X75143719Y-98637770D01*
X74981340Y-98831288D01*
X74979600Y-98836807D01*
X74979600Y-98574161D01*
X75027256Y-97811665D01*
X75175120Y-96776617D01*
X75273184Y-96139202D01*
X75369761Y-95680458D01*
X75410297Y-95859447D01*
X75560110Y-96068270D01*
X75779363Y-96202355D01*
X77376841Y-96783790D01*
X77613111Y-96822665D01*
X77863767Y-96765899D01*
X78072589Y-96616086D01*
X78206674Y-96396832D01*
X78471000Y-95670602D01*
X119833129Y-95670602D01*
X120120617Y-96460469D01*
X120291283Y-96646719D01*
X120520234Y-96753481D01*
X120772612Y-96764500D01*
X121009996Y-96678099D01*
X121421526Y-96528315D01*
X121516406Y-96324843D01*
X121054936Y-95056963D01*
X119928009Y-95467130D01*
X119833129Y-95670602D01*
X78471000Y-95670602D01*
X78890714Y-94517447D01*
X78929589Y-94281178D01*
X78872823Y-94030523D01*
X78723010Y-93821700D01*
X78530088Y-93703718D01*
X78663512Y-93570527D01*
X78806158Y-93226999D01*
X78806326Y-93034130D01*
X78867868Y-93056530D01*
X79120246Y-93045511D01*
X79349197Y-92938749D01*
X79519863Y-92752499D01*
X79807351Y-91962632D01*
X79712471Y-91759160D01*
X78585544Y-91348993D01*
X78578704Y-91367786D01*
X78340021Y-91280913D01*
X78346862Y-91262119D01*
X77929773Y-91110311D01*
X78672418Y-91110311D01*
X79799344Y-91520478D01*
X80002816Y-91425598D01*
X80290304Y-90635731D01*
X80279285Y-90383353D01*
X80172524Y-90154402D01*
X79986274Y-89983735D01*
X79748890Y-89897334D01*
X79337360Y-89747550D01*
X79133888Y-89842430D01*
X78672418Y-91110311D01*
X77929773Y-91110311D01*
X77219936Y-90851952D01*
X77016464Y-90946832D01*
X76728976Y-91736699D01*
X76739995Y-91989077D01*
X76846756Y-92218028D01*
X77033006Y-92388695D01*
X77155760Y-92433374D01*
X77079128Y-92509873D01*
X76936482Y-92853401D01*
X76936410Y-92935663D01*
X76785729Y-93086345D01*
X76670009Y-93067305D01*
X76419353Y-93124071D01*
X76210531Y-93273884D01*
X76076446Y-93493138D01*
X75484373Y-95119845D01*
X75525013Y-94835366D01*
X75665782Y-94319213D01*
X75666668Y-94306561D01*
X75671926Y-94295018D01*
X75867749Y-93462769D01*
X76162365Y-92578922D01*
X76164324Y-92563383D01*
X76171482Y-92549452D01*
X76261707Y-92233664D01*
X76499785Y-91662277D01*
X76503461Y-91643997D01*
X76513037Y-91627999D01*
X76752618Y-90957171D01*
X76987443Y-90487522D01*
X77026305Y-90409798D01*
X77211929Y-90409798D01*
X77306809Y-90613270D01*
X78433736Y-91023437D01*
X78895206Y-89755557D01*
X78800326Y-89552085D01*
X78388796Y-89402301D01*
X78151412Y-89315900D01*
X77899034Y-89326919D01*
X77670083Y-89433681D01*
X77499417Y-89619931D01*
X77211929Y-90409798D01*
X77026305Y-90409798D01*
X77038243Y-90385922D01*
X77043829Y-90365524D01*
X77055793Y-90348083D01*
X77208193Y-89992483D01*
X77208949Y-89988910D01*
X77210985Y-89985877D01*
X77446761Y-89420014D01*
X77778483Y-88851349D01*
X77780951Y-88844184D01*
X77785852Y-88838406D01*
X78037757Y-88384977D01*
X78438296Y-87684032D01*
X78727324Y-87202318D01*
X78917221Y-86928023D01*
X79263976Y-86928023D01*
X79324654Y-87177761D01*
X79477713Y-87384216D01*
X80741059Y-88521738D01*
X80945561Y-88646290D01*
X81199230Y-88687555D01*
X81448968Y-88626877D01*
X81655423Y-88473818D01*
X81991716Y-88100326D01*
X116104876Y-88100326D01*
X116645176Y-88744231D01*
X116869252Y-88860877D01*
X117120909Y-88882895D01*
X117361836Y-88806932D01*
X117555353Y-88644551D01*
X117890836Y-88363048D01*
X117910403Y-88139396D01*
X117043121Y-87105811D01*
X116124443Y-87876674D01*
X116104876Y-88100326D01*
X81991716Y-88100326D01*
X82993685Y-86987528D01*
X83118237Y-86783026D01*
X83159502Y-86529357D01*
X83098824Y-86279619D01*
X82945765Y-86073164D01*
X82918562Y-86048670D01*
X83128832Y-85838767D01*
X83271478Y-85495239D01*
X83271560Y-85400940D01*
X83332040Y-85455396D01*
X83519772Y-85624431D01*
X83757901Y-85708756D01*
X84010173Y-85695535D01*
X84238183Y-85586780D01*
X84800627Y-84962123D01*
X84788877Y-84737924D01*
X83897661Y-83935469D01*
X83884279Y-83950332D01*
X83695520Y-83780373D01*
X83708902Y-83765510D01*
X83688023Y-83746710D01*
X84067620Y-83746710D01*
X84958836Y-84549165D01*
X85183035Y-84537415D01*
X85745479Y-83912758D01*
X85829805Y-83674630D01*
X85824726Y-83577703D01*
X112549565Y-83577703D01*
X112574895Y-83833455D01*
X112697732Y-84059202D01*
X113983307Y-85591291D01*
X114168485Y-85743093D01*
X114413942Y-85819260D01*
X114669694Y-85793930D01*
X114872188Y-85683746D01*
X114990243Y-85969463D01*
X115253033Y-86232712D01*
X115312852Y-86257551D01*
X115259920Y-86301966D01*
X115143274Y-86526042D01*
X115121258Y-86777699D01*
X115197222Y-87018626D01*
X115737522Y-87662531D01*
X115961175Y-87682098D01*
X116842541Y-86942543D01*
X117237697Y-86942543D01*
X118104978Y-87976128D01*
X118328630Y-87995695D01*
X118664112Y-87714192D01*
X118857630Y-87551812D01*
X118974276Y-87327736D01*
X118996292Y-87076079D01*
X118920328Y-86835152D01*
X118380028Y-86191247D01*
X118156375Y-86171680D01*
X117237697Y-86942543D01*
X116842541Y-86942543D01*
X116879853Y-86911235D01*
X116866998Y-86895915D01*
X117061573Y-86732646D01*
X117074429Y-86747967D01*
X117993107Y-85977104D01*
X118012674Y-85753452D01*
X117472374Y-85109547D01*
X117248298Y-84992901D01*
X116996641Y-84970883D01*
X116755714Y-85046846D01*
X116664124Y-85123700D01*
X116576477Y-84911577D01*
X116313687Y-84648328D01*
X116180322Y-84592950D01*
X116197717Y-84578354D01*
X116349518Y-84393176D01*
X116425685Y-84147719D01*
X116400355Y-83891967D01*
X116277518Y-83666220D01*
X114991943Y-82134131D01*
X114806765Y-81982329D01*
X114561308Y-81906162D01*
X114305556Y-81931492D01*
X114079808Y-82054329D01*
X112777533Y-83147068D01*
X112625732Y-83332246D01*
X112549565Y-83577703D01*
X85824726Y-83577703D01*
X85816584Y-83422357D01*
X85707829Y-83194347D01*
X85520097Y-83025312D01*
X85194643Y-82732272D01*
X84970444Y-82744022D01*
X84067620Y-83746710D01*
X83688023Y-83746710D01*
X82817686Y-82963055D01*
X82593487Y-82974805D01*
X82031043Y-83599462D01*
X81946717Y-83837590D01*
X81959938Y-84089863D01*
X82068693Y-84317873D01*
X82136909Y-84379296D01*
X81807697Y-84515323D01*
X81544448Y-84778113D01*
X81520089Y-84836775D01*
X81477917Y-84811090D01*
X81224248Y-84769825D01*
X80974510Y-84830503D01*
X80768055Y-84983562D01*
X79429793Y-86469852D01*
X79305241Y-86674354D01*
X79263976Y-86928023D01*
X78917221Y-86928023D01*
X79171357Y-86560939D01*
X79171359Y-86560935D01*
X79614573Y-85920738D01*
X80005617Y-85431934D01*
X80007078Y-85429116D01*
X80009486Y-85427053D01*
X80554978Y-84732791D01*
X80947061Y-84291698D01*
X80950353Y-84286083D01*
X80955472Y-84282062D01*
X81547324Y-83591568D01*
X82080713Y-83058178D01*
X82614198Y-82550097D01*
X82975895Y-82550097D01*
X82987645Y-82774296D01*
X83878861Y-83576751D01*
X84781686Y-82574063D01*
X84769936Y-82349864D01*
X84444482Y-82056824D01*
X84256750Y-81887789D01*
X84018621Y-81803464D01*
X83766349Y-81816685D01*
X83538339Y-81925440D01*
X82975895Y-82550097D01*
X82614198Y-82550097D01*
X83119065Y-82069272D01*
X83857133Y-81478817D01*
X83860435Y-81474894D01*
X83864952Y-81472470D01*
X84700867Y-80784069D01*
X85308671Y-80378866D01*
X86038448Y-80378866D01*
X86098671Y-80628714D01*
X86817122Y-82169437D01*
X86956701Y-82363994D01*
X87174081Y-82501095D01*
X87427675Y-82542820D01*
X87677522Y-82482597D01*
X89180131Y-81781918D01*
X109607677Y-81781918D01*
X109688133Y-81991513D01*
X110456022Y-82333399D01*
X110708553Y-82340012D01*
X110944394Y-82249482D01*
X111127637Y-82075591D01*
X111230386Y-81844812D01*
X111408513Y-81444733D01*
X111328057Y-81235138D01*
X110095456Y-80686349D01*
X109607677Y-81781918D01*
X89180131Y-81781918D01*
X89490137Y-81637360D01*
X89684694Y-81497781D01*
X89821794Y-81280401D01*
X89863520Y-81026808D01*
X89803297Y-80776960D01*
X89794083Y-80757200D01*
X89796367Y-80757202D01*
X90140143Y-80615157D01*
X90399063Y-80356689D01*
X90400248Y-80359231D01*
X90507009Y-80588181D01*
X90693259Y-80758848D01*
X90930643Y-80845248D01*
X91183022Y-80834229D01*
X91944827Y-80478993D01*
X92021612Y-80268026D01*
X91514787Y-79181137D01*
X91496661Y-79189589D01*
X91442665Y-79073792D01*
X91744990Y-79073792D01*
X92251815Y-80160681D01*
X92462782Y-80237467D01*
X93224587Y-79882231D01*
X93395253Y-79695981D01*
X93481655Y-79458598D01*
X93471725Y-79231149D01*
X104470909Y-79231149D01*
X104510052Y-79485154D01*
X104644933Y-79703918D01*
X104854300Y-79852970D01*
X106681391Y-80666443D01*
X106914372Y-80721705D01*
X107168377Y-80682562D01*
X107387141Y-80547681D01*
X107530100Y-80346874D01*
X107563283Y-80427183D01*
X107826073Y-80690432D01*
X108138391Y-80820118D01*
X108133730Y-80998094D01*
X108224262Y-81233934D01*
X108398153Y-81417177D01*
X109166041Y-81759063D01*
X109375636Y-81678607D01*
X109863415Y-80583038D01*
X109845144Y-80574903D01*
X109898836Y-80454308D01*
X110198767Y-80454308D01*
X111431368Y-81003098D01*
X111640963Y-80922642D01*
X111819089Y-80522563D01*
X111921839Y-80291784D01*
X111928452Y-80039252D01*
X111837920Y-79803412D01*
X111664029Y-79620169D01*
X110896141Y-79278283D01*
X110686546Y-79358739D01*
X110198767Y-80454308D01*
X109898836Y-80454308D01*
X109948455Y-80342862D01*
X109966726Y-80350997D01*
X110454505Y-79255428D01*
X110374049Y-79045833D01*
X109606160Y-78703947D01*
X109353629Y-78697334D01*
X109117788Y-78787864D01*
X108934545Y-78961755D01*
X108872865Y-79100292D01*
X108543199Y-78963402D01*
X108460937Y-78963330D01*
X108238239Y-78740633D01*
X108282909Y-78552305D01*
X108243766Y-78298300D01*
X108108885Y-78079536D01*
X107899518Y-77930484D01*
X106072427Y-77117011D01*
X105839446Y-77061749D01*
X105585441Y-77100892D01*
X105366677Y-77235773D01*
X105217624Y-77445139D01*
X104526171Y-78998166D01*
X104470909Y-79231149D01*
X93471725Y-79231149D01*
X93470636Y-79206219D01*
X93363874Y-78977269D01*
X93178792Y-78580360D01*
X92967825Y-78503574D01*
X91744990Y-79073792D01*
X91442665Y-79073792D01*
X91389316Y-78959386D01*
X91407442Y-78950934D01*
X90900617Y-77864045D01*
X90689650Y-77787259D01*
X89927845Y-78142495D01*
X89757179Y-78328745D01*
X89670777Y-78566128D01*
X89681796Y-78818507D01*
X89713795Y-78887129D01*
X89426033Y-78886878D01*
X89082257Y-79028923D01*
X88997101Y-79113931D01*
X88945267Y-79041680D01*
X88727887Y-78904579D01*
X88474293Y-78862854D01*
X88224446Y-78923077D01*
X86411831Y-79768314D01*
X86217274Y-79907893D01*
X86080174Y-80125273D01*
X86038448Y-80378866D01*
X85308671Y-80378866D01*
X85433037Y-80295956D01*
X85447182Y-80281840D01*
X85465200Y-80273200D01*
X86041984Y-79840612D01*
X86616148Y-79505683D01*
X86619490Y-79502726D01*
X86623692Y-79501220D01*
X87125198Y-79200317D01*
X87465235Y-79006009D01*
X88202430Y-78612838D01*
X89041093Y-78218173D01*
X89830285Y-77872902D01*
X90132410Y-77756700D01*
X91130820Y-77756700D01*
X91637645Y-78843589D01*
X92860480Y-78273372D01*
X92937266Y-78062405D01*
X92752184Y-77665495D01*
X92645423Y-77436545D01*
X92459173Y-77265878D01*
X92221789Y-77179478D01*
X91969410Y-77190497D01*
X91207605Y-77545733D01*
X91130820Y-77756700D01*
X90132410Y-77756700D01*
X90475675Y-77624675D01*
X90479749Y-77622100D01*
X90484487Y-77621218D01*
X90728041Y-77523797D01*
X91260920Y-77330023D01*
X92056735Y-77081331D01*
X92697440Y-76884191D01*
X93272212Y-76740498D01*
X93763637Y-76642213D01*
X93763643Y-76642213D01*
X94019472Y-76535930D01*
X94215156Y-76339837D01*
X94320902Y-76083786D01*
X94320613Y-75806757D01*
X94214330Y-75550928D01*
X94018237Y-75355244D01*
X93882232Y-75264574D01*
X93735168Y-75154276D01*
X93426250Y-74845358D01*
X93332845Y-74689683D01*
X93205850Y-74435692D01*
X93133115Y-74253854D01*
X93098099Y-74113792D01*
X93064400Y-73945298D01*
X93064400Y-71952302D01*
X93101412Y-71767243D01*
X93101433Y-71747260D01*
X93108064Y-71728409D01*
X93146828Y-71457063D01*
X93177743Y-71379776D01*
X93290649Y-71238643D01*
X93416334Y-71112958D01*
X93601128Y-70989762D01*
X93786487Y-70915619D01*
X93786516Y-70915600D01*
X95467396Y-70915600D01*
X95585800Y-70945201D01*
X95614447Y-70946595D01*
X95641277Y-70956740D01*
X95840770Y-70989989D01*
X95846878Y-70993043D01*
X95895806Y-71006442D01*
X95939878Y-71031565D01*
X96244678Y-71133165D01*
X96260217Y-71135124D01*
X96274148Y-71142282D01*
X96614916Y-71239644D01*
X96704808Y-71269608D01*
X96862879Y-71348644D01*
X96911808Y-71362043D01*
X96955878Y-71387165D01*
X97108277Y-71437964D01*
X97108278Y-71437965D01*
X97260679Y-71488765D01*
X97373582Y-71502998D01*
X97485200Y-71525200D01*
X97510223Y-71520223D01*
X97535531Y-71523413D01*
X97645293Y-71493355D01*
X97756905Y-71471154D01*
X97778114Y-71456983D01*
X97802722Y-71450244D01*
X97892628Y-71380467D01*
X97987246Y-71317246D01*
X98001420Y-71296033D01*
X98021572Y-71280393D01*
X98077930Y-71181527D01*
X98141154Y-71086905D01*
X98146131Y-71061886D01*
X98158765Y-71039722D01*
X98172999Y-70926811D01*
X98195200Y-70815200D01*
X98195200Y-70510057D01*
X98238864Y-70204409D01*
X98282805Y-69896821D01*
X98371082Y-69587852D01*
X98372066Y-69575870D01*
X98377201Y-69565000D01*
X98475930Y-69170084D01*
X98570044Y-68840685D01*
X98650809Y-68598391D01*
X98729844Y-68440321D01*
X98735430Y-68419923D01*
X98747393Y-68402483D01*
X98891576Y-68066056D01*
X99129342Y-67590524D01*
X99352299Y-67189201D01*
X99597724Y-66861968D01*
X100020331Y-66439360D01*
X100257955Y-66280944D01*
X100626895Y-66050357D01*
X100650008Y-66038800D01*
X101657467Y-66038800D01*
X101783874Y-66092975D01*
X101783874Y-66092975D01*
G37*
X101783874Y-66092975D02*
X102005283Y-66277482D01*
X102274680Y-66508394D01*
X102467701Y-66817227D01*
X102587512Y-67016912D01*
X102754502Y-67434388D01*
X102896218Y-67954013D01*
X102898161Y-67957910D01*
X102898518Y-67962252D01*
X102990508Y-68284217D01*
X103074400Y-68745622D01*
X103074400Y-68986400D01*
X103079402Y-69011545D01*
X103076204Y-69036985D01*
X103125200Y-69722929D01*
X103125200Y-70533928D01*
X103076491Y-71167145D01*
X103079783Y-71194540D01*
X103074400Y-71221600D01*
X103074400Y-71421303D01*
X102988561Y-71979256D01*
X102851045Y-72437643D01*
X102661111Y-73054929D01*
X102475194Y-73473242D01*
X102294113Y-73880675D01*
X101898395Y-74496235D01*
X101430243Y-75011202D01*
X101387309Y-75082590D01*
X101333663Y-75146319D01*
X101316587Y-75200181D01*
X101287465Y-75248603D01*
X101275117Y-75330988D01*
X101249943Y-75410394D01*
X101254779Y-75466688D01*
X101246403Y-75522571D01*
X101266524Y-75603412D01*
X101273653Y-75686405D01*
X101299665Y-75736566D01*
X101313312Y-75791398D01*
X101362833Y-75858380D01*
X101401183Y-75932334D01*
X101444412Y-75968723D01*
X101478002Y-76014157D01*
X101549390Y-76057091D01*
X101613119Y-76110737D01*
X101666981Y-76127813D01*
X101715403Y-76156935D01*
X101797788Y-76169283D01*
X101877194Y-76194457D01*
X102309956Y-76242542D01*
X102844591Y-76339748D01*
X102846467Y-76339717D01*
X102848212Y-76340396D01*
X103707079Y-76491961D01*
X104743893Y-76689449D01*
X105466558Y-76882160D01*
X106265025Y-77131681D01*
X107058879Y-77379760D01*
X107845903Y-77674894D01*
X108573288Y-77965848D01*
X109156479Y-78257444D01*
X109170665Y-78261329D01*
X109182641Y-78269864D01*
X110167438Y-78713023D01*
X110489492Y-78897053D01*
X112187421Y-79895835D01*
X113867317Y-81081644D01*
X115641930Y-82560488D01*
X117370779Y-84388129D01*
X118355428Y-85618940D01*
X119196838Y-86806813D01*
X119888245Y-87893310D01*
X120327499Y-88674205D01*
X120726157Y-89471522D01*
X121021624Y-90062456D01*
X121465338Y-91097788D01*
X121957190Y-92376604D01*
X122253318Y-93413052D01*
X122255491Y-93417282D01*
X122255943Y-93422017D01*
X122401746Y-93908026D01*
X122487563Y-94279903D01*
X122482846Y-94266942D01*
X122333673Y-94321237D01*
X122428551Y-94117768D01*
X122141063Y-93327901D01*
X121970397Y-93141651D01*
X121741446Y-93034889D01*
X121489068Y-93023870D01*
X121483449Y-93025915D01*
X121483562Y-92895673D01*
X121341517Y-92551897D01*
X121161224Y-92371289D01*
X121330938Y-92270694D01*
X121486463Y-92066090D01*
X121550132Y-91817098D01*
X121511914Y-91562953D01*
X120827874Y-89683568D01*
X120705783Y-89477586D01*
X120501179Y-89322061D01*
X120252187Y-89258392D01*
X119998041Y-89296610D01*
X118400563Y-89878045D01*
X118194582Y-90000136D01*
X118039057Y-90204740D01*
X117975388Y-90453732D01*
X118013606Y-90707877D01*
X118697646Y-92587262D01*
X118819737Y-92793244D01*
X119024341Y-92948769D01*
X119273333Y-93012438D01*
X119418693Y-92990579D01*
X119613308Y-93185195D01*
X119613238Y-93266007D01*
X119755283Y-93609783D01*
X119788330Y-93642888D01*
X119654206Y-93691705D01*
X119467956Y-93862372D01*
X119361195Y-94091323D01*
X119350176Y-94343701D01*
X119637664Y-95133568D01*
X119841136Y-95228448D01*
X120968062Y-94818281D01*
X120961221Y-94799486D01*
X121199904Y-94712614D01*
X121206744Y-94731407D01*
X121225539Y-94724566D01*
X121312411Y-94963249D01*
X121293618Y-94970089D01*
X121755088Y-96237970D01*
X121958560Y-96332850D01*
X122370090Y-96183066D01*
X122607474Y-96096665D01*
X122793724Y-95925998D01*
X122824645Y-95859687D01*
X122846404Y-95982988D01*
X122847083Y-95984733D01*
X122847052Y-95986609D01*
X122946243Y-96532160D01*
X123045936Y-97230009D01*
X123142917Y-97908876D01*
X123182371Y-98697954D01*
X123174302Y-98682624D01*
X122975546Y-98519691D01*
X122729060Y-98446923D01*
X121035529Y-98298758D01*
X120797249Y-98322358D01*
X120569826Y-98442064D01*
X120406893Y-98640820D01*
X120334125Y-98887306D01*
X120159814Y-100879695D01*
X120183414Y-101117975D01*
X120303120Y-101345398D01*
X120501876Y-101508331D01*
X120748362Y-101581099D01*
X120901231Y-101594473D01*
X120797202Y-101845001D01*
X120796878Y-102216967D01*
X120834893Y-102308970D01*
X120811652Y-102306937D01*
X120559994Y-102284920D01*
X120319067Y-102360884D01*
X120125550Y-102523264D01*
X120008904Y-102747340D01*
X119935645Y-103584700D01*
X120079955Y-103756682D01*
X121274641Y-103861203D01*
X121276384Y-103841279D01*
X121529418Y-103863417D01*
X121527675Y-103883341D01*
X122722361Y-103987863D01*
X122894343Y-103843553D01*
X122967602Y-103006192D01*
X122891638Y-102765266D01*
X122729259Y-102571748D01*
X122557388Y-102482278D01*
X122666878Y-102218599D01*
X122667202Y-101846633D01*
X122611755Y-101712440D01*
X122680173Y-101705664D01*
X122907596Y-101585958D01*
X123070529Y-101387202D01*
X123143297Y-101140716D01*
X123191200Y-100593181D01*
X123191200Y-101480664D01*
X123142605Y-102452557D01*
X123045365Y-103230479D01*
X122897341Y-104217305D01*
X122836260Y-104507440D01*
X122844533Y-104412878D01*
X122700223Y-104240896D01*
X121505537Y-104136375D01*
X121387942Y-105480490D01*
X121532252Y-105652472D01*
X121968526Y-105690641D01*
X122220184Y-105712658D01*
X122461111Y-105636694D01*
X122623139Y-105500737D01*
X122499884Y-106055382D01*
X122253495Y-106991663D01*
X122008172Y-107776696D01*
X121708163Y-108626721D01*
X121464549Y-109308840D01*
X121222840Y-109840600D01*
X121221048Y-109848242D01*
X121216607Y-109854717D01*
X120920024Y-110546744D01*
X120527763Y-111331266D01*
X120193111Y-111952762D01*
X120110044Y-112077363D01*
X120083490Y-112141659D01*
X120044846Y-112199495D01*
X120031132Y-112268438D01*
X120004298Y-112333414D01*
X120004371Y-112402977D01*
X119990800Y-112471200D01*
X119990800Y-113965674D01*
X119945154Y-114513431D01*
X119802743Y-115320423D01*
X119612213Y-116082544D01*
X119468435Y-116513878D01*
X119279023Y-117082113D01*
X118808461Y-118070293D01*
X118476200Y-118592418D01*
X118139162Y-119122049D01*
X117264531Y-120239633D01*
X116647674Y-120903942D01*
X115763476Y-121689895D01*
X115083548Y-122272691D01*
X114606477Y-122606641D01*
X113814270Y-123151283D01*
X113071108Y-123597180D01*
X112586488Y-123887952D01*
X112102878Y-124129757D01*
X112090506Y-124139359D01*
X112075594Y-124144148D01*
X111640267Y-124385996D01*
X110908743Y-124727374D01*
X110118523Y-125073095D01*
X108832324Y-125567787D01*
X107751894Y-125911560D01*
X106813110Y-126158609D01*
X105967468Y-126357583D01*
X104773445Y-126606338D01*
X103534391Y-126804587D01*
X102687653Y-126904203D01*
X101799324Y-127002906D01*
X100670170Y-127052000D01*
X97860510Y-127052000D01*
X96976858Y-127002908D01*
X95839014Y-126903965D01*
X94452923Y-126705952D01*
X93158873Y-126457096D01*
X92720720Y-126359729D01*
X91917002Y-126158800D01*
X91917001Y-126158799D01*
X91510602Y-126057200D01*
X91510601Y-126057199D01*
X91125931Y-125961032D01*
X90039352Y-125615302D01*
X89050255Y-125269118D01*
X87966566Y-124825791D01*
X87127149Y-124430771D01*
X86239739Y-123987066D01*
X85918164Y-123800890D01*
X96983524Y-123800890D01*
X97153355Y-124210924D01*
X97543642Y-124639183D01*
X98068108Y-124885486D01*
X98298000Y-124764819D01*
X98298000Y-123571000D01*
X97104845Y-123571000D01*
X96983524Y-123800890D01*
X85918164Y-123800890D01*
X85309182Y-123448321D01*
X84331308Y-122812703D01*
X83499450Y-122176576D01*
X82672215Y-121495323D01*
X82340846Y-121163954D01*
X82340843Y-121163952D01*
X82080892Y-120904000D01*
X96910907Y-120904000D01*
X97023946Y-121472285D01*
X97345853Y-121954054D01*
X97686553Y-122181702D01*
X97543642Y-122248817D01*
X97153355Y-122677076D01*
X96983524Y-123087110D01*
X97104845Y-123317000D01*
X98298000Y-123317000D01*
X98298000Y-123297000D01*
X98552000Y-123297000D01*
X98552000Y-123317000D01*
X98572000Y-123317000D01*
X98572000Y-123571000D01*
X98552000Y-123571000D01*
X98552000Y-124764819D01*
X98781892Y-124885486D01*
X99306358Y-124639183D01*
X99696645Y-124210924D01*
X99696655Y-124210899D01*
X99885853Y-124494054D01*
X100367622Y-124815961D01*
X100935907Y-124929000D01*
X100994093Y-124929000D01*
X101562378Y-124815961D01*
X102044147Y-124494054D01*
X102366054Y-124012285D01*
X102479093Y-123444000D01*
X102366054Y-122875715D01*
X102044147Y-122393946D01*
X101739840Y-122190615D01*
X101805086Y-122163656D01*
X102223188Y-121746283D01*
X102449742Y-121200681D01*
X102450257Y-120609911D01*
X102224656Y-120063914D01*
X101807283Y-119645812D01*
X101261681Y-119419258D01*
X100670911Y-119418743D01*
X100124914Y-119644344D01*
X99706812Y-120061717D01*
X99682345Y-120120639D01*
X99504147Y-119853946D01*
X99022378Y-119532039D01*
X98454093Y-119419000D01*
X98395907Y-119419000D01*
X97827622Y-119532039D01*
X97345853Y-119853946D01*
X97023946Y-120335715D01*
X96910907Y-120904000D01*
X82080892Y-120904000D01*
X81842140Y-120665248D01*
X81213782Y-119988556D01*
X80594335Y-119178510D01*
X80109826Y-118403297D01*
X79776810Y-117832412D01*
X79489234Y-117209332D01*
X79155583Y-116446701D01*
X78972388Y-115805520D01*
X78779855Y-114890989D01*
X78688000Y-114202074D01*
X78688000Y-113334800D01*
X78680004Y-113294602D01*
X78683359Y-113253753D01*
X78653197Y-113159835D01*
X78633954Y-113063095D01*
X78611185Y-113029018D01*
X78598652Y-112989994D01*
X78344652Y-112532794D01*
X78341834Y-112529471D01*
X78340452Y-112525341D01*
X77934053Y-111814141D01*
X77931934Y-111811703D01*
X77930883Y-111808651D01*
X77591076Y-111226125D01*
X77198493Y-110391887D01*
X76856585Y-109659226D01*
X76664053Y-109129762D01*
X76656234Y-109116867D01*
X76653322Y-109102068D01*
X76309588Y-108267289D01*
X76064881Y-107484225D01*
X76064362Y-107483274D01*
X76064244Y-107482197D01*
X75768772Y-106546536D01*
X75572293Y-105662379D01*
X75572293Y-105662378D01*
X75525152Y-105450246D01*
X75648923Y-105610037D01*
X75872952Y-105735981D01*
X76128329Y-105764842D01*
X77821860Y-105616677D01*
X78052422Y-105552059D01*
X78255603Y-105394679D01*
X78381547Y-105170651D01*
X78401806Y-104991386D01*
X119812576Y-104991386D01*
X119888540Y-105232312D01*
X120050919Y-105425830D01*
X120274995Y-105542476D01*
X120526652Y-105564494D01*
X120962927Y-105602663D01*
X121134909Y-105458353D01*
X121252503Y-104114237D01*
X120057817Y-104009715D01*
X119885835Y-104154025D01*
X119812576Y-104991386D01*
X78401806Y-104991386D01*
X78410408Y-104915273D01*
X78236097Y-102922884D01*
X78171479Y-102692322D01*
X78014099Y-102489141D01*
X77790070Y-102363197D01*
X77566511Y-102337932D01*
X77566511Y-102231511D01*
X77548827Y-102142609D01*
X77566510Y-102053711D01*
X77546531Y-101953271D01*
X77546642Y-101826313D01*
X77461574Y-101620433D01*
X77597983Y-101608498D01*
X77822059Y-101491852D01*
X77984438Y-101298334D01*
X78060402Y-101057408D01*
X77987143Y-100220047D01*
X77815161Y-100075737D01*
X76620475Y-100180259D01*
X76622218Y-100200183D01*
X76369184Y-100222321D01*
X76367441Y-100202397D01*
X75172755Y-100306918D01*
X75028445Y-100478900D01*
X75101704Y-101316260D01*
X75218350Y-101540336D01*
X75411867Y-101702716D01*
X75652794Y-101778680D01*
X75697362Y-101774781D01*
X75676642Y-101824681D01*
X75676318Y-102196647D01*
X75799280Y-102494239D01*
X75610600Y-102547119D01*
X75407419Y-102704499D01*
X75281475Y-102928527D01*
X75252614Y-103183905D01*
X75402673Y-104899088D01*
X75373216Y-104766534D01*
X75325540Y-104480477D01*
X75323660Y-104475506D01*
X75323748Y-104470191D01*
X75223623Y-103919505D01*
X75076163Y-102985593D01*
X75028510Y-102461411D01*
X74979600Y-101629932D01*
X74979600Y-99910385D01*
X75150617Y-100053885D01*
X76345303Y-99949363D01*
X76227709Y-98605247D01*
X76201328Y-98583110D01*
X76480742Y-98583110D01*
X76598337Y-99927225D01*
X77793023Y-99822704D01*
X77937333Y-99650722D01*
X77864074Y-98813362D01*
X77747428Y-98589286D01*
X77553911Y-98426906D01*
X77312984Y-98350942D01*
X77061326Y-98372959D01*
X76625052Y-98411128D01*
X76480742Y-98583110D01*
X76201328Y-98583110D01*
X76055727Y-98460937D01*
X75619452Y-98499106D01*
X75367795Y-98521124D01*
X75143719Y-98637770D01*
X74981340Y-98831288D01*
X74979600Y-98836807D01*
X74979600Y-98574161D01*
X75027256Y-97811665D01*
X75175120Y-96776617D01*
X75273184Y-96139202D01*
X75369761Y-95680458D01*
X75410297Y-95859447D01*
X75560110Y-96068270D01*
X75779363Y-96202355D01*
X77376841Y-96783790D01*
X77613111Y-96822665D01*
X77863767Y-96765899D01*
X78072589Y-96616086D01*
X78206674Y-96396832D01*
X78471000Y-95670602D01*
X119833129Y-95670602D01*
X120120617Y-96460469D01*
X120291283Y-96646719D01*
X120520234Y-96753481D01*
X120772612Y-96764500D01*
X121009996Y-96678099D01*
X121421526Y-96528315D01*
X121516406Y-96324843D01*
X121054936Y-95056963D01*
X119928009Y-95467130D01*
X119833129Y-95670602D01*
X78471000Y-95670602D01*
X78890714Y-94517447D01*
X78929589Y-94281178D01*
X78872823Y-94030523D01*
X78723010Y-93821700D01*
X78530088Y-93703718D01*
X78663512Y-93570527D01*
X78806158Y-93226999D01*
X78806326Y-93034130D01*
X78867868Y-93056530D01*
X79120246Y-93045511D01*
X79349197Y-92938749D01*
X79519863Y-92752499D01*
X79807351Y-91962632D01*
X79712471Y-91759160D01*
X78585544Y-91348993D01*
X78578704Y-91367786D01*
X78340021Y-91280913D01*
X78346862Y-91262119D01*
X77929773Y-91110311D01*
X78672418Y-91110311D01*
X79799344Y-91520478D01*
X80002816Y-91425598D01*
X80290304Y-90635731D01*
X80279285Y-90383353D01*
X80172524Y-90154402D01*
X79986274Y-89983735D01*
X79748890Y-89897334D01*
X79337360Y-89747550D01*
X79133888Y-89842430D01*
X78672418Y-91110311D01*
X77929773Y-91110311D01*
X77219936Y-90851952D01*
X77016464Y-90946832D01*
X76728976Y-91736699D01*
X76739995Y-91989077D01*
X76846756Y-92218028D01*
X77033006Y-92388695D01*
X77155760Y-92433374D01*
X77079128Y-92509873D01*
X76936482Y-92853401D01*
X76936410Y-92935663D01*
X76785729Y-93086345D01*
X76670009Y-93067305D01*
X76419353Y-93124071D01*
X76210531Y-93273884D01*
X76076446Y-93493138D01*
X75484373Y-95119845D01*
X75525013Y-94835366D01*
X75665782Y-94319213D01*
X75666668Y-94306561D01*
X75671926Y-94295018D01*
X75867749Y-93462769D01*
X76162365Y-92578922D01*
X76164324Y-92563383D01*
X76171482Y-92549452D01*
X76261707Y-92233664D01*
X76499785Y-91662277D01*
X76503461Y-91643997D01*
X76513037Y-91627999D01*
X76752618Y-90957171D01*
X76987443Y-90487522D01*
X77026305Y-90409798D01*
X77211929Y-90409798D01*
X77306809Y-90613270D01*
X78433736Y-91023437D01*
X78895206Y-89755557D01*
X78800326Y-89552085D01*
X78388796Y-89402301D01*
X78151412Y-89315900D01*
X77899034Y-89326919D01*
X77670083Y-89433681D01*
X77499417Y-89619931D01*
X77211929Y-90409798D01*
X77026305Y-90409798D01*
X77038243Y-90385922D01*
X77043829Y-90365524D01*
X77055793Y-90348083D01*
X77208193Y-89992483D01*
X77208949Y-89988910D01*
X77210985Y-89985877D01*
X77446761Y-89420014D01*
X77778483Y-88851349D01*
X77780951Y-88844184D01*
X77785852Y-88838406D01*
X78037757Y-88384977D01*
X78438296Y-87684032D01*
X78727324Y-87202318D01*
X78917221Y-86928023D01*
X79263976Y-86928023D01*
X79324654Y-87177761D01*
X79477713Y-87384216D01*
X80741059Y-88521738D01*
X80945561Y-88646290D01*
X81199230Y-88687555D01*
X81448968Y-88626877D01*
X81655423Y-88473818D01*
X81991716Y-88100326D01*
X116104876Y-88100326D01*
X116645176Y-88744231D01*
X116869252Y-88860877D01*
X117120909Y-88882895D01*
X117361836Y-88806932D01*
X117555353Y-88644551D01*
X117890836Y-88363048D01*
X117910403Y-88139396D01*
X117043121Y-87105811D01*
X116124443Y-87876674D01*
X116104876Y-88100326D01*
X81991716Y-88100326D01*
X82993685Y-86987528D01*
X83118237Y-86783026D01*
X83159502Y-86529357D01*
X83098824Y-86279619D01*
X82945765Y-86073164D01*
X82918562Y-86048670D01*
X83128832Y-85838767D01*
X83271478Y-85495239D01*
X83271560Y-85400940D01*
X83332040Y-85455396D01*
X83519772Y-85624431D01*
X83757901Y-85708756D01*
X84010173Y-85695535D01*
X84238183Y-85586780D01*
X84800627Y-84962123D01*
X84788877Y-84737924D01*
X83897661Y-83935469D01*
X83884279Y-83950332D01*
X83695520Y-83780373D01*
X83708902Y-83765510D01*
X83688023Y-83746710D01*
X84067620Y-83746710D01*
X84958836Y-84549165D01*
X85183035Y-84537415D01*
X85745479Y-83912758D01*
X85829805Y-83674630D01*
X85824726Y-83577703D01*
X112549565Y-83577703D01*
X112574895Y-83833455D01*
X112697732Y-84059202D01*
X113983307Y-85591291D01*
X114168485Y-85743093D01*
X114413942Y-85819260D01*
X114669694Y-85793930D01*
X114872188Y-85683746D01*
X114990243Y-85969463D01*
X115253033Y-86232712D01*
X115312852Y-86257551D01*
X115259920Y-86301966D01*
X115143274Y-86526042D01*
X115121258Y-86777699D01*
X115197222Y-87018626D01*
X115737522Y-87662531D01*
X115961175Y-87682098D01*
X116842541Y-86942543D01*
X117237697Y-86942543D01*
X118104978Y-87976128D01*
X118328630Y-87995695D01*
X118664112Y-87714192D01*
X118857630Y-87551812D01*
X118974276Y-87327736D01*
X118996292Y-87076079D01*
X118920328Y-86835152D01*
X118380028Y-86191247D01*
X118156375Y-86171680D01*
X117237697Y-86942543D01*
X116842541Y-86942543D01*
X116879853Y-86911235D01*
X116866998Y-86895915D01*
X117061573Y-86732646D01*
X117074429Y-86747967D01*
X117993107Y-85977104D01*
X118012674Y-85753452D01*
X117472374Y-85109547D01*
X117248298Y-84992901D01*
X116996641Y-84970883D01*
X116755714Y-85046846D01*
X116664124Y-85123700D01*
X116576477Y-84911577D01*
X116313687Y-84648328D01*
X116180322Y-84592950D01*
X116197717Y-84578354D01*
X116349518Y-84393176D01*
X116425685Y-84147719D01*
X116400355Y-83891967D01*
X116277518Y-83666220D01*
X114991943Y-82134131D01*
X114806765Y-81982329D01*
X114561308Y-81906162D01*
X114305556Y-81931492D01*
X114079808Y-82054329D01*
X112777533Y-83147068D01*
X112625732Y-83332246D01*
X112549565Y-83577703D01*
X85824726Y-83577703D01*
X85816584Y-83422357D01*
X85707829Y-83194347D01*
X85520097Y-83025312D01*
X85194643Y-82732272D01*
X84970444Y-82744022D01*
X84067620Y-83746710D01*
X83688023Y-83746710D01*
X82817686Y-82963055D01*
X82593487Y-82974805D01*
X82031043Y-83599462D01*
X81946717Y-83837590D01*
X81959938Y-84089863D01*
X82068693Y-84317873D01*
X82136909Y-84379296D01*
X81807697Y-84515323D01*
X81544448Y-84778113D01*
X81520089Y-84836775D01*
X81477917Y-84811090D01*
X81224248Y-84769825D01*
X80974510Y-84830503D01*
X80768055Y-84983562D01*
X79429793Y-86469852D01*
X79305241Y-86674354D01*
X79263976Y-86928023D01*
X78917221Y-86928023D01*
X79171357Y-86560939D01*
X79171359Y-86560935D01*
X79614573Y-85920738D01*
X80005617Y-85431934D01*
X80007078Y-85429116D01*
X80009486Y-85427053D01*
X80554978Y-84732791D01*
X80947061Y-84291698D01*
X80950353Y-84286083D01*
X80955472Y-84282062D01*
X81547324Y-83591568D01*
X82080713Y-83058178D01*
X82614198Y-82550097D01*
X82975895Y-82550097D01*
X82987645Y-82774296D01*
X83878861Y-83576751D01*
X84781686Y-82574063D01*
X84769936Y-82349864D01*
X84444482Y-82056824D01*
X84256750Y-81887789D01*
X84018621Y-81803464D01*
X83766349Y-81816685D01*
X83538339Y-81925440D01*
X82975895Y-82550097D01*
X82614198Y-82550097D01*
X83119065Y-82069272D01*
X83857133Y-81478817D01*
X83860435Y-81474894D01*
X83864952Y-81472470D01*
X84700867Y-80784069D01*
X85308671Y-80378866D01*
X86038448Y-80378866D01*
X86098671Y-80628714D01*
X86817122Y-82169437D01*
X86956701Y-82363994D01*
X87174081Y-82501095D01*
X87427675Y-82542820D01*
X87677522Y-82482597D01*
X89180131Y-81781918D01*
X109607677Y-81781918D01*
X109688133Y-81991513D01*
X110456022Y-82333399D01*
X110708553Y-82340012D01*
X110944394Y-82249482D01*
X111127637Y-82075591D01*
X111230386Y-81844812D01*
X111408513Y-81444733D01*
X111328057Y-81235138D01*
X110095456Y-80686349D01*
X109607677Y-81781918D01*
X89180131Y-81781918D01*
X89490137Y-81637360D01*
X89684694Y-81497781D01*
X89821794Y-81280401D01*
X89863520Y-81026808D01*
X89803297Y-80776960D01*
X89794083Y-80757200D01*
X89796367Y-80757202D01*
X90140143Y-80615157D01*
X90399063Y-80356689D01*
X90400248Y-80359231D01*
X90507009Y-80588181D01*
X90693259Y-80758848D01*
X90930643Y-80845248D01*
X91183022Y-80834229D01*
X91944827Y-80478993D01*
X92021612Y-80268026D01*
X91514787Y-79181137D01*
X91496661Y-79189589D01*
X91442665Y-79073792D01*
X91744990Y-79073792D01*
X92251815Y-80160681D01*
X92462782Y-80237467D01*
X93224587Y-79882231D01*
X93395253Y-79695981D01*
X93481655Y-79458598D01*
X93471725Y-79231149D01*
X104470909Y-79231149D01*
X104510052Y-79485154D01*
X104644933Y-79703918D01*
X104854300Y-79852970D01*
X106681391Y-80666443D01*
X106914372Y-80721705D01*
X107168377Y-80682562D01*
X107387141Y-80547681D01*
X107530100Y-80346874D01*
X107563283Y-80427183D01*
X107826073Y-80690432D01*
X108138391Y-80820118D01*
X108133730Y-80998094D01*
X108224262Y-81233934D01*
X108398153Y-81417177D01*
X109166041Y-81759063D01*
X109375636Y-81678607D01*
X109863415Y-80583038D01*
X109845144Y-80574903D01*
X109898836Y-80454308D01*
X110198767Y-80454308D01*
X111431368Y-81003098D01*
X111640963Y-80922642D01*
X111819089Y-80522563D01*
X111921839Y-80291784D01*
X111928452Y-80039252D01*
X111837920Y-79803412D01*
X111664029Y-79620169D01*
X110896141Y-79278283D01*
X110686546Y-79358739D01*
X110198767Y-80454308D01*
X109898836Y-80454308D01*
X109948455Y-80342862D01*
X109966726Y-80350997D01*
X110454505Y-79255428D01*
X110374049Y-79045833D01*
X109606160Y-78703947D01*
X109353629Y-78697334D01*
X109117788Y-78787864D01*
X108934545Y-78961755D01*
X108872865Y-79100292D01*
X108543199Y-78963402D01*
X108460937Y-78963330D01*
X108238239Y-78740633D01*
X108282909Y-78552305D01*
X108243766Y-78298300D01*
X108108885Y-78079536D01*
X107899518Y-77930484D01*
X106072427Y-77117011D01*
X105839446Y-77061749D01*
X105585441Y-77100892D01*
X105366677Y-77235773D01*
X105217624Y-77445139D01*
X104526171Y-78998166D01*
X104470909Y-79231149D01*
X93471725Y-79231149D01*
X93470636Y-79206219D01*
X93363874Y-78977269D01*
X93178792Y-78580360D01*
X92967825Y-78503574D01*
X91744990Y-79073792D01*
X91442665Y-79073792D01*
X91389316Y-78959386D01*
X91407442Y-78950934D01*
X90900617Y-77864045D01*
X90689650Y-77787259D01*
X89927845Y-78142495D01*
X89757179Y-78328745D01*
X89670777Y-78566128D01*
X89681796Y-78818507D01*
X89713795Y-78887129D01*
X89426033Y-78886878D01*
X89082257Y-79028923D01*
X88997101Y-79113931D01*
X88945267Y-79041680D01*
X88727887Y-78904579D01*
X88474293Y-78862854D01*
X88224446Y-78923077D01*
X86411831Y-79768314D01*
X86217274Y-79907893D01*
X86080174Y-80125273D01*
X86038448Y-80378866D01*
X85308671Y-80378866D01*
X85433037Y-80295956D01*
X85447182Y-80281840D01*
X85465200Y-80273200D01*
X86041984Y-79840612D01*
X86616148Y-79505683D01*
X86619490Y-79502726D01*
X86623692Y-79501220D01*
X87125198Y-79200317D01*
X87465235Y-79006009D01*
X88202430Y-78612838D01*
X89041093Y-78218173D01*
X89830285Y-77872902D01*
X90132410Y-77756700D01*
X91130820Y-77756700D01*
X91637645Y-78843589D01*
X92860480Y-78273372D01*
X92937266Y-78062405D01*
X92752184Y-77665495D01*
X92645423Y-77436545D01*
X92459173Y-77265878D01*
X92221789Y-77179478D01*
X91969410Y-77190497D01*
X91207605Y-77545733D01*
X91130820Y-77756700D01*
X90132410Y-77756700D01*
X90475675Y-77624675D01*
X90479749Y-77622100D01*
X90484487Y-77621218D01*
X90728041Y-77523797D01*
X91260920Y-77330023D01*
X92056735Y-77081331D01*
X92697440Y-76884191D01*
X93272212Y-76740498D01*
X93763637Y-76642213D01*
X93763643Y-76642213D01*
X94019472Y-76535930D01*
X94215156Y-76339837D01*
X94320902Y-76083786D01*
X94320613Y-75806757D01*
X94214330Y-75550928D01*
X94018237Y-75355244D01*
X93882232Y-75264574D01*
X93735168Y-75154276D01*
X93426250Y-74845358D01*
X93332845Y-74689683D01*
X93205850Y-74435692D01*
X93133115Y-74253854D01*
X93098099Y-74113792D01*
X93064400Y-73945298D01*
X93064400Y-71952302D01*
X93101412Y-71767243D01*
X93101433Y-71747260D01*
X93108064Y-71728409D01*
X93146828Y-71457063D01*
X93177743Y-71379776D01*
X93290649Y-71238643D01*
X93416334Y-71112958D01*
X93601128Y-70989762D01*
X93786487Y-70915619D01*
X93786516Y-70915600D01*
X95467396Y-70915600D01*
X95585800Y-70945201D01*
X95614447Y-70946595D01*
X95641277Y-70956740D01*
X95840770Y-70989989D01*
X95846878Y-70993043D01*
X95895806Y-71006442D01*
X95939878Y-71031565D01*
X96244678Y-71133165D01*
X96260217Y-71135124D01*
X96274148Y-71142282D01*
X96614916Y-71239644D01*
X96704808Y-71269608D01*
X96862879Y-71348644D01*
X96911808Y-71362043D01*
X96955878Y-71387165D01*
X97108277Y-71437964D01*
X97108278Y-71437965D01*
X97260679Y-71488765D01*
X97373582Y-71502998D01*
X97485200Y-71525200D01*
X97510223Y-71520223D01*
X97535531Y-71523413D01*
X97645293Y-71493355D01*
X97756905Y-71471154D01*
X97778114Y-71456983D01*
X97802722Y-71450244D01*
X97892628Y-71380467D01*
X97987246Y-71317246D01*
X98001420Y-71296033D01*
X98021572Y-71280393D01*
X98077930Y-71181527D01*
X98141154Y-71086905D01*
X98146131Y-71061886D01*
X98158765Y-71039722D01*
X98172999Y-70926811D01*
X98195200Y-70815200D01*
X98195200Y-70510057D01*
X98238864Y-70204409D01*
X98282805Y-69896821D01*
X98371082Y-69587852D01*
X98372066Y-69575870D01*
X98377201Y-69565000D01*
X98475930Y-69170084D01*
X98570044Y-68840685D01*
X98650809Y-68598391D01*
X98729844Y-68440321D01*
X98735430Y-68419923D01*
X98747393Y-68402483D01*
X98891576Y-68066056D01*
X99129342Y-67590524D01*
X99352299Y-67189201D01*
X99597724Y-66861968D01*
X100020331Y-66439360D01*
X100257955Y-66280944D01*
X100626895Y-66050357D01*
X100650008Y-66038800D01*
X101657467Y-66038800D01*
X101783874Y-66092975D01*
M02*
