G04 #@! TF.FileFunction,Copper,L2,Bot,Signal*
%FSLAX46Y46*%
G04 Gerber Fmt 4.6, Leading zero omitted, Abs format (unit mm)*
G04 Created by KiCad (PCBNEW 4.0.7) date 05/31/18 14:34:10*
%MOMM*%
%LPD*%
G01*
G04 APERTURE LIST*
%ADD10C,0.100000*%
%ADD11C,1.700000*%
%ADD12O,1.700000X1.700000*%
%ADD13R,0.600000X0.500000*%
%ADD14R,2.000000X1.700000*%
%ADD15R,0.508000X1.143000*%
%ADD16C,0.600000*%
%ADD17C,0.200000*%
%ADD18C,0.500000*%
%ADD19C,0.250000*%
%ADD20C,0.254000*%
G04 APERTURE END LIST*
D10*
D11*
X100406200Y-120421400D03*
D12*
X100406200Y-122961400D03*
X97866200Y-120421400D03*
X97866200Y-122961400D03*
D13*
X115805040Y-99100640D03*
X114705040Y-99100640D03*
D10*
G36*
X111290363Y-80148896D02*
X110598910Y-81701923D01*
X108771819Y-80888450D01*
X109463272Y-79335423D01*
X111290363Y-80148896D01*
X111290363Y-80148896D01*
G37*
G36*
X107636181Y-78521950D02*
X106944728Y-80074977D01*
X105117637Y-79261504D01*
X105809090Y-77708477D01*
X107636181Y-78521950D01*
X107636181Y-78521950D01*
G37*
G36*
X75548968Y-99142699D02*
X77242499Y-98994534D01*
X77416810Y-100986923D01*
X75723279Y-101135088D01*
X75548968Y-99142699D01*
X75548968Y-99142699D01*
G37*
G36*
X75897590Y-103127477D02*
X77591121Y-102979312D01*
X77765432Y-104971701D01*
X76071901Y-105119866D01*
X75897590Y-103127477D01*
X75897590Y-103127477D01*
G37*
G36*
X78052921Y-89955805D02*
X79650399Y-90537240D01*
X78966359Y-92416625D01*
X77368881Y-91835190D01*
X78052921Y-89955805D01*
X78052921Y-89955805D01*
G37*
G36*
X76684841Y-93714575D02*
X78282319Y-94296010D01*
X77598279Y-96175395D01*
X76000801Y-95593960D01*
X76684841Y-93714575D01*
X76684841Y-93714575D01*
G37*
G36*
X83925719Y-82444204D02*
X85189065Y-83581726D01*
X83850803Y-85068016D01*
X82587457Y-83930494D01*
X83925719Y-82444204D01*
X83925719Y-82444204D01*
G37*
G36*
X81249197Y-85416784D02*
X82512543Y-86554306D01*
X81174281Y-88040596D01*
X79910935Y-86903074D01*
X81249197Y-85416784D01*
X81249197Y-85416784D01*
G37*
G36*
X92123298Y-77819383D02*
X92841749Y-79360106D01*
X91029134Y-80205343D01*
X90310683Y-78664620D01*
X92123298Y-77819383D01*
X92123298Y-77819383D01*
G37*
G36*
X88498066Y-79509857D02*
X89216517Y-81050580D01*
X87403902Y-81895817D01*
X86685451Y-80355094D01*
X88498066Y-79509857D01*
X88498066Y-79509857D01*
G37*
D14*
X100755200Y-77876400D03*
X96755200Y-77876400D03*
D10*
G36*
X118352700Y-87146564D02*
X117050425Y-88239303D01*
X115764850Y-86707214D01*
X117067125Y-85614475D01*
X118352700Y-87146564D01*
X118352700Y-87146564D01*
G37*
G36*
X115781550Y-84082386D02*
X114479275Y-85175125D01*
X113193700Y-83643036D01*
X114495975Y-82550297D01*
X115781550Y-84082386D01*
X115781550Y-84082386D01*
G37*
G36*
X122271599Y-95543160D02*
X120674121Y-96124595D01*
X119990081Y-94245210D01*
X121587559Y-93663775D01*
X122271599Y-95543160D01*
X122271599Y-95543160D01*
G37*
G36*
X120903519Y-91784390D02*
X119306041Y-92365825D01*
X118622001Y-90486440D01*
X120219479Y-89905005D01*
X120903519Y-91784390D01*
X120903519Y-91784390D01*
G37*
G36*
X122149699Y-105069066D02*
X120456168Y-104920901D01*
X120630479Y-102928512D01*
X122324010Y-103076677D01*
X122149699Y-105069066D01*
X122149699Y-105069066D01*
G37*
G36*
X122498321Y-101084288D02*
X120804790Y-100936123D01*
X120979101Y-98943734D01*
X122672632Y-99091899D01*
X122498321Y-101084288D01*
X122498321Y-101084288D01*
G37*
D15*
X90766900Y-96024700D03*
X92036900Y-96024700D03*
X93306900Y-96024700D03*
X94576900Y-96024700D03*
X95846900Y-96024700D03*
X97116900Y-96024700D03*
X98386900Y-96024700D03*
X99656900Y-96024700D03*
X100926900Y-96024700D03*
X102196900Y-96024700D03*
X103466900Y-96024700D03*
X104736900Y-96024700D03*
X106006900Y-96024700D03*
X107276900Y-96024700D03*
X107276900Y-103136700D03*
X106006900Y-103136700D03*
X104736900Y-103136700D03*
X103466900Y-103136700D03*
X102196900Y-103136700D03*
X100926900Y-103136700D03*
X99656900Y-103136700D03*
X98386900Y-103136700D03*
X97116900Y-103136700D03*
X95846900Y-103136700D03*
X94576900Y-103136700D03*
X93306900Y-103136700D03*
X92036900Y-103136700D03*
X90766900Y-103136700D03*
D16*
X117602000Y-100360480D03*
X109971840Y-102651560D03*
X76611480Y-102011480D03*
X77871320Y-93040200D03*
X82336640Y-85308440D03*
X89611200Y-79822040D03*
X98719640Y-77917040D03*
X108356400Y-79898240D03*
X115783360Y-85440520D03*
X120548400Y-93080840D03*
X121732040Y-102031800D03*
X117683280Y-101366320D03*
X110363000Y-103855520D03*
D17*
X103466900Y-103136700D02*
X103466900Y-103913940D01*
X117287040Y-99100640D02*
X115805040Y-99100640D01*
X117713760Y-99527360D02*
X117287040Y-99100640D01*
X117713760Y-100248720D02*
X117713760Y-99527360D01*
X117602000Y-100360480D02*
X117713760Y-100248720D01*
X108153200Y-104470200D02*
X109971840Y-102651560D01*
X104023160Y-104470200D02*
X108153200Y-104470200D01*
X103466900Y-103913940D02*
X104023160Y-104470200D01*
D18*
X100926900Y-94033340D02*
X100926900Y-92052140D01*
X115805040Y-91725840D02*
X115805040Y-99100640D01*
X112395000Y-88315800D02*
X115805040Y-91725840D01*
X104663240Y-88315800D02*
X112395000Y-88315800D01*
X100926900Y-92052140D02*
X104663240Y-88315800D01*
D17*
X97866200Y-120421400D02*
X97866200Y-120456960D01*
X97866200Y-120456960D02*
X96001840Y-122321320D01*
X115805040Y-118443920D02*
X115805040Y-99100640D01*
X108742480Y-125506480D02*
X115805040Y-118443920D01*
X98125280Y-125506480D02*
X108742480Y-125506480D01*
X96001840Y-123383040D02*
X98125280Y-125506480D01*
X96001840Y-122321320D02*
X96001840Y-123383040D01*
D19*
X100926900Y-96024700D02*
X100926900Y-94033340D01*
D17*
X104736900Y-103136700D02*
X104736900Y-100688140D01*
X102196900Y-99189540D02*
X102196900Y-97950020D01*
X103266240Y-100258880D02*
X102196900Y-99189540D01*
X104307640Y-100258880D02*
X103266240Y-100258880D01*
X104736900Y-100688140D02*
X104307640Y-100258880D01*
X106006900Y-103136700D02*
X106006900Y-100490020D01*
X102196900Y-97950020D02*
X102196900Y-97076260D01*
X103916480Y-99669600D02*
X102196900Y-97950020D01*
X105186480Y-99669600D02*
X103916480Y-99669600D01*
X106006900Y-100490020D02*
X105186480Y-99669600D01*
X107276900Y-103136700D02*
X107276900Y-100083620D01*
X102196900Y-97076260D02*
X102196900Y-96024700D01*
X104043480Y-98922840D02*
X102196900Y-97076260D01*
X106116120Y-98922840D02*
X104043480Y-98922840D01*
X107276900Y-100083620D02*
X106116120Y-98922840D01*
X102196900Y-96024700D02*
X102196900Y-93108780D01*
X102196900Y-93108780D02*
X105704640Y-89601040D01*
X105704640Y-89601040D02*
X111831120Y-89601040D01*
X111831120Y-89601040D02*
X114705040Y-92474960D01*
X114705040Y-92474960D02*
X114705040Y-99100640D01*
X97866200Y-122961400D02*
X97866200Y-123347480D01*
X97866200Y-123347480D02*
X99435920Y-124917200D01*
X114730440Y-118456800D02*
X114730440Y-99019360D01*
X108270040Y-124917200D02*
X114730440Y-118456800D01*
X99435920Y-124917200D02*
X108270040Y-124917200D01*
X76831511Y-104049589D02*
X76831511Y-102231511D01*
X76831511Y-102231511D02*
X76611480Y-102011480D01*
X76831511Y-102053711D02*
X76733400Y-101955600D01*
X77141560Y-93769960D02*
X77141560Y-94944985D01*
X77871320Y-93040200D02*
X77141560Y-93769960D01*
X81211739Y-86728690D02*
X81211739Y-86433341D01*
X81211739Y-86433341D02*
X82336640Y-85308440D01*
X87950984Y-80702837D02*
X88730403Y-80702837D01*
X88730403Y-80702837D02*
X89611200Y-79822040D01*
X96755200Y-77876400D02*
X98679000Y-77876400D01*
X98679000Y-77876400D02*
X98719640Y-77917040D01*
X106376909Y-78891727D02*
X107349887Y-78891727D01*
X107349887Y-78891727D02*
X108356400Y-79898240D01*
X114487625Y-83862711D02*
X114487625Y-84144785D01*
X114487625Y-84144785D02*
X115783360Y-85440520D01*
X119762760Y-91135415D02*
X119762760Y-92295200D01*
X119762760Y-92295200D02*
X120548400Y-93080840D01*
X121738711Y-100014011D02*
X121738711Y-102025129D01*
X121738711Y-102025129D02*
X121732040Y-102031800D01*
X90766900Y-96024700D02*
X90766900Y-94063820D01*
X78974709Y-100064811D02*
X76482889Y-100064811D01*
X80187800Y-98851720D02*
X78974709Y-100064811D01*
X80187800Y-94660720D02*
X80187800Y-98851720D01*
X82981800Y-91866720D02*
X80187800Y-94660720D01*
X88569800Y-91866720D02*
X82981800Y-91866720D01*
X90766900Y-94063820D02*
X88569800Y-91866720D01*
X92036900Y-96024700D02*
X92036900Y-94272100D01*
X79357785Y-92034360D02*
X78509640Y-91186215D01*
X81864200Y-92034360D02*
X79357785Y-92034360D01*
X82702400Y-91196160D02*
X81864200Y-92034360D01*
X88960960Y-91196160D02*
X82702400Y-91196160D01*
X92036900Y-94272100D02*
X88960960Y-91196160D01*
X93306900Y-96024700D02*
X93306900Y-94648020D01*
X85384640Y-84602320D02*
X84538430Y-83756110D01*
X85384640Y-85440520D02*
X85384640Y-84602320D01*
X82423000Y-88402160D02*
X85384640Y-85440520D01*
X82423000Y-89519760D02*
X82423000Y-88402160D01*
X83540600Y-90637360D02*
X82423000Y-89519760D01*
X89296240Y-90637360D02*
X83540600Y-90637360D01*
X93306900Y-94648020D02*
X89296240Y-90637360D01*
X84538430Y-83756110D02*
X83888261Y-83756110D01*
X94576900Y-96024700D02*
X94576900Y-94856300D01*
X92537280Y-79973427D02*
X91576216Y-79012363D01*
X92537280Y-80802480D02*
X92537280Y-79973427D01*
X90469720Y-82870040D02*
X92537280Y-80802480D01*
X88681560Y-82870040D02*
X90469720Y-82870040D01*
X83149440Y-88402160D02*
X88681560Y-82870040D01*
X83149440Y-89296240D02*
X83149440Y-88402160D01*
X83987640Y-90134440D02*
X83149440Y-89296240D01*
X89855040Y-90134440D02*
X83987640Y-90134440D01*
X94576900Y-94856300D02*
X89855040Y-90134440D01*
X95846900Y-96024700D02*
X95846900Y-95120460D01*
X100755200Y-80240120D02*
X100755200Y-77876400D01*
X100081080Y-80914240D02*
X100755200Y-80240120D01*
X93207840Y-80914240D02*
X100081080Y-80914240D01*
X90581480Y-83540600D02*
X93207840Y-80914240D01*
X88681560Y-83540600D02*
X90581480Y-83540600D01*
X83823444Y-88398716D02*
X88681560Y-83540600D01*
X83823444Y-88908524D02*
X83823444Y-88398716D01*
X84378800Y-89463880D02*
X83823444Y-88908524D01*
X90190320Y-89463880D02*
X84378800Y-89463880D01*
X95846900Y-95120460D02*
X90190320Y-89463880D01*
X97116900Y-96024700D02*
X97116900Y-93499940D01*
X110031091Y-85650509D02*
X110031091Y-80518673D01*
X109194600Y-86487000D02*
X110031091Y-85650509D01*
X104129840Y-86487000D02*
X109194600Y-86487000D01*
X97116900Y-93499940D02*
X104129840Y-86487000D01*
X98386900Y-96024700D02*
X98386900Y-92834460D01*
X115583504Y-88402160D02*
X117058775Y-86926889D01*
X114914680Y-88402160D02*
X115583504Y-88402160D01*
X113405920Y-86893400D02*
X114914680Y-88402160D01*
X104327960Y-86893400D02*
X113405920Y-86893400D01*
X98386900Y-92834460D02*
X104327960Y-86893400D01*
X99656900Y-96024700D02*
X99656900Y-92235020D01*
X119515185Y-96509840D02*
X121130840Y-94894185D01*
X118303040Y-96509840D02*
X119515185Y-96509840D01*
X116662200Y-94869000D02*
X118303040Y-96509840D01*
X116662200Y-91150440D02*
X116662200Y-94869000D01*
X112852200Y-87340440D02*
X116662200Y-91150440D01*
X104551480Y-87340440D02*
X112852200Y-87340440D01*
X99656900Y-92235020D02*
X104551480Y-87340440D01*
X99656900Y-103136700D02*
X99656900Y-104264460D01*
X119447069Y-103998789D02*
X121390089Y-103998789D01*
X119166640Y-103718360D02*
X119447069Y-103998789D01*
X119166640Y-101843840D02*
X119166640Y-103718360D01*
X118831360Y-101508560D02*
X119166640Y-101843840D01*
X117825520Y-101508560D02*
X118831360Y-101508560D01*
X117683280Y-101366320D02*
X117825520Y-101508560D01*
X109245400Y-104973120D02*
X110363000Y-103855520D01*
X100365560Y-104973120D02*
X109245400Y-104973120D01*
X99656900Y-104264460D02*
X100365560Y-104973120D01*
X120837398Y-104551480D02*
X121390089Y-103998789D01*
X100406200Y-122961400D02*
X107213400Y-122961400D01*
X104736900Y-93078300D02*
X104736900Y-96024700D01*
X106954320Y-90860880D02*
X104736900Y-93078300D01*
X111394240Y-90860880D02*
X106954320Y-90860880D01*
X112938560Y-92405200D02*
X111394240Y-90860880D01*
X112938560Y-117236240D02*
X112938560Y-92405200D01*
X107213400Y-122961400D02*
X112938560Y-117236240D01*
X100406200Y-120421400D02*
X100406200Y-120858280D01*
X100406200Y-120858280D02*
X101396800Y-121848880D01*
X101396800Y-121848880D02*
X107121960Y-121848880D01*
X107121960Y-121848880D02*
X111836200Y-117134640D01*
X111836200Y-117134640D02*
X111836200Y-93670120D01*
X111836200Y-93670120D02*
X110586520Y-92420440D01*
X110586520Y-92420440D02*
X107325160Y-92420440D01*
X107325160Y-92420440D02*
X106006900Y-93738700D01*
X106006900Y-93738700D02*
X106006900Y-96024700D01*
D20*
G36*
X114920040Y-92092419D02*
X114920040Y-98286390D01*
X114832040Y-98374390D01*
X114832040Y-98975640D01*
X114852040Y-98975640D01*
X114852040Y-99225640D01*
X114832040Y-99225640D01*
X114832040Y-99826890D01*
X114990790Y-99985640D01*
X115070040Y-99985640D01*
X115070040Y-118139473D01*
X108438034Y-124771480D01*
X98429727Y-124771480D01*
X97993202Y-124334955D01*
X97993202Y-124282220D01*
X98223092Y-124402886D01*
X98747558Y-124156583D01*
X99137845Y-123728324D01*
X99137855Y-123728299D01*
X99327053Y-124011454D01*
X99808822Y-124333361D01*
X100377107Y-124446400D01*
X100435293Y-124446400D01*
X101003578Y-124333361D01*
X101485347Y-124011454D01*
X101695859Y-123696400D01*
X107213400Y-123696400D01*
X107494672Y-123640451D01*
X107733123Y-123481123D01*
X113458284Y-117755963D01*
X113617611Y-117517512D01*
X113631714Y-117446613D01*
X113673560Y-117236240D01*
X113673560Y-99384390D01*
X113770040Y-99384390D01*
X113770040Y-99476950D01*
X113866713Y-99710339D01*
X114045342Y-99888967D01*
X114278731Y-99985640D01*
X114419290Y-99985640D01*
X114578040Y-99826890D01*
X114578040Y-99225640D01*
X113928790Y-99225640D01*
X113770040Y-99384390D01*
X113673560Y-99384390D01*
X113673560Y-98724330D01*
X113770040Y-98724330D01*
X113770040Y-98816890D01*
X113928790Y-98975640D01*
X114578040Y-98975640D01*
X114578040Y-98374390D01*
X114419290Y-98215640D01*
X114278731Y-98215640D01*
X114045342Y-98312313D01*
X113866713Y-98490941D01*
X113770040Y-98724330D01*
X113673560Y-98724330D01*
X113673560Y-92405200D01*
X113617611Y-92123928D01*
X113578965Y-92066090D01*
X113458283Y-91885476D01*
X111913963Y-90341157D01*
X111675512Y-90181829D01*
X111674331Y-90181594D01*
X111394240Y-90125880D01*
X106954320Y-90125880D01*
X106743953Y-90167725D01*
X106673047Y-90181829D01*
X106434596Y-90341157D01*
X104217177Y-92558577D01*
X104057849Y-92797028D01*
X104001900Y-93078300D01*
X104001900Y-94876659D01*
X103972790Y-94856769D01*
X103720900Y-94805760D01*
X103212900Y-94805760D01*
X102977583Y-94850038D01*
X102836529Y-94940804D01*
X102810598Y-94914873D01*
X102577209Y-94818200D01*
X102482650Y-94818200D01*
X102323900Y-94976950D01*
X102323900Y-95897700D01*
X102343900Y-95897700D01*
X102343900Y-96151700D01*
X102323900Y-96151700D01*
X102323900Y-97072450D01*
X102482650Y-97231200D01*
X102577209Y-97231200D01*
X102810598Y-97134527D01*
X102837135Y-97107991D01*
X102961010Y-97192631D01*
X103212900Y-97243640D01*
X103720900Y-97243640D01*
X103956217Y-97199362D01*
X104102807Y-97105034D01*
X104231010Y-97192631D01*
X104482900Y-97243640D01*
X104990900Y-97243640D01*
X105226217Y-97199362D01*
X105372807Y-97105034D01*
X105501010Y-97192631D01*
X105752900Y-97243640D01*
X106260900Y-97243640D01*
X106496217Y-97199362D01*
X106642807Y-97105034D01*
X106771010Y-97192631D01*
X107022900Y-97243640D01*
X107530900Y-97243640D01*
X107766217Y-97199362D01*
X107982341Y-97060290D01*
X108127331Y-96848090D01*
X108178340Y-96596200D01*
X108178340Y-95453200D01*
X108134062Y-95217883D01*
X107994990Y-95001759D01*
X107782790Y-94856769D01*
X107530900Y-94805760D01*
X107022900Y-94805760D01*
X106787583Y-94850038D01*
X106741900Y-94879434D01*
X106741900Y-94043146D01*
X107629607Y-93155440D01*
X110282074Y-93155440D01*
X111101200Y-93974567D01*
X111101200Y-103271564D01*
X110893327Y-103063328D01*
X110825037Y-103034971D01*
X110906678Y-102838359D01*
X110907002Y-102466393D01*
X110764957Y-102122617D01*
X110502167Y-101859368D01*
X110158639Y-101716722D01*
X109786673Y-101716398D01*
X109442897Y-101858443D01*
X109179648Y-102121233D01*
X109037002Y-102464761D01*
X109036930Y-102547023D01*
X108163702Y-103420252D01*
X108007150Y-103263700D01*
X107403900Y-103263700D01*
X107403900Y-103283700D01*
X107149900Y-103283700D01*
X107149900Y-103263700D01*
X106133900Y-103263700D01*
X106133900Y-103283700D01*
X105879900Y-103283700D01*
X105879900Y-103263700D01*
X104863900Y-103263700D01*
X104863900Y-103283700D01*
X104609900Y-103283700D01*
X104609900Y-103263700D01*
X104589900Y-103263700D01*
X104589900Y-103009700D01*
X104609900Y-103009700D01*
X104609900Y-102088950D01*
X104863900Y-102088950D01*
X104863900Y-103009700D01*
X105879900Y-103009700D01*
X105879900Y-102088950D01*
X106133900Y-102088950D01*
X106133900Y-103009700D01*
X107149900Y-103009700D01*
X107149900Y-102088950D01*
X107403900Y-102088950D01*
X107403900Y-103009700D01*
X108007150Y-103009700D01*
X108165900Y-102850950D01*
X108165900Y-102438890D01*
X108069227Y-102205501D01*
X107890598Y-102026873D01*
X107657209Y-101930200D01*
X107562650Y-101930200D01*
X107403900Y-102088950D01*
X107149900Y-102088950D01*
X106991150Y-101930200D01*
X106896591Y-101930200D01*
X106663202Y-102026873D01*
X106641900Y-102048175D01*
X106620598Y-102026873D01*
X106387209Y-101930200D01*
X106292650Y-101930200D01*
X106133900Y-102088950D01*
X105879900Y-102088950D01*
X105721150Y-101930200D01*
X105626591Y-101930200D01*
X105393202Y-102026873D01*
X105371900Y-102048175D01*
X105350598Y-102026873D01*
X105117209Y-101930200D01*
X105022650Y-101930200D01*
X104863900Y-102088950D01*
X104609900Y-102088950D01*
X104451150Y-101930200D01*
X104356591Y-101930200D01*
X104123202Y-102026873D01*
X104096665Y-102053409D01*
X103972790Y-101968769D01*
X103720900Y-101917760D01*
X103212900Y-101917760D01*
X102977583Y-101962038D01*
X102830993Y-102056366D01*
X102702790Y-101968769D01*
X102450900Y-101917760D01*
X101942900Y-101917760D01*
X101707583Y-101962038D01*
X101560993Y-102056366D01*
X101432790Y-101968769D01*
X101180900Y-101917760D01*
X100672900Y-101917760D01*
X100437583Y-101962038D01*
X100290993Y-102056366D01*
X100162790Y-101968769D01*
X99910900Y-101917760D01*
X99402900Y-101917760D01*
X99167583Y-101962038D01*
X99020993Y-102056366D01*
X98892790Y-101968769D01*
X98640900Y-101917760D01*
X98132900Y-101917760D01*
X97897583Y-101962038D01*
X97750993Y-102056366D01*
X97622790Y-101968769D01*
X97370900Y-101917760D01*
X96862900Y-101917760D01*
X96627583Y-101962038D01*
X96480993Y-102056366D01*
X96352790Y-101968769D01*
X96100900Y-101917760D01*
X95592900Y-101917760D01*
X95357583Y-101962038D01*
X95210993Y-102056366D01*
X95082790Y-101968769D01*
X94830900Y-101917760D01*
X94322900Y-101917760D01*
X94087583Y-101962038D01*
X93940993Y-102056366D01*
X93812790Y-101968769D01*
X93560900Y-101917760D01*
X93052900Y-101917760D01*
X92817583Y-101962038D01*
X92670993Y-102056366D01*
X92542790Y-101968769D01*
X92290900Y-101917760D01*
X91782900Y-101917760D01*
X91547583Y-101962038D01*
X91400993Y-102056366D01*
X91272790Y-101968769D01*
X91020900Y-101917760D01*
X90512900Y-101917760D01*
X90277583Y-101962038D01*
X90061459Y-102101110D01*
X89916469Y-102313310D01*
X89865460Y-102565200D01*
X89865460Y-103708200D01*
X89909738Y-103943517D01*
X90048810Y-104159641D01*
X90261010Y-104304631D01*
X90512900Y-104355640D01*
X91020900Y-104355640D01*
X91256217Y-104311362D01*
X91402807Y-104217034D01*
X91531010Y-104304631D01*
X91782900Y-104355640D01*
X92290900Y-104355640D01*
X92526217Y-104311362D01*
X92672807Y-104217034D01*
X92801010Y-104304631D01*
X93052900Y-104355640D01*
X93560900Y-104355640D01*
X93796217Y-104311362D01*
X93942807Y-104217034D01*
X94071010Y-104304631D01*
X94322900Y-104355640D01*
X94830900Y-104355640D01*
X95066217Y-104311362D01*
X95212807Y-104217034D01*
X95341010Y-104304631D01*
X95592900Y-104355640D01*
X96100900Y-104355640D01*
X96336217Y-104311362D01*
X96482807Y-104217034D01*
X96611010Y-104304631D01*
X96862900Y-104355640D01*
X97370900Y-104355640D01*
X97606217Y-104311362D01*
X97752807Y-104217034D01*
X97881010Y-104304631D01*
X98132900Y-104355640D01*
X98640900Y-104355640D01*
X98876217Y-104311362D01*
X98924987Y-104279979D01*
X98960001Y-104456003D01*
X98977849Y-104545732D01*
X99137177Y-104784183D01*
X99845837Y-105492844D01*
X100084288Y-105652171D01*
X100365560Y-105708120D01*
X109245400Y-105708120D01*
X109526672Y-105652171D01*
X109765123Y-105492843D01*
X110467355Y-104790612D01*
X110548167Y-104790682D01*
X110891943Y-104648637D01*
X111101200Y-104439745D01*
X111101200Y-116830193D01*
X106817514Y-121113880D01*
X101726592Y-121113880D01*
X101890942Y-120718081D01*
X101891457Y-120127311D01*
X101665856Y-119581314D01*
X101248483Y-119163212D01*
X100702881Y-118936658D01*
X100112111Y-118936143D01*
X99566114Y-119161744D01*
X99148012Y-119579117D01*
X99123545Y-119638039D01*
X98945347Y-119371346D01*
X98463578Y-119049439D01*
X97895293Y-118936400D01*
X97837107Y-118936400D01*
X97268822Y-119049439D01*
X96787053Y-119371346D01*
X96465146Y-119853115D01*
X96352107Y-120421400D01*
X96436756Y-120846958D01*
X95482117Y-121801597D01*
X95322789Y-122040048D01*
X95266840Y-122321320D01*
X95266840Y-123383040D01*
X95322789Y-123664312D01*
X95482117Y-123902763D01*
X97605557Y-126026204D01*
X97844008Y-126185531D01*
X98125280Y-126241480D01*
X106460907Y-126241480D01*
X105967468Y-126357583D01*
X104773445Y-126606338D01*
X103534391Y-126804587D01*
X102687653Y-126904203D01*
X101799324Y-127002906D01*
X100670170Y-127052000D01*
X97860510Y-127052000D01*
X96976858Y-127002908D01*
X95839014Y-126903965D01*
X94452923Y-126705952D01*
X93158873Y-126457096D01*
X92720720Y-126359729D01*
X91917002Y-126158800D01*
X91917001Y-126158799D01*
X91510602Y-126057200D01*
X91510601Y-126057199D01*
X91125931Y-125961032D01*
X90039352Y-125615302D01*
X89050255Y-125269118D01*
X87966566Y-124825791D01*
X87127149Y-124430771D01*
X86239739Y-123987066D01*
X85309182Y-123448321D01*
X84331308Y-122812703D01*
X83499450Y-122176576D01*
X82672215Y-121495323D01*
X82340846Y-121163954D01*
X82340843Y-121163952D01*
X81842140Y-120665248D01*
X81213782Y-119988556D01*
X80594335Y-119178510D01*
X80109826Y-118403297D01*
X79776810Y-117832412D01*
X79489234Y-117209332D01*
X79155583Y-116446701D01*
X78972388Y-115805520D01*
X78779855Y-114890989D01*
X78688000Y-114202074D01*
X78688000Y-113334800D01*
X78680004Y-113294602D01*
X78683359Y-113253753D01*
X78653197Y-113159835D01*
X78633954Y-113063095D01*
X78611185Y-113029018D01*
X78598652Y-112989994D01*
X78344652Y-112532794D01*
X78341834Y-112529471D01*
X78340452Y-112525341D01*
X77934053Y-111814141D01*
X77931934Y-111811703D01*
X77930883Y-111808651D01*
X77591076Y-111226125D01*
X77198493Y-110391887D01*
X76856585Y-109659226D01*
X76664053Y-109129762D01*
X76656234Y-109116867D01*
X76653322Y-109102068D01*
X76309588Y-108267289D01*
X76064881Y-107484225D01*
X76064362Y-107483274D01*
X76064244Y-107482197D01*
X75768772Y-106546536D01*
X75572293Y-105662379D01*
X75572293Y-105662378D01*
X75525152Y-105450246D01*
X75648923Y-105610037D01*
X75872952Y-105735981D01*
X76128329Y-105764842D01*
X77821860Y-105616677D01*
X78052422Y-105552059D01*
X78255603Y-105394679D01*
X78381547Y-105170651D01*
X78410408Y-104915273D01*
X78236097Y-102922884D01*
X78171479Y-102692322D01*
X78014099Y-102489141D01*
X77790070Y-102363197D01*
X77566511Y-102337932D01*
X77566511Y-102231511D01*
X77548827Y-102142609D01*
X77566510Y-102053711D01*
X77546531Y-101953271D01*
X77546642Y-101826313D01*
X77466554Y-101632484D01*
X77473238Y-101631899D01*
X77703800Y-101567281D01*
X77906981Y-101409901D01*
X78032925Y-101185873D01*
X78061786Y-100930495D01*
X78050353Y-100799811D01*
X78974709Y-100799811D01*
X79255981Y-100743862D01*
X79494432Y-100584534D01*
X80707524Y-99371443D01*
X80866851Y-99132992D01*
X80874327Y-99095409D01*
X80922800Y-98851720D01*
X80922800Y-94965166D01*
X83286247Y-92601720D01*
X88265354Y-92601720D01*
X90031900Y-94368267D01*
X90031900Y-95032371D01*
X89916469Y-95201310D01*
X89865460Y-95453200D01*
X89865460Y-96596200D01*
X89909738Y-96831517D01*
X90048810Y-97047641D01*
X90261010Y-97192631D01*
X90512900Y-97243640D01*
X91020900Y-97243640D01*
X91256217Y-97199362D01*
X91402807Y-97105034D01*
X91531010Y-97192631D01*
X91782900Y-97243640D01*
X92290900Y-97243640D01*
X92526217Y-97199362D01*
X92672807Y-97105034D01*
X92801010Y-97192631D01*
X93052900Y-97243640D01*
X93560900Y-97243640D01*
X93796217Y-97199362D01*
X93942807Y-97105034D01*
X94071010Y-97192631D01*
X94322900Y-97243640D01*
X94830900Y-97243640D01*
X95066217Y-97199362D01*
X95212807Y-97105034D01*
X95341010Y-97192631D01*
X95592900Y-97243640D01*
X96100900Y-97243640D01*
X96336217Y-97199362D01*
X96482807Y-97105034D01*
X96611010Y-97192631D01*
X96862900Y-97243640D01*
X97370900Y-97243640D01*
X97606217Y-97199362D01*
X97752807Y-97105034D01*
X97881010Y-97192631D01*
X98132900Y-97243640D01*
X98640900Y-97243640D01*
X98876217Y-97199362D01*
X99022807Y-97105034D01*
X99151010Y-97192631D01*
X99402900Y-97243640D01*
X99910900Y-97243640D01*
X100146217Y-97199362D01*
X100292807Y-97105034D01*
X100421010Y-97192631D01*
X100672900Y-97243640D01*
X101180900Y-97243640D01*
X101416217Y-97199362D01*
X101557271Y-97108596D01*
X101583202Y-97134527D01*
X101816591Y-97231200D01*
X101911150Y-97231200D01*
X102069900Y-97072450D01*
X102069900Y-96151700D01*
X102049900Y-96151700D01*
X102049900Y-95897700D01*
X102069900Y-95897700D01*
X102069900Y-94976950D01*
X101911150Y-94818200D01*
X101816591Y-94818200D01*
X101686900Y-94871920D01*
X101686900Y-94458269D01*
X101744533Y-94372015D01*
X101811900Y-94033340D01*
X101811900Y-92418720D01*
X105029819Y-89200800D01*
X112028420Y-89200800D01*
X114920040Y-92092419D01*
X114920040Y-92092419D01*
G37*
X114920040Y-92092419D02*
X114920040Y-98286390D01*
X114832040Y-98374390D01*
X114832040Y-98975640D01*
X114852040Y-98975640D01*
X114852040Y-99225640D01*
X114832040Y-99225640D01*
X114832040Y-99826890D01*
X114990790Y-99985640D01*
X115070040Y-99985640D01*
X115070040Y-118139473D01*
X108438034Y-124771480D01*
X98429727Y-124771480D01*
X97993202Y-124334955D01*
X97993202Y-124282220D01*
X98223092Y-124402886D01*
X98747558Y-124156583D01*
X99137845Y-123728324D01*
X99137855Y-123728299D01*
X99327053Y-124011454D01*
X99808822Y-124333361D01*
X100377107Y-124446400D01*
X100435293Y-124446400D01*
X101003578Y-124333361D01*
X101485347Y-124011454D01*
X101695859Y-123696400D01*
X107213400Y-123696400D01*
X107494672Y-123640451D01*
X107733123Y-123481123D01*
X113458284Y-117755963D01*
X113617611Y-117517512D01*
X113631714Y-117446613D01*
X113673560Y-117236240D01*
X113673560Y-99384390D01*
X113770040Y-99384390D01*
X113770040Y-99476950D01*
X113866713Y-99710339D01*
X114045342Y-99888967D01*
X114278731Y-99985640D01*
X114419290Y-99985640D01*
X114578040Y-99826890D01*
X114578040Y-99225640D01*
X113928790Y-99225640D01*
X113770040Y-99384390D01*
X113673560Y-99384390D01*
X113673560Y-98724330D01*
X113770040Y-98724330D01*
X113770040Y-98816890D01*
X113928790Y-98975640D01*
X114578040Y-98975640D01*
X114578040Y-98374390D01*
X114419290Y-98215640D01*
X114278731Y-98215640D01*
X114045342Y-98312313D01*
X113866713Y-98490941D01*
X113770040Y-98724330D01*
X113673560Y-98724330D01*
X113673560Y-92405200D01*
X113617611Y-92123928D01*
X113578965Y-92066090D01*
X113458283Y-91885476D01*
X111913963Y-90341157D01*
X111675512Y-90181829D01*
X111674331Y-90181594D01*
X111394240Y-90125880D01*
X106954320Y-90125880D01*
X106743953Y-90167725D01*
X106673047Y-90181829D01*
X106434596Y-90341157D01*
X104217177Y-92558577D01*
X104057849Y-92797028D01*
X104001900Y-93078300D01*
X104001900Y-94876659D01*
X103972790Y-94856769D01*
X103720900Y-94805760D01*
X103212900Y-94805760D01*
X102977583Y-94850038D01*
X102836529Y-94940804D01*
X102810598Y-94914873D01*
X102577209Y-94818200D01*
X102482650Y-94818200D01*
X102323900Y-94976950D01*
X102323900Y-95897700D01*
X102343900Y-95897700D01*
X102343900Y-96151700D01*
X102323900Y-96151700D01*
X102323900Y-97072450D01*
X102482650Y-97231200D01*
X102577209Y-97231200D01*
X102810598Y-97134527D01*
X102837135Y-97107991D01*
X102961010Y-97192631D01*
X103212900Y-97243640D01*
X103720900Y-97243640D01*
X103956217Y-97199362D01*
X104102807Y-97105034D01*
X104231010Y-97192631D01*
X104482900Y-97243640D01*
X104990900Y-97243640D01*
X105226217Y-97199362D01*
X105372807Y-97105034D01*
X105501010Y-97192631D01*
X105752900Y-97243640D01*
X106260900Y-97243640D01*
X106496217Y-97199362D01*
X106642807Y-97105034D01*
X106771010Y-97192631D01*
X107022900Y-97243640D01*
X107530900Y-97243640D01*
X107766217Y-97199362D01*
X107982341Y-97060290D01*
X108127331Y-96848090D01*
X108178340Y-96596200D01*
X108178340Y-95453200D01*
X108134062Y-95217883D01*
X107994990Y-95001759D01*
X107782790Y-94856769D01*
X107530900Y-94805760D01*
X107022900Y-94805760D01*
X106787583Y-94850038D01*
X106741900Y-94879434D01*
X106741900Y-94043146D01*
X107629607Y-93155440D01*
X110282074Y-93155440D01*
X111101200Y-93974567D01*
X111101200Y-103271564D01*
X110893327Y-103063328D01*
X110825037Y-103034971D01*
X110906678Y-102838359D01*
X110907002Y-102466393D01*
X110764957Y-102122617D01*
X110502167Y-101859368D01*
X110158639Y-101716722D01*
X109786673Y-101716398D01*
X109442897Y-101858443D01*
X109179648Y-102121233D01*
X109037002Y-102464761D01*
X109036930Y-102547023D01*
X108163702Y-103420252D01*
X108007150Y-103263700D01*
X107403900Y-103263700D01*
X107403900Y-103283700D01*
X107149900Y-103283700D01*
X107149900Y-103263700D01*
X106133900Y-103263700D01*
X106133900Y-103283700D01*
X105879900Y-103283700D01*
X105879900Y-103263700D01*
X104863900Y-103263700D01*
X104863900Y-103283700D01*
X104609900Y-103283700D01*
X104609900Y-103263700D01*
X104589900Y-103263700D01*
X104589900Y-103009700D01*
X104609900Y-103009700D01*
X104609900Y-102088950D01*
X104863900Y-102088950D01*
X104863900Y-103009700D01*
X105879900Y-103009700D01*
X105879900Y-102088950D01*
X106133900Y-102088950D01*
X106133900Y-103009700D01*
X107149900Y-103009700D01*
X107149900Y-102088950D01*
X107403900Y-102088950D01*
X107403900Y-103009700D01*
X108007150Y-103009700D01*
X108165900Y-102850950D01*
X108165900Y-102438890D01*
X108069227Y-102205501D01*
X107890598Y-102026873D01*
X107657209Y-101930200D01*
X107562650Y-101930200D01*
X107403900Y-102088950D01*
X107149900Y-102088950D01*
X106991150Y-101930200D01*
X106896591Y-101930200D01*
X106663202Y-102026873D01*
X106641900Y-102048175D01*
X106620598Y-102026873D01*
X106387209Y-101930200D01*
X106292650Y-101930200D01*
X106133900Y-102088950D01*
X105879900Y-102088950D01*
X105721150Y-101930200D01*
X105626591Y-101930200D01*
X105393202Y-102026873D01*
X105371900Y-102048175D01*
X105350598Y-102026873D01*
X105117209Y-101930200D01*
X105022650Y-101930200D01*
X104863900Y-102088950D01*
X104609900Y-102088950D01*
X104451150Y-101930200D01*
X104356591Y-101930200D01*
X104123202Y-102026873D01*
X104096665Y-102053409D01*
X103972790Y-101968769D01*
X103720900Y-101917760D01*
X103212900Y-101917760D01*
X102977583Y-101962038D01*
X102830993Y-102056366D01*
X102702790Y-101968769D01*
X102450900Y-101917760D01*
X101942900Y-101917760D01*
X101707583Y-101962038D01*
X101560993Y-102056366D01*
X101432790Y-101968769D01*
X101180900Y-101917760D01*
X100672900Y-101917760D01*
X100437583Y-101962038D01*
X100290993Y-102056366D01*
X100162790Y-101968769D01*
X99910900Y-101917760D01*
X99402900Y-101917760D01*
X99167583Y-101962038D01*
X99020993Y-102056366D01*
X98892790Y-101968769D01*
X98640900Y-101917760D01*
X98132900Y-101917760D01*
X97897583Y-101962038D01*
X97750993Y-102056366D01*
X97622790Y-101968769D01*
X97370900Y-101917760D01*
X96862900Y-101917760D01*
X96627583Y-101962038D01*
X96480993Y-102056366D01*
X96352790Y-101968769D01*
X96100900Y-101917760D01*
X95592900Y-101917760D01*
X95357583Y-101962038D01*
X95210993Y-102056366D01*
X95082790Y-101968769D01*
X94830900Y-101917760D01*
X94322900Y-101917760D01*
X94087583Y-101962038D01*
X93940993Y-102056366D01*
X93812790Y-101968769D01*
X93560900Y-101917760D01*
X93052900Y-101917760D01*
X92817583Y-101962038D01*
X92670993Y-102056366D01*
X92542790Y-101968769D01*
X92290900Y-101917760D01*
X91782900Y-101917760D01*
X91547583Y-101962038D01*
X91400993Y-102056366D01*
X91272790Y-101968769D01*
X91020900Y-101917760D01*
X90512900Y-101917760D01*
X90277583Y-101962038D01*
X90061459Y-102101110D01*
X89916469Y-102313310D01*
X89865460Y-102565200D01*
X89865460Y-103708200D01*
X89909738Y-103943517D01*
X90048810Y-104159641D01*
X90261010Y-104304631D01*
X90512900Y-104355640D01*
X91020900Y-104355640D01*
X91256217Y-104311362D01*
X91402807Y-104217034D01*
X91531010Y-104304631D01*
X91782900Y-104355640D01*
X92290900Y-104355640D01*
X92526217Y-104311362D01*
X92672807Y-104217034D01*
X92801010Y-104304631D01*
X93052900Y-104355640D01*
X93560900Y-104355640D01*
X93796217Y-104311362D01*
X93942807Y-104217034D01*
X94071010Y-104304631D01*
X94322900Y-104355640D01*
X94830900Y-104355640D01*
X95066217Y-104311362D01*
X95212807Y-104217034D01*
X95341010Y-104304631D01*
X95592900Y-104355640D01*
X96100900Y-104355640D01*
X96336217Y-104311362D01*
X96482807Y-104217034D01*
X96611010Y-104304631D01*
X96862900Y-104355640D01*
X97370900Y-104355640D01*
X97606217Y-104311362D01*
X97752807Y-104217034D01*
X97881010Y-104304631D01*
X98132900Y-104355640D01*
X98640900Y-104355640D01*
X98876217Y-104311362D01*
X98924987Y-104279979D01*
X98960001Y-104456003D01*
X98977849Y-104545732D01*
X99137177Y-104784183D01*
X99845837Y-105492844D01*
X100084288Y-105652171D01*
X100365560Y-105708120D01*
X109245400Y-105708120D01*
X109526672Y-105652171D01*
X109765123Y-105492843D01*
X110467355Y-104790612D01*
X110548167Y-104790682D01*
X110891943Y-104648637D01*
X111101200Y-104439745D01*
X111101200Y-116830193D01*
X106817514Y-121113880D01*
X101726592Y-121113880D01*
X101890942Y-120718081D01*
X101891457Y-120127311D01*
X101665856Y-119581314D01*
X101248483Y-119163212D01*
X100702881Y-118936658D01*
X100112111Y-118936143D01*
X99566114Y-119161744D01*
X99148012Y-119579117D01*
X99123545Y-119638039D01*
X98945347Y-119371346D01*
X98463578Y-119049439D01*
X97895293Y-118936400D01*
X97837107Y-118936400D01*
X97268822Y-119049439D01*
X96787053Y-119371346D01*
X96465146Y-119853115D01*
X96352107Y-120421400D01*
X96436756Y-120846958D01*
X95482117Y-121801597D01*
X95322789Y-122040048D01*
X95266840Y-122321320D01*
X95266840Y-123383040D01*
X95322789Y-123664312D01*
X95482117Y-123902763D01*
X97605557Y-126026204D01*
X97844008Y-126185531D01*
X98125280Y-126241480D01*
X106460907Y-126241480D01*
X105967468Y-126357583D01*
X104773445Y-126606338D01*
X103534391Y-126804587D01*
X102687653Y-126904203D01*
X101799324Y-127002906D01*
X100670170Y-127052000D01*
X97860510Y-127052000D01*
X96976858Y-127002908D01*
X95839014Y-126903965D01*
X94452923Y-126705952D01*
X93158873Y-126457096D01*
X92720720Y-126359729D01*
X91917002Y-126158800D01*
X91917001Y-126158799D01*
X91510602Y-126057200D01*
X91510601Y-126057199D01*
X91125931Y-125961032D01*
X90039352Y-125615302D01*
X89050255Y-125269118D01*
X87966566Y-124825791D01*
X87127149Y-124430771D01*
X86239739Y-123987066D01*
X85309182Y-123448321D01*
X84331308Y-122812703D01*
X83499450Y-122176576D01*
X82672215Y-121495323D01*
X82340846Y-121163954D01*
X82340843Y-121163952D01*
X81842140Y-120665248D01*
X81213782Y-119988556D01*
X80594335Y-119178510D01*
X80109826Y-118403297D01*
X79776810Y-117832412D01*
X79489234Y-117209332D01*
X79155583Y-116446701D01*
X78972388Y-115805520D01*
X78779855Y-114890989D01*
X78688000Y-114202074D01*
X78688000Y-113334800D01*
X78680004Y-113294602D01*
X78683359Y-113253753D01*
X78653197Y-113159835D01*
X78633954Y-113063095D01*
X78611185Y-113029018D01*
X78598652Y-112989994D01*
X78344652Y-112532794D01*
X78341834Y-112529471D01*
X78340452Y-112525341D01*
X77934053Y-111814141D01*
X77931934Y-111811703D01*
X77930883Y-111808651D01*
X77591076Y-111226125D01*
X77198493Y-110391887D01*
X76856585Y-109659226D01*
X76664053Y-109129762D01*
X76656234Y-109116867D01*
X76653322Y-109102068D01*
X76309588Y-108267289D01*
X76064881Y-107484225D01*
X76064362Y-107483274D01*
X76064244Y-107482197D01*
X75768772Y-106546536D01*
X75572293Y-105662379D01*
X75572293Y-105662378D01*
X75525152Y-105450246D01*
X75648923Y-105610037D01*
X75872952Y-105735981D01*
X76128329Y-105764842D01*
X77821860Y-105616677D01*
X78052422Y-105552059D01*
X78255603Y-105394679D01*
X78381547Y-105170651D01*
X78410408Y-104915273D01*
X78236097Y-102922884D01*
X78171479Y-102692322D01*
X78014099Y-102489141D01*
X77790070Y-102363197D01*
X77566511Y-102337932D01*
X77566511Y-102231511D01*
X77548827Y-102142609D01*
X77566510Y-102053711D01*
X77546531Y-101953271D01*
X77546642Y-101826313D01*
X77466554Y-101632484D01*
X77473238Y-101631899D01*
X77703800Y-101567281D01*
X77906981Y-101409901D01*
X78032925Y-101185873D01*
X78061786Y-100930495D01*
X78050353Y-100799811D01*
X78974709Y-100799811D01*
X79255981Y-100743862D01*
X79494432Y-100584534D01*
X80707524Y-99371443D01*
X80866851Y-99132992D01*
X80874327Y-99095409D01*
X80922800Y-98851720D01*
X80922800Y-94965166D01*
X83286247Y-92601720D01*
X88265354Y-92601720D01*
X90031900Y-94368267D01*
X90031900Y-95032371D01*
X89916469Y-95201310D01*
X89865460Y-95453200D01*
X89865460Y-96596200D01*
X89909738Y-96831517D01*
X90048810Y-97047641D01*
X90261010Y-97192631D01*
X90512900Y-97243640D01*
X91020900Y-97243640D01*
X91256217Y-97199362D01*
X91402807Y-97105034D01*
X91531010Y-97192631D01*
X91782900Y-97243640D01*
X92290900Y-97243640D01*
X92526217Y-97199362D01*
X92672807Y-97105034D01*
X92801010Y-97192631D01*
X93052900Y-97243640D01*
X93560900Y-97243640D01*
X93796217Y-97199362D01*
X93942807Y-97105034D01*
X94071010Y-97192631D01*
X94322900Y-97243640D01*
X94830900Y-97243640D01*
X95066217Y-97199362D01*
X95212807Y-97105034D01*
X95341010Y-97192631D01*
X95592900Y-97243640D01*
X96100900Y-97243640D01*
X96336217Y-97199362D01*
X96482807Y-97105034D01*
X96611010Y-97192631D01*
X96862900Y-97243640D01*
X97370900Y-97243640D01*
X97606217Y-97199362D01*
X97752807Y-97105034D01*
X97881010Y-97192631D01*
X98132900Y-97243640D01*
X98640900Y-97243640D01*
X98876217Y-97199362D01*
X99022807Y-97105034D01*
X99151010Y-97192631D01*
X99402900Y-97243640D01*
X99910900Y-97243640D01*
X100146217Y-97199362D01*
X100292807Y-97105034D01*
X100421010Y-97192631D01*
X100672900Y-97243640D01*
X101180900Y-97243640D01*
X101416217Y-97199362D01*
X101557271Y-97108596D01*
X101583202Y-97134527D01*
X101816591Y-97231200D01*
X101911150Y-97231200D01*
X102069900Y-97072450D01*
X102069900Y-96151700D01*
X102049900Y-96151700D01*
X102049900Y-95897700D01*
X102069900Y-95897700D01*
X102069900Y-94976950D01*
X101911150Y-94818200D01*
X101816591Y-94818200D01*
X101686900Y-94871920D01*
X101686900Y-94458269D01*
X101744533Y-94372015D01*
X101811900Y-94033340D01*
X101811900Y-92418720D01*
X105029819Y-89200800D01*
X112028420Y-89200800D01*
X114920040Y-92092419D01*
G36*
X97993200Y-122834400D02*
X98013200Y-122834400D01*
X98013200Y-123088400D01*
X97993200Y-123088400D01*
X97993200Y-123108400D01*
X97739200Y-123108400D01*
X97739200Y-123088400D01*
X97719200Y-123088400D01*
X97719200Y-122834400D01*
X97739200Y-122834400D01*
X97739200Y-122814400D01*
X97993200Y-122814400D01*
X97993200Y-122834400D01*
X97993200Y-122834400D01*
G37*
X97993200Y-122834400D02*
X98013200Y-122834400D01*
X98013200Y-123088400D01*
X97993200Y-123088400D01*
X97993200Y-123108400D01*
X97739200Y-123108400D01*
X97739200Y-123088400D01*
X97719200Y-123088400D01*
X97719200Y-122834400D01*
X97739200Y-122834400D01*
X97739200Y-122814400D01*
X97993200Y-122814400D01*
X97993200Y-122834400D01*
M02*
