M48
;DRILL file {KiCad 4.0.7} date 05/30/18 20:17:30
;FORMAT={-:-/ absolute / inch / decimal}
FMAT,2
INCH,TZ
T1C0.016
T2C0.039
%
G90
G05
M72
T1
X3.0295Y-4.013
X3.0725Y-3.6595
X3.104Y-4.004
X3.134Y-3.6785
X3.2485Y-3.355
X3.291Y-3.4055
X3.3705Y-3.5345
X3.41Y-3.4795
X3.4145Y-3.586
X3.498Y-3.429
X3.537Y-3.144
X3.5625Y-3.2115
X3.7845Y-3.372
X3.8745Y-3.0705
X3.8745Y-3.1335
X3.938Y-4.105
X4.0855Y-4.0875
X4.128Y-3.4305
X4.1345Y-3.693
X4.1395Y-3.638
X4.1855Y-3.6935
X4.1895Y-3.483
X4.2255Y-3.2055
X4.2345Y-3.5505
X4.257Y-3.144
X4.276Y-3.5965
X4.298Y-4.035
X4.3005Y-3.8655
X4.303Y-3.7425
X4.309Y-3.6895
X4.371Y-4.0085
X4.3775Y-3.823
X4.378Y-3.9035
X4.424Y-3.9065
X4.4245Y-3.8245
X4.4585Y-4.0335
X4.475Y-3.8655
X4.4985Y-3.387
X4.5585Y-3.357
X4.683Y-3.6915
X4.6835Y-4.081
X4.743Y-3.66
X4.784Y-4.02
T2
X3.8705Y-4.7745
X3.8705Y-4.8745
X3.9705Y-4.7745
X3.9705Y-4.8745
T0
M30
