G04 #@! TF.FileFunction,Copper,L2,Bot,Signal*
%FSLAX46Y46*%
G04 Gerber Fmt 4.6, Leading zero omitted, Abs format (unit mm)*
G04 Created by KiCad (PCBNEW 4.0.7) date 06/18/18 14:12:05*
%MOMM*%
%LPD*%
G01*
G04 APERTURE LIST*
%ADD10C,0.100000*%
%ADD11C,1.700000*%
%ADD12O,1.700000X1.700000*%
%ADD13R,1.600000X2.000000*%
%ADD14R,0.431800X1.651000*%
%ADD15C,0.600000*%
%ADD16C,0.200000*%
%ADD17C,0.500000*%
%ADD18C,0.254000*%
G04 APERTURE END LIST*
D10*
D11*
X100965000Y-120904000D03*
D12*
X100965000Y-123444000D03*
X98425000Y-120904000D03*
X98425000Y-123444000D03*
D10*
G36*
X118352700Y-87146564D02*
X117050425Y-88239303D01*
X115764850Y-86707214D01*
X117067125Y-85614475D01*
X118352700Y-87146564D01*
X118352700Y-87146564D01*
G37*
G36*
X115781550Y-84082386D02*
X114479275Y-85175125D01*
X113193700Y-83643036D01*
X114495975Y-82550297D01*
X115781550Y-84082386D01*
X115781550Y-84082386D01*
G37*
G36*
X75548968Y-99142699D02*
X77242499Y-98994534D01*
X77416810Y-100986923D01*
X75723279Y-101135088D01*
X75548968Y-99142699D01*
X75548968Y-99142699D01*
G37*
G36*
X75897590Y-103127477D02*
X77591121Y-102979312D01*
X77765432Y-104971701D01*
X76071901Y-105119866D01*
X75897590Y-103127477D01*
X75897590Y-103127477D01*
G37*
G36*
X78052921Y-89955805D02*
X79650399Y-90537240D01*
X78966359Y-92416625D01*
X77368881Y-91835190D01*
X78052921Y-89955805D01*
X78052921Y-89955805D01*
G37*
G36*
X76684841Y-93714575D02*
X78282319Y-94296010D01*
X77598279Y-96175395D01*
X76000801Y-95593960D01*
X76684841Y-93714575D01*
X76684841Y-93714575D01*
G37*
G36*
X83925719Y-82444204D02*
X85189065Y-83581726D01*
X83850803Y-85068016D01*
X82587457Y-83930494D01*
X83925719Y-82444204D01*
X83925719Y-82444204D01*
G37*
G36*
X81249197Y-85416784D02*
X82512543Y-86554306D01*
X81174281Y-88040596D01*
X79910935Y-86903074D01*
X81249197Y-85416784D01*
X81249197Y-85416784D01*
G37*
G36*
X92123298Y-77819383D02*
X92841749Y-79360106D01*
X91029134Y-80205343D01*
X90310683Y-78664620D01*
X92123298Y-77819383D01*
X92123298Y-77819383D01*
G37*
G36*
X88498066Y-79509857D02*
X89216517Y-81050580D01*
X87403902Y-81895817D01*
X86685451Y-80355094D01*
X88498066Y-79509857D01*
X88498066Y-79509857D01*
G37*
G36*
X111290363Y-80148896D02*
X110598910Y-81701923D01*
X108771819Y-80888450D01*
X109463272Y-79335423D01*
X111290363Y-80148896D01*
X111290363Y-80148896D01*
G37*
G36*
X107636181Y-78521950D02*
X106944728Y-80074977D01*
X105117637Y-79261504D01*
X105809090Y-77708477D01*
X107636181Y-78521950D01*
X107636181Y-78521950D01*
G37*
G36*
X122271599Y-95543160D02*
X120674121Y-96124595D01*
X119990081Y-94245210D01*
X121587559Y-93663775D01*
X122271599Y-95543160D01*
X122271599Y-95543160D01*
G37*
G36*
X120903519Y-91784390D02*
X119306041Y-92365825D01*
X118622001Y-90486440D01*
X120219479Y-89905005D01*
X120903519Y-91784390D01*
X120903519Y-91784390D01*
G37*
G36*
X122149699Y-105069066D02*
X120456168Y-104920901D01*
X120630479Y-102928512D01*
X122324010Y-103076677D01*
X122149699Y-105069066D01*
X122149699Y-105069066D01*
G37*
G36*
X122498321Y-101084288D02*
X120804790Y-100936123D01*
X120979101Y-98943734D01*
X122672632Y-99091899D01*
X122498321Y-101084288D01*
X122498321Y-101084288D01*
G37*
D13*
X84734400Y-99917500D03*
X84734400Y-103917500D03*
D14*
X95775000Y-96495000D03*
X96425000Y-96495000D03*
X97075000Y-96495000D03*
X97725000Y-96495000D03*
X98375000Y-96495000D03*
X99025000Y-96495000D03*
X99675000Y-96495000D03*
X100325000Y-96495000D03*
X100975000Y-96495000D03*
X101625000Y-96495000D03*
X102275000Y-96495000D03*
X102925000Y-96495000D03*
X103575000Y-96495000D03*
X104225000Y-96495000D03*
X104225000Y-103505000D03*
X103575000Y-103505000D03*
X102925000Y-103505000D03*
X102275000Y-103505000D03*
X101625000Y-103505000D03*
X100975000Y-103505000D03*
X100325000Y-103505000D03*
X99675000Y-103505000D03*
X99025000Y-103505000D03*
X98375000Y-103505000D03*
X97725000Y-103505000D03*
X97075000Y-103505000D03*
X96425000Y-103505000D03*
X95775000Y-103505000D03*
D15*
X76611480Y-102011480D03*
X77871320Y-93040200D03*
X82336640Y-85308440D03*
X89611200Y-79822040D03*
X108356400Y-79898240D03*
X115783360Y-85440520D03*
X120548400Y-93080840D03*
X121732040Y-102031800D03*
D16*
X100939600Y-96530400D02*
X100939600Y-97836800D01*
D17*
X84734400Y-98488500D02*
X85039200Y-98183700D01*
X85039200Y-98183700D02*
X100592700Y-98183700D01*
X100592700Y-98183700D02*
X100939600Y-97836800D01*
X84734400Y-98488500D02*
X84734400Y-99917500D01*
X102275000Y-101665400D02*
X102275000Y-101563800D01*
X102275000Y-101563800D02*
X100628700Y-99917500D01*
X100628700Y-99917500D02*
X84734400Y-99917500D01*
D16*
X102275000Y-103505000D02*
X102275000Y-101665400D01*
X102275000Y-101665400D02*
X102260400Y-101650800D01*
D17*
X98425000Y-120904000D02*
X83687920Y-120904000D01*
X83687920Y-120904000D02*
X80020160Y-117236240D01*
X80020160Y-117236240D02*
X80020160Y-101422200D01*
X80020160Y-101422200D02*
X81593440Y-99848920D01*
X81593440Y-99848920D02*
X84772500Y-99848920D01*
D16*
X102900000Y-103505000D02*
X103575000Y-103505000D01*
X103575000Y-103505000D02*
X104225000Y-103505000D01*
X84734400Y-103917500D02*
X94011500Y-103917500D01*
X102900000Y-104850000D02*
X102900000Y-103505000D01*
X102600000Y-105150000D02*
X102900000Y-104850000D01*
X95244000Y-105150000D02*
X102600000Y-105150000D01*
X94011500Y-103917500D02*
X95244000Y-105150000D01*
X101630480Y-96536700D02*
X101630480Y-98391980D01*
X84734400Y-105084400D02*
X84734400Y-103917500D01*
X85650000Y-106000000D02*
X84734400Y-105084400D01*
X104000000Y-106000000D02*
X85650000Y-106000000D01*
X105050000Y-104950000D02*
X104000000Y-106000000D01*
X105050000Y-100600000D02*
X105050000Y-104950000D01*
X103624300Y-99174300D02*
X105050000Y-100600000D01*
X102412800Y-99174300D02*
X103624300Y-99174300D01*
X101630480Y-98391980D02*
X102412800Y-99174300D01*
X98425000Y-123444000D02*
X98442780Y-123444000D01*
X98442780Y-123444000D02*
X99684840Y-122201940D01*
X99684840Y-122201940D02*
X99684840Y-119969280D01*
X99684840Y-119969280D02*
X99214940Y-119499380D01*
X99214940Y-119499380D02*
X84350860Y-119499380D01*
X84350860Y-119499380D02*
X81381600Y-116530120D01*
X81381600Y-116530120D02*
X81381600Y-104736900D01*
X81381600Y-104736900D02*
X82269580Y-103848920D01*
X82269580Y-103848920D02*
X84734400Y-103848920D01*
X76831511Y-104049589D02*
X76831511Y-102231511D01*
X76831511Y-102231511D02*
X76611480Y-102011480D01*
X76831511Y-102053711D02*
X76733400Y-101955600D01*
X77141560Y-93769960D02*
X77141560Y-94944985D01*
X77871320Y-93040200D02*
X77141560Y-93769960D01*
X81211739Y-86728690D02*
X81211739Y-86433341D01*
X81211739Y-86433341D02*
X82336640Y-85308440D01*
X87950984Y-80702837D02*
X88730403Y-80702837D01*
X88730403Y-80702837D02*
X89611200Y-79822040D01*
X106376909Y-78891727D02*
X107349887Y-78891727D01*
X107349887Y-78891727D02*
X108356400Y-79898240D01*
X114487625Y-83862711D02*
X114487625Y-84144785D01*
X114487625Y-84144785D02*
X115783360Y-85440520D01*
X119762760Y-91135415D02*
X119762760Y-92295200D01*
X119762760Y-92295200D02*
X120548400Y-93080840D01*
X121738711Y-100014011D02*
X121738711Y-102025129D01*
X121738711Y-102025129D02*
X121732040Y-102031800D01*
X95775000Y-96507700D02*
X95775000Y-86275400D01*
X80162400Y-96281240D02*
X76334339Y-100109301D01*
X80162400Y-90642440D02*
X80162400Y-96281240D01*
X85156040Y-85648800D02*
X80162400Y-90642440D01*
X85877400Y-85648800D02*
X85156040Y-85648800D01*
X88849200Y-82677000D02*
X85877400Y-85648800D01*
X92176600Y-82677000D02*
X88849200Y-82677000D01*
X95775000Y-86275400D02*
X92176600Y-82677000D01*
X96425000Y-96502900D02*
X96425000Y-86315800D01*
X84963000Y-85156040D02*
X78932825Y-91186215D01*
X85765640Y-85156040D02*
X84963000Y-85156040D01*
X88661240Y-82260440D02*
X85765640Y-85156040D01*
X92369640Y-82260440D02*
X88661240Y-82260440D01*
X96425000Y-86315800D02*
X92369640Y-82260440D01*
X78932825Y-91186215D02*
X78509640Y-91186215D01*
X97075000Y-96459300D02*
X97075000Y-86290160D01*
X86591530Y-83756110D02*
X83888261Y-83756110D01*
X88544400Y-81803240D02*
X86591530Y-83756110D01*
X92588080Y-81803240D02*
X88544400Y-81803240D01*
X97075000Y-86290160D02*
X92588080Y-81803240D01*
X97725000Y-96395000D02*
X97725000Y-86335640D01*
X92623640Y-80059787D02*
X91576216Y-79012363D01*
X92623640Y-81234280D02*
X92623640Y-80059787D01*
X97725000Y-86335640D02*
X92623640Y-81234280D01*
X98375000Y-96863300D02*
X98375000Y-86537000D01*
X109076724Y-81473040D02*
X110031091Y-80518673D01*
X103438960Y-81473040D02*
X109076724Y-81473040D01*
X98375000Y-86537000D02*
X103438960Y-81473040D01*
X99025000Y-86496600D02*
X103601520Y-81920080D01*
X103601520Y-81920080D02*
X109320080Y-81920080D01*
X109320080Y-81920080D02*
X114326889Y-86926889D01*
X114326889Y-86926889D02*
X117058775Y-86926889D01*
X99025000Y-96359300D02*
X99025000Y-86496600D01*
X99649280Y-96329500D02*
X99649280Y-86481920D01*
X118810825Y-94894185D02*
X121130840Y-94894185D01*
X118018560Y-94101920D02*
X118810825Y-94894185D01*
X118018560Y-91224100D02*
X118018560Y-94101920D01*
X109189520Y-82395060D02*
X118018560Y-91224100D01*
X103736140Y-82395060D02*
X109189520Y-82395060D01*
X99649280Y-86481920D02*
X103736140Y-82395060D01*
X100309680Y-96327900D02*
X100309680Y-86431120D01*
X119421669Y-103998789D02*
X121390089Y-103998789D01*
X119176800Y-103753920D02*
X119421669Y-103998789D01*
X119176800Y-95897700D02*
X119176800Y-103753920D01*
X117538500Y-94259400D02*
X119176800Y-95897700D01*
X117538500Y-91358720D02*
X117538500Y-94259400D01*
X109059980Y-82880200D02*
X117538500Y-91358720D01*
X103860600Y-82880200D02*
X109059980Y-82880200D01*
X100309680Y-86431120D02*
X103860600Y-82880200D01*
X100965000Y-123444000D02*
X108402120Y-123444000D01*
X102900480Y-84551520D02*
X102900480Y-96376300D01*
X104089200Y-83362800D02*
X102900480Y-84551520D01*
X108945680Y-83362800D02*
X104089200Y-83362800D01*
X117096540Y-91513660D02*
X108945680Y-83362800D01*
X117096540Y-94446540D02*
X117096540Y-91513660D01*
X118750000Y-96100000D02*
X117096540Y-94446540D01*
X118750000Y-113096120D02*
X118750000Y-96100000D01*
X108402120Y-123444000D02*
X118750000Y-113096120D01*
X103561680Y-96427100D02*
X103561680Y-84906320D01*
X109626400Y-120904000D02*
X100965000Y-120904000D01*
X118000000Y-112530400D02*
X109626400Y-120904000D01*
X118000000Y-96450000D02*
X118000000Y-112530400D01*
X116400000Y-94850000D02*
X118000000Y-96450000D01*
X116400000Y-91914400D02*
X116400000Y-94850000D01*
X108559600Y-84074000D02*
X116400000Y-91914400D01*
X104394000Y-84074000D02*
X108559600Y-84074000D01*
X103561680Y-84906320D02*
X104394000Y-84074000D01*
D18*
G36*
X119811192Y-104864473D02*
X119834792Y-105102753D01*
X119954498Y-105330176D01*
X120153254Y-105493109D01*
X120399740Y-105565877D01*
X122093271Y-105714042D01*
X122331551Y-105690442D01*
X122558974Y-105570736D01*
X122625661Y-105489387D01*
X122499884Y-106055382D01*
X122253495Y-106991663D01*
X122008172Y-107776696D01*
X121708163Y-108626721D01*
X121464549Y-109308840D01*
X121222840Y-109840600D01*
X121221048Y-109848242D01*
X121216607Y-109854717D01*
X120920024Y-110546744D01*
X120527763Y-111331266D01*
X120193111Y-111952762D01*
X120110044Y-112077363D01*
X120083490Y-112141659D01*
X120044846Y-112199495D01*
X120031132Y-112268438D01*
X120004298Y-112333414D01*
X120004371Y-112402977D01*
X119990800Y-112471200D01*
X119990800Y-113965674D01*
X119945154Y-114513431D01*
X119802743Y-115320423D01*
X119612213Y-116082544D01*
X119468435Y-116513878D01*
X119279023Y-117082113D01*
X118808461Y-118070293D01*
X118476200Y-118592418D01*
X118139162Y-119122049D01*
X117264531Y-120239633D01*
X116647674Y-120903942D01*
X115763476Y-121689895D01*
X115083548Y-122272691D01*
X114606477Y-122606641D01*
X113814270Y-123151283D01*
X113071108Y-123597180D01*
X112586488Y-123887952D01*
X112102878Y-124129757D01*
X112090506Y-124139359D01*
X112075594Y-124144148D01*
X111640267Y-124385996D01*
X110908743Y-124727374D01*
X110118523Y-125073095D01*
X108832324Y-125567787D01*
X107751894Y-125911560D01*
X106813110Y-126158609D01*
X105967468Y-126357583D01*
X104773445Y-126606338D01*
X103534391Y-126804587D01*
X102687653Y-126904203D01*
X101799324Y-127002906D01*
X100670170Y-127052000D01*
X97860510Y-127052000D01*
X96976858Y-127002908D01*
X95839014Y-126903965D01*
X94452923Y-126705952D01*
X93158873Y-126457096D01*
X92720720Y-126359729D01*
X91917002Y-126158800D01*
X91917001Y-126158799D01*
X91510602Y-126057200D01*
X91510601Y-126057199D01*
X91125931Y-125961032D01*
X90039352Y-125615302D01*
X89050255Y-125269118D01*
X87966566Y-124825791D01*
X87127149Y-124430771D01*
X86239739Y-123987066D01*
X85918164Y-123800890D01*
X96983524Y-123800890D01*
X97153355Y-124210924D01*
X97543642Y-124639183D01*
X98068108Y-124885486D01*
X98298000Y-124764819D01*
X98298000Y-123571000D01*
X97104845Y-123571000D01*
X96983524Y-123800890D01*
X85918164Y-123800890D01*
X85309182Y-123448321D01*
X84331308Y-122812703D01*
X83499450Y-122176576D01*
X82672215Y-121495323D01*
X82340846Y-121163954D01*
X82340843Y-121163952D01*
X81842140Y-120665248D01*
X81213782Y-119988556D01*
X80594335Y-119178510D01*
X80400143Y-118867803D01*
X83062128Y-121529787D01*
X83062130Y-121529790D01*
X83349245Y-121721633D01*
X83405436Y-121732810D01*
X83687920Y-121789001D01*
X83687925Y-121789000D01*
X97235568Y-121789000D01*
X97345853Y-121954054D01*
X97686553Y-122181702D01*
X97543642Y-122248817D01*
X97153355Y-122677076D01*
X96983524Y-123087110D01*
X97104845Y-123317000D01*
X98298000Y-123317000D01*
X98298000Y-123297000D01*
X98552000Y-123297000D01*
X98552000Y-123317000D01*
X98572000Y-123317000D01*
X98572000Y-123571000D01*
X98552000Y-123571000D01*
X98552000Y-124764819D01*
X98781892Y-124885486D01*
X99306358Y-124639183D01*
X99696645Y-124210924D01*
X99696655Y-124210899D01*
X99885853Y-124494054D01*
X100367622Y-124815961D01*
X100935907Y-124929000D01*
X100994093Y-124929000D01*
X101562378Y-124815961D01*
X102044147Y-124494054D01*
X102254659Y-124179000D01*
X108402120Y-124179000D01*
X108683392Y-124123051D01*
X108921843Y-123963723D01*
X119269723Y-113615844D01*
X119429051Y-113377392D01*
X119446901Y-113287653D01*
X119485000Y-113096120D01*
X119485000Y-104733789D01*
X119822625Y-104733789D01*
X119811192Y-104864473D01*
X119811192Y-104864473D01*
G37*
X119811192Y-104864473D02*
X119834792Y-105102753D01*
X119954498Y-105330176D01*
X120153254Y-105493109D01*
X120399740Y-105565877D01*
X122093271Y-105714042D01*
X122331551Y-105690442D01*
X122558974Y-105570736D01*
X122625661Y-105489387D01*
X122499884Y-106055382D01*
X122253495Y-106991663D01*
X122008172Y-107776696D01*
X121708163Y-108626721D01*
X121464549Y-109308840D01*
X121222840Y-109840600D01*
X121221048Y-109848242D01*
X121216607Y-109854717D01*
X120920024Y-110546744D01*
X120527763Y-111331266D01*
X120193111Y-111952762D01*
X120110044Y-112077363D01*
X120083490Y-112141659D01*
X120044846Y-112199495D01*
X120031132Y-112268438D01*
X120004298Y-112333414D01*
X120004371Y-112402977D01*
X119990800Y-112471200D01*
X119990800Y-113965674D01*
X119945154Y-114513431D01*
X119802743Y-115320423D01*
X119612213Y-116082544D01*
X119468435Y-116513878D01*
X119279023Y-117082113D01*
X118808461Y-118070293D01*
X118476200Y-118592418D01*
X118139162Y-119122049D01*
X117264531Y-120239633D01*
X116647674Y-120903942D01*
X115763476Y-121689895D01*
X115083548Y-122272691D01*
X114606477Y-122606641D01*
X113814270Y-123151283D01*
X113071108Y-123597180D01*
X112586488Y-123887952D01*
X112102878Y-124129757D01*
X112090506Y-124139359D01*
X112075594Y-124144148D01*
X111640267Y-124385996D01*
X110908743Y-124727374D01*
X110118523Y-125073095D01*
X108832324Y-125567787D01*
X107751894Y-125911560D01*
X106813110Y-126158609D01*
X105967468Y-126357583D01*
X104773445Y-126606338D01*
X103534391Y-126804587D01*
X102687653Y-126904203D01*
X101799324Y-127002906D01*
X100670170Y-127052000D01*
X97860510Y-127052000D01*
X96976858Y-127002908D01*
X95839014Y-126903965D01*
X94452923Y-126705952D01*
X93158873Y-126457096D01*
X92720720Y-126359729D01*
X91917002Y-126158800D01*
X91917001Y-126158799D01*
X91510602Y-126057200D01*
X91510601Y-126057199D01*
X91125931Y-125961032D01*
X90039352Y-125615302D01*
X89050255Y-125269118D01*
X87966566Y-124825791D01*
X87127149Y-124430771D01*
X86239739Y-123987066D01*
X85918164Y-123800890D01*
X96983524Y-123800890D01*
X97153355Y-124210924D01*
X97543642Y-124639183D01*
X98068108Y-124885486D01*
X98298000Y-124764819D01*
X98298000Y-123571000D01*
X97104845Y-123571000D01*
X96983524Y-123800890D01*
X85918164Y-123800890D01*
X85309182Y-123448321D01*
X84331308Y-122812703D01*
X83499450Y-122176576D01*
X82672215Y-121495323D01*
X82340846Y-121163954D01*
X82340843Y-121163952D01*
X81842140Y-120665248D01*
X81213782Y-119988556D01*
X80594335Y-119178510D01*
X80400143Y-118867803D01*
X83062128Y-121529787D01*
X83062130Y-121529790D01*
X83349245Y-121721633D01*
X83405436Y-121732810D01*
X83687920Y-121789001D01*
X83687925Y-121789000D01*
X97235568Y-121789000D01*
X97345853Y-121954054D01*
X97686553Y-122181702D01*
X97543642Y-122248817D01*
X97153355Y-122677076D01*
X96983524Y-123087110D01*
X97104845Y-123317000D01*
X98298000Y-123317000D01*
X98298000Y-123297000D01*
X98552000Y-123297000D01*
X98552000Y-123317000D01*
X98572000Y-123317000D01*
X98572000Y-123571000D01*
X98552000Y-123571000D01*
X98552000Y-124764819D01*
X98781892Y-124885486D01*
X99306358Y-124639183D01*
X99696645Y-124210924D01*
X99696655Y-124210899D01*
X99885853Y-124494054D01*
X100367622Y-124815961D01*
X100935907Y-124929000D01*
X100994093Y-124929000D01*
X101562378Y-124815961D01*
X102044147Y-124494054D01*
X102254659Y-124179000D01*
X108402120Y-124179000D01*
X108683392Y-124123051D01*
X108921843Y-123963723D01*
X119269723Y-113615844D01*
X119429051Y-113377392D01*
X119446901Y-113287653D01*
X119485000Y-113096120D01*
X119485000Y-104733789D01*
X119822625Y-104733789D01*
X119811192Y-104864473D01*
G36*
X99705344Y-121744086D02*
X100122717Y-122162188D01*
X100190550Y-122190355D01*
X99885853Y-122393946D01*
X99696655Y-122677101D01*
X99696645Y-122677076D01*
X99306358Y-122248817D01*
X99163447Y-122181702D01*
X99504147Y-121954054D01*
X99682074Y-121687767D01*
X99705344Y-121744086D01*
X99705344Y-121744086D01*
G37*
X99705344Y-121744086D02*
X100122717Y-122162188D01*
X100190550Y-122190355D01*
X99885853Y-122393946D01*
X99696655Y-122677101D01*
X99696645Y-122677076D01*
X99306358Y-122248817D01*
X99163447Y-122181702D01*
X99504147Y-121954054D01*
X99682074Y-121687767D01*
X99705344Y-121744086D01*
G36*
X115665000Y-92218846D02*
X115665000Y-94850000D01*
X115714828Y-95100500D01*
X115720949Y-95131272D01*
X115880277Y-95369723D01*
X117265000Y-96754447D01*
X117265000Y-112225953D01*
X109321954Y-120169000D01*
X102268077Y-120169000D01*
X102224656Y-120063914D01*
X101807283Y-119645812D01*
X101261681Y-119419258D01*
X100670911Y-119418743D01*
X100124914Y-119644344D01*
X99706812Y-120061717D01*
X99682345Y-120120639D01*
X99504147Y-119853946D01*
X99022378Y-119532039D01*
X98454093Y-119419000D01*
X98395907Y-119419000D01*
X97827622Y-119532039D01*
X97345853Y-119853946D01*
X97235568Y-120019000D01*
X84054499Y-120019000D01*
X80905160Y-116869660D01*
X80905160Y-104203250D01*
X83299400Y-104203250D01*
X83299400Y-105043809D01*
X83396073Y-105277198D01*
X83574701Y-105455827D01*
X83808090Y-105552500D01*
X84448650Y-105552500D01*
X84607400Y-105393750D01*
X84607400Y-104044500D01*
X84861400Y-104044500D01*
X84861400Y-105393750D01*
X85020150Y-105552500D01*
X85660710Y-105552500D01*
X85894099Y-105455827D01*
X86072727Y-105277198D01*
X86169400Y-105043809D01*
X86169400Y-104203250D01*
X86010650Y-104044500D01*
X84861400Y-104044500D01*
X84607400Y-104044500D01*
X83458150Y-104044500D01*
X83299400Y-104203250D01*
X80905160Y-104203250D01*
X80905160Y-102791191D01*
X83299400Y-102791191D01*
X83299400Y-103631750D01*
X83458150Y-103790500D01*
X84607400Y-103790500D01*
X84607400Y-102441250D01*
X84861400Y-102441250D01*
X84861400Y-103790500D01*
X86010650Y-103790500D01*
X86169400Y-103631750D01*
X86169400Y-102791191D01*
X86072727Y-102557802D01*
X85894099Y-102379173D01*
X85660710Y-102282500D01*
X85020150Y-102282500D01*
X84861400Y-102441250D01*
X84607400Y-102441250D01*
X84448650Y-102282500D01*
X83808090Y-102282500D01*
X83574701Y-102379173D01*
X83396073Y-102557802D01*
X83299400Y-102791191D01*
X80905160Y-102791191D01*
X80905160Y-101788780D01*
X81960019Y-100733920D01*
X83286960Y-100733920D01*
X83286960Y-100917500D01*
X83331238Y-101152817D01*
X83470310Y-101368941D01*
X83682510Y-101513931D01*
X83934400Y-101564940D01*
X85534400Y-101564940D01*
X85769717Y-101520662D01*
X85985841Y-101381590D01*
X86130831Y-101169390D01*
X86181840Y-100917500D01*
X86181840Y-100802500D01*
X100262120Y-100802500D01*
X101455796Y-101996175D01*
X101457367Y-102004075D01*
X101476066Y-102032060D01*
X101409100Y-102032060D01*
X101295995Y-102053342D01*
X101190900Y-102032060D01*
X100759100Y-102032060D01*
X100645995Y-102053342D01*
X100540900Y-102032060D01*
X100109100Y-102032060D01*
X99995995Y-102053342D01*
X99890900Y-102032060D01*
X99459100Y-102032060D01*
X99345995Y-102053342D01*
X99240900Y-102032060D01*
X98809100Y-102032060D01*
X98695995Y-102053342D01*
X98590900Y-102032060D01*
X98159100Y-102032060D01*
X98045995Y-102053342D01*
X97940900Y-102032060D01*
X97509100Y-102032060D01*
X97395995Y-102053342D01*
X97290900Y-102032060D01*
X96859100Y-102032060D01*
X96745995Y-102053342D01*
X96640900Y-102032060D01*
X96209100Y-102032060D01*
X96095995Y-102053342D01*
X95990900Y-102032060D01*
X95559100Y-102032060D01*
X95323783Y-102076338D01*
X95107659Y-102215410D01*
X94962669Y-102427610D01*
X94911660Y-102679500D01*
X94911660Y-104330500D01*
X94955938Y-104565817D01*
X95095010Y-104781941D01*
X95307210Y-104926931D01*
X95559100Y-104977940D01*
X95990900Y-104977940D01*
X96104005Y-104956658D01*
X96209100Y-104977940D01*
X96640900Y-104977940D01*
X96754005Y-104956658D01*
X96859100Y-104977940D01*
X97290900Y-104977940D01*
X97404005Y-104956658D01*
X97509100Y-104977940D01*
X97940900Y-104977940D01*
X98054005Y-104956658D01*
X98159100Y-104977940D01*
X98590900Y-104977940D01*
X98704005Y-104956658D01*
X98809100Y-104977940D01*
X99240900Y-104977940D01*
X99354005Y-104956658D01*
X99459100Y-104977940D01*
X99890900Y-104977940D01*
X100004005Y-104956658D01*
X100109100Y-104977940D01*
X100540900Y-104977940D01*
X100654005Y-104956658D01*
X100759100Y-104977940D01*
X101190900Y-104977940D01*
X101304005Y-104956658D01*
X101409100Y-104977940D01*
X101840900Y-104977940D01*
X101954005Y-104956658D01*
X102059100Y-104977940D01*
X102490900Y-104977940D01*
X102574738Y-104962165D01*
X102582790Y-104965500D01*
X102658300Y-104965500D01*
X102681776Y-104942024D01*
X102726217Y-104933662D01*
X102931890Y-104801315D01*
X102999401Y-104868827D01*
X103162645Y-104936445D01*
X103191700Y-104965500D01*
X103308300Y-104965500D01*
X103337355Y-104936445D01*
X103500599Y-104868827D01*
X103575000Y-104794426D01*
X103649401Y-104868827D01*
X103812645Y-104936445D01*
X103841700Y-104965500D01*
X103958300Y-104965500D01*
X103987355Y-104936445D01*
X104150599Y-104868827D01*
X104329227Y-104690198D01*
X104332950Y-104681210D01*
X104332950Y-104806750D01*
X104491700Y-104965500D01*
X104567210Y-104965500D01*
X104800599Y-104868827D01*
X104979227Y-104690198D01*
X105075900Y-104456809D01*
X105075900Y-103790750D01*
X104917150Y-103632000D01*
X104332950Y-103632000D01*
X104332950Y-103697800D01*
X104267150Y-103632000D01*
X103428000Y-103632000D01*
X103428000Y-103378000D01*
X104267150Y-103378000D01*
X104332950Y-103312200D01*
X104332950Y-103378000D01*
X104917150Y-103378000D01*
X105075900Y-103219250D01*
X105075900Y-102553191D01*
X104979227Y-102319802D01*
X104800599Y-102141173D01*
X104567210Y-102044500D01*
X104491700Y-102044500D01*
X104332950Y-102203250D01*
X104332950Y-102328790D01*
X104329227Y-102319802D01*
X104150599Y-102141173D01*
X103987355Y-102073555D01*
X103958300Y-102044500D01*
X103841700Y-102044500D01*
X103812645Y-102073555D01*
X103649401Y-102141173D01*
X103575000Y-102215574D01*
X103500599Y-102141173D01*
X103337355Y-102073555D01*
X103308300Y-102044500D01*
X103191700Y-102044500D01*
X103162645Y-102073555D01*
X103052002Y-102119385D01*
X103052002Y-102064884D01*
X103092633Y-102004075D01*
X103160000Y-101665400D01*
X103160000Y-101563805D01*
X103160001Y-101563800D01*
X103102848Y-101276481D01*
X103092633Y-101225125D01*
X102900790Y-100938010D01*
X102900787Y-100938008D01*
X101254490Y-99291710D01*
X101144704Y-99218354D01*
X100967375Y-99099867D01*
X100911184Y-99088690D01*
X100701698Y-99047019D01*
X100885792Y-99010400D01*
X100931375Y-99001333D01*
X101218490Y-98809490D01*
X101565390Y-98462589D01*
X101757233Y-98175474D01*
X101808605Y-97917214D01*
X101864792Y-97928592D01*
X101891700Y-97955500D01*
X101967210Y-97955500D01*
X101977212Y-97951357D01*
X102059100Y-97967940D01*
X102490900Y-97967940D01*
X102604005Y-97946658D01*
X102709100Y-97967940D01*
X103140900Y-97967940D01*
X103254005Y-97946658D01*
X103359100Y-97967940D01*
X103790900Y-97967940D01*
X103904005Y-97946658D01*
X104009100Y-97967940D01*
X104440900Y-97967940D01*
X104676217Y-97923662D01*
X104892341Y-97784590D01*
X105037331Y-97572390D01*
X105088340Y-97320500D01*
X105088340Y-95669500D01*
X105044062Y-95434183D01*
X104904990Y-95218059D01*
X104692790Y-95073069D01*
X104440900Y-95022060D01*
X104296680Y-95022060D01*
X104296680Y-85210766D01*
X104698447Y-84809000D01*
X108255154Y-84809000D01*
X115665000Y-92218846D01*
X115665000Y-92218846D01*
G37*
X115665000Y-92218846D02*
X115665000Y-94850000D01*
X115714828Y-95100500D01*
X115720949Y-95131272D01*
X115880277Y-95369723D01*
X117265000Y-96754447D01*
X117265000Y-112225953D01*
X109321954Y-120169000D01*
X102268077Y-120169000D01*
X102224656Y-120063914D01*
X101807283Y-119645812D01*
X101261681Y-119419258D01*
X100670911Y-119418743D01*
X100124914Y-119644344D01*
X99706812Y-120061717D01*
X99682345Y-120120639D01*
X99504147Y-119853946D01*
X99022378Y-119532039D01*
X98454093Y-119419000D01*
X98395907Y-119419000D01*
X97827622Y-119532039D01*
X97345853Y-119853946D01*
X97235568Y-120019000D01*
X84054499Y-120019000D01*
X80905160Y-116869660D01*
X80905160Y-104203250D01*
X83299400Y-104203250D01*
X83299400Y-105043809D01*
X83396073Y-105277198D01*
X83574701Y-105455827D01*
X83808090Y-105552500D01*
X84448650Y-105552500D01*
X84607400Y-105393750D01*
X84607400Y-104044500D01*
X84861400Y-104044500D01*
X84861400Y-105393750D01*
X85020150Y-105552500D01*
X85660710Y-105552500D01*
X85894099Y-105455827D01*
X86072727Y-105277198D01*
X86169400Y-105043809D01*
X86169400Y-104203250D01*
X86010650Y-104044500D01*
X84861400Y-104044500D01*
X84607400Y-104044500D01*
X83458150Y-104044500D01*
X83299400Y-104203250D01*
X80905160Y-104203250D01*
X80905160Y-102791191D01*
X83299400Y-102791191D01*
X83299400Y-103631750D01*
X83458150Y-103790500D01*
X84607400Y-103790500D01*
X84607400Y-102441250D01*
X84861400Y-102441250D01*
X84861400Y-103790500D01*
X86010650Y-103790500D01*
X86169400Y-103631750D01*
X86169400Y-102791191D01*
X86072727Y-102557802D01*
X85894099Y-102379173D01*
X85660710Y-102282500D01*
X85020150Y-102282500D01*
X84861400Y-102441250D01*
X84607400Y-102441250D01*
X84448650Y-102282500D01*
X83808090Y-102282500D01*
X83574701Y-102379173D01*
X83396073Y-102557802D01*
X83299400Y-102791191D01*
X80905160Y-102791191D01*
X80905160Y-101788780D01*
X81960019Y-100733920D01*
X83286960Y-100733920D01*
X83286960Y-100917500D01*
X83331238Y-101152817D01*
X83470310Y-101368941D01*
X83682510Y-101513931D01*
X83934400Y-101564940D01*
X85534400Y-101564940D01*
X85769717Y-101520662D01*
X85985841Y-101381590D01*
X86130831Y-101169390D01*
X86181840Y-100917500D01*
X86181840Y-100802500D01*
X100262120Y-100802500D01*
X101455796Y-101996175D01*
X101457367Y-102004075D01*
X101476066Y-102032060D01*
X101409100Y-102032060D01*
X101295995Y-102053342D01*
X101190900Y-102032060D01*
X100759100Y-102032060D01*
X100645995Y-102053342D01*
X100540900Y-102032060D01*
X100109100Y-102032060D01*
X99995995Y-102053342D01*
X99890900Y-102032060D01*
X99459100Y-102032060D01*
X99345995Y-102053342D01*
X99240900Y-102032060D01*
X98809100Y-102032060D01*
X98695995Y-102053342D01*
X98590900Y-102032060D01*
X98159100Y-102032060D01*
X98045995Y-102053342D01*
X97940900Y-102032060D01*
X97509100Y-102032060D01*
X97395995Y-102053342D01*
X97290900Y-102032060D01*
X96859100Y-102032060D01*
X96745995Y-102053342D01*
X96640900Y-102032060D01*
X96209100Y-102032060D01*
X96095995Y-102053342D01*
X95990900Y-102032060D01*
X95559100Y-102032060D01*
X95323783Y-102076338D01*
X95107659Y-102215410D01*
X94962669Y-102427610D01*
X94911660Y-102679500D01*
X94911660Y-104330500D01*
X94955938Y-104565817D01*
X95095010Y-104781941D01*
X95307210Y-104926931D01*
X95559100Y-104977940D01*
X95990900Y-104977940D01*
X96104005Y-104956658D01*
X96209100Y-104977940D01*
X96640900Y-104977940D01*
X96754005Y-104956658D01*
X96859100Y-104977940D01*
X97290900Y-104977940D01*
X97404005Y-104956658D01*
X97509100Y-104977940D01*
X97940900Y-104977940D01*
X98054005Y-104956658D01*
X98159100Y-104977940D01*
X98590900Y-104977940D01*
X98704005Y-104956658D01*
X98809100Y-104977940D01*
X99240900Y-104977940D01*
X99354005Y-104956658D01*
X99459100Y-104977940D01*
X99890900Y-104977940D01*
X100004005Y-104956658D01*
X100109100Y-104977940D01*
X100540900Y-104977940D01*
X100654005Y-104956658D01*
X100759100Y-104977940D01*
X101190900Y-104977940D01*
X101304005Y-104956658D01*
X101409100Y-104977940D01*
X101840900Y-104977940D01*
X101954005Y-104956658D01*
X102059100Y-104977940D01*
X102490900Y-104977940D01*
X102574738Y-104962165D01*
X102582790Y-104965500D01*
X102658300Y-104965500D01*
X102681776Y-104942024D01*
X102726217Y-104933662D01*
X102931890Y-104801315D01*
X102999401Y-104868827D01*
X103162645Y-104936445D01*
X103191700Y-104965500D01*
X103308300Y-104965500D01*
X103337355Y-104936445D01*
X103500599Y-104868827D01*
X103575000Y-104794426D01*
X103649401Y-104868827D01*
X103812645Y-104936445D01*
X103841700Y-104965500D01*
X103958300Y-104965500D01*
X103987355Y-104936445D01*
X104150599Y-104868827D01*
X104329227Y-104690198D01*
X104332950Y-104681210D01*
X104332950Y-104806750D01*
X104491700Y-104965500D01*
X104567210Y-104965500D01*
X104800599Y-104868827D01*
X104979227Y-104690198D01*
X105075900Y-104456809D01*
X105075900Y-103790750D01*
X104917150Y-103632000D01*
X104332950Y-103632000D01*
X104332950Y-103697800D01*
X104267150Y-103632000D01*
X103428000Y-103632000D01*
X103428000Y-103378000D01*
X104267150Y-103378000D01*
X104332950Y-103312200D01*
X104332950Y-103378000D01*
X104917150Y-103378000D01*
X105075900Y-103219250D01*
X105075900Y-102553191D01*
X104979227Y-102319802D01*
X104800599Y-102141173D01*
X104567210Y-102044500D01*
X104491700Y-102044500D01*
X104332950Y-102203250D01*
X104332950Y-102328790D01*
X104329227Y-102319802D01*
X104150599Y-102141173D01*
X103987355Y-102073555D01*
X103958300Y-102044500D01*
X103841700Y-102044500D01*
X103812645Y-102073555D01*
X103649401Y-102141173D01*
X103575000Y-102215574D01*
X103500599Y-102141173D01*
X103337355Y-102073555D01*
X103308300Y-102044500D01*
X103191700Y-102044500D01*
X103162645Y-102073555D01*
X103052002Y-102119385D01*
X103052002Y-102064884D01*
X103092633Y-102004075D01*
X103160000Y-101665400D01*
X103160000Y-101563805D01*
X103160001Y-101563800D01*
X103102848Y-101276481D01*
X103092633Y-101225125D01*
X102900790Y-100938010D01*
X102900787Y-100938008D01*
X101254490Y-99291710D01*
X101144704Y-99218354D01*
X100967375Y-99099867D01*
X100911184Y-99088690D01*
X100701698Y-99047019D01*
X100885792Y-99010400D01*
X100931375Y-99001333D01*
X101218490Y-98809490D01*
X101565390Y-98462589D01*
X101757233Y-98175474D01*
X101808605Y-97917214D01*
X101864792Y-97928592D01*
X101891700Y-97955500D01*
X101967210Y-97955500D01*
X101977212Y-97951357D01*
X102059100Y-97967940D01*
X102490900Y-97967940D01*
X102604005Y-97946658D01*
X102709100Y-97967940D01*
X103140900Y-97967940D01*
X103254005Y-97946658D01*
X103359100Y-97967940D01*
X103790900Y-97967940D01*
X103904005Y-97946658D01*
X104009100Y-97967940D01*
X104440900Y-97967940D01*
X104676217Y-97923662D01*
X104892341Y-97784590D01*
X105037331Y-97572390D01*
X105088340Y-97320500D01*
X105088340Y-95669500D01*
X105044062Y-95434183D01*
X104904990Y-95218059D01*
X104692790Y-95073069D01*
X104440900Y-95022060D01*
X104296680Y-95022060D01*
X104296680Y-85210766D01*
X104698447Y-84809000D01*
X108255154Y-84809000D01*
X115665000Y-92218846D01*
M02*
