G04 #@! TF.FileFunction,Profile,NP*
%FSLAX46Y46*%
G04 Gerber Fmt 4.6, Leading zero omitted, Abs format (unit mm)*
G04 Created by KiCad (PCBNEW 4.0.7) date 06/01/18 20:45:17*
%MOMM*%
%LPD*%
G01*
G04 APERTURE LIST*
%ADD10C,0.100000*%
%ADD11C,0.150000*%
G04 APERTURE END LIST*
D10*
D11*
X110490000Y-78079600D02*
X110845600Y-78282800D01*
X109474000Y-77622400D02*
X110490000Y-78079600D01*
X108864400Y-77317600D02*
X109474000Y-77622400D01*
X108102400Y-77012800D02*
X108864400Y-77317600D01*
X107289600Y-76708000D02*
X108102400Y-77012800D01*
X106476800Y-76454000D02*
X107289600Y-76708000D01*
X105664000Y-76200000D02*
X106476800Y-76454000D01*
X104902000Y-75996800D02*
X105664000Y-76200000D01*
X103835200Y-75793600D02*
X104902000Y-75996800D01*
X102971600Y-75641200D02*
X103835200Y-75793600D01*
X102412800Y-75539600D02*
X102971600Y-75641200D01*
X101955600Y-75488800D02*
X102412800Y-75539600D01*
X102463600Y-74930000D02*
X101955600Y-75488800D01*
X102920800Y-74218800D02*
X102463600Y-74930000D01*
X103124000Y-73761600D02*
X102920800Y-74218800D01*
X103327200Y-73304400D02*
X103124000Y-73761600D01*
X103530400Y-72644000D02*
X103327200Y-73304400D01*
X103682800Y-72136000D02*
X103530400Y-72644000D01*
X103784400Y-71475600D02*
X103682800Y-72136000D01*
X103784400Y-71221600D02*
X103784400Y-71475600D01*
X103835200Y-70561200D02*
X103784400Y-71221600D01*
X103835200Y-69900800D02*
X103835200Y-70561200D01*
X103835200Y-69697600D02*
X103835200Y-69900800D01*
X103784400Y-68986400D02*
X103835200Y-69697600D01*
X103784400Y-68681600D02*
X103784400Y-68986400D01*
X103682800Y-68122800D02*
X103784400Y-68681600D01*
X103581200Y-67767200D02*
X103682800Y-68122800D01*
X103428800Y-67208400D02*
X103581200Y-67767200D01*
X103225600Y-66700400D02*
X103428800Y-67208400D01*
X103073200Y-66446400D02*
X103225600Y-66700400D01*
X102819200Y-66040000D02*
X103073200Y-66446400D01*
X102463600Y-65735200D02*
X102819200Y-66040000D01*
X102158800Y-65481200D02*
X102463600Y-65735200D01*
X101803200Y-65328800D02*
X102158800Y-65481200D01*
X100482400Y-65328800D02*
X101803200Y-65328800D01*
X100279200Y-65430400D02*
X100482400Y-65328800D01*
X99872800Y-65684400D02*
X100279200Y-65430400D01*
X99568000Y-65887600D02*
X99872800Y-65684400D01*
X99060000Y-66395600D02*
X99568000Y-65887600D01*
X98755200Y-66802000D02*
X99060000Y-66395600D01*
X98501200Y-67259200D02*
X98755200Y-66802000D01*
X98247200Y-67767200D02*
X98501200Y-67259200D01*
X98094800Y-68122800D02*
X98247200Y-67767200D01*
X97993200Y-68326000D02*
X98094800Y-68122800D01*
X97891600Y-68630800D02*
X97993200Y-68326000D01*
X97790000Y-68986400D02*
X97891600Y-68630800D01*
X97688400Y-69392800D02*
X97790000Y-68986400D01*
X97586800Y-69748400D02*
X97688400Y-69392800D01*
X97536000Y-70104000D02*
X97586800Y-69748400D01*
X97485200Y-70459600D02*
X97536000Y-70104000D01*
X97485200Y-70815200D02*
X97485200Y-70459600D01*
X97332800Y-70764400D02*
X97485200Y-70815200D01*
X97180400Y-70713600D02*
X97332800Y-70764400D01*
X96977200Y-70612000D02*
X97180400Y-70713600D01*
X96824800Y-70561200D02*
X96977200Y-70612000D01*
X96469200Y-70459600D02*
X96824800Y-70561200D01*
X96164400Y-70358000D02*
X96469200Y-70459600D01*
X96062800Y-70307200D02*
X96164400Y-70358000D01*
X95758000Y-70256400D02*
X96062800Y-70307200D01*
X95554800Y-70205600D02*
X95758000Y-70256400D01*
X95199200Y-70205600D02*
X95554800Y-70205600D01*
X94945200Y-70205600D02*
X95199200Y-70205600D01*
X94488000Y-70205600D02*
X94945200Y-70205600D01*
X93878400Y-70205600D02*
X94488000Y-70205600D01*
X93624400Y-70205600D02*
X93878400Y-70205600D01*
X93522800Y-70256400D02*
X93624400Y-70205600D01*
X93268800Y-70358000D02*
X93522800Y-70256400D01*
X92964000Y-70561200D02*
X93268800Y-70358000D01*
X92760800Y-70764400D02*
X92964000Y-70561200D01*
X92557600Y-71018400D02*
X92760800Y-70764400D01*
X92456000Y-71272400D02*
X92557600Y-71018400D01*
X92405200Y-71628000D02*
X92456000Y-71272400D01*
X92354400Y-71882000D02*
X92405200Y-71628000D01*
X92354400Y-71983600D02*
X92354400Y-71882000D01*
X92354400Y-72491600D02*
X92354400Y-71983600D01*
X92354400Y-73101200D02*
X92354400Y-72491600D01*
X92354400Y-73660000D02*
X92354400Y-73101200D01*
X92354400Y-74015600D02*
X92354400Y-73660000D01*
X92405200Y-74269600D02*
X92354400Y-74015600D01*
X92456000Y-74472800D02*
X92405200Y-74269600D01*
X92557600Y-74726800D02*
X92456000Y-74472800D01*
X92710000Y-75031600D02*
X92557600Y-74726800D01*
X92862400Y-75285600D02*
X92710000Y-75031600D01*
X92964000Y-75387200D02*
X92862400Y-75285600D01*
X93268800Y-75692000D02*
X92964000Y-75387200D01*
X93472000Y-75844400D02*
X93268800Y-75692000D01*
X93624400Y-75946000D02*
X93472000Y-75844400D01*
X93116400Y-76047600D02*
X93624400Y-75946000D01*
X92506800Y-76200000D02*
X93116400Y-76047600D01*
X91846400Y-76403200D02*
X92506800Y-76200000D01*
X91033600Y-76657200D02*
X91846400Y-76403200D01*
X90474800Y-76860400D02*
X91033600Y-76657200D01*
X90220800Y-76962000D02*
X90474800Y-76860400D01*
X89560400Y-77216000D02*
X90220800Y-76962000D01*
X88747600Y-77571600D02*
X89560400Y-77216000D01*
X87884000Y-77978000D02*
X88747600Y-77571600D01*
X87122000Y-78384400D02*
X87884000Y-77978000D01*
X86766400Y-78587600D02*
X87122000Y-78384400D01*
X86258400Y-78892400D02*
X86766400Y-78587600D01*
X85648800Y-79248000D02*
X86258400Y-78892400D01*
X85039200Y-79705200D02*
X85648800Y-79248000D01*
X84277200Y-80213200D02*
X85039200Y-79705200D01*
X83413600Y-80924400D02*
X84277200Y-80213200D01*
X82651600Y-81534000D02*
X83413600Y-80924400D01*
X81584800Y-82550000D02*
X82651600Y-81534000D01*
X81026000Y-83108800D02*
X81584800Y-82550000D01*
X80416400Y-83820000D02*
X81026000Y-83108800D01*
X80010000Y-84277200D02*
X80416400Y-83820000D01*
X79451200Y-84988400D02*
X80010000Y-84277200D01*
X79044800Y-85496400D02*
X79451200Y-84988400D01*
X78587600Y-86156800D02*
X79044800Y-85496400D01*
X78130400Y-86817200D02*
X78587600Y-86156800D01*
X77825600Y-87325200D02*
X78130400Y-86817200D01*
X77419200Y-88036400D02*
X77825600Y-87325200D01*
X77165200Y-88493600D02*
X77419200Y-88036400D01*
X76809600Y-89103200D02*
X77165200Y-88493600D01*
X76555600Y-89712800D02*
X76809600Y-89103200D01*
X76403200Y-90068400D02*
X76555600Y-89712800D01*
X76352400Y-90170000D02*
X76403200Y-90068400D01*
X76098400Y-90678000D02*
X76352400Y-90170000D01*
X75844400Y-91389200D02*
X76098400Y-90678000D01*
X75590400Y-91998800D02*
X75844400Y-91389200D01*
X75488800Y-92354400D02*
X75590400Y-91998800D01*
X75184000Y-93268800D02*
X75488800Y-92354400D01*
X74980800Y-94132400D02*
X75184000Y-93268800D01*
X74828400Y-94691200D02*
X74980800Y-94132400D01*
X74777600Y-95046800D02*
X74828400Y-94691200D01*
X74574400Y-96012000D02*
X74777600Y-95046800D01*
X74472800Y-96672400D02*
X74574400Y-96012000D01*
X74320400Y-97739200D02*
X74472800Y-96672400D01*
X74269600Y-98552000D02*
X74320400Y-97739200D01*
X74269600Y-99720400D02*
X74269600Y-98552000D01*
X74269600Y-100838000D02*
X74269600Y-99720400D01*
X74269600Y-101650800D02*
X74269600Y-100838000D01*
X74320400Y-102514400D02*
X74269600Y-101650800D01*
X74371200Y-103073200D02*
X74320400Y-102514400D01*
X74523600Y-104038400D02*
X74371200Y-103073200D01*
X74625200Y-104597200D02*
X74523600Y-104038400D01*
X74676000Y-104902000D02*
X74625200Y-104597200D01*
X74879200Y-105816400D02*
X74676000Y-104902000D01*
X75082400Y-106730800D02*
X74879200Y-105816400D01*
X75387200Y-107696000D02*
X75082400Y-106730800D01*
X75641200Y-108508800D02*
X75387200Y-107696000D01*
X75996800Y-109372400D02*
X75641200Y-108508800D01*
X76200000Y-109931200D02*
X75996800Y-109372400D01*
X76555600Y-110693200D02*
X76200000Y-109931200D01*
X76962000Y-111556800D02*
X76555600Y-110693200D01*
X77317600Y-112166400D02*
X76962000Y-111556800D01*
X77724000Y-112877600D02*
X77317600Y-112166400D01*
X77978000Y-113334800D02*
X77724000Y-112877600D01*
X77978000Y-113487200D02*
X77978000Y-113334800D01*
X77978000Y-114249200D02*
X77978000Y-113487200D01*
X78079600Y-115011200D02*
X77978000Y-114249200D01*
X78282800Y-115976400D02*
X78079600Y-115011200D01*
X78486000Y-116687600D02*
X78282800Y-115976400D01*
X78841600Y-117500400D02*
X78486000Y-116687600D01*
X79146400Y-118160800D02*
X78841600Y-117500400D01*
X79502000Y-118770400D02*
X79146400Y-118160800D01*
X80010000Y-119583200D02*
X79502000Y-118770400D01*
X80670400Y-120446800D02*
X80010000Y-119583200D01*
X81330800Y-121158000D02*
X80670400Y-120446800D01*
X81838800Y-121666000D02*
X81330800Y-121158000D01*
X82194400Y-122021600D02*
X81838800Y-121666000D01*
X83058000Y-122732800D02*
X82194400Y-122021600D01*
X83921600Y-123393200D02*
X83058000Y-122732800D01*
X84937600Y-124053600D02*
X83921600Y-123393200D01*
X85902800Y-124612400D02*
X84937600Y-124053600D01*
X86817200Y-125069600D02*
X85902800Y-124612400D01*
X87680800Y-125476000D02*
X86817200Y-125069600D01*
X88798400Y-125933200D02*
X87680800Y-125476000D01*
X89814400Y-126288800D02*
X88798400Y-125933200D01*
X90932000Y-126644400D02*
X89814400Y-126288800D01*
X91338400Y-126746000D02*
X90932000Y-126644400D01*
X91744800Y-126847600D02*
X91338400Y-126746000D01*
X92557600Y-127050800D02*
X91744800Y-126847600D01*
X93014800Y-127152400D02*
X92557600Y-127050800D01*
X94335600Y-127406400D02*
X93014800Y-127152400D01*
X95758000Y-127609600D02*
X94335600Y-127406400D01*
X96926400Y-127711200D02*
X95758000Y-127609600D01*
X97840800Y-127762000D02*
X96926400Y-127711200D01*
X98094800Y-127762000D02*
X97840800Y-127762000D01*
X98602800Y-127762000D02*
X98094800Y-127762000D01*
X99771200Y-127762000D02*
X98602800Y-127762000D01*
X100685600Y-127762000D02*
X99771200Y-127762000D01*
X101854000Y-127711200D02*
X100685600Y-127762000D01*
X102768400Y-127609600D02*
X101854000Y-127711200D01*
X103632000Y-127508000D02*
X102768400Y-127609600D01*
X104902000Y-127304800D02*
X103632000Y-127508000D01*
X106121200Y-127050800D02*
X104902000Y-127304800D01*
X106984800Y-126847600D02*
X106121200Y-127050800D01*
X107950000Y-126593600D02*
X106984800Y-126847600D01*
X109067600Y-126238000D02*
X107950000Y-126593600D01*
X110388400Y-125730000D02*
X109067600Y-126238000D01*
X111201200Y-125374400D02*
X110388400Y-125730000D01*
X111963200Y-125018800D02*
X111201200Y-125374400D01*
X112420400Y-124764800D02*
X111963200Y-125018800D01*
X112928400Y-124510800D02*
X112420400Y-124764800D01*
X113436400Y-124206000D02*
X112928400Y-124510800D01*
X114198400Y-123748800D02*
X113436400Y-124206000D01*
X115011200Y-123190000D02*
X114198400Y-123748800D01*
X115519200Y-122834400D02*
X115011200Y-123190000D01*
X116230400Y-122224800D02*
X115519200Y-122834400D01*
X117144800Y-121412000D02*
X116230400Y-122224800D01*
X117805200Y-120700800D02*
X117144800Y-121412000D01*
X118719600Y-119532400D02*
X117805200Y-120700800D01*
X119075200Y-118973600D02*
X118719600Y-119532400D01*
X119430800Y-118414800D02*
X119075200Y-118973600D01*
X119938800Y-117348000D02*
X119430800Y-118414800D01*
X120142000Y-116738400D02*
X119938800Y-117348000D01*
X120294400Y-116281200D02*
X120142000Y-116738400D01*
X120497600Y-115468400D02*
X120294400Y-116281200D01*
X120650000Y-114604800D02*
X120497600Y-115468400D01*
X120700800Y-113995200D02*
X120650000Y-114604800D01*
X120700800Y-112928400D02*
X120700800Y-113995200D01*
X120700800Y-112471200D02*
X120700800Y-112928400D01*
X120802400Y-112318800D02*
X120700800Y-112471200D01*
X121158000Y-111658400D02*
X120802400Y-112318800D01*
X121564400Y-110845600D02*
X121158000Y-111658400D01*
X121869200Y-110134400D02*
X121564400Y-110845600D01*
X122123200Y-109575600D02*
X121869200Y-110134400D01*
X122377200Y-108864400D02*
X122123200Y-109575600D01*
X122682000Y-108000800D02*
X122377200Y-108864400D01*
X122936000Y-107188000D02*
X122682000Y-108000800D01*
X123190000Y-106222800D02*
X122936000Y-107188000D01*
X123393200Y-105308400D02*
X123190000Y-106222800D01*
X123596400Y-104343200D02*
X123393200Y-105308400D01*
X123748800Y-103327200D02*
X123596400Y-104343200D01*
X123850400Y-102514400D02*
X123748800Y-103327200D01*
X123901200Y-101498400D02*
X123850400Y-102514400D01*
X123901200Y-101193600D02*
X123901200Y-101498400D01*
X123901200Y-100076000D02*
X123901200Y-101193600D01*
X123901200Y-98856800D02*
X123901200Y-100076000D01*
X123850400Y-97840800D02*
X123901200Y-98856800D01*
X123748800Y-97129600D02*
X123850400Y-97840800D01*
X123647200Y-96418400D02*
X123748800Y-97129600D01*
X123545600Y-95859600D02*
X123647200Y-96418400D01*
X123393200Y-94996000D02*
X123545600Y-95859600D01*
X123240800Y-94386400D02*
X123393200Y-94996000D01*
X123088400Y-93726000D02*
X123240800Y-94386400D01*
X122936000Y-93218000D02*
X123088400Y-93726000D01*
X122631200Y-92151200D02*
X122936000Y-93218000D01*
X122123200Y-90830400D02*
X122631200Y-92151200D01*
X121666000Y-89763600D02*
X122123200Y-90830400D01*
X121361200Y-89154000D02*
X121666000Y-89763600D01*
X120954800Y-88341200D02*
X121361200Y-89154000D01*
X120497600Y-87528400D02*
X120954800Y-88341200D01*
X119786400Y-86410800D02*
X120497600Y-87528400D01*
X118922800Y-85191600D02*
X119786400Y-86410800D01*
X117906800Y-83921600D02*
X118922800Y-85191600D01*
X116128800Y-82042000D02*
X117906800Y-83921600D01*
X114300000Y-80518000D02*
X116128800Y-82042000D01*
X112572800Y-79298800D02*
X114300000Y-80518000D01*
X110845600Y-78282800D02*
X112572800Y-79298800D01*
M02*
