G04 #@! TF.FileFunction,Copper,L2,Bot,Signal*
%FSLAX46Y46*%
G04 Gerber Fmt 4.6, Leading zero omitted, Abs format (unit mm)*
G04 Created by KiCad (PCBNEW 4.0.7) date 05/31/18 00:16:50*
%MOMM*%
%LPD*%
G01*
G04 APERTURE LIST*
%ADD10C,0.100000*%
%ADD11R,0.508000X1.143000*%
%ADD12C,1.700000*%
%ADD13O,1.700000X1.700000*%
%ADD14R,0.600000X0.500000*%
%ADD15R,2.000000X1.700000*%
%ADD16C,0.600000*%
%ADD17C,0.200000*%
%ADD18C,0.500000*%
%ADD19C,0.250000*%
%ADD20C,0.254000*%
G04 APERTURE END LIST*
D10*
D11*
X90766900Y-96024700D03*
X92036900Y-96024700D03*
X93306900Y-96024700D03*
X94576900Y-96024700D03*
X95846900Y-96024700D03*
X97116900Y-96024700D03*
X98386900Y-96024700D03*
X99656900Y-96024700D03*
X100926900Y-96024700D03*
X102196900Y-96024700D03*
X103466900Y-96024700D03*
X104736900Y-96024700D03*
X106006900Y-96024700D03*
X107276900Y-96024700D03*
X107276900Y-103136700D03*
X106006900Y-103136700D03*
X104736900Y-103136700D03*
X103466900Y-103136700D03*
X102196900Y-103136700D03*
X100926900Y-103136700D03*
X99656900Y-103136700D03*
X98386900Y-103136700D03*
X97116900Y-103136700D03*
X95846900Y-103136700D03*
X94576900Y-103136700D03*
X93306900Y-103136700D03*
X92036900Y-103136700D03*
X90766900Y-103136700D03*
D12*
X100406200Y-120421400D03*
D13*
X100406200Y-122961400D03*
X97866200Y-120421400D03*
X97866200Y-122961400D03*
D14*
X114164200Y-98450400D03*
X113064200Y-98450400D03*
D10*
G36*
X111290363Y-80148896D02*
X110598910Y-81701923D01*
X108771819Y-80888450D01*
X109463272Y-79335423D01*
X111290363Y-80148896D01*
X111290363Y-80148896D01*
G37*
G36*
X107636181Y-78521950D02*
X106944728Y-80074977D01*
X105117637Y-79261504D01*
X105809090Y-77708477D01*
X107636181Y-78521950D01*
X107636181Y-78521950D01*
G37*
G36*
X75548968Y-99142699D02*
X77242499Y-98994534D01*
X77416810Y-100986923D01*
X75723279Y-101135088D01*
X75548968Y-99142699D01*
X75548968Y-99142699D01*
G37*
G36*
X75897590Y-103127477D02*
X77591121Y-102979312D01*
X77765432Y-104971701D01*
X76071901Y-105119866D01*
X75897590Y-103127477D01*
X75897590Y-103127477D01*
G37*
G36*
X78052921Y-89955805D02*
X79650399Y-90537240D01*
X78966359Y-92416625D01*
X77368881Y-91835190D01*
X78052921Y-89955805D01*
X78052921Y-89955805D01*
G37*
G36*
X76684841Y-93714575D02*
X78282319Y-94296010D01*
X77598279Y-96175395D01*
X76000801Y-95593960D01*
X76684841Y-93714575D01*
X76684841Y-93714575D01*
G37*
G36*
X83925719Y-82444204D02*
X85189065Y-83581726D01*
X83850803Y-85068016D01*
X82587457Y-83930494D01*
X83925719Y-82444204D01*
X83925719Y-82444204D01*
G37*
G36*
X81249197Y-85416784D02*
X82512543Y-86554306D01*
X81174281Y-88040596D01*
X79910935Y-86903074D01*
X81249197Y-85416784D01*
X81249197Y-85416784D01*
G37*
G36*
X92123298Y-77819383D02*
X92841749Y-79360106D01*
X91029134Y-80205343D01*
X90310683Y-78664620D01*
X92123298Y-77819383D01*
X92123298Y-77819383D01*
G37*
G36*
X88498066Y-79509857D02*
X89216517Y-81050580D01*
X87403902Y-81895817D01*
X86685451Y-80355094D01*
X88498066Y-79509857D01*
X88498066Y-79509857D01*
G37*
D15*
X100755200Y-77876400D03*
X96755200Y-77876400D03*
D10*
G36*
X118352700Y-87146564D02*
X117050425Y-88239303D01*
X115764850Y-86707214D01*
X117067125Y-85614475D01*
X118352700Y-87146564D01*
X118352700Y-87146564D01*
G37*
G36*
X115781550Y-84082386D02*
X114479275Y-85175125D01*
X113193700Y-83643036D01*
X114495975Y-82550297D01*
X115781550Y-84082386D01*
X115781550Y-84082386D01*
G37*
G36*
X122271599Y-95543160D02*
X120674121Y-96124595D01*
X119990081Y-94245210D01*
X121587559Y-93663775D01*
X122271599Y-95543160D01*
X122271599Y-95543160D01*
G37*
G36*
X120903519Y-91784390D02*
X119306041Y-92365825D01*
X118622001Y-90486440D01*
X120219479Y-89905005D01*
X120903519Y-91784390D01*
X120903519Y-91784390D01*
G37*
G36*
X122149699Y-105069066D02*
X120456168Y-104920901D01*
X120630479Y-102928512D01*
X122324010Y-103076677D01*
X122149699Y-105069066D01*
X122149699Y-105069066D01*
G37*
G36*
X122498321Y-101084288D02*
X120804790Y-100936123D01*
X120979101Y-98943734D01*
X122672632Y-99091899D01*
X122498321Y-101084288D01*
X122498321Y-101084288D01*
G37*
D16*
X114985800Y-101117400D03*
X109537500Y-101346000D03*
X112369600Y-102971600D03*
X108902500Y-103022400D03*
X76720700Y-101866700D03*
X77812900Y-92989400D03*
X82537300Y-85382100D03*
X89852500Y-79743300D03*
X99072700Y-77838300D03*
X108356400Y-79857600D03*
X116001800Y-85661500D03*
X120586500Y-93040200D03*
X121627900Y-101930200D03*
X113322100Y-104267000D03*
X108661200Y-104330500D03*
D17*
X97866200Y-120421400D02*
X97866200Y-119151400D01*
X115709700Y-98450400D02*
X114164200Y-98450400D01*
X116128800Y-98869500D02*
X115709700Y-98450400D01*
X116128800Y-99974400D02*
X116128800Y-98869500D01*
X114985800Y-101117400D02*
X116128800Y-99974400D01*
X109537500Y-117919500D02*
X109537500Y-101346000D01*
X108546900Y-118910100D02*
X109537500Y-117919500D01*
X98107500Y-118910100D02*
X108546900Y-118910100D01*
X97866200Y-119151400D02*
X98107500Y-118910100D01*
X103466900Y-103136700D02*
X103466900Y-104940100D01*
X114164200Y-101177000D02*
X114164200Y-98450400D01*
X112369600Y-102971600D02*
X114164200Y-101177000D01*
X106870500Y-105054400D02*
X108902500Y-103022400D01*
X103581200Y-105054400D02*
X106870500Y-105054400D01*
X103466900Y-104940100D02*
X103581200Y-105054400D01*
D18*
X100926900Y-94272100D02*
X100926900Y-93802200D01*
X114164200Y-93171100D02*
X114164200Y-98450400D01*
X112293400Y-91300300D02*
X114164200Y-93171100D01*
X103428800Y-91300300D02*
X112293400Y-91300300D01*
X100926900Y-93802200D02*
X103428800Y-91300300D01*
D17*
X100926900Y-96024700D02*
X100926900Y-94272100D01*
X100926900Y-94272100D02*
X100952300Y-94246700D01*
X97866200Y-122961400D02*
X97866200Y-123736100D01*
X97866200Y-123736100D02*
X98348800Y-124218700D01*
X98348800Y-124218700D02*
X110921800Y-124218700D01*
X110921800Y-124218700D02*
X111645700Y-123494800D01*
X111645700Y-123494800D02*
X111645700Y-98844100D01*
X111645700Y-98844100D02*
X112039400Y-98450400D01*
X112039400Y-98450400D02*
X113064200Y-98450400D01*
X102196900Y-96024700D02*
X102196900Y-93764100D01*
X113064200Y-93277600D02*
X113064200Y-98450400D01*
X111912400Y-92125800D02*
X113064200Y-93277600D01*
X103835200Y-92125800D02*
X111912400Y-92125800D01*
X102196900Y-93764100D02*
X103835200Y-92125800D01*
D19*
X76831511Y-104049589D02*
X76831511Y-101977511D01*
X76831511Y-101977511D02*
X76720700Y-101866700D01*
X77141560Y-94944985D02*
X77141560Y-93660740D01*
X77141560Y-93660740D02*
X77812900Y-92989400D01*
X81211739Y-86728690D02*
X81211739Y-86707661D01*
X81211739Y-86707661D02*
X82537300Y-85382100D01*
X87950984Y-80702837D02*
X88892963Y-80702837D01*
X88892963Y-80702837D02*
X89852500Y-79743300D01*
X96755200Y-77876400D02*
X99034600Y-77876400D01*
X99034600Y-77876400D02*
X99072700Y-77838300D01*
X106376909Y-78891727D02*
X107390527Y-78891727D01*
X107390527Y-78891727D02*
X108356400Y-79857600D01*
X114487625Y-83862711D02*
X114487625Y-84147325D01*
X114487625Y-84147325D02*
X116001800Y-85661500D01*
X119762760Y-91135415D02*
X119762760Y-92216460D01*
X119762760Y-92216460D02*
X120586500Y-93040200D01*
X121738711Y-100014011D02*
X121738711Y-101819389D01*
X121738711Y-101819389D02*
X121627900Y-101930200D01*
X90766900Y-96024700D02*
X80523000Y-96024700D01*
X80523000Y-96024700D02*
X76482889Y-100064811D01*
X92036900Y-96024700D02*
X92036900Y-94107000D01*
X81151025Y-93827600D02*
X78509640Y-91186215D01*
X91757500Y-93827600D02*
X81151025Y-93827600D01*
X92036900Y-94107000D02*
X91757500Y-93827600D01*
X93306900Y-96024700D02*
X93306900Y-92138500D01*
X93306900Y-92138500D02*
X84924510Y-83756110D01*
X84924510Y-83756110D02*
X83888261Y-83756110D01*
X94576900Y-96024700D02*
X94576900Y-88709500D01*
X91576216Y-85708816D02*
X91576216Y-79012363D01*
X94576900Y-88709500D02*
X91576216Y-85708816D01*
X95846900Y-96024700D02*
X95846900Y-88773000D01*
X100755200Y-83864700D02*
X100755200Y-77876400D01*
X95846900Y-88773000D02*
X100755200Y-83864700D01*
X97116900Y-96024700D02*
X97116900Y-91020900D01*
X107339364Y-83210400D02*
X110031091Y-80518673D01*
X104927400Y-83210400D02*
X107339364Y-83210400D01*
X97116900Y-91020900D02*
X104927400Y-83210400D01*
X98386900Y-96024700D02*
X98386900Y-93497400D01*
X115860364Y-88125300D02*
X117058775Y-86926889D01*
X103759000Y-88125300D02*
X115860364Y-88125300D01*
X98386900Y-93497400D02*
X103759000Y-88125300D01*
X99656900Y-96024700D02*
X99656900Y-93649800D01*
X119974925Y-96050100D02*
X121130840Y-94894185D01*
X118033800Y-96050100D02*
X119974925Y-96050100D01*
X117195600Y-95211900D02*
X118033800Y-96050100D01*
X117195600Y-92011500D02*
X117195600Y-95211900D01*
X115633500Y-90449400D02*
X117195600Y-92011500D01*
X102857300Y-90449400D02*
X115633500Y-90449400D01*
X99656900Y-93649800D02*
X102857300Y-90449400D01*
X99656900Y-103136700D02*
X99656900Y-105498900D01*
X119826478Y-105562400D02*
X121390089Y-103998789D01*
X114617500Y-105562400D02*
X119826478Y-105562400D01*
X113322100Y-104267000D02*
X114617500Y-105562400D01*
X107188000Y-105803700D02*
X108661200Y-104330500D01*
X99961700Y-105803700D02*
X107188000Y-105803700D01*
X99656900Y-105498900D02*
X99961700Y-105803700D01*
X100406200Y-122961400D02*
X110439200Y-122961400D01*
X104736900Y-94703900D02*
X104736900Y-96024700D01*
X105841800Y-93599000D02*
X104736900Y-94703900D01*
X109588300Y-93599000D02*
X105841800Y-93599000D01*
X111150400Y-95161100D02*
X109588300Y-93599000D01*
X111150400Y-122250200D02*
X111150400Y-95161100D01*
X110439200Y-122961400D02*
X111150400Y-122250200D01*
X106006900Y-96024700D02*
X106006900Y-94780100D01*
X109245400Y-120421400D02*
X100406200Y-120421400D01*
X110312200Y-119354600D02*
X109245400Y-120421400D01*
X110312200Y-95453200D02*
X110312200Y-119354600D01*
X109194600Y-94335600D02*
X110312200Y-95453200D01*
X106451400Y-94335600D02*
X109194600Y-94335600D01*
X106006900Y-94780100D02*
X106451400Y-94335600D01*
D20*
G36*
X113279200Y-93537679D02*
X113279200Y-97636150D01*
X113191200Y-97724150D01*
X113191200Y-98325400D01*
X113211200Y-98325400D01*
X113211200Y-98575400D01*
X113191200Y-98575400D01*
X113191200Y-99176650D01*
X113349950Y-99335400D01*
X113429200Y-99335400D01*
X113429200Y-100872553D01*
X112265245Y-102036508D01*
X112184433Y-102036438D01*
X111910400Y-102149666D01*
X111910400Y-98734150D01*
X112129200Y-98734150D01*
X112129200Y-98826710D01*
X112225873Y-99060099D01*
X112404502Y-99238727D01*
X112637891Y-99335400D01*
X112778450Y-99335400D01*
X112937200Y-99176650D01*
X112937200Y-98575400D01*
X112287950Y-98575400D01*
X112129200Y-98734150D01*
X111910400Y-98734150D01*
X111910400Y-98074090D01*
X112129200Y-98074090D01*
X112129200Y-98166650D01*
X112287950Y-98325400D01*
X112937200Y-98325400D01*
X112937200Y-97724150D01*
X112778450Y-97565400D01*
X112637891Y-97565400D01*
X112404502Y-97662073D01*
X112225873Y-97840701D01*
X112129200Y-98074090D01*
X111910400Y-98074090D01*
X111910400Y-95161100D01*
X111852548Y-94870261D01*
X111687801Y-94623699D01*
X110125701Y-93061599D01*
X109879139Y-92896852D01*
X109588300Y-92839000D01*
X105841800Y-92839000D01*
X105550961Y-92896852D01*
X105304399Y-93061599D01*
X104199499Y-94166499D01*
X104034752Y-94413061D01*
X103976900Y-94703900D01*
X103976900Y-94859577D01*
X103972790Y-94856769D01*
X103720900Y-94805760D01*
X103212900Y-94805760D01*
X102977583Y-94850038D01*
X102836529Y-94940804D01*
X102810598Y-94914873D01*
X102577209Y-94818200D01*
X102482650Y-94818200D01*
X102323900Y-94976950D01*
X102323900Y-95897700D01*
X102343900Y-95897700D01*
X102343900Y-96151700D01*
X102323900Y-96151700D01*
X102323900Y-97072450D01*
X102482650Y-97231200D01*
X102577209Y-97231200D01*
X102810598Y-97134527D01*
X102837135Y-97107991D01*
X102961010Y-97192631D01*
X103212900Y-97243640D01*
X103720900Y-97243640D01*
X103956217Y-97199362D01*
X104102807Y-97105034D01*
X104231010Y-97192631D01*
X104482900Y-97243640D01*
X104990900Y-97243640D01*
X105226217Y-97199362D01*
X105372807Y-97105034D01*
X105501010Y-97192631D01*
X105752900Y-97243640D01*
X106260900Y-97243640D01*
X106496217Y-97199362D01*
X106642807Y-97105034D01*
X106771010Y-97192631D01*
X107022900Y-97243640D01*
X107530900Y-97243640D01*
X107766217Y-97199362D01*
X107982341Y-97060290D01*
X108127331Y-96848090D01*
X108178340Y-96596200D01*
X108178340Y-95453200D01*
X108134062Y-95217883D01*
X108055375Y-95095600D01*
X108879798Y-95095600D01*
X109552200Y-95768002D01*
X109552200Y-100411012D01*
X109352333Y-100410838D01*
X109008557Y-100552883D01*
X108745308Y-100815673D01*
X108602662Y-101159201D01*
X108602338Y-101531167D01*
X108744383Y-101874943D01*
X108802500Y-101933162D01*
X108802500Y-102087312D01*
X108717333Y-102087238D01*
X108373557Y-102229283D01*
X108165222Y-102437254D01*
X108069227Y-102205501D01*
X107890598Y-102026873D01*
X107657209Y-101930200D01*
X107562650Y-101930200D01*
X107403900Y-102088950D01*
X107403900Y-103009700D01*
X107423900Y-103009700D01*
X107423900Y-103263700D01*
X107403900Y-103263700D01*
X107403900Y-103283700D01*
X107149900Y-103283700D01*
X107149900Y-103263700D01*
X106133900Y-103263700D01*
X106133900Y-103283700D01*
X105879900Y-103283700D01*
X105879900Y-103263700D01*
X104863900Y-103263700D01*
X104863900Y-103283700D01*
X104609900Y-103283700D01*
X104609900Y-103263700D01*
X104589900Y-103263700D01*
X104589900Y-103009700D01*
X104609900Y-103009700D01*
X104609900Y-102088950D01*
X104863900Y-102088950D01*
X104863900Y-103009700D01*
X105879900Y-103009700D01*
X105879900Y-102088950D01*
X106133900Y-102088950D01*
X106133900Y-103009700D01*
X107149900Y-103009700D01*
X107149900Y-102088950D01*
X106991150Y-101930200D01*
X106896591Y-101930200D01*
X106663202Y-102026873D01*
X106641900Y-102048175D01*
X106620598Y-102026873D01*
X106387209Y-101930200D01*
X106292650Y-101930200D01*
X106133900Y-102088950D01*
X105879900Y-102088950D01*
X105721150Y-101930200D01*
X105626591Y-101930200D01*
X105393202Y-102026873D01*
X105371900Y-102048175D01*
X105350598Y-102026873D01*
X105117209Y-101930200D01*
X105022650Y-101930200D01*
X104863900Y-102088950D01*
X104609900Y-102088950D01*
X104451150Y-101930200D01*
X104356591Y-101930200D01*
X104123202Y-102026873D01*
X104096665Y-102053409D01*
X103972790Y-101968769D01*
X103720900Y-101917760D01*
X103212900Y-101917760D01*
X102977583Y-101962038D01*
X102830993Y-102056366D01*
X102702790Y-101968769D01*
X102450900Y-101917760D01*
X101942900Y-101917760D01*
X101707583Y-101962038D01*
X101560993Y-102056366D01*
X101432790Y-101968769D01*
X101180900Y-101917760D01*
X100672900Y-101917760D01*
X100437583Y-101962038D01*
X100290993Y-102056366D01*
X100162790Y-101968769D01*
X99910900Y-101917760D01*
X99402900Y-101917760D01*
X99167583Y-101962038D01*
X99020993Y-102056366D01*
X98892790Y-101968769D01*
X98640900Y-101917760D01*
X98132900Y-101917760D01*
X97897583Y-101962038D01*
X97750993Y-102056366D01*
X97622790Y-101968769D01*
X97370900Y-101917760D01*
X96862900Y-101917760D01*
X96627583Y-101962038D01*
X96480993Y-102056366D01*
X96352790Y-101968769D01*
X96100900Y-101917760D01*
X95592900Y-101917760D01*
X95357583Y-101962038D01*
X95210993Y-102056366D01*
X95082790Y-101968769D01*
X94830900Y-101917760D01*
X94322900Y-101917760D01*
X94087583Y-101962038D01*
X93940993Y-102056366D01*
X93812790Y-101968769D01*
X93560900Y-101917760D01*
X93052900Y-101917760D01*
X92817583Y-101962038D01*
X92670993Y-102056366D01*
X92542790Y-101968769D01*
X92290900Y-101917760D01*
X91782900Y-101917760D01*
X91547583Y-101962038D01*
X91400993Y-102056366D01*
X91272790Y-101968769D01*
X91020900Y-101917760D01*
X90512900Y-101917760D01*
X90277583Y-101962038D01*
X90061459Y-102101110D01*
X89916469Y-102313310D01*
X89865460Y-102565200D01*
X89865460Y-103708200D01*
X89909738Y-103943517D01*
X90048810Y-104159641D01*
X90261010Y-104304631D01*
X90512900Y-104355640D01*
X91020900Y-104355640D01*
X91256217Y-104311362D01*
X91402807Y-104217034D01*
X91531010Y-104304631D01*
X91782900Y-104355640D01*
X92290900Y-104355640D01*
X92526217Y-104311362D01*
X92672807Y-104217034D01*
X92801010Y-104304631D01*
X93052900Y-104355640D01*
X93560900Y-104355640D01*
X93796217Y-104311362D01*
X93942807Y-104217034D01*
X94071010Y-104304631D01*
X94322900Y-104355640D01*
X94830900Y-104355640D01*
X95066217Y-104311362D01*
X95212807Y-104217034D01*
X95341010Y-104304631D01*
X95592900Y-104355640D01*
X96100900Y-104355640D01*
X96336217Y-104311362D01*
X96482807Y-104217034D01*
X96611010Y-104304631D01*
X96862900Y-104355640D01*
X97370900Y-104355640D01*
X97606217Y-104311362D01*
X97752807Y-104217034D01*
X97881010Y-104304631D01*
X98132900Y-104355640D01*
X98640900Y-104355640D01*
X98876217Y-104311362D01*
X98896900Y-104298053D01*
X98896900Y-105498900D01*
X98954752Y-105789739D01*
X99119499Y-106036301D01*
X99424299Y-106341101D01*
X99670860Y-106505848D01*
X99961700Y-106563700D01*
X107188000Y-106563700D01*
X107478839Y-106505848D01*
X107725401Y-106341101D01*
X108800880Y-105265622D01*
X108802500Y-105265624D01*
X108802500Y-117615053D01*
X108242454Y-118175100D01*
X98107500Y-118175100D01*
X97826228Y-118231049D01*
X97587777Y-118390376D01*
X97346477Y-118631677D01*
X97187149Y-118870128D01*
X97133495Y-119139861D01*
X96787053Y-119371346D01*
X96465146Y-119853115D01*
X96352107Y-120421400D01*
X96465146Y-120989685D01*
X96787053Y-121471454D01*
X97127753Y-121699102D01*
X96984842Y-121766217D01*
X96594555Y-122194476D01*
X96424724Y-122604510D01*
X96546045Y-122834400D01*
X97739200Y-122834400D01*
X97739200Y-122814400D01*
X97993200Y-122814400D01*
X97993200Y-122834400D01*
X98013200Y-122834400D01*
X98013200Y-123088400D01*
X97993200Y-123088400D01*
X97993200Y-124282219D01*
X98223092Y-124402886D01*
X98747558Y-124156583D01*
X99137845Y-123728324D01*
X99137855Y-123728299D01*
X99327053Y-124011454D01*
X99808822Y-124333361D01*
X100377107Y-124446400D01*
X100435293Y-124446400D01*
X101003578Y-124333361D01*
X101485347Y-124011454D01*
X101679154Y-123721400D01*
X110439200Y-123721400D01*
X110730039Y-123663548D01*
X110976601Y-123498801D01*
X111687801Y-122787601D01*
X111852548Y-122541039D01*
X111910400Y-122250200D01*
X111910400Y-103793327D01*
X112182801Y-103906438D01*
X112459315Y-103906679D01*
X112387262Y-104080201D01*
X112386938Y-104452167D01*
X112528983Y-104795943D01*
X112791773Y-105059192D01*
X113135301Y-105201838D01*
X113182177Y-105201879D01*
X114080099Y-106099801D01*
X114326660Y-106264548D01*
X114617500Y-106322400D01*
X119826478Y-106322400D01*
X120117317Y-106264548D01*
X120363879Y-106099801D01*
X120857734Y-105605946D01*
X122093271Y-105714042D01*
X122331551Y-105690442D01*
X122558974Y-105570736D01*
X122625661Y-105489387D01*
X122499884Y-106055382D01*
X122253495Y-106991663D01*
X122008172Y-107776696D01*
X121708163Y-108626721D01*
X121464549Y-109308840D01*
X121222840Y-109840600D01*
X121221048Y-109848242D01*
X121216607Y-109854717D01*
X120920024Y-110546744D01*
X120527763Y-111331266D01*
X120193111Y-111952762D01*
X120110044Y-112077363D01*
X120083490Y-112141659D01*
X120044846Y-112199495D01*
X120031132Y-112268438D01*
X120004298Y-112333414D01*
X120004371Y-112402977D01*
X119990800Y-112471200D01*
X119990800Y-113965674D01*
X119945154Y-114513431D01*
X119802743Y-115320423D01*
X119612213Y-116082544D01*
X119468435Y-116513878D01*
X119279023Y-117082113D01*
X118808461Y-118070293D01*
X118476200Y-118592418D01*
X118139162Y-119122049D01*
X117264531Y-120239633D01*
X116647674Y-120903942D01*
X115763476Y-121689895D01*
X115083548Y-122272691D01*
X114606477Y-122606641D01*
X113814270Y-123151283D01*
X113071108Y-123597180D01*
X112586488Y-123887952D01*
X112102878Y-124129757D01*
X112090506Y-124139359D01*
X112075594Y-124144148D01*
X111640267Y-124385996D01*
X110908743Y-124727374D01*
X110118523Y-125073095D01*
X108832324Y-125567787D01*
X107751894Y-125911560D01*
X106813110Y-126158609D01*
X105967468Y-126357583D01*
X104773445Y-126606338D01*
X103534391Y-126804587D01*
X102687653Y-126904203D01*
X101799324Y-127002906D01*
X100670170Y-127052000D01*
X97860510Y-127052000D01*
X96976858Y-127002908D01*
X95839014Y-126903965D01*
X94452923Y-126705952D01*
X93158873Y-126457096D01*
X92720720Y-126359729D01*
X91917002Y-126158800D01*
X91917001Y-126158799D01*
X91510602Y-126057200D01*
X91510601Y-126057199D01*
X91125931Y-125961032D01*
X90039352Y-125615302D01*
X89050255Y-125269118D01*
X87966566Y-124825791D01*
X87127149Y-124430771D01*
X86239739Y-123987066D01*
X85309182Y-123448321D01*
X85109135Y-123318290D01*
X96424724Y-123318290D01*
X96594555Y-123728324D01*
X96984842Y-124156583D01*
X97509308Y-124402886D01*
X97739200Y-124282219D01*
X97739200Y-123088400D01*
X96546045Y-123088400D01*
X96424724Y-123318290D01*
X85109135Y-123318290D01*
X84331308Y-122812703D01*
X83499450Y-122176576D01*
X82672215Y-121495323D01*
X82340846Y-121163954D01*
X82340843Y-121163952D01*
X81842140Y-120665248D01*
X81213782Y-119988556D01*
X80594335Y-119178510D01*
X80109826Y-118403297D01*
X79776810Y-117832412D01*
X79489234Y-117209332D01*
X79155583Y-116446701D01*
X78972388Y-115805520D01*
X78779855Y-114890989D01*
X78688000Y-114202074D01*
X78688000Y-113334800D01*
X78680004Y-113294602D01*
X78683359Y-113253753D01*
X78653197Y-113159835D01*
X78633954Y-113063095D01*
X78611185Y-113029018D01*
X78598652Y-112989994D01*
X78344652Y-112532794D01*
X78341834Y-112529471D01*
X78340452Y-112525341D01*
X77934053Y-111814141D01*
X77931934Y-111811703D01*
X77930883Y-111808651D01*
X77591076Y-111226125D01*
X77198493Y-110391887D01*
X76856585Y-109659226D01*
X76664053Y-109129762D01*
X76656234Y-109116867D01*
X76653322Y-109102068D01*
X76309588Y-108267289D01*
X76064881Y-107484225D01*
X76064362Y-107483274D01*
X76064244Y-107482197D01*
X75768772Y-106546536D01*
X75572293Y-105662379D01*
X75572293Y-105662378D01*
X75525152Y-105450246D01*
X75648923Y-105610037D01*
X75872952Y-105735981D01*
X76128329Y-105764842D01*
X77821860Y-105616677D01*
X78052422Y-105552059D01*
X78255603Y-105394679D01*
X78381547Y-105170651D01*
X78410408Y-104915273D01*
X78236097Y-102922884D01*
X78171479Y-102692322D01*
X78014099Y-102489141D01*
X77790070Y-102363197D01*
X77591511Y-102340757D01*
X77591511Y-102207692D01*
X77655538Y-102053499D01*
X77655862Y-101681533D01*
X77618529Y-101591179D01*
X77703800Y-101567281D01*
X77906981Y-101409901D01*
X78032925Y-101185873D01*
X78061786Y-100930495D01*
X77951587Y-99670915D01*
X80837802Y-96784700D01*
X89900929Y-96784700D01*
X89909738Y-96831517D01*
X90048810Y-97047641D01*
X90261010Y-97192631D01*
X90512900Y-97243640D01*
X91020900Y-97243640D01*
X91256217Y-97199362D01*
X91402807Y-97105034D01*
X91531010Y-97192631D01*
X91782900Y-97243640D01*
X92290900Y-97243640D01*
X92526217Y-97199362D01*
X92672807Y-97105034D01*
X92801010Y-97192631D01*
X93052900Y-97243640D01*
X93560900Y-97243640D01*
X93796217Y-97199362D01*
X93942807Y-97105034D01*
X94071010Y-97192631D01*
X94322900Y-97243640D01*
X94830900Y-97243640D01*
X95066217Y-97199362D01*
X95212807Y-97105034D01*
X95341010Y-97192631D01*
X95592900Y-97243640D01*
X96100900Y-97243640D01*
X96336217Y-97199362D01*
X96482807Y-97105034D01*
X96611010Y-97192631D01*
X96862900Y-97243640D01*
X97370900Y-97243640D01*
X97606217Y-97199362D01*
X97752807Y-97105034D01*
X97881010Y-97192631D01*
X98132900Y-97243640D01*
X98640900Y-97243640D01*
X98876217Y-97199362D01*
X99022807Y-97105034D01*
X99151010Y-97192631D01*
X99402900Y-97243640D01*
X99910900Y-97243640D01*
X100146217Y-97199362D01*
X100292807Y-97105034D01*
X100421010Y-97192631D01*
X100672900Y-97243640D01*
X101180900Y-97243640D01*
X101416217Y-97199362D01*
X101557271Y-97108596D01*
X101583202Y-97134527D01*
X101816591Y-97231200D01*
X101911150Y-97231200D01*
X102069900Y-97072450D01*
X102069900Y-96151700D01*
X102049900Y-96151700D01*
X102049900Y-95897700D01*
X102069900Y-95897700D01*
X102069900Y-94976950D01*
X101911150Y-94818200D01*
X101816591Y-94818200D01*
X101661900Y-94882275D01*
X101661900Y-94734445D01*
X101744533Y-94610775D01*
X101811900Y-94272100D01*
X101811900Y-94168780D01*
X103795379Y-92185300D01*
X111926820Y-92185300D01*
X113279200Y-93537679D01*
X113279200Y-93537679D01*
G37*
X113279200Y-93537679D02*
X113279200Y-97636150D01*
X113191200Y-97724150D01*
X113191200Y-98325400D01*
X113211200Y-98325400D01*
X113211200Y-98575400D01*
X113191200Y-98575400D01*
X113191200Y-99176650D01*
X113349950Y-99335400D01*
X113429200Y-99335400D01*
X113429200Y-100872553D01*
X112265245Y-102036508D01*
X112184433Y-102036438D01*
X111910400Y-102149666D01*
X111910400Y-98734150D01*
X112129200Y-98734150D01*
X112129200Y-98826710D01*
X112225873Y-99060099D01*
X112404502Y-99238727D01*
X112637891Y-99335400D01*
X112778450Y-99335400D01*
X112937200Y-99176650D01*
X112937200Y-98575400D01*
X112287950Y-98575400D01*
X112129200Y-98734150D01*
X111910400Y-98734150D01*
X111910400Y-98074090D01*
X112129200Y-98074090D01*
X112129200Y-98166650D01*
X112287950Y-98325400D01*
X112937200Y-98325400D01*
X112937200Y-97724150D01*
X112778450Y-97565400D01*
X112637891Y-97565400D01*
X112404502Y-97662073D01*
X112225873Y-97840701D01*
X112129200Y-98074090D01*
X111910400Y-98074090D01*
X111910400Y-95161100D01*
X111852548Y-94870261D01*
X111687801Y-94623699D01*
X110125701Y-93061599D01*
X109879139Y-92896852D01*
X109588300Y-92839000D01*
X105841800Y-92839000D01*
X105550961Y-92896852D01*
X105304399Y-93061599D01*
X104199499Y-94166499D01*
X104034752Y-94413061D01*
X103976900Y-94703900D01*
X103976900Y-94859577D01*
X103972790Y-94856769D01*
X103720900Y-94805760D01*
X103212900Y-94805760D01*
X102977583Y-94850038D01*
X102836529Y-94940804D01*
X102810598Y-94914873D01*
X102577209Y-94818200D01*
X102482650Y-94818200D01*
X102323900Y-94976950D01*
X102323900Y-95897700D01*
X102343900Y-95897700D01*
X102343900Y-96151700D01*
X102323900Y-96151700D01*
X102323900Y-97072450D01*
X102482650Y-97231200D01*
X102577209Y-97231200D01*
X102810598Y-97134527D01*
X102837135Y-97107991D01*
X102961010Y-97192631D01*
X103212900Y-97243640D01*
X103720900Y-97243640D01*
X103956217Y-97199362D01*
X104102807Y-97105034D01*
X104231010Y-97192631D01*
X104482900Y-97243640D01*
X104990900Y-97243640D01*
X105226217Y-97199362D01*
X105372807Y-97105034D01*
X105501010Y-97192631D01*
X105752900Y-97243640D01*
X106260900Y-97243640D01*
X106496217Y-97199362D01*
X106642807Y-97105034D01*
X106771010Y-97192631D01*
X107022900Y-97243640D01*
X107530900Y-97243640D01*
X107766217Y-97199362D01*
X107982341Y-97060290D01*
X108127331Y-96848090D01*
X108178340Y-96596200D01*
X108178340Y-95453200D01*
X108134062Y-95217883D01*
X108055375Y-95095600D01*
X108879798Y-95095600D01*
X109552200Y-95768002D01*
X109552200Y-100411012D01*
X109352333Y-100410838D01*
X109008557Y-100552883D01*
X108745308Y-100815673D01*
X108602662Y-101159201D01*
X108602338Y-101531167D01*
X108744383Y-101874943D01*
X108802500Y-101933162D01*
X108802500Y-102087312D01*
X108717333Y-102087238D01*
X108373557Y-102229283D01*
X108165222Y-102437254D01*
X108069227Y-102205501D01*
X107890598Y-102026873D01*
X107657209Y-101930200D01*
X107562650Y-101930200D01*
X107403900Y-102088950D01*
X107403900Y-103009700D01*
X107423900Y-103009700D01*
X107423900Y-103263700D01*
X107403900Y-103263700D01*
X107403900Y-103283700D01*
X107149900Y-103283700D01*
X107149900Y-103263700D01*
X106133900Y-103263700D01*
X106133900Y-103283700D01*
X105879900Y-103283700D01*
X105879900Y-103263700D01*
X104863900Y-103263700D01*
X104863900Y-103283700D01*
X104609900Y-103283700D01*
X104609900Y-103263700D01*
X104589900Y-103263700D01*
X104589900Y-103009700D01*
X104609900Y-103009700D01*
X104609900Y-102088950D01*
X104863900Y-102088950D01*
X104863900Y-103009700D01*
X105879900Y-103009700D01*
X105879900Y-102088950D01*
X106133900Y-102088950D01*
X106133900Y-103009700D01*
X107149900Y-103009700D01*
X107149900Y-102088950D01*
X106991150Y-101930200D01*
X106896591Y-101930200D01*
X106663202Y-102026873D01*
X106641900Y-102048175D01*
X106620598Y-102026873D01*
X106387209Y-101930200D01*
X106292650Y-101930200D01*
X106133900Y-102088950D01*
X105879900Y-102088950D01*
X105721150Y-101930200D01*
X105626591Y-101930200D01*
X105393202Y-102026873D01*
X105371900Y-102048175D01*
X105350598Y-102026873D01*
X105117209Y-101930200D01*
X105022650Y-101930200D01*
X104863900Y-102088950D01*
X104609900Y-102088950D01*
X104451150Y-101930200D01*
X104356591Y-101930200D01*
X104123202Y-102026873D01*
X104096665Y-102053409D01*
X103972790Y-101968769D01*
X103720900Y-101917760D01*
X103212900Y-101917760D01*
X102977583Y-101962038D01*
X102830993Y-102056366D01*
X102702790Y-101968769D01*
X102450900Y-101917760D01*
X101942900Y-101917760D01*
X101707583Y-101962038D01*
X101560993Y-102056366D01*
X101432790Y-101968769D01*
X101180900Y-101917760D01*
X100672900Y-101917760D01*
X100437583Y-101962038D01*
X100290993Y-102056366D01*
X100162790Y-101968769D01*
X99910900Y-101917760D01*
X99402900Y-101917760D01*
X99167583Y-101962038D01*
X99020993Y-102056366D01*
X98892790Y-101968769D01*
X98640900Y-101917760D01*
X98132900Y-101917760D01*
X97897583Y-101962038D01*
X97750993Y-102056366D01*
X97622790Y-101968769D01*
X97370900Y-101917760D01*
X96862900Y-101917760D01*
X96627583Y-101962038D01*
X96480993Y-102056366D01*
X96352790Y-101968769D01*
X96100900Y-101917760D01*
X95592900Y-101917760D01*
X95357583Y-101962038D01*
X95210993Y-102056366D01*
X95082790Y-101968769D01*
X94830900Y-101917760D01*
X94322900Y-101917760D01*
X94087583Y-101962038D01*
X93940993Y-102056366D01*
X93812790Y-101968769D01*
X93560900Y-101917760D01*
X93052900Y-101917760D01*
X92817583Y-101962038D01*
X92670993Y-102056366D01*
X92542790Y-101968769D01*
X92290900Y-101917760D01*
X91782900Y-101917760D01*
X91547583Y-101962038D01*
X91400993Y-102056366D01*
X91272790Y-101968769D01*
X91020900Y-101917760D01*
X90512900Y-101917760D01*
X90277583Y-101962038D01*
X90061459Y-102101110D01*
X89916469Y-102313310D01*
X89865460Y-102565200D01*
X89865460Y-103708200D01*
X89909738Y-103943517D01*
X90048810Y-104159641D01*
X90261010Y-104304631D01*
X90512900Y-104355640D01*
X91020900Y-104355640D01*
X91256217Y-104311362D01*
X91402807Y-104217034D01*
X91531010Y-104304631D01*
X91782900Y-104355640D01*
X92290900Y-104355640D01*
X92526217Y-104311362D01*
X92672807Y-104217034D01*
X92801010Y-104304631D01*
X93052900Y-104355640D01*
X93560900Y-104355640D01*
X93796217Y-104311362D01*
X93942807Y-104217034D01*
X94071010Y-104304631D01*
X94322900Y-104355640D01*
X94830900Y-104355640D01*
X95066217Y-104311362D01*
X95212807Y-104217034D01*
X95341010Y-104304631D01*
X95592900Y-104355640D01*
X96100900Y-104355640D01*
X96336217Y-104311362D01*
X96482807Y-104217034D01*
X96611010Y-104304631D01*
X96862900Y-104355640D01*
X97370900Y-104355640D01*
X97606217Y-104311362D01*
X97752807Y-104217034D01*
X97881010Y-104304631D01*
X98132900Y-104355640D01*
X98640900Y-104355640D01*
X98876217Y-104311362D01*
X98896900Y-104298053D01*
X98896900Y-105498900D01*
X98954752Y-105789739D01*
X99119499Y-106036301D01*
X99424299Y-106341101D01*
X99670860Y-106505848D01*
X99961700Y-106563700D01*
X107188000Y-106563700D01*
X107478839Y-106505848D01*
X107725401Y-106341101D01*
X108800880Y-105265622D01*
X108802500Y-105265624D01*
X108802500Y-117615053D01*
X108242454Y-118175100D01*
X98107500Y-118175100D01*
X97826228Y-118231049D01*
X97587777Y-118390376D01*
X97346477Y-118631677D01*
X97187149Y-118870128D01*
X97133495Y-119139861D01*
X96787053Y-119371346D01*
X96465146Y-119853115D01*
X96352107Y-120421400D01*
X96465146Y-120989685D01*
X96787053Y-121471454D01*
X97127753Y-121699102D01*
X96984842Y-121766217D01*
X96594555Y-122194476D01*
X96424724Y-122604510D01*
X96546045Y-122834400D01*
X97739200Y-122834400D01*
X97739200Y-122814400D01*
X97993200Y-122814400D01*
X97993200Y-122834400D01*
X98013200Y-122834400D01*
X98013200Y-123088400D01*
X97993200Y-123088400D01*
X97993200Y-124282219D01*
X98223092Y-124402886D01*
X98747558Y-124156583D01*
X99137845Y-123728324D01*
X99137855Y-123728299D01*
X99327053Y-124011454D01*
X99808822Y-124333361D01*
X100377107Y-124446400D01*
X100435293Y-124446400D01*
X101003578Y-124333361D01*
X101485347Y-124011454D01*
X101679154Y-123721400D01*
X110439200Y-123721400D01*
X110730039Y-123663548D01*
X110976601Y-123498801D01*
X111687801Y-122787601D01*
X111852548Y-122541039D01*
X111910400Y-122250200D01*
X111910400Y-103793327D01*
X112182801Y-103906438D01*
X112459315Y-103906679D01*
X112387262Y-104080201D01*
X112386938Y-104452167D01*
X112528983Y-104795943D01*
X112791773Y-105059192D01*
X113135301Y-105201838D01*
X113182177Y-105201879D01*
X114080099Y-106099801D01*
X114326660Y-106264548D01*
X114617500Y-106322400D01*
X119826478Y-106322400D01*
X120117317Y-106264548D01*
X120363879Y-106099801D01*
X120857734Y-105605946D01*
X122093271Y-105714042D01*
X122331551Y-105690442D01*
X122558974Y-105570736D01*
X122625661Y-105489387D01*
X122499884Y-106055382D01*
X122253495Y-106991663D01*
X122008172Y-107776696D01*
X121708163Y-108626721D01*
X121464549Y-109308840D01*
X121222840Y-109840600D01*
X121221048Y-109848242D01*
X121216607Y-109854717D01*
X120920024Y-110546744D01*
X120527763Y-111331266D01*
X120193111Y-111952762D01*
X120110044Y-112077363D01*
X120083490Y-112141659D01*
X120044846Y-112199495D01*
X120031132Y-112268438D01*
X120004298Y-112333414D01*
X120004371Y-112402977D01*
X119990800Y-112471200D01*
X119990800Y-113965674D01*
X119945154Y-114513431D01*
X119802743Y-115320423D01*
X119612213Y-116082544D01*
X119468435Y-116513878D01*
X119279023Y-117082113D01*
X118808461Y-118070293D01*
X118476200Y-118592418D01*
X118139162Y-119122049D01*
X117264531Y-120239633D01*
X116647674Y-120903942D01*
X115763476Y-121689895D01*
X115083548Y-122272691D01*
X114606477Y-122606641D01*
X113814270Y-123151283D01*
X113071108Y-123597180D01*
X112586488Y-123887952D01*
X112102878Y-124129757D01*
X112090506Y-124139359D01*
X112075594Y-124144148D01*
X111640267Y-124385996D01*
X110908743Y-124727374D01*
X110118523Y-125073095D01*
X108832324Y-125567787D01*
X107751894Y-125911560D01*
X106813110Y-126158609D01*
X105967468Y-126357583D01*
X104773445Y-126606338D01*
X103534391Y-126804587D01*
X102687653Y-126904203D01*
X101799324Y-127002906D01*
X100670170Y-127052000D01*
X97860510Y-127052000D01*
X96976858Y-127002908D01*
X95839014Y-126903965D01*
X94452923Y-126705952D01*
X93158873Y-126457096D01*
X92720720Y-126359729D01*
X91917002Y-126158800D01*
X91917001Y-126158799D01*
X91510602Y-126057200D01*
X91510601Y-126057199D01*
X91125931Y-125961032D01*
X90039352Y-125615302D01*
X89050255Y-125269118D01*
X87966566Y-124825791D01*
X87127149Y-124430771D01*
X86239739Y-123987066D01*
X85309182Y-123448321D01*
X85109135Y-123318290D01*
X96424724Y-123318290D01*
X96594555Y-123728324D01*
X96984842Y-124156583D01*
X97509308Y-124402886D01*
X97739200Y-124282219D01*
X97739200Y-123088400D01*
X96546045Y-123088400D01*
X96424724Y-123318290D01*
X85109135Y-123318290D01*
X84331308Y-122812703D01*
X83499450Y-122176576D01*
X82672215Y-121495323D01*
X82340846Y-121163954D01*
X82340843Y-121163952D01*
X81842140Y-120665248D01*
X81213782Y-119988556D01*
X80594335Y-119178510D01*
X80109826Y-118403297D01*
X79776810Y-117832412D01*
X79489234Y-117209332D01*
X79155583Y-116446701D01*
X78972388Y-115805520D01*
X78779855Y-114890989D01*
X78688000Y-114202074D01*
X78688000Y-113334800D01*
X78680004Y-113294602D01*
X78683359Y-113253753D01*
X78653197Y-113159835D01*
X78633954Y-113063095D01*
X78611185Y-113029018D01*
X78598652Y-112989994D01*
X78344652Y-112532794D01*
X78341834Y-112529471D01*
X78340452Y-112525341D01*
X77934053Y-111814141D01*
X77931934Y-111811703D01*
X77930883Y-111808651D01*
X77591076Y-111226125D01*
X77198493Y-110391887D01*
X76856585Y-109659226D01*
X76664053Y-109129762D01*
X76656234Y-109116867D01*
X76653322Y-109102068D01*
X76309588Y-108267289D01*
X76064881Y-107484225D01*
X76064362Y-107483274D01*
X76064244Y-107482197D01*
X75768772Y-106546536D01*
X75572293Y-105662379D01*
X75572293Y-105662378D01*
X75525152Y-105450246D01*
X75648923Y-105610037D01*
X75872952Y-105735981D01*
X76128329Y-105764842D01*
X77821860Y-105616677D01*
X78052422Y-105552059D01*
X78255603Y-105394679D01*
X78381547Y-105170651D01*
X78410408Y-104915273D01*
X78236097Y-102922884D01*
X78171479Y-102692322D01*
X78014099Y-102489141D01*
X77790070Y-102363197D01*
X77591511Y-102340757D01*
X77591511Y-102207692D01*
X77655538Y-102053499D01*
X77655862Y-101681533D01*
X77618529Y-101591179D01*
X77703800Y-101567281D01*
X77906981Y-101409901D01*
X78032925Y-101185873D01*
X78061786Y-100930495D01*
X77951587Y-99670915D01*
X80837802Y-96784700D01*
X89900929Y-96784700D01*
X89909738Y-96831517D01*
X90048810Y-97047641D01*
X90261010Y-97192631D01*
X90512900Y-97243640D01*
X91020900Y-97243640D01*
X91256217Y-97199362D01*
X91402807Y-97105034D01*
X91531010Y-97192631D01*
X91782900Y-97243640D01*
X92290900Y-97243640D01*
X92526217Y-97199362D01*
X92672807Y-97105034D01*
X92801010Y-97192631D01*
X93052900Y-97243640D01*
X93560900Y-97243640D01*
X93796217Y-97199362D01*
X93942807Y-97105034D01*
X94071010Y-97192631D01*
X94322900Y-97243640D01*
X94830900Y-97243640D01*
X95066217Y-97199362D01*
X95212807Y-97105034D01*
X95341010Y-97192631D01*
X95592900Y-97243640D01*
X96100900Y-97243640D01*
X96336217Y-97199362D01*
X96482807Y-97105034D01*
X96611010Y-97192631D01*
X96862900Y-97243640D01*
X97370900Y-97243640D01*
X97606217Y-97199362D01*
X97752807Y-97105034D01*
X97881010Y-97192631D01*
X98132900Y-97243640D01*
X98640900Y-97243640D01*
X98876217Y-97199362D01*
X99022807Y-97105034D01*
X99151010Y-97192631D01*
X99402900Y-97243640D01*
X99910900Y-97243640D01*
X100146217Y-97199362D01*
X100292807Y-97105034D01*
X100421010Y-97192631D01*
X100672900Y-97243640D01*
X101180900Y-97243640D01*
X101416217Y-97199362D01*
X101557271Y-97108596D01*
X101583202Y-97134527D01*
X101816591Y-97231200D01*
X101911150Y-97231200D01*
X102069900Y-97072450D01*
X102069900Y-96151700D01*
X102049900Y-96151700D01*
X102049900Y-95897700D01*
X102069900Y-95897700D01*
X102069900Y-94976950D01*
X101911150Y-94818200D01*
X101816591Y-94818200D01*
X101661900Y-94882275D01*
X101661900Y-94734445D01*
X101744533Y-94610775D01*
X101811900Y-94272100D01*
X101811900Y-94168780D01*
X103795379Y-92185300D01*
X111926820Y-92185300D01*
X113279200Y-93537679D01*
M02*
