G04 #@! TF.FileFunction,Legend,Bot*
%FSLAX46Y46*%
G04 Gerber Fmt 4.6, Leading zero omitted, Abs format (unit mm)*
G04 Created by KiCad (PCBNEW 4.0.7) date 06/01/18 15:25:46*
%MOMM*%
%LPD*%
G01*
G04 APERTURE LIST*
%ADD10C,0.100000*%
%ADD11C,0.125000*%
%ADD12C,0.300000*%
%ADD13C,0.150000*%
%ADD14C,2.100000*%
%ADD15O,2.100000X2.100000*%
%ADD16R,1.000000X0.900000*%
%ADD17R,2.400000X2.100000*%
%ADD18R,0.908000X1.543000*%
G04 APERTURE END LIST*
D10*
D11*
X101702904Y-126153690D02*
X101702904Y-125653690D01*
X101536238Y-126010833D01*
X101369571Y-125653690D01*
X101369571Y-126153690D01*
X101131475Y-126153690D02*
X101131475Y-125820357D01*
X101131475Y-125915595D02*
X101107666Y-125867976D01*
X101083856Y-125844167D01*
X101036237Y-125820357D01*
X100988618Y-125820357D01*
X100440999Y-126153690D02*
X100440999Y-125653690D01*
X100274333Y-126010833D01*
X100107666Y-125653690D01*
X100107666Y-126153690D01*
X99679094Y-126129881D02*
X99726713Y-126153690D01*
X99821951Y-126153690D01*
X99869570Y-126129881D01*
X99893380Y-126082262D01*
X99893380Y-125891786D01*
X99869570Y-125844167D01*
X99821951Y-125820357D01*
X99726713Y-125820357D01*
X99679094Y-125844167D01*
X99655285Y-125891786D01*
X99655285Y-125939405D01*
X99893380Y-125987024D01*
X99250523Y-126129881D02*
X99298142Y-126153690D01*
X99393380Y-126153690D01*
X99440999Y-126129881D01*
X99464809Y-126082262D01*
X99464809Y-125891786D01*
X99440999Y-125844167D01*
X99393380Y-125820357D01*
X99298142Y-125820357D01*
X99250523Y-125844167D01*
X99226714Y-125891786D01*
X99226714Y-125939405D01*
X99464809Y-125987024D01*
X99036238Y-126129881D02*
X98988619Y-126153690D01*
X98893381Y-126153690D01*
X98845762Y-126129881D01*
X98821952Y-126082262D01*
X98821952Y-126058452D01*
X98845762Y-126010833D01*
X98893381Y-125987024D01*
X98964809Y-125987024D01*
X99012428Y-125963214D01*
X99036238Y-125915595D01*
X99036238Y-125891786D01*
X99012428Y-125844167D01*
X98964809Y-125820357D01*
X98893381Y-125820357D01*
X98845762Y-125844167D01*
X98417190Y-126129881D02*
X98464809Y-126153690D01*
X98560047Y-126153690D01*
X98607666Y-126129881D01*
X98631476Y-126082262D01*
X98631476Y-125891786D01*
X98607666Y-125844167D01*
X98560047Y-125820357D01*
X98464809Y-125820357D01*
X98417190Y-125844167D01*
X98393381Y-125891786D01*
X98393381Y-125939405D01*
X98631476Y-125987024D01*
X97988619Y-126129881D02*
X98036238Y-126153690D01*
X98131476Y-126153690D01*
X98179095Y-126129881D01*
X98202905Y-126082262D01*
X98202905Y-125891786D01*
X98179095Y-125844167D01*
X98131476Y-125820357D01*
X98036238Y-125820357D01*
X97988619Y-125844167D01*
X97964810Y-125891786D01*
X97964810Y-125939405D01*
X98202905Y-125987024D01*
X97750524Y-126153690D02*
X97750524Y-125653690D01*
X97702905Y-125963214D02*
X97560048Y-126153690D01*
X97560048Y-125820357D02*
X97750524Y-126010833D01*
X97369572Y-126129881D02*
X97321953Y-126153690D01*
X97226715Y-126153690D01*
X97179096Y-126129881D01*
X97155286Y-126082262D01*
X97155286Y-126058452D01*
X97179096Y-126010833D01*
X97226715Y-125987024D01*
X97298143Y-125987024D01*
X97345762Y-125963214D01*
X97369572Y-125915595D01*
X97369572Y-125891786D01*
X97345762Y-125844167D01*
X97298143Y-125820357D01*
X97226715Y-125820357D01*
X97179096Y-125844167D01*
X100250523Y-127028690D02*
X100417190Y-126790595D01*
X100536237Y-127028690D02*
X100536237Y-126528690D01*
X100345761Y-126528690D01*
X100298142Y-126552500D01*
X100274333Y-126576310D01*
X100250523Y-126623929D01*
X100250523Y-126695357D01*
X100274333Y-126742976D01*
X100298142Y-126766786D01*
X100345761Y-126790595D01*
X100536237Y-126790595D01*
X99845761Y-127004881D02*
X99893380Y-127028690D01*
X99988618Y-127028690D01*
X100036237Y-127004881D01*
X100060047Y-126957262D01*
X100060047Y-126766786D01*
X100036237Y-126719167D01*
X99988618Y-126695357D01*
X99893380Y-126695357D01*
X99845761Y-126719167D01*
X99821952Y-126766786D01*
X99821952Y-126814405D01*
X100060047Y-126862024D01*
X99655285Y-126695357D02*
X99536238Y-127028690D01*
X99417190Y-126695357D01*
X99226714Y-126981071D02*
X99202905Y-127004881D01*
X99226714Y-127028690D01*
X99250524Y-127004881D01*
X99226714Y-126981071D01*
X99226714Y-127028690D01*
X98607667Y-127028690D02*
X98607667Y-126528690D01*
X98488620Y-126528690D01*
X98417191Y-126552500D01*
X98369572Y-126600119D01*
X98345763Y-126647738D01*
X98321953Y-126742976D01*
X98321953Y-126814405D01*
X98345763Y-126909643D01*
X98369572Y-126957262D01*
X98417191Y-127004881D01*
X98488620Y-127028690D01*
X98607667Y-127028690D01*
D12*
X104321857Y-92769571D02*
X103250428Y-92769571D01*
X103893285Y-92126714D02*
X104321857Y-94055286D01*
X103393285Y-93412429D02*
X104464714Y-93412429D01*
X103821857Y-94055286D02*
X103393285Y-92126714D01*
X102750428Y-93769571D02*
X102750428Y-92269571D01*
X102750428Y-92841000D02*
X102607571Y-92769571D01*
X102321857Y-92769571D01*
X102179000Y-92841000D01*
X102107571Y-92912429D01*
X102036142Y-93055286D01*
X102036142Y-93483857D01*
X102107571Y-93626714D01*
X102179000Y-93698143D01*
X102321857Y-93769571D01*
X102607571Y-93769571D01*
X102750428Y-93698143D01*
X100750428Y-93769571D02*
X100750428Y-92983857D01*
X100821857Y-92841000D01*
X100964714Y-92769571D01*
X101250428Y-92769571D01*
X101393285Y-92841000D01*
X100750428Y-93698143D02*
X100893285Y-93769571D01*
X101250428Y-93769571D01*
X101393285Y-93698143D01*
X101464714Y-93555286D01*
X101464714Y-93412429D01*
X101393285Y-93269571D01*
X101250428Y-93198143D01*
X100893285Y-93198143D01*
X100750428Y-93126714D01*
X99393285Y-93769571D02*
X99393285Y-92269571D01*
X99393285Y-93698143D02*
X99536142Y-93769571D01*
X99821856Y-93769571D01*
X99964714Y-93698143D01*
X100036142Y-93626714D01*
X100107571Y-93483857D01*
X100107571Y-93055286D01*
X100036142Y-92912429D01*
X99964714Y-92841000D01*
X99821856Y-92769571D01*
X99536142Y-92769571D01*
X99393285Y-92841000D01*
X98036142Y-92769571D02*
X98036142Y-93983857D01*
X98107571Y-94126714D01*
X98178999Y-94198143D01*
X98321856Y-94269571D01*
X98536142Y-94269571D01*
X98678999Y-94198143D01*
X98036142Y-93698143D02*
X98178999Y-93769571D01*
X98464713Y-93769571D01*
X98607571Y-93698143D01*
X98678999Y-93626714D01*
X98750428Y-93483857D01*
X98750428Y-93055286D01*
X98678999Y-92912429D01*
X98607571Y-92841000D01*
X98464713Y-92769571D01*
X98178999Y-92769571D01*
X98036142Y-92841000D01*
X96750428Y-93698143D02*
X96893285Y-93769571D01*
X97178999Y-93769571D01*
X97321856Y-93698143D01*
X97393285Y-93555286D01*
X97393285Y-92983857D01*
X97321856Y-92841000D01*
X97178999Y-92769571D01*
X96893285Y-92769571D01*
X96750428Y-92841000D01*
X96678999Y-92983857D01*
X96678999Y-93126714D01*
X97393285Y-93269571D01*
X95821856Y-93769571D02*
X95964714Y-93698143D01*
X96036142Y-93555286D01*
X96036142Y-92269571D01*
X95250428Y-93769571D02*
X95250428Y-92769571D01*
X95250428Y-92269571D02*
X95321857Y-92341000D01*
X95250428Y-92412429D01*
X95179000Y-92341000D01*
X95250428Y-92269571D01*
X95250428Y-92412429D01*
X94750428Y-92769571D02*
X94178999Y-92769571D01*
X94536142Y-93769571D02*
X94536142Y-92483857D01*
X94464714Y-92341000D01*
X94321856Y-92269571D01*
X94178999Y-92269571D01*
X93107571Y-93698143D02*
X93250428Y-93769571D01*
X93536142Y-93769571D01*
X93678999Y-93698143D01*
X93750428Y-93555286D01*
X93750428Y-92983857D01*
X93678999Y-92841000D01*
X93536142Y-92769571D01*
X93250428Y-92769571D01*
X93107571Y-92841000D01*
X93036142Y-92983857D01*
X93036142Y-93126714D01*
X93750428Y-93269571D01*
D10*
X88201142Y-118102786D02*
X87772571Y-118102786D01*
X87986857Y-118852786D02*
X87986857Y-118102786D01*
X87522571Y-118852786D02*
X87522571Y-118102786D01*
X87201142Y-118852786D02*
X87201142Y-118459929D01*
X87236856Y-118388500D01*
X87308285Y-118352786D01*
X87415428Y-118352786D01*
X87486856Y-118388500D01*
X87522571Y-118424214D01*
X86522571Y-118852786D02*
X86522571Y-118459929D01*
X86558285Y-118388500D01*
X86629714Y-118352786D01*
X86772571Y-118352786D01*
X86844000Y-118388500D01*
X86522571Y-118817071D02*
X86594000Y-118852786D01*
X86772571Y-118852786D01*
X86844000Y-118817071D01*
X86879714Y-118745643D01*
X86879714Y-118674214D01*
X86844000Y-118602786D01*
X86772571Y-118567071D01*
X86594000Y-118567071D01*
X86522571Y-118531357D01*
X86165429Y-118352786D02*
X86165429Y-118852786D01*
X86165429Y-118424214D02*
X86129714Y-118388500D01*
X86058286Y-118352786D01*
X85951143Y-118352786D01*
X85879714Y-118388500D01*
X85844000Y-118459929D01*
X85844000Y-118852786D01*
X85486858Y-118852786D02*
X85486858Y-118102786D01*
X85415429Y-118567071D02*
X85201143Y-118852786D01*
X85201143Y-118352786D02*
X85486858Y-118638500D01*
X84915429Y-118817071D02*
X84844000Y-118852786D01*
X84701143Y-118852786D01*
X84629715Y-118817071D01*
X84594000Y-118745643D01*
X84594000Y-118709929D01*
X84629715Y-118638500D01*
X84701143Y-118602786D01*
X84808286Y-118602786D01*
X84879715Y-118567071D01*
X84915429Y-118495643D01*
X84915429Y-118459929D01*
X84879715Y-118388500D01*
X84808286Y-118352786D01*
X84701143Y-118352786D01*
X84629715Y-118388500D01*
X83808285Y-118352786D02*
X83522571Y-118352786D01*
X83701143Y-118102786D02*
X83701143Y-118745643D01*
X83665428Y-118817071D01*
X83594000Y-118852786D01*
X83522571Y-118852786D01*
X83165429Y-118852786D02*
X83236857Y-118817071D01*
X83272572Y-118781357D01*
X83308286Y-118709929D01*
X83308286Y-118495643D01*
X83272572Y-118424214D01*
X83236857Y-118388500D01*
X83165429Y-118352786D01*
X83058286Y-118352786D01*
X82986857Y-118388500D01*
X82951143Y-118424214D01*
X82915429Y-118495643D01*
X82915429Y-118709929D01*
X82951143Y-118781357D01*
X82986857Y-118817071D01*
X83058286Y-118852786D01*
X83165429Y-118852786D01*
X82594001Y-118781357D02*
X82558286Y-118817071D01*
X82594001Y-118852786D01*
X82629715Y-118817071D01*
X82594001Y-118781357D01*
X82594001Y-118852786D01*
X82594001Y-118388500D02*
X82558286Y-118424214D01*
X82594001Y-118459929D01*
X82629715Y-118424214D01*
X82594001Y-118388500D01*
X82594001Y-118459929D01*
X87594000Y-119863500D02*
X87236857Y-119863500D01*
X87665428Y-120077786D02*
X87415428Y-119327786D01*
X87165428Y-120077786D01*
X86915429Y-120077786D02*
X86915429Y-119327786D01*
X86486857Y-120077786D01*
X86486857Y-119327786D01*
X86129715Y-120077786D02*
X86129715Y-119327786D01*
X85951143Y-119327786D01*
X85844000Y-119363500D01*
X85772572Y-119434929D01*
X85736857Y-119506357D01*
X85701143Y-119649214D01*
X85701143Y-119756357D01*
X85736857Y-119899214D01*
X85772572Y-119970643D01*
X85844000Y-120042071D01*
X85951143Y-120077786D01*
X86129715Y-120077786D01*
X85379715Y-120006357D02*
X85344000Y-120042071D01*
X85379715Y-120077786D01*
X85415429Y-120042071D01*
X85379715Y-120006357D01*
X85379715Y-120077786D01*
X85379715Y-119792071D02*
X85415429Y-119363500D01*
X85379715Y-119327786D01*
X85344000Y-119363500D01*
X85379715Y-119792071D01*
X85379715Y-119327786D01*
X85094000Y-119327786D02*
X84594000Y-120077786D01*
X84594000Y-119327786D02*
X85094000Y-120077786D01*
X84165428Y-119327786D02*
X84022571Y-119327786D01*
X83951143Y-119363500D01*
X83879714Y-119434929D01*
X83844000Y-119577786D01*
X83844000Y-119827786D01*
X83879714Y-119970643D01*
X83951143Y-120042071D01*
X84022571Y-120077786D01*
X84165428Y-120077786D01*
X84236857Y-120042071D01*
X84308286Y-119970643D01*
X84344000Y-119827786D01*
X84344000Y-119577786D01*
X84308286Y-119434929D01*
X84236857Y-119363500D01*
X84165428Y-119327786D01*
X83094000Y-120077786D02*
X83344000Y-119720643D01*
X83522572Y-120077786D02*
X83522572Y-119327786D01*
X83236857Y-119327786D01*
X83165429Y-119363500D01*
X83129714Y-119399214D01*
X83094000Y-119470643D01*
X83094000Y-119577786D01*
X83129714Y-119649214D01*
X83165429Y-119684929D01*
X83236857Y-119720643D01*
X83522572Y-119720643D01*
X110918048Y-114676381D02*
X110918048Y-113676381D01*
X110679953Y-113676381D01*
X110537095Y-113724000D01*
X110441857Y-113819238D01*
X110394238Y-113914476D01*
X110346619Y-114104952D01*
X110346619Y-114247810D01*
X110394238Y-114438286D01*
X110441857Y-114533524D01*
X110537095Y-114628762D01*
X110679953Y-114676381D01*
X110918048Y-114676381D01*
X109537095Y-114628762D02*
X109632333Y-114676381D01*
X109822810Y-114676381D01*
X109918048Y-114628762D01*
X109965667Y-114533524D01*
X109965667Y-114152571D01*
X109918048Y-114057333D01*
X109822810Y-114009714D01*
X109632333Y-114009714D01*
X109537095Y-114057333D01*
X109489476Y-114152571D01*
X109489476Y-114247810D01*
X109965667Y-114343048D01*
X109108524Y-114628762D02*
X109013286Y-114676381D01*
X108822810Y-114676381D01*
X108727571Y-114628762D01*
X108679952Y-114533524D01*
X108679952Y-114485905D01*
X108727571Y-114390667D01*
X108822810Y-114343048D01*
X108965667Y-114343048D01*
X109060905Y-114295429D01*
X109108524Y-114200190D01*
X109108524Y-114152571D01*
X109060905Y-114057333D01*
X108965667Y-114009714D01*
X108822810Y-114009714D01*
X108727571Y-114057333D01*
X108251381Y-114676381D02*
X108251381Y-114009714D01*
X108251381Y-113676381D02*
X108299000Y-113724000D01*
X108251381Y-113771619D01*
X108203762Y-113724000D01*
X108251381Y-113676381D01*
X108251381Y-113771619D01*
X107346619Y-114009714D02*
X107346619Y-114819238D01*
X107394238Y-114914476D01*
X107441857Y-114962095D01*
X107537096Y-115009714D01*
X107679953Y-115009714D01*
X107775191Y-114962095D01*
X107346619Y-114628762D02*
X107441857Y-114676381D01*
X107632334Y-114676381D01*
X107727572Y-114628762D01*
X107775191Y-114581143D01*
X107822810Y-114485905D01*
X107822810Y-114200190D01*
X107775191Y-114104952D01*
X107727572Y-114057333D01*
X107632334Y-114009714D01*
X107441857Y-114009714D01*
X107346619Y-114057333D01*
X106870429Y-114009714D02*
X106870429Y-114676381D01*
X106870429Y-114104952D02*
X106822810Y-114057333D01*
X106727572Y-114009714D01*
X106584714Y-114009714D01*
X106489476Y-114057333D01*
X106441857Y-114152571D01*
X106441857Y-114676381D01*
X105584714Y-114628762D02*
X105679952Y-114676381D01*
X105870429Y-114676381D01*
X105965667Y-114628762D01*
X106013286Y-114533524D01*
X106013286Y-114152571D01*
X105965667Y-114057333D01*
X105870429Y-114009714D01*
X105679952Y-114009714D01*
X105584714Y-114057333D01*
X105537095Y-114152571D01*
X105537095Y-114247810D01*
X106013286Y-114343048D01*
X104679952Y-114676381D02*
X104679952Y-113676381D01*
X104679952Y-114628762D02*
X104775190Y-114676381D01*
X104965667Y-114676381D01*
X105060905Y-114628762D01*
X105108524Y-114581143D01*
X105156143Y-114485905D01*
X105156143Y-114200190D01*
X105108524Y-114104952D01*
X105060905Y-114057333D01*
X104965667Y-114009714D01*
X104775190Y-114009714D01*
X104679952Y-114057333D01*
X103108523Y-114152571D02*
X102965666Y-114200190D01*
X102918047Y-114247810D01*
X102870428Y-114343048D01*
X102870428Y-114485905D01*
X102918047Y-114581143D01*
X102965666Y-114628762D01*
X103060904Y-114676381D01*
X103441857Y-114676381D01*
X103441857Y-113676381D01*
X103108523Y-113676381D01*
X103013285Y-113724000D01*
X102965666Y-113771619D01*
X102918047Y-113866857D01*
X102918047Y-113962095D01*
X102965666Y-114057333D01*
X103013285Y-114104952D01*
X103108523Y-114152571D01*
X103441857Y-114152571D01*
X102537095Y-114009714D02*
X102299000Y-114676381D01*
X102060904Y-114009714D02*
X102299000Y-114676381D01*
X102394238Y-114914476D01*
X102441857Y-114962095D01*
X102537095Y-115009714D01*
X101679952Y-114581143D02*
X101632333Y-114628762D01*
X101679952Y-114676381D01*
X101727571Y-114628762D01*
X101679952Y-114581143D01*
X101679952Y-114676381D01*
X101679952Y-114057333D02*
X101632333Y-114104952D01*
X101679952Y-114152571D01*
X101727571Y-114104952D01*
X101679952Y-114057333D01*
X101679952Y-114152571D01*
X109465667Y-116276381D02*
X109465667Y-115276381D01*
X109132333Y-115990667D01*
X108799000Y-115276381D01*
X108799000Y-116276381D01*
X108418048Y-115609714D02*
X108179953Y-116276381D01*
X107941857Y-115609714D02*
X108179953Y-116276381D01*
X108275191Y-116514476D01*
X108322810Y-116562095D01*
X108418048Y-116609714D01*
X107560905Y-115609714D02*
X107560905Y-116276381D01*
X107560905Y-115704952D02*
X107513286Y-115657333D01*
X107418048Y-115609714D01*
X107275190Y-115609714D01*
X107179952Y-115657333D01*
X107132333Y-115752571D01*
X107132333Y-116276381D01*
X106227571Y-116276381D02*
X106227571Y-115276381D01*
X106227571Y-116228762D02*
X106322809Y-116276381D01*
X106513286Y-116276381D01*
X106608524Y-116228762D01*
X106656143Y-116181143D01*
X106703762Y-116085905D01*
X106703762Y-115800190D01*
X106656143Y-115704952D01*
X106608524Y-115657333D01*
X106513286Y-115609714D01*
X106322809Y-115609714D01*
X106227571Y-115657333D01*
X105418047Y-115752571D02*
X105751381Y-115752571D01*
X105751381Y-116276381D02*
X105751381Y-115276381D01*
X105275190Y-115276381D01*
X104989476Y-115609714D02*
X104751381Y-116276381D01*
X104513285Y-115609714D02*
X104751381Y-116276381D01*
X104846619Y-116514476D01*
X104894238Y-116562095D01*
X104989476Y-116609714D01*
X104132333Y-116276381D02*
X104132333Y-115609714D01*
X104132333Y-115800190D02*
X104084714Y-115704952D01*
X104037095Y-115657333D01*
X103941857Y-115609714D01*
X103846618Y-115609714D01*
X103132332Y-116228762D02*
X103227570Y-116276381D01*
X103418047Y-116276381D01*
X103513285Y-116228762D01*
X103560904Y-116133524D01*
X103560904Y-115752571D01*
X103513285Y-115657333D01*
X103418047Y-115609714D01*
X103227570Y-115609714D01*
X103132332Y-115657333D01*
X103084713Y-115752571D01*
X103084713Y-115847810D01*
X103560904Y-115943048D01*
X108275191Y-117828762D02*
X108132334Y-117876381D01*
X107894238Y-117876381D01*
X107799000Y-117828762D01*
X107751381Y-117781143D01*
X107703762Y-117685905D01*
X107703762Y-117590667D01*
X107751381Y-117495429D01*
X107799000Y-117447810D01*
X107894238Y-117400190D01*
X108084715Y-117352571D01*
X108179953Y-117304952D01*
X108227572Y-117257333D01*
X108275191Y-117162095D01*
X108275191Y-117066857D01*
X108227572Y-116971619D01*
X108179953Y-116924000D01*
X108084715Y-116876381D01*
X107846619Y-116876381D01*
X107703762Y-116924000D01*
X107275191Y-117209714D02*
X107275191Y-118209714D01*
X107275191Y-117257333D02*
X107179953Y-117209714D01*
X106989476Y-117209714D01*
X106894238Y-117257333D01*
X106846619Y-117304952D01*
X106799000Y-117400190D01*
X106799000Y-117685905D01*
X106846619Y-117781143D01*
X106894238Y-117828762D01*
X106989476Y-117876381D01*
X107179953Y-117876381D01*
X107275191Y-117828762D01*
X105941857Y-117876381D02*
X105941857Y-117352571D01*
X105989476Y-117257333D01*
X106084714Y-117209714D01*
X106275191Y-117209714D01*
X106370429Y-117257333D01*
X105941857Y-117828762D02*
X106037095Y-117876381D01*
X106275191Y-117876381D01*
X106370429Y-117828762D01*
X106418048Y-117733524D01*
X106418048Y-117638286D01*
X106370429Y-117543048D01*
X106275191Y-117495429D01*
X106037095Y-117495429D01*
X105941857Y-117447810D01*
X105465667Y-117876381D02*
X105465667Y-117209714D01*
X105465667Y-117400190D02*
X105418048Y-117304952D01*
X105370429Y-117257333D01*
X105275191Y-117209714D01*
X105179952Y-117209714D01*
X104941857Y-116876381D02*
X104275190Y-117876381D01*
X104275190Y-116876381D02*
X104941857Y-117876381D01*
D13*
X107784900Y-96913700D02*
X90131900Y-96913700D01*
X90131900Y-102247700D02*
X107911900Y-102247700D01*
X107911900Y-96913700D02*
X107911900Y-102247700D01*
X90131900Y-102247700D02*
X90131900Y-96913700D01*
X90131900Y-100215700D02*
X91401900Y-100215700D01*
X91401900Y-100215700D02*
X91401900Y-98945700D01*
X91401900Y-98945700D02*
X90131900Y-98945700D01*
D10*
X103085000Y-119917333D02*
X102985000Y-119950667D01*
X102818333Y-119950667D01*
X102751666Y-119917333D01*
X102718333Y-119884000D01*
X102685000Y-119817333D01*
X102685000Y-119750667D01*
X102718333Y-119684000D01*
X102751666Y-119650667D01*
X102818333Y-119617333D01*
X102951666Y-119584000D01*
X103018333Y-119550667D01*
X103051666Y-119517333D01*
X103085000Y-119450667D01*
X103085000Y-119384000D01*
X103051666Y-119317333D01*
X103018333Y-119284000D01*
X102951666Y-119250667D01*
X102785000Y-119250667D01*
X102685000Y-119284000D01*
X102384999Y-119950667D02*
X102384999Y-119250667D01*
X102218333Y-119250667D01*
X102118333Y-119284000D01*
X102051666Y-119350667D01*
X102018333Y-119417333D01*
X101984999Y-119550667D01*
X101984999Y-119650667D01*
X102018333Y-119784000D01*
X102051666Y-119850667D01*
X102118333Y-119917333D01*
X102218333Y-119950667D01*
X102384999Y-119950667D01*
X101718333Y-119750667D02*
X101384999Y-119750667D01*
X101784999Y-119950667D02*
X101551666Y-119250667D01*
X101318333Y-119950667D01*
X103068334Y-124997333D02*
X102968334Y-125030667D01*
X102801667Y-125030667D01*
X102735000Y-124997333D01*
X102701667Y-124964000D01*
X102668334Y-124897333D01*
X102668334Y-124830667D01*
X102701667Y-124764000D01*
X102735000Y-124730667D01*
X102801667Y-124697333D01*
X102935000Y-124664000D01*
X103001667Y-124630667D01*
X103035000Y-124597333D01*
X103068334Y-124530667D01*
X103068334Y-124464000D01*
X103035000Y-124397333D01*
X103001667Y-124364000D01*
X102935000Y-124330667D01*
X102768334Y-124330667D01*
X102668334Y-124364000D01*
X101968333Y-124964000D02*
X102001667Y-124997333D01*
X102101667Y-125030667D01*
X102168333Y-125030667D01*
X102268333Y-124997333D01*
X102335000Y-124930667D01*
X102368333Y-124864000D01*
X102401667Y-124730667D01*
X102401667Y-124630667D01*
X102368333Y-124497333D01*
X102335000Y-124430667D01*
X102268333Y-124364000D01*
X102168333Y-124330667D01*
X102101667Y-124330667D01*
X102001667Y-124364000D01*
X101968333Y-124397333D01*
X101335000Y-125030667D02*
X101668333Y-125030667D01*
X101668333Y-124330667D01*
X97688333Y-124364000D02*
X97754999Y-124330667D01*
X97854999Y-124330667D01*
X97954999Y-124364000D01*
X98021666Y-124430667D01*
X98054999Y-124497333D01*
X98088333Y-124630667D01*
X98088333Y-124730667D01*
X98054999Y-124864000D01*
X98021666Y-124930667D01*
X97954999Y-124997333D01*
X97854999Y-125030667D01*
X97788333Y-125030667D01*
X97688333Y-124997333D01*
X97654999Y-124964000D01*
X97654999Y-124730667D01*
X97788333Y-124730667D01*
X97354999Y-125030667D02*
X97354999Y-124330667D01*
X96954999Y-125030667D01*
X96954999Y-124330667D01*
X96621666Y-125030667D02*
X96621666Y-124330667D01*
X96455000Y-124330667D01*
X96355000Y-124364000D01*
X96288333Y-124430667D01*
X96255000Y-124497333D01*
X96221666Y-124630667D01*
X96221666Y-124730667D01*
X96255000Y-124864000D01*
X96288333Y-124930667D01*
X96355000Y-124997333D01*
X96455000Y-125030667D01*
X96621666Y-125030667D01*
X98088333Y-119250667D02*
X97855000Y-119950667D01*
X97621667Y-119250667D01*
X96988333Y-119884000D02*
X97021667Y-119917333D01*
X97121667Y-119950667D01*
X97188333Y-119950667D01*
X97288333Y-119917333D01*
X97355000Y-119850667D01*
X97388333Y-119784000D01*
X97421667Y-119650667D01*
X97421667Y-119550667D01*
X97388333Y-119417333D01*
X97355000Y-119350667D01*
X97288333Y-119284000D01*
X97188333Y-119250667D01*
X97121667Y-119250667D01*
X97021667Y-119284000D01*
X96988333Y-119317333D01*
X96288333Y-119884000D02*
X96321667Y-119917333D01*
X96421667Y-119950667D01*
X96488333Y-119950667D01*
X96588333Y-119917333D01*
X96655000Y-119850667D01*
X96688333Y-119784000D01*
X96721667Y-119650667D01*
X96721667Y-119550667D01*
X96688333Y-119417333D01*
X96655000Y-119350667D01*
X96588333Y-119284000D01*
X96488333Y-119250667D01*
X96421667Y-119250667D01*
X96321667Y-119284000D01*
X96288333Y-119317333D01*
%LPC*%
D14*
X100965000Y-120904000D03*
D15*
X100965000Y-123444000D03*
X98425000Y-120904000D03*
X98425000Y-123444000D03*
D16*
X109051000Y-99441000D03*
X110151000Y-99441000D03*
D10*
G36*
X111554419Y-80047534D02*
X110700272Y-81965980D01*
X108507763Y-80989812D01*
X109361910Y-79071366D01*
X111554419Y-80047534D01*
X111554419Y-80047534D01*
G37*
G36*
X107900237Y-78420588D02*
X107046090Y-80339034D01*
X104853581Y-79362866D01*
X105707728Y-77444420D01*
X107900237Y-78420588D01*
X107900237Y-78420588D01*
G37*
G36*
X75332298Y-98960891D02*
X77424307Y-98777864D01*
X77633480Y-101168731D01*
X75541471Y-101351758D01*
X75332298Y-98960891D01*
X75332298Y-98960891D01*
G37*
G36*
X75680920Y-102945669D02*
X77772929Y-102762642D01*
X77982102Y-105153509D01*
X75890093Y-105336536D01*
X75680920Y-102945669D01*
X75680920Y-102945669D01*
G37*
G36*
X77933387Y-89699463D02*
X79906741Y-90417705D01*
X79085893Y-92672967D01*
X77112539Y-91954725D01*
X77933387Y-89699463D01*
X77933387Y-89699463D01*
G37*
G36*
X76565307Y-93458233D02*
X78538661Y-94176475D01*
X77717813Y-96431737D01*
X75744459Y-95713495D01*
X76565307Y-93458233D01*
X76565307Y-93458233D01*
G37*
G36*
X83910916Y-82161749D02*
X85471520Y-83566923D01*
X83865606Y-85350471D01*
X82305002Y-83945297D01*
X83910916Y-82161749D01*
X83910916Y-82161749D01*
G37*
G36*
X81234394Y-85134329D02*
X82794998Y-86539503D01*
X81189084Y-88323051D01*
X79628480Y-86917877D01*
X81234394Y-85134329D01*
X81234394Y-85134329D01*
G37*
G36*
X92220036Y-77553598D02*
X93107535Y-79456844D01*
X90932396Y-80471128D01*
X90044897Y-78567882D01*
X92220036Y-77553598D01*
X92220036Y-77553598D01*
G37*
G36*
X88594804Y-79244072D02*
X89482303Y-81147318D01*
X87307164Y-82161602D01*
X86419665Y-80258356D01*
X88594804Y-79244072D01*
X88594804Y-79244072D01*
G37*
D17*
X100755200Y-77876400D03*
X96755200Y-77876400D03*
D10*
G36*
X118634467Y-87171215D02*
X117025773Y-88521069D01*
X115483083Y-86682563D01*
X117091777Y-85332709D01*
X118634467Y-87171215D01*
X118634467Y-87171215D01*
G37*
G36*
X116063317Y-84107037D02*
X114454623Y-85456891D01*
X112911933Y-83618385D01*
X114520627Y-82268531D01*
X116063317Y-84107037D01*
X116063317Y-84107037D01*
G37*
G36*
X122527941Y-95662695D02*
X120554587Y-96380937D01*
X119733739Y-94125675D01*
X121707093Y-93407433D01*
X122527941Y-95662695D01*
X122527941Y-95662695D01*
G37*
G36*
X121159861Y-91903925D02*
X119186507Y-92622167D01*
X118365659Y-90366905D01*
X120339013Y-89648663D01*
X121159861Y-91903925D01*
X121159861Y-91903925D01*
G37*
G36*
X122331507Y-105285736D02*
X120239498Y-105102709D01*
X120448671Y-102711842D01*
X122540680Y-102894869D01*
X122331507Y-105285736D01*
X122331507Y-105285736D01*
G37*
G36*
X122680129Y-101300958D02*
X120588120Y-101117931D01*
X120797293Y-98727064D01*
X122889302Y-98910091D01*
X122680129Y-101300958D01*
X122680129Y-101300958D01*
G37*
D18*
X90766900Y-96024700D03*
X92036900Y-96024700D03*
X93306900Y-96024700D03*
X94576900Y-96024700D03*
X95846900Y-96024700D03*
X97116900Y-96024700D03*
X98386900Y-96024700D03*
X99656900Y-96024700D03*
X100926900Y-96024700D03*
X102196900Y-96024700D03*
X103466900Y-96024700D03*
X104736900Y-96024700D03*
X106006900Y-96024700D03*
X107276900Y-96024700D03*
X107276900Y-103136700D03*
X106006900Y-103136700D03*
X104736900Y-103136700D03*
X103466900Y-103136700D03*
X102196900Y-103136700D03*
X100926900Y-103136700D03*
X99656900Y-103136700D03*
X98386900Y-103136700D03*
X97116900Y-103136700D03*
X95846900Y-103136700D03*
X94576900Y-103136700D03*
X93306900Y-103136700D03*
X92036900Y-103136700D03*
X90766900Y-103136700D03*
M02*
