G04 #@! TF.FileFunction,Soldermask,Top*
%FSLAX46Y46*%
G04 Gerber Fmt 4.6, Leading zero omitted, Abs format (unit mm)*
G04 Created by KiCad (PCBNEW 4.0.7) date 06/01/18 20:45:17*
%MOMM*%
%LPD*%
G01*
G04 APERTURE LIST*
%ADD10C,0.100000*%
%ADD11C,0.010000*%
%ADD12C,2.100000*%
%ADD13O,2.100000X2.100000*%
%ADD14R,2.400000X2.100000*%
G04 APERTURE END LIST*
D10*
D11*
G36*
X100310893Y-116255934D02*
X100850519Y-116283193D01*
X101363067Y-116331859D01*
X101876556Y-116404577D01*
X102406263Y-116501439D01*
X103346525Y-116727592D01*
X104256056Y-117022283D01*
X105130007Y-117382202D01*
X105963532Y-117804041D01*
X106751781Y-118284489D01*
X107489907Y-118820237D01*
X108173061Y-119407976D01*
X108796396Y-120044395D01*
X109355063Y-120726185D01*
X109844214Y-121450036D01*
X109971603Y-121666000D01*
X110098454Y-121888486D01*
X110185656Y-122049695D01*
X110234317Y-122162556D01*
X110245548Y-122240001D01*
X110220458Y-122294962D01*
X110160157Y-122340371D01*
X110065754Y-122389159D01*
X110034963Y-122404388D01*
X108778363Y-122982888D01*
X107480816Y-123488825D01*
X106141364Y-123922474D01*
X104759047Y-124284111D01*
X103332906Y-124574011D01*
X101861984Y-124792447D01*
X101600000Y-124823335D01*
X101390151Y-124841763D01*
X101109022Y-124858416D01*
X100769984Y-124873121D01*
X100386408Y-124885703D01*
X99971666Y-124895988D01*
X99539129Y-124903802D01*
X99102167Y-124908970D01*
X98674154Y-124911319D01*
X98268458Y-124910675D01*
X97898453Y-124906862D01*
X97577509Y-124899707D01*
X97318998Y-124889035D01*
X97197334Y-124880695D01*
X95740522Y-124718850D01*
X94321697Y-124484286D01*
X92942846Y-124177462D01*
X91605954Y-123798837D01*
X90313010Y-123348870D01*
X89949648Y-123206344D01*
X89642854Y-123082787D01*
X89405670Y-122986778D01*
X89229144Y-122914303D01*
X89104319Y-122861351D01*
X89022244Y-122823910D01*
X88973963Y-122797967D01*
X88950522Y-122779511D01*
X88942967Y-122764528D01*
X88942334Y-122754990D01*
X88961331Y-122685369D01*
X89013287Y-122557195D01*
X89090642Y-122386257D01*
X89185841Y-122188345D01*
X89291325Y-121979248D01*
X89399537Y-121774756D01*
X89483809Y-121623667D01*
X89945791Y-120902804D01*
X90481546Y-120217605D01*
X91086094Y-119572650D01*
X91754453Y-118972524D01*
X92481642Y-118421806D01*
X93262678Y-117925080D01*
X93853000Y-117604742D01*
X94739725Y-117195319D01*
X95634227Y-116862008D01*
X96545260Y-116602780D01*
X97481582Y-116415611D01*
X98451949Y-116298471D01*
X99465116Y-116249335D01*
X99716167Y-116247436D01*
X100310893Y-116255934D01*
X100310893Y-116255934D01*
G37*
X100310893Y-116255934D02*
X100850519Y-116283193D01*
X101363067Y-116331859D01*
X101876556Y-116404577D01*
X102406263Y-116501439D01*
X103346525Y-116727592D01*
X104256056Y-117022283D01*
X105130007Y-117382202D01*
X105963532Y-117804041D01*
X106751781Y-118284489D01*
X107489907Y-118820237D01*
X108173061Y-119407976D01*
X108796396Y-120044395D01*
X109355063Y-120726185D01*
X109844214Y-121450036D01*
X109971603Y-121666000D01*
X110098454Y-121888486D01*
X110185656Y-122049695D01*
X110234317Y-122162556D01*
X110245548Y-122240001D01*
X110220458Y-122294962D01*
X110160157Y-122340371D01*
X110065754Y-122389159D01*
X110034963Y-122404388D01*
X108778363Y-122982888D01*
X107480816Y-123488825D01*
X106141364Y-123922474D01*
X104759047Y-124284111D01*
X103332906Y-124574011D01*
X101861984Y-124792447D01*
X101600000Y-124823335D01*
X101390151Y-124841763D01*
X101109022Y-124858416D01*
X100769984Y-124873121D01*
X100386408Y-124885703D01*
X99971666Y-124895988D01*
X99539129Y-124903802D01*
X99102167Y-124908970D01*
X98674154Y-124911319D01*
X98268458Y-124910675D01*
X97898453Y-124906862D01*
X97577509Y-124899707D01*
X97318998Y-124889035D01*
X97197334Y-124880695D01*
X95740522Y-124718850D01*
X94321697Y-124484286D01*
X92942846Y-124177462D01*
X91605954Y-123798837D01*
X90313010Y-123348870D01*
X89949648Y-123206344D01*
X89642854Y-123082787D01*
X89405670Y-122986778D01*
X89229144Y-122914303D01*
X89104319Y-122861351D01*
X89022244Y-122823910D01*
X88973963Y-122797967D01*
X88950522Y-122779511D01*
X88942967Y-122764528D01*
X88942334Y-122754990D01*
X88961331Y-122685369D01*
X89013287Y-122557195D01*
X89090642Y-122386257D01*
X89185841Y-122188345D01*
X89291325Y-121979248D01*
X89399537Y-121774756D01*
X89483809Y-121623667D01*
X89945791Y-120902804D01*
X90481546Y-120217605D01*
X91086094Y-119572650D01*
X91754453Y-118972524D01*
X92481642Y-118421806D01*
X93262678Y-117925080D01*
X93853000Y-117604742D01*
X94739725Y-117195319D01*
X95634227Y-116862008D01*
X96545260Y-116602780D01*
X97481582Y-116415611D01*
X98451949Y-116298471D01*
X99465116Y-116249335D01*
X99716167Y-116247436D01*
X100310893Y-116255934D01*
G36*
X107895266Y-106512376D02*
X107946680Y-106580584D01*
X107978519Y-106658833D01*
X108064501Y-106970253D01*
X108124954Y-107336625D01*
X108158375Y-107731717D01*
X108163261Y-108129294D01*
X108138110Y-108503123D01*
X108098475Y-108752870D01*
X107966188Y-109227008D01*
X107780858Y-109654255D01*
X107547294Y-110027353D01*
X107270308Y-110339043D01*
X106954710Y-110582066D01*
X106844372Y-110645188D01*
X106732871Y-110700038D01*
X106633535Y-110735110D01*
X106521986Y-110754756D01*
X106373845Y-110763324D01*
X106172000Y-110765167D01*
X105965035Y-110763189D01*
X105818322Y-110754356D01*
X105707482Y-110734318D01*
X105608136Y-110698725D01*
X105499629Y-110645188D01*
X105210214Y-110453522D01*
X104936805Y-110197711D01*
X104700952Y-109898096D01*
X104689124Y-109880178D01*
X104521000Y-109622873D01*
X104521000Y-109922665D01*
X104509222Y-110120574D01*
X104478374Y-110349035D01*
X104436083Y-110554478D01*
X104275748Y-111041454D01*
X104059665Y-111470948D01*
X103790400Y-111839549D01*
X103470517Y-112143848D01*
X103102580Y-112380434D01*
X103039334Y-112411819D01*
X102916536Y-112468011D01*
X102813157Y-112505394D01*
X102706461Y-112527781D01*
X102573714Y-112538985D01*
X102392181Y-112542818D01*
X102256167Y-112543167D01*
X102033465Y-112541593D01*
X101873034Y-112534564D01*
X101752500Y-112518619D01*
X101649493Y-112490295D01*
X101541638Y-112446130D01*
X101497495Y-112425770D01*
X101116677Y-112203239D01*
X100787991Y-111915945D01*
X100509266Y-111561658D01*
X100310394Y-111206984D01*
X100237300Y-111056793D01*
X100190746Y-110973552D01*
X100161148Y-110947636D01*
X100138927Y-110969421D01*
X100119740Y-111015468D01*
X100087738Y-111113250D01*
X100076000Y-111173032D01*
X100058306Y-111244450D01*
X100010983Y-111371771D01*
X99942677Y-111535375D01*
X99862029Y-111715641D01*
X99777683Y-111892947D01*
X99698281Y-112047674D01*
X99662862Y-112110907D01*
X99482566Y-112374743D01*
X99262197Y-112627743D01*
X99023388Y-112847975D01*
X98787770Y-113013504D01*
X98754407Y-113032062D01*
X98612812Y-113103018D01*
X98492374Y-113146830D01*
X98361765Y-113170933D01*
X98189658Y-113182758D01*
X98107500Y-113185561D01*
X97923355Y-113186861D01*
X97760709Y-113180647D01*
X97646066Y-113168194D01*
X97620667Y-113162113D01*
X97286026Y-113008995D01*
X96973916Y-112779720D01*
X96688694Y-112480824D01*
X96434719Y-112118845D01*
X96216349Y-111700317D01*
X96037941Y-111231779D01*
X95903854Y-110719765D01*
X95868688Y-110534341D01*
X95837530Y-110333877D01*
X95813064Y-110140525D01*
X95799120Y-109986050D01*
X95797355Y-109942790D01*
X95794382Y-109858797D01*
X95786734Y-109833112D01*
X95771196Y-109872400D01*
X95744554Y-109983323D01*
X95717182Y-110109000D01*
X95587529Y-110599457D01*
X95421454Y-111022320D01*
X95213482Y-111388807D01*
X94958135Y-111710132D01*
X94911334Y-111759318D01*
X94694904Y-111958467D01*
X94488776Y-112091397D01*
X94267944Y-112168839D01*
X94007401Y-112201529D01*
X93874167Y-112204500D01*
X93588314Y-112188055D01*
X93353141Y-112131565D01*
X93143642Y-112024297D01*
X92934810Y-111855517D01*
X92837000Y-111759318D01*
X92538560Y-111392686D01*
X92300474Y-110967492D01*
X92123156Y-110484970D01*
X92007022Y-109946357D01*
X91952486Y-109352887D01*
X91948000Y-109113214D01*
X91964829Y-108629455D01*
X92017923Y-108196924D01*
X92111189Y-107788611D01*
X92165213Y-107611936D01*
X92218700Y-107445208D01*
X92261699Y-107328915D01*
X92307690Y-107260754D01*
X92370155Y-107238421D01*
X92462573Y-107259614D01*
X92598427Y-107322029D01*
X92791196Y-107423362D01*
X92907751Y-107485071D01*
X93664259Y-107898478D01*
X94361139Y-108313449D01*
X95022245Y-108745647D01*
X95671434Y-109210732D01*
X96332562Y-109724366D01*
X96393000Y-109773133D01*
X96552744Y-109899715D01*
X96689918Y-109998341D01*
X96820692Y-110075618D01*
X96961233Y-110138149D01*
X97127708Y-110192539D01*
X97336285Y-110245392D01*
X97603131Y-110303312D01*
X97779452Y-110339489D01*
X98564849Y-110474410D01*
X99300163Y-110548386D01*
X99994254Y-110561253D01*
X100655981Y-110512846D01*
X101294203Y-110403002D01*
X101813494Y-110264723D01*
X101969678Y-110210406D01*
X102109240Y-110145199D01*
X102254028Y-110056284D01*
X102425888Y-109930841D01*
X102554751Y-109829792D01*
X102984118Y-109498360D01*
X103471050Y-109140996D01*
X103997576Y-108770013D01*
X104545725Y-108397725D01*
X105097526Y-108036445D01*
X105635008Y-107698487D01*
X105898244Y-107538822D01*
X106189946Y-107366686D01*
X106486707Y-107195827D01*
X106778215Y-107031796D01*
X107054160Y-106880144D01*
X107304229Y-106746421D01*
X107518111Y-106636179D01*
X107685495Y-106554969D01*
X107796068Y-106508342D01*
X107829023Y-106499438D01*
X107895266Y-106512376D01*
X107895266Y-106512376D01*
G37*
X107895266Y-106512376D02*
X107946680Y-106580584D01*
X107978519Y-106658833D01*
X108064501Y-106970253D01*
X108124954Y-107336625D01*
X108158375Y-107731717D01*
X108163261Y-108129294D01*
X108138110Y-108503123D01*
X108098475Y-108752870D01*
X107966188Y-109227008D01*
X107780858Y-109654255D01*
X107547294Y-110027353D01*
X107270308Y-110339043D01*
X106954710Y-110582066D01*
X106844372Y-110645188D01*
X106732871Y-110700038D01*
X106633535Y-110735110D01*
X106521986Y-110754756D01*
X106373845Y-110763324D01*
X106172000Y-110765167D01*
X105965035Y-110763189D01*
X105818322Y-110754356D01*
X105707482Y-110734318D01*
X105608136Y-110698725D01*
X105499629Y-110645188D01*
X105210214Y-110453522D01*
X104936805Y-110197711D01*
X104700952Y-109898096D01*
X104689124Y-109880178D01*
X104521000Y-109622873D01*
X104521000Y-109922665D01*
X104509222Y-110120574D01*
X104478374Y-110349035D01*
X104436083Y-110554478D01*
X104275748Y-111041454D01*
X104059665Y-111470948D01*
X103790400Y-111839549D01*
X103470517Y-112143848D01*
X103102580Y-112380434D01*
X103039334Y-112411819D01*
X102916536Y-112468011D01*
X102813157Y-112505394D01*
X102706461Y-112527781D01*
X102573714Y-112538985D01*
X102392181Y-112542818D01*
X102256167Y-112543167D01*
X102033465Y-112541593D01*
X101873034Y-112534564D01*
X101752500Y-112518619D01*
X101649493Y-112490295D01*
X101541638Y-112446130D01*
X101497495Y-112425770D01*
X101116677Y-112203239D01*
X100787991Y-111915945D01*
X100509266Y-111561658D01*
X100310394Y-111206984D01*
X100237300Y-111056793D01*
X100190746Y-110973552D01*
X100161148Y-110947636D01*
X100138927Y-110969421D01*
X100119740Y-111015468D01*
X100087738Y-111113250D01*
X100076000Y-111173032D01*
X100058306Y-111244450D01*
X100010983Y-111371771D01*
X99942677Y-111535375D01*
X99862029Y-111715641D01*
X99777683Y-111892947D01*
X99698281Y-112047674D01*
X99662862Y-112110907D01*
X99482566Y-112374743D01*
X99262197Y-112627743D01*
X99023388Y-112847975D01*
X98787770Y-113013504D01*
X98754407Y-113032062D01*
X98612812Y-113103018D01*
X98492374Y-113146830D01*
X98361765Y-113170933D01*
X98189658Y-113182758D01*
X98107500Y-113185561D01*
X97923355Y-113186861D01*
X97760709Y-113180647D01*
X97646066Y-113168194D01*
X97620667Y-113162113D01*
X97286026Y-113008995D01*
X96973916Y-112779720D01*
X96688694Y-112480824D01*
X96434719Y-112118845D01*
X96216349Y-111700317D01*
X96037941Y-111231779D01*
X95903854Y-110719765D01*
X95868688Y-110534341D01*
X95837530Y-110333877D01*
X95813064Y-110140525D01*
X95799120Y-109986050D01*
X95797355Y-109942790D01*
X95794382Y-109858797D01*
X95786734Y-109833112D01*
X95771196Y-109872400D01*
X95744554Y-109983323D01*
X95717182Y-110109000D01*
X95587529Y-110599457D01*
X95421454Y-111022320D01*
X95213482Y-111388807D01*
X94958135Y-111710132D01*
X94911334Y-111759318D01*
X94694904Y-111958467D01*
X94488776Y-112091397D01*
X94267944Y-112168839D01*
X94007401Y-112201529D01*
X93874167Y-112204500D01*
X93588314Y-112188055D01*
X93353141Y-112131565D01*
X93143642Y-112024297D01*
X92934810Y-111855517D01*
X92837000Y-111759318D01*
X92538560Y-111392686D01*
X92300474Y-110967492D01*
X92123156Y-110484970D01*
X92007022Y-109946357D01*
X91952486Y-109352887D01*
X91948000Y-109113214D01*
X91964829Y-108629455D01*
X92017923Y-108196924D01*
X92111189Y-107788611D01*
X92165213Y-107611936D01*
X92218700Y-107445208D01*
X92261699Y-107328915D01*
X92307690Y-107260754D01*
X92370155Y-107238421D01*
X92462573Y-107259614D01*
X92598427Y-107322029D01*
X92791196Y-107423362D01*
X92907751Y-107485071D01*
X93664259Y-107898478D01*
X94361139Y-108313449D01*
X95022245Y-108745647D01*
X95671434Y-109210732D01*
X96332562Y-109724366D01*
X96393000Y-109773133D01*
X96552744Y-109899715D01*
X96689918Y-109998341D01*
X96820692Y-110075618D01*
X96961233Y-110138149D01*
X97127708Y-110192539D01*
X97336285Y-110245392D01*
X97603131Y-110303312D01*
X97779452Y-110339489D01*
X98564849Y-110474410D01*
X99300163Y-110548386D01*
X99994254Y-110561253D01*
X100655981Y-110512846D01*
X101294203Y-110403002D01*
X101813494Y-110264723D01*
X101969678Y-110210406D01*
X102109240Y-110145199D01*
X102254028Y-110056284D01*
X102425888Y-109930841D01*
X102554751Y-109829792D01*
X102984118Y-109498360D01*
X103471050Y-109140996D01*
X103997576Y-108770013D01*
X104545725Y-108397725D01*
X105097526Y-108036445D01*
X105635008Y-107698487D01*
X105898244Y-107538822D01*
X106189946Y-107366686D01*
X106486707Y-107195827D01*
X106778215Y-107031796D01*
X107054160Y-106880144D01*
X107304229Y-106746421D01*
X107518111Y-106636179D01*
X107685495Y-106554969D01*
X107796068Y-106508342D01*
X107829023Y-106499438D01*
X107895266Y-106512376D01*
G36*
X88479758Y-105885131D02*
X88594695Y-105910995D01*
X88759012Y-105949465D01*
X88956290Y-105996750D01*
X88985729Y-106003887D01*
X89650661Y-106181545D01*
X90338801Y-106395093D01*
X91005099Y-106630332D01*
X91154250Y-106687463D01*
X91694000Y-106897643D01*
X91693374Y-107349738D01*
X91686335Y-107583890D01*
X91667888Y-107816298D01*
X91641111Y-108012603D01*
X91628419Y-108074761D01*
X91501992Y-108458339D01*
X91314923Y-108813286D01*
X91077552Y-109125288D01*
X90800220Y-109380030D01*
X90586199Y-109517500D01*
X90448644Y-109586987D01*
X90332128Y-109630825D01*
X90207332Y-109655859D01*
X90044939Y-109668930D01*
X89916000Y-109673917D01*
X89638997Y-109672891D01*
X89436220Y-109650234D01*
X89359071Y-109629039D01*
X89020110Y-109458744D01*
X88716805Y-109218243D01*
X88457296Y-108917404D01*
X88249725Y-108566093D01*
X88102231Y-108174175D01*
X88076581Y-108074761D01*
X88036919Y-107828687D01*
X88017123Y-107533279D01*
X88017195Y-107221505D01*
X88037133Y-106926334D01*
X88076581Y-106682239D01*
X88117702Y-106539615D01*
X88176380Y-106375256D01*
X88244267Y-106208174D01*
X88313019Y-106057384D01*
X88374289Y-105941898D01*
X88419732Y-105880729D01*
X88430624Y-105875667D01*
X88479758Y-105885131D01*
X88479758Y-105885131D01*
G37*
X88479758Y-105885131D02*
X88594695Y-105910995D01*
X88759012Y-105949465D01*
X88956290Y-105996750D01*
X88985729Y-106003887D01*
X89650661Y-106181545D01*
X90338801Y-106395093D01*
X91005099Y-106630332D01*
X91154250Y-106687463D01*
X91694000Y-106897643D01*
X91693374Y-107349738D01*
X91686335Y-107583890D01*
X91667888Y-107816298D01*
X91641111Y-108012603D01*
X91628419Y-108074761D01*
X91501992Y-108458339D01*
X91314923Y-108813286D01*
X91077552Y-109125288D01*
X90800220Y-109380030D01*
X90586199Y-109517500D01*
X90448644Y-109586987D01*
X90332128Y-109630825D01*
X90207332Y-109655859D01*
X90044939Y-109668930D01*
X89916000Y-109673917D01*
X89638997Y-109672891D01*
X89436220Y-109650234D01*
X89359071Y-109629039D01*
X89020110Y-109458744D01*
X88716805Y-109218243D01*
X88457296Y-108917404D01*
X88249725Y-108566093D01*
X88102231Y-108174175D01*
X88076581Y-108074761D01*
X88036919Y-107828687D01*
X88017123Y-107533279D01*
X88017195Y-107221505D01*
X88037133Y-106926334D01*
X88076581Y-106682239D01*
X88117702Y-106539615D01*
X88176380Y-106375256D01*
X88244267Y-106208174D01*
X88313019Y-106057384D01*
X88374289Y-105941898D01*
X88419732Y-105880729D01*
X88430624Y-105875667D01*
X88479758Y-105885131D01*
G36*
X111032964Y-105587203D02*
X111296437Y-105596246D01*
X111487157Y-105610536D01*
X111616858Y-105640839D01*
X111697272Y-105697926D01*
X111740135Y-105792564D01*
X111757179Y-105935521D01*
X111760138Y-106137566D01*
X111760000Y-106254432D01*
X111734080Y-106810000D01*
X111654874Y-107307176D01*
X111520210Y-107755062D01*
X111327918Y-108162759D01*
X111289134Y-108229071D01*
X111144307Y-108433305D01*
X110964072Y-108633435D01*
X110768025Y-108811469D01*
X110575762Y-108949418D01*
X110423214Y-109024071D01*
X110201412Y-109072255D01*
X109942685Y-109087178D01*
X109686080Y-109068949D01*
X109481131Y-109021479D01*
X109325461Y-108940015D01*
X109144916Y-108804388D01*
X108958825Y-108632648D01*
X108786516Y-108442844D01*
X108647319Y-108253024D01*
X108632533Y-108229071D01*
X108460830Y-107888855D01*
X108320210Y-107501212D01*
X108219387Y-107097145D01*
X108167076Y-106707657D01*
X108161667Y-106553889D01*
X108161667Y-106308225D01*
X108681701Y-106094407D01*
X109139344Y-105915484D01*
X109543683Y-105779239D01*
X109912204Y-105681901D01*
X110262389Y-105619699D01*
X110611723Y-105588860D01*
X110977690Y-105585614D01*
X111032964Y-105587203D01*
X111032964Y-105587203D01*
G37*
X111032964Y-105587203D02*
X111296437Y-105596246D01*
X111487157Y-105610536D01*
X111616858Y-105640839D01*
X111697272Y-105697926D01*
X111740135Y-105792564D01*
X111757179Y-105935521D01*
X111760138Y-106137566D01*
X111760000Y-106254432D01*
X111734080Y-106810000D01*
X111654874Y-107307176D01*
X111520210Y-107755062D01*
X111327918Y-108162759D01*
X111289134Y-108229071D01*
X111144307Y-108433305D01*
X110964072Y-108633435D01*
X110768025Y-108811469D01*
X110575762Y-108949418D01*
X110423214Y-109024071D01*
X110201412Y-109072255D01*
X109942685Y-109087178D01*
X109686080Y-109068949D01*
X109481131Y-109021479D01*
X109325461Y-108940015D01*
X109144916Y-108804388D01*
X108958825Y-108632648D01*
X108786516Y-108442844D01*
X108647319Y-108253024D01*
X108632533Y-108229071D01*
X108460830Y-107888855D01*
X108320210Y-107501212D01*
X108219387Y-107097145D01*
X108167076Y-106707657D01*
X108161667Y-106553889D01*
X108161667Y-106308225D01*
X108681701Y-106094407D01*
X109139344Y-105915484D01*
X109543683Y-105779239D01*
X109912204Y-105681901D01*
X110262389Y-105619699D01*
X110611723Y-105588860D01*
X110977690Y-105585614D01*
X111032964Y-105587203D01*
G36*
X95476865Y-98322083D02*
X95602917Y-98334575D01*
X95696580Y-98362257D01*
X95783950Y-98410744D01*
X95814893Y-98431607D01*
X95946666Y-98542877D01*
X96068097Y-98676854D01*
X96090059Y-98706774D01*
X96146403Y-98797648D01*
X96180142Y-98886453D01*
X96196892Y-98999282D01*
X96202266Y-99162229D01*
X96202500Y-99229333D01*
X96199584Y-99413865D01*
X96187092Y-99539916D01*
X96159409Y-99633580D01*
X96110922Y-99720950D01*
X96090059Y-99751892D01*
X95928074Y-99943325D01*
X95745098Y-100066818D01*
X95521023Y-100132988D01*
X95334667Y-100150667D01*
X95127800Y-100150791D01*
X94978838Y-100129817D01*
X94875645Y-100091215D01*
X94641646Y-99932980D01*
X94479776Y-99731710D01*
X94388740Y-99485058D01*
X94367244Y-99190677D01*
X94368140Y-99171387D01*
X94408134Y-98904895D01*
X94503341Y-98691476D01*
X94663836Y-98512575D01*
X94769774Y-98431607D01*
X94860649Y-98375264D01*
X94949454Y-98341524D01*
X95062283Y-98324775D01*
X95225229Y-98319401D01*
X95292334Y-98319167D01*
X95476865Y-98322083D01*
X95476865Y-98322083D01*
G37*
X95476865Y-98322083D02*
X95602917Y-98334575D01*
X95696580Y-98362257D01*
X95783950Y-98410744D01*
X95814893Y-98431607D01*
X95946666Y-98542877D01*
X96068097Y-98676854D01*
X96090059Y-98706774D01*
X96146403Y-98797648D01*
X96180142Y-98886453D01*
X96196892Y-98999282D01*
X96202266Y-99162229D01*
X96202500Y-99229333D01*
X96199584Y-99413865D01*
X96187092Y-99539916D01*
X96159409Y-99633580D01*
X96110922Y-99720950D01*
X96090059Y-99751892D01*
X95928074Y-99943325D01*
X95745098Y-100066818D01*
X95521023Y-100132988D01*
X95334667Y-100150667D01*
X95127800Y-100150791D01*
X94978838Y-100129817D01*
X94875645Y-100091215D01*
X94641646Y-99932980D01*
X94479776Y-99731710D01*
X94388740Y-99485058D01*
X94367244Y-99190677D01*
X94368140Y-99171387D01*
X94408134Y-98904895D01*
X94503341Y-98691476D01*
X94663836Y-98512575D01*
X94769774Y-98431607D01*
X94860649Y-98375264D01*
X94949454Y-98341524D01*
X95062283Y-98324775D01*
X95225229Y-98319401D01*
X95292334Y-98319167D01*
X95476865Y-98322083D01*
G36*
X102419532Y-97306083D02*
X102545583Y-97318575D01*
X102639247Y-97346257D01*
X102726617Y-97394744D01*
X102757559Y-97415607D01*
X102889332Y-97526877D01*
X103010764Y-97660854D01*
X103032726Y-97690774D01*
X103089070Y-97781648D01*
X103122809Y-97870453D01*
X103139558Y-97983282D01*
X103144933Y-98146229D01*
X103145167Y-98213333D01*
X103142251Y-98397865D01*
X103129758Y-98523916D01*
X103102076Y-98617580D01*
X103053589Y-98704950D01*
X103032726Y-98735892D01*
X102870740Y-98927325D01*
X102687764Y-99050818D01*
X102463689Y-99116988D01*
X102277334Y-99134667D01*
X102070467Y-99134791D01*
X101921505Y-99113817D01*
X101818311Y-99075215D01*
X101584312Y-98916980D01*
X101422442Y-98715710D01*
X101331407Y-98469058D01*
X101309911Y-98174677D01*
X101310807Y-98155387D01*
X101350801Y-97888895D01*
X101446008Y-97675476D01*
X101606503Y-97496575D01*
X101712441Y-97415607D01*
X101803315Y-97359264D01*
X101892120Y-97325524D01*
X102004949Y-97308775D01*
X102167896Y-97303401D01*
X102235000Y-97303167D01*
X102419532Y-97306083D01*
X102419532Y-97306083D01*
G37*
X102419532Y-97306083D02*
X102545583Y-97318575D01*
X102639247Y-97346257D01*
X102726617Y-97394744D01*
X102757559Y-97415607D01*
X102889332Y-97526877D01*
X103010764Y-97660854D01*
X103032726Y-97690774D01*
X103089070Y-97781648D01*
X103122809Y-97870453D01*
X103139558Y-97983282D01*
X103144933Y-98146229D01*
X103145167Y-98213333D01*
X103142251Y-98397865D01*
X103129758Y-98523916D01*
X103102076Y-98617580D01*
X103053589Y-98704950D01*
X103032726Y-98735892D01*
X102870740Y-98927325D01*
X102687764Y-99050818D01*
X102463689Y-99116988D01*
X102277334Y-99134667D01*
X102070467Y-99134791D01*
X101921505Y-99113817D01*
X101818311Y-99075215D01*
X101584312Y-98916980D01*
X101422442Y-98715710D01*
X101331407Y-98469058D01*
X101309911Y-98174677D01*
X101310807Y-98155387D01*
X101350801Y-97888895D01*
X101446008Y-97675476D01*
X101606503Y-97496575D01*
X101712441Y-97415607D01*
X101803315Y-97359264D01*
X101892120Y-97325524D01*
X102004949Y-97308775D01*
X102167896Y-97303401D01*
X102235000Y-97303167D01*
X102419532Y-97306083D01*
G36*
X101366749Y-65851219D02*
X101516583Y-65859055D01*
X101628225Y-65877024D01*
X101724901Y-65909143D01*
X101829834Y-65959429D01*
X101848949Y-65969433D01*
X102157001Y-66179101D01*
X102431197Y-66465068D01*
X102670730Y-66825681D01*
X102874791Y-67259288D01*
X103042575Y-67764238D01*
X103173273Y-68338879D01*
X103248763Y-68832889D01*
X103269127Y-69061713D01*
X103283034Y-69354257D01*
X103290637Y-69690546D01*
X103292090Y-70050609D01*
X103287549Y-70414473D01*
X103277168Y-70762164D01*
X103261100Y-71073709D01*
X103239501Y-71329136D01*
X103228791Y-71415062D01*
X103129305Y-71962050D01*
X102989720Y-72501374D01*
X102814770Y-73024095D01*
X102609189Y-73521274D01*
X102377710Y-73983971D01*
X102125068Y-74403248D01*
X101855996Y-74770166D01*
X101575228Y-75075786D01*
X101287498Y-75311169D01*
X101109448Y-75417021D01*
X100944481Y-75490558D01*
X100786657Y-75533439D01*
X100596573Y-75555217D01*
X100522711Y-75559279D01*
X100324569Y-75560246D01*
X100124814Y-75548069D01*
X99965772Y-75525372D01*
X99962087Y-75524559D01*
X99831229Y-75502102D01*
X99697015Y-75496959D01*
X99532587Y-75509732D01*
X99324877Y-75538864D01*
X99090096Y-75572707D01*
X98832836Y-75603972D01*
X98542913Y-75633532D01*
X98210141Y-75662259D01*
X97824338Y-75691024D01*
X97375318Y-75720701D01*
X96852897Y-75752161D01*
X96795167Y-75755499D01*
X96289145Y-75782655D01*
X95859836Y-75801073D01*
X95499738Y-75810747D01*
X95201346Y-75811669D01*
X94957159Y-75803831D01*
X94759675Y-75787227D01*
X94601390Y-75761848D01*
X94563708Y-75753323D01*
X94232803Y-75643411D01*
X93913511Y-75482312D01*
X93622012Y-75281994D01*
X93374485Y-75054425D01*
X93187111Y-74811574D01*
X93119673Y-74685134D01*
X93040232Y-74499985D01*
X92978570Y-74331531D01*
X92932484Y-74164877D01*
X92899772Y-73985128D01*
X92878234Y-73777390D01*
X92865667Y-73526768D01*
X92859869Y-73218368D01*
X92858625Y-72919167D01*
X92863237Y-72466201D01*
X92879544Y-72088645D01*
X92910560Y-71777685D01*
X92959297Y-71524511D01*
X93028766Y-71320312D01*
X93121981Y-71156274D01*
X93241953Y-71023588D01*
X93391696Y-70913440D01*
X93574220Y-70817021D01*
X93577834Y-70815353D01*
X93656349Y-70781518D01*
X93733322Y-70756543D01*
X93822955Y-70739093D01*
X93939446Y-70727832D01*
X94096997Y-70721426D01*
X94309808Y-70718539D01*
X94592080Y-70717835D01*
X94615000Y-70717833D01*
X94907165Y-70718607D01*
X95132079Y-70721998D01*
X95307151Y-70729613D01*
X95449793Y-70743060D01*
X95577412Y-70763944D01*
X95707419Y-70793872D01*
X95846666Y-70831493D01*
X95994620Y-70877891D01*
X96204390Y-70950483D01*
X96459581Y-71043038D01*
X96743799Y-71149325D01*
X97040648Y-71263113D01*
X97333732Y-71378173D01*
X97606657Y-71488272D01*
X97843027Y-71587181D01*
X97899928Y-71611803D01*
X97925229Y-71583081D01*
X97947480Y-71472647D01*
X97966874Y-71279326D01*
X97975302Y-71155505D01*
X98041294Y-70464975D01*
X98152236Y-69797233D01*
X98305083Y-69158757D01*
X98496787Y-68556025D01*
X98724301Y-67995514D01*
X98984578Y-67483702D01*
X99274571Y-67027066D01*
X99591234Y-66632084D01*
X99931518Y-66305233D01*
X100292379Y-66052991D01*
X100403609Y-65993128D01*
X100534986Y-65929559D01*
X100641807Y-65888169D01*
X100748890Y-65864216D01*
X100881059Y-65852958D01*
X101063134Y-65849656D01*
X101155500Y-65849500D01*
X101366749Y-65851219D01*
X101366749Y-65851219D01*
G37*
X101366749Y-65851219D02*
X101516583Y-65859055D01*
X101628225Y-65877024D01*
X101724901Y-65909143D01*
X101829834Y-65959429D01*
X101848949Y-65969433D01*
X102157001Y-66179101D01*
X102431197Y-66465068D01*
X102670730Y-66825681D01*
X102874791Y-67259288D01*
X103042575Y-67764238D01*
X103173273Y-68338879D01*
X103248763Y-68832889D01*
X103269127Y-69061713D01*
X103283034Y-69354257D01*
X103290637Y-69690546D01*
X103292090Y-70050609D01*
X103287549Y-70414473D01*
X103277168Y-70762164D01*
X103261100Y-71073709D01*
X103239501Y-71329136D01*
X103228791Y-71415062D01*
X103129305Y-71962050D01*
X102989720Y-72501374D01*
X102814770Y-73024095D01*
X102609189Y-73521274D01*
X102377710Y-73983971D01*
X102125068Y-74403248D01*
X101855996Y-74770166D01*
X101575228Y-75075786D01*
X101287498Y-75311169D01*
X101109448Y-75417021D01*
X100944481Y-75490558D01*
X100786657Y-75533439D01*
X100596573Y-75555217D01*
X100522711Y-75559279D01*
X100324569Y-75560246D01*
X100124814Y-75548069D01*
X99965772Y-75525372D01*
X99962087Y-75524559D01*
X99831229Y-75502102D01*
X99697015Y-75496959D01*
X99532587Y-75509732D01*
X99324877Y-75538864D01*
X99090096Y-75572707D01*
X98832836Y-75603972D01*
X98542913Y-75633532D01*
X98210141Y-75662259D01*
X97824338Y-75691024D01*
X97375318Y-75720701D01*
X96852897Y-75752161D01*
X96795167Y-75755499D01*
X96289145Y-75782655D01*
X95859836Y-75801073D01*
X95499738Y-75810747D01*
X95201346Y-75811669D01*
X94957159Y-75803831D01*
X94759675Y-75787227D01*
X94601390Y-75761848D01*
X94563708Y-75753323D01*
X94232803Y-75643411D01*
X93913511Y-75482312D01*
X93622012Y-75281994D01*
X93374485Y-75054425D01*
X93187111Y-74811574D01*
X93119673Y-74685134D01*
X93040232Y-74499985D01*
X92978570Y-74331531D01*
X92932484Y-74164877D01*
X92899772Y-73985128D01*
X92878234Y-73777390D01*
X92865667Y-73526768D01*
X92859869Y-73218368D01*
X92858625Y-72919167D01*
X92863237Y-72466201D01*
X92879544Y-72088645D01*
X92910560Y-71777685D01*
X92959297Y-71524511D01*
X93028766Y-71320312D01*
X93121981Y-71156274D01*
X93241953Y-71023588D01*
X93391696Y-70913440D01*
X93574220Y-70817021D01*
X93577834Y-70815353D01*
X93656349Y-70781518D01*
X93733322Y-70756543D01*
X93822955Y-70739093D01*
X93939446Y-70727832D01*
X94096997Y-70721426D01*
X94309808Y-70718539D01*
X94592080Y-70717835D01*
X94615000Y-70717833D01*
X94907165Y-70718607D01*
X95132079Y-70721998D01*
X95307151Y-70729613D01*
X95449793Y-70743060D01*
X95577412Y-70763944D01*
X95707419Y-70793872D01*
X95846666Y-70831493D01*
X95994620Y-70877891D01*
X96204390Y-70950483D01*
X96459581Y-71043038D01*
X96743799Y-71149325D01*
X97040648Y-71263113D01*
X97333732Y-71378173D01*
X97606657Y-71488272D01*
X97843027Y-71587181D01*
X97899928Y-71611803D01*
X97925229Y-71583081D01*
X97947480Y-71472647D01*
X97966874Y-71279326D01*
X97975302Y-71155505D01*
X98041294Y-70464975D01*
X98152236Y-69797233D01*
X98305083Y-69158757D01*
X98496787Y-68556025D01*
X98724301Y-67995514D01*
X98984578Y-67483702D01*
X99274571Y-67027066D01*
X99591234Y-66632084D01*
X99931518Y-66305233D01*
X100292379Y-66052991D01*
X100403609Y-65993128D01*
X100534986Y-65929559D01*
X100641807Y-65888169D01*
X100748890Y-65864216D01*
X100881059Y-65852958D01*
X101063134Y-65849656D01*
X101155500Y-65849500D01*
X101366749Y-65851219D01*
D12*
X100965000Y-120904000D03*
D13*
X100965000Y-123444000D03*
X98425000Y-120904000D03*
X98425000Y-123444000D03*
D10*
G36*
X75332298Y-98960891D02*
X77424307Y-98777864D01*
X77633480Y-101168731D01*
X75541471Y-101351758D01*
X75332298Y-98960891D01*
X75332298Y-98960891D01*
G37*
G36*
X75680920Y-102945669D02*
X77772929Y-102762642D01*
X77982102Y-105153509D01*
X75890093Y-105336536D01*
X75680920Y-102945669D01*
X75680920Y-102945669D01*
G37*
G36*
X77933387Y-89699463D02*
X79906741Y-90417705D01*
X79085893Y-92672967D01*
X77112539Y-91954725D01*
X77933387Y-89699463D01*
X77933387Y-89699463D01*
G37*
G36*
X76565307Y-93458233D02*
X78538661Y-94176475D01*
X77717813Y-96431737D01*
X75744459Y-95713495D01*
X76565307Y-93458233D01*
X76565307Y-93458233D01*
G37*
G36*
X83910916Y-82161749D02*
X85471520Y-83566923D01*
X83865606Y-85350471D01*
X82305002Y-83945297D01*
X83910916Y-82161749D01*
X83910916Y-82161749D01*
G37*
G36*
X81234394Y-85134329D02*
X82794998Y-86539503D01*
X81189084Y-88323051D01*
X79628480Y-86917877D01*
X81234394Y-85134329D01*
X81234394Y-85134329D01*
G37*
G36*
X92220036Y-77553598D02*
X93107535Y-79456844D01*
X90932396Y-80471128D01*
X90044897Y-78567882D01*
X92220036Y-77553598D01*
X92220036Y-77553598D01*
G37*
G36*
X88594804Y-79244072D02*
X89482303Y-81147318D01*
X87307164Y-82161602D01*
X86419665Y-80258356D01*
X88594804Y-79244072D01*
X88594804Y-79244072D01*
G37*
D14*
X100755200Y-77876400D03*
X96755200Y-77876400D03*
D10*
G36*
X111554419Y-80047534D02*
X110700272Y-81965980D01*
X108507763Y-80989812D01*
X109361910Y-79071366D01*
X111554419Y-80047534D01*
X111554419Y-80047534D01*
G37*
G36*
X107900237Y-78420588D02*
X107046090Y-80339034D01*
X104853581Y-79362866D01*
X105707728Y-77444420D01*
X107900237Y-78420588D01*
X107900237Y-78420588D01*
G37*
G36*
X118634467Y-87171215D02*
X117025773Y-88521069D01*
X115483083Y-86682563D01*
X117091777Y-85332709D01*
X118634467Y-87171215D01*
X118634467Y-87171215D01*
G37*
G36*
X116063317Y-84107037D02*
X114454623Y-85456891D01*
X112911933Y-83618385D01*
X114520627Y-82268531D01*
X116063317Y-84107037D01*
X116063317Y-84107037D01*
G37*
G36*
X122527941Y-95662695D02*
X120554587Y-96380937D01*
X119733739Y-94125675D01*
X121707093Y-93407433D01*
X122527941Y-95662695D01*
X122527941Y-95662695D01*
G37*
G36*
X121159861Y-91903925D02*
X119186507Y-92622167D01*
X118365659Y-90366905D01*
X120339013Y-89648663D01*
X121159861Y-91903925D01*
X121159861Y-91903925D01*
G37*
G36*
X122331507Y-105285736D02*
X120239498Y-105102709D01*
X120448671Y-102711842D01*
X122540680Y-102894869D01*
X122331507Y-105285736D01*
X122331507Y-105285736D01*
G37*
G36*
X122680129Y-101300958D02*
X120588120Y-101117931D01*
X120797293Y-98727064D01*
X122889302Y-98910091D01*
X122680129Y-101300958D01*
X122680129Y-101300958D01*
G37*
M02*
