G04 #@! TF.FileFunction,Legend,Top*
%FSLAX46Y46*%
G04 Gerber Fmt 4.6, Leading zero omitted, Abs format (unit mm)*
G04 Created by KiCad (PCBNEW 4.0.7) date 06/18/18 14:12:05*
%MOMM*%
%LPD*%
G01*
G04 APERTURE LIST*
%ADD10C,0.100000*%
%ADD11C,0.010000*%
%ADD12C,0.150000*%
%ADD13C,2.100000*%
%ADD14O,2.100000X2.100000*%
G04 APERTURE END LIST*
D10*
D11*
G36*
X102063127Y-65571940D02*
X102409723Y-65799780D01*
X102719079Y-66102037D01*
X102990077Y-66476552D01*
X103221593Y-66921165D01*
X103412507Y-67433718D01*
X103561698Y-68012050D01*
X103668045Y-68654004D01*
X103669556Y-68666096D01*
X103688021Y-68874156D01*
X103701447Y-69148326D01*
X103709953Y-69471225D01*
X103713656Y-69825478D01*
X103712677Y-70193705D01*
X103707134Y-70558528D01*
X103697145Y-70902571D01*
X103682830Y-71208454D01*
X103664307Y-71458800D01*
X103649585Y-71586935D01*
X103532128Y-72212872D01*
X103361161Y-72833240D01*
X103142617Y-73434741D01*
X102882433Y-74004079D01*
X102586541Y-74527957D01*
X102260877Y-74993077D01*
X101989025Y-75307555D01*
X101745627Y-75561514D01*
X102147794Y-75610676D01*
X103556840Y-75825112D01*
X104944612Y-76120257D01*
X106308043Y-76494138D01*
X107644062Y-76944778D01*
X108949603Y-77470202D01*
X110221597Y-78068434D01*
X111456976Y-78737499D01*
X112652672Y-79475421D01*
X113805615Y-80280225D01*
X114912739Y-81149935D01*
X115970975Y-82082575D01*
X116977255Y-83076171D01*
X117928510Y-84128745D01*
X118821673Y-85238324D01*
X119653674Y-86402930D01*
X120180717Y-87221688D01*
X120885179Y-88439152D01*
X121513315Y-89682807D01*
X122066301Y-90956131D01*
X122545312Y-92262603D01*
X122951524Y-93605702D01*
X123286114Y-94988907D01*
X123550257Y-96415697D01*
X123725112Y-97707873D01*
X123749194Y-97979547D01*
X123768995Y-98321973D01*
X123784515Y-98721346D01*
X123795753Y-99163861D01*
X123802709Y-99635711D01*
X123805385Y-100123091D01*
X123803779Y-100612196D01*
X123797892Y-101089220D01*
X123787723Y-101540357D01*
X123773273Y-101951801D01*
X123754542Y-102309747D01*
X123731530Y-102600389D01*
X123725112Y-102660873D01*
X123522135Y-104127510D01*
X123250140Y-105546894D01*
X122908186Y-106922108D01*
X122495337Y-108256233D01*
X122010652Y-109552353D01*
X121453194Y-110813548D01*
X120925455Y-111852949D01*
X120598908Y-112459099D01*
X120603257Y-113306736D01*
X120599151Y-113782130D01*
X120582183Y-114206907D01*
X120553008Y-114566652D01*
X120541632Y-114662373D01*
X120383180Y-115556591D01*
X120143524Y-116434706D01*
X119824935Y-117294774D01*
X119429684Y-118134851D01*
X118960040Y-118952992D01*
X118418276Y-119747254D01*
X117806661Y-120515692D01*
X117127466Y-121256361D01*
X116382962Y-121967317D01*
X115575419Y-122646617D01*
X114707108Y-123292314D01*
X113780300Y-123902467D01*
X112797266Y-124475129D01*
X111760275Y-125008357D01*
X110671599Y-125500206D01*
X109533509Y-125948733D01*
X108348274Y-126351992D01*
X107118167Y-126708039D01*
X106211794Y-126932725D01*
X105033718Y-127178491D01*
X103827157Y-127377095D01*
X102576530Y-127530790D01*
X101343460Y-127636563D01*
X101119564Y-127648149D01*
X100825382Y-127657460D01*
X100475267Y-127664511D01*
X100083567Y-127669318D01*
X99664635Y-127671897D01*
X99232821Y-127672263D01*
X98802476Y-127670433D01*
X98387949Y-127666423D01*
X98003593Y-127660248D01*
X97663758Y-127651925D01*
X97382794Y-127641468D01*
X97215960Y-127631999D01*
X95714742Y-127491366D01*
X94245138Y-127284062D01*
X92810748Y-127011216D01*
X91415173Y-126673957D01*
X90062013Y-126273415D01*
X88754870Y-125810719D01*
X87497342Y-125286998D01*
X86293032Y-124703384D01*
X85145539Y-124061004D01*
X84458485Y-123629964D01*
X83526150Y-122979374D01*
X82659590Y-122293186D01*
X81860955Y-121573987D01*
X81132393Y-120824365D01*
X80476054Y-120046907D01*
X79894085Y-119244200D01*
X79388637Y-118418833D01*
X78961857Y-117573392D01*
X78615895Y-116710465D01*
X78549829Y-116515439D01*
X78350401Y-115829544D01*
X78200439Y-115146390D01*
X78103085Y-114483843D01*
X78061485Y-113859771D01*
X78060127Y-113732943D01*
X78060127Y-113294683D01*
X77749246Y-112772028D01*
X77078813Y-111564151D01*
X76474675Y-110308517D01*
X75939891Y-109013665D01*
X75477518Y-107688138D01*
X75090617Y-106340476D01*
X74782244Y-104979221D01*
X74613625Y-104015540D01*
X74553425Y-103616164D01*
X74503377Y-103263345D01*
X74462561Y-102943303D01*
X74430057Y-102642260D01*
X74404946Y-102346437D01*
X74386309Y-102042056D01*
X74373224Y-101715337D01*
X74364772Y-101352502D01*
X74360034Y-100939772D01*
X74358090Y-100463369D01*
X74357878Y-100184373D01*
X74358490Y-99813199D01*
X74968310Y-99813199D01*
X74984676Y-101185179D01*
X75077365Y-102545424D01*
X75121034Y-102957207D01*
X75323183Y-104351658D01*
X75605967Y-105730421D01*
X75967631Y-107088368D01*
X76406423Y-108420372D01*
X76920587Y-109721308D01*
X77508369Y-110986048D01*
X78168014Y-112209466D01*
X78448136Y-112680445D01*
X78737460Y-113153851D01*
X78737595Y-113823445D01*
X78744995Y-114225752D01*
X78769672Y-114585441D01*
X78815610Y-114933748D01*
X78886790Y-115301906D01*
X78971809Y-115660516D01*
X79228888Y-116509799D01*
X79567473Y-117343645D01*
X79985424Y-118159733D01*
X80480603Y-118955742D01*
X81050872Y-119729350D01*
X81694090Y-120478237D01*
X82408119Y-121200080D01*
X83190820Y-121892559D01*
X84040055Y-122553351D01*
X84953683Y-123180137D01*
X85929567Y-123770593D01*
X86942197Y-124310718D01*
X88055183Y-124827950D01*
X89229249Y-125297758D01*
X90453463Y-125717247D01*
X91716894Y-126083523D01*
X93008611Y-126393691D01*
X94317683Y-126644856D01*
X95633178Y-126834125D01*
X96940794Y-126958365D01*
X97182603Y-126975530D01*
X97407904Y-126991978D01*
X97596980Y-127006238D01*
X97730111Y-127016837D01*
X97766294Y-127019999D01*
X97909095Y-127027944D01*
X98124639Y-127032877D01*
X98401065Y-127035017D01*
X98726511Y-127034583D01*
X99089115Y-127031793D01*
X99477015Y-127026866D01*
X99878349Y-127020020D01*
X100281256Y-127011475D01*
X100673874Y-127001449D01*
X101044341Y-126990161D01*
X101380796Y-126977829D01*
X101671376Y-126964672D01*
X101904219Y-126950908D01*
X102020794Y-126941571D01*
X103270368Y-126803079D01*
X104460365Y-126626337D01*
X105608511Y-126407633D01*
X106732529Y-126143260D01*
X107850144Y-125829505D01*
X108810947Y-125520325D01*
X109969751Y-125093098D01*
X111085149Y-124614898D01*
X112152994Y-124088551D01*
X113169137Y-123516884D01*
X114129428Y-122902721D01*
X115029721Y-122248890D01*
X115865865Y-121558217D01*
X116633714Y-120833528D01*
X117329117Y-120077649D01*
X117944683Y-119297873D01*
X118483551Y-118492079D01*
X118939685Y-117670669D01*
X119313893Y-116831775D01*
X119606981Y-115973532D01*
X119819759Y-115094074D01*
X119859925Y-114874040D01*
X119926497Y-114456049D01*
X119977835Y-114072658D01*
X120013037Y-113733878D01*
X120031201Y-113449721D01*
X120031426Y-113230198D01*
X120018744Y-113111188D01*
X119988886Y-112935452D01*
X119960397Y-112733036D01*
X119947213Y-112620431D01*
X119919629Y-112356490D01*
X120302351Y-111646765D01*
X120948075Y-110362223D01*
X121512316Y-109054733D01*
X121994969Y-107724703D01*
X122395934Y-106372539D01*
X122715107Y-104998650D01*
X122952385Y-103603442D01*
X123107667Y-102187322D01*
X123180850Y-100750698D01*
X123187116Y-100184373D01*
X123145672Y-98742931D01*
X123021892Y-97319535D01*
X122816603Y-95916349D01*
X122530632Y-94535533D01*
X122164806Y-93179251D01*
X121719952Y-91849665D01*
X121196897Y-90548937D01*
X120596468Y-89279229D01*
X119919493Y-88042703D01*
X119166798Y-86841522D01*
X118339211Y-85677848D01*
X117437558Y-84553843D01*
X117029133Y-84085327D01*
X116061347Y-83064778D01*
X115037666Y-82105511D01*
X113961847Y-81209506D01*
X112837648Y-80378739D01*
X111668828Y-79615188D01*
X110459144Y-78920830D01*
X109212354Y-78297644D01*
X107932217Y-77747605D01*
X106622490Y-77272693D01*
X105286932Y-76874885D01*
X103929301Y-76556158D01*
X102553354Y-76318489D01*
X102172742Y-76267665D01*
X101343721Y-76175983D01*
X100559914Y-76113563D01*
X99829260Y-76080726D01*
X99159701Y-76077790D01*
X98559176Y-76105076D01*
X98422460Y-76116501D01*
X98255393Y-76130400D01*
X98021263Y-76147807D01*
X97737541Y-76167533D01*
X97421702Y-76188385D01*
X97091218Y-76209175D01*
X96846580Y-76223873D01*
X96355344Y-76255747D01*
X95925367Y-76291211D01*
X95533242Y-76333400D01*
X95155562Y-76385450D01*
X94768920Y-76450496D01*
X94349911Y-76531676D01*
X93998627Y-76605400D01*
X92615076Y-76945606D01*
X91262157Y-77364057D01*
X89942282Y-77859171D01*
X88657863Y-78429368D01*
X87411310Y-79073066D01*
X86205036Y-79788685D01*
X85041451Y-80574644D01*
X83922968Y-81429363D01*
X82851998Y-82351260D01*
X81830952Y-83338754D01*
X80862242Y-84390265D01*
X79948279Y-85504212D01*
X79488363Y-86117366D01*
X78740444Y-87215186D01*
X78049327Y-88370606D01*
X77418953Y-89575090D01*
X76853263Y-90820102D01*
X76356198Y-92097105D01*
X75931697Y-93397563D01*
X75652426Y-94427040D01*
X75370325Y-95736406D01*
X75161817Y-97077858D01*
X75027584Y-98440441D01*
X74968310Y-99813199D01*
X74358490Y-99813199D01*
X74358728Y-99669200D01*
X74361891Y-99224904D01*
X74368286Y-98837705D01*
X74378834Y-98493825D01*
X74394454Y-98179485D01*
X74416067Y-97880907D01*
X74444591Y-97584312D01*
X74480947Y-97275920D01*
X74526054Y-96941955D01*
X74580833Y-96568635D01*
X74613625Y-96353207D01*
X74870377Y-94955930D01*
X75206637Y-93583364D01*
X75620107Y-92238388D01*
X76108493Y-90923880D01*
X76669497Y-89642717D01*
X77300824Y-88397779D01*
X78000178Y-87191943D01*
X78765263Y-86028088D01*
X79593782Y-84909092D01*
X80483439Y-83837833D01*
X81431939Y-82817190D01*
X82436985Y-81850040D01*
X83496282Y-80939263D01*
X84607532Y-80087736D01*
X85768441Y-79298338D01*
X86976711Y-78573947D01*
X88230048Y-77917441D01*
X89526154Y-77331699D01*
X89913460Y-77173986D01*
X90489917Y-76954751D01*
X91101924Y-76739662D01*
X91727003Y-76535796D01*
X92342672Y-76350229D01*
X92926454Y-76190037D01*
X93418336Y-76070643D01*
X93854046Y-75973036D01*
X93660190Y-75874516D01*
X93446724Y-75738279D01*
X93222989Y-75548990D01*
X93011012Y-75329334D01*
X92832816Y-75102000D01*
X92715900Y-74901806D01*
X92636134Y-74723074D01*
X92572824Y-74563089D01*
X92524089Y-74408705D01*
X92488047Y-74246780D01*
X92462814Y-74064167D01*
X92446508Y-73847725D01*
X92437247Y-73584308D01*
X92433149Y-73260772D01*
X92432318Y-72921707D01*
X92432352Y-72912813D01*
X92856083Y-72912813D01*
X92856085Y-72921707D01*
X92858044Y-73287219D01*
X92865006Y-73583005D01*
X92879173Y-73823961D01*
X92902748Y-74024979D01*
X92937930Y-74200956D01*
X92986924Y-74366784D01*
X93051929Y-74537359D01*
X93117133Y-74687674D01*
X93267427Y-74933718D01*
X93486162Y-75170610D01*
X93757157Y-75386383D01*
X94064233Y-75569068D01*
X94391210Y-75706696D01*
X94561168Y-75755863D01*
X94709982Y-75783658D01*
X94895930Y-75802676D01*
X95126516Y-75812926D01*
X95409242Y-75814414D01*
X95751610Y-75807148D01*
X96161123Y-75791136D01*
X96645284Y-75766384D01*
X96792627Y-75758039D01*
X97323095Y-75726349D01*
X97779126Y-75696531D01*
X98170902Y-75667712D01*
X98508609Y-75639022D01*
X98802431Y-75609586D01*
X99062552Y-75578535D01*
X99299157Y-75544994D01*
X99322337Y-75541404D01*
X99540088Y-75511121D01*
X99702211Y-75499325D01*
X99835562Y-75505413D01*
X99959547Y-75527099D01*
X100116721Y-75550071D01*
X100315873Y-75562599D01*
X100514676Y-75562064D01*
X100520171Y-75561819D01*
X100728844Y-75544765D01*
X100892682Y-75509657D01*
X101051088Y-75446941D01*
X101106908Y-75419561D01*
X101396567Y-75231727D01*
X101682170Y-74968168D01*
X101958983Y-74637823D01*
X102222273Y-74249631D01*
X102467306Y-73812531D01*
X102689347Y-73335462D01*
X102883664Y-72827363D01*
X103045521Y-72297173D01*
X103170186Y-71753830D01*
X103226251Y-71417602D01*
X103250133Y-71191774D01*
X103268547Y-70901420D01*
X103281341Y-70566512D01*
X103288360Y-70207023D01*
X103289449Y-69842926D01*
X103284454Y-69494193D01*
X103273220Y-69180799D01*
X103255593Y-68922715D01*
X103246223Y-68835429D01*
X103144925Y-68207733D01*
X103005913Y-67648442D01*
X102829995Y-67159209D01*
X102617978Y-66741686D01*
X102370669Y-66397525D01*
X102088877Y-66128377D01*
X101846409Y-65971973D01*
X101737998Y-65918407D01*
X101641561Y-65883650D01*
X101533876Y-65863686D01*
X101391717Y-65854498D01*
X101191859Y-65852069D01*
X101152960Y-65852040D01*
X100943972Y-65853488D01*
X100794819Y-65860995D01*
X100680679Y-65879300D01*
X100576733Y-65913147D01*
X100458157Y-65967275D01*
X100401069Y-65995668D01*
X100034658Y-66224389D01*
X99687914Y-66529652D01*
X99363883Y-66904979D01*
X99065611Y-67343893D01*
X98796147Y-67839916D01*
X98558536Y-68386572D01*
X98355826Y-68977381D01*
X98191064Y-69605868D01*
X98067296Y-70265554D01*
X97987570Y-70949961D01*
X97972762Y-71158045D01*
X97954681Y-71391946D01*
X97933838Y-71542392D01*
X97910040Y-71610558D01*
X97897388Y-71614343D01*
X97674067Y-71519644D01*
X97409642Y-71412025D01*
X97120508Y-71297718D01*
X96823060Y-71182952D01*
X96533694Y-71073959D01*
X96268805Y-70976969D01*
X96044788Y-70898214D01*
X95878039Y-70843923D01*
X95844126Y-70834033D01*
X95696117Y-70794187D01*
X95566786Y-70764888D01*
X95438726Y-70744530D01*
X95294524Y-70731506D01*
X95116773Y-70724210D01*
X94888062Y-70721035D01*
X94612460Y-70720373D01*
X94324749Y-70720973D01*
X94107500Y-70723662D01*
X93946514Y-70729777D01*
X93827590Y-70740651D01*
X93736528Y-70757620D01*
X93659127Y-70782020D01*
X93581186Y-70815186D01*
X93575294Y-70817893D01*
X93392150Y-70914145D01*
X93241843Y-71023967D01*
X93121360Y-71156169D01*
X93027689Y-71319562D01*
X92957818Y-71522959D01*
X92908734Y-71775172D01*
X92877425Y-72085010D01*
X92860878Y-72461287D01*
X92856083Y-72912813D01*
X92432352Y-72912813D01*
X92433866Y-72517776D01*
X92439397Y-72187189D01*
X92450218Y-71918664D01*
X92467632Y-71700920D01*
X92492946Y-71522674D01*
X92527464Y-71372647D01*
X92572491Y-71239556D01*
X92629332Y-71112121D01*
X92645346Y-71080207D01*
X92808348Y-70840641D01*
X93033427Y-70623031D01*
X93298000Y-70448272D01*
X93363627Y-70415605D01*
X93617627Y-70297040D01*
X94612460Y-70297040D01*
X94932176Y-70297487D01*
X95181793Y-70299613D01*
X95375878Y-70304592D01*
X95528997Y-70313602D01*
X95655716Y-70327817D01*
X95770602Y-70348414D01*
X95888222Y-70376569D01*
X96010399Y-70409885D01*
X96211534Y-70471382D01*
X96458890Y-70554750D01*
X96720690Y-70648919D01*
X96958938Y-70740334D01*
X97190507Y-70831250D01*
X97355227Y-70888880D01*
X97464503Y-70912263D01*
X97529740Y-70900437D01*
X97562343Y-70852440D01*
X97573719Y-70767308D01*
X97575145Y-70688345D01*
X97585228Y-70520785D01*
X97612115Y-70292327D01*
X97652357Y-70024279D01*
X97702504Y-69737950D01*
X97759105Y-69454649D01*
X97813288Y-69217540D01*
X97964130Y-68692452D01*
X98155614Y-68166739D01*
X98378598Y-67660816D01*
X98623940Y-67195099D01*
X98882500Y-66790004D01*
X98928678Y-66726527D01*
X99189719Y-66408226D01*
X99477974Y-66113876D01*
X99775965Y-65859215D01*
X100066212Y-65659983D01*
X100185982Y-65594425D01*
X100517960Y-65428707D01*
X101787960Y-65428707D01*
X102063127Y-65571940D01*
X102063127Y-65571940D01*
G37*
X102063127Y-65571940D02*
X102409723Y-65799780D01*
X102719079Y-66102037D01*
X102990077Y-66476552D01*
X103221593Y-66921165D01*
X103412507Y-67433718D01*
X103561698Y-68012050D01*
X103668045Y-68654004D01*
X103669556Y-68666096D01*
X103688021Y-68874156D01*
X103701447Y-69148326D01*
X103709953Y-69471225D01*
X103713656Y-69825478D01*
X103712677Y-70193705D01*
X103707134Y-70558528D01*
X103697145Y-70902571D01*
X103682830Y-71208454D01*
X103664307Y-71458800D01*
X103649585Y-71586935D01*
X103532128Y-72212872D01*
X103361161Y-72833240D01*
X103142617Y-73434741D01*
X102882433Y-74004079D01*
X102586541Y-74527957D01*
X102260877Y-74993077D01*
X101989025Y-75307555D01*
X101745627Y-75561514D01*
X102147794Y-75610676D01*
X103556840Y-75825112D01*
X104944612Y-76120257D01*
X106308043Y-76494138D01*
X107644062Y-76944778D01*
X108949603Y-77470202D01*
X110221597Y-78068434D01*
X111456976Y-78737499D01*
X112652672Y-79475421D01*
X113805615Y-80280225D01*
X114912739Y-81149935D01*
X115970975Y-82082575D01*
X116977255Y-83076171D01*
X117928510Y-84128745D01*
X118821673Y-85238324D01*
X119653674Y-86402930D01*
X120180717Y-87221688D01*
X120885179Y-88439152D01*
X121513315Y-89682807D01*
X122066301Y-90956131D01*
X122545312Y-92262603D01*
X122951524Y-93605702D01*
X123286114Y-94988907D01*
X123550257Y-96415697D01*
X123725112Y-97707873D01*
X123749194Y-97979547D01*
X123768995Y-98321973D01*
X123784515Y-98721346D01*
X123795753Y-99163861D01*
X123802709Y-99635711D01*
X123805385Y-100123091D01*
X123803779Y-100612196D01*
X123797892Y-101089220D01*
X123787723Y-101540357D01*
X123773273Y-101951801D01*
X123754542Y-102309747D01*
X123731530Y-102600389D01*
X123725112Y-102660873D01*
X123522135Y-104127510D01*
X123250140Y-105546894D01*
X122908186Y-106922108D01*
X122495337Y-108256233D01*
X122010652Y-109552353D01*
X121453194Y-110813548D01*
X120925455Y-111852949D01*
X120598908Y-112459099D01*
X120603257Y-113306736D01*
X120599151Y-113782130D01*
X120582183Y-114206907D01*
X120553008Y-114566652D01*
X120541632Y-114662373D01*
X120383180Y-115556591D01*
X120143524Y-116434706D01*
X119824935Y-117294774D01*
X119429684Y-118134851D01*
X118960040Y-118952992D01*
X118418276Y-119747254D01*
X117806661Y-120515692D01*
X117127466Y-121256361D01*
X116382962Y-121967317D01*
X115575419Y-122646617D01*
X114707108Y-123292314D01*
X113780300Y-123902467D01*
X112797266Y-124475129D01*
X111760275Y-125008357D01*
X110671599Y-125500206D01*
X109533509Y-125948733D01*
X108348274Y-126351992D01*
X107118167Y-126708039D01*
X106211794Y-126932725D01*
X105033718Y-127178491D01*
X103827157Y-127377095D01*
X102576530Y-127530790D01*
X101343460Y-127636563D01*
X101119564Y-127648149D01*
X100825382Y-127657460D01*
X100475267Y-127664511D01*
X100083567Y-127669318D01*
X99664635Y-127671897D01*
X99232821Y-127672263D01*
X98802476Y-127670433D01*
X98387949Y-127666423D01*
X98003593Y-127660248D01*
X97663758Y-127651925D01*
X97382794Y-127641468D01*
X97215960Y-127631999D01*
X95714742Y-127491366D01*
X94245138Y-127284062D01*
X92810748Y-127011216D01*
X91415173Y-126673957D01*
X90062013Y-126273415D01*
X88754870Y-125810719D01*
X87497342Y-125286998D01*
X86293032Y-124703384D01*
X85145539Y-124061004D01*
X84458485Y-123629964D01*
X83526150Y-122979374D01*
X82659590Y-122293186D01*
X81860955Y-121573987D01*
X81132393Y-120824365D01*
X80476054Y-120046907D01*
X79894085Y-119244200D01*
X79388637Y-118418833D01*
X78961857Y-117573392D01*
X78615895Y-116710465D01*
X78549829Y-116515439D01*
X78350401Y-115829544D01*
X78200439Y-115146390D01*
X78103085Y-114483843D01*
X78061485Y-113859771D01*
X78060127Y-113732943D01*
X78060127Y-113294683D01*
X77749246Y-112772028D01*
X77078813Y-111564151D01*
X76474675Y-110308517D01*
X75939891Y-109013665D01*
X75477518Y-107688138D01*
X75090617Y-106340476D01*
X74782244Y-104979221D01*
X74613625Y-104015540D01*
X74553425Y-103616164D01*
X74503377Y-103263345D01*
X74462561Y-102943303D01*
X74430057Y-102642260D01*
X74404946Y-102346437D01*
X74386309Y-102042056D01*
X74373224Y-101715337D01*
X74364772Y-101352502D01*
X74360034Y-100939772D01*
X74358090Y-100463369D01*
X74357878Y-100184373D01*
X74358490Y-99813199D01*
X74968310Y-99813199D01*
X74984676Y-101185179D01*
X75077365Y-102545424D01*
X75121034Y-102957207D01*
X75323183Y-104351658D01*
X75605967Y-105730421D01*
X75967631Y-107088368D01*
X76406423Y-108420372D01*
X76920587Y-109721308D01*
X77508369Y-110986048D01*
X78168014Y-112209466D01*
X78448136Y-112680445D01*
X78737460Y-113153851D01*
X78737595Y-113823445D01*
X78744995Y-114225752D01*
X78769672Y-114585441D01*
X78815610Y-114933748D01*
X78886790Y-115301906D01*
X78971809Y-115660516D01*
X79228888Y-116509799D01*
X79567473Y-117343645D01*
X79985424Y-118159733D01*
X80480603Y-118955742D01*
X81050872Y-119729350D01*
X81694090Y-120478237D01*
X82408119Y-121200080D01*
X83190820Y-121892559D01*
X84040055Y-122553351D01*
X84953683Y-123180137D01*
X85929567Y-123770593D01*
X86942197Y-124310718D01*
X88055183Y-124827950D01*
X89229249Y-125297758D01*
X90453463Y-125717247D01*
X91716894Y-126083523D01*
X93008611Y-126393691D01*
X94317683Y-126644856D01*
X95633178Y-126834125D01*
X96940794Y-126958365D01*
X97182603Y-126975530D01*
X97407904Y-126991978D01*
X97596980Y-127006238D01*
X97730111Y-127016837D01*
X97766294Y-127019999D01*
X97909095Y-127027944D01*
X98124639Y-127032877D01*
X98401065Y-127035017D01*
X98726511Y-127034583D01*
X99089115Y-127031793D01*
X99477015Y-127026866D01*
X99878349Y-127020020D01*
X100281256Y-127011475D01*
X100673874Y-127001449D01*
X101044341Y-126990161D01*
X101380796Y-126977829D01*
X101671376Y-126964672D01*
X101904219Y-126950908D01*
X102020794Y-126941571D01*
X103270368Y-126803079D01*
X104460365Y-126626337D01*
X105608511Y-126407633D01*
X106732529Y-126143260D01*
X107850144Y-125829505D01*
X108810947Y-125520325D01*
X109969751Y-125093098D01*
X111085149Y-124614898D01*
X112152994Y-124088551D01*
X113169137Y-123516884D01*
X114129428Y-122902721D01*
X115029721Y-122248890D01*
X115865865Y-121558217D01*
X116633714Y-120833528D01*
X117329117Y-120077649D01*
X117944683Y-119297873D01*
X118483551Y-118492079D01*
X118939685Y-117670669D01*
X119313893Y-116831775D01*
X119606981Y-115973532D01*
X119819759Y-115094074D01*
X119859925Y-114874040D01*
X119926497Y-114456049D01*
X119977835Y-114072658D01*
X120013037Y-113733878D01*
X120031201Y-113449721D01*
X120031426Y-113230198D01*
X120018744Y-113111188D01*
X119988886Y-112935452D01*
X119960397Y-112733036D01*
X119947213Y-112620431D01*
X119919629Y-112356490D01*
X120302351Y-111646765D01*
X120948075Y-110362223D01*
X121512316Y-109054733D01*
X121994969Y-107724703D01*
X122395934Y-106372539D01*
X122715107Y-104998650D01*
X122952385Y-103603442D01*
X123107667Y-102187322D01*
X123180850Y-100750698D01*
X123187116Y-100184373D01*
X123145672Y-98742931D01*
X123021892Y-97319535D01*
X122816603Y-95916349D01*
X122530632Y-94535533D01*
X122164806Y-93179251D01*
X121719952Y-91849665D01*
X121196897Y-90548937D01*
X120596468Y-89279229D01*
X119919493Y-88042703D01*
X119166798Y-86841522D01*
X118339211Y-85677848D01*
X117437558Y-84553843D01*
X117029133Y-84085327D01*
X116061347Y-83064778D01*
X115037666Y-82105511D01*
X113961847Y-81209506D01*
X112837648Y-80378739D01*
X111668828Y-79615188D01*
X110459144Y-78920830D01*
X109212354Y-78297644D01*
X107932217Y-77747605D01*
X106622490Y-77272693D01*
X105286932Y-76874885D01*
X103929301Y-76556158D01*
X102553354Y-76318489D01*
X102172742Y-76267665D01*
X101343721Y-76175983D01*
X100559914Y-76113563D01*
X99829260Y-76080726D01*
X99159701Y-76077790D01*
X98559176Y-76105076D01*
X98422460Y-76116501D01*
X98255393Y-76130400D01*
X98021263Y-76147807D01*
X97737541Y-76167533D01*
X97421702Y-76188385D01*
X97091218Y-76209175D01*
X96846580Y-76223873D01*
X96355344Y-76255747D01*
X95925367Y-76291211D01*
X95533242Y-76333400D01*
X95155562Y-76385450D01*
X94768920Y-76450496D01*
X94349911Y-76531676D01*
X93998627Y-76605400D01*
X92615076Y-76945606D01*
X91262157Y-77364057D01*
X89942282Y-77859171D01*
X88657863Y-78429368D01*
X87411310Y-79073066D01*
X86205036Y-79788685D01*
X85041451Y-80574644D01*
X83922968Y-81429363D01*
X82851998Y-82351260D01*
X81830952Y-83338754D01*
X80862242Y-84390265D01*
X79948279Y-85504212D01*
X79488363Y-86117366D01*
X78740444Y-87215186D01*
X78049327Y-88370606D01*
X77418953Y-89575090D01*
X76853263Y-90820102D01*
X76356198Y-92097105D01*
X75931697Y-93397563D01*
X75652426Y-94427040D01*
X75370325Y-95736406D01*
X75161817Y-97077858D01*
X75027584Y-98440441D01*
X74968310Y-99813199D01*
X74358490Y-99813199D01*
X74358728Y-99669200D01*
X74361891Y-99224904D01*
X74368286Y-98837705D01*
X74378834Y-98493825D01*
X74394454Y-98179485D01*
X74416067Y-97880907D01*
X74444591Y-97584312D01*
X74480947Y-97275920D01*
X74526054Y-96941955D01*
X74580833Y-96568635D01*
X74613625Y-96353207D01*
X74870377Y-94955930D01*
X75206637Y-93583364D01*
X75620107Y-92238388D01*
X76108493Y-90923880D01*
X76669497Y-89642717D01*
X77300824Y-88397779D01*
X78000178Y-87191943D01*
X78765263Y-86028088D01*
X79593782Y-84909092D01*
X80483439Y-83837833D01*
X81431939Y-82817190D01*
X82436985Y-81850040D01*
X83496282Y-80939263D01*
X84607532Y-80087736D01*
X85768441Y-79298338D01*
X86976711Y-78573947D01*
X88230048Y-77917441D01*
X89526154Y-77331699D01*
X89913460Y-77173986D01*
X90489917Y-76954751D01*
X91101924Y-76739662D01*
X91727003Y-76535796D01*
X92342672Y-76350229D01*
X92926454Y-76190037D01*
X93418336Y-76070643D01*
X93854046Y-75973036D01*
X93660190Y-75874516D01*
X93446724Y-75738279D01*
X93222989Y-75548990D01*
X93011012Y-75329334D01*
X92832816Y-75102000D01*
X92715900Y-74901806D01*
X92636134Y-74723074D01*
X92572824Y-74563089D01*
X92524089Y-74408705D01*
X92488047Y-74246780D01*
X92462814Y-74064167D01*
X92446508Y-73847725D01*
X92437247Y-73584308D01*
X92433149Y-73260772D01*
X92432318Y-72921707D01*
X92432352Y-72912813D01*
X92856083Y-72912813D01*
X92856085Y-72921707D01*
X92858044Y-73287219D01*
X92865006Y-73583005D01*
X92879173Y-73823961D01*
X92902748Y-74024979D01*
X92937930Y-74200956D01*
X92986924Y-74366784D01*
X93051929Y-74537359D01*
X93117133Y-74687674D01*
X93267427Y-74933718D01*
X93486162Y-75170610D01*
X93757157Y-75386383D01*
X94064233Y-75569068D01*
X94391210Y-75706696D01*
X94561168Y-75755863D01*
X94709982Y-75783658D01*
X94895930Y-75802676D01*
X95126516Y-75812926D01*
X95409242Y-75814414D01*
X95751610Y-75807148D01*
X96161123Y-75791136D01*
X96645284Y-75766384D01*
X96792627Y-75758039D01*
X97323095Y-75726349D01*
X97779126Y-75696531D01*
X98170902Y-75667712D01*
X98508609Y-75639022D01*
X98802431Y-75609586D01*
X99062552Y-75578535D01*
X99299157Y-75544994D01*
X99322337Y-75541404D01*
X99540088Y-75511121D01*
X99702211Y-75499325D01*
X99835562Y-75505413D01*
X99959547Y-75527099D01*
X100116721Y-75550071D01*
X100315873Y-75562599D01*
X100514676Y-75562064D01*
X100520171Y-75561819D01*
X100728844Y-75544765D01*
X100892682Y-75509657D01*
X101051088Y-75446941D01*
X101106908Y-75419561D01*
X101396567Y-75231727D01*
X101682170Y-74968168D01*
X101958983Y-74637823D01*
X102222273Y-74249631D01*
X102467306Y-73812531D01*
X102689347Y-73335462D01*
X102883664Y-72827363D01*
X103045521Y-72297173D01*
X103170186Y-71753830D01*
X103226251Y-71417602D01*
X103250133Y-71191774D01*
X103268547Y-70901420D01*
X103281341Y-70566512D01*
X103288360Y-70207023D01*
X103289449Y-69842926D01*
X103284454Y-69494193D01*
X103273220Y-69180799D01*
X103255593Y-68922715D01*
X103246223Y-68835429D01*
X103144925Y-68207733D01*
X103005913Y-67648442D01*
X102829995Y-67159209D01*
X102617978Y-66741686D01*
X102370669Y-66397525D01*
X102088877Y-66128377D01*
X101846409Y-65971973D01*
X101737998Y-65918407D01*
X101641561Y-65883650D01*
X101533876Y-65863686D01*
X101391717Y-65854498D01*
X101191859Y-65852069D01*
X101152960Y-65852040D01*
X100943972Y-65853488D01*
X100794819Y-65860995D01*
X100680679Y-65879300D01*
X100576733Y-65913147D01*
X100458157Y-65967275D01*
X100401069Y-65995668D01*
X100034658Y-66224389D01*
X99687914Y-66529652D01*
X99363883Y-66904979D01*
X99065611Y-67343893D01*
X98796147Y-67839916D01*
X98558536Y-68386572D01*
X98355826Y-68977381D01*
X98191064Y-69605868D01*
X98067296Y-70265554D01*
X97987570Y-70949961D01*
X97972762Y-71158045D01*
X97954681Y-71391946D01*
X97933838Y-71542392D01*
X97910040Y-71610558D01*
X97897388Y-71614343D01*
X97674067Y-71519644D01*
X97409642Y-71412025D01*
X97120508Y-71297718D01*
X96823060Y-71182952D01*
X96533694Y-71073959D01*
X96268805Y-70976969D01*
X96044788Y-70898214D01*
X95878039Y-70843923D01*
X95844126Y-70834033D01*
X95696117Y-70794187D01*
X95566786Y-70764888D01*
X95438726Y-70744530D01*
X95294524Y-70731506D01*
X95116773Y-70724210D01*
X94888062Y-70721035D01*
X94612460Y-70720373D01*
X94324749Y-70720973D01*
X94107500Y-70723662D01*
X93946514Y-70729777D01*
X93827590Y-70740651D01*
X93736528Y-70757620D01*
X93659127Y-70782020D01*
X93581186Y-70815186D01*
X93575294Y-70817893D01*
X93392150Y-70914145D01*
X93241843Y-71023967D01*
X93121360Y-71156169D01*
X93027689Y-71319562D01*
X92957818Y-71522959D01*
X92908734Y-71775172D01*
X92877425Y-72085010D01*
X92860878Y-72461287D01*
X92856083Y-72912813D01*
X92432352Y-72912813D01*
X92433866Y-72517776D01*
X92439397Y-72187189D01*
X92450218Y-71918664D01*
X92467632Y-71700920D01*
X92492946Y-71522674D01*
X92527464Y-71372647D01*
X92572491Y-71239556D01*
X92629332Y-71112121D01*
X92645346Y-71080207D01*
X92808348Y-70840641D01*
X93033427Y-70623031D01*
X93298000Y-70448272D01*
X93363627Y-70415605D01*
X93617627Y-70297040D01*
X94612460Y-70297040D01*
X94932176Y-70297487D01*
X95181793Y-70299613D01*
X95375878Y-70304592D01*
X95528997Y-70313602D01*
X95655716Y-70327817D01*
X95770602Y-70348414D01*
X95888222Y-70376569D01*
X96010399Y-70409885D01*
X96211534Y-70471382D01*
X96458890Y-70554750D01*
X96720690Y-70648919D01*
X96958938Y-70740334D01*
X97190507Y-70831250D01*
X97355227Y-70888880D01*
X97464503Y-70912263D01*
X97529740Y-70900437D01*
X97562343Y-70852440D01*
X97573719Y-70767308D01*
X97575145Y-70688345D01*
X97585228Y-70520785D01*
X97612115Y-70292327D01*
X97652357Y-70024279D01*
X97702504Y-69737950D01*
X97759105Y-69454649D01*
X97813288Y-69217540D01*
X97964130Y-68692452D01*
X98155614Y-68166739D01*
X98378598Y-67660816D01*
X98623940Y-67195099D01*
X98882500Y-66790004D01*
X98928678Y-66726527D01*
X99189719Y-66408226D01*
X99477974Y-66113876D01*
X99775965Y-65859215D01*
X100066212Y-65659983D01*
X100185982Y-65594425D01*
X100517960Y-65428707D01*
X101787960Y-65428707D01*
X102063127Y-65571940D01*
G36*
X111091664Y-105173759D02*
X111445704Y-105216276D01*
X111986948Y-105338485D01*
X112506898Y-105514382D01*
X113013536Y-105748614D01*
X113514841Y-106045825D01*
X114018796Y-106410661D01*
X114533379Y-106847769D01*
X114977835Y-107272342D01*
X115534184Y-107867119D01*
X116042194Y-108488463D01*
X116495344Y-109126436D01*
X116887116Y-109771099D01*
X117210989Y-110412512D01*
X117460444Y-111040737D01*
X117471726Y-111074263D01*
X117598358Y-111482901D01*
X117687757Y-111846879D01*
X117744737Y-112195025D01*
X117774107Y-112556170D01*
X117780871Y-112926707D01*
X117754857Y-113572764D01*
X117679734Y-114167657D01*
X117551065Y-114732140D01*
X117364413Y-115286972D01*
X117188205Y-115699540D01*
X116880798Y-116295107D01*
X116500806Y-116914439D01*
X116054511Y-117550511D01*
X115548200Y-118196302D01*
X114988157Y-118844788D01*
X114380665Y-119488946D01*
X113732011Y-120121753D01*
X113048478Y-120736184D01*
X112336351Y-121325219D01*
X111758502Y-121767377D01*
X111516504Y-121946316D01*
X111249928Y-122143923D01*
X110986984Y-122339256D01*
X110755886Y-122511374D01*
X110699203Y-122553694D01*
X109951067Y-123067240D01*
X109146269Y-123531637D01*
X108282000Y-123948014D01*
X107355452Y-124317502D01*
X106363818Y-124641230D01*
X105304290Y-124920329D01*
X104285627Y-125135183D01*
X103953772Y-125196758D01*
X103670393Y-125246729D01*
X103413824Y-125288170D01*
X103162400Y-125324155D01*
X102894454Y-125357759D01*
X102588319Y-125392056D01*
X102222332Y-125430120D01*
X102168844Y-125435544D01*
X101875603Y-125467425D01*
X101572924Y-125504163D01*
X101285903Y-125542452D01*
X101039636Y-125578986D01*
X100898960Y-125602842D01*
X100677896Y-125634159D01*
X100386697Y-125661005D01*
X100039794Y-125683011D01*
X99651620Y-125699806D01*
X99236606Y-125711019D01*
X98809186Y-125716281D01*
X98383790Y-125715219D01*
X97974850Y-125707465D01*
X97596799Y-125692648D01*
X97533460Y-125689220D01*
X96151484Y-125576502D01*
X94784665Y-125396854D01*
X93445024Y-125152412D01*
X92144584Y-124845307D01*
X91133574Y-124553760D01*
X90749543Y-124430817D01*
X90421573Y-124318689D01*
X90125795Y-124207736D01*
X89838340Y-124088318D01*
X89535338Y-123950795D01*
X89192919Y-123785526D01*
X89024460Y-123701955D01*
X88105157Y-123220502D01*
X87297913Y-122757530D01*
X88939794Y-122757530D01*
X88941909Y-122772389D01*
X88954226Y-122788174D01*
X88985698Y-122808899D01*
X89045279Y-122838575D01*
X89141923Y-122881214D01*
X89284585Y-122940828D01*
X89482218Y-123021429D01*
X89743777Y-123127031D01*
X89947108Y-123208884D01*
X91227048Y-123679280D01*
X92551507Y-124078466D01*
X93918496Y-124405983D01*
X95326031Y-124661372D01*
X96772123Y-124844174D01*
X97194794Y-124883235D01*
X97408503Y-124896145D01*
X97692828Y-124905431D01*
X98034397Y-124911268D01*
X98419838Y-124913831D01*
X98835781Y-124913294D01*
X99268855Y-124909830D01*
X99705687Y-124903614D01*
X100132907Y-124894821D01*
X100537143Y-124883624D01*
X100905024Y-124870197D01*
X101223180Y-124854716D01*
X101478237Y-124837353D01*
X101597460Y-124825875D01*
X103076315Y-124619911D01*
X104510220Y-124342533D01*
X105900134Y-123993465D01*
X107247016Y-123572433D01*
X108551824Y-123079161D01*
X109815518Y-122513375D01*
X110032423Y-122406928D01*
X110135732Y-122355056D01*
X110205235Y-122310011D01*
X110239823Y-122258861D01*
X110238386Y-122188675D01*
X110199814Y-122086522D01*
X110122998Y-121939470D01*
X110006828Y-121734588D01*
X109969063Y-121668540D01*
X109500847Y-120933180D01*
X108961718Y-120238928D01*
X108356524Y-119589093D01*
X107690114Y-118986984D01*
X106967334Y-118435913D01*
X106193034Y-117939187D01*
X105372061Y-117500116D01*
X104509263Y-117122011D01*
X103609490Y-116808181D01*
X102677587Y-116561935D01*
X102403723Y-116503979D01*
X101862233Y-116405194D01*
X101349074Y-116333048D01*
X100836225Y-116284894D01*
X100295665Y-116258086D01*
X99713627Y-116249976D01*
X98688859Y-116283058D01*
X97708998Y-116383656D01*
X96765287Y-116553797D01*
X95848971Y-116795507D01*
X94951293Y-117110815D01*
X94063497Y-117501746D01*
X93850460Y-117607282D01*
X93033883Y-118062479D01*
X92267583Y-118574953D01*
X91556542Y-119140121D01*
X90905740Y-119753402D01*
X90320159Y-120410212D01*
X89804780Y-121105972D01*
X89481269Y-121626207D01*
X89376374Y-121815441D01*
X89268099Y-122022040D01*
X89164003Y-122230215D01*
X89071643Y-122424176D01*
X88998575Y-122588133D01*
X88952358Y-122706295D01*
X88939794Y-122757530D01*
X87297913Y-122757530D01*
X87207639Y-122705756D01*
X86340418Y-122163830D01*
X85512009Y-121600836D01*
X84730926Y-121022886D01*
X84005683Y-120436092D01*
X83344795Y-119846567D01*
X82756774Y-119260423D01*
X82597591Y-119088078D01*
X82258952Y-118701847D01*
X81972752Y-118346231D01*
X81724411Y-118000101D01*
X81499349Y-117642332D01*
X81282987Y-117251797D01*
X81150164Y-116990707D01*
X80808468Y-116238144D01*
X80539892Y-115508773D01*
X80345420Y-114805981D01*
X80226038Y-114133153D01*
X80187714Y-113682653D01*
X80185185Y-113091052D01*
X80225419Y-112446069D01*
X80305622Y-111765688D01*
X80423003Y-111067895D01*
X80574768Y-110370672D01*
X80758124Y-109692006D01*
X80855832Y-109380259D01*
X81129953Y-108650324D01*
X81449146Y-107991249D01*
X81813198Y-107403295D01*
X81953261Y-107226260D01*
X88014583Y-107226260D01*
X88014655Y-107538034D01*
X88034593Y-107833206D01*
X88074041Y-108077301D01*
X88205839Y-108477529D01*
X88399678Y-108839528D01*
X88647415Y-109153432D01*
X88940911Y-109409375D01*
X89272024Y-109597491D01*
X89356531Y-109631579D01*
X89516930Y-109665799D01*
X89754297Y-109678609D01*
X89913460Y-109676457D01*
X90112856Y-109667303D01*
X90256908Y-109650328D01*
X90374934Y-109618690D01*
X90496252Y-109565546D01*
X90583659Y-109520040D01*
X90882956Y-109314290D01*
X91076784Y-109115754D01*
X91945460Y-109115754D01*
X91976477Y-109729748D01*
X92069250Y-110289355D01*
X92223364Y-110793339D01*
X92438405Y-111240466D01*
X92713957Y-111629499D01*
X92834460Y-111761858D01*
X93050890Y-111961007D01*
X93257017Y-112093937D01*
X93477850Y-112171379D01*
X93738392Y-112204069D01*
X93871627Y-112207040D01*
X94157480Y-112190595D01*
X94392653Y-112134105D01*
X94602152Y-112026837D01*
X94810984Y-111858057D01*
X94908794Y-111761858D01*
X95172437Y-111446871D01*
X95387807Y-111088564D01*
X95560381Y-110675721D01*
X95695636Y-110197124D01*
X95714642Y-110111540D01*
X95751103Y-109945795D01*
X95774182Y-109856410D01*
X95787091Y-109836721D01*
X95793047Y-109880064D01*
X95794815Y-109945330D01*
X95803556Y-110075740D01*
X95824330Y-110257553D01*
X95853306Y-110459006D01*
X95866148Y-110536881D01*
X95983944Y-111062369D01*
X96147564Y-111546635D01*
X96352648Y-111983143D01*
X96594840Y-112365357D01*
X96869780Y-112686741D01*
X97173112Y-112940758D01*
X97500478Y-113120871D01*
X97618127Y-113164653D01*
X97707667Y-113179135D01*
X97855249Y-113187862D01*
X98034370Y-113189559D01*
X98104960Y-113188101D01*
X98300860Y-113178975D01*
X98443445Y-113160378D01*
X98564040Y-113124874D01*
X98693974Y-113065032D01*
X98751867Y-113034602D01*
X98985169Y-112879058D01*
X99224871Y-112665556D01*
X99449342Y-112416031D01*
X99636950Y-112152417D01*
X99660322Y-112113447D01*
X99733954Y-111977542D01*
X99816888Y-111809166D01*
X99900481Y-111627940D01*
X99976089Y-111453484D01*
X100035070Y-111305419D01*
X100068782Y-111203366D01*
X100073460Y-111175572D01*
X100087461Y-111107638D01*
X100117200Y-111018008D01*
X100140473Y-110964620D01*
X100163356Y-110951130D01*
X100195430Y-110987164D01*
X100246275Y-111082346D01*
X100307854Y-111209524D01*
X100545908Y-111622383D01*
X100832079Y-111966357D01*
X101168538Y-112243675D01*
X101494955Y-112428310D01*
X101609998Y-112478999D01*
X101712171Y-112512606D01*
X101823846Y-112532592D01*
X101967397Y-112542420D01*
X102165195Y-112545552D01*
X102253627Y-112545707D01*
X102473707Y-112544394D01*
X102631866Y-112537913D01*
X102750839Y-112522453D01*
X102853361Y-112494198D01*
X102962167Y-112449338D01*
X103036794Y-112414359D01*
X103412192Y-112188938D01*
X103739947Y-111895259D01*
X104017494Y-111536731D01*
X104242270Y-111116764D01*
X104411710Y-110638769D01*
X104433543Y-110557018D01*
X104476557Y-110347253D01*
X104507105Y-110118906D01*
X104518460Y-109925205D01*
X104518460Y-109625413D01*
X104686584Y-109882718D01*
X104919656Y-110184211D01*
X105191509Y-110443055D01*
X105480592Y-110638911D01*
X105497089Y-110647728D01*
X105608590Y-110702578D01*
X105707925Y-110737650D01*
X105819475Y-110757296D01*
X105967616Y-110765864D01*
X106169460Y-110767707D01*
X106376425Y-110765729D01*
X106523138Y-110756896D01*
X106633979Y-110736858D01*
X106733324Y-110701265D01*
X106841832Y-110647728D01*
X107168969Y-110428641D01*
X107459061Y-110138522D01*
X107707298Y-109784631D01*
X107908869Y-109374225D01*
X108058962Y-108914565D01*
X108095935Y-108755410D01*
X108144677Y-108416743D01*
X108162251Y-108034591D01*
X108150160Y-107635185D01*
X108109906Y-107244761D01*
X108042992Y-106889551D01*
X107975979Y-106661373D01*
X107925464Y-106549821D01*
X107870400Y-106504500D01*
X107826483Y-106501978D01*
X107751705Y-106527127D01*
X107614421Y-106589924D01*
X107424944Y-106684819D01*
X107193586Y-106806260D01*
X106930656Y-106948697D01*
X106646469Y-107106578D01*
X106351334Y-107274352D01*
X106055563Y-107446469D01*
X105895704Y-107541362D01*
X105372472Y-107862654D01*
X104825741Y-108213559D01*
X104273481Y-108581762D01*
X103733664Y-108954950D01*
X103224261Y-109320810D01*
X102763242Y-109667028D01*
X102552211Y-109832332D01*
X102352791Y-109986665D01*
X102193905Y-110096572D01*
X102053707Y-110174872D01*
X101910348Y-110234383D01*
X101810954Y-110267263D01*
X101185534Y-110428332D01*
X100543977Y-110527827D01*
X99877424Y-110565911D01*
X99177016Y-110542750D01*
X98433894Y-110458507D01*
X97776912Y-110342029D01*
X97471375Y-110278546D01*
X97232946Y-110223742D01*
X97045457Y-110171010D01*
X96892742Y-110113749D01*
X96758632Y-110045352D01*
X96626960Y-109959215D01*
X96481558Y-109848735D01*
X96390460Y-109775673D01*
X95727106Y-109256941D01*
X95077820Y-108788157D01*
X94418749Y-108353659D01*
X93726034Y-107937786D01*
X92975822Y-107524877D01*
X92905211Y-107487611D01*
X92680374Y-107368436D01*
X92518915Y-107287075D01*
X92407355Y-107245832D01*
X92332212Y-107247010D01*
X92280005Y-107292912D01*
X92237254Y-107385842D01*
X92190478Y-107528103D01*
X92162673Y-107614476D01*
X92050737Y-108020685D01*
X91980671Y-108439376D01*
X91948567Y-108897561D01*
X91945460Y-109115754D01*
X91076784Y-109115754D01*
X91149586Y-109041185D01*
X91373207Y-108715038D01*
X91543478Y-108350166D01*
X91625879Y-108077301D01*
X91655185Y-107905773D01*
X91677425Y-107684033D01*
X91689522Y-107446439D01*
X91690834Y-107352278D01*
X91691460Y-106900183D01*
X91151710Y-106690003D01*
X90497136Y-106451717D01*
X89810089Y-106231770D01*
X89135619Y-106044362D01*
X88983189Y-106006427D01*
X88782594Y-105958208D01*
X88612651Y-105918269D01*
X88489779Y-105890403D01*
X88430401Y-105878404D01*
X88428084Y-105878207D01*
X88390393Y-105915130D01*
X88333867Y-106013225D01*
X88266850Y-106153479D01*
X88197689Y-106316879D01*
X88134729Y-106484411D01*
X88086317Y-106637063D01*
X88074041Y-106684779D01*
X88034379Y-106930852D01*
X88014583Y-107226260D01*
X81953261Y-107226260D01*
X82221892Y-106886721D01*
X82675013Y-106441788D01*
X83172346Y-106068755D01*
X83713676Y-105767883D01*
X83923294Y-105675633D01*
X84538277Y-105467450D01*
X85202018Y-105328374D01*
X85914373Y-105258396D01*
X86675194Y-105257510D01*
X87484336Y-105325707D01*
X88341653Y-105462980D01*
X89246999Y-105669321D01*
X90200228Y-105944722D01*
X90433530Y-106020242D01*
X91458114Y-106396317D01*
X92486340Y-106847043D01*
X93503775Y-107364358D01*
X94495991Y-107940196D01*
X95448555Y-108566495D01*
X96347039Y-109235190D01*
X96697266Y-109520433D01*
X96850585Y-109642957D01*
X96978073Y-109724926D01*
X97112842Y-109782972D01*
X97288002Y-109833729D01*
X97353433Y-109850035D01*
X97834547Y-109954192D01*
X98365420Y-110045577D01*
X98911458Y-110118666D01*
X99253312Y-110153327D01*
X99903279Y-110174168D01*
X100571277Y-110128261D01*
X101228849Y-110018657D01*
X101724460Y-109888351D01*
X101842957Y-109833447D01*
X102015853Y-109727519D01*
X102234616Y-109576184D01*
X102490718Y-109385060D01*
X102503482Y-109375231D01*
X103509974Y-108629787D01*
X104541626Y-107925022D01*
X105583410Y-107270415D01*
X106620301Y-106675444D01*
X107321910Y-106310765D01*
X108159127Y-106310765D01*
X108159127Y-106556429D01*
X108188143Y-106930302D01*
X108269380Y-107331953D01*
X108394124Y-107730377D01*
X108553661Y-108094572D01*
X108629993Y-108231611D01*
X108763412Y-108420094D01*
X108932478Y-108610929D01*
X109117863Y-108786068D01*
X109300237Y-108927461D01*
X109460272Y-109017059D01*
X109478591Y-109024019D01*
X109697418Y-109073415D01*
X109955191Y-109089759D01*
X110212864Y-109072945D01*
X110420674Y-109026611D01*
X110592992Y-108939674D01*
X110786595Y-108796584D01*
X110981887Y-108615331D01*
X111159274Y-108413905D01*
X111286594Y-108231611D01*
X111488951Y-107829870D01*
X111633309Y-107389497D01*
X111721839Y-106901390D01*
X111756712Y-106356445D01*
X111757460Y-106256972D01*
X111757052Y-106023841D01*
X111748005Y-105854797D01*
X111718585Y-105739070D01*
X111657060Y-105665893D01*
X111551695Y-105624496D01*
X111390757Y-105604113D01*
X111162513Y-105593973D01*
X111030424Y-105589743D01*
X110660610Y-105589315D01*
X110309953Y-105615935D01*
X109960971Y-105673373D01*
X109596180Y-105765403D01*
X109198095Y-105895794D01*
X108749233Y-106068319D01*
X108679161Y-106096947D01*
X108159127Y-106310765D01*
X107321910Y-106310765D01*
X107545294Y-106194656D01*
X108187427Y-105891469D01*
X108773412Y-105643485D01*
X109309834Y-105449050D01*
X109803283Y-105306513D01*
X110260345Y-105214220D01*
X110687610Y-105170520D01*
X111091664Y-105173759D01*
X111091664Y-105173759D01*
G37*
X111091664Y-105173759D02*
X111445704Y-105216276D01*
X111986948Y-105338485D01*
X112506898Y-105514382D01*
X113013536Y-105748614D01*
X113514841Y-106045825D01*
X114018796Y-106410661D01*
X114533379Y-106847769D01*
X114977835Y-107272342D01*
X115534184Y-107867119D01*
X116042194Y-108488463D01*
X116495344Y-109126436D01*
X116887116Y-109771099D01*
X117210989Y-110412512D01*
X117460444Y-111040737D01*
X117471726Y-111074263D01*
X117598358Y-111482901D01*
X117687757Y-111846879D01*
X117744737Y-112195025D01*
X117774107Y-112556170D01*
X117780871Y-112926707D01*
X117754857Y-113572764D01*
X117679734Y-114167657D01*
X117551065Y-114732140D01*
X117364413Y-115286972D01*
X117188205Y-115699540D01*
X116880798Y-116295107D01*
X116500806Y-116914439D01*
X116054511Y-117550511D01*
X115548200Y-118196302D01*
X114988157Y-118844788D01*
X114380665Y-119488946D01*
X113732011Y-120121753D01*
X113048478Y-120736184D01*
X112336351Y-121325219D01*
X111758502Y-121767377D01*
X111516504Y-121946316D01*
X111249928Y-122143923D01*
X110986984Y-122339256D01*
X110755886Y-122511374D01*
X110699203Y-122553694D01*
X109951067Y-123067240D01*
X109146269Y-123531637D01*
X108282000Y-123948014D01*
X107355452Y-124317502D01*
X106363818Y-124641230D01*
X105304290Y-124920329D01*
X104285627Y-125135183D01*
X103953772Y-125196758D01*
X103670393Y-125246729D01*
X103413824Y-125288170D01*
X103162400Y-125324155D01*
X102894454Y-125357759D01*
X102588319Y-125392056D01*
X102222332Y-125430120D01*
X102168844Y-125435544D01*
X101875603Y-125467425D01*
X101572924Y-125504163D01*
X101285903Y-125542452D01*
X101039636Y-125578986D01*
X100898960Y-125602842D01*
X100677896Y-125634159D01*
X100386697Y-125661005D01*
X100039794Y-125683011D01*
X99651620Y-125699806D01*
X99236606Y-125711019D01*
X98809186Y-125716281D01*
X98383790Y-125715219D01*
X97974850Y-125707465D01*
X97596799Y-125692648D01*
X97533460Y-125689220D01*
X96151484Y-125576502D01*
X94784665Y-125396854D01*
X93445024Y-125152412D01*
X92144584Y-124845307D01*
X91133574Y-124553760D01*
X90749543Y-124430817D01*
X90421573Y-124318689D01*
X90125795Y-124207736D01*
X89838340Y-124088318D01*
X89535338Y-123950795D01*
X89192919Y-123785526D01*
X89024460Y-123701955D01*
X88105157Y-123220502D01*
X87297913Y-122757530D01*
X88939794Y-122757530D01*
X88941909Y-122772389D01*
X88954226Y-122788174D01*
X88985698Y-122808899D01*
X89045279Y-122838575D01*
X89141923Y-122881214D01*
X89284585Y-122940828D01*
X89482218Y-123021429D01*
X89743777Y-123127031D01*
X89947108Y-123208884D01*
X91227048Y-123679280D01*
X92551507Y-124078466D01*
X93918496Y-124405983D01*
X95326031Y-124661372D01*
X96772123Y-124844174D01*
X97194794Y-124883235D01*
X97408503Y-124896145D01*
X97692828Y-124905431D01*
X98034397Y-124911268D01*
X98419838Y-124913831D01*
X98835781Y-124913294D01*
X99268855Y-124909830D01*
X99705687Y-124903614D01*
X100132907Y-124894821D01*
X100537143Y-124883624D01*
X100905024Y-124870197D01*
X101223180Y-124854716D01*
X101478237Y-124837353D01*
X101597460Y-124825875D01*
X103076315Y-124619911D01*
X104510220Y-124342533D01*
X105900134Y-123993465D01*
X107247016Y-123572433D01*
X108551824Y-123079161D01*
X109815518Y-122513375D01*
X110032423Y-122406928D01*
X110135732Y-122355056D01*
X110205235Y-122310011D01*
X110239823Y-122258861D01*
X110238386Y-122188675D01*
X110199814Y-122086522D01*
X110122998Y-121939470D01*
X110006828Y-121734588D01*
X109969063Y-121668540D01*
X109500847Y-120933180D01*
X108961718Y-120238928D01*
X108356524Y-119589093D01*
X107690114Y-118986984D01*
X106967334Y-118435913D01*
X106193034Y-117939187D01*
X105372061Y-117500116D01*
X104509263Y-117122011D01*
X103609490Y-116808181D01*
X102677587Y-116561935D01*
X102403723Y-116503979D01*
X101862233Y-116405194D01*
X101349074Y-116333048D01*
X100836225Y-116284894D01*
X100295665Y-116258086D01*
X99713627Y-116249976D01*
X98688859Y-116283058D01*
X97708998Y-116383656D01*
X96765287Y-116553797D01*
X95848971Y-116795507D01*
X94951293Y-117110815D01*
X94063497Y-117501746D01*
X93850460Y-117607282D01*
X93033883Y-118062479D01*
X92267583Y-118574953D01*
X91556542Y-119140121D01*
X90905740Y-119753402D01*
X90320159Y-120410212D01*
X89804780Y-121105972D01*
X89481269Y-121626207D01*
X89376374Y-121815441D01*
X89268099Y-122022040D01*
X89164003Y-122230215D01*
X89071643Y-122424176D01*
X88998575Y-122588133D01*
X88952358Y-122706295D01*
X88939794Y-122757530D01*
X87297913Y-122757530D01*
X87207639Y-122705756D01*
X86340418Y-122163830D01*
X85512009Y-121600836D01*
X84730926Y-121022886D01*
X84005683Y-120436092D01*
X83344795Y-119846567D01*
X82756774Y-119260423D01*
X82597591Y-119088078D01*
X82258952Y-118701847D01*
X81972752Y-118346231D01*
X81724411Y-118000101D01*
X81499349Y-117642332D01*
X81282987Y-117251797D01*
X81150164Y-116990707D01*
X80808468Y-116238144D01*
X80539892Y-115508773D01*
X80345420Y-114805981D01*
X80226038Y-114133153D01*
X80187714Y-113682653D01*
X80185185Y-113091052D01*
X80225419Y-112446069D01*
X80305622Y-111765688D01*
X80423003Y-111067895D01*
X80574768Y-110370672D01*
X80758124Y-109692006D01*
X80855832Y-109380259D01*
X81129953Y-108650324D01*
X81449146Y-107991249D01*
X81813198Y-107403295D01*
X81953261Y-107226260D01*
X88014583Y-107226260D01*
X88014655Y-107538034D01*
X88034593Y-107833206D01*
X88074041Y-108077301D01*
X88205839Y-108477529D01*
X88399678Y-108839528D01*
X88647415Y-109153432D01*
X88940911Y-109409375D01*
X89272024Y-109597491D01*
X89356531Y-109631579D01*
X89516930Y-109665799D01*
X89754297Y-109678609D01*
X89913460Y-109676457D01*
X90112856Y-109667303D01*
X90256908Y-109650328D01*
X90374934Y-109618690D01*
X90496252Y-109565546D01*
X90583659Y-109520040D01*
X90882956Y-109314290D01*
X91076784Y-109115754D01*
X91945460Y-109115754D01*
X91976477Y-109729748D01*
X92069250Y-110289355D01*
X92223364Y-110793339D01*
X92438405Y-111240466D01*
X92713957Y-111629499D01*
X92834460Y-111761858D01*
X93050890Y-111961007D01*
X93257017Y-112093937D01*
X93477850Y-112171379D01*
X93738392Y-112204069D01*
X93871627Y-112207040D01*
X94157480Y-112190595D01*
X94392653Y-112134105D01*
X94602152Y-112026837D01*
X94810984Y-111858057D01*
X94908794Y-111761858D01*
X95172437Y-111446871D01*
X95387807Y-111088564D01*
X95560381Y-110675721D01*
X95695636Y-110197124D01*
X95714642Y-110111540D01*
X95751103Y-109945795D01*
X95774182Y-109856410D01*
X95787091Y-109836721D01*
X95793047Y-109880064D01*
X95794815Y-109945330D01*
X95803556Y-110075740D01*
X95824330Y-110257553D01*
X95853306Y-110459006D01*
X95866148Y-110536881D01*
X95983944Y-111062369D01*
X96147564Y-111546635D01*
X96352648Y-111983143D01*
X96594840Y-112365357D01*
X96869780Y-112686741D01*
X97173112Y-112940758D01*
X97500478Y-113120871D01*
X97618127Y-113164653D01*
X97707667Y-113179135D01*
X97855249Y-113187862D01*
X98034370Y-113189559D01*
X98104960Y-113188101D01*
X98300860Y-113178975D01*
X98443445Y-113160378D01*
X98564040Y-113124874D01*
X98693974Y-113065032D01*
X98751867Y-113034602D01*
X98985169Y-112879058D01*
X99224871Y-112665556D01*
X99449342Y-112416031D01*
X99636950Y-112152417D01*
X99660322Y-112113447D01*
X99733954Y-111977542D01*
X99816888Y-111809166D01*
X99900481Y-111627940D01*
X99976089Y-111453484D01*
X100035070Y-111305419D01*
X100068782Y-111203366D01*
X100073460Y-111175572D01*
X100087461Y-111107638D01*
X100117200Y-111018008D01*
X100140473Y-110964620D01*
X100163356Y-110951130D01*
X100195430Y-110987164D01*
X100246275Y-111082346D01*
X100307854Y-111209524D01*
X100545908Y-111622383D01*
X100832079Y-111966357D01*
X101168538Y-112243675D01*
X101494955Y-112428310D01*
X101609998Y-112478999D01*
X101712171Y-112512606D01*
X101823846Y-112532592D01*
X101967397Y-112542420D01*
X102165195Y-112545552D01*
X102253627Y-112545707D01*
X102473707Y-112544394D01*
X102631866Y-112537913D01*
X102750839Y-112522453D01*
X102853361Y-112494198D01*
X102962167Y-112449338D01*
X103036794Y-112414359D01*
X103412192Y-112188938D01*
X103739947Y-111895259D01*
X104017494Y-111536731D01*
X104242270Y-111116764D01*
X104411710Y-110638769D01*
X104433543Y-110557018D01*
X104476557Y-110347253D01*
X104507105Y-110118906D01*
X104518460Y-109925205D01*
X104518460Y-109625413D01*
X104686584Y-109882718D01*
X104919656Y-110184211D01*
X105191509Y-110443055D01*
X105480592Y-110638911D01*
X105497089Y-110647728D01*
X105608590Y-110702578D01*
X105707925Y-110737650D01*
X105819475Y-110757296D01*
X105967616Y-110765864D01*
X106169460Y-110767707D01*
X106376425Y-110765729D01*
X106523138Y-110756896D01*
X106633979Y-110736858D01*
X106733324Y-110701265D01*
X106841832Y-110647728D01*
X107168969Y-110428641D01*
X107459061Y-110138522D01*
X107707298Y-109784631D01*
X107908869Y-109374225D01*
X108058962Y-108914565D01*
X108095935Y-108755410D01*
X108144677Y-108416743D01*
X108162251Y-108034591D01*
X108150160Y-107635185D01*
X108109906Y-107244761D01*
X108042992Y-106889551D01*
X107975979Y-106661373D01*
X107925464Y-106549821D01*
X107870400Y-106504500D01*
X107826483Y-106501978D01*
X107751705Y-106527127D01*
X107614421Y-106589924D01*
X107424944Y-106684819D01*
X107193586Y-106806260D01*
X106930656Y-106948697D01*
X106646469Y-107106578D01*
X106351334Y-107274352D01*
X106055563Y-107446469D01*
X105895704Y-107541362D01*
X105372472Y-107862654D01*
X104825741Y-108213559D01*
X104273481Y-108581762D01*
X103733664Y-108954950D01*
X103224261Y-109320810D01*
X102763242Y-109667028D01*
X102552211Y-109832332D01*
X102352791Y-109986665D01*
X102193905Y-110096572D01*
X102053707Y-110174872D01*
X101910348Y-110234383D01*
X101810954Y-110267263D01*
X101185534Y-110428332D01*
X100543977Y-110527827D01*
X99877424Y-110565911D01*
X99177016Y-110542750D01*
X98433894Y-110458507D01*
X97776912Y-110342029D01*
X97471375Y-110278546D01*
X97232946Y-110223742D01*
X97045457Y-110171010D01*
X96892742Y-110113749D01*
X96758632Y-110045352D01*
X96626960Y-109959215D01*
X96481558Y-109848735D01*
X96390460Y-109775673D01*
X95727106Y-109256941D01*
X95077820Y-108788157D01*
X94418749Y-108353659D01*
X93726034Y-107937786D01*
X92975822Y-107524877D01*
X92905211Y-107487611D01*
X92680374Y-107368436D01*
X92518915Y-107287075D01*
X92407355Y-107245832D01*
X92332212Y-107247010D01*
X92280005Y-107292912D01*
X92237254Y-107385842D01*
X92190478Y-107528103D01*
X92162673Y-107614476D01*
X92050737Y-108020685D01*
X91980671Y-108439376D01*
X91948567Y-108897561D01*
X91945460Y-109115754D01*
X91076784Y-109115754D01*
X91149586Y-109041185D01*
X91373207Y-108715038D01*
X91543478Y-108350166D01*
X91625879Y-108077301D01*
X91655185Y-107905773D01*
X91677425Y-107684033D01*
X91689522Y-107446439D01*
X91690834Y-107352278D01*
X91691460Y-106900183D01*
X91151710Y-106690003D01*
X90497136Y-106451717D01*
X89810089Y-106231770D01*
X89135619Y-106044362D01*
X88983189Y-106006427D01*
X88782594Y-105958208D01*
X88612651Y-105918269D01*
X88489779Y-105890403D01*
X88430401Y-105878404D01*
X88428084Y-105878207D01*
X88390393Y-105915130D01*
X88333867Y-106013225D01*
X88266850Y-106153479D01*
X88197689Y-106316879D01*
X88134729Y-106484411D01*
X88086317Y-106637063D01*
X88074041Y-106684779D01*
X88034379Y-106930852D01*
X88014583Y-107226260D01*
X81953261Y-107226260D01*
X82221892Y-106886721D01*
X82675013Y-106441788D01*
X83172346Y-106068755D01*
X83713676Y-105767883D01*
X83923294Y-105675633D01*
X84538277Y-105467450D01*
X85202018Y-105328374D01*
X85914373Y-105258396D01*
X86675194Y-105257510D01*
X87484336Y-105325707D01*
X88341653Y-105462980D01*
X89246999Y-105669321D01*
X90200228Y-105944722D01*
X90433530Y-106020242D01*
X91458114Y-106396317D01*
X92486340Y-106847043D01*
X93503775Y-107364358D01*
X94495991Y-107940196D01*
X95448555Y-108566495D01*
X96347039Y-109235190D01*
X96697266Y-109520433D01*
X96850585Y-109642957D01*
X96978073Y-109724926D01*
X97112842Y-109782972D01*
X97288002Y-109833729D01*
X97353433Y-109850035D01*
X97834547Y-109954192D01*
X98365420Y-110045577D01*
X98911458Y-110118666D01*
X99253312Y-110153327D01*
X99903279Y-110174168D01*
X100571277Y-110128261D01*
X101228849Y-110018657D01*
X101724460Y-109888351D01*
X101842957Y-109833447D01*
X102015853Y-109727519D01*
X102234616Y-109576184D01*
X102490718Y-109385060D01*
X102503482Y-109375231D01*
X103509974Y-108629787D01*
X104541626Y-107925022D01*
X105583410Y-107270415D01*
X106620301Y-106675444D01*
X107321910Y-106310765D01*
X108159127Y-106310765D01*
X108159127Y-106556429D01*
X108188143Y-106930302D01*
X108269380Y-107331953D01*
X108394124Y-107730377D01*
X108553661Y-108094572D01*
X108629993Y-108231611D01*
X108763412Y-108420094D01*
X108932478Y-108610929D01*
X109117863Y-108786068D01*
X109300237Y-108927461D01*
X109460272Y-109017059D01*
X109478591Y-109024019D01*
X109697418Y-109073415D01*
X109955191Y-109089759D01*
X110212864Y-109072945D01*
X110420674Y-109026611D01*
X110592992Y-108939674D01*
X110786595Y-108796584D01*
X110981887Y-108615331D01*
X111159274Y-108413905D01*
X111286594Y-108231611D01*
X111488951Y-107829870D01*
X111633309Y-107389497D01*
X111721839Y-106901390D01*
X111756712Y-106356445D01*
X111757460Y-106256972D01*
X111757052Y-106023841D01*
X111748005Y-105854797D01*
X111718585Y-105739070D01*
X111657060Y-105665893D01*
X111551695Y-105624496D01*
X111390757Y-105604113D01*
X111162513Y-105593973D01*
X111030424Y-105589743D01*
X110660610Y-105589315D01*
X110309953Y-105615935D01*
X109960971Y-105673373D01*
X109596180Y-105765403D01*
X109198095Y-105895794D01*
X108749233Y-106068319D01*
X108679161Y-106096947D01*
X108159127Y-106310765D01*
X107321910Y-106310765D01*
X107545294Y-106194656D01*
X108187427Y-105891469D01*
X108773412Y-105643485D01*
X109309834Y-105449050D01*
X109803283Y-105306513D01*
X110260345Y-105214220D01*
X110687610Y-105170520D01*
X111091664Y-105173759D01*
G36*
X113213541Y-102628648D02*
X113361383Y-102654817D01*
X113574860Y-102704103D01*
X113577794Y-102704801D01*
X113890526Y-102786222D01*
X114229705Y-102886587D01*
X114580447Y-103000420D01*
X114927867Y-103122249D01*
X115257081Y-103246600D01*
X115553204Y-103367998D01*
X115801353Y-103480971D01*
X115986643Y-103580044D01*
X116026270Y-103605243D01*
X116120391Y-103667581D01*
X116266689Y-103763493D01*
X116446231Y-103880603D01*
X116640078Y-104006535D01*
X116668127Y-104024714D01*
X117075917Y-104323453D01*
X117499416Y-104700604D01*
X117934525Y-105152258D01*
X118302580Y-105582185D01*
X118677355Y-106089501D01*
X119016507Y-106643532D01*
X119313581Y-107228953D01*
X119562120Y-107830440D01*
X119755666Y-108432668D01*
X119887762Y-109020314D01*
X119945808Y-109482015D01*
X119970185Y-109804990D01*
X119747906Y-109971526D01*
X119595759Y-110084144D01*
X119498424Y-110151680D01*
X119443980Y-110181161D01*
X119420507Y-110179614D01*
X119416354Y-110166955D01*
X119399811Y-109990564D01*
X119388636Y-109834462D01*
X119379950Y-109655181D01*
X119376401Y-109563882D01*
X119366041Y-109388697D01*
X119350049Y-109229720D01*
X119331850Y-109120832D01*
X119331483Y-109119382D01*
X119234324Y-108749947D01*
X119148776Y-108448892D01*
X119069973Y-108201549D01*
X118993049Y-107993248D01*
X118913140Y-107809322D01*
X118863164Y-107707358D01*
X118813179Y-107597075D01*
X118786282Y-107513902D01*
X118784794Y-107500726D01*
X118760248Y-107435385D01*
X118692556Y-107315947D01*
X118590636Y-107155084D01*
X118463407Y-106965466D01*
X118319785Y-106759763D01*
X118168688Y-106550646D01*
X118019036Y-106350784D01*
X117879745Y-106172850D01*
X117759734Y-106029513D01*
X117713716Y-105978957D01*
X117452320Y-105707254D01*
X117205845Y-105459716D01*
X116983353Y-105244977D01*
X116793904Y-105071672D01*
X116646561Y-104948437D01*
X116587234Y-104905447D01*
X116404703Y-104783837D01*
X116281266Y-104698199D01*
X116204434Y-104639286D01*
X116161723Y-104597849D01*
X116149603Y-104581337D01*
X116088051Y-104522581D01*
X115966888Y-104435859D01*
X115802053Y-104330206D01*
X115609488Y-104214658D01*
X115405132Y-104098251D01*
X115204926Y-103990020D01*
X115024809Y-103899002D01*
X114880723Y-103834230D01*
X114788606Y-103804742D01*
X114778035Y-103803873D01*
X114720510Y-103786570D01*
X114611641Y-103741366D01*
X114484879Y-103682731D01*
X114349295Y-103624995D01*
X114153745Y-103551564D01*
X113919795Y-103469565D01*
X113669011Y-103386125D01*
X113422959Y-103308372D01*
X113203206Y-103243432D01*
X113031318Y-103198434D01*
X112995710Y-103190587D01*
X112901892Y-103155956D01*
X112862400Y-103093553D01*
X112875700Y-102990267D01*
X112940260Y-102832988D01*
X112951229Y-102810172D01*
X113000177Y-102716357D01*
X113049302Y-102656665D01*
X113114969Y-102628347D01*
X113213541Y-102628648D01*
X113213541Y-102628648D01*
G37*
X113213541Y-102628648D02*
X113361383Y-102654817D01*
X113574860Y-102704103D01*
X113577794Y-102704801D01*
X113890526Y-102786222D01*
X114229705Y-102886587D01*
X114580447Y-103000420D01*
X114927867Y-103122249D01*
X115257081Y-103246600D01*
X115553204Y-103367998D01*
X115801353Y-103480971D01*
X115986643Y-103580044D01*
X116026270Y-103605243D01*
X116120391Y-103667581D01*
X116266689Y-103763493D01*
X116446231Y-103880603D01*
X116640078Y-104006535D01*
X116668127Y-104024714D01*
X117075917Y-104323453D01*
X117499416Y-104700604D01*
X117934525Y-105152258D01*
X118302580Y-105582185D01*
X118677355Y-106089501D01*
X119016507Y-106643532D01*
X119313581Y-107228953D01*
X119562120Y-107830440D01*
X119755666Y-108432668D01*
X119887762Y-109020314D01*
X119945808Y-109482015D01*
X119970185Y-109804990D01*
X119747906Y-109971526D01*
X119595759Y-110084144D01*
X119498424Y-110151680D01*
X119443980Y-110181161D01*
X119420507Y-110179614D01*
X119416354Y-110166955D01*
X119399811Y-109990564D01*
X119388636Y-109834462D01*
X119379950Y-109655181D01*
X119376401Y-109563882D01*
X119366041Y-109388697D01*
X119350049Y-109229720D01*
X119331850Y-109120832D01*
X119331483Y-109119382D01*
X119234324Y-108749947D01*
X119148776Y-108448892D01*
X119069973Y-108201549D01*
X118993049Y-107993248D01*
X118913140Y-107809322D01*
X118863164Y-107707358D01*
X118813179Y-107597075D01*
X118786282Y-107513902D01*
X118784794Y-107500726D01*
X118760248Y-107435385D01*
X118692556Y-107315947D01*
X118590636Y-107155084D01*
X118463407Y-106965466D01*
X118319785Y-106759763D01*
X118168688Y-106550646D01*
X118019036Y-106350784D01*
X117879745Y-106172850D01*
X117759734Y-106029513D01*
X117713716Y-105978957D01*
X117452320Y-105707254D01*
X117205845Y-105459716D01*
X116983353Y-105244977D01*
X116793904Y-105071672D01*
X116646561Y-104948437D01*
X116587234Y-104905447D01*
X116404703Y-104783837D01*
X116281266Y-104698199D01*
X116204434Y-104639286D01*
X116161723Y-104597849D01*
X116149603Y-104581337D01*
X116088051Y-104522581D01*
X115966888Y-104435859D01*
X115802053Y-104330206D01*
X115609488Y-104214658D01*
X115405132Y-104098251D01*
X115204926Y-103990020D01*
X115024809Y-103899002D01*
X114880723Y-103834230D01*
X114788606Y-103804742D01*
X114778035Y-103803873D01*
X114720510Y-103786570D01*
X114611641Y-103741366D01*
X114484879Y-103682731D01*
X114349295Y-103624995D01*
X114153745Y-103551564D01*
X113919795Y-103469565D01*
X113669011Y-103386125D01*
X113422959Y-103308372D01*
X113203206Y-103243432D01*
X113031318Y-103198434D01*
X112995710Y-103190587D01*
X112901892Y-103155956D01*
X112862400Y-103093553D01*
X112875700Y-102990267D01*
X112940260Y-102832988D01*
X112951229Y-102810172D01*
X113000177Y-102716357D01*
X113049302Y-102656665D01*
X113114969Y-102628347D01*
X113213541Y-102628648D01*
G36*
X85886103Y-103240041D02*
X85982252Y-103366023D01*
X86068728Y-103495375D01*
X86076237Y-103507933D01*
X86154847Y-103641763D01*
X85912430Y-103611475D01*
X85640506Y-103589273D01*
X85315431Y-103581012D01*
X84967450Y-103586030D01*
X84626808Y-103603662D01*
X84323752Y-103633246D01*
X84217506Y-103648656D01*
X83528365Y-103800575D01*
X82878475Y-104025310D01*
X82263878Y-104324904D01*
X81680614Y-104701405D01*
X81124725Y-105156858D01*
X80916074Y-105354768D01*
X80724751Y-105550204D01*
X80536628Y-105754500D01*
X80368529Y-105948553D01*
X80237278Y-106113263D01*
X80191634Y-106177292D01*
X80073200Y-106352705D01*
X79951711Y-106530867D01*
X79849492Y-106679078D01*
X79830377Y-106706459D01*
X79706088Y-106893526D01*
X79591739Y-107088871D01*
X79479476Y-107308397D01*
X79361448Y-107568006D01*
X79229803Y-107883600D01*
X79148662Y-108087019D01*
X79016573Y-108427279D01*
X78909619Y-108716568D01*
X78818796Y-108981396D01*
X78735097Y-109248268D01*
X78649515Y-109543694D01*
X78629826Y-109614123D01*
X78583991Y-109756652D01*
X78532924Y-109832323D01*
X78457350Y-109848710D01*
X78337992Y-109813385D01*
X78234717Y-109769357D01*
X78049474Y-109687154D01*
X78077943Y-109507764D01*
X78104844Y-109390605D01*
X78156649Y-109209574D01*
X78228161Y-108979935D01*
X78314184Y-108716952D01*
X78409521Y-108435888D01*
X78508977Y-108152007D01*
X78607354Y-107880573D01*
X78699457Y-107636849D01*
X78780089Y-107436100D01*
X78795746Y-107399280D01*
X78931480Y-107110213D01*
X79101255Y-106788663D01*
X79293177Y-106454158D01*
X79495355Y-106126226D01*
X79695897Y-105824395D01*
X79882911Y-105568194D01*
X79991943Y-105434968D01*
X80488256Y-104915726D01*
X81017881Y-104455379D01*
X81569792Y-104062670D01*
X82102960Y-103761075D01*
X82569159Y-103546233D01*
X83008833Y-103380150D01*
X83442957Y-103258095D01*
X83892502Y-103175338D01*
X84378441Y-103127150D01*
X84921746Y-103108801D01*
X84997103Y-103108362D01*
X85774579Y-103105979D01*
X85886103Y-103240041D01*
X85886103Y-103240041D01*
G37*
X85886103Y-103240041D02*
X85982252Y-103366023D01*
X86068728Y-103495375D01*
X86076237Y-103507933D01*
X86154847Y-103641763D01*
X85912430Y-103611475D01*
X85640506Y-103589273D01*
X85315431Y-103581012D01*
X84967450Y-103586030D01*
X84626808Y-103603662D01*
X84323752Y-103633246D01*
X84217506Y-103648656D01*
X83528365Y-103800575D01*
X82878475Y-104025310D01*
X82263878Y-104324904D01*
X81680614Y-104701405D01*
X81124725Y-105156858D01*
X80916074Y-105354768D01*
X80724751Y-105550204D01*
X80536628Y-105754500D01*
X80368529Y-105948553D01*
X80237278Y-106113263D01*
X80191634Y-106177292D01*
X80073200Y-106352705D01*
X79951711Y-106530867D01*
X79849492Y-106679078D01*
X79830377Y-106706459D01*
X79706088Y-106893526D01*
X79591739Y-107088871D01*
X79479476Y-107308397D01*
X79361448Y-107568006D01*
X79229803Y-107883600D01*
X79148662Y-108087019D01*
X79016573Y-108427279D01*
X78909619Y-108716568D01*
X78818796Y-108981396D01*
X78735097Y-109248268D01*
X78649515Y-109543694D01*
X78629826Y-109614123D01*
X78583991Y-109756652D01*
X78532924Y-109832323D01*
X78457350Y-109848710D01*
X78337992Y-109813385D01*
X78234717Y-109769357D01*
X78049474Y-109687154D01*
X78077943Y-109507764D01*
X78104844Y-109390605D01*
X78156649Y-109209574D01*
X78228161Y-108979935D01*
X78314184Y-108716952D01*
X78409521Y-108435888D01*
X78508977Y-108152007D01*
X78607354Y-107880573D01*
X78699457Y-107636849D01*
X78780089Y-107436100D01*
X78795746Y-107399280D01*
X78931480Y-107110213D01*
X79101255Y-106788663D01*
X79293177Y-106454158D01*
X79495355Y-106126226D01*
X79695897Y-105824395D01*
X79882911Y-105568194D01*
X79991943Y-105434968D01*
X80488256Y-104915726D01*
X81017881Y-104455379D01*
X81569792Y-104062670D01*
X82102960Y-103761075D01*
X82569159Y-103546233D01*
X83008833Y-103380150D01*
X83442957Y-103258095D01*
X83892502Y-103175338D01*
X84378441Y-103127150D01*
X84921746Y-103108801D01*
X84997103Y-103108362D01*
X85774579Y-103105979D01*
X85886103Y-103240041D01*
G36*
X94987082Y-96448217D02*
X95438068Y-96537246D01*
X95851436Y-96692236D01*
X96240204Y-96918595D01*
X96617393Y-97221729D01*
X96771460Y-97369207D01*
X97107231Y-97744999D01*
X97364123Y-98127115D01*
X97547642Y-98528799D01*
X97663293Y-98963295D01*
X97716581Y-99443847D01*
X97721677Y-99655207D01*
X97694006Y-100155408D01*
X97604919Y-100606344D01*
X97449185Y-101020599D01*
X97221573Y-101410760D01*
X96916850Y-101789411D01*
X96771460Y-101941207D01*
X96438070Y-102243807D01*
X96106031Y-102477854D01*
X95753917Y-102656337D01*
X95374460Y-102788226D01*
X95083420Y-102850623D01*
X94750345Y-102888475D01*
X94406362Y-102900571D01*
X94082600Y-102885703D01*
X93833567Y-102848119D01*
X93387955Y-102722475D01*
X92995776Y-102552367D01*
X92636099Y-102326113D01*
X92287988Y-102032032D01*
X92178294Y-101924403D01*
X91844797Y-101544338D01*
X91590362Y-101154042D01*
X91410070Y-100741491D01*
X91299001Y-100294660D01*
X91252237Y-99801524D01*
X91249996Y-99655207D01*
X91277316Y-99173927D01*
X94365600Y-99173927D01*
X94382953Y-99471255D01*
X94469767Y-99720713D01*
X94627337Y-99924648D01*
X94856959Y-100085407D01*
X94873105Y-100093755D01*
X95047985Y-100146779D01*
X95265065Y-100161974D01*
X95491956Y-100141577D01*
X95696271Y-100087822D01*
X95812353Y-100028939D01*
X95944071Y-99918149D01*
X96065476Y-99784446D01*
X96087519Y-99754432D01*
X96143863Y-99663558D01*
X96177602Y-99574753D01*
X96194352Y-99461924D01*
X96199726Y-99298978D01*
X96199960Y-99231873D01*
X96197044Y-99047341D01*
X96184552Y-98921290D01*
X96156869Y-98827626D01*
X96108382Y-98740257D01*
X96087519Y-98709314D01*
X95976250Y-98577541D01*
X95842272Y-98456110D01*
X95812353Y-98434147D01*
X95721478Y-98377804D01*
X95632673Y-98344064D01*
X95519844Y-98327315D01*
X95356898Y-98321941D01*
X95289794Y-98321707D01*
X95105262Y-98324623D01*
X94979210Y-98337115D01*
X94885547Y-98364797D01*
X94798177Y-98413284D01*
X94767234Y-98434147D01*
X94570939Y-98602882D01*
X94444886Y-98797008D01*
X94379000Y-99035082D01*
X94365600Y-99173927D01*
X91277316Y-99173927D01*
X91278471Y-99153585D01*
X91367500Y-98702599D01*
X91522490Y-98289231D01*
X91748849Y-97900462D01*
X92051983Y-97523274D01*
X92199460Y-97369207D01*
X92575663Y-97033087D01*
X92958118Y-96775956D01*
X93359843Y-96592406D01*
X93793857Y-96477031D01*
X94273178Y-96424424D01*
X94485460Y-96419742D01*
X94987082Y-96448217D01*
X94987082Y-96448217D01*
G37*
X94987082Y-96448217D02*
X95438068Y-96537246D01*
X95851436Y-96692236D01*
X96240204Y-96918595D01*
X96617393Y-97221729D01*
X96771460Y-97369207D01*
X97107231Y-97744999D01*
X97364123Y-98127115D01*
X97547642Y-98528799D01*
X97663293Y-98963295D01*
X97716581Y-99443847D01*
X97721677Y-99655207D01*
X97694006Y-100155408D01*
X97604919Y-100606344D01*
X97449185Y-101020599D01*
X97221573Y-101410760D01*
X96916850Y-101789411D01*
X96771460Y-101941207D01*
X96438070Y-102243807D01*
X96106031Y-102477854D01*
X95753917Y-102656337D01*
X95374460Y-102788226D01*
X95083420Y-102850623D01*
X94750345Y-102888475D01*
X94406362Y-102900571D01*
X94082600Y-102885703D01*
X93833567Y-102848119D01*
X93387955Y-102722475D01*
X92995776Y-102552367D01*
X92636099Y-102326113D01*
X92287988Y-102032032D01*
X92178294Y-101924403D01*
X91844797Y-101544338D01*
X91590362Y-101154042D01*
X91410070Y-100741491D01*
X91299001Y-100294660D01*
X91252237Y-99801524D01*
X91249996Y-99655207D01*
X91277316Y-99173927D01*
X94365600Y-99173927D01*
X94382953Y-99471255D01*
X94469767Y-99720713D01*
X94627337Y-99924648D01*
X94856959Y-100085407D01*
X94873105Y-100093755D01*
X95047985Y-100146779D01*
X95265065Y-100161974D01*
X95491956Y-100141577D01*
X95696271Y-100087822D01*
X95812353Y-100028939D01*
X95944071Y-99918149D01*
X96065476Y-99784446D01*
X96087519Y-99754432D01*
X96143863Y-99663558D01*
X96177602Y-99574753D01*
X96194352Y-99461924D01*
X96199726Y-99298978D01*
X96199960Y-99231873D01*
X96197044Y-99047341D01*
X96184552Y-98921290D01*
X96156869Y-98827626D01*
X96108382Y-98740257D01*
X96087519Y-98709314D01*
X95976250Y-98577541D01*
X95842272Y-98456110D01*
X95812353Y-98434147D01*
X95721478Y-98377804D01*
X95632673Y-98344064D01*
X95519844Y-98327315D01*
X95356898Y-98321941D01*
X95289794Y-98321707D01*
X95105262Y-98324623D01*
X94979210Y-98337115D01*
X94885547Y-98364797D01*
X94798177Y-98413284D01*
X94767234Y-98434147D01*
X94570939Y-98602882D01*
X94444886Y-98797008D01*
X94379000Y-99035082D01*
X94365600Y-99173927D01*
X91277316Y-99173927D01*
X91278471Y-99153585D01*
X91367500Y-98702599D01*
X91522490Y-98289231D01*
X91748849Y-97900462D01*
X92051983Y-97523274D01*
X92199460Y-97369207D01*
X92575663Y-97033087D01*
X92958118Y-96775956D01*
X93359843Y-96592406D01*
X93793857Y-96477031D01*
X94273178Y-96424424D01*
X94485460Y-96419742D01*
X94987082Y-96448217D01*
G36*
X103665415Y-95940217D02*
X104116401Y-96029246D01*
X104529769Y-96184236D01*
X104918538Y-96410595D01*
X105295726Y-96713729D01*
X105449794Y-96861207D01*
X105785564Y-97236999D01*
X106042456Y-97619115D01*
X106225975Y-98020799D01*
X106341626Y-98455295D01*
X106394915Y-98935847D01*
X106400010Y-99147207D01*
X106372339Y-99647408D01*
X106283253Y-100098344D01*
X106127519Y-100512599D01*
X105899906Y-100902760D01*
X105595184Y-101281411D01*
X105449794Y-101433207D01*
X105116403Y-101735807D01*
X104784364Y-101969854D01*
X104432250Y-102148337D01*
X104052794Y-102280226D01*
X103761753Y-102342623D01*
X103428678Y-102380475D01*
X103084696Y-102392571D01*
X102760934Y-102377703D01*
X102511901Y-102340119D01*
X102066288Y-102214475D01*
X101674110Y-102044367D01*
X101314432Y-101818113D01*
X100966321Y-101524032D01*
X100856627Y-101416403D01*
X100523130Y-101036338D01*
X100268695Y-100646042D01*
X100088403Y-100233491D01*
X99977334Y-99786660D01*
X99930570Y-99293524D01*
X99928329Y-99147207D01*
X99956804Y-98645585D01*
X100045833Y-98194599D01*
X100059582Y-98157927D01*
X101308267Y-98157927D01*
X101325619Y-98455255D01*
X101412433Y-98704713D01*
X101570004Y-98908648D01*
X101799626Y-99069407D01*
X101815771Y-99077755D01*
X101990652Y-99130779D01*
X102207732Y-99145974D01*
X102434623Y-99125577D01*
X102638937Y-99071822D01*
X102755019Y-99012939D01*
X102886737Y-98902149D01*
X103008143Y-98768446D01*
X103030186Y-98738432D01*
X103086530Y-98647558D01*
X103120269Y-98558753D01*
X103137018Y-98445924D01*
X103142393Y-98282978D01*
X103142627Y-98215873D01*
X103139711Y-98031341D01*
X103127218Y-97905290D01*
X103099536Y-97811626D01*
X103051049Y-97724257D01*
X103030186Y-97693314D01*
X102918916Y-97561541D01*
X102784939Y-97440110D01*
X102755019Y-97418147D01*
X102664145Y-97361804D01*
X102575340Y-97328064D01*
X102462511Y-97311315D01*
X102299565Y-97305941D01*
X102232460Y-97305707D01*
X102047928Y-97308623D01*
X101921877Y-97321115D01*
X101828213Y-97348797D01*
X101740844Y-97397284D01*
X101709901Y-97418147D01*
X101513606Y-97586882D01*
X101387553Y-97781008D01*
X101321667Y-98019082D01*
X101308267Y-98157927D01*
X100059582Y-98157927D01*
X100200823Y-97781231D01*
X100427182Y-97392462D01*
X100730316Y-97015274D01*
X100877794Y-96861207D01*
X101253996Y-96525087D01*
X101636451Y-96267956D01*
X102038176Y-96084406D01*
X102472190Y-95969031D01*
X102951512Y-95916424D01*
X103163794Y-95911742D01*
X103665415Y-95940217D01*
X103665415Y-95940217D01*
G37*
X103665415Y-95940217D02*
X104116401Y-96029246D01*
X104529769Y-96184236D01*
X104918538Y-96410595D01*
X105295726Y-96713729D01*
X105449794Y-96861207D01*
X105785564Y-97236999D01*
X106042456Y-97619115D01*
X106225975Y-98020799D01*
X106341626Y-98455295D01*
X106394915Y-98935847D01*
X106400010Y-99147207D01*
X106372339Y-99647408D01*
X106283253Y-100098344D01*
X106127519Y-100512599D01*
X105899906Y-100902760D01*
X105595184Y-101281411D01*
X105449794Y-101433207D01*
X105116403Y-101735807D01*
X104784364Y-101969854D01*
X104432250Y-102148337D01*
X104052794Y-102280226D01*
X103761753Y-102342623D01*
X103428678Y-102380475D01*
X103084696Y-102392571D01*
X102760934Y-102377703D01*
X102511901Y-102340119D01*
X102066288Y-102214475D01*
X101674110Y-102044367D01*
X101314432Y-101818113D01*
X100966321Y-101524032D01*
X100856627Y-101416403D01*
X100523130Y-101036338D01*
X100268695Y-100646042D01*
X100088403Y-100233491D01*
X99977334Y-99786660D01*
X99930570Y-99293524D01*
X99928329Y-99147207D01*
X99956804Y-98645585D01*
X100045833Y-98194599D01*
X100059582Y-98157927D01*
X101308267Y-98157927D01*
X101325619Y-98455255D01*
X101412433Y-98704713D01*
X101570004Y-98908648D01*
X101799626Y-99069407D01*
X101815771Y-99077755D01*
X101990652Y-99130779D01*
X102207732Y-99145974D01*
X102434623Y-99125577D01*
X102638937Y-99071822D01*
X102755019Y-99012939D01*
X102886737Y-98902149D01*
X103008143Y-98768446D01*
X103030186Y-98738432D01*
X103086530Y-98647558D01*
X103120269Y-98558753D01*
X103137018Y-98445924D01*
X103142393Y-98282978D01*
X103142627Y-98215873D01*
X103139711Y-98031341D01*
X103127218Y-97905290D01*
X103099536Y-97811626D01*
X103051049Y-97724257D01*
X103030186Y-97693314D01*
X102918916Y-97561541D01*
X102784939Y-97440110D01*
X102755019Y-97418147D01*
X102664145Y-97361804D01*
X102575340Y-97328064D01*
X102462511Y-97311315D01*
X102299565Y-97305941D01*
X102232460Y-97305707D01*
X102047928Y-97308623D01*
X101921877Y-97321115D01*
X101828213Y-97348797D01*
X101740844Y-97397284D01*
X101709901Y-97418147D01*
X101513606Y-97586882D01*
X101387553Y-97781008D01*
X101321667Y-98019082D01*
X101308267Y-98157927D01*
X100059582Y-98157927D01*
X100200823Y-97781231D01*
X100427182Y-97392462D01*
X100730316Y-97015274D01*
X100877794Y-96861207D01*
X101253996Y-96525087D01*
X101636451Y-96267956D01*
X102038176Y-96084406D01*
X102472190Y-95969031D01*
X102951512Y-95916424D01*
X103163794Y-95911742D01*
X103665415Y-95940217D01*
G36*
X94144884Y-89609470D02*
X94430712Y-89645426D01*
X94704586Y-89697986D01*
X94949904Y-89763744D01*
X95150064Y-89839296D01*
X95288465Y-89921238D01*
X95321333Y-89953249D01*
X95384972Y-90035201D01*
X95415998Y-90086888D01*
X95416583Y-90090104D01*
X95378692Y-90097871D01*
X95280262Y-90094056D01*
X95173377Y-90083093D01*
X94572704Y-90047092D01*
X93945054Y-90083280D01*
X93304141Y-90189599D01*
X92663676Y-90363990D01*
X92220409Y-90526503D01*
X91774364Y-90731976D01*
X91395966Y-90959571D01*
X91069027Y-91219575D01*
X90950627Y-91333343D01*
X90718656Y-91589990D01*
X90532172Y-91851344D01*
X90374346Y-92144355D01*
X90233775Y-92481517D01*
X90095988Y-92847729D01*
X90003425Y-92690845D01*
X89910861Y-92533962D01*
X89998753Y-92210501D01*
X90089680Y-91932878D01*
X90212618Y-91637630D01*
X90355011Y-91350216D01*
X90504300Y-91096093D01*
X90640505Y-90909374D01*
X90925785Y-90628569D01*
X91281066Y-90369179D01*
X91693131Y-90137042D01*
X92148760Y-89937994D01*
X92634735Y-89777871D01*
X93137836Y-89662511D01*
X93603766Y-89600988D01*
X93863701Y-89593522D01*
X94144884Y-89609470D01*
X94144884Y-89609470D01*
G37*
X94144884Y-89609470D02*
X94430712Y-89645426D01*
X94704586Y-89697986D01*
X94949904Y-89763744D01*
X95150064Y-89839296D01*
X95288465Y-89921238D01*
X95321333Y-89953249D01*
X95384972Y-90035201D01*
X95415998Y-90086888D01*
X95416583Y-90090104D01*
X95378692Y-90097871D01*
X95280262Y-90094056D01*
X95173377Y-90083093D01*
X94572704Y-90047092D01*
X93945054Y-90083280D01*
X93304141Y-90189599D01*
X92663676Y-90363990D01*
X92220409Y-90526503D01*
X91774364Y-90731976D01*
X91395966Y-90959571D01*
X91069027Y-91219575D01*
X90950627Y-91333343D01*
X90718656Y-91589990D01*
X90532172Y-91851344D01*
X90374346Y-92144355D01*
X90233775Y-92481517D01*
X90095988Y-92847729D01*
X90003425Y-92690845D01*
X89910861Y-92533962D01*
X89998753Y-92210501D01*
X90089680Y-91932878D01*
X90212618Y-91637630D01*
X90355011Y-91350216D01*
X90504300Y-91096093D01*
X90640505Y-90909374D01*
X90925785Y-90628569D01*
X91281066Y-90369179D01*
X91693131Y-90137042D01*
X92148760Y-89937994D01*
X92634735Y-89777871D01*
X93137836Y-89662511D01*
X93603766Y-89600988D01*
X93863701Y-89593522D01*
X94144884Y-89609470D01*
G36*
X104391208Y-90698621D02*
X104784391Y-90783945D01*
X105157165Y-90908566D01*
X105479703Y-91054308D01*
X105765864Y-91231971D01*
X106029505Y-91452354D01*
X106284485Y-91726256D01*
X106544661Y-92064475D01*
X106682216Y-92262838D01*
X106808281Y-92447205D01*
X106920465Y-92606609D01*
X107009091Y-92727647D01*
X107064481Y-92796914D01*
X107075191Y-92807142D01*
X107087800Y-92833294D01*
X107052499Y-92838892D01*
X106981029Y-92815700D01*
X106871732Y-92755415D01*
X106791888Y-92701957D01*
X106665852Y-92607989D01*
X106505439Y-92483920D01*
X106341476Y-92353659D01*
X106311015Y-92329005D01*
X105987515Y-92078621D01*
X105693111Y-91881174D01*
X105403688Y-91723750D01*
X105095130Y-91593430D01*
X104743322Y-91477297D01*
X104693672Y-91462719D01*
X104187469Y-91353259D01*
X103644206Y-91303126D01*
X103082824Y-91310579D01*
X102522259Y-91373878D01*
X101981451Y-91491281D01*
X101479337Y-91661046D01*
X101213533Y-91782700D01*
X101109074Y-91833025D01*
X101055831Y-91844237D01*
X101030595Y-91817594D01*
X101022035Y-91793076D01*
X100981716Y-91691786D01*
X100953733Y-91635171D01*
X100936546Y-91577037D01*
X100963008Y-91517890D01*
X101044528Y-91436367D01*
X101073240Y-91411367D01*
X101361510Y-91209087D01*
X101715803Y-91034093D01*
X102121174Y-90888912D01*
X102562682Y-90776071D01*
X103025382Y-90698094D01*
X103494332Y-90657510D01*
X103954588Y-90656843D01*
X104391208Y-90698621D01*
X104391208Y-90698621D01*
G37*
X104391208Y-90698621D02*
X104784391Y-90783945D01*
X105157165Y-90908566D01*
X105479703Y-91054308D01*
X105765864Y-91231971D01*
X106029505Y-91452354D01*
X106284485Y-91726256D01*
X106544661Y-92064475D01*
X106682216Y-92262838D01*
X106808281Y-92447205D01*
X106920465Y-92606609D01*
X107009091Y-92727647D01*
X107064481Y-92796914D01*
X107075191Y-92807142D01*
X107087800Y-92833294D01*
X107052499Y-92838892D01*
X106981029Y-92815700D01*
X106871732Y-92755415D01*
X106791888Y-92701957D01*
X106665852Y-92607989D01*
X106505439Y-92483920D01*
X106341476Y-92353659D01*
X106311015Y-92329005D01*
X105987515Y-92078621D01*
X105693111Y-91881174D01*
X105403688Y-91723750D01*
X105095130Y-91593430D01*
X104743322Y-91477297D01*
X104693672Y-91462719D01*
X104187469Y-91353259D01*
X103644206Y-91303126D01*
X103082824Y-91310579D01*
X102522259Y-91373878D01*
X101981451Y-91491281D01*
X101479337Y-91661046D01*
X101213533Y-91782700D01*
X101109074Y-91833025D01*
X101055831Y-91844237D01*
X101030595Y-91817594D01*
X101022035Y-91793076D01*
X100981716Y-91691786D01*
X100953733Y-91635171D01*
X100936546Y-91577037D01*
X100963008Y-91517890D01*
X101044528Y-91436367D01*
X101073240Y-91411367D01*
X101361510Y-91209087D01*
X101715803Y-91034093D01*
X102121174Y-90888912D01*
X102562682Y-90776071D01*
X103025382Y-90698094D01*
X103494332Y-90657510D01*
X103954588Y-90656843D01*
X104391208Y-90698621D01*
D12*
X97555000Y-119634000D02*
G75*
G03X97555000Y-119634000I-400000J0D01*
G01*
D10*
X76622338Y-101658722D02*
X77073109Y-102221577D01*
X77073109Y-102221577D02*
X76276153Y-102291301D01*
X76276153Y-102291301D02*
X76622338Y-101658722D01*
X77016458Y-101574050D02*
X76219502Y-101643775D01*
X77962408Y-92689723D02*
X78133073Y-93390347D01*
X78133073Y-93390347D02*
X77381319Y-93116730D01*
X77381319Y-93116730D02*
X77962408Y-92689723D01*
X78355386Y-92779546D02*
X77603632Y-92505930D01*
X82817652Y-84945142D02*
X82713432Y-85658681D01*
X82713432Y-85658681D02*
X82118916Y-85123377D01*
X82118916Y-85123377D02*
X82817652Y-84945142D01*
X83148367Y-85175637D02*
X82553851Y-84640333D01*
X90126123Y-79688553D02*
X89751386Y-80304647D01*
X89751386Y-80304647D02*
X89413291Y-79579601D01*
X89413291Y-79579601D02*
X90126123Y-79688553D01*
X90340486Y-80029945D02*
X90002391Y-79304899D01*
X108569418Y-79867895D02*
X107858596Y-79989271D01*
X107858596Y-79989271D02*
X108183986Y-79258434D01*
X108183986Y-79258434D02*
X108569418Y-79867895D01*
X108452401Y-80253650D02*
X108777790Y-79522813D01*
X116030315Y-85701218D02*
X115338225Y-85498706D01*
X115338225Y-85498706D02*
X115951060Y-84984476D01*
X115951060Y-84984476D02*
X116030315Y-85701218D01*
X115756037Y-85996635D02*
X116368872Y-85482405D01*
X120583608Y-93390677D02*
X120002519Y-92963670D01*
X120002519Y-92963670D02*
X120754273Y-92690053D01*
X120754273Y-92690053D02*
X120583608Y-93390677D01*
X120224832Y-93574470D02*
X120976586Y-93300854D01*
X121529538Y-102404878D02*
X121183353Y-101772299D01*
X121183353Y-101772299D02*
X121980309Y-101842023D01*
X121980309Y-101842023D02*
X121529538Y-102404878D01*
X121126702Y-102419825D02*
X121923658Y-102489550D01*
%LPC*%
D11*
G36*
X100310893Y-116255934D02*
X100850519Y-116283193D01*
X101363067Y-116331859D01*
X101876556Y-116404577D01*
X102406263Y-116501439D01*
X103346525Y-116727592D01*
X104256056Y-117022283D01*
X105130007Y-117382202D01*
X105963532Y-117804041D01*
X106751781Y-118284489D01*
X107489907Y-118820237D01*
X108173061Y-119407976D01*
X108796396Y-120044395D01*
X109355063Y-120726185D01*
X109844214Y-121450036D01*
X109971603Y-121666000D01*
X110098454Y-121888486D01*
X110185656Y-122049695D01*
X110234317Y-122162556D01*
X110245548Y-122240001D01*
X110220458Y-122294962D01*
X110160157Y-122340371D01*
X110065754Y-122389159D01*
X110034963Y-122404388D01*
X108778363Y-122982888D01*
X107480816Y-123488825D01*
X106141364Y-123922474D01*
X104759047Y-124284111D01*
X103332906Y-124574011D01*
X101861984Y-124792447D01*
X101600000Y-124823335D01*
X101390151Y-124841763D01*
X101109022Y-124858416D01*
X100769984Y-124873121D01*
X100386408Y-124885703D01*
X99971666Y-124895988D01*
X99539129Y-124903802D01*
X99102167Y-124908970D01*
X98674154Y-124911319D01*
X98268458Y-124910675D01*
X97898453Y-124906862D01*
X97577509Y-124899707D01*
X97318998Y-124889035D01*
X97197334Y-124880695D01*
X95740522Y-124718850D01*
X94321697Y-124484286D01*
X92942846Y-124177462D01*
X91605954Y-123798837D01*
X90313010Y-123348870D01*
X89949648Y-123206344D01*
X89642854Y-123082787D01*
X89405670Y-122986778D01*
X89229144Y-122914303D01*
X89104319Y-122861351D01*
X89022244Y-122823910D01*
X88973963Y-122797967D01*
X88950522Y-122779511D01*
X88942967Y-122764528D01*
X88942334Y-122754990D01*
X88961331Y-122685369D01*
X89013287Y-122557195D01*
X89090642Y-122386257D01*
X89185841Y-122188345D01*
X89291325Y-121979248D01*
X89399537Y-121774756D01*
X89483809Y-121623667D01*
X89945791Y-120902804D01*
X90481546Y-120217605D01*
X91086094Y-119572650D01*
X91754453Y-118972524D01*
X92481642Y-118421806D01*
X93262678Y-117925080D01*
X93853000Y-117604742D01*
X94739725Y-117195319D01*
X95634227Y-116862008D01*
X96545260Y-116602780D01*
X97481582Y-116415611D01*
X98451949Y-116298471D01*
X99465116Y-116249335D01*
X99716167Y-116247436D01*
X100310893Y-116255934D01*
X100310893Y-116255934D01*
G37*
X100310893Y-116255934D02*
X100850519Y-116283193D01*
X101363067Y-116331859D01*
X101876556Y-116404577D01*
X102406263Y-116501439D01*
X103346525Y-116727592D01*
X104256056Y-117022283D01*
X105130007Y-117382202D01*
X105963532Y-117804041D01*
X106751781Y-118284489D01*
X107489907Y-118820237D01*
X108173061Y-119407976D01*
X108796396Y-120044395D01*
X109355063Y-120726185D01*
X109844214Y-121450036D01*
X109971603Y-121666000D01*
X110098454Y-121888486D01*
X110185656Y-122049695D01*
X110234317Y-122162556D01*
X110245548Y-122240001D01*
X110220458Y-122294962D01*
X110160157Y-122340371D01*
X110065754Y-122389159D01*
X110034963Y-122404388D01*
X108778363Y-122982888D01*
X107480816Y-123488825D01*
X106141364Y-123922474D01*
X104759047Y-124284111D01*
X103332906Y-124574011D01*
X101861984Y-124792447D01*
X101600000Y-124823335D01*
X101390151Y-124841763D01*
X101109022Y-124858416D01*
X100769984Y-124873121D01*
X100386408Y-124885703D01*
X99971666Y-124895988D01*
X99539129Y-124903802D01*
X99102167Y-124908970D01*
X98674154Y-124911319D01*
X98268458Y-124910675D01*
X97898453Y-124906862D01*
X97577509Y-124899707D01*
X97318998Y-124889035D01*
X97197334Y-124880695D01*
X95740522Y-124718850D01*
X94321697Y-124484286D01*
X92942846Y-124177462D01*
X91605954Y-123798837D01*
X90313010Y-123348870D01*
X89949648Y-123206344D01*
X89642854Y-123082787D01*
X89405670Y-122986778D01*
X89229144Y-122914303D01*
X89104319Y-122861351D01*
X89022244Y-122823910D01*
X88973963Y-122797967D01*
X88950522Y-122779511D01*
X88942967Y-122764528D01*
X88942334Y-122754990D01*
X88961331Y-122685369D01*
X89013287Y-122557195D01*
X89090642Y-122386257D01*
X89185841Y-122188345D01*
X89291325Y-121979248D01*
X89399537Y-121774756D01*
X89483809Y-121623667D01*
X89945791Y-120902804D01*
X90481546Y-120217605D01*
X91086094Y-119572650D01*
X91754453Y-118972524D01*
X92481642Y-118421806D01*
X93262678Y-117925080D01*
X93853000Y-117604742D01*
X94739725Y-117195319D01*
X95634227Y-116862008D01*
X96545260Y-116602780D01*
X97481582Y-116415611D01*
X98451949Y-116298471D01*
X99465116Y-116249335D01*
X99716167Y-116247436D01*
X100310893Y-116255934D01*
G36*
X107895266Y-106512376D02*
X107946680Y-106580584D01*
X107978519Y-106658833D01*
X108064501Y-106970253D01*
X108124954Y-107336625D01*
X108158375Y-107731717D01*
X108163261Y-108129294D01*
X108138110Y-108503123D01*
X108098475Y-108752870D01*
X107966188Y-109227008D01*
X107780858Y-109654255D01*
X107547294Y-110027353D01*
X107270308Y-110339043D01*
X106954710Y-110582066D01*
X106844372Y-110645188D01*
X106732871Y-110700038D01*
X106633535Y-110735110D01*
X106521986Y-110754756D01*
X106373845Y-110763324D01*
X106172000Y-110765167D01*
X105965035Y-110763189D01*
X105818322Y-110754356D01*
X105707482Y-110734318D01*
X105608136Y-110698725D01*
X105499629Y-110645188D01*
X105210214Y-110453522D01*
X104936805Y-110197711D01*
X104700952Y-109898096D01*
X104689124Y-109880178D01*
X104521000Y-109622873D01*
X104521000Y-109922665D01*
X104509222Y-110120574D01*
X104478374Y-110349035D01*
X104436083Y-110554478D01*
X104275748Y-111041454D01*
X104059665Y-111470948D01*
X103790400Y-111839549D01*
X103470517Y-112143848D01*
X103102580Y-112380434D01*
X103039334Y-112411819D01*
X102916536Y-112468011D01*
X102813157Y-112505394D01*
X102706461Y-112527781D01*
X102573714Y-112538985D01*
X102392181Y-112542818D01*
X102256167Y-112543167D01*
X102033465Y-112541593D01*
X101873034Y-112534564D01*
X101752500Y-112518619D01*
X101649493Y-112490295D01*
X101541638Y-112446130D01*
X101497495Y-112425770D01*
X101116677Y-112203239D01*
X100787991Y-111915945D01*
X100509266Y-111561658D01*
X100310394Y-111206984D01*
X100237300Y-111056793D01*
X100190746Y-110973552D01*
X100161148Y-110947636D01*
X100138927Y-110969421D01*
X100119740Y-111015468D01*
X100087738Y-111113250D01*
X100076000Y-111173032D01*
X100058306Y-111244450D01*
X100010983Y-111371771D01*
X99942677Y-111535375D01*
X99862029Y-111715641D01*
X99777683Y-111892947D01*
X99698281Y-112047674D01*
X99662862Y-112110907D01*
X99482566Y-112374743D01*
X99262197Y-112627743D01*
X99023388Y-112847975D01*
X98787770Y-113013504D01*
X98754407Y-113032062D01*
X98612812Y-113103018D01*
X98492374Y-113146830D01*
X98361765Y-113170933D01*
X98189658Y-113182758D01*
X98107500Y-113185561D01*
X97923355Y-113186861D01*
X97760709Y-113180647D01*
X97646066Y-113168194D01*
X97620667Y-113162113D01*
X97286026Y-113008995D01*
X96973916Y-112779720D01*
X96688694Y-112480824D01*
X96434719Y-112118845D01*
X96216349Y-111700317D01*
X96037941Y-111231779D01*
X95903854Y-110719765D01*
X95868688Y-110534341D01*
X95837530Y-110333877D01*
X95813064Y-110140525D01*
X95799120Y-109986050D01*
X95797355Y-109942790D01*
X95794382Y-109858797D01*
X95786734Y-109833112D01*
X95771196Y-109872400D01*
X95744554Y-109983323D01*
X95717182Y-110109000D01*
X95587529Y-110599457D01*
X95421454Y-111022320D01*
X95213482Y-111388807D01*
X94958135Y-111710132D01*
X94911334Y-111759318D01*
X94694904Y-111958467D01*
X94488776Y-112091397D01*
X94267944Y-112168839D01*
X94007401Y-112201529D01*
X93874167Y-112204500D01*
X93588314Y-112188055D01*
X93353141Y-112131565D01*
X93143642Y-112024297D01*
X92934810Y-111855517D01*
X92837000Y-111759318D01*
X92538560Y-111392686D01*
X92300474Y-110967492D01*
X92123156Y-110484970D01*
X92007022Y-109946357D01*
X91952486Y-109352887D01*
X91948000Y-109113214D01*
X91964829Y-108629455D01*
X92017923Y-108196924D01*
X92111189Y-107788611D01*
X92165213Y-107611936D01*
X92218700Y-107445208D01*
X92261699Y-107328915D01*
X92307690Y-107260754D01*
X92370155Y-107238421D01*
X92462573Y-107259614D01*
X92598427Y-107322029D01*
X92791196Y-107423362D01*
X92907751Y-107485071D01*
X93664259Y-107898478D01*
X94361139Y-108313449D01*
X95022245Y-108745647D01*
X95671434Y-109210732D01*
X96332562Y-109724366D01*
X96393000Y-109773133D01*
X96552744Y-109899715D01*
X96689918Y-109998341D01*
X96820692Y-110075618D01*
X96961233Y-110138149D01*
X97127708Y-110192539D01*
X97336285Y-110245392D01*
X97603131Y-110303312D01*
X97779452Y-110339489D01*
X98564849Y-110474410D01*
X99300163Y-110548386D01*
X99994254Y-110561253D01*
X100655981Y-110512846D01*
X101294203Y-110403002D01*
X101813494Y-110264723D01*
X101969678Y-110210406D01*
X102109240Y-110145199D01*
X102254028Y-110056284D01*
X102425888Y-109930841D01*
X102554751Y-109829792D01*
X102984118Y-109498360D01*
X103471050Y-109140996D01*
X103997576Y-108770013D01*
X104545725Y-108397725D01*
X105097526Y-108036445D01*
X105635008Y-107698487D01*
X105898244Y-107538822D01*
X106189946Y-107366686D01*
X106486707Y-107195827D01*
X106778215Y-107031796D01*
X107054160Y-106880144D01*
X107304229Y-106746421D01*
X107518111Y-106636179D01*
X107685495Y-106554969D01*
X107796068Y-106508342D01*
X107829023Y-106499438D01*
X107895266Y-106512376D01*
X107895266Y-106512376D01*
G37*
X107895266Y-106512376D02*
X107946680Y-106580584D01*
X107978519Y-106658833D01*
X108064501Y-106970253D01*
X108124954Y-107336625D01*
X108158375Y-107731717D01*
X108163261Y-108129294D01*
X108138110Y-108503123D01*
X108098475Y-108752870D01*
X107966188Y-109227008D01*
X107780858Y-109654255D01*
X107547294Y-110027353D01*
X107270308Y-110339043D01*
X106954710Y-110582066D01*
X106844372Y-110645188D01*
X106732871Y-110700038D01*
X106633535Y-110735110D01*
X106521986Y-110754756D01*
X106373845Y-110763324D01*
X106172000Y-110765167D01*
X105965035Y-110763189D01*
X105818322Y-110754356D01*
X105707482Y-110734318D01*
X105608136Y-110698725D01*
X105499629Y-110645188D01*
X105210214Y-110453522D01*
X104936805Y-110197711D01*
X104700952Y-109898096D01*
X104689124Y-109880178D01*
X104521000Y-109622873D01*
X104521000Y-109922665D01*
X104509222Y-110120574D01*
X104478374Y-110349035D01*
X104436083Y-110554478D01*
X104275748Y-111041454D01*
X104059665Y-111470948D01*
X103790400Y-111839549D01*
X103470517Y-112143848D01*
X103102580Y-112380434D01*
X103039334Y-112411819D01*
X102916536Y-112468011D01*
X102813157Y-112505394D01*
X102706461Y-112527781D01*
X102573714Y-112538985D01*
X102392181Y-112542818D01*
X102256167Y-112543167D01*
X102033465Y-112541593D01*
X101873034Y-112534564D01*
X101752500Y-112518619D01*
X101649493Y-112490295D01*
X101541638Y-112446130D01*
X101497495Y-112425770D01*
X101116677Y-112203239D01*
X100787991Y-111915945D01*
X100509266Y-111561658D01*
X100310394Y-111206984D01*
X100237300Y-111056793D01*
X100190746Y-110973552D01*
X100161148Y-110947636D01*
X100138927Y-110969421D01*
X100119740Y-111015468D01*
X100087738Y-111113250D01*
X100076000Y-111173032D01*
X100058306Y-111244450D01*
X100010983Y-111371771D01*
X99942677Y-111535375D01*
X99862029Y-111715641D01*
X99777683Y-111892947D01*
X99698281Y-112047674D01*
X99662862Y-112110907D01*
X99482566Y-112374743D01*
X99262197Y-112627743D01*
X99023388Y-112847975D01*
X98787770Y-113013504D01*
X98754407Y-113032062D01*
X98612812Y-113103018D01*
X98492374Y-113146830D01*
X98361765Y-113170933D01*
X98189658Y-113182758D01*
X98107500Y-113185561D01*
X97923355Y-113186861D01*
X97760709Y-113180647D01*
X97646066Y-113168194D01*
X97620667Y-113162113D01*
X97286026Y-113008995D01*
X96973916Y-112779720D01*
X96688694Y-112480824D01*
X96434719Y-112118845D01*
X96216349Y-111700317D01*
X96037941Y-111231779D01*
X95903854Y-110719765D01*
X95868688Y-110534341D01*
X95837530Y-110333877D01*
X95813064Y-110140525D01*
X95799120Y-109986050D01*
X95797355Y-109942790D01*
X95794382Y-109858797D01*
X95786734Y-109833112D01*
X95771196Y-109872400D01*
X95744554Y-109983323D01*
X95717182Y-110109000D01*
X95587529Y-110599457D01*
X95421454Y-111022320D01*
X95213482Y-111388807D01*
X94958135Y-111710132D01*
X94911334Y-111759318D01*
X94694904Y-111958467D01*
X94488776Y-112091397D01*
X94267944Y-112168839D01*
X94007401Y-112201529D01*
X93874167Y-112204500D01*
X93588314Y-112188055D01*
X93353141Y-112131565D01*
X93143642Y-112024297D01*
X92934810Y-111855517D01*
X92837000Y-111759318D01*
X92538560Y-111392686D01*
X92300474Y-110967492D01*
X92123156Y-110484970D01*
X92007022Y-109946357D01*
X91952486Y-109352887D01*
X91948000Y-109113214D01*
X91964829Y-108629455D01*
X92017923Y-108196924D01*
X92111189Y-107788611D01*
X92165213Y-107611936D01*
X92218700Y-107445208D01*
X92261699Y-107328915D01*
X92307690Y-107260754D01*
X92370155Y-107238421D01*
X92462573Y-107259614D01*
X92598427Y-107322029D01*
X92791196Y-107423362D01*
X92907751Y-107485071D01*
X93664259Y-107898478D01*
X94361139Y-108313449D01*
X95022245Y-108745647D01*
X95671434Y-109210732D01*
X96332562Y-109724366D01*
X96393000Y-109773133D01*
X96552744Y-109899715D01*
X96689918Y-109998341D01*
X96820692Y-110075618D01*
X96961233Y-110138149D01*
X97127708Y-110192539D01*
X97336285Y-110245392D01*
X97603131Y-110303312D01*
X97779452Y-110339489D01*
X98564849Y-110474410D01*
X99300163Y-110548386D01*
X99994254Y-110561253D01*
X100655981Y-110512846D01*
X101294203Y-110403002D01*
X101813494Y-110264723D01*
X101969678Y-110210406D01*
X102109240Y-110145199D01*
X102254028Y-110056284D01*
X102425888Y-109930841D01*
X102554751Y-109829792D01*
X102984118Y-109498360D01*
X103471050Y-109140996D01*
X103997576Y-108770013D01*
X104545725Y-108397725D01*
X105097526Y-108036445D01*
X105635008Y-107698487D01*
X105898244Y-107538822D01*
X106189946Y-107366686D01*
X106486707Y-107195827D01*
X106778215Y-107031796D01*
X107054160Y-106880144D01*
X107304229Y-106746421D01*
X107518111Y-106636179D01*
X107685495Y-106554969D01*
X107796068Y-106508342D01*
X107829023Y-106499438D01*
X107895266Y-106512376D01*
G36*
X88479758Y-105885131D02*
X88594695Y-105910995D01*
X88759012Y-105949465D01*
X88956290Y-105996750D01*
X88985729Y-106003887D01*
X89650661Y-106181545D01*
X90338801Y-106395093D01*
X91005099Y-106630332D01*
X91154250Y-106687463D01*
X91694000Y-106897643D01*
X91693374Y-107349738D01*
X91686335Y-107583890D01*
X91667888Y-107816298D01*
X91641111Y-108012603D01*
X91628419Y-108074761D01*
X91501992Y-108458339D01*
X91314923Y-108813286D01*
X91077552Y-109125288D01*
X90800220Y-109380030D01*
X90586199Y-109517500D01*
X90448644Y-109586987D01*
X90332128Y-109630825D01*
X90207332Y-109655859D01*
X90044939Y-109668930D01*
X89916000Y-109673917D01*
X89638997Y-109672891D01*
X89436220Y-109650234D01*
X89359071Y-109629039D01*
X89020110Y-109458744D01*
X88716805Y-109218243D01*
X88457296Y-108917404D01*
X88249725Y-108566093D01*
X88102231Y-108174175D01*
X88076581Y-108074761D01*
X88036919Y-107828687D01*
X88017123Y-107533279D01*
X88017195Y-107221505D01*
X88037133Y-106926334D01*
X88076581Y-106682239D01*
X88117702Y-106539615D01*
X88176380Y-106375256D01*
X88244267Y-106208174D01*
X88313019Y-106057384D01*
X88374289Y-105941898D01*
X88419732Y-105880729D01*
X88430624Y-105875667D01*
X88479758Y-105885131D01*
X88479758Y-105885131D01*
G37*
X88479758Y-105885131D02*
X88594695Y-105910995D01*
X88759012Y-105949465D01*
X88956290Y-105996750D01*
X88985729Y-106003887D01*
X89650661Y-106181545D01*
X90338801Y-106395093D01*
X91005099Y-106630332D01*
X91154250Y-106687463D01*
X91694000Y-106897643D01*
X91693374Y-107349738D01*
X91686335Y-107583890D01*
X91667888Y-107816298D01*
X91641111Y-108012603D01*
X91628419Y-108074761D01*
X91501992Y-108458339D01*
X91314923Y-108813286D01*
X91077552Y-109125288D01*
X90800220Y-109380030D01*
X90586199Y-109517500D01*
X90448644Y-109586987D01*
X90332128Y-109630825D01*
X90207332Y-109655859D01*
X90044939Y-109668930D01*
X89916000Y-109673917D01*
X89638997Y-109672891D01*
X89436220Y-109650234D01*
X89359071Y-109629039D01*
X89020110Y-109458744D01*
X88716805Y-109218243D01*
X88457296Y-108917404D01*
X88249725Y-108566093D01*
X88102231Y-108174175D01*
X88076581Y-108074761D01*
X88036919Y-107828687D01*
X88017123Y-107533279D01*
X88017195Y-107221505D01*
X88037133Y-106926334D01*
X88076581Y-106682239D01*
X88117702Y-106539615D01*
X88176380Y-106375256D01*
X88244267Y-106208174D01*
X88313019Y-106057384D01*
X88374289Y-105941898D01*
X88419732Y-105880729D01*
X88430624Y-105875667D01*
X88479758Y-105885131D01*
G36*
X111032964Y-105587203D02*
X111296437Y-105596246D01*
X111487157Y-105610536D01*
X111616858Y-105640839D01*
X111697272Y-105697926D01*
X111740135Y-105792564D01*
X111757179Y-105935521D01*
X111760138Y-106137566D01*
X111760000Y-106254432D01*
X111734080Y-106810000D01*
X111654874Y-107307176D01*
X111520210Y-107755062D01*
X111327918Y-108162759D01*
X111289134Y-108229071D01*
X111144307Y-108433305D01*
X110964072Y-108633435D01*
X110768025Y-108811469D01*
X110575762Y-108949418D01*
X110423214Y-109024071D01*
X110201412Y-109072255D01*
X109942685Y-109087178D01*
X109686080Y-109068949D01*
X109481131Y-109021479D01*
X109325461Y-108940015D01*
X109144916Y-108804388D01*
X108958825Y-108632648D01*
X108786516Y-108442844D01*
X108647319Y-108253024D01*
X108632533Y-108229071D01*
X108460830Y-107888855D01*
X108320210Y-107501212D01*
X108219387Y-107097145D01*
X108167076Y-106707657D01*
X108161667Y-106553889D01*
X108161667Y-106308225D01*
X108681701Y-106094407D01*
X109139344Y-105915484D01*
X109543683Y-105779239D01*
X109912204Y-105681901D01*
X110262389Y-105619699D01*
X110611723Y-105588860D01*
X110977690Y-105585614D01*
X111032964Y-105587203D01*
X111032964Y-105587203D01*
G37*
X111032964Y-105587203D02*
X111296437Y-105596246D01*
X111487157Y-105610536D01*
X111616858Y-105640839D01*
X111697272Y-105697926D01*
X111740135Y-105792564D01*
X111757179Y-105935521D01*
X111760138Y-106137566D01*
X111760000Y-106254432D01*
X111734080Y-106810000D01*
X111654874Y-107307176D01*
X111520210Y-107755062D01*
X111327918Y-108162759D01*
X111289134Y-108229071D01*
X111144307Y-108433305D01*
X110964072Y-108633435D01*
X110768025Y-108811469D01*
X110575762Y-108949418D01*
X110423214Y-109024071D01*
X110201412Y-109072255D01*
X109942685Y-109087178D01*
X109686080Y-109068949D01*
X109481131Y-109021479D01*
X109325461Y-108940015D01*
X109144916Y-108804388D01*
X108958825Y-108632648D01*
X108786516Y-108442844D01*
X108647319Y-108253024D01*
X108632533Y-108229071D01*
X108460830Y-107888855D01*
X108320210Y-107501212D01*
X108219387Y-107097145D01*
X108167076Y-106707657D01*
X108161667Y-106553889D01*
X108161667Y-106308225D01*
X108681701Y-106094407D01*
X109139344Y-105915484D01*
X109543683Y-105779239D01*
X109912204Y-105681901D01*
X110262389Y-105619699D01*
X110611723Y-105588860D01*
X110977690Y-105585614D01*
X111032964Y-105587203D01*
G36*
X95476865Y-98322083D02*
X95602917Y-98334575D01*
X95696580Y-98362257D01*
X95783950Y-98410744D01*
X95814893Y-98431607D01*
X95946666Y-98542877D01*
X96068097Y-98676854D01*
X96090059Y-98706774D01*
X96146403Y-98797648D01*
X96180142Y-98886453D01*
X96196892Y-98999282D01*
X96202266Y-99162229D01*
X96202500Y-99229333D01*
X96199584Y-99413865D01*
X96187092Y-99539916D01*
X96159409Y-99633580D01*
X96110922Y-99720950D01*
X96090059Y-99751892D01*
X95928074Y-99943325D01*
X95745098Y-100066818D01*
X95521023Y-100132988D01*
X95334667Y-100150667D01*
X95127800Y-100150791D01*
X94978838Y-100129817D01*
X94875645Y-100091215D01*
X94641646Y-99932980D01*
X94479776Y-99731710D01*
X94388740Y-99485058D01*
X94367244Y-99190677D01*
X94368140Y-99171387D01*
X94408134Y-98904895D01*
X94503341Y-98691476D01*
X94663836Y-98512575D01*
X94769774Y-98431607D01*
X94860649Y-98375264D01*
X94949454Y-98341524D01*
X95062283Y-98324775D01*
X95225229Y-98319401D01*
X95292334Y-98319167D01*
X95476865Y-98322083D01*
X95476865Y-98322083D01*
G37*
X95476865Y-98322083D02*
X95602917Y-98334575D01*
X95696580Y-98362257D01*
X95783950Y-98410744D01*
X95814893Y-98431607D01*
X95946666Y-98542877D01*
X96068097Y-98676854D01*
X96090059Y-98706774D01*
X96146403Y-98797648D01*
X96180142Y-98886453D01*
X96196892Y-98999282D01*
X96202266Y-99162229D01*
X96202500Y-99229333D01*
X96199584Y-99413865D01*
X96187092Y-99539916D01*
X96159409Y-99633580D01*
X96110922Y-99720950D01*
X96090059Y-99751892D01*
X95928074Y-99943325D01*
X95745098Y-100066818D01*
X95521023Y-100132988D01*
X95334667Y-100150667D01*
X95127800Y-100150791D01*
X94978838Y-100129817D01*
X94875645Y-100091215D01*
X94641646Y-99932980D01*
X94479776Y-99731710D01*
X94388740Y-99485058D01*
X94367244Y-99190677D01*
X94368140Y-99171387D01*
X94408134Y-98904895D01*
X94503341Y-98691476D01*
X94663836Y-98512575D01*
X94769774Y-98431607D01*
X94860649Y-98375264D01*
X94949454Y-98341524D01*
X95062283Y-98324775D01*
X95225229Y-98319401D01*
X95292334Y-98319167D01*
X95476865Y-98322083D01*
G36*
X102419532Y-97306083D02*
X102545583Y-97318575D01*
X102639247Y-97346257D01*
X102726617Y-97394744D01*
X102757559Y-97415607D01*
X102889332Y-97526877D01*
X103010764Y-97660854D01*
X103032726Y-97690774D01*
X103089070Y-97781648D01*
X103122809Y-97870453D01*
X103139558Y-97983282D01*
X103144933Y-98146229D01*
X103145167Y-98213333D01*
X103142251Y-98397865D01*
X103129758Y-98523916D01*
X103102076Y-98617580D01*
X103053589Y-98704950D01*
X103032726Y-98735892D01*
X102870740Y-98927325D01*
X102687764Y-99050818D01*
X102463689Y-99116988D01*
X102277334Y-99134667D01*
X102070467Y-99134791D01*
X101921505Y-99113817D01*
X101818311Y-99075215D01*
X101584312Y-98916980D01*
X101422442Y-98715710D01*
X101331407Y-98469058D01*
X101309911Y-98174677D01*
X101310807Y-98155387D01*
X101350801Y-97888895D01*
X101446008Y-97675476D01*
X101606503Y-97496575D01*
X101712441Y-97415607D01*
X101803315Y-97359264D01*
X101892120Y-97325524D01*
X102004949Y-97308775D01*
X102167896Y-97303401D01*
X102235000Y-97303167D01*
X102419532Y-97306083D01*
X102419532Y-97306083D01*
G37*
X102419532Y-97306083D02*
X102545583Y-97318575D01*
X102639247Y-97346257D01*
X102726617Y-97394744D01*
X102757559Y-97415607D01*
X102889332Y-97526877D01*
X103010764Y-97660854D01*
X103032726Y-97690774D01*
X103089070Y-97781648D01*
X103122809Y-97870453D01*
X103139558Y-97983282D01*
X103144933Y-98146229D01*
X103145167Y-98213333D01*
X103142251Y-98397865D01*
X103129758Y-98523916D01*
X103102076Y-98617580D01*
X103053589Y-98704950D01*
X103032726Y-98735892D01*
X102870740Y-98927325D01*
X102687764Y-99050818D01*
X102463689Y-99116988D01*
X102277334Y-99134667D01*
X102070467Y-99134791D01*
X101921505Y-99113817D01*
X101818311Y-99075215D01*
X101584312Y-98916980D01*
X101422442Y-98715710D01*
X101331407Y-98469058D01*
X101309911Y-98174677D01*
X101310807Y-98155387D01*
X101350801Y-97888895D01*
X101446008Y-97675476D01*
X101606503Y-97496575D01*
X101712441Y-97415607D01*
X101803315Y-97359264D01*
X101892120Y-97325524D01*
X102004949Y-97308775D01*
X102167896Y-97303401D01*
X102235000Y-97303167D01*
X102419532Y-97306083D01*
G36*
X101366749Y-65851219D02*
X101516583Y-65859055D01*
X101628225Y-65877024D01*
X101724901Y-65909143D01*
X101829834Y-65959429D01*
X101848949Y-65969433D01*
X102157001Y-66179101D01*
X102431197Y-66465068D01*
X102670730Y-66825681D01*
X102874791Y-67259288D01*
X103042575Y-67764238D01*
X103173273Y-68338879D01*
X103248763Y-68832889D01*
X103269127Y-69061713D01*
X103283034Y-69354257D01*
X103290637Y-69690546D01*
X103292090Y-70050609D01*
X103287549Y-70414473D01*
X103277168Y-70762164D01*
X103261100Y-71073709D01*
X103239501Y-71329136D01*
X103228791Y-71415062D01*
X103129305Y-71962050D01*
X102989720Y-72501374D01*
X102814770Y-73024095D01*
X102609189Y-73521274D01*
X102377710Y-73983971D01*
X102125068Y-74403248D01*
X101855996Y-74770166D01*
X101575228Y-75075786D01*
X101287498Y-75311169D01*
X101109448Y-75417021D01*
X100944481Y-75490558D01*
X100786657Y-75533439D01*
X100596573Y-75555217D01*
X100522711Y-75559279D01*
X100324569Y-75560246D01*
X100124814Y-75548069D01*
X99965772Y-75525372D01*
X99962087Y-75524559D01*
X99831229Y-75502102D01*
X99697015Y-75496959D01*
X99532587Y-75509732D01*
X99324877Y-75538864D01*
X99090096Y-75572707D01*
X98832836Y-75603972D01*
X98542913Y-75633532D01*
X98210141Y-75662259D01*
X97824338Y-75691024D01*
X97375318Y-75720701D01*
X96852897Y-75752161D01*
X96795167Y-75755499D01*
X96289145Y-75782655D01*
X95859836Y-75801073D01*
X95499738Y-75810747D01*
X95201346Y-75811669D01*
X94957159Y-75803831D01*
X94759675Y-75787227D01*
X94601390Y-75761848D01*
X94563708Y-75753323D01*
X94232803Y-75643411D01*
X93913511Y-75482312D01*
X93622012Y-75281994D01*
X93374485Y-75054425D01*
X93187111Y-74811574D01*
X93119673Y-74685134D01*
X93040232Y-74499985D01*
X92978570Y-74331531D01*
X92932484Y-74164877D01*
X92899772Y-73985128D01*
X92878234Y-73777390D01*
X92865667Y-73526768D01*
X92859869Y-73218368D01*
X92858625Y-72919167D01*
X92863237Y-72466201D01*
X92879544Y-72088645D01*
X92910560Y-71777685D01*
X92959297Y-71524511D01*
X93028766Y-71320312D01*
X93121981Y-71156274D01*
X93241953Y-71023588D01*
X93391696Y-70913440D01*
X93574220Y-70817021D01*
X93577834Y-70815353D01*
X93656349Y-70781518D01*
X93733322Y-70756543D01*
X93822955Y-70739093D01*
X93939446Y-70727832D01*
X94096997Y-70721426D01*
X94309808Y-70718539D01*
X94592080Y-70717835D01*
X94615000Y-70717833D01*
X94907165Y-70718607D01*
X95132079Y-70721998D01*
X95307151Y-70729613D01*
X95449793Y-70743060D01*
X95577412Y-70763944D01*
X95707419Y-70793872D01*
X95846666Y-70831493D01*
X95994620Y-70877891D01*
X96204390Y-70950483D01*
X96459581Y-71043038D01*
X96743799Y-71149325D01*
X97040648Y-71263113D01*
X97333732Y-71378173D01*
X97606657Y-71488272D01*
X97843027Y-71587181D01*
X97899928Y-71611803D01*
X97925229Y-71583081D01*
X97947480Y-71472647D01*
X97966874Y-71279326D01*
X97975302Y-71155505D01*
X98041294Y-70464975D01*
X98152236Y-69797233D01*
X98305083Y-69158757D01*
X98496787Y-68556025D01*
X98724301Y-67995514D01*
X98984578Y-67483702D01*
X99274571Y-67027066D01*
X99591234Y-66632084D01*
X99931518Y-66305233D01*
X100292379Y-66052991D01*
X100403609Y-65993128D01*
X100534986Y-65929559D01*
X100641807Y-65888169D01*
X100748890Y-65864216D01*
X100881059Y-65852958D01*
X101063134Y-65849656D01*
X101155500Y-65849500D01*
X101366749Y-65851219D01*
X101366749Y-65851219D01*
G37*
X101366749Y-65851219D02*
X101516583Y-65859055D01*
X101628225Y-65877024D01*
X101724901Y-65909143D01*
X101829834Y-65959429D01*
X101848949Y-65969433D01*
X102157001Y-66179101D01*
X102431197Y-66465068D01*
X102670730Y-66825681D01*
X102874791Y-67259288D01*
X103042575Y-67764238D01*
X103173273Y-68338879D01*
X103248763Y-68832889D01*
X103269127Y-69061713D01*
X103283034Y-69354257D01*
X103290637Y-69690546D01*
X103292090Y-70050609D01*
X103287549Y-70414473D01*
X103277168Y-70762164D01*
X103261100Y-71073709D01*
X103239501Y-71329136D01*
X103228791Y-71415062D01*
X103129305Y-71962050D01*
X102989720Y-72501374D01*
X102814770Y-73024095D01*
X102609189Y-73521274D01*
X102377710Y-73983971D01*
X102125068Y-74403248D01*
X101855996Y-74770166D01*
X101575228Y-75075786D01*
X101287498Y-75311169D01*
X101109448Y-75417021D01*
X100944481Y-75490558D01*
X100786657Y-75533439D01*
X100596573Y-75555217D01*
X100522711Y-75559279D01*
X100324569Y-75560246D01*
X100124814Y-75548069D01*
X99965772Y-75525372D01*
X99962087Y-75524559D01*
X99831229Y-75502102D01*
X99697015Y-75496959D01*
X99532587Y-75509732D01*
X99324877Y-75538864D01*
X99090096Y-75572707D01*
X98832836Y-75603972D01*
X98542913Y-75633532D01*
X98210141Y-75662259D01*
X97824338Y-75691024D01*
X97375318Y-75720701D01*
X96852897Y-75752161D01*
X96795167Y-75755499D01*
X96289145Y-75782655D01*
X95859836Y-75801073D01*
X95499738Y-75810747D01*
X95201346Y-75811669D01*
X94957159Y-75803831D01*
X94759675Y-75787227D01*
X94601390Y-75761848D01*
X94563708Y-75753323D01*
X94232803Y-75643411D01*
X93913511Y-75482312D01*
X93622012Y-75281994D01*
X93374485Y-75054425D01*
X93187111Y-74811574D01*
X93119673Y-74685134D01*
X93040232Y-74499985D01*
X92978570Y-74331531D01*
X92932484Y-74164877D01*
X92899772Y-73985128D01*
X92878234Y-73777390D01*
X92865667Y-73526768D01*
X92859869Y-73218368D01*
X92858625Y-72919167D01*
X92863237Y-72466201D01*
X92879544Y-72088645D01*
X92910560Y-71777685D01*
X92959297Y-71524511D01*
X93028766Y-71320312D01*
X93121981Y-71156274D01*
X93241953Y-71023588D01*
X93391696Y-70913440D01*
X93574220Y-70817021D01*
X93577834Y-70815353D01*
X93656349Y-70781518D01*
X93733322Y-70756543D01*
X93822955Y-70739093D01*
X93939446Y-70727832D01*
X94096997Y-70721426D01*
X94309808Y-70718539D01*
X94592080Y-70717835D01*
X94615000Y-70717833D01*
X94907165Y-70718607D01*
X95132079Y-70721998D01*
X95307151Y-70729613D01*
X95449793Y-70743060D01*
X95577412Y-70763944D01*
X95707419Y-70793872D01*
X95846666Y-70831493D01*
X95994620Y-70877891D01*
X96204390Y-70950483D01*
X96459581Y-71043038D01*
X96743799Y-71149325D01*
X97040648Y-71263113D01*
X97333732Y-71378173D01*
X97606657Y-71488272D01*
X97843027Y-71587181D01*
X97899928Y-71611803D01*
X97925229Y-71583081D01*
X97947480Y-71472647D01*
X97966874Y-71279326D01*
X97975302Y-71155505D01*
X98041294Y-70464975D01*
X98152236Y-69797233D01*
X98305083Y-69158757D01*
X98496787Y-68556025D01*
X98724301Y-67995514D01*
X98984578Y-67483702D01*
X99274571Y-67027066D01*
X99591234Y-66632084D01*
X99931518Y-66305233D01*
X100292379Y-66052991D01*
X100403609Y-65993128D01*
X100534986Y-65929559D01*
X100641807Y-65888169D01*
X100748890Y-65864216D01*
X100881059Y-65852958D01*
X101063134Y-65849656D01*
X101155500Y-65849500D01*
X101366749Y-65851219D01*
D13*
X100965000Y-120904000D03*
D14*
X100965000Y-123444000D03*
X98425000Y-120904000D03*
X98425000Y-123444000D03*
D10*
G36*
X75332298Y-98960891D02*
X77424307Y-98777864D01*
X77633480Y-101168731D01*
X75541471Y-101351758D01*
X75332298Y-98960891D01*
X75332298Y-98960891D01*
G37*
G36*
X75680920Y-102945669D02*
X77772929Y-102762642D01*
X77982102Y-105153509D01*
X75890093Y-105336536D01*
X75680920Y-102945669D01*
X75680920Y-102945669D01*
G37*
G36*
X77933387Y-89699463D02*
X79906741Y-90417705D01*
X79085893Y-92672967D01*
X77112539Y-91954725D01*
X77933387Y-89699463D01*
X77933387Y-89699463D01*
G37*
G36*
X76565307Y-93458233D02*
X78538661Y-94176475D01*
X77717813Y-96431737D01*
X75744459Y-95713495D01*
X76565307Y-93458233D01*
X76565307Y-93458233D01*
G37*
G36*
X83910916Y-82161749D02*
X85471520Y-83566923D01*
X83865606Y-85350471D01*
X82305002Y-83945297D01*
X83910916Y-82161749D01*
X83910916Y-82161749D01*
G37*
G36*
X81234394Y-85134329D02*
X82794998Y-86539503D01*
X81189084Y-88323051D01*
X79628480Y-86917877D01*
X81234394Y-85134329D01*
X81234394Y-85134329D01*
G37*
G36*
X92220036Y-77553598D02*
X93107535Y-79456844D01*
X90932396Y-80471128D01*
X90044897Y-78567882D01*
X92220036Y-77553598D01*
X92220036Y-77553598D01*
G37*
G36*
X88594804Y-79244072D02*
X89482303Y-81147318D01*
X87307164Y-82161602D01*
X86419665Y-80258356D01*
X88594804Y-79244072D01*
X88594804Y-79244072D01*
G37*
G36*
X111554419Y-80047534D02*
X110700272Y-81965980D01*
X108507763Y-80989812D01*
X109361910Y-79071366D01*
X111554419Y-80047534D01*
X111554419Y-80047534D01*
G37*
G36*
X107900237Y-78420588D02*
X107046090Y-80339034D01*
X104853581Y-79362866D01*
X105707728Y-77444420D01*
X107900237Y-78420588D01*
X107900237Y-78420588D01*
G37*
G36*
X118634467Y-87171215D02*
X117025773Y-88521069D01*
X115483083Y-86682563D01*
X117091777Y-85332709D01*
X118634467Y-87171215D01*
X118634467Y-87171215D01*
G37*
G36*
X116063317Y-84107037D02*
X114454623Y-85456891D01*
X112911933Y-83618385D01*
X114520627Y-82268531D01*
X116063317Y-84107037D01*
X116063317Y-84107037D01*
G37*
G36*
X122527941Y-95662695D02*
X120554587Y-96380937D01*
X119733739Y-94125675D01*
X121707093Y-93407433D01*
X122527941Y-95662695D01*
X122527941Y-95662695D01*
G37*
G36*
X121159861Y-91903925D02*
X119186507Y-92622167D01*
X118365659Y-90366905D01*
X120339013Y-89648663D01*
X121159861Y-91903925D01*
X121159861Y-91903925D01*
G37*
G36*
X122331507Y-105285736D02*
X120239498Y-105102709D01*
X120448671Y-102711842D01*
X122540680Y-102894869D01*
X122331507Y-105285736D01*
X122331507Y-105285736D01*
G37*
G36*
X122680129Y-101300958D02*
X120588120Y-101117931D01*
X120797293Y-98727064D01*
X122889302Y-98910091D01*
X122680129Y-101300958D01*
X122680129Y-101300958D01*
G37*
M02*
