G04 #@! TF.FileFunction,Legend,Bot*
%FSLAX46Y46*%
G04 Gerber Fmt 4.6, Leading zero omitted, Abs format (unit mm)*
G04 Created by KiCad (PCBNEW 4.0.7) date 06/13/18 09:16:30*
%MOMM*%
%LPD*%
G01*
G04 APERTURE LIST*
%ADD10C,0.100000*%
%ADD11C,0.250000*%
%ADD12C,0.125000*%
%ADD13C,0.300000*%
%ADD14C,0.152400*%
%ADD15C,0.120000*%
%ADD16C,0.050000*%
%ADD17C,2.100000*%
%ADD18O,2.100000X2.100000*%
%ADD19R,1.162000X1.543000*%
%ADD20R,2.000000X2.400000*%
G04 APERTURE END LIST*
D10*
D11*
X91956093Y-109530141D02*
X92432284Y-109530141D01*
X92432284Y-108530141D01*
X91479903Y-109530141D02*
X91575141Y-109482522D01*
X91622760Y-109434903D01*
X91670379Y-109339665D01*
X91670379Y-109053950D01*
X91622760Y-108958712D01*
X91575141Y-108911093D01*
X91479903Y-108863474D01*
X91337045Y-108863474D01*
X91241807Y-108911093D01*
X91194188Y-108958712D01*
X91146569Y-109053950D01*
X91146569Y-109339665D01*
X91194188Y-109434903D01*
X91241807Y-109482522D01*
X91337045Y-109530141D01*
X91479903Y-109530141D01*
X90575141Y-109530141D02*
X90670379Y-109482522D01*
X90717998Y-109434903D01*
X90765617Y-109339665D01*
X90765617Y-109053950D01*
X90717998Y-108958712D01*
X90670379Y-108911093D01*
X90575141Y-108863474D01*
X90432283Y-108863474D01*
X90337045Y-108911093D01*
X90289426Y-108958712D01*
X90241807Y-109053950D01*
X90241807Y-109339665D01*
X90289426Y-109434903D01*
X90337045Y-109482522D01*
X90432283Y-109530141D01*
X90575141Y-109530141D01*
X89813236Y-109530141D02*
X89813236Y-108530141D01*
X89717998Y-109149189D02*
X89432283Y-109530141D01*
X89432283Y-108863474D02*
X89813236Y-109244427D01*
X87813235Y-109530141D02*
X87813235Y-109006331D01*
X87860854Y-108911093D01*
X87956092Y-108863474D01*
X88146569Y-108863474D01*
X88241807Y-108911093D01*
X87813235Y-109482522D02*
X87908473Y-109530141D01*
X88146569Y-109530141D01*
X88241807Y-109482522D01*
X88289426Y-109387284D01*
X88289426Y-109292046D01*
X88241807Y-109196808D01*
X88146569Y-109149189D01*
X87908473Y-109149189D01*
X87813235Y-109101570D01*
X87479902Y-108863474D02*
X87098950Y-108863474D01*
X87337045Y-108530141D02*
X87337045Y-109387284D01*
X87289426Y-109482522D01*
X87194188Y-109530141D01*
X87098950Y-109530141D01*
X86003711Y-109530141D02*
X86003711Y-108863474D01*
X86003711Y-108958712D02*
X85956092Y-108911093D01*
X85860854Y-108863474D01*
X85717996Y-108863474D01*
X85622758Y-108911093D01*
X85575139Y-109006331D01*
X85575139Y-109530141D01*
X85575139Y-109006331D02*
X85527520Y-108911093D01*
X85432282Y-108863474D01*
X85289425Y-108863474D01*
X85194187Y-108911093D01*
X85146568Y-109006331D01*
X85146568Y-109530141D01*
X84289425Y-109482522D02*
X84384663Y-109530141D01*
X84575140Y-109530141D01*
X84670378Y-109482522D01*
X84717997Y-109387284D01*
X84717997Y-109006331D01*
X84670378Y-108911093D01*
X84575140Y-108863474D01*
X84384663Y-108863474D01*
X84289425Y-108911093D01*
X84241806Y-109006331D01*
X84241806Y-109101570D01*
X84717997Y-109196808D01*
X83813235Y-109434903D02*
X83765616Y-109482522D01*
X83813235Y-109530141D01*
X83860854Y-109482522D01*
X83813235Y-109434903D01*
X83813235Y-109530141D01*
X83813235Y-109149189D02*
X83860854Y-108577760D01*
X83813235Y-108530141D01*
X83765616Y-108577760D01*
X83813235Y-109149189D01*
X83813235Y-108530141D01*
D12*
X101702904Y-126153690D02*
X101702904Y-125653690D01*
X101536238Y-126010833D01*
X101369571Y-125653690D01*
X101369571Y-126153690D01*
X101131475Y-126153690D02*
X101131475Y-125820357D01*
X101131475Y-125915595D02*
X101107666Y-125867976D01*
X101083856Y-125844167D01*
X101036237Y-125820357D01*
X100988618Y-125820357D01*
X100440999Y-126153690D02*
X100440999Y-125653690D01*
X100274333Y-126010833D01*
X100107666Y-125653690D01*
X100107666Y-126153690D01*
X99679094Y-126129881D02*
X99726713Y-126153690D01*
X99821951Y-126153690D01*
X99869570Y-126129881D01*
X99893380Y-126082262D01*
X99893380Y-125891786D01*
X99869570Y-125844167D01*
X99821951Y-125820357D01*
X99726713Y-125820357D01*
X99679094Y-125844167D01*
X99655285Y-125891786D01*
X99655285Y-125939405D01*
X99893380Y-125987024D01*
X99250523Y-126129881D02*
X99298142Y-126153690D01*
X99393380Y-126153690D01*
X99440999Y-126129881D01*
X99464809Y-126082262D01*
X99464809Y-125891786D01*
X99440999Y-125844167D01*
X99393380Y-125820357D01*
X99298142Y-125820357D01*
X99250523Y-125844167D01*
X99226714Y-125891786D01*
X99226714Y-125939405D01*
X99464809Y-125987024D01*
X99036238Y-126129881D02*
X98988619Y-126153690D01*
X98893381Y-126153690D01*
X98845762Y-126129881D01*
X98821952Y-126082262D01*
X98821952Y-126058452D01*
X98845762Y-126010833D01*
X98893381Y-125987024D01*
X98964809Y-125987024D01*
X99012428Y-125963214D01*
X99036238Y-125915595D01*
X99036238Y-125891786D01*
X99012428Y-125844167D01*
X98964809Y-125820357D01*
X98893381Y-125820357D01*
X98845762Y-125844167D01*
X98417190Y-126129881D02*
X98464809Y-126153690D01*
X98560047Y-126153690D01*
X98607666Y-126129881D01*
X98631476Y-126082262D01*
X98631476Y-125891786D01*
X98607666Y-125844167D01*
X98560047Y-125820357D01*
X98464809Y-125820357D01*
X98417190Y-125844167D01*
X98393381Y-125891786D01*
X98393381Y-125939405D01*
X98631476Y-125987024D01*
X97988619Y-126129881D02*
X98036238Y-126153690D01*
X98131476Y-126153690D01*
X98179095Y-126129881D01*
X98202905Y-126082262D01*
X98202905Y-125891786D01*
X98179095Y-125844167D01*
X98131476Y-125820357D01*
X98036238Y-125820357D01*
X97988619Y-125844167D01*
X97964810Y-125891786D01*
X97964810Y-125939405D01*
X98202905Y-125987024D01*
X97750524Y-126153690D02*
X97750524Y-125653690D01*
X97702905Y-125963214D02*
X97560048Y-126153690D01*
X97560048Y-125820357D02*
X97750524Y-126010833D01*
X97369572Y-126129881D02*
X97321953Y-126153690D01*
X97226715Y-126153690D01*
X97179096Y-126129881D01*
X97155286Y-126082262D01*
X97155286Y-126058452D01*
X97179096Y-126010833D01*
X97226715Y-125987024D01*
X97298143Y-125987024D01*
X97345762Y-125963214D01*
X97369572Y-125915595D01*
X97369572Y-125891786D01*
X97345762Y-125844167D01*
X97298143Y-125820357D01*
X97226715Y-125820357D01*
X97179096Y-125844167D01*
X100226713Y-127028690D02*
X100393380Y-126790595D01*
X100512427Y-127028690D02*
X100512427Y-126528690D01*
X100321951Y-126528690D01*
X100274332Y-126552500D01*
X100250523Y-126576310D01*
X100226713Y-126623929D01*
X100226713Y-126695357D01*
X100250523Y-126742976D01*
X100274332Y-126766786D01*
X100321951Y-126790595D01*
X100512427Y-126790595D01*
X99821951Y-127004881D02*
X99869570Y-127028690D01*
X99964808Y-127028690D01*
X100012427Y-127004881D01*
X100036237Y-126957262D01*
X100036237Y-126766786D01*
X100012427Y-126719167D01*
X99964808Y-126695357D01*
X99869570Y-126695357D01*
X99821951Y-126719167D01*
X99798142Y-126766786D01*
X99798142Y-126814405D01*
X100036237Y-126862024D01*
X99631475Y-126695357D02*
X99512428Y-127028690D01*
X99393380Y-126695357D01*
X99202904Y-126981071D02*
X99179095Y-127004881D01*
X99202904Y-127028690D01*
X99226714Y-127004881D01*
X99202904Y-126981071D01*
X99202904Y-127028690D01*
X98583857Y-126766786D02*
X98417191Y-126766786D01*
X98345762Y-127028690D02*
X98583857Y-127028690D01*
X98583857Y-126528690D01*
X98345762Y-126528690D01*
D13*
X104321857Y-92769571D02*
X103250428Y-92769571D01*
X103893285Y-92126714D02*
X104321857Y-94055286D01*
X103393285Y-93412429D02*
X104464714Y-93412429D01*
X103821857Y-94055286D02*
X103393285Y-92126714D01*
X102750428Y-93769571D02*
X102750428Y-92269571D01*
X102750428Y-92841000D02*
X102607571Y-92769571D01*
X102321857Y-92769571D01*
X102179000Y-92841000D01*
X102107571Y-92912429D01*
X102036142Y-93055286D01*
X102036142Y-93483857D01*
X102107571Y-93626714D01*
X102179000Y-93698143D01*
X102321857Y-93769571D01*
X102607571Y-93769571D01*
X102750428Y-93698143D01*
X100750428Y-93769571D02*
X100750428Y-92983857D01*
X100821857Y-92841000D01*
X100964714Y-92769571D01*
X101250428Y-92769571D01*
X101393285Y-92841000D01*
X100750428Y-93698143D02*
X100893285Y-93769571D01*
X101250428Y-93769571D01*
X101393285Y-93698143D01*
X101464714Y-93555286D01*
X101464714Y-93412429D01*
X101393285Y-93269571D01*
X101250428Y-93198143D01*
X100893285Y-93198143D01*
X100750428Y-93126714D01*
X99393285Y-93769571D02*
X99393285Y-92269571D01*
X99393285Y-93698143D02*
X99536142Y-93769571D01*
X99821856Y-93769571D01*
X99964714Y-93698143D01*
X100036142Y-93626714D01*
X100107571Y-93483857D01*
X100107571Y-93055286D01*
X100036142Y-92912429D01*
X99964714Y-92841000D01*
X99821856Y-92769571D01*
X99536142Y-92769571D01*
X99393285Y-92841000D01*
X98036142Y-92769571D02*
X98036142Y-93983857D01*
X98107571Y-94126714D01*
X98178999Y-94198143D01*
X98321856Y-94269571D01*
X98536142Y-94269571D01*
X98678999Y-94198143D01*
X98036142Y-93698143D02*
X98178999Y-93769571D01*
X98464713Y-93769571D01*
X98607571Y-93698143D01*
X98678999Y-93626714D01*
X98750428Y-93483857D01*
X98750428Y-93055286D01*
X98678999Y-92912429D01*
X98607571Y-92841000D01*
X98464713Y-92769571D01*
X98178999Y-92769571D01*
X98036142Y-92841000D01*
X96750428Y-93698143D02*
X96893285Y-93769571D01*
X97178999Y-93769571D01*
X97321856Y-93698143D01*
X97393285Y-93555286D01*
X97393285Y-92983857D01*
X97321856Y-92841000D01*
X97178999Y-92769571D01*
X96893285Y-92769571D01*
X96750428Y-92841000D01*
X96678999Y-92983857D01*
X96678999Y-93126714D01*
X97393285Y-93269571D01*
X95821856Y-93769571D02*
X95964714Y-93698143D01*
X96036142Y-93555286D01*
X96036142Y-92269571D01*
X95250428Y-93769571D02*
X95250428Y-92769571D01*
X95250428Y-92269571D02*
X95321857Y-92341000D01*
X95250428Y-92412429D01*
X95179000Y-92341000D01*
X95250428Y-92269571D01*
X95250428Y-92412429D01*
X94750428Y-92769571D02*
X94178999Y-92769571D01*
X94536142Y-93769571D02*
X94536142Y-92483857D01*
X94464714Y-92341000D01*
X94321856Y-92269571D01*
X94178999Y-92269571D01*
X93107571Y-93698143D02*
X93250428Y-93769571D01*
X93536142Y-93769571D01*
X93678999Y-93698143D01*
X93750428Y-93555286D01*
X93750428Y-92983857D01*
X93678999Y-92841000D01*
X93536142Y-92769571D01*
X93250428Y-92769571D01*
X93107571Y-92841000D01*
X93036142Y-92983857D01*
X93036142Y-93126714D01*
X93750428Y-93269571D01*
D10*
X91905554Y-116983191D02*
X91798411Y-117018906D01*
X91619840Y-117018906D01*
X91548411Y-116983191D01*
X91512697Y-116947477D01*
X91476982Y-116876049D01*
X91476982Y-116804620D01*
X91512697Y-116733191D01*
X91548411Y-116697477D01*
X91619840Y-116661763D01*
X91762697Y-116626049D01*
X91834125Y-116590334D01*
X91869840Y-116554620D01*
X91905554Y-116483191D01*
X91905554Y-116411763D01*
X91869840Y-116340334D01*
X91834125Y-116304620D01*
X91762697Y-116268906D01*
X91584125Y-116268906D01*
X91476982Y-116304620D01*
X91155554Y-116518906D02*
X91155554Y-117268906D01*
X91155554Y-116554620D02*
X91084125Y-116518906D01*
X90941268Y-116518906D01*
X90869839Y-116554620D01*
X90834125Y-116590334D01*
X90798411Y-116661763D01*
X90798411Y-116876049D01*
X90834125Y-116947477D01*
X90869839Y-116983191D01*
X90941268Y-117018906D01*
X91084125Y-117018906D01*
X91155554Y-116983191D01*
X90191268Y-116983191D02*
X90262697Y-117018906D01*
X90405554Y-117018906D01*
X90476983Y-116983191D01*
X90512697Y-116911763D01*
X90512697Y-116626049D01*
X90476983Y-116554620D01*
X90405554Y-116518906D01*
X90262697Y-116518906D01*
X90191268Y-116554620D01*
X90155554Y-116626049D01*
X90155554Y-116697477D01*
X90512697Y-116768906D01*
X89512697Y-116983191D02*
X89584126Y-117018906D01*
X89726983Y-117018906D01*
X89798411Y-116983191D01*
X89834126Y-116947477D01*
X89869840Y-116876049D01*
X89869840Y-116661763D01*
X89834126Y-116590334D01*
X89798411Y-116554620D01*
X89726983Y-116518906D01*
X89584126Y-116518906D01*
X89512697Y-116554620D01*
X89191269Y-117018906D02*
X89191269Y-116518906D01*
X89191269Y-116268906D02*
X89226983Y-116304620D01*
X89191269Y-116340334D01*
X89155554Y-116304620D01*
X89191269Y-116268906D01*
X89191269Y-116340334D01*
X88512697Y-117018906D02*
X88512697Y-116626049D01*
X88548411Y-116554620D01*
X88619840Y-116518906D01*
X88762697Y-116518906D01*
X88834126Y-116554620D01*
X88512697Y-116983191D02*
X88584126Y-117018906D01*
X88762697Y-117018906D01*
X88834126Y-116983191D01*
X88869840Y-116911763D01*
X88869840Y-116840334D01*
X88834126Y-116768906D01*
X88762697Y-116733191D01*
X88584126Y-116733191D01*
X88512697Y-116697477D01*
X88048412Y-117018906D02*
X88119840Y-116983191D01*
X88155555Y-116911763D01*
X88155555Y-116268906D01*
X87298411Y-116268906D02*
X86869840Y-116268906D01*
X87084126Y-117018906D02*
X87084126Y-116268906D01*
X86619840Y-117018906D02*
X86619840Y-116268906D01*
X86298411Y-117018906D02*
X86298411Y-116626049D01*
X86334125Y-116554620D01*
X86405554Y-116518906D01*
X86512697Y-116518906D01*
X86584125Y-116554620D01*
X86619840Y-116590334D01*
X85619840Y-117018906D02*
X85619840Y-116626049D01*
X85655554Y-116554620D01*
X85726983Y-116518906D01*
X85869840Y-116518906D01*
X85941269Y-116554620D01*
X85619840Y-116983191D02*
X85691269Y-117018906D01*
X85869840Y-117018906D01*
X85941269Y-116983191D01*
X85976983Y-116911763D01*
X85976983Y-116840334D01*
X85941269Y-116768906D01*
X85869840Y-116733191D01*
X85691269Y-116733191D01*
X85619840Y-116697477D01*
X85262698Y-116518906D02*
X85262698Y-117018906D01*
X85262698Y-116590334D02*
X85226983Y-116554620D01*
X85155555Y-116518906D01*
X85048412Y-116518906D01*
X84976983Y-116554620D01*
X84941269Y-116626049D01*
X84941269Y-117018906D01*
X84584127Y-117018906D02*
X84584127Y-116268906D01*
X84512698Y-116733191D02*
X84298412Y-117018906D01*
X84298412Y-116518906D02*
X84584127Y-116804620D01*
X84012698Y-116983191D02*
X83941269Y-117018906D01*
X83798412Y-117018906D01*
X83726984Y-116983191D01*
X83691269Y-116911763D01*
X83691269Y-116876049D01*
X83726984Y-116804620D01*
X83798412Y-116768906D01*
X83905555Y-116768906D01*
X83976984Y-116733191D01*
X84012698Y-116661763D01*
X84012698Y-116626049D01*
X83976984Y-116554620D01*
X83905555Y-116518906D01*
X83798412Y-116518906D01*
X83726984Y-116554620D01*
X83369841Y-116947477D02*
X83334126Y-116983191D01*
X83369841Y-117018906D01*
X83405555Y-116983191D01*
X83369841Y-116947477D01*
X83369841Y-117018906D01*
X83369841Y-116554620D02*
X83334126Y-116590334D01*
X83369841Y-116626049D01*
X83405555Y-116590334D01*
X83369841Y-116554620D01*
X83369841Y-116626049D01*
X89869840Y-118029620D02*
X89512697Y-118029620D01*
X89941268Y-118243906D02*
X89691268Y-117493906D01*
X89441268Y-118243906D01*
X89191269Y-118243906D02*
X89191269Y-117493906D01*
X88762697Y-118243906D01*
X88762697Y-117493906D01*
X88405555Y-118243906D02*
X88405555Y-117493906D01*
X88226983Y-117493906D01*
X88119840Y-117529620D01*
X88048412Y-117601049D01*
X88012697Y-117672477D01*
X87976983Y-117815334D01*
X87976983Y-117922477D01*
X88012697Y-118065334D01*
X88048412Y-118136763D01*
X88119840Y-118208191D01*
X88226983Y-118243906D01*
X88405555Y-118243906D01*
X87655555Y-118172477D02*
X87619840Y-118208191D01*
X87655555Y-118243906D01*
X87691269Y-118208191D01*
X87655555Y-118172477D01*
X87655555Y-118243906D01*
X87655555Y-117958191D02*
X87691269Y-117529620D01*
X87655555Y-117493906D01*
X87619840Y-117529620D01*
X87655555Y-117958191D01*
X87655555Y-117493906D01*
X87369840Y-117493906D02*
X86869840Y-118243906D01*
X86869840Y-117493906D02*
X87369840Y-118243906D01*
X86441268Y-117493906D02*
X86298411Y-117493906D01*
X86226983Y-117529620D01*
X86155554Y-117601049D01*
X86119840Y-117743906D01*
X86119840Y-117993906D01*
X86155554Y-118136763D01*
X86226983Y-118208191D01*
X86298411Y-118243906D01*
X86441268Y-118243906D01*
X86512697Y-118208191D01*
X86584126Y-118136763D01*
X86619840Y-117993906D01*
X86619840Y-117743906D01*
X86584126Y-117601049D01*
X86512697Y-117529620D01*
X86441268Y-117493906D01*
X85369840Y-118243906D02*
X85619840Y-117886763D01*
X85798412Y-118243906D02*
X85798412Y-117493906D01*
X85512697Y-117493906D01*
X85441269Y-117529620D01*
X85405554Y-117565334D01*
X85369840Y-117636763D01*
X85369840Y-117743906D01*
X85405554Y-117815334D01*
X85441269Y-117851049D01*
X85512697Y-117886763D01*
X85798412Y-117886763D01*
X113585048Y-113462261D02*
X113585048Y-112462261D01*
X113346953Y-112462261D01*
X113204095Y-112509880D01*
X113108857Y-112605118D01*
X113061238Y-112700356D01*
X113013619Y-112890832D01*
X113013619Y-113033690D01*
X113061238Y-113224166D01*
X113108857Y-113319404D01*
X113204095Y-113414642D01*
X113346953Y-113462261D01*
X113585048Y-113462261D01*
X112204095Y-113414642D02*
X112299333Y-113462261D01*
X112489810Y-113462261D01*
X112585048Y-113414642D01*
X112632667Y-113319404D01*
X112632667Y-112938451D01*
X112585048Y-112843213D01*
X112489810Y-112795594D01*
X112299333Y-112795594D01*
X112204095Y-112843213D01*
X112156476Y-112938451D01*
X112156476Y-113033690D01*
X112632667Y-113128928D01*
X111775524Y-113414642D02*
X111680286Y-113462261D01*
X111489810Y-113462261D01*
X111394571Y-113414642D01*
X111346952Y-113319404D01*
X111346952Y-113271785D01*
X111394571Y-113176547D01*
X111489810Y-113128928D01*
X111632667Y-113128928D01*
X111727905Y-113081309D01*
X111775524Y-112986070D01*
X111775524Y-112938451D01*
X111727905Y-112843213D01*
X111632667Y-112795594D01*
X111489810Y-112795594D01*
X111394571Y-112843213D01*
X110918381Y-113462261D02*
X110918381Y-112795594D01*
X110918381Y-112462261D02*
X110966000Y-112509880D01*
X110918381Y-112557499D01*
X110870762Y-112509880D01*
X110918381Y-112462261D01*
X110918381Y-112557499D01*
X110013619Y-112795594D02*
X110013619Y-113605118D01*
X110061238Y-113700356D01*
X110108857Y-113747975D01*
X110204096Y-113795594D01*
X110346953Y-113795594D01*
X110442191Y-113747975D01*
X110013619Y-113414642D02*
X110108857Y-113462261D01*
X110299334Y-113462261D01*
X110394572Y-113414642D01*
X110442191Y-113367023D01*
X110489810Y-113271785D01*
X110489810Y-112986070D01*
X110442191Y-112890832D01*
X110394572Y-112843213D01*
X110299334Y-112795594D01*
X110108857Y-112795594D01*
X110013619Y-112843213D01*
X109537429Y-112795594D02*
X109537429Y-113462261D01*
X109537429Y-112890832D02*
X109489810Y-112843213D01*
X109394572Y-112795594D01*
X109251714Y-112795594D01*
X109156476Y-112843213D01*
X109108857Y-112938451D01*
X109108857Y-113462261D01*
X108251714Y-113414642D02*
X108346952Y-113462261D01*
X108537429Y-113462261D01*
X108632667Y-113414642D01*
X108680286Y-113319404D01*
X108680286Y-112938451D01*
X108632667Y-112843213D01*
X108537429Y-112795594D01*
X108346952Y-112795594D01*
X108251714Y-112843213D01*
X108204095Y-112938451D01*
X108204095Y-113033690D01*
X108680286Y-113128928D01*
X107346952Y-113462261D02*
X107346952Y-112462261D01*
X107346952Y-113414642D02*
X107442190Y-113462261D01*
X107632667Y-113462261D01*
X107727905Y-113414642D01*
X107775524Y-113367023D01*
X107823143Y-113271785D01*
X107823143Y-112986070D01*
X107775524Y-112890832D01*
X107727905Y-112843213D01*
X107632667Y-112795594D01*
X107442190Y-112795594D01*
X107346952Y-112843213D01*
X105775523Y-112938451D02*
X105632666Y-112986070D01*
X105585047Y-113033690D01*
X105537428Y-113128928D01*
X105537428Y-113271785D01*
X105585047Y-113367023D01*
X105632666Y-113414642D01*
X105727904Y-113462261D01*
X106108857Y-113462261D01*
X106108857Y-112462261D01*
X105775523Y-112462261D01*
X105680285Y-112509880D01*
X105632666Y-112557499D01*
X105585047Y-112652737D01*
X105585047Y-112747975D01*
X105632666Y-112843213D01*
X105680285Y-112890832D01*
X105775523Y-112938451D01*
X106108857Y-112938451D01*
X105204095Y-112795594D02*
X104966000Y-113462261D01*
X104727904Y-112795594D02*
X104966000Y-113462261D01*
X105061238Y-113700356D01*
X105108857Y-113747975D01*
X105204095Y-113795594D01*
X104346952Y-113367023D02*
X104299333Y-113414642D01*
X104346952Y-113462261D01*
X104394571Y-113414642D01*
X104346952Y-113367023D01*
X104346952Y-113462261D01*
X104346952Y-112843213D02*
X104299333Y-112890832D01*
X104346952Y-112938451D01*
X104394571Y-112890832D01*
X104346952Y-112843213D01*
X104346952Y-112938451D01*
X111751714Y-115062261D02*
X111751714Y-114062261D01*
X111751714Y-115014642D02*
X111846952Y-115062261D01*
X112037429Y-115062261D01*
X112132667Y-115014642D01*
X112180286Y-114967023D01*
X112227905Y-114871785D01*
X112227905Y-114586070D01*
X112180286Y-114490832D01*
X112132667Y-114443213D01*
X112037429Y-114395594D01*
X111846952Y-114395594D01*
X111751714Y-114443213D01*
X110846952Y-114395594D02*
X110846952Y-115062261D01*
X111085048Y-114014642D02*
X111323143Y-114728928D01*
X110704095Y-114728928D01*
X110323143Y-115062261D02*
X110323143Y-114395594D01*
X110323143Y-114586070D02*
X110275524Y-114490832D01*
X110227905Y-114443213D01*
X110132667Y-114395594D01*
X110037428Y-114395594D01*
X109704095Y-115062261D02*
X109704095Y-114062261D01*
X109608857Y-114681309D02*
X109323142Y-115062261D01*
X109323142Y-114395594D02*
X109704095Y-114776547D01*
X108989809Y-114395594D02*
X108799333Y-115062261D01*
X108608856Y-114586070D01*
X108418380Y-115062261D01*
X108227904Y-114395594D01*
X107942190Y-114395594D02*
X107704095Y-115062261D01*
X107465999Y-114395594D02*
X107704095Y-115062261D01*
X107799333Y-115300356D01*
X107846952Y-115347975D01*
X107942190Y-115395594D01*
X107085047Y-114395594D02*
X107085047Y-115062261D01*
X107085047Y-114490832D02*
X107037428Y-114443213D01*
X106942190Y-114395594D01*
X106799332Y-114395594D01*
X106704094Y-114443213D01*
X106656475Y-114538451D01*
X106656475Y-115062261D01*
X105751713Y-114395594D02*
X105751713Y-115205118D01*
X105799332Y-115300356D01*
X105846951Y-115347975D01*
X105942190Y-115395594D01*
X106085047Y-115395594D01*
X106180285Y-115347975D01*
X105751713Y-115014642D02*
X105846951Y-115062261D01*
X106037428Y-115062261D01*
X106132666Y-115014642D01*
X106180285Y-114967023D01*
X106227904Y-114871785D01*
X106227904Y-114586070D01*
X106180285Y-114490832D01*
X106132666Y-114443213D01*
X106037428Y-114395594D01*
X105846951Y-114395594D01*
X105751713Y-114443213D01*
X110942191Y-116614642D02*
X110799334Y-116662261D01*
X110561238Y-116662261D01*
X110466000Y-116614642D01*
X110418381Y-116567023D01*
X110370762Y-116471785D01*
X110370762Y-116376547D01*
X110418381Y-116281309D01*
X110466000Y-116233690D01*
X110561238Y-116186070D01*
X110751715Y-116138451D01*
X110846953Y-116090832D01*
X110894572Y-116043213D01*
X110942191Y-115947975D01*
X110942191Y-115852737D01*
X110894572Y-115757499D01*
X110846953Y-115709880D01*
X110751715Y-115662261D01*
X110513619Y-115662261D01*
X110370762Y-115709880D01*
X109942191Y-115995594D02*
X109942191Y-116995594D01*
X109942191Y-116043213D02*
X109846953Y-115995594D01*
X109656476Y-115995594D01*
X109561238Y-116043213D01*
X109513619Y-116090832D01*
X109466000Y-116186070D01*
X109466000Y-116471785D01*
X109513619Y-116567023D01*
X109561238Y-116614642D01*
X109656476Y-116662261D01*
X109846953Y-116662261D01*
X109942191Y-116614642D01*
X108608857Y-116662261D02*
X108608857Y-116138451D01*
X108656476Y-116043213D01*
X108751714Y-115995594D01*
X108942191Y-115995594D01*
X109037429Y-116043213D01*
X108608857Y-116614642D02*
X108704095Y-116662261D01*
X108942191Y-116662261D01*
X109037429Y-116614642D01*
X109085048Y-116519404D01*
X109085048Y-116424166D01*
X109037429Y-116328928D01*
X108942191Y-116281309D01*
X108704095Y-116281309D01*
X108608857Y-116233690D01*
X108132667Y-116662261D02*
X108132667Y-115995594D01*
X108132667Y-116186070D02*
X108085048Y-116090832D01*
X108037429Y-116043213D01*
X107942191Y-115995594D01*
X107846952Y-115995594D01*
X107608857Y-115662261D02*
X106942190Y-116662261D01*
X106942190Y-115662261D02*
X107608857Y-116662261D01*
D14*
X90013480Y-104473700D02*
X90013480Y-97875730D01*
X90013480Y-97875730D02*
X90915510Y-96973700D01*
X90915510Y-96973700D02*
X107913480Y-96973700D01*
X107913480Y-96973700D02*
X107913480Y-104473700D01*
X107913480Y-104473700D02*
X90013480Y-104473700D01*
D10*
X90069480Y-96548700D02*
G75*
G03X90069480Y-96548700I-381000J0D01*
G01*
D15*
X83714400Y-102917500D02*
X83714400Y-100917500D01*
X85754400Y-100917500D02*
X85754400Y-102917500D01*
D10*
X103085000Y-119917333D02*
X102985000Y-119950667D01*
X102818333Y-119950667D01*
X102751666Y-119917333D01*
X102718333Y-119884000D01*
X102685000Y-119817333D01*
X102685000Y-119750667D01*
X102718333Y-119684000D01*
X102751666Y-119650667D01*
X102818333Y-119617333D01*
X102951666Y-119584000D01*
X103018333Y-119550667D01*
X103051666Y-119517333D01*
X103085000Y-119450667D01*
X103085000Y-119384000D01*
X103051666Y-119317333D01*
X103018333Y-119284000D01*
X102951666Y-119250667D01*
X102785000Y-119250667D01*
X102685000Y-119284000D01*
X102384999Y-119950667D02*
X102384999Y-119250667D01*
X102218333Y-119250667D01*
X102118333Y-119284000D01*
X102051666Y-119350667D01*
X102018333Y-119417333D01*
X101984999Y-119550667D01*
X101984999Y-119650667D01*
X102018333Y-119784000D01*
X102051666Y-119850667D01*
X102118333Y-119917333D01*
X102218333Y-119950667D01*
X102384999Y-119950667D01*
X101718333Y-119750667D02*
X101384999Y-119750667D01*
X101784999Y-119950667D02*
X101551666Y-119250667D01*
X101318333Y-119950667D01*
X103068334Y-124997333D02*
X102968334Y-125030667D01*
X102801667Y-125030667D01*
X102735000Y-124997333D01*
X102701667Y-124964000D01*
X102668334Y-124897333D01*
X102668334Y-124830667D01*
X102701667Y-124764000D01*
X102735000Y-124730667D01*
X102801667Y-124697333D01*
X102935000Y-124664000D01*
X103001667Y-124630667D01*
X103035000Y-124597333D01*
X103068334Y-124530667D01*
X103068334Y-124464000D01*
X103035000Y-124397333D01*
X103001667Y-124364000D01*
X102935000Y-124330667D01*
X102768334Y-124330667D01*
X102668334Y-124364000D01*
X101968333Y-124964000D02*
X102001667Y-124997333D01*
X102101667Y-125030667D01*
X102168333Y-125030667D01*
X102268333Y-124997333D01*
X102335000Y-124930667D01*
X102368333Y-124864000D01*
X102401667Y-124730667D01*
X102401667Y-124630667D01*
X102368333Y-124497333D01*
X102335000Y-124430667D01*
X102268333Y-124364000D01*
X102168333Y-124330667D01*
X102101667Y-124330667D01*
X102001667Y-124364000D01*
X101968333Y-124397333D01*
X101335000Y-125030667D02*
X101668333Y-125030667D01*
X101668333Y-124330667D01*
X97688333Y-124364000D02*
X97754999Y-124330667D01*
X97854999Y-124330667D01*
X97954999Y-124364000D01*
X98021666Y-124430667D01*
X98054999Y-124497333D01*
X98088333Y-124630667D01*
X98088333Y-124730667D01*
X98054999Y-124864000D01*
X98021666Y-124930667D01*
X97954999Y-124997333D01*
X97854999Y-125030667D01*
X97788333Y-125030667D01*
X97688333Y-124997333D01*
X97654999Y-124964000D01*
X97654999Y-124730667D01*
X97788333Y-124730667D01*
X97354999Y-125030667D02*
X97354999Y-124330667D01*
X96954999Y-125030667D01*
X96954999Y-124330667D01*
X96621666Y-125030667D02*
X96621666Y-124330667D01*
X96455000Y-124330667D01*
X96355000Y-124364000D01*
X96288333Y-124430667D01*
X96255000Y-124497333D01*
X96221666Y-124630667D01*
X96221666Y-124730667D01*
X96255000Y-124864000D01*
X96288333Y-124930667D01*
X96355000Y-124997333D01*
X96455000Y-125030667D01*
X96621666Y-125030667D01*
X98088333Y-119250667D02*
X97855000Y-119950667D01*
X97621667Y-119250667D01*
X96988333Y-119884000D02*
X97021667Y-119917333D01*
X97121667Y-119950667D01*
X97188333Y-119950667D01*
X97288333Y-119917333D01*
X97355000Y-119850667D01*
X97388333Y-119784000D01*
X97421667Y-119650667D01*
X97421667Y-119550667D01*
X97388333Y-119417333D01*
X97355000Y-119350667D01*
X97288333Y-119284000D01*
X97188333Y-119250667D01*
X97121667Y-119250667D01*
X97021667Y-119284000D01*
X96988333Y-119317333D01*
X96288333Y-119884000D02*
X96321667Y-119917333D01*
X96421667Y-119950667D01*
X96488333Y-119950667D01*
X96588333Y-119917333D01*
X96655000Y-119850667D01*
X96688333Y-119784000D01*
X96721667Y-119650667D01*
X96721667Y-119550667D01*
X96688333Y-119417333D01*
X96655000Y-119350667D01*
X96588333Y-119284000D01*
X96488333Y-119250667D01*
X96421667Y-119250667D01*
X96321667Y-119284000D01*
X96288333Y-119317333D01*
D16*
X96925360Y-98435260D02*
X96223539Y-98435260D01*
X96724840Y-98669201D01*
X96223539Y-98903141D01*
X96925360Y-98903141D01*
X96858520Y-99638382D02*
X96891940Y-99604962D01*
X96925360Y-99504702D01*
X96925360Y-99437862D01*
X96891940Y-99337601D01*
X96825100Y-99270761D01*
X96758260Y-99237341D01*
X96624580Y-99203921D01*
X96524319Y-99203921D01*
X96390639Y-99237341D01*
X96323799Y-99270761D01*
X96256959Y-99337601D01*
X96223539Y-99437862D01*
X96223539Y-99504702D01*
X96256959Y-99604962D01*
X96290379Y-99638382D01*
X96925360Y-99939162D02*
X96223539Y-99939162D01*
X96223539Y-100206523D01*
X96256959Y-100273363D01*
X96290379Y-100306783D01*
X96357219Y-100340203D01*
X96457479Y-100340203D01*
X96524319Y-100306783D01*
X96557739Y-100273363D01*
X96591159Y-100206523D01*
X96591159Y-99939162D01*
X96290379Y-100607563D02*
X96256959Y-100640983D01*
X96223539Y-100707823D01*
X96223539Y-100874924D01*
X96256959Y-100941764D01*
X96290379Y-100975184D01*
X96357219Y-101008604D01*
X96424059Y-101008604D01*
X96524319Y-100975184D01*
X96925360Y-100574143D01*
X96925360Y-101008604D01*
X96223539Y-101242544D02*
X96223539Y-101677005D01*
X96490899Y-101443064D01*
X96490899Y-101543325D01*
X96524319Y-101610165D01*
X96557739Y-101643585D01*
X96624580Y-101677005D01*
X96791680Y-101677005D01*
X96858520Y-101643585D01*
X96891940Y-101610165D01*
X96925360Y-101543325D01*
X96925360Y-101342804D01*
X96891940Y-101275964D01*
X96858520Y-101242544D01*
X96223539Y-102111465D02*
X96223539Y-102178306D01*
X96256959Y-102245146D01*
X96290379Y-102278566D01*
X96357219Y-102311986D01*
X96490899Y-102345406D01*
X96658000Y-102345406D01*
X96791680Y-102311986D01*
X96858520Y-102278566D01*
X96891940Y-102245146D01*
X96925360Y-102178306D01*
X96925360Y-102111465D01*
X96891940Y-102044625D01*
X96858520Y-102011205D01*
X96791680Y-101977785D01*
X96658000Y-101944365D01*
X96490899Y-101944365D01*
X96357219Y-101977785D01*
X96290379Y-102011205D01*
X96256959Y-102044625D01*
X96223539Y-102111465D01*
X96925360Y-103013807D02*
X96925360Y-102612766D01*
X96925360Y-102813286D02*
X96223539Y-102813286D01*
X96323799Y-102746446D01*
X96390639Y-102679606D01*
X96424059Y-102612766D01*
X96223539Y-103247747D02*
X96223539Y-103715628D01*
X96925360Y-103414847D01*
%LPC*%
D17*
X100965000Y-120904000D03*
D18*
X100965000Y-123444000D03*
X98425000Y-120904000D03*
X98425000Y-123444000D03*
D10*
G36*
X118634467Y-87171215D02*
X117025773Y-88521069D01*
X115483083Y-86682563D01*
X117091777Y-85332709D01*
X118634467Y-87171215D01*
X118634467Y-87171215D01*
G37*
G36*
X116063317Y-84107037D02*
X114454623Y-85456891D01*
X112911933Y-83618385D01*
X114520627Y-82268531D01*
X116063317Y-84107037D01*
X116063317Y-84107037D01*
G37*
G36*
X75332298Y-98960891D02*
X77424307Y-98777864D01*
X77633480Y-101168731D01*
X75541471Y-101351758D01*
X75332298Y-98960891D01*
X75332298Y-98960891D01*
G37*
G36*
X75680920Y-102945669D02*
X77772929Y-102762642D01*
X77982102Y-105153509D01*
X75890093Y-105336536D01*
X75680920Y-102945669D01*
X75680920Y-102945669D01*
G37*
G36*
X77933387Y-89699463D02*
X79906741Y-90417705D01*
X79085893Y-92672967D01*
X77112539Y-91954725D01*
X77933387Y-89699463D01*
X77933387Y-89699463D01*
G37*
G36*
X76565307Y-93458233D02*
X78538661Y-94176475D01*
X77717813Y-96431737D01*
X75744459Y-95713495D01*
X76565307Y-93458233D01*
X76565307Y-93458233D01*
G37*
G36*
X83910916Y-82161749D02*
X85471520Y-83566923D01*
X83865606Y-85350471D01*
X82305002Y-83945297D01*
X83910916Y-82161749D01*
X83910916Y-82161749D01*
G37*
G36*
X81234394Y-85134329D02*
X82794998Y-86539503D01*
X81189084Y-88323051D01*
X79628480Y-86917877D01*
X81234394Y-85134329D01*
X81234394Y-85134329D01*
G37*
G36*
X92220036Y-77553598D02*
X93107535Y-79456844D01*
X90932396Y-80471128D01*
X90044897Y-78567882D01*
X92220036Y-77553598D01*
X92220036Y-77553598D01*
G37*
G36*
X88594804Y-79244072D02*
X89482303Y-81147318D01*
X87307164Y-82161602D01*
X86419665Y-80258356D01*
X88594804Y-79244072D01*
X88594804Y-79244072D01*
G37*
G36*
X111554419Y-80047534D02*
X110700272Y-81965980D01*
X108507763Y-80989812D01*
X109361910Y-79071366D01*
X111554419Y-80047534D01*
X111554419Y-80047534D01*
G37*
G36*
X107900237Y-78420588D02*
X107046090Y-80339034D01*
X104853581Y-79362866D01*
X105707728Y-77444420D01*
X107900237Y-78420588D01*
X107900237Y-78420588D01*
G37*
G36*
X122527941Y-95662695D02*
X120554587Y-96380937D01*
X119733739Y-94125675D01*
X121707093Y-93407433D01*
X122527941Y-95662695D01*
X122527941Y-95662695D01*
G37*
G36*
X121159861Y-91903925D02*
X119186507Y-92622167D01*
X118365659Y-90366905D01*
X120339013Y-89648663D01*
X121159861Y-91903925D01*
X121159861Y-91903925D01*
G37*
G36*
X122331507Y-105285736D02*
X120239498Y-105102709D01*
X120448671Y-102711842D01*
X122540680Y-102894869D01*
X122331507Y-105285736D01*
X122331507Y-105285736D01*
G37*
G36*
X122680129Y-101300958D02*
X120588120Y-101117931D01*
X120797293Y-98727064D01*
X122889302Y-98910091D01*
X122680129Y-101300958D01*
X122680129Y-101300958D01*
G37*
D19*
X90708480Y-95973900D03*
X91978480Y-95973900D03*
X93248480Y-95973900D03*
X94518480Y-95973900D03*
X95788480Y-95973900D03*
X97058480Y-95973900D03*
X98328480Y-95973900D03*
X99598480Y-95973900D03*
X100868480Y-95973900D03*
X102138480Y-95973900D03*
X104678480Y-95973900D03*
X103408480Y-95973900D03*
X105948480Y-95973900D03*
X107218480Y-95973900D03*
X107218480Y-105498900D03*
X105948480Y-105498900D03*
X104678480Y-105498900D03*
X103408480Y-105498900D03*
X102138480Y-105498900D03*
X100868480Y-105498900D03*
X99598480Y-105498900D03*
X98328480Y-105498900D03*
X97058480Y-105498900D03*
X95788480Y-105498900D03*
X94518480Y-105498900D03*
X93248480Y-105498900D03*
X91978480Y-105498900D03*
X90708480Y-105498900D03*
D20*
X84734400Y-99917500D03*
X84734400Y-103917500D03*
M02*
