G04 #@! TF.FileFunction,Paste,Top*
%FSLAX46Y46*%
G04 Gerber Fmt 4.6, Leading zero omitted, Abs format (unit mm)*
G04 Created by KiCad (PCBNEW 4.0.7) date 06/13/18 17:32:10*
%MOMM*%
%LPD*%
G01*
G04 APERTURE LIST*
%ADD10C,0.100000*%
G04 APERTURE END LIST*
D10*
G36*
X75548968Y-99142699D02*
X77242499Y-98994534D01*
X77416810Y-100986923D01*
X75723279Y-101135088D01*
X75548968Y-99142699D01*
X75548968Y-99142699D01*
G37*
G36*
X75897590Y-103127477D02*
X77591121Y-102979312D01*
X77765432Y-104971701D01*
X76071901Y-105119866D01*
X75897590Y-103127477D01*
X75897590Y-103127477D01*
G37*
G36*
X78052921Y-89955805D02*
X79650399Y-90537240D01*
X78966359Y-92416625D01*
X77368881Y-91835190D01*
X78052921Y-89955805D01*
X78052921Y-89955805D01*
G37*
G36*
X76684841Y-93714575D02*
X78282319Y-94296010D01*
X77598279Y-96175395D01*
X76000801Y-95593960D01*
X76684841Y-93714575D01*
X76684841Y-93714575D01*
G37*
G36*
X83925719Y-82444204D02*
X85189065Y-83581726D01*
X83850803Y-85068016D01*
X82587457Y-83930494D01*
X83925719Y-82444204D01*
X83925719Y-82444204D01*
G37*
G36*
X81249197Y-85416784D02*
X82512543Y-86554306D01*
X81174281Y-88040596D01*
X79910935Y-86903074D01*
X81249197Y-85416784D01*
X81249197Y-85416784D01*
G37*
G36*
X92123298Y-77819383D02*
X92841749Y-79360106D01*
X91029134Y-80205343D01*
X90310683Y-78664620D01*
X92123298Y-77819383D01*
X92123298Y-77819383D01*
G37*
G36*
X88498066Y-79509857D02*
X89216517Y-81050580D01*
X87403902Y-81895817D01*
X86685451Y-80355094D01*
X88498066Y-79509857D01*
X88498066Y-79509857D01*
G37*
G36*
X111290363Y-80148896D02*
X110598910Y-81701923D01*
X108771819Y-80888450D01*
X109463272Y-79335423D01*
X111290363Y-80148896D01*
X111290363Y-80148896D01*
G37*
G36*
X107636181Y-78521950D02*
X106944728Y-80074977D01*
X105117637Y-79261504D01*
X105809090Y-77708477D01*
X107636181Y-78521950D01*
X107636181Y-78521950D01*
G37*
G36*
X118352700Y-87146564D02*
X117050425Y-88239303D01*
X115764850Y-86707214D01*
X117067125Y-85614475D01*
X118352700Y-87146564D01*
X118352700Y-87146564D01*
G37*
G36*
X115781550Y-84082386D02*
X114479275Y-85175125D01*
X113193700Y-83643036D01*
X114495975Y-82550297D01*
X115781550Y-84082386D01*
X115781550Y-84082386D01*
G37*
G36*
X122271599Y-95543160D02*
X120674121Y-96124595D01*
X119990081Y-94245210D01*
X121587559Y-93663775D01*
X122271599Y-95543160D01*
X122271599Y-95543160D01*
G37*
G36*
X120903519Y-91784390D02*
X119306041Y-92365825D01*
X118622001Y-90486440D01*
X120219479Y-89905005D01*
X120903519Y-91784390D01*
X120903519Y-91784390D01*
G37*
G36*
X122149699Y-105069066D02*
X120456168Y-104920901D01*
X120630479Y-102928512D01*
X122324010Y-103076677D01*
X122149699Y-105069066D01*
X122149699Y-105069066D01*
G37*
G36*
X122498321Y-101084288D02*
X120804790Y-100936123D01*
X120979101Y-98943734D01*
X122672632Y-99091899D01*
X122498321Y-101084288D01*
X122498321Y-101084288D01*
G37*
M02*
