%FSLAX45Y45*%
G04 Gerber Fmt 4.5, Leading zero omitted, Abs format (unit mm)*
G04 Created by KiCad (PCBNEW 4.0.7) date 06/01/18 15:25:49*
%MOMM*%
%LPD*%
G01*
G04 APERTURE LIST*
%ADD10C,0.127000*%
%ADD11C,0.150000*%
%ADD12C,0.200000*%
%ADD13C,0.300000*%
G04 APERTURE END LIST*
D10*
D11*
X11049000Y-7807960D02*
X11084560Y-7828280D01*
X10947400Y-7762240D02*
X11049000Y-7807960D01*
X10886440Y-7731760D02*
X10947400Y-7762240D01*
X10810240Y-7701280D02*
X10886440Y-7731760D01*
X10728960Y-7670800D02*
X10810240Y-7701280D01*
X10647680Y-7645400D02*
X10728960Y-7670800D01*
X10566400Y-7620000D02*
X10647680Y-7645400D01*
X10490200Y-7599680D02*
X10566400Y-7620000D01*
X10383520Y-7579360D02*
X10490200Y-7599680D01*
X10297160Y-7564120D02*
X10383520Y-7579360D01*
X10241280Y-7553960D02*
X10297160Y-7564120D01*
X10195560Y-7548880D02*
X10241280Y-7553960D01*
X10246360Y-7493000D02*
X10195560Y-7548880D01*
X10292080Y-7421880D02*
X10246360Y-7493000D01*
X10312400Y-7376160D02*
X10292080Y-7421880D01*
X10332720Y-7330440D02*
X10312400Y-7376160D01*
X10353040Y-7264400D02*
X10332720Y-7330440D01*
X10368280Y-7213600D02*
X10353040Y-7264400D01*
X10378440Y-7147560D02*
X10368280Y-7213600D01*
X10378440Y-7122160D02*
X10378440Y-7147560D01*
X10383520Y-7056120D02*
X10378440Y-7122160D01*
X10383520Y-6990080D02*
X10383520Y-7056120D01*
X10383520Y-6969760D02*
X10383520Y-6990080D01*
X10378440Y-6898640D02*
X10383520Y-6969760D01*
X10378440Y-6868160D02*
X10378440Y-6898640D01*
X10368280Y-6812280D02*
X10378440Y-6868160D01*
X10358120Y-6776720D02*
X10368280Y-6812280D01*
X10342880Y-6720840D02*
X10358120Y-6776720D01*
X10322560Y-6670040D02*
X10342880Y-6720840D01*
X10307320Y-6644640D02*
X10322560Y-6670040D01*
X10281920Y-6604000D02*
X10307320Y-6644640D01*
X10246360Y-6573520D02*
X10281920Y-6604000D01*
X10215880Y-6548120D02*
X10246360Y-6573520D01*
X10180320Y-6532880D02*
X10215880Y-6548120D01*
X10048240Y-6532880D02*
X10180320Y-6532880D01*
X10027920Y-6543040D02*
X10048240Y-6532880D01*
X9987280Y-6568440D02*
X10027920Y-6543040D01*
X9956800Y-6588760D02*
X9987280Y-6568440D01*
X9906000Y-6639560D02*
X9956800Y-6588760D01*
X9875520Y-6680200D02*
X9906000Y-6639560D01*
X9850120Y-6725920D02*
X9875520Y-6680200D01*
X9824720Y-6776720D02*
X9850120Y-6725920D01*
X9809480Y-6812280D02*
X9824720Y-6776720D01*
X9799320Y-6832600D02*
X9809480Y-6812280D01*
X9789160Y-6863080D02*
X9799320Y-6832600D01*
X9779000Y-6898640D02*
X9789160Y-6863080D01*
X9768840Y-6939280D02*
X9779000Y-6898640D01*
X9758680Y-6974840D02*
X9768840Y-6939280D01*
X9753600Y-7010400D02*
X9758680Y-6974840D01*
X9748520Y-7045960D02*
X9753600Y-7010400D01*
X9748520Y-7081520D02*
X9748520Y-7045960D01*
X9733280Y-7076440D02*
X9748520Y-7081520D01*
X9718040Y-7071360D02*
X9733280Y-7076440D01*
X9697720Y-7061200D02*
X9718040Y-7071360D01*
X9682480Y-7056120D02*
X9697720Y-7061200D01*
X9646920Y-7045960D02*
X9682480Y-7056120D01*
X9616440Y-7035800D02*
X9646920Y-7045960D01*
X9606280Y-7030720D02*
X9616440Y-7035800D01*
X9575800Y-7025640D02*
X9606280Y-7030720D01*
X9555480Y-7020560D02*
X9575800Y-7025640D01*
X9519920Y-7020560D02*
X9555480Y-7020560D01*
X9494520Y-7020560D02*
X9519920Y-7020560D01*
X9448800Y-7020560D02*
X9494520Y-7020560D01*
X9387840Y-7020560D02*
X9448800Y-7020560D01*
X9362440Y-7020560D02*
X9387840Y-7020560D01*
X9352280Y-7025640D02*
X9362440Y-7020560D01*
X9326880Y-7035800D02*
X9352280Y-7025640D01*
X9296400Y-7056120D02*
X9326880Y-7035800D01*
X9276080Y-7076440D02*
X9296400Y-7056120D01*
X9255760Y-7101840D02*
X9276080Y-7076440D01*
X9245600Y-7127240D02*
X9255760Y-7101840D01*
X9240520Y-7162800D02*
X9245600Y-7127240D01*
X9235440Y-7188200D02*
X9240520Y-7162800D01*
X9235440Y-7198360D02*
X9235440Y-7188200D01*
X9235440Y-7249160D02*
X9235440Y-7198360D01*
X9235440Y-7310120D02*
X9235440Y-7249160D01*
X9235440Y-7366000D02*
X9235440Y-7310120D01*
X9235440Y-7401560D02*
X9235440Y-7366000D01*
X9240520Y-7426960D02*
X9235440Y-7401560D01*
X9245600Y-7447280D02*
X9240520Y-7426960D01*
X9255760Y-7472680D02*
X9245600Y-7447280D01*
X9271000Y-7503160D02*
X9255760Y-7472680D01*
X9286240Y-7528560D02*
X9271000Y-7503160D01*
X9296400Y-7538720D02*
X9286240Y-7528560D01*
X9326880Y-7569200D02*
X9296400Y-7538720D01*
X9347200Y-7584440D02*
X9326880Y-7569200D01*
X9362440Y-7594600D02*
X9347200Y-7584440D01*
X9311640Y-7604760D02*
X9362440Y-7594600D01*
X9250680Y-7620000D02*
X9311640Y-7604760D01*
X9184640Y-7640320D02*
X9250680Y-7620000D01*
X9103360Y-7665720D02*
X9184640Y-7640320D01*
X9047480Y-7686040D02*
X9103360Y-7665720D01*
X9022080Y-7696200D02*
X9047480Y-7686040D01*
X8956040Y-7721600D02*
X9022080Y-7696200D01*
X8874760Y-7757160D02*
X8956040Y-7721600D01*
X8788400Y-7797800D02*
X8874760Y-7757160D01*
X8712200Y-7838440D02*
X8788400Y-7797800D01*
X8676640Y-7858760D02*
X8712200Y-7838440D01*
X8625840Y-7889240D02*
X8676640Y-7858760D01*
X8564880Y-7924800D02*
X8625840Y-7889240D01*
X8503920Y-7970520D02*
X8564880Y-7924800D01*
X8427720Y-8021320D02*
X8503920Y-7970520D01*
X8341360Y-8092440D02*
X8427720Y-8021320D01*
X8265160Y-8153400D02*
X8341360Y-8092440D01*
X8158480Y-8255000D02*
X8265160Y-8153400D01*
X8102600Y-8310880D02*
X8158480Y-8255000D01*
X8041640Y-8382000D02*
X8102600Y-8310880D01*
X8001000Y-8427720D02*
X8041640Y-8382000D01*
X7945120Y-8498840D02*
X8001000Y-8427720D01*
X7904480Y-8549640D02*
X7945120Y-8498840D01*
X7858760Y-8615680D02*
X7904480Y-8549640D01*
X7813040Y-8681720D02*
X7858760Y-8615680D01*
X7782560Y-8732520D02*
X7813040Y-8681720D01*
X7741920Y-8803640D02*
X7782560Y-8732520D01*
X7716520Y-8849360D02*
X7741920Y-8803640D01*
X7680960Y-8910320D02*
X7716520Y-8849360D01*
X7655560Y-8971280D02*
X7680960Y-8910320D01*
X7640320Y-9006840D02*
X7655560Y-8971280D01*
X7635240Y-9017000D02*
X7640320Y-9006840D01*
X7609840Y-9067800D02*
X7635240Y-9017000D01*
X7584440Y-9138920D02*
X7609840Y-9067800D01*
X7559040Y-9199880D02*
X7584440Y-9138920D01*
X7548880Y-9235440D02*
X7559040Y-9199880D01*
X7518400Y-9326880D02*
X7548880Y-9235440D01*
X7498080Y-9413240D02*
X7518400Y-9326880D01*
X7482840Y-9469120D02*
X7498080Y-9413240D01*
X7477760Y-9504680D02*
X7482840Y-9469120D01*
X7457440Y-9601200D02*
X7477760Y-9504680D01*
X7447280Y-9667240D02*
X7457440Y-9601200D01*
X7432040Y-9773920D02*
X7447280Y-9667240D01*
X7426960Y-9855200D02*
X7432040Y-9773920D01*
X7426960Y-9972040D02*
X7426960Y-9855200D01*
X7426960Y-10083800D02*
X7426960Y-9972040D01*
X7426960Y-10165080D02*
X7426960Y-10083800D01*
X7432040Y-10251440D02*
X7426960Y-10165080D01*
X7437120Y-10307320D02*
X7432040Y-10251440D01*
X7452360Y-10403840D02*
X7437120Y-10307320D01*
X7462520Y-10459720D02*
X7452360Y-10403840D01*
X7467600Y-10490200D02*
X7462520Y-10459720D01*
X7487920Y-10581640D02*
X7467600Y-10490200D01*
X7508240Y-10673080D02*
X7487920Y-10581640D01*
X7538720Y-10769600D02*
X7508240Y-10673080D01*
X7564120Y-10850880D02*
X7538720Y-10769600D01*
X7599680Y-10937240D02*
X7564120Y-10850880D01*
X7620000Y-10993120D02*
X7599680Y-10937240D01*
X7655560Y-11069320D02*
X7620000Y-10993120D01*
X7696200Y-11155680D02*
X7655560Y-11069320D01*
X7731760Y-11216640D02*
X7696200Y-11155680D01*
X7772400Y-11287760D02*
X7731760Y-11216640D01*
X7797800Y-11333480D02*
X7772400Y-11287760D01*
X7797800Y-11348720D02*
X7797800Y-11333480D01*
X7797800Y-11424920D02*
X7797800Y-11348720D01*
X7807960Y-11501120D02*
X7797800Y-11424920D01*
X7828280Y-11597640D02*
X7807960Y-11501120D01*
X7848600Y-11668760D02*
X7828280Y-11597640D01*
X7884160Y-11750040D02*
X7848600Y-11668760D01*
X7914640Y-11816080D02*
X7884160Y-11750040D01*
X7950200Y-11877040D02*
X7914640Y-11816080D01*
X8001000Y-11958320D02*
X7950200Y-11877040D01*
X8067040Y-12044680D02*
X8001000Y-11958320D01*
X8133080Y-12115800D02*
X8067040Y-12044680D01*
X8183880Y-12166600D02*
X8133080Y-12115800D01*
X8219440Y-12202160D02*
X8183880Y-12166600D01*
X8305800Y-12273280D02*
X8219440Y-12202160D01*
X8392160Y-12339320D02*
X8305800Y-12273280D01*
X8493760Y-12405360D02*
X8392160Y-12339320D01*
X8590280Y-12461240D02*
X8493760Y-12405360D01*
X8681720Y-12506960D02*
X8590280Y-12461240D01*
X8768080Y-12547600D02*
X8681720Y-12506960D01*
X8879840Y-12593320D02*
X8768080Y-12547600D01*
X8981440Y-12628880D02*
X8879840Y-12593320D01*
X9093200Y-12664440D02*
X8981440Y-12628880D01*
X9133840Y-12674600D02*
X9093200Y-12664440D01*
X9174480Y-12684760D02*
X9133840Y-12674600D01*
X9255760Y-12705080D02*
X9174480Y-12684760D01*
X9301480Y-12715240D02*
X9255760Y-12705080D01*
X9433560Y-12740640D02*
X9301480Y-12715240D01*
X9575800Y-12760960D02*
X9433560Y-12740640D01*
X9692640Y-12771120D02*
X9575800Y-12760960D01*
X9784080Y-12776200D02*
X9692640Y-12771120D01*
X9809480Y-12776200D02*
X9784080Y-12776200D01*
X9860280Y-12776200D02*
X9809480Y-12776200D01*
X9977120Y-12776200D02*
X9860280Y-12776200D01*
X10068560Y-12776200D02*
X9977120Y-12776200D01*
X10185400Y-12771120D02*
X10068560Y-12776200D01*
X10276840Y-12760960D02*
X10185400Y-12771120D01*
X10363200Y-12750800D02*
X10276840Y-12760960D01*
X10490200Y-12730480D02*
X10363200Y-12750800D01*
X10612120Y-12705080D02*
X10490200Y-12730480D01*
X10698480Y-12684760D02*
X10612120Y-12705080D01*
X10795000Y-12659360D02*
X10698480Y-12684760D01*
X10906760Y-12623800D02*
X10795000Y-12659360D01*
X11038840Y-12573000D02*
X10906760Y-12623800D01*
X11120120Y-12537440D02*
X11038840Y-12573000D01*
X11196320Y-12501880D02*
X11120120Y-12537440D01*
X11242040Y-12476480D02*
X11196320Y-12501880D01*
X11292840Y-12451080D02*
X11242040Y-12476480D01*
X11343640Y-12420600D02*
X11292840Y-12451080D01*
X11419840Y-12374880D02*
X11343640Y-12420600D01*
X11501120Y-12319000D02*
X11419840Y-12374880D01*
X11551920Y-12283440D02*
X11501120Y-12319000D01*
X11623040Y-12222480D02*
X11551920Y-12283440D01*
X11714480Y-12141200D02*
X11623040Y-12222480D01*
X11780520Y-12070080D02*
X11714480Y-12141200D01*
X11871960Y-11953240D02*
X11780520Y-12070080D01*
X11907520Y-11897360D02*
X11871960Y-11953240D01*
X11943080Y-11841480D02*
X11907520Y-11897360D01*
X11993880Y-11734800D02*
X11943080Y-11841480D01*
X12014200Y-11673840D02*
X11993880Y-11734800D01*
X12029440Y-11628120D02*
X12014200Y-11673840D01*
X12049760Y-11546840D02*
X12029440Y-11628120D01*
X12065000Y-11460480D02*
X12049760Y-11546840D01*
X12070080Y-11399520D02*
X12065000Y-11460480D01*
X12070080Y-11292840D02*
X12070080Y-11399520D01*
X12070080Y-11247120D02*
X12070080Y-11292840D01*
X12080240Y-11231880D02*
X12070080Y-11247120D01*
X12115800Y-11165840D02*
X12080240Y-11231880D01*
X12156440Y-11084560D02*
X12115800Y-11165840D01*
X12186920Y-11013440D02*
X12156440Y-11084560D01*
X12212320Y-10957560D02*
X12186920Y-11013440D01*
X12237720Y-10886440D02*
X12212320Y-10957560D01*
X12268200Y-10800080D02*
X12237720Y-10886440D01*
X12293600Y-10718800D02*
X12268200Y-10800080D01*
X12319000Y-10622280D02*
X12293600Y-10718800D01*
X12339320Y-10530840D02*
X12319000Y-10622280D01*
X12359640Y-10434320D02*
X12339320Y-10530840D01*
X12374880Y-10332720D02*
X12359640Y-10434320D01*
X12385040Y-10251440D02*
X12374880Y-10332720D01*
X12390120Y-10149840D02*
X12385040Y-10251440D01*
X12390120Y-10119360D02*
X12390120Y-10149840D01*
X12390120Y-10007600D02*
X12390120Y-10119360D01*
X12390120Y-9885680D02*
X12390120Y-10007600D01*
X12385040Y-9784080D02*
X12390120Y-9885680D01*
X12374880Y-9712960D02*
X12385040Y-9784080D01*
X12364720Y-9641840D02*
X12374880Y-9712960D01*
X12354560Y-9585960D02*
X12364720Y-9641840D01*
X12339320Y-9499600D02*
X12354560Y-9585960D01*
X12324080Y-9438640D02*
X12339320Y-9499600D01*
X12308840Y-9372600D02*
X12324080Y-9438640D01*
X12293600Y-9321800D02*
X12308840Y-9372600D01*
X12263120Y-9215120D02*
X12293600Y-9321800D01*
X12212320Y-9083040D02*
X12263120Y-9215120D01*
X12166600Y-8976360D02*
X12212320Y-9083040D01*
X12136120Y-8915400D02*
X12166600Y-8976360D01*
X12095480Y-8834120D02*
X12136120Y-8915400D01*
X12049760Y-8752840D02*
X12095480Y-8834120D01*
X11978640Y-8641080D02*
X12049760Y-8752840D01*
X11892280Y-8519160D02*
X11978640Y-8641080D01*
X11790680Y-8392160D02*
X11892280Y-8519160D01*
X11612880Y-8204200D02*
X11790680Y-8392160D01*
X11430000Y-8051800D02*
X11612880Y-8204200D01*
X11257280Y-7929880D02*
X11430000Y-8051800D01*
X11084560Y-7828280D02*
X11257280Y-7929880D01*
D12*
X7641148Y-10181148D02*
X7681148Y-10221148D01*
X7681148Y-10181148D02*
X7641148Y-10221148D01*
X7767132Y-9284020D02*
X7807132Y-9324020D01*
X7807132Y-9284020D02*
X7767132Y-9324020D01*
X8213664Y-8510844D02*
X8253664Y-8550844D01*
X8253664Y-8510844D02*
X8213664Y-8550844D01*
X8941120Y-7962204D02*
X8981120Y-8002204D01*
X8981120Y-7962204D02*
X8941120Y-8002204D01*
X9851964Y-7771704D02*
X9891964Y-7811704D01*
X9891964Y-7771704D02*
X9851964Y-7811704D01*
X10815640Y-7969824D02*
X10855640Y-8009824D01*
X10855640Y-7969824D02*
X10815640Y-8009824D01*
X11558336Y-8524052D02*
X11598336Y-8564052D01*
X11598336Y-8524052D02*
X11558336Y-8564052D01*
X12034840Y-9288084D02*
X12074840Y-9328084D01*
X12074840Y-9288084D02*
X12034840Y-9328084D01*
X12153204Y-10183180D02*
X12193204Y-10223180D01*
X12193204Y-10183180D02*
X12153204Y-10223180D01*
X9892500Y-12090400D02*
G75*
G03X9892500Y-12090400I-50000J0D01*
G01*
X9892500Y-12344400D02*
G75*
G03X9892500Y-12344400I-50000J0D01*
G01*
X10146500Y-12090400D02*
G75*
G03X10146500Y-12090400I-50000J0D01*
G01*
X10146500Y-12344400D02*
G75*
G03X10146500Y-12344400I-50000J0D01*
G01*
D13*
X7690888Y-13249414D02*
X7690888Y-12949414D01*
X7762317Y-12949414D01*
X7805174Y-12963700D01*
X7833746Y-12992271D01*
X7848031Y-13020843D01*
X7862317Y-13077986D01*
X7862317Y-13120843D01*
X7848031Y-13177986D01*
X7833746Y-13206557D01*
X7805174Y-13235129D01*
X7762317Y-13249414D01*
X7690888Y-13249414D01*
X7990888Y-13249414D02*
X7990888Y-13049414D01*
X7990888Y-13106557D02*
X8005174Y-13077986D01*
X8019460Y-13063700D01*
X8048031Y-13049414D01*
X8076603Y-13049414D01*
X8176603Y-13249414D02*
X8176603Y-13049414D01*
X8176603Y-12949414D02*
X8162317Y-12963700D01*
X8176603Y-12977986D01*
X8190888Y-12963700D01*
X8176603Y-12949414D01*
X8176603Y-12977986D01*
X8362317Y-13249414D02*
X8333746Y-13235129D01*
X8319460Y-13206557D01*
X8319460Y-12949414D01*
X8519460Y-13249414D02*
X8490889Y-13235129D01*
X8476603Y-13206557D01*
X8476603Y-12949414D01*
X8862317Y-13249414D02*
X8862317Y-12949414D01*
X8962317Y-13163700D01*
X9062317Y-12949414D01*
X9062317Y-13249414D01*
X9333746Y-13249414D02*
X9333746Y-13092271D01*
X9319460Y-13063700D01*
X9290889Y-13049414D01*
X9233746Y-13049414D01*
X9205174Y-13063700D01*
X9333746Y-13235129D02*
X9305174Y-13249414D01*
X9233746Y-13249414D01*
X9205174Y-13235129D01*
X9190889Y-13206557D01*
X9190889Y-13177986D01*
X9205174Y-13149414D01*
X9233746Y-13135129D01*
X9305174Y-13135129D01*
X9333746Y-13120843D01*
X9476603Y-13049414D02*
X9476603Y-13349414D01*
X9476603Y-13063700D02*
X9505174Y-13049414D01*
X9562317Y-13049414D01*
X9590889Y-13063700D01*
X9605174Y-13077986D01*
X9619460Y-13106557D01*
X9619460Y-13192271D01*
X9605174Y-13220843D01*
X9590889Y-13235129D01*
X9562317Y-13249414D01*
X9505174Y-13249414D01*
X9476603Y-13235129D01*
X9748031Y-13220843D02*
X9762317Y-13235129D01*
X9748031Y-13249414D01*
X9733746Y-13235129D01*
X9748031Y-13220843D01*
X9748031Y-13249414D01*
X9748031Y-13063700D02*
X9762317Y-13077986D01*
X9748031Y-13092271D01*
X9733746Y-13077986D01*
X9748031Y-13063700D01*
X9748031Y-13092271D01*
X7379460Y-13723700D02*
X7419460Y-13763700D01*
X7419460Y-13723700D02*
X7379460Y-13763700D01*
X7748031Y-13579414D02*
X7776603Y-13579414D01*
X7805174Y-13593700D01*
X7819460Y-13607986D01*
X7833746Y-13636557D01*
X7848031Y-13693700D01*
X7848031Y-13765129D01*
X7833746Y-13822271D01*
X7819460Y-13850843D01*
X7805174Y-13865129D01*
X7776603Y-13879414D01*
X7748031Y-13879414D01*
X7719460Y-13865129D01*
X7705174Y-13850843D01*
X7690888Y-13822271D01*
X7676603Y-13765129D01*
X7676603Y-13693700D01*
X7690888Y-13636557D01*
X7705174Y-13607986D01*
X7719460Y-13593700D01*
X7748031Y-13579414D01*
X7976603Y-13850843D02*
X7990888Y-13865129D01*
X7976603Y-13879414D01*
X7962317Y-13865129D01*
X7976603Y-13850843D01*
X7976603Y-13879414D01*
X8248031Y-13679414D02*
X8248031Y-13879414D01*
X8176603Y-13565129D02*
X8105174Y-13779414D01*
X8290888Y-13779414D01*
X8462317Y-13579414D02*
X8490889Y-13579414D01*
X8519460Y-13593700D01*
X8533746Y-13607986D01*
X8548031Y-13636557D01*
X8562317Y-13693700D01*
X8562317Y-13765129D01*
X8548031Y-13822271D01*
X8533746Y-13850843D01*
X8519460Y-13865129D01*
X8490889Y-13879414D01*
X8462317Y-13879414D01*
X8433746Y-13865129D01*
X8419460Y-13850843D01*
X8405174Y-13822271D01*
X8390889Y-13765129D01*
X8390889Y-13693700D01*
X8405174Y-13636557D01*
X8419460Y-13607986D01*
X8433746Y-13593700D01*
X8462317Y-13579414D01*
X8690889Y-13879414D02*
X8690889Y-13679414D01*
X8690889Y-13707986D02*
X8705174Y-13693700D01*
X8733746Y-13679414D01*
X8776603Y-13679414D01*
X8805174Y-13693700D01*
X8819460Y-13722271D01*
X8819460Y-13879414D01*
X8819460Y-13722271D02*
X8833746Y-13693700D01*
X8862317Y-13679414D01*
X8905174Y-13679414D01*
X8933746Y-13693700D01*
X8948031Y-13722271D01*
X8948031Y-13879414D01*
X9090889Y-13879414D02*
X9090889Y-13679414D01*
X9090889Y-13707986D02*
X9105174Y-13693700D01*
X9133746Y-13679414D01*
X9176603Y-13679414D01*
X9205174Y-13693700D01*
X9219460Y-13722271D01*
X9219460Y-13879414D01*
X9219460Y-13722271D02*
X9233746Y-13693700D01*
X9262317Y-13679414D01*
X9305174Y-13679414D01*
X9333746Y-13693700D01*
X9348031Y-13722271D01*
X9348031Y-13879414D01*
X9933746Y-13565129D02*
X9676603Y-13950843D01*
X10319460Y-13579414D02*
X10348031Y-13579414D01*
X10376603Y-13593700D01*
X10390888Y-13607986D01*
X10405174Y-13636557D01*
X10419460Y-13693700D01*
X10419460Y-13765129D01*
X10405174Y-13822271D01*
X10390888Y-13850843D01*
X10376603Y-13865129D01*
X10348031Y-13879414D01*
X10319460Y-13879414D01*
X10290888Y-13865129D01*
X10276603Y-13850843D01*
X10262317Y-13822271D01*
X10248031Y-13765129D01*
X10248031Y-13693700D01*
X10262317Y-13636557D01*
X10276603Y-13607986D01*
X10290888Y-13593700D01*
X10319460Y-13579414D01*
X10548031Y-13850843D02*
X10562317Y-13865129D01*
X10548031Y-13879414D01*
X10533746Y-13865129D01*
X10548031Y-13850843D01*
X10548031Y-13879414D01*
X10748031Y-13579414D02*
X10776603Y-13579414D01*
X10805174Y-13593700D01*
X10819460Y-13607986D01*
X10833746Y-13636557D01*
X10848031Y-13693700D01*
X10848031Y-13765129D01*
X10833746Y-13822271D01*
X10819460Y-13850843D01*
X10805174Y-13865129D01*
X10776603Y-13879414D01*
X10748031Y-13879414D01*
X10719460Y-13865129D01*
X10705174Y-13850843D01*
X10690888Y-13822271D01*
X10676603Y-13765129D01*
X10676603Y-13693700D01*
X10690888Y-13636557D01*
X10705174Y-13607986D01*
X10719460Y-13593700D01*
X10748031Y-13579414D01*
X11133746Y-13879414D02*
X10962317Y-13879414D01*
X11048031Y-13879414D02*
X11048031Y-13579414D01*
X11019460Y-13622271D01*
X10990888Y-13650843D01*
X10962317Y-13665129D01*
X11390888Y-13579414D02*
X11333745Y-13579414D01*
X11305174Y-13593700D01*
X11290888Y-13607986D01*
X11262317Y-13650843D01*
X11248031Y-13707986D01*
X11248031Y-13822271D01*
X11262317Y-13850843D01*
X11276603Y-13865129D01*
X11305174Y-13879414D01*
X11362317Y-13879414D01*
X11390888Y-13865129D01*
X11405174Y-13850843D01*
X11419460Y-13822271D01*
X11419460Y-13750843D01*
X11405174Y-13722271D01*
X11390888Y-13707986D01*
X11362317Y-13693700D01*
X11305174Y-13693700D01*
X11276603Y-13707986D01*
X11262317Y-13722271D01*
X11248031Y-13750843D01*
X11533746Y-13579414D02*
X11533746Y-13636557D01*
X11648031Y-13579414D02*
X11648031Y-13636557D01*
X12090888Y-13993700D02*
X12076603Y-13979414D01*
X12048031Y-13936557D01*
X12033745Y-13907986D01*
X12019460Y-13865129D01*
X12005174Y-13793700D01*
X12005174Y-13736557D01*
X12019460Y-13665129D01*
X12033745Y-13622271D01*
X12048031Y-13593700D01*
X12076603Y-13550843D01*
X12090888Y-13536557D01*
X12219460Y-13879414D02*
X12276603Y-13879414D01*
X12305174Y-13865129D01*
X12319460Y-13850843D01*
X12348031Y-13807986D01*
X12362317Y-13750843D01*
X12362317Y-13636557D01*
X12348031Y-13607986D01*
X12333745Y-13593700D01*
X12305174Y-13579414D01*
X12248031Y-13579414D01*
X12219460Y-13593700D01*
X12205174Y-13607986D01*
X12190888Y-13636557D01*
X12190888Y-13707986D01*
X12205174Y-13736557D01*
X12219460Y-13750843D01*
X12248031Y-13765129D01*
X12305174Y-13765129D01*
X12333745Y-13750843D01*
X12348031Y-13736557D01*
X12362317Y-13707986D01*
X12719460Y-13879414D02*
X12719460Y-13579414D01*
X12848031Y-13879414D02*
X12848031Y-13722271D01*
X12833745Y-13693700D01*
X12805174Y-13679414D01*
X12762317Y-13679414D01*
X12733745Y-13693700D01*
X12719460Y-13707986D01*
X13033745Y-13879414D02*
X13005174Y-13865129D01*
X12990888Y-13850843D01*
X12976603Y-13822271D01*
X12976603Y-13736557D01*
X12990888Y-13707986D01*
X13005174Y-13693700D01*
X13033745Y-13679414D01*
X13076603Y-13679414D01*
X13105174Y-13693700D01*
X13119460Y-13707986D01*
X13133745Y-13736557D01*
X13133745Y-13822271D01*
X13119460Y-13850843D01*
X13105174Y-13865129D01*
X13076603Y-13879414D01*
X13033745Y-13879414D01*
X13305174Y-13879414D02*
X13276603Y-13865129D01*
X13262317Y-13836557D01*
X13262317Y-13579414D01*
X13533746Y-13865129D02*
X13505174Y-13879414D01*
X13448031Y-13879414D01*
X13419460Y-13865129D01*
X13405174Y-13836557D01*
X13405174Y-13722271D01*
X13419460Y-13693700D01*
X13448031Y-13679414D01*
X13505174Y-13679414D01*
X13533746Y-13693700D01*
X13548031Y-13722271D01*
X13548031Y-13750843D01*
X13405174Y-13779414D01*
X13662317Y-13865129D02*
X13690888Y-13879414D01*
X13748031Y-13879414D01*
X13776603Y-13865129D01*
X13790888Y-13836557D01*
X13790888Y-13822271D01*
X13776603Y-13793700D01*
X13748031Y-13779414D01*
X13705174Y-13779414D01*
X13676603Y-13765129D01*
X13662317Y-13736557D01*
X13662317Y-13722271D01*
X13676603Y-13693700D01*
X13705174Y-13679414D01*
X13748031Y-13679414D01*
X13776603Y-13693700D01*
X13890888Y-13993700D02*
X13905174Y-13979414D01*
X13933746Y-13936557D01*
X13948031Y-13907986D01*
X13962317Y-13865129D01*
X13976603Y-13793700D01*
X13976603Y-13736557D01*
X13962317Y-13665129D01*
X13948031Y-13622271D01*
X13933746Y-13593700D01*
X13905174Y-13550843D01*
X13890888Y-13536557D01*
X7419460Y-14139700D02*
G75*
G03X7419460Y-14139700I-50000J0D01*
G01*
X7848031Y-14275414D02*
X7676603Y-14275414D01*
X7762317Y-14275414D02*
X7762317Y-13975414D01*
X7733746Y-14018271D01*
X7705174Y-14046843D01*
X7676603Y-14061129D01*
X7976603Y-14246843D02*
X7990888Y-14261129D01*
X7976603Y-14275414D01*
X7962317Y-14261129D01*
X7976603Y-14246843D01*
X7976603Y-14275414D01*
X8176603Y-13975414D02*
X8205174Y-13975414D01*
X8233746Y-13989700D01*
X8248031Y-14003986D01*
X8262317Y-14032557D01*
X8276603Y-14089700D01*
X8276603Y-14161129D01*
X8262317Y-14218271D01*
X8248031Y-14246843D01*
X8233746Y-14261129D01*
X8205174Y-14275414D01*
X8176603Y-14275414D01*
X8148031Y-14261129D01*
X8133746Y-14246843D01*
X8119460Y-14218271D01*
X8105174Y-14161129D01*
X8105174Y-14089700D01*
X8119460Y-14032557D01*
X8133746Y-14003986D01*
X8148031Y-13989700D01*
X8176603Y-13975414D01*
X8462317Y-13975414D02*
X8490889Y-13975414D01*
X8519460Y-13989700D01*
X8533746Y-14003986D01*
X8548031Y-14032557D01*
X8562317Y-14089700D01*
X8562317Y-14161129D01*
X8548031Y-14218271D01*
X8533746Y-14246843D01*
X8519460Y-14261129D01*
X8490889Y-14275414D01*
X8462317Y-14275414D01*
X8433746Y-14261129D01*
X8419460Y-14246843D01*
X8405174Y-14218271D01*
X8390889Y-14161129D01*
X8390889Y-14089700D01*
X8405174Y-14032557D01*
X8419460Y-14003986D01*
X8433746Y-13989700D01*
X8462317Y-13975414D01*
X8690889Y-14275414D02*
X8690889Y-14075414D01*
X8690889Y-14103986D02*
X8705174Y-14089700D01*
X8733746Y-14075414D01*
X8776603Y-14075414D01*
X8805174Y-14089700D01*
X8819460Y-14118271D01*
X8819460Y-14275414D01*
X8819460Y-14118271D02*
X8833746Y-14089700D01*
X8862317Y-14075414D01*
X8905174Y-14075414D01*
X8933746Y-14089700D01*
X8948031Y-14118271D01*
X8948031Y-14275414D01*
X9090889Y-14275414D02*
X9090889Y-14075414D01*
X9090889Y-14103986D02*
X9105174Y-14089700D01*
X9133746Y-14075414D01*
X9176603Y-14075414D01*
X9205174Y-14089700D01*
X9219460Y-14118271D01*
X9219460Y-14275414D01*
X9219460Y-14118271D02*
X9233746Y-14089700D01*
X9262317Y-14075414D01*
X9305174Y-14075414D01*
X9333746Y-14089700D01*
X9348031Y-14118271D01*
X9348031Y-14275414D01*
X9933746Y-13961129D02*
X9676603Y-14346843D01*
X10319460Y-13975414D02*
X10348031Y-13975414D01*
X10376603Y-13989700D01*
X10390888Y-14003986D01*
X10405174Y-14032557D01*
X10419460Y-14089700D01*
X10419460Y-14161129D01*
X10405174Y-14218271D01*
X10390888Y-14246843D01*
X10376603Y-14261129D01*
X10348031Y-14275414D01*
X10319460Y-14275414D01*
X10290888Y-14261129D01*
X10276603Y-14246843D01*
X10262317Y-14218271D01*
X10248031Y-14161129D01*
X10248031Y-14089700D01*
X10262317Y-14032557D01*
X10276603Y-14003986D01*
X10290888Y-13989700D01*
X10319460Y-13975414D01*
X10548031Y-14246843D02*
X10562317Y-14261129D01*
X10548031Y-14275414D01*
X10533746Y-14261129D01*
X10548031Y-14246843D01*
X10548031Y-14275414D01*
X10748031Y-13975414D02*
X10776603Y-13975414D01*
X10805174Y-13989700D01*
X10819460Y-14003986D01*
X10833746Y-14032557D01*
X10848031Y-14089700D01*
X10848031Y-14161129D01*
X10833746Y-14218271D01*
X10819460Y-14246843D01*
X10805174Y-14261129D01*
X10776603Y-14275414D01*
X10748031Y-14275414D01*
X10719460Y-14261129D01*
X10705174Y-14246843D01*
X10690888Y-14218271D01*
X10676603Y-14161129D01*
X10676603Y-14089700D01*
X10690888Y-14032557D01*
X10705174Y-14003986D01*
X10719460Y-13989700D01*
X10748031Y-13975414D01*
X10948031Y-13975414D02*
X11133746Y-13975414D01*
X11033746Y-14089700D01*
X11076603Y-14089700D01*
X11105174Y-14103986D01*
X11119460Y-14118271D01*
X11133746Y-14146843D01*
X11133746Y-14218271D01*
X11119460Y-14246843D01*
X11105174Y-14261129D01*
X11076603Y-14275414D01*
X10990888Y-14275414D01*
X10962317Y-14261129D01*
X10948031Y-14246843D01*
X11276603Y-14275414D02*
X11333745Y-14275414D01*
X11362317Y-14261129D01*
X11376603Y-14246843D01*
X11405174Y-14203986D01*
X11419460Y-14146843D01*
X11419460Y-14032557D01*
X11405174Y-14003986D01*
X11390888Y-13989700D01*
X11362317Y-13975414D01*
X11305174Y-13975414D01*
X11276603Y-13989700D01*
X11262317Y-14003986D01*
X11248031Y-14032557D01*
X11248031Y-14103986D01*
X11262317Y-14132557D01*
X11276603Y-14146843D01*
X11305174Y-14161129D01*
X11362317Y-14161129D01*
X11390888Y-14146843D01*
X11405174Y-14132557D01*
X11419460Y-14103986D01*
X11533746Y-13975414D02*
X11533746Y-14032557D01*
X11648031Y-13975414D02*
X11648031Y-14032557D01*
X12090888Y-14389700D02*
X12076603Y-14375414D01*
X12048031Y-14332557D01*
X12033745Y-14303986D01*
X12019460Y-14261129D01*
X12005174Y-14189700D01*
X12005174Y-14132557D01*
X12019460Y-14061129D01*
X12033745Y-14018271D01*
X12048031Y-13989700D01*
X12076603Y-13946843D01*
X12090888Y-13932557D01*
X12333745Y-14075414D02*
X12333745Y-14275414D01*
X12262317Y-13961129D02*
X12190888Y-14175414D01*
X12376603Y-14175414D01*
X12719460Y-14275414D02*
X12719460Y-13975414D01*
X12848031Y-14275414D02*
X12848031Y-14118271D01*
X12833745Y-14089700D01*
X12805174Y-14075414D01*
X12762317Y-14075414D01*
X12733745Y-14089700D01*
X12719460Y-14103986D01*
X13033745Y-14275414D02*
X13005174Y-14261129D01*
X12990888Y-14246843D01*
X12976603Y-14218271D01*
X12976603Y-14132557D01*
X12990888Y-14103986D01*
X13005174Y-14089700D01*
X13033745Y-14075414D01*
X13076603Y-14075414D01*
X13105174Y-14089700D01*
X13119460Y-14103986D01*
X13133745Y-14132557D01*
X13133745Y-14218271D01*
X13119460Y-14246843D01*
X13105174Y-14261129D01*
X13076603Y-14275414D01*
X13033745Y-14275414D01*
X13305174Y-14275414D02*
X13276603Y-14261129D01*
X13262317Y-14232557D01*
X13262317Y-13975414D01*
X13533746Y-14261129D02*
X13505174Y-14275414D01*
X13448031Y-14275414D01*
X13419460Y-14261129D01*
X13405174Y-14232557D01*
X13405174Y-14118271D01*
X13419460Y-14089700D01*
X13448031Y-14075414D01*
X13505174Y-14075414D01*
X13533746Y-14089700D01*
X13548031Y-14118271D01*
X13548031Y-14146843D01*
X13405174Y-14175414D01*
X13662317Y-14261129D02*
X13690888Y-14275414D01*
X13748031Y-14275414D01*
X13776603Y-14261129D01*
X13790888Y-14232557D01*
X13790888Y-14218271D01*
X13776603Y-14189700D01*
X13748031Y-14175414D01*
X13705174Y-14175414D01*
X13676603Y-14161129D01*
X13662317Y-14132557D01*
X13662317Y-14118271D01*
X13676603Y-14089700D01*
X13705174Y-14075414D01*
X13748031Y-14075414D01*
X13776603Y-14089700D01*
X13890888Y-14389700D02*
X13905174Y-14375414D01*
X13933746Y-14332557D01*
X13948031Y-14303986D01*
X13962317Y-14261129D01*
X13976603Y-14189700D01*
X13976603Y-14132557D01*
X13962317Y-14061129D01*
X13948031Y-14018271D01*
X13933746Y-13989700D01*
X13905174Y-13946843D01*
X13890888Y-13932557D01*
M02*
