G04 #@! TF.FileFunction,Copper,L2,Bot,Signal*
%FSLAX46Y46*%
G04 Gerber Fmt 4.6, Leading zero omitted, Abs format (unit mm)*
G04 Created by KiCad (PCBNEW 4.0.7) date 06/13/18 15:06:57*
%MOMM*%
%LPD*%
G01*
G04 APERTURE LIST*
%ADD10C,0.100000*%
%ADD11C,1.700000*%
%ADD12O,1.700000X1.700000*%
%ADD13R,0.762000X1.143000*%
%ADD14R,1.600000X2.000000*%
%ADD15C,0.600000*%
%ADD16C,0.500000*%
%ADD17C,0.200000*%
%ADD18C,0.254000*%
G04 APERTURE END LIST*
D10*
D11*
X100965000Y-120904000D03*
D12*
X100965000Y-123444000D03*
X98425000Y-120904000D03*
X98425000Y-123444000D03*
D10*
G36*
X118352700Y-87146564D02*
X117050425Y-88239303D01*
X115764850Y-86707214D01*
X117067125Y-85614475D01*
X118352700Y-87146564D01*
X118352700Y-87146564D01*
G37*
G36*
X115781550Y-84082386D02*
X114479275Y-85175125D01*
X113193700Y-83643036D01*
X114495975Y-82550297D01*
X115781550Y-84082386D01*
X115781550Y-84082386D01*
G37*
G36*
X75548968Y-99142699D02*
X77242499Y-98994534D01*
X77416810Y-100986923D01*
X75723279Y-101135088D01*
X75548968Y-99142699D01*
X75548968Y-99142699D01*
G37*
G36*
X75897590Y-103127477D02*
X77591121Y-102979312D01*
X77765432Y-104971701D01*
X76071901Y-105119866D01*
X75897590Y-103127477D01*
X75897590Y-103127477D01*
G37*
G36*
X78052921Y-89955805D02*
X79650399Y-90537240D01*
X78966359Y-92416625D01*
X77368881Y-91835190D01*
X78052921Y-89955805D01*
X78052921Y-89955805D01*
G37*
G36*
X76684841Y-93714575D02*
X78282319Y-94296010D01*
X77598279Y-96175395D01*
X76000801Y-95593960D01*
X76684841Y-93714575D01*
X76684841Y-93714575D01*
G37*
G36*
X83925719Y-82444204D02*
X85189065Y-83581726D01*
X83850803Y-85068016D01*
X82587457Y-83930494D01*
X83925719Y-82444204D01*
X83925719Y-82444204D01*
G37*
G36*
X81249197Y-85416784D02*
X82512543Y-86554306D01*
X81174281Y-88040596D01*
X79910935Y-86903074D01*
X81249197Y-85416784D01*
X81249197Y-85416784D01*
G37*
G36*
X92123298Y-77819383D02*
X92841749Y-79360106D01*
X91029134Y-80205343D01*
X90310683Y-78664620D01*
X92123298Y-77819383D01*
X92123298Y-77819383D01*
G37*
G36*
X88498066Y-79509857D02*
X89216517Y-81050580D01*
X87403902Y-81895817D01*
X86685451Y-80355094D01*
X88498066Y-79509857D01*
X88498066Y-79509857D01*
G37*
G36*
X111290363Y-80148896D02*
X110598910Y-81701923D01*
X108771819Y-80888450D01*
X109463272Y-79335423D01*
X111290363Y-80148896D01*
X111290363Y-80148896D01*
G37*
G36*
X107636181Y-78521950D02*
X106944728Y-80074977D01*
X105117637Y-79261504D01*
X105809090Y-77708477D01*
X107636181Y-78521950D01*
X107636181Y-78521950D01*
G37*
G36*
X122271599Y-95543160D02*
X120674121Y-96124595D01*
X119990081Y-94245210D01*
X121587559Y-93663775D01*
X122271599Y-95543160D01*
X122271599Y-95543160D01*
G37*
G36*
X120903519Y-91784390D02*
X119306041Y-92365825D01*
X118622001Y-90486440D01*
X120219479Y-89905005D01*
X120903519Y-91784390D01*
X120903519Y-91784390D01*
G37*
G36*
X122149699Y-105069066D02*
X120456168Y-104920901D01*
X120630479Y-102928512D01*
X122324010Y-103076677D01*
X122149699Y-105069066D01*
X122149699Y-105069066D01*
G37*
G36*
X122498321Y-101084288D02*
X120804790Y-100936123D01*
X120979101Y-98943734D01*
X122672632Y-99091899D01*
X122498321Y-101084288D01*
X122498321Y-101084288D01*
G37*
D13*
X90708480Y-95973900D03*
X91978480Y-95973900D03*
X93248480Y-95973900D03*
X94518480Y-95973900D03*
X95788480Y-95973900D03*
X97058480Y-95973900D03*
X98328480Y-95973900D03*
X99598480Y-95973900D03*
X100868480Y-95973900D03*
X102138480Y-95973900D03*
X104678480Y-95973900D03*
X103408480Y-95973900D03*
X105948480Y-95973900D03*
X107218480Y-95973900D03*
X107218480Y-105498900D03*
X105948480Y-105498900D03*
X104678480Y-105498900D03*
X103408480Y-105498900D03*
X102138480Y-105498900D03*
X100868480Y-105498900D03*
X99598480Y-105498900D03*
X98328480Y-105498900D03*
X97058480Y-105498900D03*
X95788480Y-105498900D03*
X94518480Y-105498900D03*
X93248480Y-105498900D03*
X91978480Y-105498900D03*
X90708480Y-105498900D03*
D14*
X84734400Y-99917500D03*
X84734400Y-103917500D03*
D15*
X76611480Y-102011480D03*
X77871320Y-93040200D03*
X82336640Y-85308440D03*
X89611200Y-79822040D03*
X108356400Y-79898240D03*
X115783360Y-85440520D03*
X120548400Y-93080840D03*
X121732040Y-102031800D03*
D16*
X103408480Y-102549960D02*
X103408480Y-102227380D01*
X101098600Y-99917500D02*
X84734400Y-99917500D01*
X103408480Y-102227380D02*
X101098600Y-99917500D01*
X84734400Y-99917500D02*
X84734400Y-98488500D01*
X84734400Y-98488500D02*
X85039200Y-98183700D01*
X85039200Y-98183700D02*
X100164900Y-98183700D01*
X100164900Y-98183700D02*
X100812600Y-97536000D01*
D17*
X100868480Y-95973900D02*
X100868480Y-97373440D01*
X100868480Y-97373440D02*
X100868480Y-97414080D01*
D16*
X98425000Y-120904000D02*
X83687920Y-120904000D01*
X83687920Y-120904000D02*
X80020160Y-117236240D01*
X80020160Y-117236240D02*
X80020160Y-101422200D01*
X80020160Y-101422200D02*
X81593440Y-99848920D01*
X81593440Y-99848920D02*
X84772500Y-99848920D01*
D17*
X103408480Y-105498900D02*
X103408480Y-102549960D01*
X103408480Y-102549960D02*
X103408480Y-102478840D01*
X103408480Y-102478840D02*
X103403400Y-102473760D01*
X102138480Y-95973900D02*
X102138480Y-97680780D01*
X84734400Y-105613200D02*
X84734400Y-103917500D01*
X87096600Y-107975400D02*
X84734400Y-105613200D01*
X107365800Y-107975400D02*
X87096600Y-107975400D01*
X109080300Y-106260900D02*
X107365800Y-107975400D01*
X109080300Y-100012500D02*
X109080300Y-106260900D01*
X107784900Y-98717100D02*
X109080300Y-100012500D01*
X103174800Y-98717100D02*
X107784900Y-98717100D01*
X102138480Y-97680780D02*
X103174800Y-98717100D01*
X104678480Y-105498900D02*
X104678480Y-106547920D01*
X88601300Y-103917500D02*
X84734400Y-103917500D01*
X89001600Y-104317800D02*
X88601300Y-103917500D01*
X89001600Y-106908600D02*
X89001600Y-104317800D01*
X89535000Y-107442000D02*
X89001600Y-106908600D01*
X103784400Y-107442000D02*
X89535000Y-107442000D01*
X104678480Y-106547920D02*
X103784400Y-107442000D01*
X98425000Y-123444000D02*
X98442780Y-123444000D01*
X98442780Y-123444000D02*
X99684840Y-122201940D01*
X99684840Y-122201940D02*
X99684840Y-119969280D01*
X99684840Y-119969280D02*
X99214940Y-119499380D01*
X99214940Y-119499380D02*
X84350860Y-119499380D01*
X84350860Y-119499380D02*
X81381600Y-116530120D01*
X81381600Y-116530120D02*
X81381600Y-104736900D01*
X81381600Y-104736900D02*
X82269580Y-103848920D01*
X82269580Y-103848920D02*
X84734400Y-103848920D01*
X107218480Y-105498900D02*
X105948480Y-105498900D01*
X105948480Y-105498900D02*
X104678480Y-105498900D01*
X76831511Y-104049589D02*
X76831511Y-102231511D01*
X76831511Y-102231511D02*
X76611480Y-102011480D01*
X76831511Y-102053711D02*
X76733400Y-101955600D01*
X77141560Y-93769960D02*
X77141560Y-94944985D01*
X77871320Y-93040200D02*
X77141560Y-93769960D01*
X81211739Y-86728690D02*
X81211739Y-86433341D01*
X81211739Y-86433341D02*
X82336640Y-85308440D01*
X87950984Y-80702837D02*
X88730403Y-80702837D01*
X88730403Y-80702837D02*
X89611200Y-79822040D01*
X106376909Y-78891727D02*
X107349887Y-78891727D01*
X107349887Y-78891727D02*
X108356400Y-79898240D01*
X114487625Y-83862711D02*
X114487625Y-84144785D01*
X114487625Y-84144785D02*
X115783360Y-85440520D01*
X119762760Y-91135415D02*
X119762760Y-92295200D01*
X119762760Y-92295200D02*
X120548400Y-93080840D01*
X121738711Y-100014011D02*
X121738711Y-102025129D01*
X121738711Y-102025129D02*
X121732040Y-102031800D01*
X90766900Y-96024700D02*
X90766900Y-82870040D01*
X80162400Y-96281240D02*
X76334339Y-100109301D01*
X80162400Y-90642440D02*
X80162400Y-96281240D01*
X85156040Y-85648800D02*
X80162400Y-90642440D01*
X85877400Y-85648800D02*
X85156040Y-85648800D01*
X88849200Y-82677000D02*
X85877400Y-85648800D01*
X90573860Y-82677000D02*
X88849200Y-82677000D01*
X90766900Y-82870040D02*
X90573860Y-82677000D01*
X92036900Y-96024700D02*
X92036900Y-82641440D01*
X84963000Y-85156040D02*
X78932825Y-91186215D01*
X85765640Y-85156040D02*
X84963000Y-85156040D01*
X88661240Y-82260440D02*
X85765640Y-85156040D01*
X91655900Y-82260440D02*
X88661240Y-82260440D01*
X92036900Y-82641440D02*
X91655900Y-82260440D01*
X78932825Y-91186215D02*
X78509640Y-91186215D01*
X93306900Y-96024700D02*
X93306900Y-82522060D01*
X86591530Y-83756110D02*
X83888261Y-83756110D01*
X88544400Y-81803240D02*
X86591530Y-83756110D01*
X92588080Y-81803240D02*
X88544400Y-81803240D01*
X93306900Y-82522060D02*
X92588080Y-81803240D01*
X94576900Y-96024700D02*
X94576900Y-83187540D01*
X92623640Y-80059787D02*
X91576216Y-79012363D01*
X92623640Y-81234280D02*
X92623640Y-80059787D01*
X94576900Y-83187540D02*
X92623640Y-81234280D01*
X95788480Y-95973900D02*
X95788480Y-83281520D01*
X109076724Y-81473040D02*
X110031091Y-80518673D01*
X97596960Y-81473040D02*
X109076724Y-81473040D01*
X95788480Y-83281520D02*
X97596960Y-81473040D01*
X97058480Y-95973900D02*
X97058480Y-82763360D01*
X114320789Y-86926889D02*
X117058775Y-86926889D01*
X109313980Y-81920080D02*
X114320789Y-86926889D01*
X97901760Y-81920080D02*
X109313980Y-81920080D01*
X97058480Y-82763360D02*
X97901760Y-81920080D01*
X98328480Y-95973900D02*
X98328480Y-83002120D01*
X118810825Y-94894185D02*
X121130840Y-94894185D01*
X118018560Y-94101920D02*
X118810825Y-94894185D01*
X118018560Y-91224100D02*
X118018560Y-94101920D01*
X109189520Y-82395060D02*
X118018560Y-91224100D01*
X98935540Y-82395060D02*
X109189520Y-82395060D01*
X98328480Y-83002120D02*
X98935540Y-82395060D01*
X99598480Y-95973900D02*
X99598480Y-83520280D01*
X119421669Y-103998789D02*
X121390089Y-103998789D01*
X119176800Y-103753920D02*
X119421669Y-103998789D01*
X119176800Y-95897700D02*
X119176800Y-103753920D01*
X117538500Y-94259400D02*
X119176800Y-95897700D01*
X117538500Y-91358720D02*
X117538500Y-94259400D01*
X109161580Y-82981800D02*
X117538500Y-91358720D01*
X100136960Y-82981800D02*
X109161580Y-82981800D01*
X99598480Y-83520280D02*
X100136960Y-82981800D01*
X100965000Y-123444000D02*
X108402120Y-123444000D01*
X104678480Y-84195920D02*
X104678480Y-95973900D01*
X105399840Y-83474560D02*
X104678480Y-84195920D01*
X109057440Y-83474560D02*
X105399840Y-83474560D01*
X117096540Y-91513660D02*
X109057440Y-83474560D01*
X117096540Y-94912180D02*
X117096540Y-91513660D01*
X118297960Y-96113600D02*
X117096540Y-94912180D01*
X118297960Y-113548160D02*
X118297960Y-96113600D01*
X108402120Y-123444000D02*
X118297960Y-113548160D01*
X105948480Y-95973900D02*
X105948480Y-85552280D01*
X108930440Y-120904000D02*
X100965000Y-120904000D01*
X116733320Y-113101120D02*
X108930440Y-120904000D01*
X116733320Y-97063560D02*
X116733320Y-113101120D01*
X116146580Y-96476820D02*
X116733320Y-97063560D01*
X116146580Y-91950540D02*
X116146580Y-96476820D01*
X108770420Y-84574380D02*
X116146580Y-91950540D01*
X106926380Y-84574380D02*
X108770420Y-84574380D01*
X105948480Y-85552280D02*
X106926380Y-84574380D01*
D18*
G36*
X119089680Y-104643952D02*
X119140397Y-104677840D01*
X119421669Y-104733789D01*
X119822625Y-104733789D01*
X119811192Y-104864473D01*
X119834792Y-105102753D01*
X119954498Y-105330176D01*
X120153254Y-105493109D01*
X120399740Y-105565877D01*
X122093271Y-105714042D01*
X122331551Y-105690442D01*
X122558974Y-105570736D01*
X122625661Y-105489387D01*
X122499884Y-106055382D01*
X122253495Y-106991663D01*
X122008172Y-107776696D01*
X121708163Y-108626721D01*
X121464549Y-109308840D01*
X121222840Y-109840600D01*
X121221048Y-109848242D01*
X121216607Y-109854717D01*
X120920024Y-110546744D01*
X120527763Y-111331266D01*
X120193111Y-111952762D01*
X120110044Y-112077363D01*
X120083490Y-112141659D01*
X120044846Y-112199495D01*
X120031132Y-112268438D01*
X120004298Y-112333414D01*
X120004371Y-112402977D01*
X119990800Y-112471200D01*
X119990800Y-113965674D01*
X119945154Y-114513431D01*
X119802743Y-115320423D01*
X119612213Y-116082544D01*
X119468435Y-116513878D01*
X119279023Y-117082113D01*
X118808461Y-118070293D01*
X118476200Y-118592418D01*
X118139162Y-119122049D01*
X117264531Y-120239633D01*
X116647674Y-120903942D01*
X115763476Y-121689895D01*
X115083548Y-122272691D01*
X114606477Y-122606641D01*
X113814270Y-123151283D01*
X113071108Y-123597180D01*
X112586488Y-123887952D01*
X112102878Y-124129757D01*
X112090506Y-124139359D01*
X112075594Y-124144148D01*
X111640267Y-124385996D01*
X110908743Y-124727374D01*
X110118523Y-125073095D01*
X108832324Y-125567787D01*
X107751894Y-125911560D01*
X106813110Y-126158609D01*
X105967468Y-126357583D01*
X104773445Y-126606338D01*
X103534391Y-126804587D01*
X102687653Y-126904203D01*
X101799324Y-127002906D01*
X100670170Y-127052000D01*
X97860510Y-127052000D01*
X96976858Y-127002908D01*
X95839014Y-126903965D01*
X94452923Y-126705952D01*
X93158873Y-126457096D01*
X92720720Y-126359729D01*
X91917002Y-126158800D01*
X91917001Y-126158799D01*
X91510602Y-126057200D01*
X91510601Y-126057199D01*
X91125931Y-125961032D01*
X90039352Y-125615302D01*
X89050255Y-125269118D01*
X87966566Y-124825791D01*
X87127149Y-124430771D01*
X86239739Y-123987066D01*
X85918164Y-123800890D01*
X96983524Y-123800890D01*
X97153355Y-124210924D01*
X97543642Y-124639183D01*
X98068108Y-124885486D01*
X98298000Y-124764819D01*
X98298000Y-123571000D01*
X97104845Y-123571000D01*
X96983524Y-123800890D01*
X85918164Y-123800890D01*
X85309182Y-123448321D01*
X84331308Y-122812703D01*
X83499450Y-122176576D01*
X82672215Y-121495323D01*
X82340846Y-121163954D01*
X82340843Y-121163952D01*
X81842140Y-120665248D01*
X81213782Y-119988556D01*
X80594335Y-119178510D01*
X80400143Y-118867803D01*
X83062128Y-121529787D01*
X83062130Y-121529790D01*
X83349245Y-121721633D01*
X83405436Y-121732810D01*
X83687920Y-121789001D01*
X83687925Y-121789000D01*
X97235568Y-121789000D01*
X97345853Y-121954054D01*
X97686553Y-122181702D01*
X97543642Y-122248817D01*
X97153355Y-122677076D01*
X96983524Y-123087110D01*
X97104845Y-123317000D01*
X98298000Y-123317000D01*
X98298000Y-123297000D01*
X98552000Y-123297000D01*
X98552000Y-123317000D01*
X98572000Y-123317000D01*
X98572000Y-123571000D01*
X98552000Y-123571000D01*
X98552000Y-124764819D01*
X98781892Y-124885486D01*
X99306358Y-124639183D01*
X99696645Y-124210924D01*
X99696655Y-124210899D01*
X99885853Y-124494054D01*
X100367622Y-124815961D01*
X100935907Y-124929000D01*
X100994093Y-124929000D01*
X101562378Y-124815961D01*
X102044147Y-124494054D01*
X102254659Y-124179000D01*
X108402120Y-124179000D01*
X108683392Y-124123051D01*
X108921843Y-123963723D01*
X118817683Y-114067884D01*
X118977011Y-113829432D01*
X118987061Y-113778908D01*
X119032960Y-113548160D01*
X119032960Y-104606053D01*
X119089680Y-104643952D01*
X119089680Y-104643952D01*
G37*
X119089680Y-104643952D02*
X119140397Y-104677840D01*
X119421669Y-104733789D01*
X119822625Y-104733789D01*
X119811192Y-104864473D01*
X119834792Y-105102753D01*
X119954498Y-105330176D01*
X120153254Y-105493109D01*
X120399740Y-105565877D01*
X122093271Y-105714042D01*
X122331551Y-105690442D01*
X122558974Y-105570736D01*
X122625661Y-105489387D01*
X122499884Y-106055382D01*
X122253495Y-106991663D01*
X122008172Y-107776696D01*
X121708163Y-108626721D01*
X121464549Y-109308840D01*
X121222840Y-109840600D01*
X121221048Y-109848242D01*
X121216607Y-109854717D01*
X120920024Y-110546744D01*
X120527763Y-111331266D01*
X120193111Y-111952762D01*
X120110044Y-112077363D01*
X120083490Y-112141659D01*
X120044846Y-112199495D01*
X120031132Y-112268438D01*
X120004298Y-112333414D01*
X120004371Y-112402977D01*
X119990800Y-112471200D01*
X119990800Y-113965674D01*
X119945154Y-114513431D01*
X119802743Y-115320423D01*
X119612213Y-116082544D01*
X119468435Y-116513878D01*
X119279023Y-117082113D01*
X118808461Y-118070293D01*
X118476200Y-118592418D01*
X118139162Y-119122049D01*
X117264531Y-120239633D01*
X116647674Y-120903942D01*
X115763476Y-121689895D01*
X115083548Y-122272691D01*
X114606477Y-122606641D01*
X113814270Y-123151283D01*
X113071108Y-123597180D01*
X112586488Y-123887952D01*
X112102878Y-124129757D01*
X112090506Y-124139359D01*
X112075594Y-124144148D01*
X111640267Y-124385996D01*
X110908743Y-124727374D01*
X110118523Y-125073095D01*
X108832324Y-125567787D01*
X107751894Y-125911560D01*
X106813110Y-126158609D01*
X105967468Y-126357583D01*
X104773445Y-126606338D01*
X103534391Y-126804587D01*
X102687653Y-126904203D01*
X101799324Y-127002906D01*
X100670170Y-127052000D01*
X97860510Y-127052000D01*
X96976858Y-127002908D01*
X95839014Y-126903965D01*
X94452923Y-126705952D01*
X93158873Y-126457096D01*
X92720720Y-126359729D01*
X91917002Y-126158800D01*
X91917001Y-126158799D01*
X91510602Y-126057200D01*
X91510601Y-126057199D01*
X91125931Y-125961032D01*
X90039352Y-125615302D01*
X89050255Y-125269118D01*
X87966566Y-124825791D01*
X87127149Y-124430771D01*
X86239739Y-123987066D01*
X85918164Y-123800890D01*
X96983524Y-123800890D01*
X97153355Y-124210924D01*
X97543642Y-124639183D01*
X98068108Y-124885486D01*
X98298000Y-124764819D01*
X98298000Y-123571000D01*
X97104845Y-123571000D01*
X96983524Y-123800890D01*
X85918164Y-123800890D01*
X85309182Y-123448321D01*
X84331308Y-122812703D01*
X83499450Y-122176576D01*
X82672215Y-121495323D01*
X82340846Y-121163954D01*
X82340843Y-121163952D01*
X81842140Y-120665248D01*
X81213782Y-119988556D01*
X80594335Y-119178510D01*
X80400143Y-118867803D01*
X83062128Y-121529787D01*
X83062130Y-121529790D01*
X83349245Y-121721633D01*
X83405436Y-121732810D01*
X83687920Y-121789001D01*
X83687925Y-121789000D01*
X97235568Y-121789000D01*
X97345853Y-121954054D01*
X97686553Y-122181702D01*
X97543642Y-122248817D01*
X97153355Y-122677076D01*
X96983524Y-123087110D01*
X97104845Y-123317000D01*
X98298000Y-123317000D01*
X98298000Y-123297000D01*
X98552000Y-123297000D01*
X98552000Y-123317000D01*
X98572000Y-123317000D01*
X98572000Y-123571000D01*
X98552000Y-123571000D01*
X98552000Y-124764819D01*
X98781892Y-124885486D01*
X99306358Y-124639183D01*
X99696645Y-124210924D01*
X99696655Y-124210899D01*
X99885853Y-124494054D01*
X100367622Y-124815961D01*
X100935907Y-124929000D01*
X100994093Y-124929000D01*
X101562378Y-124815961D01*
X102044147Y-124494054D01*
X102254659Y-124179000D01*
X108402120Y-124179000D01*
X108683392Y-124123051D01*
X108921843Y-123963723D01*
X118817683Y-114067884D01*
X118977011Y-113829432D01*
X118987061Y-113778908D01*
X119032960Y-113548160D01*
X119032960Y-104606053D01*
X119089680Y-104643952D01*
G36*
X99705344Y-121744086D02*
X100122717Y-122162188D01*
X100190550Y-122190355D01*
X99885853Y-122393946D01*
X99696655Y-122677101D01*
X99696645Y-122677076D01*
X99306358Y-122248817D01*
X99163447Y-122181702D01*
X99504147Y-121954054D01*
X99682074Y-121687767D01*
X99705344Y-121744086D01*
X99705344Y-121744086D01*
G37*
X99705344Y-121744086D02*
X100122717Y-122162188D01*
X100190550Y-122190355D01*
X99885853Y-122393946D01*
X99696655Y-122677101D01*
X99696645Y-122677076D01*
X99306358Y-122248817D01*
X99163447Y-122181702D01*
X99504147Y-121954054D01*
X99682074Y-121687767D01*
X99705344Y-121744086D01*
G36*
X103999429Y-83914648D02*
X103943480Y-84195920D01*
X103943480Y-94786146D01*
X103789480Y-94754960D01*
X103027480Y-94754960D01*
X102792163Y-94799238D01*
X102764941Y-94816755D01*
X102645789Y-94767400D01*
X102424230Y-94767400D01*
X102265480Y-94926150D01*
X102265480Y-95846900D01*
X102285480Y-95846900D01*
X102285480Y-96100900D01*
X102265480Y-96100900D01*
X102265480Y-97021650D01*
X102424230Y-97180400D01*
X102645789Y-97180400D01*
X102761743Y-97132370D01*
X102775590Y-97141831D01*
X103027480Y-97192840D01*
X103789480Y-97192840D01*
X104024797Y-97148562D01*
X104040579Y-97138407D01*
X104045590Y-97141831D01*
X104297480Y-97192840D01*
X105059480Y-97192840D01*
X105294797Y-97148562D01*
X105310579Y-97138407D01*
X105315590Y-97141831D01*
X105567480Y-97192840D01*
X106329480Y-97192840D01*
X106564797Y-97148562D01*
X106580579Y-97138407D01*
X106585590Y-97141831D01*
X106837480Y-97192840D01*
X107599480Y-97192840D01*
X107834797Y-97148562D01*
X108050921Y-97009490D01*
X108195911Y-96797290D01*
X108246920Y-96545400D01*
X108246920Y-95402400D01*
X108202642Y-95167083D01*
X108063570Y-94950959D01*
X107851370Y-94805969D01*
X107599480Y-94754960D01*
X106837480Y-94754960D01*
X106683480Y-94783937D01*
X106683480Y-85856726D01*
X107230827Y-85309380D01*
X108465974Y-85309380D01*
X115411580Y-92254987D01*
X115411580Y-96476820D01*
X115457473Y-96707539D01*
X115467529Y-96758092D01*
X115626857Y-96996543D01*
X115998320Y-97368007D01*
X115998320Y-112796673D01*
X108625994Y-120169000D01*
X102268077Y-120169000D01*
X102224656Y-120063914D01*
X101807283Y-119645812D01*
X101261681Y-119419258D01*
X100670911Y-119418743D01*
X100124914Y-119644344D01*
X99706812Y-120061717D01*
X99682345Y-120120639D01*
X99504147Y-119853946D01*
X99022378Y-119532039D01*
X98454093Y-119419000D01*
X98395907Y-119419000D01*
X97827622Y-119532039D01*
X97345853Y-119853946D01*
X97235568Y-120019000D01*
X84054499Y-120019000D01*
X80905160Y-116869660D01*
X80905160Y-104203250D01*
X83299400Y-104203250D01*
X83299400Y-105043809D01*
X83396073Y-105277198D01*
X83574701Y-105455827D01*
X83808090Y-105552500D01*
X84448650Y-105552500D01*
X84607400Y-105393750D01*
X84607400Y-104044500D01*
X84861400Y-104044500D01*
X84861400Y-105393750D01*
X85020150Y-105552500D01*
X85660710Y-105552500D01*
X85894099Y-105455827D01*
X86072727Y-105277198D01*
X86169400Y-105043809D01*
X86169400Y-104203250D01*
X86010650Y-104044500D01*
X84861400Y-104044500D01*
X84607400Y-104044500D01*
X83458150Y-104044500D01*
X83299400Y-104203250D01*
X80905160Y-104203250D01*
X80905160Y-102791191D01*
X83299400Y-102791191D01*
X83299400Y-103631750D01*
X83458150Y-103790500D01*
X84607400Y-103790500D01*
X84607400Y-102441250D01*
X84861400Y-102441250D01*
X84861400Y-103790500D01*
X86010650Y-103790500D01*
X86169400Y-103631750D01*
X86169400Y-102791191D01*
X86072727Y-102557802D01*
X85894099Y-102379173D01*
X85660710Y-102282500D01*
X85020150Y-102282500D01*
X84861400Y-102441250D01*
X84607400Y-102441250D01*
X84448650Y-102282500D01*
X83808090Y-102282500D01*
X83574701Y-102379173D01*
X83396073Y-102557802D01*
X83299400Y-102791191D01*
X80905160Y-102791191D01*
X80905160Y-101788780D01*
X81960019Y-100733920D01*
X83286960Y-100733920D01*
X83286960Y-100917500D01*
X83331238Y-101152817D01*
X83470310Y-101368941D01*
X83682510Y-101513931D01*
X83934400Y-101564940D01*
X85534400Y-101564940D01*
X85769717Y-101520662D01*
X85985841Y-101381590D01*
X86130831Y-101169390D01*
X86181840Y-100917500D01*
X86181840Y-100802500D01*
X100732020Y-100802500D01*
X102534405Y-102604884D01*
X102590847Y-102888635D01*
X102673480Y-103012305D01*
X102673480Y-104311146D01*
X102519480Y-104279960D01*
X101757480Y-104279960D01*
X101522163Y-104324238D01*
X101506381Y-104334393D01*
X101501370Y-104330969D01*
X101249480Y-104279960D01*
X100487480Y-104279960D01*
X100252163Y-104324238D01*
X100236381Y-104334393D01*
X100231370Y-104330969D01*
X99979480Y-104279960D01*
X99217480Y-104279960D01*
X98982163Y-104324238D01*
X98966381Y-104334393D01*
X98961370Y-104330969D01*
X98709480Y-104279960D01*
X97947480Y-104279960D01*
X97712163Y-104324238D01*
X97696381Y-104334393D01*
X97691370Y-104330969D01*
X97439480Y-104279960D01*
X96677480Y-104279960D01*
X96442163Y-104324238D01*
X96426381Y-104334393D01*
X96421370Y-104330969D01*
X96169480Y-104279960D01*
X95407480Y-104279960D01*
X95172163Y-104324238D01*
X95156381Y-104334393D01*
X95151370Y-104330969D01*
X94899480Y-104279960D01*
X94137480Y-104279960D01*
X93902163Y-104324238D01*
X93886381Y-104334393D01*
X93881370Y-104330969D01*
X93629480Y-104279960D01*
X92867480Y-104279960D01*
X92632163Y-104324238D01*
X92616381Y-104334393D01*
X92611370Y-104330969D01*
X92359480Y-104279960D01*
X91597480Y-104279960D01*
X91362163Y-104324238D01*
X91346381Y-104334393D01*
X91341370Y-104330969D01*
X91089480Y-104279960D01*
X90327480Y-104279960D01*
X90092163Y-104324238D01*
X89876039Y-104463310D01*
X89731049Y-104675510D01*
X89680040Y-104927400D01*
X89680040Y-106070400D01*
X89724318Y-106305717D01*
X89863390Y-106521841D01*
X90075590Y-106666831D01*
X90327480Y-106717840D01*
X91089480Y-106717840D01*
X91324797Y-106673562D01*
X91340579Y-106663407D01*
X91345590Y-106666831D01*
X91597480Y-106717840D01*
X92359480Y-106717840D01*
X92594797Y-106673562D01*
X92610579Y-106663407D01*
X92615590Y-106666831D01*
X92867480Y-106717840D01*
X93629480Y-106717840D01*
X93864797Y-106673562D01*
X93880579Y-106663407D01*
X93885590Y-106666831D01*
X94137480Y-106717840D01*
X94899480Y-106717840D01*
X95134797Y-106673562D01*
X95150579Y-106663407D01*
X95155590Y-106666831D01*
X95407480Y-106717840D01*
X96169480Y-106717840D01*
X96404797Y-106673562D01*
X96420579Y-106663407D01*
X96425590Y-106666831D01*
X96677480Y-106717840D01*
X97439480Y-106717840D01*
X97674797Y-106673562D01*
X97690579Y-106663407D01*
X97695590Y-106666831D01*
X97947480Y-106717840D01*
X98709480Y-106717840D01*
X98944797Y-106673562D01*
X98960579Y-106663407D01*
X98965590Y-106666831D01*
X99217480Y-106717840D01*
X99979480Y-106717840D01*
X100214797Y-106673562D01*
X100230579Y-106663407D01*
X100235590Y-106666831D01*
X100487480Y-106717840D01*
X101249480Y-106717840D01*
X101484797Y-106673562D01*
X101500579Y-106663407D01*
X101505590Y-106666831D01*
X101757480Y-106717840D01*
X102519480Y-106717840D01*
X102754797Y-106673562D01*
X102770579Y-106663407D01*
X102775590Y-106666831D01*
X103027480Y-106717840D01*
X103789480Y-106717840D01*
X104024797Y-106673562D01*
X104052019Y-106656045D01*
X104171171Y-106705400D01*
X104392730Y-106705400D01*
X104551480Y-106546650D01*
X104551480Y-105625900D01*
X104805480Y-105625900D01*
X104805480Y-106546650D01*
X104964230Y-106705400D01*
X105185789Y-106705400D01*
X105313480Y-106652509D01*
X105441171Y-106705400D01*
X105662730Y-106705400D01*
X105821480Y-106546650D01*
X105821480Y-105625900D01*
X106075480Y-105625900D01*
X106075480Y-106546650D01*
X106234230Y-106705400D01*
X106455789Y-106705400D01*
X106583480Y-106652509D01*
X106711171Y-106705400D01*
X106932730Y-106705400D01*
X107091480Y-106546650D01*
X107091480Y-105625900D01*
X107345480Y-105625900D01*
X107345480Y-106546650D01*
X107504230Y-106705400D01*
X107725789Y-106705400D01*
X107959178Y-106608727D01*
X108137807Y-106430099D01*
X108234480Y-106196710D01*
X108234480Y-105784650D01*
X108075730Y-105625900D01*
X107345480Y-105625900D01*
X107091480Y-105625900D01*
X106075480Y-105625900D01*
X105821480Y-105625900D01*
X104805480Y-105625900D01*
X104551480Y-105625900D01*
X104531480Y-105625900D01*
X104531480Y-105371900D01*
X104551480Y-105371900D01*
X104551480Y-104451150D01*
X104805480Y-104451150D01*
X104805480Y-105371900D01*
X105821480Y-105371900D01*
X105821480Y-104451150D01*
X106075480Y-104451150D01*
X106075480Y-105371900D01*
X107091480Y-105371900D01*
X107091480Y-104451150D01*
X107345480Y-104451150D01*
X107345480Y-105371900D01*
X108075730Y-105371900D01*
X108234480Y-105213150D01*
X108234480Y-104801090D01*
X108137807Y-104567701D01*
X107959178Y-104389073D01*
X107725789Y-104292400D01*
X107504230Y-104292400D01*
X107345480Y-104451150D01*
X107091480Y-104451150D01*
X106932730Y-104292400D01*
X106711171Y-104292400D01*
X106583480Y-104345291D01*
X106455789Y-104292400D01*
X106234230Y-104292400D01*
X106075480Y-104451150D01*
X105821480Y-104451150D01*
X105662730Y-104292400D01*
X105441171Y-104292400D01*
X105313480Y-104345291D01*
X105185789Y-104292400D01*
X104964230Y-104292400D01*
X104805480Y-104451150D01*
X104551480Y-104451150D01*
X104392730Y-104292400D01*
X104171171Y-104292400D01*
X104143480Y-104303870D01*
X104143480Y-103012305D01*
X104226113Y-102888635D01*
X104293480Y-102549960D01*
X104293480Y-102227385D01*
X104293481Y-102227380D01*
X104226113Y-101888706D01*
X104226113Y-101888705D01*
X104034270Y-101601590D01*
X104034267Y-101601588D01*
X101724390Y-99291710D01*
X101614604Y-99218354D01*
X101437275Y-99099867D01*
X101381084Y-99088690D01*
X101098600Y-99032499D01*
X101098595Y-99032500D01*
X100346891Y-99032500D01*
X100457992Y-99010400D01*
X100503575Y-99001333D01*
X100790690Y-98809490D01*
X101438389Y-98161790D01*
X101630233Y-97874675D01*
X101697601Y-97536000D01*
X101630233Y-97197326D01*
X101614236Y-97173385D01*
X101631171Y-97180400D01*
X101852730Y-97180400D01*
X102011480Y-97021650D01*
X102011480Y-96100900D01*
X101991480Y-96100900D01*
X101991480Y-95846900D01*
X102011480Y-95846900D01*
X102011480Y-94926150D01*
X101852730Y-94767400D01*
X101631171Y-94767400D01*
X101515217Y-94815430D01*
X101501370Y-94805969D01*
X101249480Y-94754960D01*
X100487480Y-94754960D01*
X100333480Y-94783937D01*
X100333480Y-83824726D01*
X100441407Y-83716800D01*
X104131627Y-83716800D01*
X103999429Y-83914648D01*
X103999429Y-83914648D01*
G37*
X103999429Y-83914648D02*
X103943480Y-84195920D01*
X103943480Y-94786146D01*
X103789480Y-94754960D01*
X103027480Y-94754960D01*
X102792163Y-94799238D01*
X102764941Y-94816755D01*
X102645789Y-94767400D01*
X102424230Y-94767400D01*
X102265480Y-94926150D01*
X102265480Y-95846900D01*
X102285480Y-95846900D01*
X102285480Y-96100900D01*
X102265480Y-96100900D01*
X102265480Y-97021650D01*
X102424230Y-97180400D01*
X102645789Y-97180400D01*
X102761743Y-97132370D01*
X102775590Y-97141831D01*
X103027480Y-97192840D01*
X103789480Y-97192840D01*
X104024797Y-97148562D01*
X104040579Y-97138407D01*
X104045590Y-97141831D01*
X104297480Y-97192840D01*
X105059480Y-97192840D01*
X105294797Y-97148562D01*
X105310579Y-97138407D01*
X105315590Y-97141831D01*
X105567480Y-97192840D01*
X106329480Y-97192840D01*
X106564797Y-97148562D01*
X106580579Y-97138407D01*
X106585590Y-97141831D01*
X106837480Y-97192840D01*
X107599480Y-97192840D01*
X107834797Y-97148562D01*
X108050921Y-97009490D01*
X108195911Y-96797290D01*
X108246920Y-96545400D01*
X108246920Y-95402400D01*
X108202642Y-95167083D01*
X108063570Y-94950959D01*
X107851370Y-94805969D01*
X107599480Y-94754960D01*
X106837480Y-94754960D01*
X106683480Y-94783937D01*
X106683480Y-85856726D01*
X107230827Y-85309380D01*
X108465974Y-85309380D01*
X115411580Y-92254987D01*
X115411580Y-96476820D01*
X115457473Y-96707539D01*
X115467529Y-96758092D01*
X115626857Y-96996543D01*
X115998320Y-97368007D01*
X115998320Y-112796673D01*
X108625994Y-120169000D01*
X102268077Y-120169000D01*
X102224656Y-120063914D01*
X101807283Y-119645812D01*
X101261681Y-119419258D01*
X100670911Y-119418743D01*
X100124914Y-119644344D01*
X99706812Y-120061717D01*
X99682345Y-120120639D01*
X99504147Y-119853946D01*
X99022378Y-119532039D01*
X98454093Y-119419000D01*
X98395907Y-119419000D01*
X97827622Y-119532039D01*
X97345853Y-119853946D01*
X97235568Y-120019000D01*
X84054499Y-120019000D01*
X80905160Y-116869660D01*
X80905160Y-104203250D01*
X83299400Y-104203250D01*
X83299400Y-105043809D01*
X83396073Y-105277198D01*
X83574701Y-105455827D01*
X83808090Y-105552500D01*
X84448650Y-105552500D01*
X84607400Y-105393750D01*
X84607400Y-104044500D01*
X84861400Y-104044500D01*
X84861400Y-105393750D01*
X85020150Y-105552500D01*
X85660710Y-105552500D01*
X85894099Y-105455827D01*
X86072727Y-105277198D01*
X86169400Y-105043809D01*
X86169400Y-104203250D01*
X86010650Y-104044500D01*
X84861400Y-104044500D01*
X84607400Y-104044500D01*
X83458150Y-104044500D01*
X83299400Y-104203250D01*
X80905160Y-104203250D01*
X80905160Y-102791191D01*
X83299400Y-102791191D01*
X83299400Y-103631750D01*
X83458150Y-103790500D01*
X84607400Y-103790500D01*
X84607400Y-102441250D01*
X84861400Y-102441250D01*
X84861400Y-103790500D01*
X86010650Y-103790500D01*
X86169400Y-103631750D01*
X86169400Y-102791191D01*
X86072727Y-102557802D01*
X85894099Y-102379173D01*
X85660710Y-102282500D01*
X85020150Y-102282500D01*
X84861400Y-102441250D01*
X84607400Y-102441250D01*
X84448650Y-102282500D01*
X83808090Y-102282500D01*
X83574701Y-102379173D01*
X83396073Y-102557802D01*
X83299400Y-102791191D01*
X80905160Y-102791191D01*
X80905160Y-101788780D01*
X81960019Y-100733920D01*
X83286960Y-100733920D01*
X83286960Y-100917500D01*
X83331238Y-101152817D01*
X83470310Y-101368941D01*
X83682510Y-101513931D01*
X83934400Y-101564940D01*
X85534400Y-101564940D01*
X85769717Y-101520662D01*
X85985841Y-101381590D01*
X86130831Y-101169390D01*
X86181840Y-100917500D01*
X86181840Y-100802500D01*
X100732020Y-100802500D01*
X102534405Y-102604884D01*
X102590847Y-102888635D01*
X102673480Y-103012305D01*
X102673480Y-104311146D01*
X102519480Y-104279960D01*
X101757480Y-104279960D01*
X101522163Y-104324238D01*
X101506381Y-104334393D01*
X101501370Y-104330969D01*
X101249480Y-104279960D01*
X100487480Y-104279960D01*
X100252163Y-104324238D01*
X100236381Y-104334393D01*
X100231370Y-104330969D01*
X99979480Y-104279960D01*
X99217480Y-104279960D01*
X98982163Y-104324238D01*
X98966381Y-104334393D01*
X98961370Y-104330969D01*
X98709480Y-104279960D01*
X97947480Y-104279960D01*
X97712163Y-104324238D01*
X97696381Y-104334393D01*
X97691370Y-104330969D01*
X97439480Y-104279960D01*
X96677480Y-104279960D01*
X96442163Y-104324238D01*
X96426381Y-104334393D01*
X96421370Y-104330969D01*
X96169480Y-104279960D01*
X95407480Y-104279960D01*
X95172163Y-104324238D01*
X95156381Y-104334393D01*
X95151370Y-104330969D01*
X94899480Y-104279960D01*
X94137480Y-104279960D01*
X93902163Y-104324238D01*
X93886381Y-104334393D01*
X93881370Y-104330969D01*
X93629480Y-104279960D01*
X92867480Y-104279960D01*
X92632163Y-104324238D01*
X92616381Y-104334393D01*
X92611370Y-104330969D01*
X92359480Y-104279960D01*
X91597480Y-104279960D01*
X91362163Y-104324238D01*
X91346381Y-104334393D01*
X91341370Y-104330969D01*
X91089480Y-104279960D01*
X90327480Y-104279960D01*
X90092163Y-104324238D01*
X89876039Y-104463310D01*
X89731049Y-104675510D01*
X89680040Y-104927400D01*
X89680040Y-106070400D01*
X89724318Y-106305717D01*
X89863390Y-106521841D01*
X90075590Y-106666831D01*
X90327480Y-106717840D01*
X91089480Y-106717840D01*
X91324797Y-106673562D01*
X91340579Y-106663407D01*
X91345590Y-106666831D01*
X91597480Y-106717840D01*
X92359480Y-106717840D01*
X92594797Y-106673562D01*
X92610579Y-106663407D01*
X92615590Y-106666831D01*
X92867480Y-106717840D01*
X93629480Y-106717840D01*
X93864797Y-106673562D01*
X93880579Y-106663407D01*
X93885590Y-106666831D01*
X94137480Y-106717840D01*
X94899480Y-106717840D01*
X95134797Y-106673562D01*
X95150579Y-106663407D01*
X95155590Y-106666831D01*
X95407480Y-106717840D01*
X96169480Y-106717840D01*
X96404797Y-106673562D01*
X96420579Y-106663407D01*
X96425590Y-106666831D01*
X96677480Y-106717840D01*
X97439480Y-106717840D01*
X97674797Y-106673562D01*
X97690579Y-106663407D01*
X97695590Y-106666831D01*
X97947480Y-106717840D01*
X98709480Y-106717840D01*
X98944797Y-106673562D01*
X98960579Y-106663407D01*
X98965590Y-106666831D01*
X99217480Y-106717840D01*
X99979480Y-106717840D01*
X100214797Y-106673562D01*
X100230579Y-106663407D01*
X100235590Y-106666831D01*
X100487480Y-106717840D01*
X101249480Y-106717840D01*
X101484797Y-106673562D01*
X101500579Y-106663407D01*
X101505590Y-106666831D01*
X101757480Y-106717840D01*
X102519480Y-106717840D01*
X102754797Y-106673562D01*
X102770579Y-106663407D01*
X102775590Y-106666831D01*
X103027480Y-106717840D01*
X103789480Y-106717840D01*
X104024797Y-106673562D01*
X104052019Y-106656045D01*
X104171171Y-106705400D01*
X104392730Y-106705400D01*
X104551480Y-106546650D01*
X104551480Y-105625900D01*
X104805480Y-105625900D01*
X104805480Y-106546650D01*
X104964230Y-106705400D01*
X105185789Y-106705400D01*
X105313480Y-106652509D01*
X105441171Y-106705400D01*
X105662730Y-106705400D01*
X105821480Y-106546650D01*
X105821480Y-105625900D01*
X106075480Y-105625900D01*
X106075480Y-106546650D01*
X106234230Y-106705400D01*
X106455789Y-106705400D01*
X106583480Y-106652509D01*
X106711171Y-106705400D01*
X106932730Y-106705400D01*
X107091480Y-106546650D01*
X107091480Y-105625900D01*
X107345480Y-105625900D01*
X107345480Y-106546650D01*
X107504230Y-106705400D01*
X107725789Y-106705400D01*
X107959178Y-106608727D01*
X108137807Y-106430099D01*
X108234480Y-106196710D01*
X108234480Y-105784650D01*
X108075730Y-105625900D01*
X107345480Y-105625900D01*
X107091480Y-105625900D01*
X106075480Y-105625900D01*
X105821480Y-105625900D01*
X104805480Y-105625900D01*
X104551480Y-105625900D01*
X104531480Y-105625900D01*
X104531480Y-105371900D01*
X104551480Y-105371900D01*
X104551480Y-104451150D01*
X104805480Y-104451150D01*
X104805480Y-105371900D01*
X105821480Y-105371900D01*
X105821480Y-104451150D01*
X106075480Y-104451150D01*
X106075480Y-105371900D01*
X107091480Y-105371900D01*
X107091480Y-104451150D01*
X107345480Y-104451150D01*
X107345480Y-105371900D01*
X108075730Y-105371900D01*
X108234480Y-105213150D01*
X108234480Y-104801090D01*
X108137807Y-104567701D01*
X107959178Y-104389073D01*
X107725789Y-104292400D01*
X107504230Y-104292400D01*
X107345480Y-104451150D01*
X107091480Y-104451150D01*
X106932730Y-104292400D01*
X106711171Y-104292400D01*
X106583480Y-104345291D01*
X106455789Y-104292400D01*
X106234230Y-104292400D01*
X106075480Y-104451150D01*
X105821480Y-104451150D01*
X105662730Y-104292400D01*
X105441171Y-104292400D01*
X105313480Y-104345291D01*
X105185789Y-104292400D01*
X104964230Y-104292400D01*
X104805480Y-104451150D01*
X104551480Y-104451150D01*
X104392730Y-104292400D01*
X104171171Y-104292400D01*
X104143480Y-104303870D01*
X104143480Y-103012305D01*
X104226113Y-102888635D01*
X104293480Y-102549960D01*
X104293480Y-102227385D01*
X104293481Y-102227380D01*
X104226113Y-101888706D01*
X104226113Y-101888705D01*
X104034270Y-101601590D01*
X104034267Y-101601588D01*
X101724390Y-99291710D01*
X101614604Y-99218354D01*
X101437275Y-99099867D01*
X101381084Y-99088690D01*
X101098600Y-99032499D01*
X101098595Y-99032500D01*
X100346891Y-99032500D01*
X100457992Y-99010400D01*
X100503575Y-99001333D01*
X100790690Y-98809490D01*
X101438389Y-98161790D01*
X101630233Y-97874675D01*
X101697601Y-97536000D01*
X101630233Y-97197326D01*
X101614236Y-97173385D01*
X101631171Y-97180400D01*
X101852730Y-97180400D01*
X102011480Y-97021650D01*
X102011480Y-96100900D01*
X101991480Y-96100900D01*
X101991480Y-95846900D01*
X102011480Y-95846900D01*
X102011480Y-94926150D01*
X101852730Y-94767400D01*
X101631171Y-94767400D01*
X101515217Y-94815430D01*
X101501370Y-94805969D01*
X101249480Y-94754960D01*
X100487480Y-94754960D01*
X100333480Y-94783937D01*
X100333480Y-83824726D01*
X100441407Y-83716800D01*
X104131627Y-83716800D01*
X103999429Y-83914648D01*
M02*
