G04 #@! TF.FileFunction,Soldermask,Top*
%FSLAX46Y46*%
G04 Gerber Fmt 4.6, Leading zero omitted, Abs format (unit mm)*
G04 Created by KiCad (PCBNEW 4.0.7) date 05/30/18 19:43:50*
%MOMM*%
%LPD*%
G01*
G04 APERTURE LIST*
%ADD10C,0.100000*%
%ADD11C,0.010000*%
%ADD12C,2.100000*%
%ADD13O,2.100000X2.100000*%
%ADD14R,2.400000X2.100000*%
G04 APERTURE END LIST*
D10*
D11*
G36*
X100260093Y-116255934D02*
X100799719Y-116283193D01*
X101312267Y-116331859D01*
X101825756Y-116404577D01*
X102355463Y-116501439D01*
X103295725Y-116727592D01*
X104205256Y-117022283D01*
X105079207Y-117382202D01*
X105912732Y-117804041D01*
X106700981Y-118284489D01*
X107439107Y-118820237D01*
X108122261Y-119407976D01*
X108745596Y-120044395D01*
X109304263Y-120726185D01*
X109793414Y-121450036D01*
X109920803Y-121666000D01*
X110047654Y-121888486D01*
X110134856Y-122049695D01*
X110183517Y-122162556D01*
X110194748Y-122240001D01*
X110169658Y-122294962D01*
X110109357Y-122340371D01*
X110014954Y-122389159D01*
X109984163Y-122404388D01*
X108727563Y-122982888D01*
X107430016Y-123488825D01*
X106090564Y-123922474D01*
X104708247Y-124284111D01*
X103282106Y-124574011D01*
X101811184Y-124792447D01*
X101549200Y-124823335D01*
X101339351Y-124841763D01*
X101058222Y-124858416D01*
X100719184Y-124873121D01*
X100335608Y-124885703D01*
X99920866Y-124895988D01*
X99488329Y-124903802D01*
X99051367Y-124908970D01*
X98623354Y-124911319D01*
X98217658Y-124910675D01*
X97847653Y-124906862D01*
X97526709Y-124899707D01*
X97268198Y-124889035D01*
X97146534Y-124880695D01*
X95689722Y-124718850D01*
X94270897Y-124484286D01*
X92892046Y-124177462D01*
X91555154Y-123798837D01*
X90262210Y-123348870D01*
X89898848Y-123206344D01*
X89592054Y-123082787D01*
X89354870Y-122986778D01*
X89178344Y-122914303D01*
X89053519Y-122861351D01*
X88971444Y-122823910D01*
X88923163Y-122797967D01*
X88899722Y-122779511D01*
X88892167Y-122764528D01*
X88891534Y-122754990D01*
X88910531Y-122685369D01*
X88962487Y-122557195D01*
X89039842Y-122386257D01*
X89135041Y-122188345D01*
X89240525Y-121979248D01*
X89348737Y-121774756D01*
X89433009Y-121623667D01*
X89894991Y-120902804D01*
X90430746Y-120217605D01*
X91035294Y-119572650D01*
X91703653Y-118972524D01*
X92430842Y-118421806D01*
X93211878Y-117925080D01*
X93802200Y-117604742D01*
X94688925Y-117195319D01*
X95583427Y-116862008D01*
X96494460Y-116602780D01*
X97430782Y-116415611D01*
X98401149Y-116298471D01*
X99414316Y-116249335D01*
X99665367Y-116247436D01*
X100260093Y-116255934D01*
X100260093Y-116255934D01*
G37*
X100260093Y-116255934D02*
X100799719Y-116283193D01*
X101312267Y-116331859D01*
X101825756Y-116404577D01*
X102355463Y-116501439D01*
X103295725Y-116727592D01*
X104205256Y-117022283D01*
X105079207Y-117382202D01*
X105912732Y-117804041D01*
X106700981Y-118284489D01*
X107439107Y-118820237D01*
X108122261Y-119407976D01*
X108745596Y-120044395D01*
X109304263Y-120726185D01*
X109793414Y-121450036D01*
X109920803Y-121666000D01*
X110047654Y-121888486D01*
X110134856Y-122049695D01*
X110183517Y-122162556D01*
X110194748Y-122240001D01*
X110169658Y-122294962D01*
X110109357Y-122340371D01*
X110014954Y-122389159D01*
X109984163Y-122404388D01*
X108727563Y-122982888D01*
X107430016Y-123488825D01*
X106090564Y-123922474D01*
X104708247Y-124284111D01*
X103282106Y-124574011D01*
X101811184Y-124792447D01*
X101549200Y-124823335D01*
X101339351Y-124841763D01*
X101058222Y-124858416D01*
X100719184Y-124873121D01*
X100335608Y-124885703D01*
X99920866Y-124895988D01*
X99488329Y-124903802D01*
X99051367Y-124908970D01*
X98623354Y-124911319D01*
X98217658Y-124910675D01*
X97847653Y-124906862D01*
X97526709Y-124899707D01*
X97268198Y-124889035D01*
X97146534Y-124880695D01*
X95689722Y-124718850D01*
X94270897Y-124484286D01*
X92892046Y-124177462D01*
X91555154Y-123798837D01*
X90262210Y-123348870D01*
X89898848Y-123206344D01*
X89592054Y-123082787D01*
X89354870Y-122986778D01*
X89178344Y-122914303D01*
X89053519Y-122861351D01*
X88971444Y-122823910D01*
X88923163Y-122797967D01*
X88899722Y-122779511D01*
X88892167Y-122764528D01*
X88891534Y-122754990D01*
X88910531Y-122685369D01*
X88962487Y-122557195D01*
X89039842Y-122386257D01*
X89135041Y-122188345D01*
X89240525Y-121979248D01*
X89348737Y-121774756D01*
X89433009Y-121623667D01*
X89894991Y-120902804D01*
X90430746Y-120217605D01*
X91035294Y-119572650D01*
X91703653Y-118972524D01*
X92430842Y-118421806D01*
X93211878Y-117925080D01*
X93802200Y-117604742D01*
X94688925Y-117195319D01*
X95583427Y-116862008D01*
X96494460Y-116602780D01*
X97430782Y-116415611D01*
X98401149Y-116298471D01*
X99414316Y-116249335D01*
X99665367Y-116247436D01*
X100260093Y-116255934D01*
G36*
X107844466Y-106512376D02*
X107895880Y-106580584D01*
X107927719Y-106658833D01*
X108013701Y-106970253D01*
X108074154Y-107336625D01*
X108107575Y-107731717D01*
X108112461Y-108129294D01*
X108087310Y-108503123D01*
X108047675Y-108752870D01*
X107915388Y-109227008D01*
X107730058Y-109654255D01*
X107496494Y-110027353D01*
X107219508Y-110339043D01*
X106903910Y-110582066D01*
X106793572Y-110645188D01*
X106682071Y-110700038D01*
X106582735Y-110735110D01*
X106471186Y-110754756D01*
X106323045Y-110763324D01*
X106121200Y-110765167D01*
X105914235Y-110763189D01*
X105767522Y-110754356D01*
X105656682Y-110734318D01*
X105557336Y-110698725D01*
X105448829Y-110645188D01*
X105159414Y-110453522D01*
X104886005Y-110197711D01*
X104650152Y-109898096D01*
X104638324Y-109880178D01*
X104470200Y-109622873D01*
X104470200Y-109922665D01*
X104458422Y-110120574D01*
X104427574Y-110349035D01*
X104385283Y-110554478D01*
X104224948Y-111041454D01*
X104008865Y-111470948D01*
X103739600Y-111839549D01*
X103419717Y-112143848D01*
X103051780Y-112380434D01*
X102988534Y-112411819D01*
X102865736Y-112468011D01*
X102762357Y-112505394D01*
X102655661Y-112527781D01*
X102522914Y-112538985D01*
X102341381Y-112542818D01*
X102205367Y-112543167D01*
X101982665Y-112541593D01*
X101822234Y-112534564D01*
X101701700Y-112518619D01*
X101598693Y-112490295D01*
X101490838Y-112446130D01*
X101446695Y-112425770D01*
X101065877Y-112203239D01*
X100737191Y-111915945D01*
X100458466Y-111561658D01*
X100259594Y-111206984D01*
X100186500Y-111056793D01*
X100139946Y-110973552D01*
X100110348Y-110947636D01*
X100088127Y-110969421D01*
X100068940Y-111015468D01*
X100036938Y-111113250D01*
X100025200Y-111173032D01*
X100007506Y-111244450D01*
X99960183Y-111371771D01*
X99891877Y-111535375D01*
X99811229Y-111715641D01*
X99726883Y-111892947D01*
X99647481Y-112047674D01*
X99612062Y-112110907D01*
X99431766Y-112374743D01*
X99211397Y-112627743D01*
X98972588Y-112847975D01*
X98736970Y-113013504D01*
X98703607Y-113032062D01*
X98562012Y-113103018D01*
X98441574Y-113146830D01*
X98310965Y-113170933D01*
X98138858Y-113182758D01*
X98056700Y-113185561D01*
X97872555Y-113186861D01*
X97709909Y-113180647D01*
X97595266Y-113168194D01*
X97569867Y-113162113D01*
X97235226Y-113008995D01*
X96923116Y-112779720D01*
X96637894Y-112480824D01*
X96383919Y-112118845D01*
X96165549Y-111700317D01*
X95987141Y-111231779D01*
X95853054Y-110719765D01*
X95817888Y-110534341D01*
X95786730Y-110333877D01*
X95762264Y-110140525D01*
X95748320Y-109986050D01*
X95746555Y-109942790D01*
X95743582Y-109858797D01*
X95735934Y-109833112D01*
X95720396Y-109872400D01*
X95693754Y-109983323D01*
X95666382Y-110109000D01*
X95536729Y-110599457D01*
X95370654Y-111022320D01*
X95162682Y-111388807D01*
X94907335Y-111710132D01*
X94860534Y-111759318D01*
X94644104Y-111958467D01*
X94437976Y-112091397D01*
X94217144Y-112168839D01*
X93956601Y-112201529D01*
X93823367Y-112204500D01*
X93537514Y-112188055D01*
X93302341Y-112131565D01*
X93092842Y-112024297D01*
X92884010Y-111855517D01*
X92786200Y-111759318D01*
X92487760Y-111392686D01*
X92249674Y-110967492D01*
X92072356Y-110484970D01*
X91956222Y-109946357D01*
X91901686Y-109352887D01*
X91897200Y-109113214D01*
X91914029Y-108629455D01*
X91967123Y-108196924D01*
X92060389Y-107788611D01*
X92114413Y-107611936D01*
X92167900Y-107445208D01*
X92210899Y-107328915D01*
X92256890Y-107260754D01*
X92319355Y-107238421D01*
X92411773Y-107259614D01*
X92547627Y-107322029D01*
X92740396Y-107423362D01*
X92856951Y-107485071D01*
X93613459Y-107898478D01*
X94310339Y-108313449D01*
X94971445Y-108745647D01*
X95620634Y-109210732D01*
X96281762Y-109724366D01*
X96342200Y-109773133D01*
X96501944Y-109899715D01*
X96639118Y-109998341D01*
X96769892Y-110075618D01*
X96910433Y-110138149D01*
X97076908Y-110192539D01*
X97285485Y-110245392D01*
X97552331Y-110303312D01*
X97728652Y-110339489D01*
X98514049Y-110474410D01*
X99249363Y-110548386D01*
X99943454Y-110561253D01*
X100605181Y-110512846D01*
X101243403Y-110403002D01*
X101762694Y-110264723D01*
X101918878Y-110210406D01*
X102058440Y-110145199D01*
X102203228Y-110056284D01*
X102375088Y-109930841D01*
X102503951Y-109829792D01*
X102933318Y-109498360D01*
X103420250Y-109140996D01*
X103946776Y-108770013D01*
X104494925Y-108397725D01*
X105046726Y-108036445D01*
X105584208Y-107698487D01*
X105847444Y-107538822D01*
X106139146Y-107366686D01*
X106435907Y-107195827D01*
X106727415Y-107031796D01*
X107003360Y-106880144D01*
X107253429Y-106746421D01*
X107467311Y-106636179D01*
X107634695Y-106554969D01*
X107745268Y-106508342D01*
X107778223Y-106499438D01*
X107844466Y-106512376D01*
X107844466Y-106512376D01*
G37*
X107844466Y-106512376D02*
X107895880Y-106580584D01*
X107927719Y-106658833D01*
X108013701Y-106970253D01*
X108074154Y-107336625D01*
X108107575Y-107731717D01*
X108112461Y-108129294D01*
X108087310Y-108503123D01*
X108047675Y-108752870D01*
X107915388Y-109227008D01*
X107730058Y-109654255D01*
X107496494Y-110027353D01*
X107219508Y-110339043D01*
X106903910Y-110582066D01*
X106793572Y-110645188D01*
X106682071Y-110700038D01*
X106582735Y-110735110D01*
X106471186Y-110754756D01*
X106323045Y-110763324D01*
X106121200Y-110765167D01*
X105914235Y-110763189D01*
X105767522Y-110754356D01*
X105656682Y-110734318D01*
X105557336Y-110698725D01*
X105448829Y-110645188D01*
X105159414Y-110453522D01*
X104886005Y-110197711D01*
X104650152Y-109898096D01*
X104638324Y-109880178D01*
X104470200Y-109622873D01*
X104470200Y-109922665D01*
X104458422Y-110120574D01*
X104427574Y-110349035D01*
X104385283Y-110554478D01*
X104224948Y-111041454D01*
X104008865Y-111470948D01*
X103739600Y-111839549D01*
X103419717Y-112143848D01*
X103051780Y-112380434D01*
X102988534Y-112411819D01*
X102865736Y-112468011D01*
X102762357Y-112505394D01*
X102655661Y-112527781D01*
X102522914Y-112538985D01*
X102341381Y-112542818D01*
X102205367Y-112543167D01*
X101982665Y-112541593D01*
X101822234Y-112534564D01*
X101701700Y-112518619D01*
X101598693Y-112490295D01*
X101490838Y-112446130D01*
X101446695Y-112425770D01*
X101065877Y-112203239D01*
X100737191Y-111915945D01*
X100458466Y-111561658D01*
X100259594Y-111206984D01*
X100186500Y-111056793D01*
X100139946Y-110973552D01*
X100110348Y-110947636D01*
X100088127Y-110969421D01*
X100068940Y-111015468D01*
X100036938Y-111113250D01*
X100025200Y-111173032D01*
X100007506Y-111244450D01*
X99960183Y-111371771D01*
X99891877Y-111535375D01*
X99811229Y-111715641D01*
X99726883Y-111892947D01*
X99647481Y-112047674D01*
X99612062Y-112110907D01*
X99431766Y-112374743D01*
X99211397Y-112627743D01*
X98972588Y-112847975D01*
X98736970Y-113013504D01*
X98703607Y-113032062D01*
X98562012Y-113103018D01*
X98441574Y-113146830D01*
X98310965Y-113170933D01*
X98138858Y-113182758D01*
X98056700Y-113185561D01*
X97872555Y-113186861D01*
X97709909Y-113180647D01*
X97595266Y-113168194D01*
X97569867Y-113162113D01*
X97235226Y-113008995D01*
X96923116Y-112779720D01*
X96637894Y-112480824D01*
X96383919Y-112118845D01*
X96165549Y-111700317D01*
X95987141Y-111231779D01*
X95853054Y-110719765D01*
X95817888Y-110534341D01*
X95786730Y-110333877D01*
X95762264Y-110140525D01*
X95748320Y-109986050D01*
X95746555Y-109942790D01*
X95743582Y-109858797D01*
X95735934Y-109833112D01*
X95720396Y-109872400D01*
X95693754Y-109983323D01*
X95666382Y-110109000D01*
X95536729Y-110599457D01*
X95370654Y-111022320D01*
X95162682Y-111388807D01*
X94907335Y-111710132D01*
X94860534Y-111759318D01*
X94644104Y-111958467D01*
X94437976Y-112091397D01*
X94217144Y-112168839D01*
X93956601Y-112201529D01*
X93823367Y-112204500D01*
X93537514Y-112188055D01*
X93302341Y-112131565D01*
X93092842Y-112024297D01*
X92884010Y-111855517D01*
X92786200Y-111759318D01*
X92487760Y-111392686D01*
X92249674Y-110967492D01*
X92072356Y-110484970D01*
X91956222Y-109946357D01*
X91901686Y-109352887D01*
X91897200Y-109113214D01*
X91914029Y-108629455D01*
X91967123Y-108196924D01*
X92060389Y-107788611D01*
X92114413Y-107611936D01*
X92167900Y-107445208D01*
X92210899Y-107328915D01*
X92256890Y-107260754D01*
X92319355Y-107238421D01*
X92411773Y-107259614D01*
X92547627Y-107322029D01*
X92740396Y-107423362D01*
X92856951Y-107485071D01*
X93613459Y-107898478D01*
X94310339Y-108313449D01*
X94971445Y-108745647D01*
X95620634Y-109210732D01*
X96281762Y-109724366D01*
X96342200Y-109773133D01*
X96501944Y-109899715D01*
X96639118Y-109998341D01*
X96769892Y-110075618D01*
X96910433Y-110138149D01*
X97076908Y-110192539D01*
X97285485Y-110245392D01*
X97552331Y-110303312D01*
X97728652Y-110339489D01*
X98514049Y-110474410D01*
X99249363Y-110548386D01*
X99943454Y-110561253D01*
X100605181Y-110512846D01*
X101243403Y-110403002D01*
X101762694Y-110264723D01*
X101918878Y-110210406D01*
X102058440Y-110145199D01*
X102203228Y-110056284D01*
X102375088Y-109930841D01*
X102503951Y-109829792D01*
X102933318Y-109498360D01*
X103420250Y-109140996D01*
X103946776Y-108770013D01*
X104494925Y-108397725D01*
X105046726Y-108036445D01*
X105584208Y-107698487D01*
X105847444Y-107538822D01*
X106139146Y-107366686D01*
X106435907Y-107195827D01*
X106727415Y-107031796D01*
X107003360Y-106880144D01*
X107253429Y-106746421D01*
X107467311Y-106636179D01*
X107634695Y-106554969D01*
X107745268Y-106508342D01*
X107778223Y-106499438D01*
X107844466Y-106512376D01*
G36*
X88428958Y-105885131D02*
X88543895Y-105910995D01*
X88708212Y-105949465D01*
X88905490Y-105996750D01*
X88934929Y-106003887D01*
X89599861Y-106181545D01*
X90288001Y-106395093D01*
X90954299Y-106630332D01*
X91103450Y-106687463D01*
X91643200Y-106897643D01*
X91642574Y-107349738D01*
X91635535Y-107583890D01*
X91617088Y-107816298D01*
X91590311Y-108012603D01*
X91577619Y-108074761D01*
X91451192Y-108458339D01*
X91264123Y-108813286D01*
X91026752Y-109125288D01*
X90749420Y-109380030D01*
X90535399Y-109517500D01*
X90397844Y-109586987D01*
X90281328Y-109630825D01*
X90156532Y-109655859D01*
X89994139Y-109668930D01*
X89865200Y-109673917D01*
X89588197Y-109672891D01*
X89385420Y-109650234D01*
X89308271Y-109629039D01*
X88969310Y-109458744D01*
X88666005Y-109218243D01*
X88406496Y-108917404D01*
X88198925Y-108566093D01*
X88051431Y-108174175D01*
X88025781Y-108074761D01*
X87986119Y-107828687D01*
X87966323Y-107533279D01*
X87966395Y-107221505D01*
X87986333Y-106926334D01*
X88025781Y-106682239D01*
X88066902Y-106539615D01*
X88125580Y-106375256D01*
X88193467Y-106208174D01*
X88262219Y-106057384D01*
X88323489Y-105941898D01*
X88368932Y-105880729D01*
X88379824Y-105875667D01*
X88428958Y-105885131D01*
X88428958Y-105885131D01*
G37*
X88428958Y-105885131D02*
X88543895Y-105910995D01*
X88708212Y-105949465D01*
X88905490Y-105996750D01*
X88934929Y-106003887D01*
X89599861Y-106181545D01*
X90288001Y-106395093D01*
X90954299Y-106630332D01*
X91103450Y-106687463D01*
X91643200Y-106897643D01*
X91642574Y-107349738D01*
X91635535Y-107583890D01*
X91617088Y-107816298D01*
X91590311Y-108012603D01*
X91577619Y-108074761D01*
X91451192Y-108458339D01*
X91264123Y-108813286D01*
X91026752Y-109125288D01*
X90749420Y-109380030D01*
X90535399Y-109517500D01*
X90397844Y-109586987D01*
X90281328Y-109630825D01*
X90156532Y-109655859D01*
X89994139Y-109668930D01*
X89865200Y-109673917D01*
X89588197Y-109672891D01*
X89385420Y-109650234D01*
X89308271Y-109629039D01*
X88969310Y-109458744D01*
X88666005Y-109218243D01*
X88406496Y-108917404D01*
X88198925Y-108566093D01*
X88051431Y-108174175D01*
X88025781Y-108074761D01*
X87986119Y-107828687D01*
X87966323Y-107533279D01*
X87966395Y-107221505D01*
X87986333Y-106926334D01*
X88025781Y-106682239D01*
X88066902Y-106539615D01*
X88125580Y-106375256D01*
X88193467Y-106208174D01*
X88262219Y-106057384D01*
X88323489Y-105941898D01*
X88368932Y-105880729D01*
X88379824Y-105875667D01*
X88428958Y-105885131D01*
G36*
X110982164Y-105587203D02*
X111245637Y-105596246D01*
X111436357Y-105610536D01*
X111566058Y-105640839D01*
X111646472Y-105697926D01*
X111689335Y-105792564D01*
X111706379Y-105935521D01*
X111709338Y-106137566D01*
X111709200Y-106254432D01*
X111683280Y-106810000D01*
X111604074Y-107307176D01*
X111469410Y-107755062D01*
X111277118Y-108162759D01*
X111238334Y-108229071D01*
X111093507Y-108433305D01*
X110913272Y-108633435D01*
X110717225Y-108811469D01*
X110524962Y-108949418D01*
X110372414Y-109024071D01*
X110150612Y-109072255D01*
X109891885Y-109087178D01*
X109635280Y-109068949D01*
X109430331Y-109021479D01*
X109274661Y-108940015D01*
X109094116Y-108804388D01*
X108908025Y-108632648D01*
X108735716Y-108442844D01*
X108596519Y-108253024D01*
X108581733Y-108229071D01*
X108410030Y-107888855D01*
X108269410Y-107501212D01*
X108168587Y-107097145D01*
X108116276Y-106707657D01*
X108110867Y-106553889D01*
X108110867Y-106308225D01*
X108630901Y-106094407D01*
X109088544Y-105915484D01*
X109492883Y-105779239D01*
X109861404Y-105681901D01*
X110211589Y-105619699D01*
X110560923Y-105588860D01*
X110926890Y-105585614D01*
X110982164Y-105587203D01*
X110982164Y-105587203D01*
G37*
X110982164Y-105587203D02*
X111245637Y-105596246D01*
X111436357Y-105610536D01*
X111566058Y-105640839D01*
X111646472Y-105697926D01*
X111689335Y-105792564D01*
X111706379Y-105935521D01*
X111709338Y-106137566D01*
X111709200Y-106254432D01*
X111683280Y-106810000D01*
X111604074Y-107307176D01*
X111469410Y-107755062D01*
X111277118Y-108162759D01*
X111238334Y-108229071D01*
X111093507Y-108433305D01*
X110913272Y-108633435D01*
X110717225Y-108811469D01*
X110524962Y-108949418D01*
X110372414Y-109024071D01*
X110150612Y-109072255D01*
X109891885Y-109087178D01*
X109635280Y-109068949D01*
X109430331Y-109021479D01*
X109274661Y-108940015D01*
X109094116Y-108804388D01*
X108908025Y-108632648D01*
X108735716Y-108442844D01*
X108596519Y-108253024D01*
X108581733Y-108229071D01*
X108410030Y-107888855D01*
X108269410Y-107501212D01*
X108168587Y-107097145D01*
X108116276Y-106707657D01*
X108110867Y-106553889D01*
X108110867Y-106308225D01*
X108630901Y-106094407D01*
X109088544Y-105915484D01*
X109492883Y-105779239D01*
X109861404Y-105681901D01*
X110211589Y-105619699D01*
X110560923Y-105588860D01*
X110926890Y-105585614D01*
X110982164Y-105587203D01*
G36*
X95426065Y-98322083D02*
X95552117Y-98334575D01*
X95645780Y-98362257D01*
X95733150Y-98410744D01*
X95764093Y-98431607D01*
X95895866Y-98542877D01*
X96017297Y-98676854D01*
X96039259Y-98706774D01*
X96095603Y-98797648D01*
X96129342Y-98886453D01*
X96146092Y-98999282D01*
X96151466Y-99162229D01*
X96151700Y-99229333D01*
X96148784Y-99413865D01*
X96136292Y-99539916D01*
X96108609Y-99633580D01*
X96060122Y-99720950D01*
X96039259Y-99751892D01*
X95877274Y-99943325D01*
X95694298Y-100066818D01*
X95470223Y-100132988D01*
X95283867Y-100150667D01*
X95077000Y-100150791D01*
X94928038Y-100129817D01*
X94824845Y-100091215D01*
X94590846Y-99932980D01*
X94428976Y-99731710D01*
X94337940Y-99485058D01*
X94316444Y-99190677D01*
X94317340Y-99171387D01*
X94357334Y-98904895D01*
X94452541Y-98691476D01*
X94613036Y-98512575D01*
X94718974Y-98431607D01*
X94809849Y-98375264D01*
X94898654Y-98341524D01*
X95011483Y-98324775D01*
X95174429Y-98319401D01*
X95241534Y-98319167D01*
X95426065Y-98322083D01*
X95426065Y-98322083D01*
G37*
X95426065Y-98322083D02*
X95552117Y-98334575D01*
X95645780Y-98362257D01*
X95733150Y-98410744D01*
X95764093Y-98431607D01*
X95895866Y-98542877D01*
X96017297Y-98676854D01*
X96039259Y-98706774D01*
X96095603Y-98797648D01*
X96129342Y-98886453D01*
X96146092Y-98999282D01*
X96151466Y-99162229D01*
X96151700Y-99229333D01*
X96148784Y-99413865D01*
X96136292Y-99539916D01*
X96108609Y-99633580D01*
X96060122Y-99720950D01*
X96039259Y-99751892D01*
X95877274Y-99943325D01*
X95694298Y-100066818D01*
X95470223Y-100132988D01*
X95283867Y-100150667D01*
X95077000Y-100150791D01*
X94928038Y-100129817D01*
X94824845Y-100091215D01*
X94590846Y-99932980D01*
X94428976Y-99731710D01*
X94337940Y-99485058D01*
X94316444Y-99190677D01*
X94317340Y-99171387D01*
X94357334Y-98904895D01*
X94452541Y-98691476D01*
X94613036Y-98512575D01*
X94718974Y-98431607D01*
X94809849Y-98375264D01*
X94898654Y-98341524D01*
X95011483Y-98324775D01*
X95174429Y-98319401D01*
X95241534Y-98319167D01*
X95426065Y-98322083D01*
G36*
X102368732Y-97306083D02*
X102494783Y-97318575D01*
X102588447Y-97346257D01*
X102675817Y-97394744D01*
X102706759Y-97415607D01*
X102838532Y-97526877D01*
X102959964Y-97660854D01*
X102981926Y-97690774D01*
X103038270Y-97781648D01*
X103072009Y-97870453D01*
X103088758Y-97983282D01*
X103094133Y-98146229D01*
X103094367Y-98213333D01*
X103091451Y-98397865D01*
X103078958Y-98523916D01*
X103051276Y-98617580D01*
X103002789Y-98704950D01*
X102981926Y-98735892D01*
X102819940Y-98927325D01*
X102636964Y-99050818D01*
X102412889Y-99116988D01*
X102226534Y-99134667D01*
X102019667Y-99134791D01*
X101870705Y-99113817D01*
X101767511Y-99075215D01*
X101533512Y-98916980D01*
X101371642Y-98715710D01*
X101280607Y-98469058D01*
X101259111Y-98174677D01*
X101260007Y-98155387D01*
X101300001Y-97888895D01*
X101395208Y-97675476D01*
X101555703Y-97496575D01*
X101661641Y-97415607D01*
X101752515Y-97359264D01*
X101841320Y-97325524D01*
X101954149Y-97308775D01*
X102117096Y-97303401D01*
X102184200Y-97303167D01*
X102368732Y-97306083D01*
X102368732Y-97306083D01*
G37*
X102368732Y-97306083D02*
X102494783Y-97318575D01*
X102588447Y-97346257D01*
X102675817Y-97394744D01*
X102706759Y-97415607D01*
X102838532Y-97526877D01*
X102959964Y-97660854D01*
X102981926Y-97690774D01*
X103038270Y-97781648D01*
X103072009Y-97870453D01*
X103088758Y-97983282D01*
X103094133Y-98146229D01*
X103094367Y-98213333D01*
X103091451Y-98397865D01*
X103078958Y-98523916D01*
X103051276Y-98617580D01*
X103002789Y-98704950D01*
X102981926Y-98735892D01*
X102819940Y-98927325D01*
X102636964Y-99050818D01*
X102412889Y-99116988D01*
X102226534Y-99134667D01*
X102019667Y-99134791D01*
X101870705Y-99113817D01*
X101767511Y-99075215D01*
X101533512Y-98916980D01*
X101371642Y-98715710D01*
X101280607Y-98469058D01*
X101259111Y-98174677D01*
X101260007Y-98155387D01*
X101300001Y-97888895D01*
X101395208Y-97675476D01*
X101555703Y-97496575D01*
X101661641Y-97415607D01*
X101752515Y-97359264D01*
X101841320Y-97325524D01*
X101954149Y-97308775D01*
X102117096Y-97303401D01*
X102184200Y-97303167D01*
X102368732Y-97306083D01*
G36*
X101315949Y-65851219D02*
X101465783Y-65859055D01*
X101577425Y-65877024D01*
X101674101Y-65909143D01*
X101779034Y-65959429D01*
X101798149Y-65969433D01*
X102106201Y-66179101D01*
X102380397Y-66465068D01*
X102619930Y-66825681D01*
X102823991Y-67259288D01*
X102991775Y-67764238D01*
X103122473Y-68338879D01*
X103197963Y-68832889D01*
X103218327Y-69061713D01*
X103232234Y-69354257D01*
X103239837Y-69690546D01*
X103241290Y-70050609D01*
X103236749Y-70414473D01*
X103226368Y-70762164D01*
X103210300Y-71073709D01*
X103188701Y-71329136D01*
X103177991Y-71415062D01*
X103078505Y-71962050D01*
X102938920Y-72501374D01*
X102763970Y-73024095D01*
X102558389Y-73521274D01*
X102326910Y-73983971D01*
X102074268Y-74403248D01*
X101805196Y-74770166D01*
X101524428Y-75075786D01*
X101236698Y-75311169D01*
X101058648Y-75417021D01*
X100893681Y-75490558D01*
X100735857Y-75533439D01*
X100545773Y-75555217D01*
X100471911Y-75559279D01*
X100273769Y-75560246D01*
X100074014Y-75548069D01*
X99914972Y-75525372D01*
X99911287Y-75524559D01*
X99780429Y-75502102D01*
X99646215Y-75496959D01*
X99481787Y-75509732D01*
X99274077Y-75538864D01*
X99039296Y-75572707D01*
X98782036Y-75603972D01*
X98492113Y-75633532D01*
X98159341Y-75662259D01*
X97773538Y-75691024D01*
X97324518Y-75720701D01*
X96802097Y-75752161D01*
X96744367Y-75755499D01*
X96238345Y-75782655D01*
X95809036Y-75801073D01*
X95448938Y-75810747D01*
X95150546Y-75811669D01*
X94906359Y-75803831D01*
X94708875Y-75787227D01*
X94550590Y-75761848D01*
X94512908Y-75753323D01*
X94182003Y-75643411D01*
X93862711Y-75482312D01*
X93571212Y-75281994D01*
X93323685Y-75054425D01*
X93136311Y-74811574D01*
X93068873Y-74685134D01*
X92989432Y-74499985D01*
X92927770Y-74331531D01*
X92881684Y-74164877D01*
X92848972Y-73985128D01*
X92827434Y-73777390D01*
X92814867Y-73526768D01*
X92809069Y-73218368D01*
X92807825Y-72919167D01*
X92812437Y-72466201D01*
X92828744Y-72088645D01*
X92859760Y-71777685D01*
X92908497Y-71524511D01*
X92977966Y-71320312D01*
X93071181Y-71156274D01*
X93191153Y-71023588D01*
X93340896Y-70913440D01*
X93523420Y-70817021D01*
X93527034Y-70815353D01*
X93605549Y-70781518D01*
X93682522Y-70756543D01*
X93772155Y-70739093D01*
X93888646Y-70727832D01*
X94046197Y-70721426D01*
X94259008Y-70718539D01*
X94541280Y-70717835D01*
X94564200Y-70717833D01*
X94856365Y-70718607D01*
X95081279Y-70721998D01*
X95256351Y-70729613D01*
X95398993Y-70743060D01*
X95526612Y-70763944D01*
X95656619Y-70793872D01*
X95795866Y-70831493D01*
X95943820Y-70877891D01*
X96153590Y-70950483D01*
X96408781Y-71043038D01*
X96692999Y-71149325D01*
X96989848Y-71263113D01*
X97282932Y-71378173D01*
X97555857Y-71488272D01*
X97792227Y-71587181D01*
X97849128Y-71611803D01*
X97874429Y-71583081D01*
X97896680Y-71472647D01*
X97916074Y-71279326D01*
X97924502Y-71155505D01*
X97990494Y-70464975D01*
X98101436Y-69797233D01*
X98254283Y-69158757D01*
X98445987Y-68556025D01*
X98673501Y-67995514D01*
X98933778Y-67483702D01*
X99223771Y-67027066D01*
X99540434Y-66632084D01*
X99880718Y-66305233D01*
X100241579Y-66052991D01*
X100352809Y-65993128D01*
X100484186Y-65929559D01*
X100591007Y-65888169D01*
X100698090Y-65864216D01*
X100830259Y-65852958D01*
X101012334Y-65849656D01*
X101104700Y-65849500D01*
X101315949Y-65851219D01*
X101315949Y-65851219D01*
G37*
X101315949Y-65851219D02*
X101465783Y-65859055D01*
X101577425Y-65877024D01*
X101674101Y-65909143D01*
X101779034Y-65959429D01*
X101798149Y-65969433D01*
X102106201Y-66179101D01*
X102380397Y-66465068D01*
X102619930Y-66825681D01*
X102823991Y-67259288D01*
X102991775Y-67764238D01*
X103122473Y-68338879D01*
X103197963Y-68832889D01*
X103218327Y-69061713D01*
X103232234Y-69354257D01*
X103239837Y-69690546D01*
X103241290Y-70050609D01*
X103236749Y-70414473D01*
X103226368Y-70762164D01*
X103210300Y-71073709D01*
X103188701Y-71329136D01*
X103177991Y-71415062D01*
X103078505Y-71962050D01*
X102938920Y-72501374D01*
X102763970Y-73024095D01*
X102558389Y-73521274D01*
X102326910Y-73983971D01*
X102074268Y-74403248D01*
X101805196Y-74770166D01*
X101524428Y-75075786D01*
X101236698Y-75311169D01*
X101058648Y-75417021D01*
X100893681Y-75490558D01*
X100735857Y-75533439D01*
X100545773Y-75555217D01*
X100471911Y-75559279D01*
X100273769Y-75560246D01*
X100074014Y-75548069D01*
X99914972Y-75525372D01*
X99911287Y-75524559D01*
X99780429Y-75502102D01*
X99646215Y-75496959D01*
X99481787Y-75509732D01*
X99274077Y-75538864D01*
X99039296Y-75572707D01*
X98782036Y-75603972D01*
X98492113Y-75633532D01*
X98159341Y-75662259D01*
X97773538Y-75691024D01*
X97324518Y-75720701D01*
X96802097Y-75752161D01*
X96744367Y-75755499D01*
X96238345Y-75782655D01*
X95809036Y-75801073D01*
X95448938Y-75810747D01*
X95150546Y-75811669D01*
X94906359Y-75803831D01*
X94708875Y-75787227D01*
X94550590Y-75761848D01*
X94512908Y-75753323D01*
X94182003Y-75643411D01*
X93862711Y-75482312D01*
X93571212Y-75281994D01*
X93323685Y-75054425D01*
X93136311Y-74811574D01*
X93068873Y-74685134D01*
X92989432Y-74499985D01*
X92927770Y-74331531D01*
X92881684Y-74164877D01*
X92848972Y-73985128D01*
X92827434Y-73777390D01*
X92814867Y-73526768D01*
X92809069Y-73218368D01*
X92807825Y-72919167D01*
X92812437Y-72466201D01*
X92828744Y-72088645D01*
X92859760Y-71777685D01*
X92908497Y-71524511D01*
X92977966Y-71320312D01*
X93071181Y-71156274D01*
X93191153Y-71023588D01*
X93340896Y-70913440D01*
X93523420Y-70817021D01*
X93527034Y-70815353D01*
X93605549Y-70781518D01*
X93682522Y-70756543D01*
X93772155Y-70739093D01*
X93888646Y-70727832D01*
X94046197Y-70721426D01*
X94259008Y-70718539D01*
X94541280Y-70717835D01*
X94564200Y-70717833D01*
X94856365Y-70718607D01*
X95081279Y-70721998D01*
X95256351Y-70729613D01*
X95398993Y-70743060D01*
X95526612Y-70763944D01*
X95656619Y-70793872D01*
X95795866Y-70831493D01*
X95943820Y-70877891D01*
X96153590Y-70950483D01*
X96408781Y-71043038D01*
X96692999Y-71149325D01*
X96989848Y-71263113D01*
X97282932Y-71378173D01*
X97555857Y-71488272D01*
X97792227Y-71587181D01*
X97849128Y-71611803D01*
X97874429Y-71583081D01*
X97896680Y-71472647D01*
X97916074Y-71279326D01*
X97924502Y-71155505D01*
X97990494Y-70464975D01*
X98101436Y-69797233D01*
X98254283Y-69158757D01*
X98445987Y-68556025D01*
X98673501Y-67995514D01*
X98933778Y-67483702D01*
X99223771Y-67027066D01*
X99540434Y-66632084D01*
X99880718Y-66305233D01*
X100241579Y-66052991D01*
X100352809Y-65993128D01*
X100484186Y-65929559D01*
X100591007Y-65888169D01*
X100698090Y-65864216D01*
X100830259Y-65852958D01*
X101012334Y-65849656D01*
X101104700Y-65849500D01*
X101315949Y-65851219D01*
D12*
X100850700Y-121272300D03*
D13*
X100850700Y-123812300D03*
X98310700Y-121272300D03*
X98310700Y-123812300D03*
D10*
G36*
X75332298Y-98960891D02*
X77424307Y-98777864D01*
X77633480Y-101168731D01*
X75541471Y-101351758D01*
X75332298Y-98960891D01*
X75332298Y-98960891D01*
G37*
G36*
X75680920Y-102945669D02*
X77772929Y-102762642D01*
X77982102Y-105153509D01*
X75890093Y-105336536D01*
X75680920Y-102945669D01*
X75680920Y-102945669D01*
G37*
G36*
X77933387Y-89699463D02*
X79906741Y-90417705D01*
X79085893Y-92672967D01*
X77112539Y-91954725D01*
X77933387Y-89699463D01*
X77933387Y-89699463D01*
G37*
G36*
X76565307Y-93458233D02*
X78538661Y-94176475D01*
X77717813Y-96431737D01*
X75744459Y-95713495D01*
X76565307Y-93458233D01*
X76565307Y-93458233D01*
G37*
G36*
X83910916Y-82161749D02*
X85471520Y-83566923D01*
X83865606Y-85350471D01*
X82305002Y-83945297D01*
X83910916Y-82161749D01*
X83910916Y-82161749D01*
G37*
G36*
X81234394Y-85134329D02*
X82794998Y-86539503D01*
X81189084Y-88323051D01*
X79628480Y-86917877D01*
X81234394Y-85134329D01*
X81234394Y-85134329D01*
G37*
G36*
X92220036Y-77553598D02*
X93107535Y-79456844D01*
X90932396Y-80471128D01*
X90044897Y-78567882D01*
X92220036Y-77553598D01*
X92220036Y-77553598D01*
G37*
G36*
X88594804Y-79244072D02*
X89482303Y-81147318D01*
X87307164Y-82161602D01*
X86419665Y-80258356D01*
X88594804Y-79244072D01*
X88594804Y-79244072D01*
G37*
D14*
X100755200Y-77876400D03*
X96755200Y-77876400D03*
D10*
G36*
X111554419Y-80047534D02*
X110700272Y-81965980D01*
X108507763Y-80989812D01*
X109361910Y-79071366D01*
X111554419Y-80047534D01*
X111554419Y-80047534D01*
G37*
G36*
X107900237Y-78420588D02*
X107046090Y-80339034D01*
X104853581Y-79362866D01*
X105707728Y-77444420D01*
X107900237Y-78420588D01*
X107900237Y-78420588D01*
G37*
G36*
X118634467Y-87171215D02*
X117025773Y-88521069D01*
X115483083Y-86682563D01*
X117091777Y-85332709D01*
X118634467Y-87171215D01*
X118634467Y-87171215D01*
G37*
G36*
X116063317Y-84107037D02*
X114454623Y-85456891D01*
X112911933Y-83618385D01*
X114520627Y-82268531D01*
X116063317Y-84107037D01*
X116063317Y-84107037D01*
G37*
G36*
X122527941Y-95662695D02*
X120554587Y-96380937D01*
X119733739Y-94125675D01*
X121707093Y-93407433D01*
X122527941Y-95662695D01*
X122527941Y-95662695D01*
G37*
G36*
X121159861Y-91903925D02*
X119186507Y-92622167D01*
X118365659Y-90366905D01*
X120339013Y-89648663D01*
X121159861Y-91903925D01*
X121159861Y-91903925D01*
G37*
G36*
X122331507Y-105285736D02*
X120239498Y-105102709D01*
X120448671Y-102711842D01*
X122540680Y-102894869D01*
X122331507Y-105285736D01*
X122331507Y-105285736D01*
G37*
G36*
X122680129Y-101300958D02*
X120588120Y-101117931D01*
X120797293Y-98727064D01*
X122889302Y-98910091D01*
X122680129Y-101300958D01*
X122680129Y-101300958D01*
G37*
M02*
