G04 #@! TF.FileFunction,Legend,Bot*
%FSLAX46Y46*%
G04 Gerber Fmt 4.6, Leading zero omitted, Abs format (unit mm)*
G04 Created by KiCad (PCBNEW 4.0.7) date 05/31/18 14:34:10*
%MOMM*%
%LPD*%
G01*
G04 APERTURE LIST*
%ADD10C,0.100000*%
%ADD11C,0.300000*%
%ADD12C,0.150000*%
%ADD13C,2.100000*%
%ADD14O,2.100000X2.100000*%
%ADD15R,1.000000X0.900000*%
%ADD16R,2.400000X2.100000*%
%ADD17R,0.908000X1.543000*%
G04 APERTURE END LIST*
D10*
D11*
X106548297Y-100119571D02*
X106548297Y-98619571D01*
X106048297Y-99691000D01*
X105548297Y-98619571D01*
X105548297Y-100119571D01*
X104834011Y-100119571D02*
X104834011Y-99119571D01*
X104834011Y-99405286D02*
X104762583Y-99262429D01*
X104691154Y-99191000D01*
X104548297Y-99119571D01*
X104405440Y-99119571D01*
X103905440Y-99976714D02*
X103834012Y-100048143D01*
X103905440Y-100119571D01*
X103976869Y-100048143D01*
X103905440Y-99976714D01*
X103905440Y-100119571D01*
X102048297Y-100119571D02*
X102048297Y-98619571D01*
X101548297Y-99691000D01*
X101048297Y-98619571D01*
X101048297Y-100119571D01*
X99762583Y-100048143D02*
X99905440Y-100119571D01*
X100191154Y-100119571D01*
X100334011Y-100048143D01*
X100405440Y-99905286D01*
X100405440Y-99333857D01*
X100334011Y-99191000D01*
X100191154Y-99119571D01*
X99905440Y-99119571D01*
X99762583Y-99191000D01*
X99691154Y-99333857D01*
X99691154Y-99476714D01*
X100405440Y-99619571D01*
X98476869Y-100048143D02*
X98619726Y-100119571D01*
X98905440Y-100119571D01*
X99048297Y-100048143D01*
X99119726Y-99905286D01*
X99119726Y-99333857D01*
X99048297Y-99191000D01*
X98905440Y-99119571D01*
X98619726Y-99119571D01*
X98476869Y-99191000D01*
X98405440Y-99333857D01*
X98405440Y-99476714D01*
X99119726Y-99619571D01*
X97834012Y-100048143D02*
X97691155Y-100119571D01*
X97405440Y-100119571D01*
X97262583Y-100048143D01*
X97191155Y-99905286D01*
X97191155Y-99833857D01*
X97262583Y-99691000D01*
X97405440Y-99619571D01*
X97619726Y-99619571D01*
X97762583Y-99548143D01*
X97834012Y-99405286D01*
X97834012Y-99333857D01*
X97762583Y-99191000D01*
X97619726Y-99119571D01*
X97405440Y-99119571D01*
X97262583Y-99191000D01*
X95976869Y-100048143D02*
X96119726Y-100119571D01*
X96405440Y-100119571D01*
X96548297Y-100048143D01*
X96619726Y-99905286D01*
X96619726Y-99333857D01*
X96548297Y-99191000D01*
X96405440Y-99119571D01*
X96119726Y-99119571D01*
X95976869Y-99191000D01*
X95905440Y-99333857D01*
X95905440Y-99476714D01*
X96619726Y-99619571D01*
X94691155Y-100048143D02*
X94834012Y-100119571D01*
X95119726Y-100119571D01*
X95262583Y-100048143D01*
X95334012Y-99905286D01*
X95334012Y-99333857D01*
X95262583Y-99191000D01*
X95119726Y-99119571D01*
X94834012Y-99119571D01*
X94691155Y-99191000D01*
X94619726Y-99333857D01*
X94619726Y-99476714D01*
X95334012Y-99619571D01*
X93976869Y-100119571D02*
X93976869Y-98619571D01*
X93834012Y-99548143D02*
X93405441Y-100119571D01*
X93405441Y-99119571D02*
X93976869Y-99691000D01*
X92834012Y-100048143D02*
X92691155Y-100119571D01*
X92405440Y-100119571D01*
X92262583Y-100048143D01*
X92191155Y-99905286D01*
X92191155Y-99833857D01*
X92262583Y-99691000D01*
X92405440Y-99619571D01*
X92619726Y-99619571D01*
X92762583Y-99548143D01*
X92834012Y-99405286D01*
X92834012Y-99333857D01*
X92762583Y-99191000D01*
X92619726Y-99119571D01*
X92405440Y-99119571D01*
X92262583Y-99191000D01*
X104931457Y-107501571D02*
X103860028Y-107501571D01*
X104502885Y-106858714D02*
X104931457Y-108787286D01*
X104002885Y-108144429D02*
X105074314Y-108144429D01*
X104431457Y-108787286D02*
X104002885Y-106858714D01*
X103360028Y-108501571D02*
X103360028Y-107001571D01*
X103360028Y-107573000D02*
X103217171Y-107501571D01*
X102931457Y-107501571D01*
X102788600Y-107573000D01*
X102717171Y-107644429D01*
X102645742Y-107787286D01*
X102645742Y-108215857D01*
X102717171Y-108358714D01*
X102788600Y-108430143D01*
X102931457Y-108501571D01*
X103217171Y-108501571D01*
X103360028Y-108430143D01*
X101360028Y-108501571D02*
X101360028Y-107715857D01*
X101431457Y-107573000D01*
X101574314Y-107501571D01*
X101860028Y-107501571D01*
X102002885Y-107573000D01*
X101360028Y-108430143D02*
X101502885Y-108501571D01*
X101860028Y-108501571D01*
X102002885Y-108430143D01*
X102074314Y-108287286D01*
X102074314Y-108144429D01*
X102002885Y-108001571D01*
X101860028Y-107930143D01*
X101502885Y-107930143D01*
X101360028Y-107858714D01*
X100002885Y-108501571D02*
X100002885Y-107001571D01*
X100002885Y-108430143D02*
X100145742Y-108501571D01*
X100431456Y-108501571D01*
X100574314Y-108430143D01*
X100645742Y-108358714D01*
X100717171Y-108215857D01*
X100717171Y-107787286D01*
X100645742Y-107644429D01*
X100574314Y-107573000D01*
X100431456Y-107501571D01*
X100145742Y-107501571D01*
X100002885Y-107573000D01*
X98645742Y-107501571D02*
X98645742Y-108715857D01*
X98717171Y-108858714D01*
X98788599Y-108930143D01*
X98931456Y-109001571D01*
X99145742Y-109001571D01*
X99288599Y-108930143D01*
X98645742Y-108430143D02*
X98788599Y-108501571D01*
X99074313Y-108501571D01*
X99217171Y-108430143D01*
X99288599Y-108358714D01*
X99360028Y-108215857D01*
X99360028Y-107787286D01*
X99288599Y-107644429D01*
X99217171Y-107573000D01*
X99074313Y-107501571D01*
X98788599Y-107501571D01*
X98645742Y-107573000D01*
X97360028Y-108430143D02*
X97502885Y-108501571D01*
X97788599Y-108501571D01*
X97931456Y-108430143D01*
X98002885Y-108287286D01*
X98002885Y-107715857D01*
X97931456Y-107573000D01*
X97788599Y-107501571D01*
X97502885Y-107501571D01*
X97360028Y-107573000D01*
X97288599Y-107715857D01*
X97288599Y-107858714D01*
X98002885Y-108001571D01*
X96431456Y-108501571D02*
X96574314Y-108430143D01*
X96645742Y-108287286D01*
X96645742Y-107001571D01*
X95860028Y-108501571D02*
X95860028Y-107501571D01*
X95860028Y-107001571D02*
X95931457Y-107073000D01*
X95860028Y-107144429D01*
X95788600Y-107073000D01*
X95860028Y-107001571D01*
X95860028Y-107144429D01*
X95360028Y-107501571D02*
X94788599Y-107501571D01*
X95145742Y-108501571D02*
X95145742Y-107215857D01*
X95074314Y-107073000D01*
X94931456Y-107001571D01*
X94788599Y-107001571D01*
X93717171Y-108430143D02*
X93860028Y-108501571D01*
X94145742Y-108501571D01*
X94288599Y-108430143D01*
X94360028Y-108287286D01*
X94360028Y-107715857D01*
X94288599Y-107573000D01*
X94145742Y-107501571D01*
X93860028Y-107501571D01*
X93717171Y-107573000D01*
X93645742Y-107715857D01*
X93645742Y-107858714D01*
X94360028Y-108001571D01*
D10*
X88836142Y-118763186D02*
X88407571Y-118763186D01*
X88621857Y-119513186D02*
X88621857Y-118763186D01*
X88157571Y-119513186D02*
X88157571Y-118763186D01*
X87836142Y-119513186D02*
X87836142Y-119120329D01*
X87871856Y-119048900D01*
X87943285Y-119013186D01*
X88050428Y-119013186D01*
X88121856Y-119048900D01*
X88157571Y-119084614D01*
X87157571Y-119513186D02*
X87157571Y-119120329D01*
X87193285Y-119048900D01*
X87264714Y-119013186D01*
X87407571Y-119013186D01*
X87479000Y-119048900D01*
X87157571Y-119477471D02*
X87229000Y-119513186D01*
X87407571Y-119513186D01*
X87479000Y-119477471D01*
X87514714Y-119406043D01*
X87514714Y-119334614D01*
X87479000Y-119263186D01*
X87407571Y-119227471D01*
X87229000Y-119227471D01*
X87157571Y-119191757D01*
X86800429Y-119013186D02*
X86800429Y-119513186D01*
X86800429Y-119084614D02*
X86764714Y-119048900D01*
X86693286Y-119013186D01*
X86586143Y-119013186D01*
X86514714Y-119048900D01*
X86479000Y-119120329D01*
X86479000Y-119513186D01*
X86121858Y-119513186D02*
X86121858Y-118763186D01*
X86050429Y-119227471D02*
X85836143Y-119513186D01*
X85836143Y-119013186D02*
X86121858Y-119298900D01*
X85550429Y-119477471D02*
X85479000Y-119513186D01*
X85336143Y-119513186D01*
X85264715Y-119477471D01*
X85229000Y-119406043D01*
X85229000Y-119370329D01*
X85264715Y-119298900D01*
X85336143Y-119263186D01*
X85443286Y-119263186D01*
X85514715Y-119227471D01*
X85550429Y-119156043D01*
X85550429Y-119120329D01*
X85514715Y-119048900D01*
X85443286Y-119013186D01*
X85336143Y-119013186D01*
X85264715Y-119048900D01*
X84443285Y-119013186D02*
X84157571Y-119013186D01*
X84336143Y-118763186D02*
X84336143Y-119406043D01*
X84300428Y-119477471D01*
X84229000Y-119513186D01*
X84157571Y-119513186D01*
X83800429Y-119513186D02*
X83871857Y-119477471D01*
X83907572Y-119441757D01*
X83943286Y-119370329D01*
X83943286Y-119156043D01*
X83907572Y-119084614D01*
X83871857Y-119048900D01*
X83800429Y-119013186D01*
X83693286Y-119013186D01*
X83621857Y-119048900D01*
X83586143Y-119084614D01*
X83550429Y-119156043D01*
X83550429Y-119370329D01*
X83586143Y-119441757D01*
X83621857Y-119477471D01*
X83693286Y-119513186D01*
X83800429Y-119513186D01*
X83229001Y-119441757D02*
X83193286Y-119477471D01*
X83229001Y-119513186D01*
X83264715Y-119477471D01*
X83229001Y-119441757D01*
X83229001Y-119513186D01*
X83229001Y-119048900D02*
X83193286Y-119084614D01*
X83229001Y-119120329D01*
X83264715Y-119084614D01*
X83229001Y-119048900D01*
X83229001Y-119120329D01*
X88229000Y-120523900D02*
X87871857Y-120523900D01*
X88300428Y-120738186D02*
X88050428Y-119988186D01*
X87800428Y-120738186D01*
X87550429Y-120738186D02*
X87550429Y-119988186D01*
X87121857Y-120738186D01*
X87121857Y-119988186D01*
X86764715Y-120738186D02*
X86764715Y-119988186D01*
X86586143Y-119988186D01*
X86479000Y-120023900D01*
X86407572Y-120095329D01*
X86371857Y-120166757D01*
X86336143Y-120309614D01*
X86336143Y-120416757D01*
X86371857Y-120559614D01*
X86407572Y-120631043D01*
X86479000Y-120702471D01*
X86586143Y-120738186D01*
X86764715Y-120738186D01*
X86014715Y-120666757D02*
X85979000Y-120702471D01*
X86014715Y-120738186D01*
X86050429Y-120702471D01*
X86014715Y-120666757D01*
X86014715Y-120738186D01*
X86014715Y-120452471D02*
X86050429Y-120023900D01*
X86014715Y-119988186D01*
X85979000Y-120023900D01*
X86014715Y-120452471D01*
X86014715Y-119988186D01*
X85729000Y-119988186D02*
X85229000Y-120738186D01*
X85229000Y-119988186D02*
X85729000Y-120738186D01*
X84800428Y-119988186D02*
X84657571Y-119988186D01*
X84586143Y-120023900D01*
X84514714Y-120095329D01*
X84479000Y-120238186D01*
X84479000Y-120488186D01*
X84514714Y-120631043D01*
X84586143Y-120702471D01*
X84657571Y-120738186D01*
X84800428Y-120738186D01*
X84871857Y-120702471D01*
X84943286Y-120631043D01*
X84979000Y-120488186D01*
X84979000Y-120238186D01*
X84943286Y-120095329D01*
X84871857Y-120023900D01*
X84800428Y-119988186D01*
X83729000Y-120738186D02*
X83979000Y-120381043D01*
X84157572Y-120738186D02*
X84157572Y-119988186D01*
X83871857Y-119988186D01*
X83800429Y-120023900D01*
X83764714Y-120059614D01*
X83729000Y-120131043D01*
X83729000Y-120238186D01*
X83764714Y-120309614D01*
X83800429Y-120345329D01*
X83871857Y-120381043D01*
X84157572Y-120381043D01*
D11*
X113958401Y-89352152D02*
X113958401Y-86852152D01*
X111577449Y-89352152D02*
X112767925Y-89352152D01*
X112767925Y-86852152D01*
X109553639Y-89352152D02*
X110744115Y-89352152D01*
X110744115Y-86852152D01*
X108720305Y-88042629D02*
X107886972Y-88042629D01*
X107529829Y-89352152D02*
X108720305Y-89352152D01*
X108720305Y-86852152D01*
X107529829Y-86852152D01*
X105148876Y-86971200D02*
X105386971Y-86852152D01*
X105744114Y-86852152D01*
X106101257Y-86971200D01*
X106339352Y-87209295D01*
X106458400Y-87447390D01*
X106577448Y-87923581D01*
X106577448Y-88280724D01*
X106458400Y-88756914D01*
X106339352Y-88995010D01*
X106101257Y-89233105D01*
X105744114Y-89352152D01*
X105506019Y-89352152D01*
X105148876Y-89233105D01*
X105029828Y-89114057D01*
X105029828Y-88280724D01*
X105506019Y-88280724D01*
X104077448Y-88637867D02*
X102886971Y-88637867D01*
X104315543Y-89352152D02*
X103482209Y-86852152D01*
X102648876Y-89352152D01*
X100625067Y-89352152D02*
X101815543Y-89352152D01*
X101815543Y-86852152D01*
X98244114Y-86852152D02*
X96815542Y-86852152D01*
X97529828Y-89352152D02*
X97529828Y-86852152D01*
X95506018Y-86852152D02*
X95029828Y-86852152D01*
X94791733Y-86971200D01*
X94553637Y-87209295D01*
X94434590Y-87685486D01*
X94434590Y-88518819D01*
X94553637Y-88995010D01*
X94791733Y-89233105D01*
X95029828Y-89352152D01*
X95506018Y-89352152D01*
X95744114Y-89233105D01*
X95982209Y-88995010D01*
X96101257Y-88518819D01*
X96101257Y-87685486D01*
X95982209Y-87209295D01*
X95744114Y-86971200D01*
X95506018Y-86852152D01*
X91577447Y-89233105D02*
X91220304Y-89352152D01*
X90625066Y-89352152D01*
X90386970Y-89233105D01*
X90267923Y-89114057D01*
X90148875Y-88875962D01*
X90148875Y-88637867D01*
X90267923Y-88399771D01*
X90386970Y-88280724D01*
X90625066Y-88161676D01*
X91101256Y-88042629D01*
X91339351Y-87923581D01*
X91458399Y-87804533D01*
X91577447Y-87566438D01*
X91577447Y-87328343D01*
X91458399Y-87090248D01*
X91339351Y-86971200D01*
X91101256Y-86852152D01*
X90506018Y-86852152D01*
X90148875Y-86971200D01*
X89077447Y-88042629D02*
X88244114Y-88042629D01*
X87886971Y-89352152D02*
X89077447Y-89352152D01*
X89077447Y-86852152D01*
X87886971Y-86852152D01*
X85625066Y-89352152D02*
X86815542Y-89352152D01*
X86815542Y-86852152D01*
X83601256Y-89352152D02*
X84791732Y-89352152D01*
X84791732Y-86852152D01*
X105982209Y-90902152D02*
X105506019Y-90902152D01*
X105267924Y-91021200D01*
X105029828Y-91259295D01*
X104910781Y-91735486D01*
X104910781Y-92568819D01*
X105029828Y-93045010D01*
X105267924Y-93283105D01*
X105506019Y-93402152D01*
X105982209Y-93402152D01*
X106220305Y-93283105D01*
X106458400Y-93045010D01*
X106577448Y-92568819D01*
X106577448Y-91735486D01*
X106458400Y-91259295D01*
X106220305Y-91021200D01*
X105982209Y-90902152D01*
X103839352Y-93402152D02*
X103839352Y-90902152D01*
X102410780Y-93402152D01*
X102410780Y-90902152D01*
X99315542Y-92092629D02*
X98482209Y-92092629D01*
X98125066Y-93402152D02*
X99315542Y-93402152D01*
X99315542Y-90902152D01*
X98125066Y-90902152D01*
X96220304Y-92092629D02*
X95863161Y-92211676D01*
X95744113Y-92330724D01*
X95625065Y-92568819D01*
X95625065Y-92925962D01*
X95744113Y-93164057D01*
X95863161Y-93283105D01*
X96101256Y-93402152D01*
X97053637Y-93402152D01*
X97053637Y-90902152D01*
X96220304Y-90902152D01*
X95982208Y-91021200D01*
X95863161Y-91140248D01*
X95744113Y-91378343D01*
X95744113Y-91616438D01*
X95863161Y-91854533D01*
X95982208Y-91973581D01*
X96220304Y-92092629D01*
X97053637Y-92092629D01*
X94672685Y-92687867D02*
X93482208Y-92687867D01*
X94910780Y-93402152D02*
X94077446Y-90902152D01*
X93244113Y-93402152D01*
X91934589Y-92211676D02*
X91934589Y-93402152D01*
X92767923Y-90902152D02*
X91934589Y-92211676D01*
X91101256Y-90902152D01*
D10*
X89891928Y-112847581D02*
X89891928Y-111847581D01*
X89653833Y-111847581D01*
X89510975Y-111895200D01*
X89415737Y-111990438D01*
X89368118Y-112085676D01*
X89320499Y-112276152D01*
X89320499Y-112419010D01*
X89368118Y-112609486D01*
X89415737Y-112704724D01*
X89510975Y-112799962D01*
X89653833Y-112847581D01*
X89891928Y-112847581D01*
X88510975Y-112799962D02*
X88606213Y-112847581D01*
X88796690Y-112847581D01*
X88891928Y-112799962D01*
X88939547Y-112704724D01*
X88939547Y-112323771D01*
X88891928Y-112228533D01*
X88796690Y-112180914D01*
X88606213Y-112180914D01*
X88510975Y-112228533D01*
X88463356Y-112323771D01*
X88463356Y-112419010D01*
X88939547Y-112514248D01*
X88082404Y-112799962D02*
X87987166Y-112847581D01*
X87796690Y-112847581D01*
X87701451Y-112799962D01*
X87653832Y-112704724D01*
X87653832Y-112657105D01*
X87701451Y-112561867D01*
X87796690Y-112514248D01*
X87939547Y-112514248D01*
X88034785Y-112466629D01*
X88082404Y-112371390D01*
X88082404Y-112323771D01*
X88034785Y-112228533D01*
X87939547Y-112180914D01*
X87796690Y-112180914D01*
X87701451Y-112228533D01*
X87225261Y-112847581D02*
X87225261Y-112180914D01*
X87225261Y-111847581D02*
X87272880Y-111895200D01*
X87225261Y-111942819D01*
X87177642Y-111895200D01*
X87225261Y-111847581D01*
X87225261Y-111942819D01*
X86320499Y-112180914D02*
X86320499Y-112990438D01*
X86368118Y-113085676D01*
X86415737Y-113133295D01*
X86510976Y-113180914D01*
X86653833Y-113180914D01*
X86749071Y-113133295D01*
X86320499Y-112799962D02*
X86415737Y-112847581D01*
X86606214Y-112847581D01*
X86701452Y-112799962D01*
X86749071Y-112752343D01*
X86796690Y-112657105D01*
X86796690Y-112371390D01*
X86749071Y-112276152D01*
X86701452Y-112228533D01*
X86606214Y-112180914D01*
X86415737Y-112180914D01*
X86320499Y-112228533D01*
X85844309Y-112180914D02*
X85844309Y-112847581D01*
X85844309Y-112276152D02*
X85796690Y-112228533D01*
X85701452Y-112180914D01*
X85558594Y-112180914D01*
X85463356Y-112228533D01*
X85415737Y-112323771D01*
X85415737Y-112847581D01*
X84558594Y-112799962D02*
X84653832Y-112847581D01*
X84844309Y-112847581D01*
X84939547Y-112799962D01*
X84987166Y-112704724D01*
X84987166Y-112323771D01*
X84939547Y-112228533D01*
X84844309Y-112180914D01*
X84653832Y-112180914D01*
X84558594Y-112228533D01*
X84510975Y-112323771D01*
X84510975Y-112419010D01*
X84987166Y-112514248D01*
X83653832Y-112847581D02*
X83653832Y-111847581D01*
X83653832Y-112799962D02*
X83749070Y-112847581D01*
X83939547Y-112847581D01*
X84034785Y-112799962D01*
X84082404Y-112752343D01*
X84130023Y-112657105D01*
X84130023Y-112371390D01*
X84082404Y-112276152D01*
X84034785Y-112228533D01*
X83939547Y-112180914D01*
X83749070Y-112180914D01*
X83653832Y-112228533D01*
X82082403Y-112323771D02*
X81939546Y-112371390D01*
X81891927Y-112419010D01*
X81844308Y-112514248D01*
X81844308Y-112657105D01*
X81891927Y-112752343D01*
X81939546Y-112799962D01*
X82034784Y-112847581D01*
X82415737Y-112847581D01*
X82415737Y-111847581D01*
X82082403Y-111847581D01*
X81987165Y-111895200D01*
X81939546Y-111942819D01*
X81891927Y-112038057D01*
X81891927Y-112133295D01*
X81939546Y-112228533D01*
X81987165Y-112276152D01*
X82082403Y-112323771D01*
X82415737Y-112323771D01*
X81510975Y-112180914D02*
X81272880Y-112847581D01*
X81034784Y-112180914D02*
X81272880Y-112847581D01*
X81368118Y-113085676D01*
X81415737Y-113133295D01*
X81510975Y-113180914D01*
X80653832Y-112752343D02*
X80606213Y-112799962D01*
X80653832Y-112847581D01*
X80701451Y-112799962D01*
X80653832Y-112752343D01*
X80653832Y-112847581D01*
X80653832Y-112228533D02*
X80606213Y-112276152D01*
X80653832Y-112323771D01*
X80701451Y-112276152D01*
X80653832Y-112228533D01*
X80653832Y-112323771D01*
X88439547Y-114447581D02*
X88439547Y-113447581D01*
X88106213Y-114161867D01*
X87772880Y-113447581D01*
X87772880Y-114447581D01*
X87391928Y-113780914D02*
X87153833Y-114447581D01*
X86915737Y-113780914D02*
X87153833Y-114447581D01*
X87249071Y-114685676D01*
X87296690Y-114733295D01*
X87391928Y-114780914D01*
X86534785Y-113780914D02*
X86534785Y-114447581D01*
X86534785Y-113876152D02*
X86487166Y-113828533D01*
X86391928Y-113780914D01*
X86249070Y-113780914D01*
X86153832Y-113828533D01*
X86106213Y-113923771D01*
X86106213Y-114447581D01*
X85201451Y-114447581D02*
X85201451Y-113447581D01*
X85201451Y-114399962D02*
X85296689Y-114447581D01*
X85487166Y-114447581D01*
X85582404Y-114399962D01*
X85630023Y-114352343D01*
X85677642Y-114257105D01*
X85677642Y-113971390D01*
X85630023Y-113876152D01*
X85582404Y-113828533D01*
X85487166Y-113780914D01*
X85296689Y-113780914D01*
X85201451Y-113828533D01*
X84391927Y-113923771D02*
X84725261Y-113923771D01*
X84725261Y-114447581D02*
X84725261Y-113447581D01*
X84249070Y-113447581D01*
X83963356Y-113780914D02*
X83725261Y-114447581D01*
X83487165Y-113780914D02*
X83725261Y-114447581D01*
X83820499Y-114685676D01*
X83868118Y-114733295D01*
X83963356Y-114780914D01*
X83106213Y-114447581D02*
X83106213Y-113780914D01*
X83106213Y-113971390D02*
X83058594Y-113876152D01*
X83010975Y-113828533D01*
X82915737Y-113780914D01*
X82820498Y-113780914D01*
X82106212Y-114399962D02*
X82201450Y-114447581D01*
X82391927Y-114447581D01*
X82487165Y-114399962D01*
X82534784Y-114304724D01*
X82534784Y-113923771D01*
X82487165Y-113828533D01*
X82391927Y-113780914D01*
X82201450Y-113780914D01*
X82106212Y-113828533D01*
X82058593Y-113923771D01*
X82058593Y-114019010D01*
X82534784Y-114114248D01*
X87249071Y-115999962D02*
X87106214Y-116047581D01*
X86868118Y-116047581D01*
X86772880Y-115999962D01*
X86725261Y-115952343D01*
X86677642Y-115857105D01*
X86677642Y-115761867D01*
X86725261Y-115666629D01*
X86772880Y-115619010D01*
X86868118Y-115571390D01*
X87058595Y-115523771D01*
X87153833Y-115476152D01*
X87201452Y-115428533D01*
X87249071Y-115333295D01*
X87249071Y-115238057D01*
X87201452Y-115142819D01*
X87153833Y-115095200D01*
X87058595Y-115047581D01*
X86820499Y-115047581D01*
X86677642Y-115095200D01*
X86249071Y-115380914D02*
X86249071Y-116380914D01*
X86249071Y-115428533D02*
X86153833Y-115380914D01*
X85963356Y-115380914D01*
X85868118Y-115428533D01*
X85820499Y-115476152D01*
X85772880Y-115571390D01*
X85772880Y-115857105D01*
X85820499Y-115952343D01*
X85868118Y-115999962D01*
X85963356Y-116047581D01*
X86153833Y-116047581D01*
X86249071Y-115999962D01*
X84915737Y-116047581D02*
X84915737Y-115523771D01*
X84963356Y-115428533D01*
X85058594Y-115380914D01*
X85249071Y-115380914D01*
X85344309Y-115428533D01*
X84915737Y-115999962D02*
X85010975Y-116047581D01*
X85249071Y-116047581D01*
X85344309Y-115999962D01*
X85391928Y-115904724D01*
X85391928Y-115809486D01*
X85344309Y-115714248D01*
X85249071Y-115666629D01*
X85010975Y-115666629D01*
X84915737Y-115619010D01*
X84439547Y-116047581D02*
X84439547Y-115380914D01*
X84439547Y-115571390D02*
X84391928Y-115476152D01*
X84344309Y-115428533D01*
X84249071Y-115380914D01*
X84153832Y-115380914D01*
X83915737Y-115047581D02*
X83249070Y-116047581D01*
X83249070Y-115047581D02*
X83915737Y-116047581D01*
D12*
X107784900Y-96913700D02*
X90131900Y-96913700D01*
X90131900Y-102247700D02*
X107911900Y-102247700D01*
X107911900Y-96913700D02*
X107911900Y-102247700D01*
X90131900Y-102247700D02*
X90131900Y-96913700D01*
X90131900Y-100215700D02*
X91401900Y-100215700D01*
X91401900Y-100215700D02*
X91401900Y-98945700D01*
X91401900Y-98945700D02*
X90131900Y-98945700D01*
D10*
X102526200Y-119434733D02*
X102426200Y-119468067D01*
X102259533Y-119468067D01*
X102192866Y-119434733D01*
X102159533Y-119401400D01*
X102126200Y-119334733D01*
X102126200Y-119268067D01*
X102159533Y-119201400D01*
X102192866Y-119168067D01*
X102259533Y-119134733D01*
X102392866Y-119101400D01*
X102459533Y-119068067D01*
X102492866Y-119034733D01*
X102526200Y-118968067D01*
X102526200Y-118901400D01*
X102492866Y-118834733D01*
X102459533Y-118801400D01*
X102392866Y-118768067D01*
X102226200Y-118768067D01*
X102126200Y-118801400D01*
X101826199Y-119468067D02*
X101826199Y-118768067D01*
X101659533Y-118768067D01*
X101559533Y-118801400D01*
X101492866Y-118868067D01*
X101459533Y-118934733D01*
X101426199Y-119068067D01*
X101426199Y-119168067D01*
X101459533Y-119301400D01*
X101492866Y-119368067D01*
X101559533Y-119434733D01*
X101659533Y-119468067D01*
X101826199Y-119468067D01*
X101159533Y-119268067D02*
X100826199Y-119268067D01*
X101226199Y-119468067D02*
X100992866Y-118768067D01*
X100759533Y-119468067D01*
X102509534Y-124514733D02*
X102409534Y-124548067D01*
X102242867Y-124548067D01*
X102176200Y-124514733D01*
X102142867Y-124481400D01*
X102109534Y-124414733D01*
X102109534Y-124348067D01*
X102142867Y-124281400D01*
X102176200Y-124248067D01*
X102242867Y-124214733D01*
X102376200Y-124181400D01*
X102442867Y-124148067D01*
X102476200Y-124114733D01*
X102509534Y-124048067D01*
X102509534Y-123981400D01*
X102476200Y-123914733D01*
X102442867Y-123881400D01*
X102376200Y-123848067D01*
X102209534Y-123848067D01*
X102109534Y-123881400D01*
X101409533Y-124481400D02*
X101442867Y-124514733D01*
X101542867Y-124548067D01*
X101609533Y-124548067D01*
X101709533Y-124514733D01*
X101776200Y-124448067D01*
X101809533Y-124381400D01*
X101842867Y-124248067D01*
X101842867Y-124148067D01*
X101809533Y-124014733D01*
X101776200Y-123948067D01*
X101709533Y-123881400D01*
X101609533Y-123848067D01*
X101542867Y-123848067D01*
X101442867Y-123881400D01*
X101409533Y-123914733D01*
X100776200Y-124548067D02*
X101109533Y-124548067D01*
X101109533Y-123848067D01*
X97129533Y-123881400D02*
X97196199Y-123848067D01*
X97296199Y-123848067D01*
X97396199Y-123881400D01*
X97462866Y-123948067D01*
X97496199Y-124014733D01*
X97529533Y-124148067D01*
X97529533Y-124248067D01*
X97496199Y-124381400D01*
X97462866Y-124448067D01*
X97396199Y-124514733D01*
X97296199Y-124548067D01*
X97229533Y-124548067D01*
X97129533Y-124514733D01*
X97096199Y-124481400D01*
X97096199Y-124248067D01*
X97229533Y-124248067D01*
X96796199Y-124548067D02*
X96796199Y-123848067D01*
X96396199Y-124548067D01*
X96396199Y-123848067D01*
X96062866Y-124548067D02*
X96062866Y-123848067D01*
X95896200Y-123848067D01*
X95796200Y-123881400D01*
X95729533Y-123948067D01*
X95696200Y-124014733D01*
X95662866Y-124148067D01*
X95662866Y-124248067D01*
X95696200Y-124381400D01*
X95729533Y-124448067D01*
X95796200Y-124514733D01*
X95896200Y-124548067D01*
X96062866Y-124548067D01*
X97529533Y-118768067D02*
X97296200Y-119468067D01*
X97062867Y-118768067D01*
X96429533Y-119401400D02*
X96462867Y-119434733D01*
X96562867Y-119468067D01*
X96629533Y-119468067D01*
X96729533Y-119434733D01*
X96796200Y-119368067D01*
X96829533Y-119301400D01*
X96862867Y-119168067D01*
X96862867Y-119068067D01*
X96829533Y-118934733D01*
X96796200Y-118868067D01*
X96729533Y-118801400D01*
X96629533Y-118768067D01*
X96562867Y-118768067D01*
X96462867Y-118801400D01*
X96429533Y-118834733D01*
X95729533Y-119401400D02*
X95762867Y-119434733D01*
X95862867Y-119468067D01*
X95929533Y-119468067D01*
X96029533Y-119434733D01*
X96096200Y-119368067D01*
X96129533Y-119301400D01*
X96162867Y-119168067D01*
X96162867Y-119068067D01*
X96129533Y-118934733D01*
X96096200Y-118868067D01*
X96029533Y-118801400D01*
X95929533Y-118768067D01*
X95862867Y-118768067D01*
X95762867Y-118801400D01*
X95729533Y-118834733D01*
%LPC*%
D13*
X100406200Y-120421400D03*
D14*
X100406200Y-122961400D03*
X97866200Y-120421400D03*
X97866200Y-122961400D03*
D15*
X115805040Y-99100640D03*
X114705040Y-99100640D03*
D10*
G36*
X111554419Y-80047534D02*
X110700272Y-81965980D01*
X108507763Y-80989812D01*
X109361910Y-79071366D01*
X111554419Y-80047534D01*
X111554419Y-80047534D01*
G37*
G36*
X107900237Y-78420588D02*
X107046090Y-80339034D01*
X104853581Y-79362866D01*
X105707728Y-77444420D01*
X107900237Y-78420588D01*
X107900237Y-78420588D01*
G37*
G36*
X75332298Y-98960891D02*
X77424307Y-98777864D01*
X77633480Y-101168731D01*
X75541471Y-101351758D01*
X75332298Y-98960891D01*
X75332298Y-98960891D01*
G37*
G36*
X75680920Y-102945669D02*
X77772929Y-102762642D01*
X77982102Y-105153509D01*
X75890093Y-105336536D01*
X75680920Y-102945669D01*
X75680920Y-102945669D01*
G37*
G36*
X77933387Y-89699463D02*
X79906741Y-90417705D01*
X79085893Y-92672967D01*
X77112539Y-91954725D01*
X77933387Y-89699463D01*
X77933387Y-89699463D01*
G37*
G36*
X76565307Y-93458233D02*
X78538661Y-94176475D01*
X77717813Y-96431737D01*
X75744459Y-95713495D01*
X76565307Y-93458233D01*
X76565307Y-93458233D01*
G37*
G36*
X83910916Y-82161749D02*
X85471520Y-83566923D01*
X83865606Y-85350471D01*
X82305002Y-83945297D01*
X83910916Y-82161749D01*
X83910916Y-82161749D01*
G37*
G36*
X81234394Y-85134329D02*
X82794998Y-86539503D01*
X81189084Y-88323051D01*
X79628480Y-86917877D01*
X81234394Y-85134329D01*
X81234394Y-85134329D01*
G37*
G36*
X92220036Y-77553598D02*
X93107535Y-79456844D01*
X90932396Y-80471128D01*
X90044897Y-78567882D01*
X92220036Y-77553598D01*
X92220036Y-77553598D01*
G37*
G36*
X88594804Y-79244072D02*
X89482303Y-81147318D01*
X87307164Y-82161602D01*
X86419665Y-80258356D01*
X88594804Y-79244072D01*
X88594804Y-79244072D01*
G37*
D16*
X100755200Y-77876400D03*
X96755200Y-77876400D03*
D10*
G36*
X118634467Y-87171215D02*
X117025773Y-88521069D01*
X115483083Y-86682563D01*
X117091777Y-85332709D01*
X118634467Y-87171215D01*
X118634467Y-87171215D01*
G37*
G36*
X116063317Y-84107037D02*
X114454623Y-85456891D01*
X112911933Y-83618385D01*
X114520627Y-82268531D01*
X116063317Y-84107037D01*
X116063317Y-84107037D01*
G37*
G36*
X122527941Y-95662695D02*
X120554587Y-96380937D01*
X119733739Y-94125675D01*
X121707093Y-93407433D01*
X122527941Y-95662695D01*
X122527941Y-95662695D01*
G37*
G36*
X121159861Y-91903925D02*
X119186507Y-92622167D01*
X118365659Y-90366905D01*
X120339013Y-89648663D01*
X121159861Y-91903925D01*
X121159861Y-91903925D01*
G37*
G36*
X122331507Y-105285736D02*
X120239498Y-105102709D01*
X120448671Y-102711842D01*
X122540680Y-102894869D01*
X122331507Y-105285736D01*
X122331507Y-105285736D01*
G37*
G36*
X122680129Y-101300958D02*
X120588120Y-101117931D01*
X120797293Y-98727064D01*
X122889302Y-98910091D01*
X122680129Y-101300958D01*
X122680129Y-101300958D01*
G37*
D17*
X90766900Y-96024700D03*
X92036900Y-96024700D03*
X93306900Y-96024700D03*
X94576900Y-96024700D03*
X95846900Y-96024700D03*
X97116900Y-96024700D03*
X98386900Y-96024700D03*
X99656900Y-96024700D03*
X100926900Y-96024700D03*
X102196900Y-96024700D03*
X103466900Y-96024700D03*
X104736900Y-96024700D03*
X106006900Y-96024700D03*
X107276900Y-96024700D03*
X107276900Y-103136700D03*
X106006900Y-103136700D03*
X104736900Y-103136700D03*
X103466900Y-103136700D03*
X102196900Y-103136700D03*
X100926900Y-103136700D03*
X99656900Y-103136700D03*
X98386900Y-103136700D03*
X97116900Y-103136700D03*
X95846900Y-103136700D03*
X94576900Y-103136700D03*
X93306900Y-103136700D03*
X92036900Y-103136700D03*
X90766900Y-103136700D03*
M02*
