M48
;DRILL file {KiCad 4.0.7} date 05/31/18 15:48:09
;FORMAT={-:-/ absolute / inch / decimal}
FMAT,2
INCH,TZ
T1C0.016
T2C0.039
%
G90
G05
M72
T1
X3.0162Y-4.0162
X3.0658Y-3.663
X3.1036Y-3.9376
X3.2026Y-3.6106
X3.2416Y-3.3586
X3.3556Y-3.3886
X3.459Y-3.597
X3.513Y-3.534
X3.528Y-3.1426
X3.549Y-3.462
X3.6016Y-3.372
X3.609Y-3.189
X3.8656Y-3.3586
X3.8866Y-3.0676
X3.9196Y-3.4216
X3.9706Y-3.4636
X3.972Y-3.1276
X4.0156Y-3.5116
X4.2016Y-3.5776
X4.2346Y-3.6196
X4.266Y-3.1456
X4.269Y-3.225
X4.3296Y-4.0414
X4.362Y-4.0786
X4.398Y-3.7636
X4.4446Y-3.795
X4.533Y-3.447
X4.5584Y-3.3638
X4.63Y-3.9512
X4.647Y-3.708
X4.698Y-4.092
X4.746Y-3.6646
X4.7926Y-4.017
T2
X3.853Y-4.741
X3.853Y-4.841
X3.953Y-4.741
X3.953Y-4.841
T0
M30
