G04 #@! TF.FileFunction,Copper,L2,Bot,Signal*
%FSLAX46Y46*%
G04 Gerber Fmt 4.6, Leading zero omitted, Abs format (unit mm)*
G04 Created by KiCad (PCBNEW 4.0.7) date 05/31/18 15:48:07*
%MOMM*%
%LPD*%
G01*
G04 APERTURE LIST*
%ADD10C,0.100000*%
%ADD11C,1.700000*%
%ADD12O,1.700000X1.700000*%
%ADD13R,0.600000X0.500000*%
%ADD14R,2.000000X1.700000*%
%ADD15R,0.508000X1.143000*%
%ADD16C,0.600000*%
%ADD17C,0.200000*%
%ADD18C,0.500000*%
%ADD19C,0.250000*%
%ADD20C,0.254000*%
G04 APERTURE END LIST*
D10*
D11*
X100406200Y-120421400D03*
D12*
X100406200Y-122961400D03*
X97866200Y-120421400D03*
X97866200Y-122961400D03*
D13*
X115805040Y-99100640D03*
X114705040Y-99100640D03*
D10*
G36*
X111290363Y-80148896D02*
X110598910Y-81701923D01*
X108771819Y-80888450D01*
X109463272Y-79335423D01*
X111290363Y-80148896D01*
X111290363Y-80148896D01*
G37*
G36*
X107636181Y-78521950D02*
X106944728Y-80074977D01*
X105117637Y-79261504D01*
X105809090Y-77708477D01*
X107636181Y-78521950D01*
X107636181Y-78521950D01*
G37*
G36*
X75548968Y-99142699D02*
X77242499Y-98994534D01*
X77416810Y-100986923D01*
X75723279Y-101135088D01*
X75548968Y-99142699D01*
X75548968Y-99142699D01*
G37*
G36*
X75897590Y-103127477D02*
X77591121Y-102979312D01*
X77765432Y-104971701D01*
X76071901Y-105119866D01*
X75897590Y-103127477D01*
X75897590Y-103127477D01*
G37*
G36*
X78052921Y-89955805D02*
X79650399Y-90537240D01*
X78966359Y-92416625D01*
X77368881Y-91835190D01*
X78052921Y-89955805D01*
X78052921Y-89955805D01*
G37*
G36*
X76684841Y-93714575D02*
X78282319Y-94296010D01*
X77598279Y-96175395D01*
X76000801Y-95593960D01*
X76684841Y-93714575D01*
X76684841Y-93714575D01*
G37*
G36*
X83925719Y-82444204D02*
X85189065Y-83581726D01*
X83850803Y-85068016D01*
X82587457Y-83930494D01*
X83925719Y-82444204D01*
X83925719Y-82444204D01*
G37*
G36*
X81249197Y-85416784D02*
X82512543Y-86554306D01*
X81174281Y-88040596D01*
X79910935Y-86903074D01*
X81249197Y-85416784D01*
X81249197Y-85416784D01*
G37*
G36*
X92123298Y-77819383D02*
X92841749Y-79360106D01*
X91029134Y-80205343D01*
X90310683Y-78664620D01*
X92123298Y-77819383D01*
X92123298Y-77819383D01*
G37*
G36*
X88498066Y-79509857D02*
X89216517Y-81050580D01*
X87403902Y-81895817D01*
X86685451Y-80355094D01*
X88498066Y-79509857D01*
X88498066Y-79509857D01*
G37*
D14*
X100755200Y-77876400D03*
X96755200Y-77876400D03*
D10*
G36*
X118352700Y-87146564D02*
X117050425Y-88239303D01*
X115764850Y-86707214D01*
X117067125Y-85614475D01*
X118352700Y-87146564D01*
X118352700Y-87146564D01*
G37*
G36*
X115781550Y-84082386D02*
X114479275Y-85175125D01*
X113193700Y-83643036D01*
X114495975Y-82550297D01*
X115781550Y-84082386D01*
X115781550Y-84082386D01*
G37*
G36*
X122271599Y-95543160D02*
X120674121Y-96124595D01*
X119990081Y-94245210D01*
X121587559Y-93663775D01*
X122271599Y-95543160D01*
X122271599Y-95543160D01*
G37*
G36*
X120903519Y-91784390D02*
X119306041Y-92365825D01*
X118622001Y-90486440D01*
X120219479Y-89905005D01*
X120903519Y-91784390D01*
X120903519Y-91784390D01*
G37*
G36*
X122149699Y-105069066D02*
X120456168Y-104920901D01*
X120630479Y-102928512D01*
X122324010Y-103076677D01*
X122149699Y-105069066D01*
X122149699Y-105069066D01*
G37*
G36*
X122498321Y-101084288D02*
X120804790Y-100936123D01*
X120979101Y-98943734D01*
X122672632Y-99091899D01*
X122498321Y-101084288D01*
X122498321Y-101084288D01*
G37*
D15*
X90766900Y-96024700D03*
X92036900Y-96024700D03*
X93306900Y-96024700D03*
X94576900Y-96024700D03*
X95846900Y-96024700D03*
X97116900Y-96024700D03*
X98386900Y-96024700D03*
X99656900Y-96024700D03*
X100926900Y-96024700D03*
X102196900Y-96024700D03*
X103466900Y-96024700D03*
X104736900Y-96024700D03*
X106006900Y-96024700D03*
X107276900Y-96024700D03*
X107276900Y-103136700D03*
X106006900Y-103136700D03*
X104736900Y-103136700D03*
X103466900Y-103136700D03*
X102196900Y-103136700D03*
X100926900Y-103136700D03*
X99656900Y-103136700D03*
X98386900Y-103136700D03*
X97116900Y-103136700D03*
X95846900Y-103136700D03*
X94576900Y-103136700D03*
X93306900Y-103136700D03*
X92036900Y-103136700D03*
X90766900Y-103136700D03*
D16*
X117602000Y-100360480D03*
X109971840Y-102651560D03*
X76611480Y-102011480D03*
X77871320Y-93040200D03*
X82336640Y-85308440D03*
X89611200Y-79822040D03*
X98719640Y-77917040D03*
X108356400Y-79898240D03*
X115783360Y-85440520D03*
X120548400Y-93080840D03*
X121732040Y-102031800D03*
X78831440Y-100015040D03*
X87858600Y-91363800D03*
X81346040Y-91709240D03*
X89230200Y-89763600D03*
X85232240Y-86070440D03*
X90144600Y-87934800D03*
X91668600Y-81000600D03*
X91480640Y-85648800D03*
X100888800Y-79441040D03*
X98186240Y-85308440D03*
X108432600Y-81915000D03*
X99557840Y-86908640D03*
X115138200Y-87553800D03*
X100853240Y-87975440D03*
X118033800Y-94183200D03*
X101996240Y-89194640D03*
X119329200Y-103936800D03*
X110794800Y-103596440D03*
X112892840Y-96393000D03*
X106720640Y-90871040D03*
X111709200Y-95595440D03*
X107558840Y-91937840D03*
D17*
X103466900Y-103136700D02*
X103466900Y-103913940D01*
X117287040Y-99100640D02*
X115805040Y-99100640D01*
X117713760Y-99527360D02*
X117287040Y-99100640D01*
X117713760Y-100248720D02*
X117713760Y-99527360D01*
X117602000Y-100360480D02*
X117713760Y-100248720D01*
X107873800Y-104749600D02*
X109971840Y-102651560D01*
X104302560Y-104749600D02*
X107873800Y-104749600D01*
X103466900Y-103913940D02*
X104302560Y-104749600D01*
D18*
X100926900Y-94033340D02*
X100926900Y-92870020D01*
X115805040Y-91725840D02*
X115805040Y-99100640D01*
X112664240Y-88585040D02*
X115805040Y-91725840D01*
X105211880Y-88585040D02*
X112664240Y-88585040D01*
X100926900Y-92870020D02*
X105211880Y-88585040D01*
D17*
X97866200Y-120421400D02*
X97866200Y-120456960D01*
X97866200Y-120456960D02*
X96001840Y-122321320D01*
X115805040Y-118443920D02*
X115805040Y-99100640D01*
X108742480Y-125506480D02*
X115805040Y-118443920D01*
X98125280Y-125506480D02*
X108742480Y-125506480D01*
X96001840Y-123383040D02*
X98125280Y-125506480D01*
X96001840Y-122321320D02*
X96001840Y-123383040D01*
D19*
X100926900Y-96024700D02*
X100926900Y-94033340D01*
X102196900Y-96024700D02*
X102196900Y-93372940D01*
X114705040Y-92149840D02*
X114705040Y-99100640D01*
X112090200Y-89535000D02*
X114705040Y-92149840D01*
X106034840Y-89535000D02*
X112090200Y-89535000D01*
X102196900Y-93372940D02*
X106034840Y-89535000D01*
D17*
X104736900Y-103136700D02*
X104736900Y-100688140D01*
X102196900Y-99189540D02*
X102196900Y-97950020D01*
X103266240Y-100258880D02*
X102196900Y-99189540D01*
X104307640Y-100258880D02*
X103266240Y-100258880D01*
X104736900Y-100688140D02*
X104307640Y-100258880D01*
X106006900Y-103136700D02*
X106006900Y-100490020D01*
X102196900Y-97950020D02*
X102196900Y-97076260D01*
X103916480Y-99669600D02*
X102196900Y-97950020D01*
X105186480Y-99669600D02*
X103916480Y-99669600D01*
X106006900Y-100490020D02*
X105186480Y-99669600D01*
X107276900Y-103136700D02*
X107276900Y-100083620D01*
X102196900Y-97076260D02*
X102196900Y-96024700D01*
X104043480Y-98922840D02*
X102196900Y-97076260D01*
X106116120Y-98922840D02*
X104043480Y-98922840D01*
X107276900Y-100083620D02*
X106116120Y-98922840D01*
X97866200Y-122961400D02*
X97866200Y-123347480D01*
X97866200Y-123347480D02*
X99435920Y-124917200D01*
X114730440Y-118456800D02*
X114730440Y-99019360D01*
X108270040Y-124917200D02*
X114730440Y-118456800D01*
X99435920Y-124917200D02*
X108270040Y-124917200D01*
X76831511Y-104049589D02*
X76831511Y-102231511D01*
X76831511Y-102231511D02*
X76611480Y-102011480D01*
X76831511Y-102053711D02*
X76733400Y-101955600D01*
X77141560Y-93769960D02*
X77141560Y-94944985D01*
X77871320Y-93040200D02*
X77141560Y-93769960D01*
X81211739Y-86728690D02*
X81211739Y-86433341D01*
X81211739Y-86433341D02*
X82336640Y-85308440D01*
X87950984Y-80702837D02*
X88730403Y-80702837D01*
X88730403Y-80702837D02*
X89611200Y-79822040D01*
X96755200Y-77876400D02*
X98679000Y-77876400D01*
X98679000Y-77876400D02*
X98719640Y-77917040D01*
X106376909Y-78891727D02*
X107349887Y-78891727D01*
X107349887Y-78891727D02*
X108356400Y-79898240D01*
X114487625Y-83862711D02*
X114487625Y-84144785D01*
X114487625Y-84144785D02*
X115783360Y-85440520D01*
X119762760Y-91135415D02*
X119762760Y-92295200D01*
X119762760Y-92295200D02*
X120548400Y-93080840D01*
X121738711Y-100014011D02*
X121738711Y-102025129D01*
X121738711Y-102025129D02*
X121732040Y-102031800D01*
D19*
X90766900Y-96024700D02*
X90766900Y-94272100D01*
X78298040Y-100548440D02*
X76966518Y-100548440D01*
X78831440Y-100015040D02*
X78298040Y-100548440D01*
X90766900Y-94272100D02*
X87858600Y-91363800D01*
X76966518Y-100548440D02*
X76482889Y-100064811D01*
X77218460Y-99329240D02*
X76482889Y-100064811D01*
X92036900Y-96024700D02*
X92036900Y-92570300D01*
X80823015Y-91186215D02*
X78509640Y-91186215D01*
X81346040Y-91709240D02*
X80823015Y-91186215D01*
X92036900Y-92570300D02*
X89230200Y-89763600D01*
X79253295Y-91186215D02*
X78509640Y-91186215D01*
X93306900Y-96024700D02*
X93306900Y-91097100D01*
X84394040Y-85232240D02*
X84394040Y-84261889D01*
X85232240Y-86070440D02*
X84394040Y-85232240D01*
X93306900Y-91097100D02*
X90144600Y-87934800D01*
X84394040Y-84261889D02*
X83888261Y-83756110D01*
X84594310Y-83756110D02*
X83888261Y-83756110D01*
D17*
X84538430Y-83756110D02*
X83888261Y-83756110D01*
D19*
X92395040Y-79831187D02*
X91576216Y-79012363D01*
X92395040Y-80274160D02*
X92395040Y-79831187D01*
X91668600Y-81000600D02*
X92395040Y-80274160D01*
X94576900Y-88745060D02*
X91480640Y-85648800D01*
X94576900Y-96024700D02*
X94576900Y-88745060D01*
X92090240Y-79526387D02*
X91576216Y-79012363D01*
X92090240Y-79526387D02*
X91576216Y-79012363D01*
X95846900Y-96024700D02*
X95846900Y-87647780D01*
X100755200Y-79307440D02*
X100755200Y-77876400D01*
X100888800Y-79441040D02*
X100755200Y-79307440D01*
X95846900Y-87647780D02*
X98186240Y-85308440D01*
X97116900Y-96024700D02*
X97116900Y-89349580D01*
X108432600Y-81915000D02*
X109828927Y-80518673D01*
X97116900Y-89349580D02*
X99557840Y-86908640D01*
X109828927Y-80518673D02*
X110031091Y-80518673D01*
X110084273Y-80518673D02*
X110031091Y-80518673D01*
X98386900Y-96024700D02*
X98386900Y-90441780D01*
X116321840Y-88204040D02*
X117058775Y-87467105D01*
X115788440Y-88204040D02*
X116321840Y-88204040D01*
X115138200Y-87553800D02*
X115788440Y-88204040D01*
X98386900Y-90441780D02*
X100853240Y-87975440D01*
X117058775Y-87467105D02*
X117058775Y-86926889D01*
X117058775Y-87731265D02*
X117058775Y-86926889D01*
X116855240Y-87934800D02*
X117058775Y-87731265D01*
X117058775Y-87467105D02*
X117058775Y-86926889D01*
X99656900Y-96024700D02*
X99656900Y-91533980D01*
X118744785Y-94894185D02*
X121130840Y-94894185D01*
X118033800Y-94183200D02*
X118744785Y-94894185D01*
X99656900Y-91533980D02*
X101996240Y-89194640D01*
X99656900Y-103136700D02*
X99656900Y-104914700D01*
X119391189Y-103998789D02*
X121390089Y-103998789D01*
X119329200Y-103936800D02*
X119391189Y-103998789D01*
X108813600Y-105577640D02*
X110794800Y-103596440D01*
X100319840Y-105577640D02*
X108813600Y-105577640D01*
X99656900Y-104914700D02*
X100319840Y-105577640D01*
D17*
X120837398Y-104551480D02*
X121390089Y-103998789D01*
D19*
X104736900Y-96024700D02*
X104736900Y-92854780D01*
X107650280Y-122961400D02*
X100406200Y-122961400D01*
X112852200Y-117759480D02*
X107650280Y-122961400D01*
X112852200Y-96352360D02*
X112852200Y-117759480D01*
X112892840Y-96393000D02*
X112852200Y-96352360D01*
X104736900Y-92854780D02*
X106720640Y-90871040D01*
X106006900Y-96024700D02*
X106006900Y-93489780D01*
X107680760Y-120421400D02*
X100406200Y-120421400D01*
X111683800Y-116418360D02*
X107680760Y-120421400D01*
X111683800Y-95570040D02*
X111683800Y-116418360D01*
X111709200Y-95595440D02*
X111683800Y-95570040D01*
X106006900Y-93489780D02*
X107558840Y-91937840D01*
D17*
X100406200Y-120421400D02*
X100406200Y-120858280D01*
D20*
G36*
X101783874Y-66092975D02*
X102005283Y-66277482D01*
X102274680Y-66508394D01*
X102467701Y-66817227D01*
X102587512Y-67016912D01*
X102754502Y-67434388D01*
X102896218Y-67954013D01*
X102898161Y-67957910D01*
X102898518Y-67962252D01*
X102990508Y-68284217D01*
X103074400Y-68745622D01*
X103074400Y-68986400D01*
X103079402Y-69011545D01*
X103076204Y-69036985D01*
X103125200Y-69722929D01*
X103125200Y-70533928D01*
X103076491Y-71167145D01*
X103079783Y-71194540D01*
X103074400Y-71221600D01*
X103074400Y-71421303D01*
X102988561Y-71979256D01*
X102851045Y-72437643D01*
X102661111Y-73054929D01*
X102475194Y-73473242D01*
X102294113Y-73880675D01*
X101898395Y-74496235D01*
X101430243Y-75011202D01*
X101387309Y-75082590D01*
X101333663Y-75146319D01*
X101316587Y-75200181D01*
X101287465Y-75248603D01*
X101275117Y-75330988D01*
X101249943Y-75410394D01*
X101254779Y-75466688D01*
X101246403Y-75522571D01*
X101266524Y-75603412D01*
X101273653Y-75686405D01*
X101299665Y-75736566D01*
X101313312Y-75791398D01*
X101362833Y-75858380D01*
X101401183Y-75932334D01*
X101444412Y-75968723D01*
X101478002Y-76014157D01*
X101549390Y-76057091D01*
X101613119Y-76110737D01*
X101666981Y-76127813D01*
X101715403Y-76156935D01*
X101797788Y-76169283D01*
X101877194Y-76194457D01*
X102309956Y-76242542D01*
X102844591Y-76339748D01*
X102846467Y-76339717D01*
X102848212Y-76340396D01*
X103707079Y-76491961D01*
X104743893Y-76689449D01*
X105466558Y-76882160D01*
X106265025Y-77131681D01*
X107058879Y-77379760D01*
X107845903Y-77674894D01*
X108573288Y-77965848D01*
X109156479Y-78257444D01*
X109170665Y-78261329D01*
X109182641Y-78269864D01*
X110167438Y-78713023D01*
X110489492Y-78897053D01*
X112187421Y-79895835D01*
X113867317Y-81081644D01*
X115641930Y-82560488D01*
X117370779Y-84388129D01*
X118355428Y-85618940D01*
X119196838Y-86806813D01*
X119888245Y-87893310D01*
X120327499Y-88674205D01*
X120726157Y-89471522D01*
X121021624Y-90062456D01*
X121465338Y-91097788D01*
X121957190Y-92376604D01*
X122253318Y-93413052D01*
X122255491Y-93417282D01*
X122255943Y-93422017D01*
X122401746Y-93908026D01*
X122464626Y-94180510D01*
X122195954Y-93442338D01*
X122073863Y-93236356D01*
X121869259Y-93080831D01*
X121620267Y-93017162D01*
X121483438Y-93037738D01*
X121483562Y-92895673D01*
X121341517Y-92551897D01*
X121161224Y-92371289D01*
X121330938Y-92270694D01*
X121486463Y-92066090D01*
X121550132Y-91817098D01*
X121511914Y-91562953D01*
X120827874Y-89683568D01*
X120705783Y-89477586D01*
X120501179Y-89322061D01*
X120252187Y-89258392D01*
X119998041Y-89296610D01*
X118400563Y-89878045D01*
X118194582Y-90000136D01*
X118039057Y-90204740D01*
X117975388Y-90453732D01*
X118013606Y-90707877D01*
X118697646Y-92587262D01*
X118819737Y-92793244D01*
X119024341Y-92948769D01*
X119273333Y-93012438D01*
X119418693Y-92990579D01*
X119613308Y-93185195D01*
X119613238Y-93266007D01*
X119755283Y-93609783D01*
X119778637Y-93633178D01*
X119768643Y-93636815D01*
X119562662Y-93758906D01*
X119407137Y-93963510D01*
X119363494Y-94134185D01*
X119059587Y-94134185D01*
X118968922Y-94043520D01*
X118968962Y-93998033D01*
X118826917Y-93654257D01*
X118564127Y-93391008D01*
X118220599Y-93248362D01*
X117848633Y-93248038D01*
X117504857Y-93390083D01*
X117241608Y-93652873D01*
X117098962Y-93996401D01*
X117098638Y-94368367D01*
X117240683Y-94712143D01*
X117503473Y-94975392D01*
X117847001Y-95118038D01*
X117893877Y-95118079D01*
X118207384Y-95431586D01*
X118453946Y-95596333D01*
X118744785Y-95654185D01*
X119813914Y-95654185D01*
X120065726Y-96346032D01*
X120187817Y-96552014D01*
X120392421Y-96707539D01*
X120641413Y-96771208D01*
X120895559Y-96732990D01*
X122493037Y-96151555D01*
X122699018Y-96029464D01*
X122825290Y-95863344D01*
X122846404Y-95982988D01*
X122847083Y-95984733D01*
X122847052Y-95986609D01*
X122946243Y-96532160D01*
X123045936Y-97230009D01*
X123142917Y-97908876D01*
X123182371Y-98697954D01*
X123174302Y-98682624D01*
X122975546Y-98519691D01*
X122729060Y-98446923D01*
X121035529Y-98298758D01*
X120797249Y-98322358D01*
X120569826Y-98442064D01*
X120406893Y-98640820D01*
X120334125Y-98887306D01*
X120159814Y-100879695D01*
X120183414Y-101117975D01*
X120303120Y-101345398D01*
X120501876Y-101508331D01*
X120748362Y-101581099D01*
X120901231Y-101594473D01*
X120797202Y-101845001D01*
X120796878Y-102216967D01*
X120829540Y-102296015D01*
X120686907Y-102283536D01*
X120448627Y-102307136D01*
X120221204Y-102426842D01*
X120058271Y-102625598D01*
X119985503Y-102872084D01*
X119953430Y-103238675D01*
X119859527Y-103144608D01*
X119515999Y-103001962D01*
X119144033Y-103001638D01*
X118800257Y-103143683D01*
X118537008Y-103406473D01*
X118394362Y-103750001D01*
X118394038Y-104121967D01*
X118536083Y-104465743D01*
X118798873Y-104728992D01*
X119142401Y-104871638D01*
X119514367Y-104871962D01*
X119788267Y-104758789D01*
X119820438Y-104758789D01*
X119811192Y-104864473D01*
X119834792Y-105102753D01*
X119954498Y-105330176D01*
X120153254Y-105493109D01*
X120399740Y-105565877D01*
X122093271Y-105714042D01*
X122331551Y-105690442D01*
X122558974Y-105570736D01*
X122625661Y-105489387D01*
X122499884Y-106055382D01*
X122253495Y-106991663D01*
X122008172Y-107776696D01*
X121708163Y-108626721D01*
X121464549Y-109308840D01*
X121222840Y-109840600D01*
X121221048Y-109848242D01*
X121216607Y-109854717D01*
X120920024Y-110546744D01*
X120527763Y-111331266D01*
X120193111Y-111952762D01*
X120110044Y-112077363D01*
X120083490Y-112141659D01*
X120044846Y-112199495D01*
X120031132Y-112268438D01*
X120004298Y-112333414D01*
X120004371Y-112402977D01*
X119990800Y-112471200D01*
X119990800Y-113965674D01*
X119945154Y-114513431D01*
X119802743Y-115320423D01*
X119612213Y-116082544D01*
X119468435Y-116513878D01*
X119279023Y-117082113D01*
X118808461Y-118070293D01*
X118476200Y-118592418D01*
X118139162Y-119122049D01*
X117264531Y-120239633D01*
X116647674Y-120903942D01*
X115763476Y-121689895D01*
X115083548Y-122272691D01*
X114606477Y-122606641D01*
X113814270Y-123151283D01*
X113071108Y-123597180D01*
X112586488Y-123887952D01*
X112102878Y-124129757D01*
X112090506Y-124139359D01*
X112075594Y-124144148D01*
X111640267Y-124385996D01*
X110908743Y-124727374D01*
X110290591Y-124997815D01*
X116324763Y-118963644D01*
X116484091Y-118725192D01*
X116506855Y-118610750D01*
X116540040Y-118443920D01*
X116540040Y-99835640D01*
X116807530Y-99835640D01*
X116667162Y-100173681D01*
X116666838Y-100545647D01*
X116808883Y-100889423D01*
X117071673Y-101152672D01*
X117415201Y-101295318D01*
X117787167Y-101295642D01*
X118130943Y-101153597D01*
X118394192Y-100890807D01*
X118536838Y-100547279D01*
X118537162Y-100175313D01*
X118448760Y-99961363D01*
X118448760Y-99527360D01*
X118392811Y-99246088D01*
X118377283Y-99222848D01*
X118233483Y-99007636D01*
X117806763Y-98580917D01*
X117568312Y-98421589D01*
X117287040Y-98365640D01*
X116690040Y-98365640D01*
X116690040Y-91725845D01*
X116690041Y-91725840D01*
X116622673Y-91387166D01*
X116622673Y-91387165D01*
X116430830Y-91100050D01*
X116430827Y-91100048D01*
X113290030Y-87959250D01*
X113215696Y-87909582D01*
X113002915Y-87767407D01*
X112913560Y-87749633D01*
X112664240Y-87700039D01*
X112664235Y-87700040D01*
X105211885Y-87700040D01*
X105211880Y-87700039D01*
X104962560Y-87749633D01*
X104873205Y-87767407D01*
X104586090Y-87959250D01*
X104586088Y-87959253D01*
X100416900Y-92128440D01*
X100416900Y-91848782D01*
X102135920Y-90129762D01*
X102181407Y-90129802D01*
X102525183Y-89987757D01*
X102788432Y-89724967D01*
X102931078Y-89381439D01*
X102931402Y-89009473D01*
X102789357Y-88665697D01*
X102526567Y-88402448D01*
X102183039Y-88259802D01*
X101811073Y-88259478D01*
X101734576Y-88291086D01*
X101788078Y-88162239D01*
X101788402Y-87790273D01*
X101646357Y-87446497D01*
X101383567Y-87183248D01*
X101040039Y-87040602D01*
X100668073Y-87040278D01*
X100484001Y-87116335D01*
X100492678Y-87095439D01*
X100493002Y-86723473D01*
X100350957Y-86379697D01*
X100088167Y-86116448D01*
X99744639Y-85973802D01*
X99372673Y-85973478D01*
X99028897Y-86115523D01*
X98765648Y-86378313D01*
X98623002Y-86721841D01*
X98622961Y-86768717D01*
X96606900Y-88784778D01*
X96606900Y-87962582D01*
X98325920Y-86243562D01*
X98371407Y-86243602D01*
X98715183Y-86101557D01*
X98978432Y-85838767D01*
X99121078Y-85495239D01*
X99121402Y-85123273D01*
X98979357Y-84779497D01*
X98716567Y-84516248D01*
X98373039Y-84373602D01*
X98001073Y-84373278D01*
X97657297Y-84515323D01*
X97394048Y-84778113D01*
X97251402Y-85121641D01*
X97251361Y-85168517D01*
X95309499Y-87110379D01*
X95144752Y-87356941D01*
X95086900Y-87647780D01*
X95086900Y-88180258D01*
X92415762Y-85509120D01*
X92415802Y-85463633D01*
X92273757Y-85119857D01*
X92010967Y-84856608D01*
X91667439Y-84713962D01*
X91295473Y-84713638D01*
X90951697Y-84855683D01*
X90688448Y-85118473D01*
X90545802Y-85462001D01*
X90545478Y-85833967D01*
X90687523Y-86177743D01*
X90950313Y-86440992D01*
X91293841Y-86583638D01*
X91340717Y-86583679D01*
X93816900Y-89059862D01*
X93816900Y-90532298D01*
X91079722Y-87795120D01*
X91079762Y-87749633D01*
X90937717Y-87405857D01*
X90674927Y-87142608D01*
X90331399Y-86999962D01*
X89959433Y-86999638D01*
X89615657Y-87141683D01*
X89352408Y-87404473D01*
X89209762Y-87748001D01*
X89209438Y-88119967D01*
X89351483Y-88463743D01*
X89614273Y-88726992D01*
X89957801Y-88869638D01*
X90004677Y-88869679D01*
X92546900Y-91411902D01*
X92546900Y-92005498D01*
X90165322Y-89623920D01*
X90165362Y-89578433D01*
X90023317Y-89234657D01*
X89760527Y-88971408D01*
X89416999Y-88828762D01*
X89045033Y-88828438D01*
X88701257Y-88970483D01*
X88438008Y-89233273D01*
X88295362Y-89576801D01*
X88295038Y-89948767D01*
X88437083Y-90292543D01*
X88699873Y-90555792D01*
X89043401Y-90698438D01*
X89090277Y-90698479D01*
X91276900Y-92885102D01*
X91276900Y-93707298D01*
X88793722Y-91224120D01*
X88793762Y-91178633D01*
X88651717Y-90834857D01*
X88388927Y-90571608D01*
X88045399Y-90428962D01*
X87673433Y-90428638D01*
X87329657Y-90570683D01*
X87066408Y-90833473D01*
X86923762Y-91177001D01*
X86923438Y-91548967D01*
X87065483Y-91892743D01*
X87328273Y-92155992D01*
X87671801Y-92298638D01*
X87718677Y-92298679D01*
X90006900Y-94586902D01*
X90006900Y-95068960D01*
X89916469Y-95201310D01*
X89865460Y-95453200D01*
X89865460Y-96596200D01*
X89909738Y-96831517D01*
X90048810Y-97047641D01*
X90261010Y-97192631D01*
X90512900Y-97243640D01*
X91020900Y-97243640D01*
X91256217Y-97199362D01*
X91402807Y-97105034D01*
X91531010Y-97192631D01*
X91782900Y-97243640D01*
X92290900Y-97243640D01*
X92526217Y-97199362D01*
X92672807Y-97105034D01*
X92801010Y-97192631D01*
X93052900Y-97243640D01*
X93560900Y-97243640D01*
X93796217Y-97199362D01*
X93942807Y-97105034D01*
X94071010Y-97192631D01*
X94322900Y-97243640D01*
X94830900Y-97243640D01*
X95066217Y-97199362D01*
X95212807Y-97105034D01*
X95341010Y-97192631D01*
X95592900Y-97243640D01*
X96100900Y-97243640D01*
X96336217Y-97199362D01*
X96482807Y-97105034D01*
X96611010Y-97192631D01*
X96862900Y-97243640D01*
X97370900Y-97243640D01*
X97606217Y-97199362D01*
X97752807Y-97105034D01*
X97881010Y-97192631D01*
X98132900Y-97243640D01*
X98640900Y-97243640D01*
X98876217Y-97199362D01*
X99022807Y-97105034D01*
X99151010Y-97192631D01*
X99402900Y-97243640D01*
X99910900Y-97243640D01*
X100146217Y-97199362D01*
X100292807Y-97105034D01*
X100421010Y-97192631D01*
X100672900Y-97243640D01*
X101180900Y-97243640D01*
X101416217Y-97199362D01*
X101557271Y-97108596D01*
X101583202Y-97134527D01*
X101816591Y-97231200D01*
X101911150Y-97231200D01*
X102069900Y-97072450D01*
X102069900Y-96151700D01*
X102049900Y-96151700D01*
X102049900Y-95897700D01*
X102069900Y-95897700D01*
X102069900Y-94976950D01*
X102323900Y-94976950D01*
X102323900Y-95897700D01*
X102343900Y-95897700D01*
X102343900Y-96151700D01*
X102323900Y-96151700D01*
X102323900Y-97072450D01*
X102482650Y-97231200D01*
X102577209Y-97231200D01*
X102810598Y-97134527D01*
X102837135Y-97107991D01*
X102961010Y-97192631D01*
X103212900Y-97243640D01*
X103720900Y-97243640D01*
X103956217Y-97199362D01*
X104102807Y-97105034D01*
X104231010Y-97192631D01*
X104482900Y-97243640D01*
X104990900Y-97243640D01*
X105226217Y-97199362D01*
X105372807Y-97105034D01*
X105501010Y-97192631D01*
X105752900Y-97243640D01*
X106260900Y-97243640D01*
X106496217Y-97199362D01*
X106642807Y-97105034D01*
X106771010Y-97192631D01*
X107022900Y-97243640D01*
X107530900Y-97243640D01*
X107766217Y-97199362D01*
X107982341Y-97060290D01*
X108127331Y-96848090D01*
X108178340Y-96596200D01*
X108178340Y-95453200D01*
X108134062Y-95217883D01*
X107994990Y-95001759D01*
X107782790Y-94856769D01*
X107530900Y-94805760D01*
X107022900Y-94805760D01*
X106787583Y-94850038D01*
X106766900Y-94863347D01*
X106766900Y-93804582D01*
X107698520Y-92872962D01*
X107744007Y-92873002D01*
X108087783Y-92730957D01*
X108351032Y-92468167D01*
X108493678Y-92124639D01*
X108494002Y-91752673D01*
X108351957Y-91408897D01*
X108089167Y-91145648D01*
X107745639Y-91003002D01*
X107655526Y-91002924D01*
X107655802Y-90685873D01*
X107513757Y-90342097D01*
X107250967Y-90078848D01*
X106907439Y-89936202D01*
X106535473Y-89935878D01*
X106191697Y-90077923D01*
X105928448Y-90340713D01*
X105785802Y-90684241D01*
X105785761Y-90731117D01*
X104199499Y-92317379D01*
X104034752Y-92563941D01*
X103976900Y-92854780D01*
X103976900Y-94859577D01*
X103972790Y-94856769D01*
X103720900Y-94805760D01*
X103212900Y-94805760D01*
X102977583Y-94850038D01*
X102836529Y-94940804D01*
X102810598Y-94914873D01*
X102577209Y-94818200D01*
X102482650Y-94818200D01*
X102323900Y-94976950D01*
X102069900Y-94976950D01*
X101911150Y-94818200D01*
X101816591Y-94818200D01*
X101686900Y-94871920D01*
X101686900Y-94458269D01*
X101744533Y-94372015D01*
X101811900Y-94033340D01*
X101811900Y-93236600D01*
X105578459Y-89470040D01*
X112297660Y-89470040D01*
X114920040Y-92092419D01*
X114920040Y-98286390D01*
X114832040Y-98374390D01*
X114832040Y-98975640D01*
X114852040Y-98975640D01*
X114852040Y-99225640D01*
X114832040Y-99225640D01*
X114832040Y-99826890D01*
X114990790Y-99985640D01*
X115070040Y-99985640D01*
X115070040Y-118139473D01*
X108438034Y-124771480D01*
X98429727Y-124771480D01*
X97993202Y-124334955D01*
X97993202Y-124282220D01*
X98223092Y-124402886D01*
X98747558Y-124156583D01*
X99137845Y-123728324D01*
X99137855Y-123728299D01*
X99327053Y-124011454D01*
X99808822Y-124333361D01*
X100377107Y-124446400D01*
X100435293Y-124446400D01*
X101003578Y-124333361D01*
X101485347Y-124011454D01*
X101679154Y-123721400D01*
X107650280Y-123721400D01*
X107941119Y-123663548D01*
X108187681Y-123498801D01*
X113389601Y-118296881D01*
X113554348Y-118050319D01*
X113612200Y-117759480D01*
X113612200Y-99384390D01*
X113770040Y-99384390D01*
X113770040Y-99476950D01*
X113866713Y-99710339D01*
X114045342Y-99888967D01*
X114278731Y-99985640D01*
X114419290Y-99985640D01*
X114578040Y-99826890D01*
X114578040Y-99225640D01*
X113928790Y-99225640D01*
X113770040Y-99384390D01*
X113612200Y-99384390D01*
X113612200Y-98724330D01*
X113770040Y-98724330D01*
X113770040Y-98816890D01*
X113928790Y-98975640D01*
X114578040Y-98975640D01*
X114578040Y-98374390D01*
X114419290Y-98215640D01*
X114278731Y-98215640D01*
X114045342Y-98312313D01*
X113866713Y-98490941D01*
X113770040Y-98724330D01*
X113612200Y-98724330D01*
X113612200Y-96996032D01*
X113685032Y-96923327D01*
X113827678Y-96579799D01*
X113828002Y-96207833D01*
X113685957Y-95864057D01*
X113423167Y-95600808D01*
X113079639Y-95458162D01*
X112707673Y-95457838D01*
X112644298Y-95484024D01*
X112644362Y-95410273D01*
X112502317Y-95066497D01*
X112239527Y-94803248D01*
X111895999Y-94660602D01*
X111524033Y-94660278D01*
X111180257Y-94802323D01*
X110917008Y-95065113D01*
X110774362Y-95408641D01*
X110774038Y-95780607D01*
X110916083Y-96124383D01*
X110923800Y-96132113D01*
X110923800Y-102661552D01*
X110906832Y-102661537D01*
X110907002Y-102466393D01*
X110764957Y-102122617D01*
X110502167Y-101859368D01*
X110158639Y-101716722D01*
X109786673Y-101716398D01*
X109442897Y-101858443D01*
X109179648Y-102121233D01*
X109037002Y-102464761D01*
X109036930Y-102547023D01*
X108163702Y-103420252D01*
X108007150Y-103263700D01*
X107403900Y-103263700D01*
X107403900Y-103283700D01*
X107149900Y-103283700D01*
X107149900Y-103263700D01*
X106133900Y-103263700D01*
X106133900Y-103283700D01*
X105879900Y-103283700D01*
X105879900Y-103263700D01*
X104863900Y-103263700D01*
X104863900Y-103283700D01*
X104609900Y-103283700D01*
X104609900Y-103263700D01*
X104589900Y-103263700D01*
X104589900Y-103009700D01*
X104609900Y-103009700D01*
X104609900Y-102088950D01*
X104863900Y-102088950D01*
X104863900Y-103009700D01*
X105879900Y-103009700D01*
X105879900Y-102088950D01*
X106133900Y-102088950D01*
X106133900Y-103009700D01*
X107149900Y-103009700D01*
X107149900Y-102088950D01*
X107403900Y-102088950D01*
X107403900Y-103009700D01*
X108007150Y-103009700D01*
X108165900Y-102850950D01*
X108165900Y-102438890D01*
X108069227Y-102205501D01*
X107890598Y-102026873D01*
X107657209Y-101930200D01*
X107562650Y-101930200D01*
X107403900Y-102088950D01*
X107149900Y-102088950D01*
X106991150Y-101930200D01*
X106896591Y-101930200D01*
X106663202Y-102026873D01*
X106641900Y-102048175D01*
X106620598Y-102026873D01*
X106387209Y-101930200D01*
X106292650Y-101930200D01*
X106133900Y-102088950D01*
X105879900Y-102088950D01*
X105721150Y-101930200D01*
X105626591Y-101930200D01*
X105393202Y-102026873D01*
X105371900Y-102048175D01*
X105350598Y-102026873D01*
X105117209Y-101930200D01*
X105022650Y-101930200D01*
X104863900Y-102088950D01*
X104609900Y-102088950D01*
X104451150Y-101930200D01*
X104356591Y-101930200D01*
X104123202Y-102026873D01*
X104096665Y-102053409D01*
X103972790Y-101968769D01*
X103720900Y-101917760D01*
X103212900Y-101917760D01*
X102977583Y-101962038D01*
X102830993Y-102056366D01*
X102702790Y-101968769D01*
X102450900Y-101917760D01*
X101942900Y-101917760D01*
X101707583Y-101962038D01*
X101560993Y-102056366D01*
X101432790Y-101968769D01*
X101180900Y-101917760D01*
X100672900Y-101917760D01*
X100437583Y-101962038D01*
X100290993Y-102056366D01*
X100162790Y-101968769D01*
X99910900Y-101917760D01*
X99402900Y-101917760D01*
X99167583Y-101962038D01*
X99020993Y-102056366D01*
X98892790Y-101968769D01*
X98640900Y-101917760D01*
X98132900Y-101917760D01*
X97897583Y-101962038D01*
X97750993Y-102056366D01*
X97622790Y-101968769D01*
X97370900Y-101917760D01*
X96862900Y-101917760D01*
X96627583Y-101962038D01*
X96480993Y-102056366D01*
X96352790Y-101968769D01*
X96100900Y-101917760D01*
X95592900Y-101917760D01*
X95357583Y-101962038D01*
X95210993Y-102056366D01*
X95082790Y-101968769D01*
X94830900Y-101917760D01*
X94322900Y-101917760D01*
X94087583Y-101962038D01*
X93940993Y-102056366D01*
X93812790Y-101968769D01*
X93560900Y-101917760D01*
X93052900Y-101917760D01*
X92817583Y-101962038D01*
X92670993Y-102056366D01*
X92542790Y-101968769D01*
X92290900Y-101917760D01*
X91782900Y-101917760D01*
X91547583Y-101962038D01*
X91400993Y-102056366D01*
X91272790Y-101968769D01*
X91020900Y-101917760D01*
X90512900Y-101917760D01*
X90277583Y-101962038D01*
X90061459Y-102101110D01*
X89916469Y-102313310D01*
X89865460Y-102565200D01*
X89865460Y-103708200D01*
X89909738Y-103943517D01*
X90048810Y-104159641D01*
X90261010Y-104304631D01*
X90512900Y-104355640D01*
X91020900Y-104355640D01*
X91256217Y-104311362D01*
X91402807Y-104217034D01*
X91531010Y-104304631D01*
X91782900Y-104355640D01*
X92290900Y-104355640D01*
X92526217Y-104311362D01*
X92672807Y-104217034D01*
X92801010Y-104304631D01*
X93052900Y-104355640D01*
X93560900Y-104355640D01*
X93796217Y-104311362D01*
X93942807Y-104217034D01*
X94071010Y-104304631D01*
X94322900Y-104355640D01*
X94830900Y-104355640D01*
X95066217Y-104311362D01*
X95212807Y-104217034D01*
X95341010Y-104304631D01*
X95592900Y-104355640D01*
X96100900Y-104355640D01*
X96336217Y-104311362D01*
X96482807Y-104217034D01*
X96611010Y-104304631D01*
X96862900Y-104355640D01*
X97370900Y-104355640D01*
X97606217Y-104311362D01*
X97752807Y-104217034D01*
X97881010Y-104304631D01*
X98132900Y-104355640D01*
X98640900Y-104355640D01*
X98876217Y-104311362D01*
X98896900Y-104298053D01*
X98896900Y-104914700D01*
X98954752Y-105205539D01*
X99119499Y-105452101D01*
X99782439Y-106115041D01*
X100029001Y-106279788D01*
X100319840Y-106337640D01*
X108813600Y-106337640D01*
X109104439Y-106279788D01*
X109351001Y-106115041D01*
X110923800Y-104542242D01*
X110923800Y-116103558D01*
X107365958Y-119661400D01*
X101698947Y-119661400D01*
X101665856Y-119581314D01*
X101248483Y-119163212D01*
X100702881Y-118936658D01*
X100112111Y-118936143D01*
X99566114Y-119161744D01*
X99148012Y-119579117D01*
X99123545Y-119638039D01*
X98945347Y-119371346D01*
X98463578Y-119049439D01*
X97895293Y-118936400D01*
X97837107Y-118936400D01*
X97268822Y-119049439D01*
X96787053Y-119371346D01*
X96465146Y-119853115D01*
X96352107Y-120421400D01*
X96436756Y-120846958D01*
X95482117Y-121801597D01*
X95322789Y-122040048D01*
X95266840Y-122321320D01*
X95266840Y-123383040D01*
X95322637Y-123663548D01*
X95322789Y-123664312D01*
X95482117Y-123902763D01*
X97605557Y-126026204D01*
X97844008Y-126185531D01*
X98125280Y-126241480D01*
X106460907Y-126241480D01*
X105967468Y-126357583D01*
X104773445Y-126606338D01*
X103534391Y-126804587D01*
X102687653Y-126904203D01*
X101799324Y-127002906D01*
X100670170Y-127052000D01*
X97860510Y-127052000D01*
X96976858Y-127002908D01*
X95839014Y-126903965D01*
X94452923Y-126705952D01*
X93158873Y-126457096D01*
X92720720Y-126359729D01*
X91917002Y-126158800D01*
X91917001Y-126158799D01*
X91510602Y-126057200D01*
X91510601Y-126057199D01*
X91125931Y-125961032D01*
X90039352Y-125615302D01*
X89050255Y-125269118D01*
X87966566Y-124825791D01*
X87127149Y-124430771D01*
X86239739Y-123987066D01*
X85309182Y-123448321D01*
X84331308Y-122812703D01*
X83499450Y-122176576D01*
X82672215Y-121495323D01*
X82340846Y-121163954D01*
X82340843Y-121163952D01*
X81842140Y-120665248D01*
X81213782Y-119988556D01*
X80594335Y-119178510D01*
X80109826Y-118403297D01*
X79776810Y-117832412D01*
X79489234Y-117209332D01*
X79155583Y-116446701D01*
X78972388Y-115805520D01*
X78779855Y-114890989D01*
X78688000Y-114202074D01*
X78688000Y-113334800D01*
X78680004Y-113294602D01*
X78683359Y-113253753D01*
X78653197Y-113159835D01*
X78633954Y-113063095D01*
X78611185Y-113029018D01*
X78598652Y-112989994D01*
X78344652Y-112532794D01*
X78341834Y-112529471D01*
X78340452Y-112525341D01*
X77934053Y-111814141D01*
X77931934Y-111811703D01*
X77930883Y-111808651D01*
X77591076Y-111226125D01*
X77198493Y-110391887D01*
X76856585Y-109659226D01*
X76664053Y-109129762D01*
X76656234Y-109116867D01*
X76653322Y-109102068D01*
X76309588Y-108267289D01*
X76064881Y-107484225D01*
X76064362Y-107483274D01*
X76064244Y-107482197D01*
X75768772Y-106546536D01*
X75572293Y-105662379D01*
X75572293Y-105662378D01*
X75525152Y-105450246D01*
X75648923Y-105610037D01*
X75872952Y-105735981D01*
X76128329Y-105764842D01*
X77821860Y-105616677D01*
X78052422Y-105552059D01*
X78255603Y-105394679D01*
X78381547Y-105170651D01*
X78410408Y-104915273D01*
X78236097Y-102922884D01*
X78171479Y-102692322D01*
X78014099Y-102489141D01*
X77790070Y-102363197D01*
X77566511Y-102337932D01*
X77566511Y-102231511D01*
X77548827Y-102142609D01*
X77566510Y-102053711D01*
X77546531Y-101953271D01*
X77546642Y-101826313D01*
X77466554Y-101632484D01*
X77473238Y-101631899D01*
X77703800Y-101567281D01*
X77906981Y-101409901D01*
X77964020Y-101308440D01*
X78298040Y-101308440D01*
X78588879Y-101250588D01*
X78835441Y-101085841D01*
X78971120Y-100950162D01*
X79016607Y-100950202D01*
X79360383Y-100808157D01*
X79623632Y-100545367D01*
X79766278Y-100201839D01*
X79766602Y-99829873D01*
X79624557Y-99486097D01*
X79361767Y-99222848D01*
X79018239Y-99080202D01*
X78646273Y-99079878D01*
X78302497Y-99221923D01*
X78039248Y-99484713D01*
X77953387Y-99691488D01*
X77939035Y-99527438D01*
X77978459Y-99329240D01*
X77920607Y-99038401D01*
X77892580Y-98996455D01*
X77887475Y-98938106D01*
X77822857Y-98707544D01*
X77665477Y-98504363D01*
X77441448Y-98378419D01*
X77186071Y-98349558D01*
X75492540Y-98497723D01*
X75261978Y-98562341D01*
X75058797Y-98719721D01*
X74979600Y-98860596D01*
X74979600Y-98574161D01*
X75027256Y-97811665D01*
X75175120Y-96776617D01*
X75273184Y-96139202D01*
X75369761Y-95680458D01*
X75410297Y-95859447D01*
X75560110Y-96068270D01*
X75779363Y-96202355D01*
X77376841Y-96783790D01*
X77613111Y-96822665D01*
X77863767Y-96765899D01*
X78072589Y-96616086D01*
X78206674Y-96396832D01*
X78890714Y-94517447D01*
X78929589Y-94281178D01*
X78872823Y-94030523D01*
X78723010Y-93821700D01*
X78530088Y-93703718D01*
X78663512Y-93570527D01*
X78806158Y-93226999D01*
X78806325Y-93035123D01*
X78981191Y-93063895D01*
X79231847Y-93007129D01*
X79440669Y-92857316D01*
X79574754Y-92638062D01*
X79826566Y-91946215D01*
X80432285Y-91946215D01*
X80552923Y-92238183D01*
X80815713Y-92501432D01*
X81159241Y-92644078D01*
X81531207Y-92644402D01*
X81874983Y-92502357D01*
X82138232Y-92239567D01*
X82280878Y-91896039D01*
X82281202Y-91524073D01*
X82139157Y-91180297D01*
X81876367Y-90917048D01*
X81532839Y-90774402D01*
X81485963Y-90774361D01*
X81360416Y-90648814D01*
X81113854Y-90484067D01*
X80823015Y-90426215D01*
X80275884Y-90426215D01*
X80240903Y-90271753D01*
X80091090Y-90062930D01*
X79871837Y-89928845D01*
X78274359Y-89347410D01*
X78038089Y-89308535D01*
X77787433Y-89365301D01*
X77578611Y-89515114D01*
X77444526Y-89734368D01*
X76760486Y-91613753D01*
X76721611Y-91850022D01*
X76778377Y-92100677D01*
X76928190Y-92309500D01*
X77146258Y-92442860D01*
X77079128Y-92509873D01*
X76936482Y-92853401D01*
X76936410Y-92935663D01*
X76785729Y-93086345D01*
X76670009Y-93067305D01*
X76419353Y-93124071D01*
X76210531Y-93273884D01*
X76076446Y-93493138D01*
X75484373Y-95119845D01*
X75525013Y-94835366D01*
X75665782Y-94319213D01*
X75666668Y-94306561D01*
X75671926Y-94295018D01*
X75867749Y-93462769D01*
X76162365Y-92578922D01*
X76164324Y-92563383D01*
X76171482Y-92549452D01*
X76261707Y-92233664D01*
X76499785Y-91662277D01*
X76503461Y-91643997D01*
X76513037Y-91627999D01*
X76752618Y-90957171D01*
X76987443Y-90487522D01*
X77038243Y-90385922D01*
X77043829Y-90365524D01*
X77055793Y-90348083D01*
X77208193Y-89992483D01*
X77208949Y-89988910D01*
X77210985Y-89985877D01*
X77446761Y-89420014D01*
X77778483Y-88851349D01*
X77780951Y-88844184D01*
X77785852Y-88838406D01*
X78037757Y-88384977D01*
X78438296Y-87684032D01*
X78727324Y-87202318D01*
X78917221Y-86928023D01*
X79263976Y-86928023D01*
X79324654Y-87177761D01*
X79477713Y-87384216D01*
X80741059Y-88521738D01*
X80945561Y-88646290D01*
X81199230Y-88687555D01*
X81448968Y-88626877D01*
X81655423Y-88473818D01*
X82993685Y-86987528D01*
X83118237Y-86783026D01*
X83159502Y-86529357D01*
X83098824Y-86279619D01*
X82945765Y-86073164D01*
X82918562Y-86048670D01*
X83128832Y-85838767D01*
X83271478Y-85495239D01*
X83271546Y-85417667D01*
X83417581Y-85549158D01*
X83622083Y-85673710D01*
X83813327Y-85704820D01*
X83856639Y-85769641D01*
X84297118Y-86210120D01*
X84297078Y-86255607D01*
X84439123Y-86599383D01*
X84701913Y-86862632D01*
X85045441Y-87005278D01*
X85417407Y-87005602D01*
X85761183Y-86863557D01*
X86024432Y-86600767D01*
X86167078Y-86257239D01*
X86167402Y-85885273D01*
X86025357Y-85541497D01*
X85762567Y-85278248D01*
X85419039Y-85135602D01*
X85372163Y-85135561D01*
X85154040Y-84917438D01*
X85154040Y-84588209D01*
X85670207Y-84014948D01*
X85794759Y-83810446D01*
X85832619Y-83577703D01*
X112549565Y-83577703D01*
X112574895Y-83833455D01*
X112697732Y-84059202D01*
X113983307Y-85591291D01*
X114168485Y-85743093D01*
X114413942Y-85819260D01*
X114669694Y-85793930D01*
X114872188Y-85683746D01*
X114990243Y-85969463D01*
X115253033Y-86232712D01*
X115311264Y-86256892D01*
X115196882Y-86396424D01*
X115127880Y-86618790D01*
X114953033Y-86618638D01*
X114609257Y-86760683D01*
X114346008Y-87023473D01*
X114203362Y-87367001D01*
X114203038Y-87738967D01*
X114345083Y-88082743D01*
X114607873Y-88345992D01*
X114951401Y-88488638D01*
X114998277Y-88488679D01*
X115251039Y-88741441D01*
X115497600Y-88906188D01*
X115788440Y-88964040D01*
X116321840Y-88964040D01*
X116612679Y-88906188D01*
X116754033Y-88811739D01*
X116985092Y-88883438D01*
X117240844Y-88858108D01*
X117466592Y-88735271D01*
X118768867Y-87642532D01*
X118920668Y-87457354D01*
X118996835Y-87211897D01*
X118971505Y-86956145D01*
X118848668Y-86730398D01*
X117563093Y-85198309D01*
X117377915Y-85046507D01*
X117132458Y-84970340D01*
X116876706Y-84995670D01*
X116659956Y-85113611D01*
X116576477Y-84911577D01*
X116313687Y-84648328D01*
X116180322Y-84592950D01*
X116197717Y-84578354D01*
X116349518Y-84393176D01*
X116425685Y-84147719D01*
X116400355Y-83891967D01*
X116277518Y-83666220D01*
X114991943Y-82134131D01*
X114806765Y-81982329D01*
X114561308Y-81906162D01*
X114305556Y-81931492D01*
X114079808Y-82054329D01*
X112777533Y-83147068D01*
X112625732Y-83332246D01*
X112549565Y-83577703D01*
X85832619Y-83577703D01*
X85836024Y-83556777D01*
X85775346Y-83307039D01*
X85622287Y-83100584D01*
X84358941Y-81963062D01*
X84154439Y-81838510D01*
X83900770Y-81797245D01*
X83651032Y-81857923D01*
X83444577Y-82010982D01*
X82106315Y-83497272D01*
X81981763Y-83701774D01*
X81940498Y-83955443D01*
X82001176Y-84205181D01*
X82131818Y-84381399D01*
X81807697Y-84515323D01*
X81544448Y-84778113D01*
X81520089Y-84836775D01*
X81477917Y-84811090D01*
X81224248Y-84769825D01*
X80974510Y-84830503D01*
X80768055Y-84983562D01*
X79429793Y-86469852D01*
X79305241Y-86674354D01*
X79263976Y-86928023D01*
X78917221Y-86928023D01*
X79171357Y-86560939D01*
X79171359Y-86560935D01*
X79614573Y-85920738D01*
X80005617Y-85431934D01*
X80007078Y-85429116D01*
X80009486Y-85427053D01*
X80554978Y-84732791D01*
X80947061Y-84291698D01*
X80950353Y-84286083D01*
X80955472Y-84282062D01*
X81547324Y-83591568D01*
X82080713Y-83058178D01*
X83119065Y-82069272D01*
X83857133Y-81478817D01*
X83860435Y-81474894D01*
X83864952Y-81472470D01*
X84700867Y-80784069D01*
X85308671Y-80378866D01*
X86038448Y-80378866D01*
X86098671Y-80628714D01*
X86817122Y-82169437D01*
X86956701Y-82363994D01*
X87174081Y-82501095D01*
X87427675Y-82542820D01*
X87677522Y-82482597D01*
X89490137Y-81637360D01*
X89684694Y-81497781D01*
X89821794Y-81280401D01*
X89863520Y-81026808D01*
X89803297Y-80776960D01*
X89794083Y-80757200D01*
X89796367Y-80757202D01*
X90140143Y-80615157D01*
X90389696Y-80366039D01*
X90442354Y-80478963D01*
X90581933Y-80673520D01*
X90748413Y-80778518D01*
X90733762Y-80813801D01*
X90733438Y-81185767D01*
X90875483Y-81529543D01*
X91138273Y-81792792D01*
X91481801Y-81935438D01*
X91853767Y-81935762D01*
X92197543Y-81793717D01*
X92460792Y-81530927D01*
X92603438Y-81187399D01*
X92603479Y-81140523D01*
X92932441Y-80811561D01*
X93097188Y-80565000D01*
X93155040Y-80274160D01*
X93155040Y-79918425D01*
X93309926Y-79807307D01*
X93447026Y-79589927D01*
X93488752Y-79336334D01*
X93428529Y-79086486D01*
X92710078Y-77545763D01*
X92570499Y-77351206D01*
X92353119Y-77214105D01*
X92099525Y-77172380D01*
X91849678Y-77232603D01*
X90037063Y-78077840D01*
X89842506Y-78217419D01*
X89705406Y-78434799D01*
X89663680Y-78688392D01*
X89711583Y-78887127D01*
X89426033Y-78886878D01*
X89082257Y-79028923D01*
X88997101Y-79113931D01*
X88945267Y-79041680D01*
X88727887Y-78904579D01*
X88474293Y-78862854D01*
X88224446Y-78923077D01*
X86411831Y-79768314D01*
X86217274Y-79907893D01*
X86080174Y-80125273D01*
X86038448Y-80378866D01*
X85308671Y-80378866D01*
X85433037Y-80295956D01*
X85447182Y-80281840D01*
X85465200Y-80273200D01*
X86041984Y-79840612D01*
X86616148Y-79505683D01*
X86619490Y-79502726D01*
X86623692Y-79501220D01*
X87125198Y-79200317D01*
X87465235Y-79006009D01*
X88202430Y-78612838D01*
X89041093Y-78218173D01*
X89830285Y-77872902D01*
X90475675Y-77624675D01*
X90479749Y-77622100D01*
X90484487Y-77621218D01*
X90728041Y-77523797D01*
X91260920Y-77330023D01*
X92056735Y-77081331D01*
X92235260Y-77026400D01*
X95107760Y-77026400D01*
X95107760Y-78726400D01*
X95152038Y-78961717D01*
X95291110Y-79177841D01*
X95503310Y-79322831D01*
X95755200Y-79373840D01*
X97755200Y-79373840D01*
X97990517Y-79329562D01*
X98206641Y-79190490D01*
X98351631Y-78978290D01*
X98389300Y-78792274D01*
X98532841Y-78851878D01*
X98904807Y-78852202D01*
X99115083Y-78765318D01*
X99152038Y-78961717D01*
X99291110Y-79177841D01*
X99503310Y-79322831D01*
X99755200Y-79373840D01*
X99953858Y-79373840D01*
X99953638Y-79626207D01*
X100095683Y-79969983D01*
X100358473Y-80233232D01*
X100702001Y-80375878D01*
X101073967Y-80376202D01*
X101417743Y-80234157D01*
X101680992Y-79971367D01*
X101823638Y-79627839D01*
X101823871Y-79360919D01*
X101990517Y-79329562D01*
X102143455Y-79231149D01*
X104470909Y-79231149D01*
X104510052Y-79485154D01*
X104644933Y-79703918D01*
X104854300Y-79852970D01*
X106681391Y-80666443D01*
X106914372Y-80721705D01*
X107168377Y-80682562D01*
X107387141Y-80547681D01*
X107530100Y-80346874D01*
X107563283Y-80427183D01*
X107826073Y-80690432D01*
X108134484Y-80818496D01*
X108125091Y-80858095D01*
X108150053Y-81020075D01*
X107903657Y-81121883D01*
X107640408Y-81384673D01*
X107497762Y-81728201D01*
X107497438Y-82100167D01*
X107639483Y-82443943D01*
X107902273Y-82707192D01*
X108245801Y-82849838D01*
X108617767Y-82850162D01*
X108961543Y-82708117D01*
X109224792Y-82445327D01*
X109367438Y-82101799D01*
X109367479Y-82054923D01*
X109500715Y-81921687D01*
X110335573Y-82293389D01*
X110568554Y-82348651D01*
X110822559Y-82309508D01*
X111041323Y-82174627D01*
X111190376Y-81965261D01*
X111881829Y-80412234D01*
X111937091Y-80179251D01*
X111897948Y-79925246D01*
X111763067Y-79706482D01*
X111553700Y-79557430D01*
X109726609Y-78743957D01*
X109493628Y-78688695D01*
X109239623Y-78727838D01*
X109020859Y-78862719D01*
X108871806Y-79072085D01*
X108861372Y-79095520D01*
X108543199Y-78963402D01*
X108460937Y-78963330D01*
X108238239Y-78740633D01*
X108282909Y-78552305D01*
X108243766Y-78298300D01*
X108108885Y-78079536D01*
X107899518Y-77930484D01*
X106072427Y-77117011D01*
X105839446Y-77061749D01*
X105585441Y-77100892D01*
X105366677Y-77235773D01*
X105217624Y-77445139D01*
X104526171Y-78998166D01*
X104470909Y-79231149D01*
X102143455Y-79231149D01*
X102206641Y-79190490D01*
X102351631Y-78978290D01*
X102402640Y-78726400D01*
X102402640Y-77026400D01*
X102358362Y-76791083D01*
X102219290Y-76574959D01*
X102007090Y-76429969D01*
X101755200Y-76378960D01*
X99755200Y-76378960D01*
X99519883Y-76423238D01*
X99303759Y-76562310D01*
X99158769Y-76774510D01*
X99107760Y-77026400D01*
X99107760Y-77065798D01*
X98906439Y-76982202D01*
X98534473Y-76981878D01*
X98402640Y-77036350D01*
X98402640Y-77026400D01*
X98358362Y-76791083D01*
X98219290Y-76574959D01*
X98007090Y-76429969D01*
X97755200Y-76378960D01*
X95755200Y-76378960D01*
X95519883Y-76423238D01*
X95303759Y-76562310D01*
X95158769Y-76774510D01*
X95107760Y-77026400D01*
X92235260Y-77026400D01*
X92697440Y-76884191D01*
X93272212Y-76740498D01*
X93763637Y-76642213D01*
X93763643Y-76642213D01*
X94019472Y-76535930D01*
X94215156Y-76339837D01*
X94320902Y-76083786D01*
X94320613Y-75806757D01*
X94214330Y-75550928D01*
X94018237Y-75355244D01*
X93882232Y-75264574D01*
X93735168Y-75154276D01*
X93426250Y-74845358D01*
X93332845Y-74689683D01*
X93205850Y-74435692D01*
X93133115Y-74253854D01*
X93098099Y-74113792D01*
X93064400Y-73945298D01*
X93064400Y-71952302D01*
X93101412Y-71767243D01*
X93101433Y-71747260D01*
X93108064Y-71728409D01*
X93146828Y-71457063D01*
X93177743Y-71379776D01*
X93290649Y-71238643D01*
X93416334Y-71112958D01*
X93601128Y-70989762D01*
X93786487Y-70915619D01*
X93786516Y-70915600D01*
X95467396Y-70915600D01*
X95585800Y-70945201D01*
X95614447Y-70946595D01*
X95641277Y-70956740D01*
X95840770Y-70989989D01*
X95846878Y-70993043D01*
X95895806Y-71006442D01*
X95939878Y-71031565D01*
X96244678Y-71133165D01*
X96260217Y-71135124D01*
X96274148Y-71142282D01*
X96614916Y-71239644D01*
X96704808Y-71269608D01*
X96862879Y-71348644D01*
X96911808Y-71362043D01*
X96955878Y-71387165D01*
X97108277Y-71437964D01*
X97108278Y-71437965D01*
X97260679Y-71488765D01*
X97373582Y-71502998D01*
X97485200Y-71525200D01*
X97510223Y-71520223D01*
X97535531Y-71523413D01*
X97645293Y-71493355D01*
X97756905Y-71471154D01*
X97778114Y-71456983D01*
X97802722Y-71450244D01*
X97892628Y-71380467D01*
X97987246Y-71317246D01*
X98001420Y-71296033D01*
X98021572Y-71280393D01*
X98077930Y-71181527D01*
X98141154Y-71086905D01*
X98146131Y-71061886D01*
X98158765Y-71039722D01*
X98172999Y-70926811D01*
X98195200Y-70815200D01*
X98195200Y-70510057D01*
X98238864Y-70204409D01*
X98282805Y-69896821D01*
X98371082Y-69587852D01*
X98372066Y-69575870D01*
X98377201Y-69565000D01*
X98475930Y-69170084D01*
X98570044Y-68840685D01*
X98650809Y-68598391D01*
X98729844Y-68440321D01*
X98735430Y-68419923D01*
X98747393Y-68402483D01*
X98891576Y-68066056D01*
X99129342Y-67590524D01*
X99352299Y-67189201D01*
X99597724Y-66861968D01*
X100020331Y-66439360D01*
X100257955Y-66280944D01*
X100626895Y-66050357D01*
X100650008Y-66038800D01*
X101657467Y-66038800D01*
X101783874Y-66092975D01*
X101783874Y-66092975D01*
G37*
X101783874Y-66092975D02*
X102005283Y-66277482D01*
X102274680Y-66508394D01*
X102467701Y-66817227D01*
X102587512Y-67016912D01*
X102754502Y-67434388D01*
X102896218Y-67954013D01*
X102898161Y-67957910D01*
X102898518Y-67962252D01*
X102990508Y-68284217D01*
X103074400Y-68745622D01*
X103074400Y-68986400D01*
X103079402Y-69011545D01*
X103076204Y-69036985D01*
X103125200Y-69722929D01*
X103125200Y-70533928D01*
X103076491Y-71167145D01*
X103079783Y-71194540D01*
X103074400Y-71221600D01*
X103074400Y-71421303D01*
X102988561Y-71979256D01*
X102851045Y-72437643D01*
X102661111Y-73054929D01*
X102475194Y-73473242D01*
X102294113Y-73880675D01*
X101898395Y-74496235D01*
X101430243Y-75011202D01*
X101387309Y-75082590D01*
X101333663Y-75146319D01*
X101316587Y-75200181D01*
X101287465Y-75248603D01*
X101275117Y-75330988D01*
X101249943Y-75410394D01*
X101254779Y-75466688D01*
X101246403Y-75522571D01*
X101266524Y-75603412D01*
X101273653Y-75686405D01*
X101299665Y-75736566D01*
X101313312Y-75791398D01*
X101362833Y-75858380D01*
X101401183Y-75932334D01*
X101444412Y-75968723D01*
X101478002Y-76014157D01*
X101549390Y-76057091D01*
X101613119Y-76110737D01*
X101666981Y-76127813D01*
X101715403Y-76156935D01*
X101797788Y-76169283D01*
X101877194Y-76194457D01*
X102309956Y-76242542D01*
X102844591Y-76339748D01*
X102846467Y-76339717D01*
X102848212Y-76340396D01*
X103707079Y-76491961D01*
X104743893Y-76689449D01*
X105466558Y-76882160D01*
X106265025Y-77131681D01*
X107058879Y-77379760D01*
X107845903Y-77674894D01*
X108573288Y-77965848D01*
X109156479Y-78257444D01*
X109170665Y-78261329D01*
X109182641Y-78269864D01*
X110167438Y-78713023D01*
X110489492Y-78897053D01*
X112187421Y-79895835D01*
X113867317Y-81081644D01*
X115641930Y-82560488D01*
X117370779Y-84388129D01*
X118355428Y-85618940D01*
X119196838Y-86806813D01*
X119888245Y-87893310D01*
X120327499Y-88674205D01*
X120726157Y-89471522D01*
X121021624Y-90062456D01*
X121465338Y-91097788D01*
X121957190Y-92376604D01*
X122253318Y-93413052D01*
X122255491Y-93417282D01*
X122255943Y-93422017D01*
X122401746Y-93908026D01*
X122464626Y-94180510D01*
X122195954Y-93442338D01*
X122073863Y-93236356D01*
X121869259Y-93080831D01*
X121620267Y-93017162D01*
X121483438Y-93037738D01*
X121483562Y-92895673D01*
X121341517Y-92551897D01*
X121161224Y-92371289D01*
X121330938Y-92270694D01*
X121486463Y-92066090D01*
X121550132Y-91817098D01*
X121511914Y-91562953D01*
X120827874Y-89683568D01*
X120705783Y-89477586D01*
X120501179Y-89322061D01*
X120252187Y-89258392D01*
X119998041Y-89296610D01*
X118400563Y-89878045D01*
X118194582Y-90000136D01*
X118039057Y-90204740D01*
X117975388Y-90453732D01*
X118013606Y-90707877D01*
X118697646Y-92587262D01*
X118819737Y-92793244D01*
X119024341Y-92948769D01*
X119273333Y-93012438D01*
X119418693Y-92990579D01*
X119613308Y-93185195D01*
X119613238Y-93266007D01*
X119755283Y-93609783D01*
X119778637Y-93633178D01*
X119768643Y-93636815D01*
X119562662Y-93758906D01*
X119407137Y-93963510D01*
X119363494Y-94134185D01*
X119059587Y-94134185D01*
X118968922Y-94043520D01*
X118968962Y-93998033D01*
X118826917Y-93654257D01*
X118564127Y-93391008D01*
X118220599Y-93248362D01*
X117848633Y-93248038D01*
X117504857Y-93390083D01*
X117241608Y-93652873D01*
X117098962Y-93996401D01*
X117098638Y-94368367D01*
X117240683Y-94712143D01*
X117503473Y-94975392D01*
X117847001Y-95118038D01*
X117893877Y-95118079D01*
X118207384Y-95431586D01*
X118453946Y-95596333D01*
X118744785Y-95654185D01*
X119813914Y-95654185D01*
X120065726Y-96346032D01*
X120187817Y-96552014D01*
X120392421Y-96707539D01*
X120641413Y-96771208D01*
X120895559Y-96732990D01*
X122493037Y-96151555D01*
X122699018Y-96029464D01*
X122825290Y-95863344D01*
X122846404Y-95982988D01*
X122847083Y-95984733D01*
X122847052Y-95986609D01*
X122946243Y-96532160D01*
X123045936Y-97230009D01*
X123142917Y-97908876D01*
X123182371Y-98697954D01*
X123174302Y-98682624D01*
X122975546Y-98519691D01*
X122729060Y-98446923D01*
X121035529Y-98298758D01*
X120797249Y-98322358D01*
X120569826Y-98442064D01*
X120406893Y-98640820D01*
X120334125Y-98887306D01*
X120159814Y-100879695D01*
X120183414Y-101117975D01*
X120303120Y-101345398D01*
X120501876Y-101508331D01*
X120748362Y-101581099D01*
X120901231Y-101594473D01*
X120797202Y-101845001D01*
X120796878Y-102216967D01*
X120829540Y-102296015D01*
X120686907Y-102283536D01*
X120448627Y-102307136D01*
X120221204Y-102426842D01*
X120058271Y-102625598D01*
X119985503Y-102872084D01*
X119953430Y-103238675D01*
X119859527Y-103144608D01*
X119515999Y-103001962D01*
X119144033Y-103001638D01*
X118800257Y-103143683D01*
X118537008Y-103406473D01*
X118394362Y-103750001D01*
X118394038Y-104121967D01*
X118536083Y-104465743D01*
X118798873Y-104728992D01*
X119142401Y-104871638D01*
X119514367Y-104871962D01*
X119788267Y-104758789D01*
X119820438Y-104758789D01*
X119811192Y-104864473D01*
X119834792Y-105102753D01*
X119954498Y-105330176D01*
X120153254Y-105493109D01*
X120399740Y-105565877D01*
X122093271Y-105714042D01*
X122331551Y-105690442D01*
X122558974Y-105570736D01*
X122625661Y-105489387D01*
X122499884Y-106055382D01*
X122253495Y-106991663D01*
X122008172Y-107776696D01*
X121708163Y-108626721D01*
X121464549Y-109308840D01*
X121222840Y-109840600D01*
X121221048Y-109848242D01*
X121216607Y-109854717D01*
X120920024Y-110546744D01*
X120527763Y-111331266D01*
X120193111Y-111952762D01*
X120110044Y-112077363D01*
X120083490Y-112141659D01*
X120044846Y-112199495D01*
X120031132Y-112268438D01*
X120004298Y-112333414D01*
X120004371Y-112402977D01*
X119990800Y-112471200D01*
X119990800Y-113965674D01*
X119945154Y-114513431D01*
X119802743Y-115320423D01*
X119612213Y-116082544D01*
X119468435Y-116513878D01*
X119279023Y-117082113D01*
X118808461Y-118070293D01*
X118476200Y-118592418D01*
X118139162Y-119122049D01*
X117264531Y-120239633D01*
X116647674Y-120903942D01*
X115763476Y-121689895D01*
X115083548Y-122272691D01*
X114606477Y-122606641D01*
X113814270Y-123151283D01*
X113071108Y-123597180D01*
X112586488Y-123887952D01*
X112102878Y-124129757D01*
X112090506Y-124139359D01*
X112075594Y-124144148D01*
X111640267Y-124385996D01*
X110908743Y-124727374D01*
X110290591Y-124997815D01*
X116324763Y-118963644D01*
X116484091Y-118725192D01*
X116506855Y-118610750D01*
X116540040Y-118443920D01*
X116540040Y-99835640D01*
X116807530Y-99835640D01*
X116667162Y-100173681D01*
X116666838Y-100545647D01*
X116808883Y-100889423D01*
X117071673Y-101152672D01*
X117415201Y-101295318D01*
X117787167Y-101295642D01*
X118130943Y-101153597D01*
X118394192Y-100890807D01*
X118536838Y-100547279D01*
X118537162Y-100175313D01*
X118448760Y-99961363D01*
X118448760Y-99527360D01*
X118392811Y-99246088D01*
X118377283Y-99222848D01*
X118233483Y-99007636D01*
X117806763Y-98580917D01*
X117568312Y-98421589D01*
X117287040Y-98365640D01*
X116690040Y-98365640D01*
X116690040Y-91725845D01*
X116690041Y-91725840D01*
X116622673Y-91387166D01*
X116622673Y-91387165D01*
X116430830Y-91100050D01*
X116430827Y-91100048D01*
X113290030Y-87959250D01*
X113215696Y-87909582D01*
X113002915Y-87767407D01*
X112913560Y-87749633D01*
X112664240Y-87700039D01*
X112664235Y-87700040D01*
X105211885Y-87700040D01*
X105211880Y-87700039D01*
X104962560Y-87749633D01*
X104873205Y-87767407D01*
X104586090Y-87959250D01*
X104586088Y-87959253D01*
X100416900Y-92128440D01*
X100416900Y-91848782D01*
X102135920Y-90129762D01*
X102181407Y-90129802D01*
X102525183Y-89987757D01*
X102788432Y-89724967D01*
X102931078Y-89381439D01*
X102931402Y-89009473D01*
X102789357Y-88665697D01*
X102526567Y-88402448D01*
X102183039Y-88259802D01*
X101811073Y-88259478D01*
X101734576Y-88291086D01*
X101788078Y-88162239D01*
X101788402Y-87790273D01*
X101646357Y-87446497D01*
X101383567Y-87183248D01*
X101040039Y-87040602D01*
X100668073Y-87040278D01*
X100484001Y-87116335D01*
X100492678Y-87095439D01*
X100493002Y-86723473D01*
X100350957Y-86379697D01*
X100088167Y-86116448D01*
X99744639Y-85973802D01*
X99372673Y-85973478D01*
X99028897Y-86115523D01*
X98765648Y-86378313D01*
X98623002Y-86721841D01*
X98622961Y-86768717D01*
X96606900Y-88784778D01*
X96606900Y-87962582D01*
X98325920Y-86243562D01*
X98371407Y-86243602D01*
X98715183Y-86101557D01*
X98978432Y-85838767D01*
X99121078Y-85495239D01*
X99121402Y-85123273D01*
X98979357Y-84779497D01*
X98716567Y-84516248D01*
X98373039Y-84373602D01*
X98001073Y-84373278D01*
X97657297Y-84515323D01*
X97394048Y-84778113D01*
X97251402Y-85121641D01*
X97251361Y-85168517D01*
X95309499Y-87110379D01*
X95144752Y-87356941D01*
X95086900Y-87647780D01*
X95086900Y-88180258D01*
X92415762Y-85509120D01*
X92415802Y-85463633D01*
X92273757Y-85119857D01*
X92010967Y-84856608D01*
X91667439Y-84713962D01*
X91295473Y-84713638D01*
X90951697Y-84855683D01*
X90688448Y-85118473D01*
X90545802Y-85462001D01*
X90545478Y-85833967D01*
X90687523Y-86177743D01*
X90950313Y-86440992D01*
X91293841Y-86583638D01*
X91340717Y-86583679D01*
X93816900Y-89059862D01*
X93816900Y-90532298D01*
X91079722Y-87795120D01*
X91079762Y-87749633D01*
X90937717Y-87405857D01*
X90674927Y-87142608D01*
X90331399Y-86999962D01*
X89959433Y-86999638D01*
X89615657Y-87141683D01*
X89352408Y-87404473D01*
X89209762Y-87748001D01*
X89209438Y-88119967D01*
X89351483Y-88463743D01*
X89614273Y-88726992D01*
X89957801Y-88869638D01*
X90004677Y-88869679D01*
X92546900Y-91411902D01*
X92546900Y-92005498D01*
X90165322Y-89623920D01*
X90165362Y-89578433D01*
X90023317Y-89234657D01*
X89760527Y-88971408D01*
X89416999Y-88828762D01*
X89045033Y-88828438D01*
X88701257Y-88970483D01*
X88438008Y-89233273D01*
X88295362Y-89576801D01*
X88295038Y-89948767D01*
X88437083Y-90292543D01*
X88699873Y-90555792D01*
X89043401Y-90698438D01*
X89090277Y-90698479D01*
X91276900Y-92885102D01*
X91276900Y-93707298D01*
X88793722Y-91224120D01*
X88793762Y-91178633D01*
X88651717Y-90834857D01*
X88388927Y-90571608D01*
X88045399Y-90428962D01*
X87673433Y-90428638D01*
X87329657Y-90570683D01*
X87066408Y-90833473D01*
X86923762Y-91177001D01*
X86923438Y-91548967D01*
X87065483Y-91892743D01*
X87328273Y-92155992D01*
X87671801Y-92298638D01*
X87718677Y-92298679D01*
X90006900Y-94586902D01*
X90006900Y-95068960D01*
X89916469Y-95201310D01*
X89865460Y-95453200D01*
X89865460Y-96596200D01*
X89909738Y-96831517D01*
X90048810Y-97047641D01*
X90261010Y-97192631D01*
X90512900Y-97243640D01*
X91020900Y-97243640D01*
X91256217Y-97199362D01*
X91402807Y-97105034D01*
X91531010Y-97192631D01*
X91782900Y-97243640D01*
X92290900Y-97243640D01*
X92526217Y-97199362D01*
X92672807Y-97105034D01*
X92801010Y-97192631D01*
X93052900Y-97243640D01*
X93560900Y-97243640D01*
X93796217Y-97199362D01*
X93942807Y-97105034D01*
X94071010Y-97192631D01*
X94322900Y-97243640D01*
X94830900Y-97243640D01*
X95066217Y-97199362D01*
X95212807Y-97105034D01*
X95341010Y-97192631D01*
X95592900Y-97243640D01*
X96100900Y-97243640D01*
X96336217Y-97199362D01*
X96482807Y-97105034D01*
X96611010Y-97192631D01*
X96862900Y-97243640D01*
X97370900Y-97243640D01*
X97606217Y-97199362D01*
X97752807Y-97105034D01*
X97881010Y-97192631D01*
X98132900Y-97243640D01*
X98640900Y-97243640D01*
X98876217Y-97199362D01*
X99022807Y-97105034D01*
X99151010Y-97192631D01*
X99402900Y-97243640D01*
X99910900Y-97243640D01*
X100146217Y-97199362D01*
X100292807Y-97105034D01*
X100421010Y-97192631D01*
X100672900Y-97243640D01*
X101180900Y-97243640D01*
X101416217Y-97199362D01*
X101557271Y-97108596D01*
X101583202Y-97134527D01*
X101816591Y-97231200D01*
X101911150Y-97231200D01*
X102069900Y-97072450D01*
X102069900Y-96151700D01*
X102049900Y-96151700D01*
X102049900Y-95897700D01*
X102069900Y-95897700D01*
X102069900Y-94976950D01*
X102323900Y-94976950D01*
X102323900Y-95897700D01*
X102343900Y-95897700D01*
X102343900Y-96151700D01*
X102323900Y-96151700D01*
X102323900Y-97072450D01*
X102482650Y-97231200D01*
X102577209Y-97231200D01*
X102810598Y-97134527D01*
X102837135Y-97107991D01*
X102961010Y-97192631D01*
X103212900Y-97243640D01*
X103720900Y-97243640D01*
X103956217Y-97199362D01*
X104102807Y-97105034D01*
X104231010Y-97192631D01*
X104482900Y-97243640D01*
X104990900Y-97243640D01*
X105226217Y-97199362D01*
X105372807Y-97105034D01*
X105501010Y-97192631D01*
X105752900Y-97243640D01*
X106260900Y-97243640D01*
X106496217Y-97199362D01*
X106642807Y-97105034D01*
X106771010Y-97192631D01*
X107022900Y-97243640D01*
X107530900Y-97243640D01*
X107766217Y-97199362D01*
X107982341Y-97060290D01*
X108127331Y-96848090D01*
X108178340Y-96596200D01*
X108178340Y-95453200D01*
X108134062Y-95217883D01*
X107994990Y-95001759D01*
X107782790Y-94856769D01*
X107530900Y-94805760D01*
X107022900Y-94805760D01*
X106787583Y-94850038D01*
X106766900Y-94863347D01*
X106766900Y-93804582D01*
X107698520Y-92872962D01*
X107744007Y-92873002D01*
X108087783Y-92730957D01*
X108351032Y-92468167D01*
X108493678Y-92124639D01*
X108494002Y-91752673D01*
X108351957Y-91408897D01*
X108089167Y-91145648D01*
X107745639Y-91003002D01*
X107655526Y-91002924D01*
X107655802Y-90685873D01*
X107513757Y-90342097D01*
X107250967Y-90078848D01*
X106907439Y-89936202D01*
X106535473Y-89935878D01*
X106191697Y-90077923D01*
X105928448Y-90340713D01*
X105785802Y-90684241D01*
X105785761Y-90731117D01*
X104199499Y-92317379D01*
X104034752Y-92563941D01*
X103976900Y-92854780D01*
X103976900Y-94859577D01*
X103972790Y-94856769D01*
X103720900Y-94805760D01*
X103212900Y-94805760D01*
X102977583Y-94850038D01*
X102836529Y-94940804D01*
X102810598Y-94914873D01*
X102577209Y-94818200D01*
X102482650Y-94818200D01*
X102323900Y-94976950D01*
X102069900Y-94976950D01*
X101911150Y-94818200D01*
X101816591Y-94818200D01*
X101686900Y-94871920D01*
X101686900Y-94458269D01*
X101744533Y-94372015D01*
X101811900Y-94033340D01*
X101811900Y-93236600D01*
X105578459Y-89470040D01*
X112297660Y-89470040D01*
X114920040Y-92092419D01*
X114920040Y-98286390D01*
X114832040Y-98374390D01*
X114832040Y-98975640D01*
X114852040Y-98975640D01*
X114852040Y-99225640D01*
X114832040Y-99225640D01*
X114832040Y-99826890D01*
X114990790Y-99985640D01*
X115070040Y-99985640D01*
X115070040Y-118139473D01*
X108438034Y-124771480D01*
X98429727Y-124771480D01*
X97993202Y-124334955D01*
X97993202Y-124282220D01*
X98223092Y-124402886D01*
X98747558Y-124156583D01*
X99137845Y-123728324D01*
X99137855Y-123728299D01*
X99327053Y-124011454D01*
X99808822Y-124333361D01*
X100377107Y-124446400D01*
X100435293Y-124446400D01*
X101003578Y-124333361D01*
X101485347Y-124011454D01*
X101679154Y-123721400D01*
X107650280Y-123721400D01*
X107941119Y-123663548D01*
X108187681Y-123498801D01*
X113389601Y-118296881D01*
X113554348Y-118050319D01*
X113612200Y-117759480D01*
X113612200Y-99384390D01*
X113770040Y-99384390D01*
X113770040Y-99476950D01*
X113866713Y-99710339D01*
X114045342Y-99888967D01*
X114278731Y-99985640D01*
X114419290Y-99985640D01*
X114578040Y-99826890D01*
X114578040Y-99225640D01*
X113928790Y-99225640D01*
X113770040Y-99384390D01*
X113612200Y-99384390D01*
X113612200Y-98724330D01*
X113770040Y-98724330D01*
X113770040Y-98816890D01*
X113928790Y-98975640D01*
X114578040Y-98975640D01*
X114578040Y-98374390D01*
X114419290Y-98215640D01*
X114278731Y-98215640D01*
X114045342Y-98312313D01*
X113866713Y-98490941D01*
X113770040Y-98724330D01*
X113612200Y-98724330D01*
X113612200Y-96996032D01*
X113685032Y-96923327D01*
X113827678Y-96579799D01*
X113828002Y-96207833D01*
X113685957Y-95864057D01*
X113423167Y-95600808D01*
X113079639Y-95458162D01*
X112707673Y-95457838D01*
X112644298Y-95484024D01*
X112644362Y-95410273D01*
X112502317Y-95066497D01*
X112239527Y-94803248D01*
X111895999Y-94660602D01*
X111524033Y-94660278D01*
X111180257Y-94802323D01*
X110917008Y-95065113D01*
X110774362Y-95408641D01*
X110774038Y-95780607D01*
X110916083Y-96124383D01*
X110923800Y-96132113D01*
X110923800Y-102661552D01*
X110906832Y-102661537D01*
X110907002Y-102466393D01*
X110764957Y-102122617D01*
X110502167Y-101859368D01*
X110158639Y-101716722D01*
X109786673Y-101716398D01*
X109442897Y-101858443D01*
X109179648Y-102121233D01*
X109037002Y-102464761D01*
X109036930Y-102547023D01*
X108163702Y-103420252D01*
X108007150Y-103263700D01*
X107403900Y-103263700D01*
X107403900Y-103283700D01*
X107149900Y-103283700D01*
X107149900Y-103263700D01*
X106133900Y-103263700D01*
X106133900Y-103283700D01*
X105879900Y-103283700D01*
X105879900Y-103263700D01*
X104863900Y-103263700D01*
X104863900Y-103283700D01*
X104609900Y-103283700D01*
X104609900Y-103263700D01*
X104589900Y-103263700D01*
X104589900Y-103009700D01*
X104609900Y-103009700D01*
X104609900Y-102088950D01*
X104863900Y-102088950D01*
X104863900Y-103009700D01*
X105879900Y-103009700D01*
X105879900Y-102088950D01*
X106133900Y-102088950D01*
X106133900Y-103009700D01*
X107149900Y-103009700D01*
X107149900Y-102088950D01*
X107403900Y-102088950D01*
X107403900Y-103009700D01*
X108007150Y-103009700D01*
X108165900Y-102850950D01*
X108165900Y-102438890D01*
X108069227Y-102205501D01*
X107890598Y-102026873D01*
X107657209Y-101930200D01*
X107562650Y-101930200D01*
X107403900Y-102088950D01*
X107149900Y-102088950D01*
X106991150Y-101930200D01*
X106896591Y-101930200D01*
X106663202Y-102026873D01*
X106641900Y-102048175D01*
X106620598Y-102026873D01*
X106387209Y-101930200D01*
X106292650Y-101930200D01*
X106133900Y-102088950D01*
X105879900Y-102088950D01*
X105721150Y-101930200D01*
X105626591Y-101930200D01*
X105393202Y-102026873D01*
X105371900Y-102048175D01*
X105350598Y-102026873D01*
X105117209Y-101930200D01*
X105022650Y-101930200D01*
X104863900Y-102088950D01*
X104609900Y-102088950D01*
X104451150Y-101930200D01*
X104356591Y-101930200D01*
X104123202Y-102026873D01*
X104096665Y-102053409D01*
X103972790Y-101968769D01*
X103720900Y-101917760D01*
X103212900Y-101917760D01*
X102977583Y-101962038D01*
X102830993Y-102056366D01*
X102702790Y-101968769D01*
X102450900Y-101917760D01*
X101942900Y-101917760D01*
X101707583Y-101962038D01*
X101560993Y-102056366D01*
X101432790Y-101968769D01*
X101180900Y-101917760D01*
X100672900Y-101917760D01*
X100437583Y-101962038D01*
X100290993Y-102056366D01*
X100162790Y-101968769D01*
X99910900Y-101917760D01*
X99402900Y-101917760D01*
X99167583Y-101962038D01*
X99020993Y-102056366D01*
X98892790Y-101968769D01*
X98640900Y-101917760D01*
X98132900Y-101917760D01*
X97897583Y-101962038D01*
X97750993Y-102056366D01*
X97622790Y-101968769D01*
X97370900Y-101917760D01*
X96862900Y-101917760D01*
X96627583Y-101962038D01*
X96480993Y-102056366D01*
X96352790Y-101968769D01*
X96100900Y-101917760D01*
X95592900Y-101917760D01*
X95357583Y-101962038D01*
X95210993Y-102056366D01*
X95082790Y-101968769D01*
X94830900Y-101917760D01*
X94322900Y-101917760D01*
X94087583Y-101962038D01*
X93940993Y-102056366D01*
X93812790Y-101968769D01*
X93560900Y-101917760D01*
X93052900Y-101917760D01*
X92817583Y-101962038D01*
X92670993Y-102056366D01*
X92542790Y-101968769D01*
X92290900Y-101917760D01*
X91782900Y-101917760D01*
X91547583Y-101962038D01*
X91400993Y-102056366D01*
X91272790Y-101968769D01*
X91020900Y-101917760D01*
X90512900Y-101917760D01*
X90277583Y-101962038D01*
X90061459Y-102101110D01*
X89916469Y-102313310D01*
X89865460Y-102565200D01*
X89865460Y-103708200D01*
X89909738Y-103943517D01*
X90048810Y-104159641D01*
X90261010Y-104304631D01*
X90512900Y-104355640D01*
X91020900Y-104355640D01*
X91256217Y-104311362D01*
X91402807Y-104217034D01*
X91531010Y-104304631D01*
X91782900Y-104355640D01*
X92290900Y-104355640D01*
X92526217Y-104311362D01*
X92672807Y-104217034D01*
X92801010Y-104304631D01*
X93052900Y-104355640D01*
X93560900Y-104355640D01*
X93796217Y-104311362D01*
X93942807Y-104217034D01*
X94071010Y-104304631D01*
X94322900Y-104355640D01*
X94830900Y-104355640D01*
X95066217Y-104311362D01*
X95212807Y-104217034D01*
X95341010Y-104304631D01*
X95592900Y-104355640D01*
X96100900Y-104355640D01*
X96336217Y-104311362D01*
X96482807Y-104217034D01*
X96611010Y-104304631D01*
X96862900Y-104355640D01*
X97370900Y-104355640D01*
X97606217Y-104311362D01*
X97752807Y-104217034D01*
X97881010Y-104304631D01*
X98132900Y-104355640D01*
X98640900Y-104355640D01*
X98876217Y-104311362D01*
X98896900Y-104298053D01*
X98896900Y-104914700D01*
X98954752Y-105205539D01*
X99119499Y-105452101D01*
X99782439Y-106115041D01*
X100029001Y-106279788D01*
X100319840Y-106337640D01*
X108813600Y-106337640D01*
X109104439Y-106279788D01*
X109351001Y-106115041D01*
X110923800Y-104542242D01*
X110923800Y-116103558D01*
X107365958Y-119661400D01*
X101698947Y-119661400D01*
X101665856Y-119581314D01*
X101248483Y-119163212D01*
X100702881Y-118936658D01*
X100112111Y-118936143D01*
X99566114Y-119161744D01*
X99148012Y-119579117D01*
X99123545Y-119638039D01*
X98945347Y-119371346D01*
X98463578Y-119049439D01*
X97895293Y-118936400D01*
X97837107Y-118936400D01*
X97268822Y-119049439D01*
X96787053Y-119371346D01*
X96465146Y-119853115D01*
X96352107Y-120421400D01*
X96436756Y-120846958D01*
X95482117Y-121801597D01*
X95322789Y-122040048D01*
X95266840Y-122321320D01*
X95266840Y-123383040D01*
X95322637Y-123663548D01*
X95322789Y-123664312D01*
X95482117Y-123902763D01*
X97605557Y-126026204D01*
X97844008Y-126185531D01*
X98125280Y-126241480D01*
X106460907Y-126241480D01*
X105967468Y-126357583D01*
X104773445Y-126606338D01*
X103534391Y-126804587D01*
X102687653Y-126904203D01*
X101799324Y-127002906D01*
X100670170Y-127052000D01*
X97860510Y-127052000D01*
X96976858Y-127002908D01*
X95839014Y-126903965D01*
X94452923Y-126705952D01*
X93158873Y-126457096D01*
X92720720Y-126359729D01*
X91917002Y-126158800D01*
X91917001Y-126158799D01*
X91510602Y-126057200D01*
X91510601Y-126057199D01*
X91125931Y-125961032D01*
X90039352Y-125615302D01*
X89050255Y-125269118D01*
X87966566Y-124825791D01*
X87127149Y-124430771D01*
X86239739Y-123987066D01*
X85309182Y-123448321D01*
X84331308Y-122812703D01*
X83499450Y-122176576D01*
X82672215Y-121495323D01*
X82340846Y-121163954D01*
X82340843Y-121163952D01*
X81842140Y-120665248D01*
X81213782Y-119988556D01*
X80594335Y-119178510D01*
X80109826Y-118403297D01*
X79776810Y-117832412D01*
X79489234Y-117209332D01*
X79155583Y-116446701D01*
X78972388Y-115805520D01*
X78779855Y-114890989D01*
X78688000Y-114202074D01*
X78688000Y-113334800D01*
X78680004Y-113294602D01*
X78683359Y-113253753D01*
X78653197Y-113159835D01*
X78633954Y-113063095D01*
X78611185Y-113029018D01*
X78598652Y-112989994D01*
X78344652Y-112532794D01*
X78341834Y-112529471D01*
X78340452Y-112525341D01*
X77934053Y-111814141D01*
X77931934Y-111811703D01*
X77930883Y-111808651D01*
X77591076Y-111226125D01*
X77198493Y-110391887D01*
X76856585Y-109659226D01*
X76664053Y-109129762D01*
X76656234Y-109116867D01*
X76653322Y-109102068D01*
X76309588Y-108267289D01*
X76064881Y-107484225D01*
X76064362Y-107483274D01*
X76064244Y-107482197D01*
X75768772Y-106546536D01*
X75572293Y-105662379D01*
X75572293Y-105662378D01*
X75525152Y-105450246D01*
X75648923Y-105610037D01*
X75872952Y-105735981D01*
X76128329Y-105764842D01*
X77821860Y-105616677D01*
X78052422Y-105552059D01*
X78255603Y-105394679D01*
X78381547Y-105170651D01*
X78410408Y-104915273D01*
X78236097Y-102922884D01*
X78171479Y-102692322D01*
X78014099Y-102489141D01*
X77790070Y-102363197D01*
X77566511Y-102337932D01*
X77566511Y-102231511D01*
X77548827Y-102142609D01*
X77566510Y-102053711D01*
X77546531Y-101953271D01*
X77546642Y-101826313D01*
X77466554Y-101632484D01*
X77473238Y-101631899D01*
X77703800Y-101567281D01*
X77906981Y-101409901D01*
X77964020Y-101308440D01*
X78298040Y-101308440D01*
X78588879Y-101250588D01*
X78835441Y-101085841D01*
X78971120Y-100950162D01*
X79016607Y-100950202D01*
X79360383Y-100808157D01*
X79623632Y-100545367D01*
X79766278Y-100201839D01*
X79766602Y-99829873D01*
X79624557Y-99486097D01*
X79361767Y-99222848D01*
X79018239Y-99080202D01*
X78646273Y-99079878D01*
X78302497Y-99221923D01*
X78039248Y-99484713D01*
X77953387Y-99691488D01*
X77939035Y-99527438D01*
X77978459Y-99329240D01*
X77920607Y-99038401D01*
X77892580Y-98996455D01*
X77887475Y-98938106D01*
X77822857Y-98707544D01*
X77665477Y-98504363D01*
X77441448Y-98378419D01*
X77186071Y-98349558D01*
X75492540Y-98497723D01*
X75261978Y-98562341D01*
X75058797Y-98719721D01*
X74979600Y-98860596D01*
X74979600Y-98574161D01*
X75027256Y-97811665D01*
X75175120Y-96776617D01*
X75273184Y-96139202D01*
X75369761Y-95680458D01*
X75410297Y-95859447D01*
X75560110Y-96068270D01*
X75779363Y-96202355D01*
X77376841Y-96783790D01*
X77613111Y-96822665D01*
X77863767Y-96765899D01*
X78072589Y-96616086D01*
X78206674Y-96396832D01*
X78890714Y-94517447D01*
X78929589Y-94281178D01*
X78872823Y-94030523D01*
X78723010Y-93821700D01*
X78530088Y-93703718D01*
X78663512Y-93570527D01*
X78806158Y-93226999D01*
X78806325Y-93035123D01*
X78981191Y-93063895D01*
X79231847Y-93007129D01*
X79440669Y-92857316D01*
X79574754Y-92638062D01*
X79826566Y-91946215D01*
X80432285Y-91946215D01*
X80552923Y-92238183D01*
X80815713Y-92501432D01*
X81159241Y-92644078D01*
X81531207Y-92644402D01*
X81874983Y-92502357D01*
X82138232Y-92239567D01*
X82280878Y-91896039D01*
X82281202Y-91524073D01*
X82139157Y-91180297D01*
X81876367Y-90917048D01*
X81532839Y-90774402D01*
X81485963Y-90774361D01*
X81360416Y-90648814D01*
X81113854Y-90484067D01*
X80823015Y-90426215D01*
X80275884Y-90426215D01*
X80240903Y-90271753D01*
X80091090Y-90062930D01*
X79871837Y-89928845D01*
X78274359Y-89347410D01*
X78038089Y-89308535D01*
X77787433Y-89365301D01*
X77578611Y-89515114D01*
X77444526Y-89734368D01*
X76760486Y-91613753D01*
X76721611Y-91850022D01*
X76778377Y-92100677D01*
X76928190Y-92309500D01*
X77146258Y-92442860D01*
X77079128Y-92509873D01*
X76936482Y-92853401D01*
X76936410Y-92935663D01*
X76785729Y-93086345D01*
X76670009Y-93067305D01*
X76419353Y-93124071D01*
X76210531Y-93273884D01*
X76076446Y-93493138D01*
X75484373Y-95119845D01*
X75525013Y-94835366D01*
X75665782Y-94319213D01*
X75666668Y-94306561D01*
X75671926Y-94295018D01*
X75867749Y-93462769D01*
X76162365Y-92578922D01*
X76164324Y-92563383D01*
X76171482Y-92549452D01*
X76261707Y-92233664D01*
X76499785Y-91662277D01*
X76503461Y-91643997D01*
X76513037Y-91627999D01*
X76752618Y-90957171D01*
X76987443Y-90487522D01*
X77038243Y-90385922D01*
X77043829Y-90365524D01*
X77055793Y-90348083D01*
X77208193Y-89992483D01*
X77208949Y-89988910D01*
X77210985Y-89985877D01*
X77446761Y-89420014D01*
X77778483Y-88851349D01*
X77780951Y-88844184D01*
X77785852Y-88838406D01*
X78037757Y-88384977D01*
X78438296Y-87684032D01*
X78727324Y-87202318D01*
X78917221Y-86928023D01*
X79263976Y-86928023D01*
X79324654Y-87177761D01*
X79477713Y-87384216D01*
X80741059Y-88521738D01*
X80945561Y-88646290D01*
X81199230Y-88687555D01*
X81448968Y-88626877D01*
X81655423Y-88473818D01*
X82993685Y-86987528D01*
X83118237Y-86783026D01*
X83159502Y-86529357D01*
X83098824Y-86279619D01*
X82945765Y-86073164D01*
X82918562Y-86048670D01*
X83128832Y-85838767D01*
X83271478Y-85495239D01*
X83271546Y-85417667D01*
X83417581Y-85549158D01*
X83622083Y-85673710D01*
X83813327Y-85704820D01*
X83856639Y-85769641D01*
X84297118Y-86210120D01*
X84297078Y-86255607D01*
X84439123Y-86599383D01*
X84701913Y-86862632D01*
X85045441Y-87005278D01*
X85417407Y-87005602D01*
X85761183Y-86863557D01*
X86024432Y-86600767D01*
X86167078Y-86257239D01*
X86167402Y-85885273D01*
X86025357Y-85541497D01*
X85762567Y-85278248D01*
X85419039Y-85135602D01*
X85372163Y-85135561D01*
X85154040Y-84917438D01*
X85154040Y-84588209D01*
X85670207Y-84014948D01*
X85794759Y-83810446D01*
X85832619Y-83577703D01*
X112549565Y-83577703D01*
X112574895Y-83833455D01*
X112697732Y-84059202D01*
X113983307Y-85591291D01*
X114168485Y-85743093D01*
X114413942Y-85819260D01*
X114669694Y-85793930D01*
X114872188Y-85683746D01*
X114990243Y-85969463D01*
X115253033Y-86232712D01*
X115311264Y-86256892D01*
X115196882Y-86396424D01*
X115127880Y-86618790D01*
X114953033Y-86618638D01*
X114609257Y-86760683D01*
X114346008Y-87023473D01*
X114203362Y-87367001D01*
X114203038Y-87738967D01*
X114345083Y-88082743D01*
X114607873Y-88345992D01*
X114951401Y-88488638D01*
X114998277Y-88488679D01*
X115251039Y-88741441D01*
X115497600Y-88906188D01*
X115788440Y-88964040D01*
X116321840Y-88964040D01*
X116612679Y-88906188D01*
X116754033Y-88811739D01*
X116985092Y-88883438D01*
X117240844Y-88858108D01*
X117466592Y-88735271D01*
X118768867Y-87642532D01*
X118920668Y-87457354D01*
X118996835Y-87211897D01*
X118971505Y-86956145D01*
X118848668Y-86730398D01*
X117563093Y-85198309D01*
X117377915Y-85046507D01*
X117132458Y-84970340D01*
X116876706Y-84995670D01*
X116659956Y-85113611D01*
X116576477Y-84911577D01*
X116313687Y-84648328D01*
X116180322Y-84592950D01*
X116197717Y-84578354D01*
X116349518Y-84393176D01*
X116425685Y-84147719D01*
X116400355Y-83891967D01*
X116277518Y-83666220D01*
X114991943Y-82134131D01*
X114806765Y-81982329D01*
X114561308Y-81906162D01*
X114305556Y-81931492D01*
X114079808Y-82054329D01*
X112777533Y-83147068D01*
X112625732Y-83332246D01*
X112549565Y-83577703D01*
X85832619Y-83577703D01*
X85836024Y-83556777D01*
X85775346Y-83307039D01*
X85622287Y-83100584D01*
X84358941Y-81963062D01*
X84154439Y-81838510D01*
X83900770Y-81797245D01*
X83651032Y-81857923D01*
X83444577Y-82010982D01*
X82106315Y-83497272D01*
X81981763Y-83701774D01*
X81940498Y-83955443D01*
X82001176Y-84205181D01*
X82131818Y-84381399D01*
X81807697Y-84515323D01*
X81544448Y-84778113D01*
X81520089Y-84836775D01*
X81477917Y-84811090D01*
X81224248Y-84769825D01*
X80974510Y-84830503D01*
X80768055Y-84983562D01*
X79429793Y-86469852D01*
X79305241Y-86674354D01*
X79263976Y-86928023D01*
X78917221Y-86928023D01*
X79171357Y-86560939D01*
X79171359Y-86560935D01*
X79614573Y-85920738D01*
X80005617Y-85431934D01*
X80007078Y-85429116D01*
X80009486Y-85427053D01*
X80554978Y-84732791D01*
X80947061Y-84291698D01*
X80950353Y-84286083D01*
X80955472Y-84282062D01*
X81547324Y-83591568D01*
X82080713Y-83058178D01*
X83119065Y-82069272D01*
X83857133Y-81478817D01*
X83860435Y-81474894D01*
X83864952Y-81472470D01*
X84700867Y-80784069D01*
X85308671Y-80378866D01*
X86038448Y-80378866D01*
X86098671Y-80628714D01*
X86817122Y-82169437D01*
X86956701Y-82363994D01*
X87174081Y-82501095D01*
X87427675Y-82542820D01*
X87677522Y-82482597D01*
X89490137Y-81637360D01*
X89684694Y-81497781D01*
X89821794Y-81280401D01*
X89863520Y-81026808D01*
X89803297Y-80776960D01*
X89794083Y-80757200D01*
X89796367Y-80757202D01*
X90140143Y-80615157D01*
X90389696Y-80366039D01*
X90442354Y-80478963D01*
X90581933Y-80673520D01*
X90748413Y-80778518D01*
X90733762Y-80813801D01*
X90733438Y-81185767D01*
X90875483Y-81529543D01*
X91138273Y-81792792D01*
X91481801Y-81935438D01*
X91853767Y-81935762D01*
X92197543Y-81793717D01*
X92460792Y-81530927D01*
X92603438Y-81187399D01*
X92603479Y-81140523D01*
X92932441Y-80811561D01*
X93097188Y-80565000D01*
X93155040Y-80274160D01*
X93155040Y-79918425D01*
X93309926Y-79807307D01*
X93447026Y-79589927D01*
X93488752Y-79336334D01*
X93428529Y-79086486D01*
X92710078Y-77545763D01*
X92570499Y-77351206D01*
X92353119Y-77214105D01*
X92099525Y-77172380D01*
X91849678Y-77232603D01*
X90037063Y-78077840D01*
X89842506Y-78217419D01*
X89705406Y-78434799D01*
X89663680Y-78688392D01*
X89711583Y-78887127D01*
X89426033Y-78886878D01*
X89082257Y-79028923D01*
X88997101Y-79113931D01*
X88945267Y-79041680D01*
X88727887Y-78904579D01*
X88474293Y-78862854D01*
X88224446Y-78923077D01*
X86411831Y-79768314D01*
X86217274Y-79907893D01*
X86080174Y-80125273D01*
X86038448Y-80378866D01*
X85308671Y-80378866D01*
X85433037Y-80295956D01*
X85447182Y-80281840D01*
X85465200Y-80273200D01*
X86041984Y-79840612D01*
X86616148Y-79505683D01*
X86619490Y-79502726D01*
X86623692Y-79501220D01*
X87125198Y-79200317D01*
X87465235Y-79006009D01*
X88202430Y-78612838D01*
X89041093Y-78218173D01*
X89830285Y-77872902D01*
X90475675Y-77624675D01*
X90479749Y-77622100D01*
X90484487Y-77621218D01*
X90728041Y-77523797D01*
X91260920Y-77330023D01*
X92056735Y-77081331D01*
X92235260Y-77026400D01*
X95107760Y-77026400D01*
X95107760Y-78726400D01*
X95152038Y-78961717D01*
X95291110Y-79177841D01*
X95503310Y-79322831D01*
X95755200Y-79373840D01*
X97755200Y-79373840D01*
X97990517Y-79329562D01*
X98206641Y-79190490D01*
X98351631Y-78978290D01*
X98389300Y-78792274D01*
X98532841Y-78851878D01*
X98904807Y-78852202D01*
X99115083Y-78765318D01*
X99152038Y-78961717D01*
X99291110Y-79177841D01*
X99503310Y-79322831D01*
X99755200Y-79373840D01*
X99953858Y-79373840D01*
X99953638Y-79626207D01*
X100095683Y-79969983D01*
X100358473Y-80233232D01*
X100702001Y-80375878D01*
X101073967Y-80376202D01*
X101417743Y-80234157D01*
X101680992Y-79971367D01*
X101823638Y-79627839D01*
X101823871Y-79360919D01*
X101990517Y-79329562D01*
X102143455Y-79231149D01*
X104470909Y-79231149D01*
X104510052Y-79485154D01*
X104644933Y-79703918D01*
X104854300Y-79852970D01*
X106681391Y-80666443D01*
X106914372Y-80721705D01*
X107168377Y-80682562D01*
X107387141Y-80547681D01*
X107530100Y-80346874D01*
X107563283Y-80427183D01*
X107826073Y-80690432D01*
X108134484Y-80818496D01*
X108125091Y-80858095D01*
X108150053Y-81020075D01*
X107903657Y-81121883D01*
X107640408Y-81384673D01*
X107497762Y-81728201D01*
X107497438Y-82100167D01*
X107639483Y-82443943D01*
X107902273Y-82707192D01*
X108245801Y-82849838D01*
X108617767Y-82850162D01*
X108961543Y-82708117D01*
X109224792Y-82445327D01*
X109367438Y-82101799D01*
X109367479Y-82054923D01*
X109500715Y-81921687D01*
X110335573Y-82293389D01*
X110568554Y-82348651D01*
X110822559Y-82309508D01*
X111041323Y-82174627D01*
X111190376Y-81965261D01*
X111881829Y-80412234D01*
X111937091Y-80179251D01*
X111897948Y-79925246D01*
X111763067Y-79706482D01*
X111553700Y-79557430D01*
X109726609Y-78743957D01*
X109493628Y-78688695D01*
X109239623Y-78727838D01*
X109020859Y-78862719D01*
X108871806Y-79072085D01*
X108861372Y-79095520D01*
X108543199Y-78963402D01*
X108460937Y-78963330D01*
X108238239Y-78740633D01*
X108282909Y-78552305D01*
X108243766Y-78298300D01*
X108108885Y-78079536D01*
X107899518Y-77930484D01*
X106072427Y-77117011D01*
X105839446Y-77061749D01*
X105585441Y-77100892D01*
X105366677Y-77235773D01*
X105217624Y-77445139D01*
X104526171Y-78998166D01*
X104470909Y-79231149D01*
X102143455Y-79231149D01*
X102206641Y-79190490D01*
X102351631Y-78978290D01*
X102402640Y-78726400D01*
X102402640Y-77026400D01*
X102358362Y-76791083D01*
X102219290Y-76574959D01*
X102007090Y-76429969D01*
X101755200Y-76378960D01*
X99755200Y-76378960D01*
X99519883Y-76423238D01*
X99303759Y-76562310D01*
X99158769Y-76774510D01*
X99107760Y-77026400D01*
X99107760Y-77065798D01*
X98906439Y-76982202D01*
X98534473Y-76981878D01*
X98402640Y-77036350D01*
X98402640Y-77026400D01*
X98358362Y-76791083D01*
X98219290Y-76574959D01*
X98007090Y-76429969D01*
X97755200Y-76378960D01*
X95755200Y-76378960D01*
X95519883Y-76423238D01*
X95303759Y-76562310D01*
X95158769Y-76774510D01*
X95107760Y-77026400D01*
X92235260Y-77026400D01*
X92697440Y-76884191D01*
X93272212Y-76740498D01*
X93763637Y-76642213D01*
X93763643Y-76642213D01*
X94019472Y-76535930D01*
X94215156Y-76339837D01*
X94320902Y-76083786D01*
X94320613Y-75806757D01*
X94214330Y-75550928D01*
X94018237Y-75355244D01*
X93882232Y-75264574D01*
X93735168Y-75154276D01*
X93426250Y-74845358D01*
X93332845Y-74689683D01*
X93205850Y-74435692D01*
X93133115Y-74253854D01*
X93098099Y-74113792D01*
X93064400Y-73945298D01*
X93064400Y-71952302D01*
X93101412Y-71767243D01*
X93101433Y-71747260D01*
X93108064Y-71728409D01*
X93146828Y-71457063D01*
X93177743Y-71379776D01*
X93290649Y-71238643D01*
X93416334Y-71112958D01*
X93601128Y-70989762D01*
X93786487Y-70915619D01*
X93786516Y-70915600D01*
X95467396Y-70915600D01*
X95585800Y-70945201D01*
X95614447Y-70946595D01*
X95641277Y-70956740D01*
X95840770Y-70989989D01*
X95846878Y-70993043D01*
X95895806Y-71006442D01*
X95939878Y-71031565D01*
X96244678Y-71133165D01*
X96260217Y-71135124D01*
X96274148Y-71142282D01*
X96614916Y-71239644D01*
X96704808Y-71269608D01*
X96862879Y-71348644D01*
X96911808Y-71362043D01*
X96955878Y-71387165D01*
X97108277Y-71437964D01*
X97108278Y-71437965D01*
X97260679Y-71488765D01*
X97373582Y-71502998D01*
X97485200Y-71525200D01*
X97510223Y-71520223D01*
X97535531Y-71523413D01*
X97645293Y-71493355D01*
X97756905Y-71471154D01*
X97778114Y-71456983D01*
X97802722Y-71450244D01*
X97892628Y-71380467D01*
X97987246Y-71317246D01*
X98001420Y-71296033D01*
X98021572Y-71280393D01*
X98077930Y-71181527D01*
X98141154Y-71086905D01*
X98146131Y-71061886D01*
X98158765Y-71039722D01*
X98172999Y-70926811D01*
X98195200Y-70815200D01*
X98195200Y-70510057D01*
X98238864Y-70204409D01*
X98282805Y-69896821D01*
X98371082Y-69587852D01*
X98372066Y-69575870D01*
X98377201Y-69565000D01*
X98475930Y-69170084D01*
X98570044Y-68840685D01*
X98650809Y-68598391D01*
X98729844Y-68440321D01*
X98735430Y-68419923D01*
X98747393Y-68402483D01*
X98891576Y-68066056D01*
X99129342Y-67590524D01*
X99352299Y-67189201D01*
X99597724Y-66861968D01*
X100020331Y-66439360D01*
X100257955Y-66280944D01*
X100626895Y-66050357D01*
X100650008Y-66038800D01*
X101657467Y-66038800D01*
X101783874Y-66092975D01*
G36*
X97993200Y-122834400D02*
X98013200Y-122834400D01*
X98013200Y-123088400D01*
X97993200Y-123088400D01*
X97993200Y-123108400D01*
X97739200Y-123108400D01*
X97739200Y-123088400D01*
X97719200Y-123088400D01*
X97719200Y-122834400D01*
X97739200Y-122834400D01*
X97739200Y-122814400D01*
X97993200Y-122814400D01*
X97993200Y-122834400D01*
X97993200Y-122834400D01*
G37*
X97993200Y-122834400D02*
X98013200Y-122834400D01*
X98013200Y-123088400D01*
X97993200Y-123088400D01*
X97993200Y-123108400D01*
X97739200Y-123108400D01*
X97739200Y-123088400D01*
X97719200Y-123088400D01*
X97719200Y-122834400D01*
X97739200Y-122834400D01*
X97739200Y-122814400D01*
X97993200Y-122814400D01*
X97993200Y-122834400D01*
M02*
