G04 #@! TF.FileFunction,Copper,L1,Top,Signal*
%FSLAX46Y46*%
G04 Gerber Fmt 4.6, Leading zero omitted, Abs format (unit mm)*
G04 Created by KiCad (PCBNEW 4.0.7) date 05/31/18 15:48:07*
%MOMM*%
%LPD*%
G01*
G04 APERTURE LIST*
%ADD10C,0.100000*%
%ADD11C,1.700000*%
%ADD12O,1.700000X1.700000*%
%ADD13R,2.000000X1.700000*%
%ADD14C,0.600000*%
%ADD15C,0.200000*%
%ADD16C,0.250000*%
%ADD17C,0.254000*%
G04 APERTURE END LIST*
D10*
D11*
X100406200Y-120421400D03*
D12*
X100406200Y-122961400D03*
X97866200Y-120421400D03*
X97866200Y-122961400D03*
D10*
G36*
X75548968Y-99142699D02*
X77242499Y-98994534D01*
X77416810Y-100986923D01*
X75723279Y-101135088D01*
X75548968Y-99142699D01*
X75548968Y-99142699D01*
G37*
G36*
X75897590Y-103127477D02*
X77591121Y-102979312D01*
X77765432Y-104971701D01*
X76071901Y-105119866D01*
X75897590Y-103127477D01*
X75897590Y-103127477D01*
G37*
G36*
X78052921Y-89955805D02*
X79650399Y-90537240D01*
X78966359Y-92416625D01*
X77368881Y-91835190D01*
X78052921Y-89955805D01*
X78052921Y-89955805D01*
G37*
G36*
X76684841Y-93714575D02*
X78282319Y-94296010D01*
X77598279Y-96175395D01*
X76000801Y-95593960D01*
X76684841Y-93714575D01*
X76684841Y-93714575D01*
G37*
G36*
X83925719Y-82444204D02*
X85189065Y-83581726D01*
X83850803Y-85068016D01*
X82587457Y-83930494D01*
X83925719Y-82444204D01*
X83925719Y-82444204D01*
G37*
G36*
X81249197Y-85416784D02*
X82512543Y-86554306D01*
X81174281Y-88040596D01*
X79910935Y-86903074D01*
X81249197Y-85416784D01*
X81249197Y-85416784D01*
G37*
G36*
X92123298Y-77819383D02*
X92841749Y-79360106D01*
X91029134Y-80205343D01*
X90310683Y-78664620D01*
X92123298Y-77819383D01*
X92123298Y-77819383D01*
G37*
G36*
X88498066Y-79509857D02*
X89216517Y-81050580D01*
X87403902Y-81895817D01*
X86685451Y-80355094D01*
X88498066Y-79509857D01*
X88498066Y-79509857D01*
G37*
D13*
X100755200Y-77876400D03*
X96755200Y-77876400D03*
D10*
G36*
X111290363Y-80148896D02*
X110598910Y-81701923D01*
X108771819Y-80888450D01*
X109463272Y-79335423D01*
X111290363Y-80148896D01*
X111290363Y-80148896D01*
G37*
G36*
X107636181Y-78521950D02*
X106944728Y-80074977D01*
X105117637Y-79261504D01*
X105809090Y-77708477D01*
X107636181Y-78521950D01*
X107636181Y-78521950D01*
G37*
G36*
X118352700Y-87146564D02*
X117050425Y-88239303D01*
X115764850Y-86707214D01*
X117067125Y-85614475D01*
X118352700Y-87146564D01*
X118352700Y-87146564D01*
G37*
G36*
X115781550Y-84082386D02*
X114479275Y-85175125D01*
X113193700Y-83643036D01*
X114495975Y-82550297D01*
X115781550Y-84082386D01*
X115781550Y-84082386D01*
G37*
G36*
X122271599Y-95543160D02*
X120674121Y-96124595D01*
X119990081Y-94245210D01*
X121587559Y-93663775D01*
X122271599Y-95543160D01*
X122271599Y-95543160D01*
G37*
G36*
X120903519Y-91784390D02*
X119306041Y-92365825D01*
X118622001Y-90486440D01*
X120219479Y-89905005D01*
X120903519Y-91784390D01*
X120903519Y-91784390D01*
G37*
G36*
X122149699Y-105069066D02*
X120456168Y-104920901D01*
X120630479Y-102928512D01*
X122324010Y-103076677D01*
X122149699Y-105069066D01*
X122149699Y-105069066D01*
G37*
G36*
X122498321Y-101084288D02*
X120804790Y-100936123D01*
X120979101Y-98943734D01*
X122672632Y-99091899D01*
X122498321Y-101084288D01*
X122498321Y-101084288D01*
G37*
D14*
X117602000Y-100360480D03*
X109971840Y-102651560D03*
X76611480Y-102011480D03*
X77871320Y-93040200D03*
X82336640Y-85308440D03*
X89611200Y-79822040D03*
X98719640Y-77917040D03*
X108356400Y-79898240D03*
X115783360Y-85440520D03*
X120548400Y-93080840D03*
X121732040Y-102031800D03*
X78831440Y-100015040D03*
X87858600Y-91363800D03*
X81346040Y-91709240D03*
X89230200Y-89763600D03*
X85232240Y-86070440D03*
X90144600Y-87934800D03*
X91668600Y-81000600D03*
X91480640Y-85648800D03*
X100888800Y-79441040D03*
X98186240Y-85308440D03*
X108432600Y-81915000D03*
X99557840Y-86908640D03*
X115138200Y-87553800D03*
X100853240Y-87975440D03*
X118033800Y-94183200D03*
X101996240Y-89194640D03*
X119329200Y-103936800D03*
X110794800Y-103596440D03*
X112892840Y-96393000D03*
X106720640Y-90871040D03*
X111709200Y-95595440D03*
X107558840Y-91937840D03*
D15*
X116982240Y-100980240D02*
X117602000Y-100360480D01*
X111643160Y-100980240D02*
X116982240Y-100980240D01*
X109971840Y-102651560D02*
X111643160Y-100980240D01*
X76831511Y-102231511D02*
X76831511Y-104049589D01*
X76611480Y-102011480D02*
X76831511Y-102231511D01*
X76733400Y-101955600D02*
X76831511Y-102053711D01*
X77141560Y-94944985D02*
X77141560Y-93769960D01*
X77141560Y-93769960D02*
X77871320Y-93040200D01*
X82336640Y-85308440D02*
X81211739Y-86433341D01*
X81211739Y-86433341D02*
X81211739Y-86728690D01*
X89611200Y-79822040D02*
X88730403Y-80702837D01*
X88730403Y-80702837D02*
X87950984Y-80702837D01*
X98719640Y-77917040D02*
X98679000Y-77876400D01*
X98679000Y-77876400D02*
X96755200Y-77876400D01*
X108356400Y-79898240D02*
X107349887Y-78891727D01*
X107349887Y-78891727D02*
X106376909Y-78891727D01*
X115783360Y-85440520D02*
X114487625Y-84144785D01*
X114487625Y-84144785D02*
X114487625Y-83862711D01*
X119762760Y-92295200D02*
X119762760Y-91135415D01*
X120548400Y-93080840D02*
X119762760Y-92295200D01*
X121732040Y-102031800D02*
X121738711Y-102025129D01*
X121738711Y-102025129D02*
X121738711Y-100014011D01*
D16*
X78831440Y-97043240D02*
X78831440Y-100015040D01*
X84358480Y-91516200D02*
X78831440Y-97043240D01*
X87706200Y-91516200D02*
X84358480Y-91516200D01*
X87858600Y-91363800D02*
X87706200Y-91516200D01*
X83479640Y-89575640D02*
X81346040Y-91709240D01*
X89042240Y-89575640D02*
X83479640Y-89575640D01*
X89230200Y-89763600D02*
X89042240Y-89575640D01*
X88280240Y-86070440D02*
X85232240Y-86070440D01*
X90144600Y-87934800D02*
X88280240Y-86070440D01*
X90490040Y-82179160D02*
X91668600Y-81000600D01*
X90490040Y-84658200D02*
X90490040Y-82179160D01*
X91480640Y-85648800D02*
X90490040Y-84658200D01*
X99822000Y-80507840D02*
X100888800Y-79441040D01*
X99822000Y-83672680D02*
X99822000Y-80507840D01*
X98186240Y-85308440D02*
X99822000Y-83672680D01*
X106680000Y-83667600D02*
X108432600Y-81915000D01*
X102798880Y-83667600D02*
X106680000Y-83667600D01*
X99557840Y-86908640D02*
X102798880Y-83667600D01*
X112857280Y-85272880D02*
X115138200Y-87553800D01*
X103555800Y-85272880D02*
X112857280Y-85272880D01*
X100853240Y-87975440D02*
X103555800Y-85272880D01*
X118033800Y-92577920D02*
X118033800Y-94183200D01*
X112750600Y-87294720D02*
X118033800Y-92577920D01*
X103896160Y-87294720D02*
X112750600Y-87294720D01*
X101996240Y-89194640D02*
X103896160Y-87294720D01*
X117500400Y-102108000D02*
X119329200Y-103936800D01*
X112283240Y-102108000D02*
X117500400Y-102108000D01*
X110794800Y-103596440D02*
X112283240Y-102108000D01*
X112892840Y-92699840D02*
X112892840Y-96393000D01*
X111023400Y-90830400D02*
X112892840Y-92699840D01*
X106761280Y-90830400D02*
X111023400Y-90830400D01*
X106720640Y-90871040D02*
X106761280Y-90830400D01*
X111709200Y-93710760D02*
X111709200Y-95595440D01*
X109971840Y-91973400D02*
X111709200Y-93710760D01*
X107594400Y-91973400D02*
X109971840Y-91973400D01*
X107558840Y-91937840D02*
X107594400Y-91973400D01*
D17*
G36*
X101783874Y-66092975D02*
X102005283Y-66277482D01*
X102274680Y-66508394D01*
X102467701Y-66817227D01*
X102587512Y-67016912D01*
X102754502Y-67434388D01*
X102896218Y-67954013D01*
X102898161Y-67957910D01*
X102898518Y-67962252D01*
X102990508Y-68284217D01*
X103074400Y-68745622D01*
X103074400Y-68986400D01*
X103079402Y-69011545D01*
X103076204Y-69036985D01*
X103125200Y-69722929D01*
X103125200Y-70533928D01*
X103076491Y-71167145D01*
X103079783Y-71194540D01*
X103074400Y-71221600D01*
X103074400Y-71421303D01*
X102988561Y-71979256D01*
X102851045Y-72437643D01*
X102661111Y-73054929D01*
X102475194Y-73473242D01*
X102294113Y-73880675D01*
X101898395Y-74496235D01*
X101430243Y-75011202D01*
X101387309Y-75082590D01*
X101333663Y-75146319D01*
X101316587Y-75200181D01*
X101287465Y-75248603D01*
X101275117Y-75330988D01*
X101249943Y-75410394D01*
X101254779Y-75466688D01*
X101246403Y-75522571D01*
X101266524Y-75603412D01*
X101273653Y-75686405D01*
X101299665Y-75736566D01*
X101313312Y-75791398D01*
X101362833Y-75858380D01*
X101401183Y-75932334D01*
X101444412Y-75968723D01*
X101478002Y-76014157D01*
X101549390Y-76057091D01*
X101613119Y-76110737D01*
X101666981Y-76127813D01*
X101715403Y-76156935D01*
X101797788Y-76169283D01*
X101877194Y-76194457D01*
X102309956Y-76242542D01*
X102844591Y-76339748D01*
X102846467Y-76339717D01*
X102848212Y-76340396D01*
X103707079Y-76491961D01*
X104743893Y-76689449D01*
X105466558Y-76882160D01*
X106265025Y-77131681D01*
X107058879Y-77379760D01*
X107845903Y-77674894D01*
X108573288Y-77965848D01*
X109156479Y-78257444D01*
X109170665Y-78261329D01*
X109182641Y-78269864D01*
X110167438Y-78713023D01*
X110489492Y-78897053D01*
X112187421Y-79895835D01*
X113867317Y-81081644D01*
X115641930Y-82560488D01*
X117370779Y-84388129D01*
X118355428Y-85618940D01*
X119196838Y-86806813D01*
X119888245Y-87893310D01*
X120327499Y-88674205D01*
X120726157Y-89471522D01*
X121021624Y-90062456D01*
X121465338Y-91097788D01*
X121957190Y-92376604D01*
X122253318Y-93413052D01*
X122255491Y-93417282D01*
X122255943Y-93422017D01*
X122401746Y-93908026D01*
X122487563Y-94279903D01*
X122482846Y-94266942D01*
X122333673Y-94321237D01*
X122428551Y-94117768D01*
X122141063Y-93327901D01*
X121970397Y-93141651D01*
X121741446Y-93034889D01*
X121489068Y-93023870D01*
X121483449Y-93025915D01*
X121483562Y-92895673D01*
X121341517Y-92551897D01*
X121161224Y-92371289D01*
X121330938Y-92270694D01*
X121486463Y-92066090D01*
X121550132Y-91817098D01*
X121511914Y-91562953D01*
X120827874Y-89683568D01*
X120705783Y-89477586D01*
X120501179Y-89322061D01*
X120252187Y-89258392D01*
X119998041Y-89296610D01*
X118400563Y-89878045D01*
X118194582Y-90000136D01*
X118039057Y-90204740D01*
X117975388Y-90453732D01*
X118013606Y-90707877D01*
X118457129Y-91926447D01*
X115019379Y-88488697D01*
X115323367Y-88488962D01*
X115667143Y-88346917D01*
X115930392Y-88084127D01*
X115983654Y-87955860D01*
X116002834Y-87978718D01*
X116124443Y-87876676D01*
X116104876Y-88100326D01*
X116645176Y-88744231D01*
X116869252Y-88860877D01*
X117120909Y-88882895D01*
X117361836Y-88806932D01*
X117555353Y-88644551D01*
X117890836Y-88363048D01*
X117910403Y-88139396D01*
X117043121Y-87105811D01*
X117027801Y-87118666D01*
X116880016Y-86942543D01*
X117237697Y-86942543D01*
X118104978Y-87976128D01*
X118328630Y-87995695D01*
X118664112Y-87714192D01*
X118857630Y-87551812D01*
X118974276Y-87327736D01*
X118996292Y-87076079D01*
X118920328Y-86835152D01*
X118380028Y-86191247D01*
X118156375Y-86171680D01*
X117237697Y-86942543D01*
X116880016Y-86942543D01*
X116864532Y-86924091D01*
X116879853Y-86911235D01*
X116866998Y-86895915D01*
X117061573Y-86732646D01*
X117074429Y-86747967D01*
X117993107Y-85977104D01*
X118012674Y-85753452D01*
X117472374Y-85109547D01*
X117248298Y-84992901D01*
X116996641Y-84970883D01*
X116755714Y-85046846D01*
X116664124Y-85123700D01*
X116576477Y-84911577D01*
X116313687Y-84648328D01*
X116180322Y-84592950D01*
X116197717Y-84578354D01*
X116349518Y-84393176D01*
X116425685Y-84147719D01*
X116400355Y-83891967D01*
X116277518Y-83666220D01*
X114991943Y-82134131D01*
X114806765Y-81982329D01*
X114561308Y-81906162D01*
X114305556Y-81931492D01*
X114079808Y-82054329D01*
X112777533Y-83147068D01*
X112625732Y-83332246D01*
X112549565Y-83577703D01*
X112574895Y-83833455D01*
X112697732Y-84059202D01*
X113122717Y-84565679D01*
X112857280Y-84512880D01*
X103555800Y-84512880D01*
X103264961Y-84570732D01*
X103018399Y-84735479D01*
X100713560Y-87040318D01*
X100668073Y-87040278D01*
X100484001Y-87116335D01*
X100492678Y-87095439D01*
X100492719Y-87048563D01*
X103113682Y-84427600D01*
X106680000Y-84427600D01*
X106970839Y-84369748D01*
X107217401Y-84205001D01*
X108572280Y-82850122D01*
X108617767Y-82850162D01*
X108961543Y-82708117D01*
X109224792Y-82445327D01*
X109367438Y-82101799D01*
X109367716Y-81781918D01*
X109607677Y-81781918D01*
X109688133Y-81991513D01*
X110456022Y-82333399D01*
X110708553Y-82340012D01*
X110944394Y-82249482D01*
X111127637Y-82075591D01*
X111230386Y-81844812D01*
X111408513Y-81444733D01*
X111328057Y-81235138D01*
X110095456Y-80686349D01*
X109607677Y-81781918D01*
X109367716Y-81781918D01*
X109367762Y-81729833D01*
X109350571Y-81688228D01*
X109375636Y-81678607D01*
X109863415Y-80583038D01*
X109845144Y-80574903D01*
X109898836Y-80454308D01*
X110198767Y-80454308D01*
X111431368Y-81003098D01*
X111640963Y-80922642D01*
X111819089Y-80522563D01*
X111921839Y-80291784D01*
X111928452Y-80039252D01*
X111837920Y-79803412D01*
X111664029Y-79620169D01*
X110896141Y-79278283D01*
X110686546Y-79358739D01*
X110198767Y-80454308D01*
X109898836Y-80454308D01*
X109948455Y-80342862D01*
X109966726Y-80350997D01*
X110454505Y-79255428D01*
X110374049Y-79045833D01*
X109606160Y-78703947D01*
X109353629Y-78697334D01*
X109117788Y-78787864D01*
X108934545Y-78961755D01*
X108872865Y-79100292D01*
X108543199Y-78963402D01*
X108460937Y-78963330D01*
X108238239Y-78740633D01*
X108282909Y-78552305D01*
X108243766Y-78298300D01*
X108108885Y-78079536D01*
X107899518Y-77930484D01*
X106072427Y-77117011D01*
X105839446Y-77061749D01*
X105585441Y-77100892D01*
X105366677Y-77235773D01*
X105217624Y-77445139D01*
X104526171Y-78998166D01*
X104470909Y-79231149D01*
X104510052Y-79485154D01*
X104644933Y-79703918D01*
X104854300Y-79852970D01*
X106681391Y-80666443D01*
X106914372Y-80721705D01*
X107168377Y-80682562D01*
X107387141Y-80547681D01*
X107530100Y-80346874D01*
X107563283Y-80427183D01*
X107826073Y-80690432D01*
X108138391Y-80820118D01*
X108133730Y-80998094D01*
X108143247Y-81022887D01*
X107903657Y-81121883D01*
X107640408Y-81384673D01*
X107497762Y-81728201D01*
X107497721Y-81775077D01*
X106365198Y-82907600D01*
X102798880Y-82907600D01*
X102508041Y-82965452D01*
X102261479Y-83130199D01*
X99418160Y-85973518D01*
X99372673Y-85973478D01*
X99028897Y-86115523D01*
X98765648Y-86378313D01*
X98623002Y-86721841D01*
X98622678Y-87093807D01*
X98764723Y-87437583D01*
X99027513Y-87700832D01*
X99371041Y-87843478D01*
X99743007Y-87843802D01*
X99927079Y-87767745D01*
X99918402Y-87788641D01*
X99918078Y-88160607D01*
X100060123Y-88504383D01*
X100322913Y-88767632D01*
X100666441Y-88910278D01*
X101038407Y-88910602D01*
X101114904Y-88878994D01*
X101061402Y-89007841D01*
X101061078Y-89379807D01*
X101203123Y-89723583D01*
X101465913Y-89986832D01*
X101809441Y-90129478D01*
X102181407Y-90129802D01*
X102525183Y-89987757D01*
X102788432Y-89724967D01*
X102931078Y-89381439D01*
X102931119Y-89334563D01*
X104210962Y-88054720D01*
X112435798Y-88054720D01*
X117273800Y-92892722D01*
X117273800Y-93620737D01*
X117241608Y-93652873D01*
X117098962Y-93996401D01*
X117098638Y-94368367D01*
X117240683Y-94712143D01*
X117503473Y-94975392D01*
X117847001Y-95118038D01*
X118218967Y-95118362D01*
X118562743Y-94976317D01*
X118825992Y-94713527D01*
X118968638Y-94369999D01*
X118968962Y-93998033D01*
X118826917Y-93654257D01*
X118793800Y-93621082D01*
X118793800Y-92749485D01*
X118819737Y-92793244D01*
X119024341Y-92948769D01*
X119273333Y-93012438D01*
X119418693Y-92990579D01*
X119613308Y-93185195D01*
X119613238Y-93266007D01*
X119755283Y-93609783D01*
X119788330Y-93642888D01*
X119654206Y-93691705D01*
X119467956Y-93862372D01*
X119361195Y-94091323D01*
X119350176Y-94343701D01*
X119637664Y-95133568D01*
X119841136Y-95228448D01*
X120968062Y-94818281D01*
X120961221Y-94799486D01*
X121199904Y-94712614D01*
X121206744Y-94731407D01*
X121225539Y-94724566D01*
X121312411Y-94963249D01*
X121293618Y-94970089D01*
X121755088Y-96237970D01*
X121958560Y-96332850D01*
X122370090Y-96183066D01*
X122607474Y-96096665D01*
X122793724Y-95925998D01*
X122824645Y-95859687D01*
X122846404Y-95982988D01*
X122847083Y-95984733D01*
X122847052Y-95986609D01*
X122946243Y-96532160D01*
X123045936Y-97230009D01*
X123142917Y-97908876D01*
X123182371Y-98697954D01*
X123174302Y-98682624D01*
X122975546Y-98519691D01*
X122729060Y-98446923D01*
X121035529Y-98298758D01*
X120797249Y-98322358D01*
X120569826Y-98442064D01*
X120406893Y-98640820D01*
X120334125Y-98887306D01*
X120159814Y-100879695D01*
X120183414Y-101117975D01*
X120303120Y-101345398D01*
X120501876Y-101508331D01*
X120748362Y-101581099D01*
X120901231Y-101594473D01*
X120797202Y-101845001D01*
X120796878Y-102216967D01*
X120834893Y-102308970D01*
X120811652Y-102306937D01*
X120559994Y-102284920D01*
X120319067Y-102360884D01*
X120125550Y-102523264D01*
X120008904Y-102747340D01*
X119964912Y-103250177D01*
X119859527Y-103144608D01*
X119515999Y-103001962D01*
X119469123Y-103001921D01*
X118037801Y-101570599D01*
X117791239Y-101405852D01*
X117628454Y-101373472D01*
X117706354Y-101295572D01*
X117787167Y-101295642D01*
X118130943Y-101153597D01*
X118394192Y-100890807D01*
X118536838Y-100547279D01*
X118537162Y-100175313D01*
X118395117Y-99831537D01*
X118132327Y-99568288D01*
X117788799Y-99425642D01*
X117416833Y-99425318D01*
X117073057Y-99567363D01*
X116809808Y-99830153D01*
X116667162Y-100173681D01*
X116667100Y-100245240D01*
X111643160Y-100245240D01*
X111408554Y-100291907D01*
X111361887Y-100301189D01*
X111123436Y-100460517D01*
X109867485Y-101716468D01*
X109786673Y-101716398D01*
X109442897Y-101858443D01*
X109179648Y-102121233D01*
X109037002Y-102464761D01*
X109036678Y-102836727D01*
X109178723Y-103180503D01*
X109441513Y-103443752D01*
X109785041Y-103586398D01*
X109859808Y-103586463D01*
X109859638Y-103781607D01*
X110001683Y-104125383D01*
X110264473Y-104388632D01*
X110608001Y-104531278D01*
X110979967Y-104531602D01*
X111323743Y-104389557D01*
X111586992Y-104126767D01*
X111729638Y-103783239D01*
X111729679Y-103736363D01*
X112598042Y-102868000D01*
X117185598Y-102868000D01*
X118394078Y-104076480D01*
X118394038Y-104121967D01*
X118536083Y-104465743D01*
X118798873Y-104728992D01*
X119142401Y-104871638D01*
X119514367Y-104871962D01*
X119834600Y-104739645D01*
X119812576Y-104991386D01*
X119888540Y-105232312D01*
X120050919Y-105425830D01*
X120274995Y-105542476D01*
X120526652Y-105564494D01*
X120962927Y-105602663D01*
X121134909Y-105458353D01*
X121252503Y-104114237D01*
X121232579Y-104112494D01*
X121254717Y-103859460D01*
X121274641Y-103861203D01*
X121276384Y-103841279D01*
X121529418Y-103863417D01*
X121527675Y-103883341D01*
X122722361Y-103987863D01*
X122894343Y-103843553D01*
X122967602Y-103006192D01*
X122891638Y-102765266D01*
X122729259Y-102571748D01*
X122557388Y-102482278D01*
X122666878Y-102218599D01*
X122667202Y-101846633D01*
X122611755Y-101712440D01*
X122680173Y-101705664D01*
X122907596Y-101585958D01*
X123070529Y-101387202D01*
X123143297Y-101140716D01*
X123191200Y-100593181D01*
X123191200Y-101480664D01*
X123142605Y-102452557D01*
X123045365Y-103230479D01*
X122897341Y-104217305D01*
X122836260Y-104507440D01*
X122844533Y-104412878D01*
X122700223Y-104240896D01*
X121505537Y-104136375D01*
X121387942Y-105480490D01*
X121532252Y-105652472D01*
X121968526Y-105690641D01*
X122220184Y-105712658D01*
X122461111Y-105636694D01*
X122623139Y-105500737D01*
X122499884Y-106055382D01*
X122253495Y-106991663D01*
X122008172Y-107776696D01*
X121708163Y-108626721D01*
X121464549Y-109308840D01*
X121222840Y-109840600D01*
X121221048Y-109848242D01*
X121216607Y-109854717D01*
X120920024Y-110546744D01*
X120527763Y-111331266D01*
X120193111Y-111952762D01*
X120110044Y-112077363D01*
X120083490Y-112141659D01*
X120044846Y-112199495D01*
X120031132Y-112268438D01*
X120004298Y-112333414D01*
X120004371Y-112402977D01*
X119990800Y-112471200D01*
X119990800Y-113965674D01*
X119945154Y-114513431D01*
X119802743Y-115320423D01*
X119612213Y-116082544D01*
X119468435Y-116513878D01*
X119279023Y-117082113D01*
X118808461Y-118070293D01*
X118476200Y-118592418D01*
X118139162Y-119122049D01*
X117264531Y-120239633D01*
X116647674Y-120903942D01*
X115763476Y-121689895D01*
X115083548Y-122272691D01*
X114606477Y-122606641D01*
X113814270Y-123151283D01*
X113071108Y-123597180D01*
X112586488Y-123887952D01*
X112102878Y-124129757D01*
X112090506Y-124139359D01*
X112075594Y-124144148D01*
X111640267Y-124385996D01*
X110908743Y-124727374D01*
X110118523Y-125073095D01*
X108832324Y-125567787D01*
X107751894Y-125911560D01*
X106813110Y-126158609D01*
X105967468Y-126357583D01*
X104773445Y-126606338D01*
X103534391Y-126804587D01*
X102687653Y-126904203D01*
X101799324Y-127002906D01*
X100670170Y-127052000D01*
X97860510Y-127052000D01*
X96976858Y-127002908D01*
X95839014Y-126903965D01*
X94452923Y-126705952D01*
X93158873Y-126457096D01*
X92720720Y-126359729D01*
X91917002Y-126158800D01*
X91917001Y-126158799D01*
X91510602Y-126057200D01*
X91510601Y-126057199D01*
X91125931Y-125961032D01*
X90039352Y-125615302D01*
X89050255Y-125269118D01*
X87966566Y-124825791D01*
X87127149Y-124430771D01*
X86239739Y-123987066D01*
X85309182Y-123448321D01*
X85109135Y-123318290D01*
X96424724Y-123318290D01*
X96594555Y-123728324D01*
X96984842Y-124156583D01*
X97509308Y-124402886D01*
X97739200Y-124282219D01*
X97739200Y-123088400D01*
X96546045Y-123088400D01*
X96424724Y-123318290D01*
X85109135Y-123318290D01*
X84331308Y-122812703D01*
X83499450Y-122176576D01*
X82672215Y-121495323D01*
X82340846Y-121163954D01*
X82340843Y-121163952D01*
X81842140Y-120665248D01*
X81615710Y-120421400D01*
X96352107Y-120421400D01*
X96465146Y-120989685D01*
X96787053Y-121471454D01*
X97127753Y-121699102D01*
X96984842Y-121766217D01*
X96594555Y-122194476D01*
X96424724Y-122604510D01*
X96546045Y-122834400D01*
X97739200Y-122834400D01*
X97739200Y-122814400D01*
X97993200Y-122814400D01*
X97993200Y-122834400D01*
X98013200Y-122834400D01*
X98013200Y-123088400D01*
X97993200Y-123088400D01*
X97993200Y-124282219D01*
X98223092Y-124402886D01*
X98747558Y-124156583D01*
X99137845Y-123728324D01*
X99137855Y-123728299D01*
X99327053Y-124011454D01*
X99808822Y-124333361D01*
X100377107Y-124446400D01*
X100435293Y-124446400D01*
X101003578Y-124333361D01*
X101485347Y-124011454D01*
X101807254Y-123529685D01*
X101920293Y-122961400D01*
X101807254Y-122393115D01*
X101485347Y-121911346D01*
X101181040Y-121708015D01*
X101246286Y-121681056D01*
X101664388Y-121263683D01*
X101890942Y-120718081D01*
X101891457Y-120127311D01*
X101665856Y-119581314D01*
X101248483Y-119163212D01*
X100702881Y-118936658D01*
X100112111Y-118936143D01*
X99566114Y-119161744D01*
X99148012Y-119579117D01*
X99123545Y-119638039D01*
X98945347Y-119371346D01*
X98463578Y-119049439D01*
X97895293Y-118936400D01*
X97837107Y-118936400D01*
X97268822Y-119049439D01*
X96787053Y-119371346D01*
X96465146Y-119853115D01*
X96352107Y-120421400D01*
X81615710Y-120421400D01*
X81213782Y-119988556D01*
X80594335Y-119178510D01*
X80109826Y-118403297D01*
X79776810Y-117832412D01*
X79489234Y-117209332D01*
X79155583Y-116446701D01*
X78972388Y-115805520D01*
X78779855Y-114890989D01*
X78688000Y-114202074D01*
X78688000Y-113334800D01*
X78680004Y-113294602D01*
X78683359Y-113253753D01*
X78653197Y-113159835D01*
X78633954Y-113063095D01*
X78611185Y-113029018D01*
X78598652Y-112989994D01*
X78344652Y-112532794D01*
X78341834Y-112529471D01*
X78340452Y-112525341D01*
X77934053Y-111814141D01*
X77931934Y-111811703D01*
X77930883Y-111808651D01*
X77591076Y-111226125D01*
X77198493Y-110391887D01*
X76856585Y-109659226D01*
X76664053Y-109129762D01*
X76656234Y-109116867D01*
X76653322Y-109102068D01*
X76309588Y-108267289D01*
X76064881Y-107484225D01*
X76064362Y-107483274D01*
X76064244Y-107482197D01*
X75768772Y-106546536D01*
X75572293Y-105662379D01*
X75572293Y-105662378D01*
X75525152Y-105450246D01*
X75648923Y-105610037D01*
X75872952Y-105735981D01*
X76128329Y-105764842D01*
X77821860Y-105616677D01*
X78052422Y-105552059D01*
X78255603Y-105394679D01*
X78381547Y-105170651D01*
X78410408Y-104915273D01*
X78236097Y-102922884D01*
X78171479Y-102692322D01*
X78014099Y-102489141D01*
X77790070Y-102363197D01*
X77566511Y-102337932D01*
X77566511Y-102231511D01*
X77548827Y-102142609D01*
X77566510Y-102053711D01*
X77546531Y-101953271D01*
X77546642Y-101826313D01*
X77461574Y-101620433D01*
X77597983Y-101608498D01*
X77822059Y-101491852D01*
X77984438Y-101298334D01*
X78060402Y-101057408D01*
X78009349Y-100473859D01*
X78038323Y-100543983D01*
X78301113Y-100807232D01*
X78644641Y-100949878D01*
X79016607Y-100950202D01*
X79360383Y-100808157D01*
X79623632Y-100545367D01*
X79766278Y-100201839D01*
X79766602Y-99829873D01*
X79624557Y-99486097D01*
X79591440Y-99452922D01*
X79591440Y-97358042D01*
X84673282Y-92276200D01*
X87617765Y-92276200D01*
X87671801Y-92298638D01*
X88043767Y-92298962D01*
X88387543Y-92156917D01*
X88650792Y-91894127D01*
X88793438Y-91550599D01*
X88793762Y-91178633D01*
X88743177Y-91056207D01*
X105785478Y-91056207D01*
X105927523Y-91399983D01*
X106190313Y-91663232D01*
X106533841Y-91805878D01*
X106623954Y-91805956D01*
X106623678Y-92123007D01*
X106765723Y-92466783D01*
X107028513Y-92730032D01*
X107372041Y-92872678D01*
X107744007Y-92873002D01*
X108081870Y-92733400D01*
X109657038Y-92733400D01*
X110949200Y-94025562D01*
X110949200Y-95032977D01*
X110917008Y-95065113D01*
X110774362Y-95408641D01*
X110774038Y-95780607D01*
X110916083Y-96124383D01*
X111178873Y-96387632D01*
X111522401Y-96530278D01*
X111894367Y-96530602D01*
X111957742Y-96504416D01*
X111957678Y-96578167D01*
X112099723Y-96921943D01*
X112362513Y-97185192D01*
X112706041Y-97327838D01*
X113078007Y-97328162D01*
X113421783Y-97186117D01*
X113685032Y-96923327D01*
X113827678Y-96579799D01*
X113828002Y-96207833D01*
X113685957Y-95864057D01*
X113652840Y-95830882D01*
X113652840Y-95670602D01*
X119833129Y-95670602D01*
X120120617Y-96460469D01*
X120291283Y-96646719D01*
X120520234Y-96753481D01*
X120772612Y-96764500D01*
X121009996Y-96678099D01*
X121421526Y-96528315D01*
X121516406Y-96324843D01*
X121054936Y-95056963D01*
X119928009Y-95467130D01*
X119833129Y-95670602D01*
X113652840Y-95670602D01*
X113652840Y-92699840D01*
X113594988Y-92409001D01*
X113594988Y-92409000D01*
X113430241Y-92162439D01*
X111560801Y-90292999D01*
X111314239Y-90128252D01*
X111023400Y-90070400D01*
X107230622Y-90070400D01*
X106907439Y-89936202D01*
X106535473Y-89935878D01*
X106191697Y-90077923D01*
X105928448Y-90340713D01*
X105785802Y-90684241D01*
X105785478Y-91056207D01*
X88743177Y-91056207D01*
X88651717Y-90834857D01*
X88388927Y-90571608D01*
X88045399Y-90428962D01*
X87673433Y-90428638D01*
X87329657Y-90570683D01*
X87143816Y-90756200D01*
X84358480Y-90756200D01*
X84067641Y-90814052D01*
X83821079Y-90978799D01*
X78294039Y-96505839D01*
X78129292Y-96752401D01*
X78071440Y-97043240D01*
X78071440Y-99452577D01*
X78039248Y-99484713D01*
X77902893Y-99813090D01*
X77793025Y-99822702D01*
X77937333Y-99650722D01*
X77864074Y-98813362D01*
X77747428Y-98589286D01*
X77553911Y-98426906D01*
X77312984Y-98350942D01*
X77061326Y-98372959D01*
X76625052Y-98411128D01*
X76480742Y-98583110D01*
X76598337Y-99927225D01*
X76618261Y-99925482D01*
X76640399Y-100178516D01*
X76620475Y-100180259D01*
X76622218Y-100200183D01*
X76369184Y-100222321D01*
X76367441Y-100202397D01*
X75172755Y-100306918D01*
X75028445Y-100478900D01*
X75101704Y-101316260D01*
X75218350Y-101540336D01*
X75411867Y-101702716D01*
X75652794Y-101778680D01*
X75697362Y-101774781D01*
X75676642Y-101824681D01*
X75676318Y-102196647D01*
X75799280Y-102494239D01*
X75610600Y-102547119D01*
X75407419Y-102704499D01*
X75281475Y-102928527D01*
X75252614Y-103183905D01*
X75402673Y-104899088D01*
X75373216Y-104766534D01*
X75325540Y-104480477D01*
X75323660Y-104475506D01*
X75323748Y-104470191D01*
X75223623Y-103919505D01*
X75076163Y-102985593D01*
X75028510Y-102461411D01*
X74979600Y-101629932D01*
X74979600Y-99910385D01*
X75150617Y-100053885D01*
X76345303Y-99949363D01*
X76227709Y-98605247D01*
X76055727Y-98460937D01*
X75619452Y-98499106D01*
X75367795Y-98521124D01*
X75143719Y-98637770D01*
X74981340Y-98831288D01*
X74979600Y-98836807D01*
X74979600Y-98574161D01*
X75027256Y-97811665D01*
X75175120Y-96776617D01*
X75273184Y-96139202D01*
X75369761Y-95680458D01*
X75410297Y-95859447D01*
X75560110Y-96068270D01*
X75779363Y-96202355D01*
X77376841Y-96783790D01*
X77613111Y-96822665D01*
X77863767Y-96765899D01*
X78072589Y-96616086D01*
X78206674Y-96396832D01*
X78890714Y-94517447D01*
X78929589Y-94281178D01*
X78872823Y-94030523D01*
X78723010Y-93821700D01*
X78530088Y-93703718D01*
X78663512Y-93570527D01*
X78806158Y-93226999D01*
X78806326Y-93034130D01*
X78867868Y-93056530D01*
X79120246Y-93045511D01*
X79349197Y-92938749D01*
X79519863Y-92752499D01*
X79807351Y-91962632D01*
X79775538Y-91894407D01*
X80410878Y-91894407D01*
X80552923Y-92238183D01*
X80815713Y-92501432D01*
X81159241Y-92644078D01*
X81531207Y-92644402D01*
X81874983Y-92502357D01*
X82138232Y-92239567D01*
X82280878Y-91896039D01*
X82280919Y-91849163D01*
X83794442Y-90335640D01*
X88480105Y-90335640D01*
X88699873Y-90555792D01*
X89043401Y-90698438D01*
X89415367Y-90698762D01*
X89759143Y-90556717D01*
X90022392Y-90293927D01*
X90165038Y-89950399D01*
X90165362Y-89578433D01*
X90023317Y-89234657D01*
X89760527Y-88971408D01*
X89416999Y-88828762D01*
X89106850Y-88828492D01*
X89042240Y-88815640D01*
X83479640Y-88815640D01*
X83188801Y-88873492D01*
X82942239Y-89038239D01*
X81206360Y-90774118D01*
X81160873Y-90774078D01*
X80817097Y-90916123D01*
X80553848Y-91178913D01*
X80411202Y-91522441D01*
X80410878Y-91894407D01*
X79775538Y-91894407D01*
X79712471Y-91759160D01*
X78585544Y-91348993D01*
X78578704Y-91367786D01*
X78340021Y-91280913D01*
X78346862Y-91262119D01*
X77929773Y-91110311D01*
X78672418Y-91110311D01*
X79799344Y-91520478D01*
X80002816Y-91425598D01*
X80290304Y-90635731D01*
X80279285Y-90383353D01*
X80172524Y-90154402D01*
X79986274Y-89983735D01*
X79748890Y-89897334D01*
X79337360Y-89747550D01*
X79133888Y-89842430D01*
X78672418Y-91110311D01*
X77929773Y-91110311D01*
X77219936Y-90851952D01*
X77016464Y-90946832D01*
X76728976Y-91736699D01*
X76739995Y-91989077D01*
X76846756Y-92218028D01*
X77033006Y-92388695D01*
X77155760Y-92433374D01*
X77079128Y-92509873D01*
X76936482Y-92853401D01*
X76936410Y-92935663D01*
X76785729Y-93086345D01*
X76670009Y-93067305D01*
X76419353Y-93124071D01*
X76210531Y-93273884D01*
X76076446Y-93493138D01*
X75484373Y-95119845D01*
X75525013Y-94835366D01*
X75665782Y-94319213D01*
X75666668Y-94306561D01*
X75671926Y-94295018D01*
X75867749Y-93462769D01*
X76162365Y-92578922D01*
X76164324Y-92563383D01*
X76171482Y-92549452D01*
X76261707Y-92233664D01*
X76499785Y-91662277D01*
X76503461Y-91643997D01*
X76513037Y-91627999D01*
X76752618Y-90957171D01*
X76987443Y-90487522D01*
X77026305Y-90409798D01*
X77211929Y-90409798D01*
X77306809Y-90613270D01*
X78433736Y-91023437D01*
X78895206Y-89755557D01*
X78800326Y-89552085D01*
X78388796Y-89402301D01*
X78151412Y-89315900D01*
X77899034Y-89326919D01*
X77670083Y-89433681D01*
X77499417Y-89619931D01*
X77211929Y-90409798D01*
X77026305Y-90409798D01*
X77038243Y-90385922D01*
X77043829Y-90365524D01*
X77055793Y-90348083D01*
X77208193Y-89992483D01*
X77208949Y-89988910D01*
X77210985Y-89985877D01*
X77446761Y-89420014D01*
X77778483Y-88851349D01*
X77780951Y-88844184D01*
X77785852Y-88838406D01*
X78037757Y-88384977D01*
X78438296Y-87684032D01*
X78727324Y-87202318D01*
X78917221Y-86928023D01*
X79263976Y-86928023D01*
X79324654Y-87177761D01*
X79477713Y-87384216D01*
X80741059Y-88521738D01*
X80945561Y-88646290D01*
X81199230Y-88687555D01*
X81448968Y-88626877D01*
X81655423Y-88473818D01*
X82993685Y-86987528D01*
X83118237Y-86783026D01*
X83159502Y-86529357D01*
X83098824Y-86279619D01*
X83081023Y-86255607D01*
X84297078Y-86255607D01*
X84439123Y-86599383D01*
X84701913Y-86862632D01*
X85045441Y-87005278D01*
X85417407Y-87005602D01*
X85761183Y-86863557D01*
X85794358Y-86830440D01*
X87965438Y-86830440D01*
X89209478Y-88074480D01*
X89209438Y-88119967D01*
X89351483Y-88463743D01*
X89614273Y-88726992D01*
X89957801Y-88869638D01*
X90329767Y-88869962D01*
X90673543Y-88727917D01*
X90936792Y-88465127D01*
X91079438Y-88121599D01*
X91079762Y-87749633D01*
X90937717Y-87405857D01*
X90674927Y-87142608D01*
X90331399Y-86999962D01*
X90284523Y-86999921D01*
X88817641Y-85533039D01*
X88571079Y-85368292D01*
X88280240Y-85310440D01*
X85794703Y-85310440D01*
X85762567Y-85278248D01*
X85419039Y-85135602D01*
X85047073Y-85135278D01*
X84703297Y-85277323D01*
X84440048Y-85540113D01*
X84297402Y-85883641D01*
X84297078Y-86255607D01*
X83081023Y-86255607D01*
X82945765Y-86073164D01*
X82918562Y-86048670D01*
X83128832Y-85838767D01*
X83271478Y-85495239D01*
X83271560Y-85400940D01*
X83332040Y-85455396D01*
X83519772Y-85624431D01*
X83757901Y-85708756D01*
X84010173Y-85695535D01*
X84238183Y-85586780D01*
X84800627Y-84962123D01*
X84788877Y-84737924D01*
X83897661Y-83935469D01*
X83884279Y-83950332D01*
X83695520Y-83780373D01*
X83708902Y-83765510D01*
X83688023Y-83746710D01*
X84067620Y-83746710D01*
X84958836Y-84549165D01*
X85183035Y-84537415D01*
X85745479Y-83912758D01*
X85829805Y-83674630D01*
X85816584Y-83422357D01*
X85707829Y-83194347D01*
X85520097Y-83025312D01*
X85194643Y-82732272D01*
X84970444Y-82744022D01*
X84067620Y-83746710D01*
X83688023Y-83746710D01*
X82817686Y-82963055D01*
X82593487Y-82974805D01*
X82031043Y-83599462D01*
X81946717Y-83837590D01*
X81959938Y-84089863D01*
X82068693Y-84317873D01*
X82136909Y-84379296D01*
X81807697Y-84515323D01*
X81544448Y-84778113D01*
X81520089Y-84836775D01*
X81477917Y-84811090D01*
X81224248Y-84769825D01*
X80974510Y-84830503D01*
X80768055Y-84983562D01*
X79429793Y-86469852D01*
X79305241Y-86674354D01*
X79263976Y-86928023D01*
X78917221Y-86928023D01*
X79171357Y-86560939D01*
X79171359Y-86560935D01*
X79614573Y-85920738D01*
X80005617Y-85431934D01*
X80007078Y-85429116D01*
X80009486Y-85427053D01*
X80554978Y-84732791D01*
X80947061Y-84291698D01*
X80950353Y-84286083D01*
X80955472Y-84282062D01*
X81547324Y-83591568D01*
X82080713Y-83058178D01*
X82614198Y-82550097D01*
X82975895Y-82550097D01*
X82987645Y-82774296D01*
X83878861Y-83576751D01*
X84781686Y-82574063D01*
X84769936Y-82349864D01*
X84444482Y-82056824D01*
X84256750Y-81887789D01*
X84018621Y-81803464D01*
X83766349Y-81816685D01*
X83538339Y-81925440D01*
X82975895Y-82550097D01*
X82614198Y-82550097D01*
X83119065Y-82069272D01*
X83857133Y-81478817D01*
X83860435Y-81474894D01*
X83864952Y-81472470D01*
X84700867Y-80784069D01*
X85308671Y-80378866D01*
X86038448Y-80378866D01*
X86098671Y-80628714D01*
X86817122Y-82169437D01*
X86956701Y-82363994D01*
X87174081Y-82501095D01*
X87427675Y-82542820D01*
X87677522Y-82482597D01*
X89490137Y-81637360D01*
X89684694Y-81497781D01*
X89821794Y-81280401D01*
X89863520Y-81026808D01*
X89803297Y-80776960D01*
X89794083Y-80757200D01*
X89796367Y-80757202D01*
X90140143Y-80615157D01*
X90399063Y-80356689D01*
X90400248Y-80359231D01*
X90507009Y-80588181D01*
X90693259Y-80758848D01*
X90748267Y-80778869D01*
X90733762Y-80813801D01*
X90733721Y-80860677D01*
X89952639Y-81641759D01*
X89787892Y-81888321D01*
X89730040Y-82179160D01*
X89730040Y-84658200D01*
X89787892Y-84949039D01*
X89952639Y-85195601D01*
X90545518Y-85788480D01*
X90545478Y-85833967D01*
X90687523Y-86177743D01*
X90950313Y-86440992D01*
X91293841Y-86583638D01*
X91665807Y-86583962D01*
X92009583Y-86441917D01*
X92272832Y-86179127D01*
X92415478Y-85835599D01*
X92415802Y-85463633D01*
X92273757Y-85119857D01*
X92010967Y-84856608D01*
X91667439Y-84713962D01*
X91620563Y-84713921D01*
X91250040Y-84343398D01*
X91250040Y-82493962D01*
X91808280Y-81935722D01*
X91853767Y-81935762D01*
X92197543Y-81793717D01*
X92460792Y-81530927D01*
X92603438Y-81187399D01*
X92603762Y-80815433D01*
X92461717Y-80471657D01*
X92302531Y-80312193D01*
X92318907Y-80304557D01*
X92251817Y-80160682D01*
X92462782Y-80237467D01*
X93224587Y-79882231D01*
X93395253Y-79695981D01*
X93481655Y-79458598D01*
X93470636Y-79206219D01*
X93363874Y-78977269D01*
X93178792Y-78580360D01*
X92967825Y-78503574D01*
X91744990Y-79073792D01*
X91753442Y-79091918D01*
X91523239Y-79199263D01*
X91514787Y-79181137D01*
X91496661Y-79189589D01*
X91389316Y-78959386D01*
X91407442Y-78950934D01*
X90900617Y-77864045D01*
X90689650Y-77787259D01*
X89927845Y-78142495D01*
X89757179Y-78328745D01*
X89670777Y-78566128D01*
X89681796Y-78818507D01*
X89713795Y-78887129D01*
X89426033Y-78886878D01*
X89082257Y-79028923D01*
X88997101Y-79113931D01*
X88945267Y-79041680D01*
X88727887Y-78904579D01*
X88474293Y-78862854D01*
X88224446Y-78923077D01*
X86411831Y-79768314D01*
X86217274Y-79907893D01*
X86080174Y-80125273D01*
X86038448Y-80378866D01*
X85308671Y-80378866D01*
X85433037Y-80295956D01*
X85447182Y-80281840D01*
X85465200Y-80273200D01*
X86041984Y-79840612D01*
X86616148Y-79505683D01*
X86619490Y-79502726D01*
X86623692Y-79501220D01*
X87125198Y-79200317D01*
X87465235Y-79006009D01*
X88202430Y-78612838D01*
X89041093Y-78218173D01*
X89830285Y-77872902D01*
X90132410Y-77756700D01*
X91130820Y-77756700D01*
X91637645Y-78843589D01*
X92860480Y-78273372D01*
X92937266Y-78062405D01*
X92752184Y-77665495D01*
X92645423Y-77436545D01*
X92459173Y-77265878D01*
X92221789Y-77179478D01*
X91969410Y-77190497D01*
X91207605Y-77545733D01*
X91130820Y-77756700D01*
X90132410Y-77756700D01*
X90475675Y-77624675D01*
X90479749Y-77622100D01*
X90484487Y-77621218D01*
X90728041Y-77523797D01*
X91260920Y-77330023D01*
X92056735Y-77081331D01*
X92235260Y-77026400D01*
X95107760Y-77026400D01*
X95107760Y-78726400D01*
X95152038Y-78961717D01*
X95291110Y-79177841D01*
X95503310Y-79322831D01*
X95755200Y-79373840D01*
X97755200Y-79373840D01*
X97990517Y-79329562D01*
X98206641Y-79190490D01*
X98351631Y-78978290D01*
X98389300Y-78792274D01*
X98532841Y-78851878D01*
X98904807Y-78852202D01*
X99120200Y-78763204D01*
X99120200Y-78852710D01*
X99216873Y-79086099D01*
X99395502Y-79264727D01*
X99628891Y-79361400D01*
X99893638Y-79361400D01*
X99284599Y-79970439D01*
X99119852Y-80217001D01*
X99062000Y-80507840D01*
X99062000Y-83357878D01*
X98046560Y-84373318D01*
X98001073Y-84373278D01*
X97657297Y-84515323D01*
X97394048Y-84778113D01*
X97251402Y-85121641D01*
X97251078Y-85493607D01*
X97393123Y-85837383D01*
X97655913Y-86100632D01*
X97999441Y-86243278D01*
X98371407Y-86243602D01*
X98715183Y-86101557D01*
X98978432Y-85838767D01*
X99121078Y-85495239D01*
X99121119Y-85448363D01*
X100359401Y-84210081D01*
X100524148Y-83963519D01*
X100582000Y-83672680D01*
X100582000Y-80822642D01*
X101028480Y-80376162D01*
X101073967Y-80376202D01*
X101417743Y-80234157D01*
X101680992Y-79971367D01*
X101823638Y-79627839D01*
X101823870Y-79361400D01*
X101881509Y-79361400D01*
X102114898Y-79264727D01*
X102293527Y-79086099D01*
X102390200Y-78852710D01*
X102390200Y-78162150D01*
X102231450Y-78003400D01*
X100882200Y-78003400D01*
X100882200Y-78023400D01*
X100628200Y-78023400D01*
X100628200Y-78003400D01*
X100608200Y-78003400D01*
X100608200Y-77749400D01*
X100628200Y-77749400D01*
X100628200Y-76550150D01*
X100882200Y-76550150D01*
X100882200Y-77749400D01*
X102231450Y-77749400D01*
X102390200Y-77590650D01*
X102390200Y-76900090D01*
X102293527Y-76666701D01*
X102114898Y-76488073D01*
X101881509Y-76391400D01*
X101040950Y-76391400D01*
X100882200Y-76550150D01*
X100628200Y-76550150D01*
X100469450Y-76391400D01*
X99628891Y-76391400D01*
X99395502Y-76488073D01*
X99216873Y-76666701D01*
X99120200Y-76900090D01*
X99120200Y-77070964D01*
X98906439Y-76982202D01*
X98534473Y-76981878D01*
X98402640Y-77036350D01*
X98402640Y-77026400D01*
X98358362Y-76791083D01*
X98219290Y-76574959D01*
X98007090Y-76429969D01*
X97755200Y-76378960D01*
X95755200Y-76378960D01*
X95519883Y-76423238D01*
X95303759Y-76562310D01*
X95158769Y-76774510D01*
X95107760Y-77026400D01*
X92235260Y-77026400D01*
X92697440Y-76884191D01*
X93272212Y-76740498D01*
X93763637Y-76642213D01*
X93763643Y-76642213D01*
X94019472Y-76535930D01*
X94215156Y-76339837D01*
X94320902Y-76083786D01*
X94320613Y-75806757D01*
X94214330Y-75550928D01*
X94018237Y-75355244D01*
X93882232Y-75264574D01*
X93735168Y-75154276D01*
X93426250Y-74845358D01*
X93332845Y-74689683D01*
X93205850Y-74435692D01*
X93133115Y-74253854D01*
X93098099Y-74113792D01*
X93064400Y-73945298D01*
X93064400Y-71952302D01*
X93101412Y-71767243D01*
X93101433Y-71747260D01*
X93108064Y-71728409D01*
X93146828Y-71457063D01*
X93177743Y-71379776D01*
X93290649Y-71238643D01*
X93416334Y-71112958D01*
X93601128Y-70989762D01*
X93786487Y-70915619D01*
X93786516Y-70915600D01*
X95467396Y-70915600D01*
X95585800Y-70945201D01*
X95614447Y-70946595D01*
X95641277Y-70956740D01*
X95840770Y-70989989D01*
X95846878Y-70993043D01*
X95895806Y-71006442D01*
X95939878Y-71031565D01*
X96244678Y-71133165D01*
X96260217Y-71135124D01*
X96274148Y-71142282D01*
X96614916Y-71239644D01*
X96704808Y-71269608D01*
X96862879Y-71348644D01*
X96911808Y-71362043D01*
X96955878Y-71387165D01*
X97108277Y-71437964D01*
X97108278Y-71437965D01*
X97260679Y-71488765D01*
X97373582Y-71502998D01*
X97485200Y-71525200D01*
X97510223Y-71520223D01*
X97535531Y-71523413D01*
X97645293Y-71493355D01*
X97756905Y-71471154D01*
X97778114Y-71456983D01*
X97802722Y-71450244D01*
X97892628Y-71380467D01*
X97987246Y-71317246D01*
X98001420Y-71296033D01*
X98021572Y-71280393D01*
X98077930Y-71181527D01*
X98141154Y-71086905D01*
X98146131Y-71061886D01*
X98158765Y-71039722D01*
X98172999Y-70926811D01*
X98195200Y-70815200D01*
X98195200Y-70510057D01*
X98238864Y-70204409D01*
X98282805Y-69896821D01*
X98371082Y-69587852D01*
X98372066Y-69575870D01*
X98377201Y-69565000D01*
X98475930Y-69170084D01*
X98570044Y-68840685D01*
X98650809Y-68598391D01*
X98729844Y-68440321D01*
X98735430Y-68419923D01*
X98747393Y-68402483D01*
X98891576Y-68066056D01*
X99129342Y-67590524D01*
X99352299Y-67189201D01*
X99597724Y-66861968D01*
X100020331Y-66439360D01*
X100257955Y-66280944D01*
X100626895Y-66050357D01*
X100650008Y-66038800D01*
X101657467Y-66038800D01*
X101783874Y-66092975D01*
X101783874Y-66092975D01*
G37*
X101783874Y-66092975D02*
X102005283Y-66277482D01*
X102274680Y-66508394D01*
X102467701Y-66817227D01*
X102587512Y-67016912D01*
X102754502Y-67434388D01*
X102896218Y-67954013D01*
X102898161Y-67957910D01*
X102898518Y-67962252D01*
X102990508Y-68284217D01*
X103074400Y-68745622D01*
X103074400Y-68986400D01*
X103079402Y-69011545D01*
X103076204Y-69036985D01*
X103125200Y-69722929D01*
X103125200Y-70533928D01*
X103076491Y-71167145D01*
X103079783Y-71194540D01*
X103074400Y-71221600D01*
X103074400Y-71421303D01*
X102988561Y-71979256D01*
X102851045Y-72437643D01*
X102661111Y-73054929D01*
X102475194Y-73473242D01*
X102294113Y-73880675D01*
X101898395Y-74496235D01*
X101430243Y-75011202D01*
X101387309Y-75082590D01*
X101333663Y-75146319D01*
X101316587Y-75200181D01*
X101287465Y-75248603D01*
X101275117Y-75330988D01*
X101249943Y-75410394D01*
X101254779Y-75466688D01*
X101246403Y-75522571D01*
X101266524Y-75603412D01*
X101273653Y-75686405D01*
X101299665Y-75736566D01*
X101313312Y-75791398D01*
X101362833Y-75858380D01*
X101401183Y-75932334D01*
X101444412Y-75968723D01*
X101478002Y-76014157D01*
X101549390Y-76057091D01*
X101613119Y-76110737D01*
X101666981Y-76127813D01*
X101715403Y-76156935D01*
X101797788Y-76169283D01*
X101877194Y-76194457D01*
X102309956Y-76242542D01*
X102844591Y-76339748D01*
X102846467Y-76339717D01*
X102848212Y-76340396D01*
X103707079Y-76491961D01*
X104743893Y-76689449D01*
X105466558Y-76882160D01*
X106265025Y-77131681D01*
X107058879Y-77379760D01*
X107845903Y-77674894D01*
X108573288Y-77965848D01*
X109156479Y-78257444D01*
X109170665Y-78261329D01*
X109182641Y-78269864D01*
X110167438Y-78713023D01*
X110489492Y-78897053D01*
X112187421Y-79895835D01*
X113867317Y-81081644D01*
X115641930Y-82560488D01*
X117370779Y-84388129D01*
X118355428Y-85618940D01*
X119196838Y-86806813D01*
X119888245Y-87893310D01*
X120327499Y-88674205D01*
X120726157Y-89471522D01*
X121021624Y-90062456D01*
X121465338Y-91097788D01*
X121957190Y-92376604D01*
X122253318Y-93413052D01*
X122255491Y-93417282D01*
X122255943Y-93422017D01*
X122401746Y-93908026D01*
X122487563Y-94279903D01*
X122482846Y-94266942D01*
X122333673Y-94321237D01*
X122428551Y-94117768D01*
X122141063Y-93327901D01*
X121970397Y-93141651D01*
X121741446Y-93034889D01*
X121489068Y-93023870D01*
X121483449Y-93025915D01*
X121483562Y-92895673D01*
X121341517Y-92551897D01*
X121161224Y-92371289D01*
X121330938Y-92270694D01*
X121486463Y-92066090D01*
X121550132Y-91817098D01*
X121511914Y-91562953D01*
X120827874Y-89683568D01*
X120705783Y-89477586D01*
X120501179Y-89322061D01*
X120252187Y-89258392D01*
X119998041Y-89296610D01*
X118400563Y-89878045D01*
X118194582Y-90000136D01*
X118039057Y-90204740D01*
X117975388Y-90453732D01*
X118013606Y-90707877D01*
X118457129Y-91926447D01*
X115019379Y-88488697D01*
X115323367Y-88488962D01*
X115667143Y-88346917D01*
X115930392Y-88084127D01*
X115983654Y-87955860D01*
X116002834Y-87978718D01*
X116124443Y-87876676D01*
X116104876Y-88100326D01*
X116645176Y-88744231D01*
X116869252Y-88860877D01*
X117120909Y-88882895D01*
X117361836Y-88806932D01*
X117555353Y-88644551D01*
X117890836Y-88363048D01*
X117910403Y-88139396D01*
X117043121Y-87105811D01*
X117027801Y-87118666D01*
X116880016Y-86942543D01*
X117237697Y-86942543D01*
X118104978Y-87976128D01*
X118328630Y-87995695D01*
X118664112Y-87714192D01*
X118857630Y-87551812D01*
X118974276Y-87327736D01*
X118996292Y-87076079D01*
X118920328Y-86835152D01*
X118380028Y-86191247D01*
X118156375Y-86171680D01*
X117237697Y-86942543D01*
X116880016Y-86942543D01*
X116864532Y-86924091D01*
X116879853Y-86911235D01*
X116866998Y-86895915D01*
X117061573Y-86732646D01*
X117074429Y-86747967D01*
X117993107Y-85977104D01*
X118012674Y-85753452D01*
X117472374Y-85109547D01*
X117248298Y-84992901D01*
X116996641Y-84970883D01*
X116755714Y-85046846D01*
X116664124Y-85123700D01*
X116576477Y-84911577D01*
X116313687Y-84648328D01*
X116180322Y-84592950D01*
X116197717Y-84578354D01*
X116349518Y-84393176D01*
X116425685Y-84147719D01*
X116400355Y-83891967D01*
X116277518Y-83666220D01*
X114991943Y-82134131D01*
X114806765Y-81982329D01*
X114561308Y-81906162D01*
X114305556Y-81931492D01*
X114079808Y-82054329D01*
X112777533Y-83147068D01*
X112625732Y-83332246D01*
X112549565Y-83577703D01*
X112574895Y-83833455D01*
X112697732Y-84059202D01*
X113122717Y-84565679D01*
X112857280Y-84512880D01*
X103555800Y-84512880D01*
X103264961Y-84570732D01*
X103018399Y-84735479D01*
X100713560Y-87040318D01*
X100668073Y-87040278D01*
X100484001Y-87116335D01*
X100492678Y-87095439D01*
X100492719Y-87048563D01*
X103113682Y-84427600D01*
X106680000Y-84427600D01*
X106970839Y-84369748D01*
X107217401Y-84205001D01*
X108572280Y-82850122D01*
X108617767Y-82850162D01*
X108961543Y-82708117D01*
X109224792Y-82445327D01*
X109367438Y-82101799D01*
X109367716Y-81781918D01*
X109607677Y-81781918D01*
X109688133Y-81991513D01*
X110456022Y-82333399D01*
X110708553Y-82340012D01*
X110944394Y-82249482D01*
X111127637Y-82075591D01*
X111230386Y-81844812D01*
X111408513Y-81444733D01*
X111328057Y-81235138D01*
X110095456Y-80686349D01*
X109607677Y-81781918D01*
X109367716Y-81781918D01*
X109367762Y-81729833D01*
X109350571Y-81688228D01*
X109375636Y-81678607D01*
X109863415Y-80583038D01*
X109845144Y-80574903D01*
X109898836Y-80454308D01*
X110198767Y-80454308D01*
X111431368Y-81003098D01*
X111640963Y-80922642D01*
X111819089Y-80522563D01*
X111921839Y-80291784D01*
X111928452Y-80039252D01*
X111837920Y-79803412D01*
X111664029Y-79620169D01*
X110896141Y-79278283D01*
X110686546Y-79358739D01*
X110198767Y-80454308D01*
X109898836Y-80454308D01*
X109948455Y-80342862D01*
X109966726Y-80350997D01*
X110454505Y-79255428D01*
X110374049Y-79045833D01*
X109606160Y-78703947D01*
X109353629Y-78697334D01*
X109117788Y-78787864D01*
X108934545Y-78961755D01*
X108872865Y-79100292D01*
X108543199Y-78963402D01*
X108460937Y-78963330D01*
X108238239Y-78740633D01*
X108282909Y-78552305D01*
X108243766Y-78298300D01*
X108108885Y-78079536D01*
X107899518Y-77930484D01*
X106072427Y-77117011D01*
X105839446Y-77061749D01*
X105585441Y-77100892D01*
X105366677Y-77235773D01*
X105217624Y-77445139D01*
X104526171Y-78998166D01*
X104470909Y-79231149D01*
X104510052Y-79485154D01*
X104644933Y-79703918D01*
X104854300Y-79852970D01*
X106681391Y-80666443D01*
X106914372Y-80721705D01*
X107168377Y-80682562D01*
X107387141Y-80547681D01*
X107530100Y-80346874D01*
X107563283Y-80427183D01*
X107826073Y-80690432D01*
X108138391Y-80820118D01*
X108133730Y-80998094D01*
X108143247Y-81022887D01*
X107903657Y-81121883D01*
X107640408Y-81384673D01*
X107497762Y-81728201D01*
X107497721Y-81775077D01*
X106365198Y-82907600D01*
X102798880Y-82907600D01*
X102508041Y-82965452D01*
X102261479Y-83130199D01*
X99418160Y-85973518D01*
X99372673Y-85973478D01*
X99028897Y-86115523D01*
X98765648Y-86378313D01*
X98623002Y-86721841D01*
X98622678Y-87093807D01*
X98764723Y-87437583D01*
X99027513Y-87700832D01*
X99371041Y-87843478D01*
X99743007Y-87843802D01*
X99927079Y-87767745D01*
X99918402Y-87788641D01*
X99918078Y-88160607D01*
X100060123Y-88504383D01*
X100322913Y-88767632D01*
X100666441Y-88910278D01*
X101038407Y-88910602D01*
X101114904Y-88878994D01*
X101061402Y-89007841D01*
X101061078Y-89379807D01*
X101203123Y-89723583D01*
X101465913Y-89986832D01*
X101809441Y-90129478D01*
X102181407Y-90129802D01*
X102525183Y-89987757D01*
X102788432Y-89724967D01*
X102931078Y-89381439D01*
X102931119Y-89334563D01*
X104210962Y-88054720D01*
X112435798Y-88054720D01*
X117273800Y-92892722D01*
X117273800Y-93620737D01*
X117241608Y-93652873D01*
X117098962Y-93996401D01*
X117098638Y-94368367D01*
X117240683Y-94712143D01*
X117503473Y-94975392D01*
X117847001Y-95118038D01*
X118218967Y-95118362D01*
X118562743Y-94976317D01*
X118825992Y-94713527D01*
X118968638Y-94369999D01*
X118968962Y-93998033D01*
X118826917Y-93654257D01*
X118793800Y-93621082D01*
X118793800Y-92749485D01*
X118819737Y-92793244D01*
X119024341Y-92948769D01*
X119273333Y-93012438D01*
X119418693Y-92990579D01*
X119613308Y-93185195D01*
X119613238Y-93266007D01*
X119755283Y-93609783D01*
X119788330Y-93642888D01*
X119654206Y-93691705D01*
X119467956Y-93862372D01*
X119361195Y-94091323D01*
X119350176Y-94343701D01*
X119637664Y-95133568D01*
X119841136Y-95228448D01*
X120968062Y-94818281D01*
X120961221Y-94799486D01*
X121199904Y-94712614D01*
X121206744Y-94731407D01*
X121225539Y-94724566D01*
X121312411Y-94963249D01*
X121293618Y-94970089D01*
X121755088Y-96237970D01*
X121958560Y-96332850D01*
X122370090Y-96183066D01*
X122607474Y-96096665D01*
X122793724Y-95925998D01*
X122824645Y-95859687D01*
X122846404Y-95982988D01*
X122847083Y-95984733D01*
X122847052Y-95986609D01*
X122946243Y-96532160D01*
X123045936Y-97230009D01*
X123142917Y-97908876D01*
X123182371Y-98697954D01*
X123174302Y-98682624D01*
X122975546Y-98519691D01*
X122729060Y-98446923D01*
X121035529Y-98298758D01*
X120797249Y-98322358D01*
X120569826Y-98442064D01*
X120406893Y-98640820D01*
X120334125Y-98887306D01*
X120159814Y-100879695D01*
X120183414Y-101117975D01*
X120303120Y-101345398D01*
X120501876Y-101508331D01*
X120748362Y-101581099D01*
X120901231Y-101594473D01*
X120797202Y-101845001D01*
X120796878Y-102216967D01*
X120834893Y-102308970D01*
X120811652Y-102306937D01*
X120559994Y-102284920D01*
X120319067Y-102360884D01*
X120125550Y-102523264D01*
X120008904Y-102747340D01*
X119964912Y-103250177D01*
X119859527Y-103144608D01*
X119515999Y-103001962D01*
X119469123Y-103001921D01*
X118037801Y-101570599D01*
X117791239Y-101405852D01*
X117628454Y-101373472D01*
X117706354Y-101295572D01*
X117787167Y-101295642D01*
X118130943Y-101153597D01*
X118394192Y-100890807D01*
X118536838Y-100547279D01*
X118537162Y-100175313D01*
X118395117Y-99831537D01*
X118132327Y-99568288D01*
X117788799Y-99425642D01*
X117416833Y-99425318D01*
X117073057Y-99567363D01*
X116809808Y-99830153D01*
X116667162Y-100173681D01*
X116667100Y-100245240D01*
X111643160Y-100245240D01*
X111408554Y-100291907D01*
X111361887Y-100301189D01*
X111123436Y-100460517D01*
X109867485Y-101716468D01*
X109786673Y-101716398D01*
X109442897Y-101858443D01*
X109179648Y-102121233D01*
X109037002Y-102464761D01*
X109036678Y-102836727D01*
X109178723Y-103180503D01*
X109441513Y-103443752D01*
X109785041Y-103586398D01*
X109859808Y-103586463D01*
X109859638Y-103781607D01*
X110001683Y-104125383D01*
X110264473Y-104388632D01*
X110608001Y-104531278D01*
X110979967Y-104531602D01*
X111323743Y-104389557D01*
X111586992Y-104126767D01*
X111729638Y-103783239D01*
X111729679Y-103736363D01*
X112598042Y-102868000D01*
X117185598Y-102868000D01*
X118394078Y-104076480D01*
X118394038Y-104121967D01*
X118536083Y-104465743D01*
X118798873Y-104728992D01*
X119142401Y-104871638D01*
X119514367Y-104871962D01*
X119834600Y-104739645D01*
X119812576Y-104991386D01*
X119888540Y-105232312D01*
X120050919Y-105425830D01*
X120274995Y-105542476D01*
X120526652Y-105564494D01*
X120962927Y-105602663D01*
X121134909Y-105458353D01*
X121252503Y-104114237D01*
X121232579Y-104112494D01*
X121254717Y-103859460D01*
X121274641Y-103861203D01*
X121276384Y-103841279D01*
X121529418Y-103863417D01*
X121527675Y-103883341D01*
X122722361Y-103987863D01*
X122894343Y-103843553D01*
X122967602Y-103006192D01*
X122891638Y-102765266D01*
X122729259Y-102571748D01*
X122557388Y-102482278D01*
X122666878Y-102218599D01*
X122667202Y-101846633D01*
X122611755Y-101712440D01*
X122680173Y-101705664D01*
X122907596Y-101585958D01*
X123070529Y-101387202D01*
X123143297Y-101140716D01*
X123191200Y-100593181D01*
X123191200Y-101480664D01*
X123142605Y-102452557D01*
X123045365Y-103230479D01*
X122897341Y-104217305D01*
X122836260Y-104507440D01*
X122844533Y-104412878D01*
X122700223Y-104240896D01*
X121505537Y-104136375D01*
X121387942Y-105480490D01*
X121532252Y-105652472D01*
X121968526Y-105690641D01*
X122220184Y-105712658D01*
X122461111Y-105636694D01*
X122623139Y-105500737D01*
X122499884Y-106055382D01*
X122253495Y-106991663D01*
X122008172Y-107776696D01*
X121708163Y-108626721D01*
X121464549Y-109308840D01*
X121222840Y-109840600D01*
X121221048Y-109848242D01*
X121216607Y-109854717D01*
X120920024Y-110546744D01*
X120527763Y-111331266D01*
X120193111Y-111952762D01*
X120110044Y-112077363D01*
X120083490Y-112141659D01*
X120044846Y-112199495D01*
X120031132Y-112268438D01*
X120004298Y-112333414D01*
X120004371Y-112402977D01*
X119990800Y-112471200D01*
X119990800Y-113965674D01*
X119945154Y-114513431D01*
X119802743Y-115320423D01*
X119612213Y-116082544D01*
X119468435Y-116513878D01*
X119279023Y-117082113D01*
X118808461Y-118070293D01*
X118476200Y-118592418D01*
X118139162Y-119122049D01*
X117264531Y-120239633D01*
X116647674Y-120903942D01*
X115763476Y-121689895D01*
X115083548Y-122272691D01*
X114606477Y-122606641D01*
X113814270Y-123151283D01*
X113071108Y-123597180D01*
X112586488Y-123887952D01*
X112102878Y-124129757D01*
X112090506Y-124139359D01*
X112075594Y-124144148D01*
X111640267Y-124385996D01*
X110908743Y-124727374D01*
X110118523Y-125073095D01*
X108832324Y-125567787D01*
X107751894Y-125911560D01*
X106813110Y-126158609D01*
X105967468Y-126357583D01*
X104773445Y-126606338D01*
X103534391Y-126804587D01*
X102687653Y-126904203D01*
X101799324Y-127002906D01*
X100670170Y-127052000D01*
X97860510Y-127052000D01*
X96976858Y-127002908D01*
X95839014Y-126903965D01*
X94452923Y-126705952D01*
X93158873Y-126457096D01*
X92720720Y-126359729D01*
X91917002Y-126158800D01*
X91917001Y-126158799D01*
X91510602Y-126057200D01*
X91510601Y-126057199D01*
X91125931Y-125961032D01*
X90039352Y-125615302D01*
X89050255Y-125269118D01*
X87966566Y-124825791D01*
X87127149Y-124430771D01*
X86239739Y-123987066D01*
X85309182Y-123448321D01*
X85109135Y-123318290D01*
X96424724Y-123318290D01*
X96594555Y-123728324D01*
X96984842Y-124156583D01*
X97509308Y-124402886D01*
X97739200Y-124282219D01*
X97739200Y-123088400D01*
X96546045Y-123088400D01*
X96424724Y-123318290D01*
X85109135Y-123318290D01*
X84331308Y-122812703D01*
X83499450Y-122176576D01*
X82672215Y-121495323D01*
X82340846Y-121163954D01*
X82340843Y-121163952D01*
X81842140Y-120665248D01*
X81615710Y-120421400D01*
X96352107Y-120421400D01*
X96465146Y-120989685D01*
X96787053Y-121471454D01*
X97127753Y-121699102D01*
X96984842Y-121766217D01*
X96594555Y-122194476D01*
X96424724Y-122604510D01*
X96546045Y-122834400D01*
X97739200Y-122834400D01*
X97739200Y-122814400D01*
X97993200Y-122814400D01*
X97993200Y-122834400D01*
X98013200Y-122834400D01*
X98013200Y-123088400D01*
X97993200Y-123088400D01*
X97993200Y-124282219D01*
X98223092Y-124402886D01*
X98747558Y-124156583D01*
X99137845Y-123728324D01*
X99137855Y-123728299D01*
X99327053Y-124011454D01*
X99808822Y-124333361D01*
X100377107Y-124446400D01*
X100435293Y-124446400D01*
X101003578Y-124333361D01*
X101485347Y-124011454D01*
X101807254Y-123529685D01*
X101920293Y-122961400D01*
X101807254Y-122393115D01*
X101485347Y-121911346D01*
X101181040Y-121708015D01*
X101246286Y-121681056D01*
X101664388Y-121263683D01*
X101890942Y-120718081D01*
X101891457Y-120127311D01*
X101665856Y-119581314D01*
X101248483Y-119163212D01*
X100702881Y-118936658D01*
X100112111Y-118936143D01*
X99566114Y-119161744D01*
X99148012Y-119579117D01*
X99123545Y-119638039D01*
X98945347Y-119371346D01*
X98463578Y-119049439D01*
X97895293Y-118936400D01*
X97837107Y-118936400D01*
X97268822Y-119049439D01*
X96787053Y-119371346D01*
X96465146Y-119853115D01*
X96352107Y-120421400D01*
X81615710Y-120421400D01*
X81213782Y-119988556D01*
X80594335Y-119178510D01*
X80109826Y-118403297D01*
X79776810Y-117832412D01*
X79489234Y-117209332D01*
X79155583Y-116446701D01*
X78972388Y-115805520D01*
X78779855Y-114890989D01*
X78688000Y-114202074D01*
X78688000Y-113334800D01*
X78680004Y-113294602D01*
X78683359Y-113253753D01*
X78653197Y-113159835D01*
X78633954Y-113063095D01*
X78611185Y-113029018D01*
X78598652Y-112989994D01*
X78344652Y-112532794D01*
X78341834Y-112529471D01*
X78340452Y-112525341D01*
X77934053Y-111814141D01*
X77931934Y-111811703D01*
X77930883Y-111808651D01*
X77591076Y-111226125D01*
X77198493Y-110391887D01*
X76856585Y-109659226D01*
X76664053Y-109129762D01*
X76656234Y-109116867D01*
X76653322Y-109102068D01*
X76309588Y-108267289D01*
X76064881Y-107484225D01*
X76064362Y-107483274D01*
X76064244Y-107482197D01*
X75768772Y-106546536D01*
X75572293Y-105662379D01*
X75572293Y-105662378D01*
X75525152Y-105450246D01*
X75648923Y-105610037D01*
X75872952Y-105735981D01*
X76128329Y-105764842D01*
X77821860Y-105616677D01*
X78052422Y-105552059D01*
X78255603Y-105394679D01*
X78381547Y-105170651D01*
X78410408Y-104915273D01*
X78236097Y-102922884D01*
X78171479Y-102692322D01*
X78014099Y-102489141D01*
X77790070Y-102363197D01*
X77566511Y-102337932D01*
X77566511Y-102231511D01*
X77548827Y-102142609D01*
X77566510Y-102053711D01*
X77546531Y-101953271D01*
X77546642Y-101826313D01*
X77461574Y-101620433D01*
X77597983Y-101608498D01*
X77822059Y-101491852D01*
X77984438Y-101298334D01*
X78060402Y-101057408D01*
X78009349Y-100473859D01*
X78038323Y-100543983D01*
X78301113Y-100807232D01*
X78644641Y-100949878D01*
X79016607Y-100950202D01*
X79360383Y-100808157D01*
X79623632Y-100545367D01*
X79766278Y-100201839D01*
X79766602Y-99829873D01*
X79624557Y-99486097D01*
X79591440Y-99452922D01*
X79591440Y-97358042D01*
X84673282Y-92276200D01*
X87617765Y-92276200D01*
X87671801Y-92298638D01*
X88043767Y-92298962D01*
X88387543Y-92156917D01*
X88650792Y-91894127D01*
X88793438Y-91550599D01*
X88793762Y-91178633D01*
X88743177Y-91056207D01*
X105785478Y-91056207D01*
X105927523Y-91399983D01*
X106190313Y-91663232D01*
X106533841Y-91805878D01*
X106623954Y-91805956D01*
X106623678Y-92123007D01*
X106765723Y-92466783D01*
X107028513Y-92730032D01*
X107372041Y-92872678D01*
X107744007Y-92873002D01*
X108081870Y-92733400D01*
X109657038Y-92733400D01*
X110949200Y-94025562D01*
X110949200Y-95032977D01*
X110917008Y-95065113D01*
X110774362Y-95408641D01*
X110774038Y-95780607D01*
X110916083Y-96124383D01*
X111178873Y-96387632D01*
X111522401Y-96530278D01*
X111894367Y-96530602D01*
X111957742Y-96504416D01*
X111957678Y-96578167D01*
X112099723Y-96921943D01*
X112362513Y-97185192D01*
X112706041Y-97327838D01*
X113078007Y-97328162D01*
X113421783Y-97186117D01*
X113685032Y-96923327D01*
X113827678Y-96579799D01*
X113828002Y-96207833D01*
X113685957Y-95864057D01*
X113652840Y-95830882D01*
X113652840Y-95670602D01*
X119833129Y-95670602D01*
X120120617Y-96460469D01*
X120291283Y-96646719D01*
X120520234Y-96753481D01*
X120772612Y-96764500D01*
X121009996Y-96678099D01*
X121421526Y-96528315D01*
X121516406Y-96324843D01*
X121054936Y-95056963D01*
X119928009Y-95467130D01*
X119833129Y-95670602D01*
X113652840Y-95670602D01*
X113652840Y-92699840D01*
X113594988Y-92409001D01*
X113594988Y-92409000D01*
X113430241Y-92162439D01*
X111560801Y-90292999D01*
X111314239Y-90128252D01*
X111023400Y-90070400D01*
X107230622Y-90070400D01*
X106907439Y-89936202D01*
X106535473Y-89935878D01*
X106191697Y-90077923D01*
X105928448Y-90340713D01*
X105785802Y-90684241D01*
X105785478Y-91056207D01*
X88743177Y-91056207D01*
X88651717Y-90834857D01*
X88388927Y-90571608D01*
X88045399Y-90428962D01*
X87673433Y-90428638D01*
X87329657Y-90570683D01*
X87143816Y-90756200D01*
X84358480Y-90756200D01*
X84067641Y-90814052D01*
X83821079Y-90978799D01*
X78294039Y-96505839D01*
X78129292Y-96752401D01*
X78071440Y-97043240D01*
X78071440Y-99452577D01*
X78039248Y-99484713D01*
X77902893Y-99813090D01*
X77793025Y-99822702D01*
X77937333Y-99650722D01*
X77864074Y-98813362D01*
X77747428Y-98589286D01*
X77553911Y-98426906D01*
X77312984Y-98350942D01*
X77061326Y-98372959D01*
X76625052Y-98411128D01*
X76480742Y-98583110D01*
X76598337Y-99927225D01*
X76618261Y-99925482D01*
X76640399Y-100178516D01*
X76620475Y-100180259D01*
X76622218Y-100200183D01*
X76369184Y-100222321D01*
X76367441Y-100202397D01*
X75172755Y-100306918D01*
X75028445Y-100478900D01*
X75101704Y-101316260D01*
X75218350Y-101540336D01*
X75411867Y-101702716D01*
X75652794Y-101778680D01*
X75697362Y-101774781D01*
X75676642Y-101824681D01*
X75676318Y-102196647D01*
X75799280Y-102494239D01*
X75610600Y-102547119D01*
X75407419Y-102704499D01*
X75281475Y-102928527D01*
X75252614Y-103183905D01*
X75402673Y-104899088D01*
X75373216Y-104766534D01*
X75325540Y-104480477D01*
X75323660Y-104475506D01*
X75323748Y-104470191D01*
X75223623Y-103919505D01*
X75076163Y-102985593D01*
X75028510Y-102461411D01*
X74979600Y-101629932D01*
X74979600Y-99910385D01*
X75150617Y-100053885D01*
X76345303Y-99949363D01*
X76227709Y-98605247D01*
X76055727Y-98460937D01*
X75619452Y-98499106D01*
X75367795Y-98521124D01*
X75143719Y-98637770D01*
X74981340Y-98831288D01*
X74979600Y-98836807D01*
X74979600Y-98574161D01*
X75027256Y-97811665D01*
X75175120Y-96776617D01*
X75273184Y-96139202D01*
X75369761Y-95680458D01*
X75410297Y-95859447D01*
X75560110Y-96068270D01*
X75779363Y-96202355D01*
X77376841Y-96783790D01*
X77613111Y-96822665D01*
X77863767Y-96765899D01*
X78072589Y-96616086D01*
X78206674Y-96396832D01*
X78890714Y-94517447D01*
X78929589Y-94281178D01*
X78872823Y-94030523D01*
X78723010Y-93821700D01*
X78530088Y-93703718D01*
X78663512Y-93570527D01*
X78806158Y-93226999D01*
X78806326Y-93034130D01*
X78867868Y-93056530D01*
X79120246Y-93045511D01*
X79349197Y-92938749D01*
X79519863Y-92752499D01*
X79807351Y-91962632D01*
X79775538Y-91894407D01*
X80410878Y-91894407D01*
X80552923Y-92238183D01*
X80815713Y-92501432D01*
X81159241Y-92644078D01*
X81531207Y-92644402D01*
X81874983Y-92502357D01*
X82138232Y-92239567D01*
X82280878Y-91896039D01*
X82280919Y-91849163D01*
X83794442Y-90335640D01*
X88480105Y-90335640D01*
X88699873Y-90555792D01*
X89043401Y-90698438D01*
X89415367Y-90698762D01*
X89759143Y-90556717D01*
X90022392Y-90293927D01*
X90165038Y-89950399D01*
X90165362Y-89578433D01*
X90023317Y-89234657D01*
X89760527Y-88971408D01*
X89416999Y-88828762D01*
X89106850Y-88828492D01*
X89042240Y-88815640D01*
X83479640Y-88815640D01*
X83188801Y-88873492D01*
X82942239Y-89038239D01*
X81206360Y-90774118D01*
X81160873Y-90774078D01*
X80817097Y-90916123D01*
X80553848Y-91178913D01*
X80411202Y-91522441D01*
X80410878Y-91894407D01*
X79775538Y-91894407D01*
X79712471Y-91759160D01*
X78585544Y-91348993D01*
X78578704Y-91367786D01*
X78340021Y-91280913D01*
X78346862Y-91262119D01*
X77929773Y-91110311D01*
X78672418Y-91110311D01*
X79799344Y-91520478D01*
X80002816Y-91425598D01*
X80290304Y-90635731D01*
X80279285Y-90383353D01*
X80172524Y-90154402D01*
X79986274Y-89983735D01*
X79748890Y-89897334D01*
X79337360Y-89747550D01*
X79133888Y-89842430D01*
X78672418Y-91110311D01*
X77929773Y-91110311D01*
X77219936Y-90851952D01*
X77016464Y-90946832D01*
X76728976Y-91736699D01*
X76739995Y-91989077D01*
X76846756Y-92218028D01*
X77033006Y-92388695D01*
X77155760Y-92433374D01*
X77079128Y-92509873D01*
X76936482Y-92853401D01*
X76936410Y-92935663D01*
X76785729Y-93086345D01*
X76670009Y-93067305D01*
X76419353Y-93124071D01*
X76210531Y-93273884D01*
X76076446Y-93493138D01*
X75484373Y-95119845D01*
X75525013Y-94835366D01*
X75665782Y-94319213D01*
X75666668Y-94306561D01*
X75671926Y-94295018D01*
X75867749Y-93462769D01*
X76162365Y-92578922D01*
X76164324Y-92563383D01*
X76171482Y-92549452D01*
X76261707Y-92233664D01*
X76499785Y-91662277D01*
X76503461Y-91643997D01*
X76513037Y-91627999D01*
X76752618Y-90957171D01*
X76987443Y-90487522D01*
X77026305Y-90409798D01*
X77211929Y-90409798D01*
X77306809Y-90613270D01*
X78433736Y-91023437D01*
X78895206Y-89755557D01*
X78800326Y-89552085D01*
X78388796Y-89402301D01*
X78151412Y-89315900D01*
X77899034Y-89326919D01*
X77670083Y-89433681D01*
X77499417Y-89619931D01*
X77211929Y-90409798D01*
X77026305Y-90409798D01*
X77038243Y-90385922D01*
X77043829Y-90365524D01*
X77055793Y-90348083D01*
X77208193Y-89992483D01*
X77208949Y-89988910D01*
X77210985Y-89985877D01*
X77446761Y-89420014D01*
X77778483Y-88851349D01*
X77780951Y-88844184D01*
X77785852Y-88838406D01*
X78037757Y-88384977D01*
X78438296Y-87684032D01*
X78727324Y-87202318D01*
X78917221Y-86928023D01*
X79263976Y-86928023D01*
X79324654Y-87177761D01*
X79477713Y-87384216D01*
X80741059Y-88521738D01*
X80945561Y-88646290D01*
X81199230Y-88687555D01*
X81448968Y-88626877D01*
X81655423Y-88473818D01*
X82993685Y-86987528D01*
X83118237Y-86783026D01*
X83159502Y-86529357D01*
X83098824Y-86279619D01*
X83081023Y-86255607D01*
X84297078Y-86255607D01*
X84439123Y-86599383D01*
X84701913Y-86862632D01*
X85045441Y-87005278D01*
X85417407Y-87005602D01*
X85761183Y-86863557D01*
X85794358Y-86830440D01*
X87965438Y-86830440D01*
X89209478Y-88074480D01*
X89209438Y-88119967D01*
X89351483Y-88463743D01*
X89614273Y-88726992D01*
X89957801Y-88869638D01*
X90329767Y-88869962D01*
X90673543Y-88727917D01*
X90936792Y-88465127D01*
X91079438Y-88121599D01*
X91079762Y-87749633D01*
X90937717Y-87405857D01*
X90674927Y-87142608D01*
X90331399Y-86999962D01*
X90284523Y-86999921D01*
X88817641Y-85533039D01*
X88571079Y-85368292D01*
X88280240Y-85310440D01*
X85794703Y-85310440D01*
X85762567Y-85278248D01*
X85419039Y-85135602D01*
X85047073Y-85135278D01*
X84703297Y-85277323D01*
X84440048Y-85540113D01*
X84297402Y-85883641D01*
X84297078Y-86255607D01*
X83081023Y-86255607D01*
X82945765Y-86073164D01*
X82918562Y-86048670D01*
X83128832Y-85838767D01*
X83271478Y-85495239D01*
X83271560Y-85400940D01*
X83332040Y-85455396D01*
X83519772Y-85624431D01*
X83757901Y-85708756D01*
X84010173Y-85695535D01*
X84238183Y-85586780D01*
X84800627Y-84962123D01*
X84788877Y-84737924D01*
X83897661Y-83935469D01*
X83884279Y-83950332D01*
X83695520Y-83780373D01*
X83708902Y-83765510D01*
X83688023Y-83746710D01*
X84067620Y-83746710D01*
X84958836Y-84549165D01*
X85183035Y-84537415D01*
X85745479Y-83912758D01*
X85829805Y-83674630D01*
X85816584Y-83422357D01*
X85707829Y-83194347D01*
X85520097Y-83025312D01*
X85194643Y-82732272D01*
X84970444Y-82744022D01*
X84067620Y-83746710D01*
X83688023Y-83746710D01*
X82817686Y-82963055D01*
X82593487Y-82974805D01*
X82031043Y-83599462D01*
X81946717Y-83837590D01*
X81959938Y-84089863D01*
X82068693Y-84317873D01*
X82136909Y-84379296D01*
X81807697Y-84515323D01*
X81544448Y-84778113D01*
X81520089Y-84836775D01*
X81477917Y-84811090D01*
X81224248Y-84769825D01*
X80974510Y-84830503D01*
X80768055Y-84983562D01*
X79429793Y-86469852D01*
X79305241Y-86674354D01*
X79263976Y-86928023D01*
X78917221Y-86928023D01*
X79171357Y-86560939D01*
X79171359Y-86560935D01*
X79614573Y-85920738D01*
X80005617Y-85431934D01*
X80007078Y-85429116D01*
X80009486Y-85427053D01*
X80554978Y-84732791D01*
X80947061Y-84291698D01*
X80950353Y-84286083D01*
X80955472Y-84282062D01*
X81547324Y-83591568D01*
X82080713Y-83058178D01*
X82614198Y-82550097D01*
X82975895Y-82550097D01*
X82987645Y-82774296D01*
X83878861Y-83576751D01*
X84781686Y-82574063D01*
X84769936Y-82349864D01*
X84444482Y-82056824D01*
X84256750Y-81887789D01*
X84018621Y-81803464D01*
X83766349Y-81816685D01*
X83538339Y-81925440D01*
X82975895Y-82550097D01*
X82614198Y-82550097D01*
X83119065Y-82069272D01*
X83857133Y-81478817D01*
X83860435Y-81474894D01*
X83864952Y-81472470D01*
X84700867Y-80784069D01*
X85308671Y-80378866D01*
X86038448Y-80378866D01*
X86098671Y-80628714D01*
X86817122Y-82169437D01*
X86956701Y-82363994D01*
X87174081Y-82501095D01*
X87427675Y-82542820D01*
X87677522Y-82482597D01*
X89490137Y-81637360D01*
X89684694Y-81497781D01*
X89821794Y-81280401D01*
X89863520Y-81026808D01*
X89803297Y-80776960D01*
X89794083Y-80757200D01*
X89796367Y-80757202D01*
X90140143Y-80615157D01*
X90399063Y-80356689D01*
X90400248Y-80359231D01*
X90507009Y-80588181D01*
X90693259Y-80758848D01*
X90748267Y-80778869D01*
X90733762Y-80813801D01*
X90733721Y-80860677D01*
X89952639Y-81641759D01*
X89787892Y-81888321D01*
X89730040Y-82179160D01*
X89730040Y-84658200D01*
X89787892Y-84949039D01*
X89952639Y-85195601D01*
X90545518Y-85788480D01*
X90545478Y-85833967D01*
X90687523Y-86177743D01*
X90950313Y-86440992D01*
X91293841Y-86583638D01*
X91665807Y-86583962D01*
X92009583Y-86441917D01*
X92272832Y-86179127D01*
X92415478Y-85835599D01*
X92415802Y-85463633D01*
X92273757Y-85119857D01*
X92010967Y-84856608D01*
X91667439Y-84713962D01*
X91620563Y-84713921D01*
X91250040Y-84343398D01*
X91250040Y-82493962D01*
X91808280Y-81935722D01*
X91853767Y-81935762D01*
X92197543Y-81793717D01*
X92460792Y-81530927D01*
X92603438Y-81187399D01*
X92603762Y-80815433D01*
X92461717Y-80471657D01*
X92302531Y-80312193D01*
X92318907Y-80304557D01*
X92251817Y-80160682D01*
X92462782Y-80237467D01*
X93224587Y-79882231D01*
X93395253Y-79695981D01*
X93481655Y-79458598D01*
X93470636Y-79206219D01*
X93363874Y-78977269D01*
X93178792Y-78580360D01*
X92967825Y-78503574D01*
X91744990Y-79073792D01*
X91753442Y-79091918D01*
X91523239Y-79199263D01*
X91514787Y-79181137D01*
X91496661Y-79189589D01*
X91389316Y-78959386D01*
X91407442Y-78950934D01*
X90900617Y-77864045D01*
X90689650Y-77787259D01*
X89927845Y-78142495D01*
X89757179Y-78328745D01*
X89670777Y-78566128D01*
X89681796Y-78818507D01*
X89713795Y-78887129D01*
X89426033Y-78886878D01*
X89082257Y-79028923D01*
X88997101Y-79113931D01*
X88945267Y-79041680D01*
X88727887Y-78904579D01*
X88474293Y-78862854D01*
X88224446Y-78923077D01*
X86411831Y-79768314D01*
X86217274Y-79907893D01*
X86080174Y-80125273D01*
X86038448Y-80378866D01*
X85308671Y-80378866D01*
X85433037Y-80295956D01*
X85447182Y-80281840D01*
X85465200Y-80273200D01*
X86041984Y-79840612D01*
X86616148Y-79505683D01*
X86619490Y-79502726D01*
X86623692Y-79501220D01*
X87125198Y-79200317D01*
X87465235Y-79006009D01*
X88202430Y-78612838D01*
X89041093Y-78218173D01*
X89830285Y-77872902D01*
X90132410Y-77756700D01*
X91130820Y-77756700D01*
X91637645Y-78843589D01*
X92860480Y-78273372D01*
X92937266Y-78062405D01*
X92752184Y-77665495D01*
X92645423Y-77436545D01*
X92459173Y-77265878D01*
X92221789Y-77179478D01*
X91969410Y-77190497D01*
X91207605Y-77545733D01*
X91130820Y-77756700D01*
X90132410Y-77756700D01*
X90475675Y-77624675D01*
X90479749Y-77622100D01*
X90484487Y-77621218D01*
X90728041Y-77523797D01*
X91260920Y-77330023D01*
X92056735Y-77081331D01*
X92235260Y-77026400D01*
X95107760Y-77026400D01*
X95107760Y-78726400D01*
X95152038Y-78961717D01*
X95291110Y-79177841D01*
X95503310Y-79322831D01*
X95755200Y-79373840D01*
X97755200Y-79373840D01*
X97990517Y-79329562D01*
X98206641Y-79190490D01*
X98351631Y-78978290D01*
X98389300Y-78792274D01*
X98532841Y-78851878D01*
X98904807Y-78852202D01*
X99120200Y-78763204D01*
X99120200Y-78852710D01*
X99216873Y-79086099D01*
X99395502Y-79264727D01*
X99628891Y-79361400D01*
X99893638Y-79361400D01*
X99284599Y-79970439D01*
X99119852Y-80217001D01*
X99062000Y-80507840D01*
X99062000Y-83357878D01*
X98046560Y-84373318D01*
X98001073Y-84373278D01*
X97657297Y-84515323D01*
X97394048Y-84778113D01*
X97251402Y-85121641D01*
X97251078Y-85493607D01*
X97393123Y-85837383D01*
X97655913Y-86100632D01*
X97999441Y-86243278D01*
X98371407Y-86243602D01*
X98715183Y-86101557D01*
X98978432Y-85838767D01*
X99121078Y-85495239D01*
X99121119Y-85448363D01*
X100359401Y-84210081D01*
X100524148Y-83963519D01*
X100582000Y-83672680D01*
X100582000Y-80822642D01*
X101028480Y-80376162D01*
X101073967Y-80376202D01*
X101417743Y-80234157D01*
X101680992Y-79971367D01*
X101823638Y-79627839D01*
X101823870Y-79361400D01*
X101881509Y-79361400D01*
X102114898Y-79264727D01*
X102293527Y-79086099D01*
X102390200Y-78852710D01*
X102390200Y-78162150D01*
X102231450Y-78003400D01*
X100882200Y-78003400D01*
X100882200Y-78023400D01*
X100628200Y-78023400D01*
X100628200Y-78003400D01*
X100608200Y-78003400D01*
X100608200Y-77749400D01*
X100628200Y-77749400D01*
X100628200Y-76550150D01*
X100882200Y-76550150D01*
X100882200Y-77749400D01*
X102231450Y-77749400D01*
X102390200Y-77590650D01*
X102390200Y-76900090D01*
X102293527Y-76666701D01*
X102114898Y-76488073D01*
X101881509Y-76391400D01*
X101040950Y-76391400D01*
X100882200Y-76550150D01*
X100628200Y-76550150D01*
X100469450Y-76391400D01*
X99628891Y-76391400D01*
X99395502Y-76488073D01*
X99216873Y-76666701D01*
X99120200Y-76900090D01*
X99120200Y-77070964D01*
X98906439Y-76982202D01*
X98534473Y-76981878D01*
X98402640Y-77036350D01*
X98402640Y-77026400D01*
X98358362Y-76791083D01*
X98219290Y-76574959D01*
X98007090Y-76429969D01*
X97755200Y-76378960D01*
X95755200Y-76378960D01*
X95519883Y-76423238D01*
X95303759Y-76562310D01*
X95158769Y-76774510D01*
X95107760Y-77026400D01*
X92235260Y-77026400D01*
X92697440Y-76884191D01*
X93272212Y-76740498D01*
X93763637Y-76642213D01*
X93763643Y-76642213D01*
X94019472Y-76535930D01*
X94215156Y-76339837D01*
X94320902Y-76083786D01*
X94320613Y-75806757D01*
X94214330Y-75550928D01*
X94018237Y-75355244D01*
X93882232Y-75264574D01*
X93735168Y-75154276D01*
X93426250Y-74845358D01*
X93332845Y-74689683D01*
X93205850Y-74435692D01*
X93133115Y-74253854D01*
X93098099Y-74113792D01*
X93064400Y-73945298D01*
X93064400Y-71952302D01*
X93101412Y-71767243D01*
X93101433Y-71747260D01*
X93108064Y-71728409D01*
X93146828Y-71457063D01*
X93177743Y-71379776D01*
X93290649Y-71238643D01*
X93416334Y-71112958D01*
X93601128Y-70989762D01*
X93786487Y-70915619D01*
X93786516Y-70915600D01*
X95467396Y-70915600D01*
X95585800Y-70945201D01*
X95614447Y-70946595D01*
X95641277Y-70956740D01*
X95840770Y-70989989D01*
X95846878Y-70993043D01*
X95895806Y-71006442D01*
X95939878Y-71031565D01*
X96244678Y-71133165D01*
X96260217Y-71135124D01*
X96274148Y-71142282D01*
X96614916Y-71239644D01*
X96704808Y-71269608D01*
X96862879Y-71348644D01*
X96911808Y-71362043D01*
X96955878Y-71387165D01*
X97108277Y-71437964D01*
X97108278Y-71437965D01*
X97260679Y-71488765D01*
X97373582Y-71502998D01*
X97485200Y-71525200D01*
X97510223Y-71520223D01*
X97535531Y-71523413D01*
X97645293Y-71493355D01*
X97756905Y-71471154D01*
X97778114Y-71456983D01*
X97802722Y-71450244D01*
X97892628Y-71380467D01*
X97987246Y-71317246D01*
X98001420Y-71296033D01*
X98021572Y-71280393D01*
X98077930Y-71181527D01*
X98141154Y-71086905D01*
X98146131Y-71061886D01*
X98158765Y-71039722D01*
X98172999Y-70926811D01*
X98195200Y-70815200D01*
X98195200Y-70510057D01*
X98238864Y-70204409D01*
X98282805Y-69896821D01*
X98371082Y-69587852D01*
X98372066Y-69575870D01*
X98377201Y-69565000D01*
X98475930Y-69170084D01*
X98570044Y-68840685D01*
X98650809Y-68598391D01*
X98729844Y-68440321D01*
X98735430Y-68419923D01*
X98747393Y-68402483D01*
X98891576Y-68066056D01*
X99129342Y-67590524D01*
X99352299Y-67189201D01*
X99597724Y-66861968D01*
X100020331Y-66439360D01*
X100257955Y-66280944D01*
X100626895Y-66050357D01*
X100650008Y-66038800D01*
X101657467Y-66038800D01*
X101783874Y-66092975D01*
M02*
